.include "audio/m_play_def.s"

.align 2

.section .rodata
.global track_568

track_568_0:
	.byte KEYSH, 0
	.byte TEMPO, 75
	.byte VOICE, 12
	.byte VOL, 127
	.byte PAN, c_v-30
	.byte BENDR, 6
	.byte BEND, c_v-63
	.byte N64
	.byte Fn3, Gn8, CsM2
	.byte W01
	.byte BEND, c_v-42
	.byte W01
	.byte Gn1
	.byte W01
	.byte PAN, c_v-23
	.byte BEND, c_v
	.byte W03
	.byte PAN, c_v-15
	.byte W03
	.byte Gs2
	.byte W03
	.byte En3
	.byte W03
	.byte Bn3
	.byte W03
	.byte Gn4
	.byte W03
	.byte Dn5
	.byte W03
	.byte As5
	.byte BEND, c_v-1
	.byte W01
	.byte Cs3
	.byte W01
	.byte Bn2
	.byte W01
	.byte An2
	.byte W01
	.byte Gn2
	.byte W01
	.byte Fn2
	.byte W01
	.byte Ds2
	.byte W02
	.byte Cs2
	.byte W01
	.byte Bn1
	.byte W01
	.byte As1
	.byte W01
	.byte An1
	.byte W01
	.byte Gn1
	.byte W02
	.byte Fn1
	.byte W02
	.byte Ds1
	.byte W01
	.byte VOL, 115
	.byte W01
	.byte An6
	.byte BEND, c_v-27
	.byte W01
	.byte VOL, 95
	.byte W01
	.byte Cs5
	.byte W01
	.byte Fn4
	.byte BEND, c_v-29
	.byte W01
	.byte VOL, 69
	.byte W01
	.byte Dn3
	.byte BEND, c_v-30
	.byte W01
	.byte VOL, 55
	.byte W01
	.byte Cs2
	.byte W01
	.byte Gs1
	.byte W01
	.byte Ds1
	.byte W01
	.byte Bn0
	.byte W01
	.byte Gn0
	.byte W01
	.byte Ds0
	.byte W01
	.byte BnM1
	.byte W01
	.byte GsM1
	.byte W01
	.byte FnM1
	.byte W01
	.byte DnM1
	.byte W01
	.byte BnM2
	.byte W01
	.byte AnM2
	.byte W01
	.byte FsM2
	.byte W01
	.byte EnM2
	.byte W01
	.byte DnM2
	.byte W01
	.byte CnM2
	.byte W01

	.byte FINE

track_568_1:
	.byte KEYSH, 0
	.byte VOICE, 13
	.byte PAN, c_v-30
	.byte VOL, 127
	.byte BENDR, 6
	.byte BEND, c_v-63
	.byte N64
	.byte Cn4, Gn8, CsM2
	.byte W01
	.byte BEND, c_v-60
	.byte W01
	.byte FsM2
	.byte W01
	.byte PAN, c_v-23
	.byte BEND, c_v-55
	.byte W01
	.byte BnM2
	.byte W01
	.byte DnM1
	.byte W01
	.byte PAN, c_v-15
	.byte BEND, c_v-47
	.byte W01
	.byte GnM1
	.byte W01
	.byte AsM1
	.byte W01
	.byte PAN, c_v-8
	.byte BEND, c_v-39
	.byte W01
	.byte Ds0
	.byte W01
	.byte Fs0
	.byte W01
	.byte PAN, c_v
	.byte BEND, c_v-32
	.byte W01
	.byte Bn0
	.byte W01
	.byte Dn1
	.byte W01
	.byte PAN, c_v+7
	.byte BEND, c_v-24
	.byte W01
	.byte Gn1
	.byte W01
	.byte As1
	.byte W01
	.byte PAN, c_v+15
	.byte BEND, c_v-16
	.byte W01
	.byte Ds2
	.byte W01
	.byte Fn2
	.byte W01
	.byte PAN, c_v+22
	.byte BEND, c_v-8
	.byte W01
	.byte Bn2
	.byte W01
	.byte Cs3
	.byte W01
	.byte PAN, c_v+30
	.byte BEND, c_v
	.byte W01
	.byte Ds3
	.byte W01
	.byte Ds3
	.byte W01
	.byte Dn3
	.byte W01
	.byte Cs3
	.byte W01
	.byte Cs3
	.byte W01
	.byte Cn3
	.byte W01
	.byte Bn2
	.byte W01
	.byte Bn2
	.byte W01
	.byte As2
	.byte W01
	.byte An2
	.byte W01
	.byte An2
	.byte W01
	.byte Gs2
	.byte W01
	.byte Gn2
	.byte W01
	.byte Gn2
	.byte W01
	.byte Fs2
	.byte W01
	.byte Fn2
	.byte W01
	.byte VOL, 115
	.byte BEND, c_v-11
	.byte W01
	.byte VOL, 105
	.byte BEND, c_v-12
	.byte W01
	.byte VOL, 96
	.byte BEND, c_v-13
	.byte W01
	.byte VOL, 87
	.byte BEND, c_v-13
	.byte W01
	.byte VOL, 79
	.byte BEND, c_v-14
	.byte W01
	.byte VOL, 72
	.byte BEND, c_v-15
	.byte W01
	.byte VOL, 65
	.byte BEND, c_v-15
	.byte W01
	.byte VOL, 59
	.byte BEND, c_v-16
	.byte W01
	.byte VOL, 53
	.byte W01
	.byte Cn2
	.byte W01
	.byte Gn1
	.byte W01
	.byte Ds1
	.byte W01
	.byte As0
	.byte W01
	.byte Fs0
	.byte W01
	.byte Dn0
	.byte W01
	.byte BnM1
	.byte W01
	.byte GnM1
	.byte W01
	.byte EnM1
	.byte W01
	.byte CsM1
	.byte W01
	.byte AsM2
	.byte W01
	.byte GnM2
	.byte W01
	.byte FnM2
	.byte W01
	.byte DsM2
	.byte W01
	.byte CnM2
	.byte W01

	.byte FINE

.align 2

track_568:
	.byte 2
	.byte 0
	.byte 229
	.byte 0
	.word voice_group17
	.word track_568_0
	.word track_568_1

.align 2
