.align 2

.global track_50

track_50_0:
	.byte KEYSH, 0
track_50_lbl_21e7c6:
	.byte TEMPO, 66
	.byte VOICE, 5
	.byte PRIO, 120
	.byte VOL, 39
	.byte PAN, c_v-4
	.byte N10, As3, v052
	.byte W12
	.byte Cn4 @ N10, v052
	.byte W12
	.byte Dn4, v056 @ N10
	.byte W12
	.byte Cn4, v060 @ N10
	.byte W12
	.byte As3 @ N10, v060
	.byte W12
	.byte Cn4, v064 @ N10
	.byte W12
	.byte Dn4, v068 @ N10
	.byte W12
	.byte Cn4 @ N10, v068
	.byte W12
	.byte As3, v072 @ N10
	.byte W12
	.byte Cn4 @ N10, v072
	.byte W12
	.byte Dn4, v076 @ N10
	.byte W12
	.byte Cn4, v080 @ N10
	.byte W12
	.byte As3 @ N10, v080
	.byte W12
	.byte Cn4, v084 @ N10
	.byte W12
	.byte Dn4, v088 @ N10
	.byte W12
	.byte Cn4 @ N10, v088
	.byte W12
	.byte As3, v092 @ N10
	.byte W12
	.byte Cn4 @ N10, v092
	.byte W12
	.byte Dn4, v096 @ N10
	.byte W12
	.byte Cn4, v100 @ N10
	.byte W12
	.byte As3 @ N10, v100
	.byte W12
	.byte Cn4, v104 @ N10
	.byte W12
	.byte Dn4, v108 @ N10
	.byte W12
	.byte Cn4 @ N10, v108
	.byte W12
	.byte As3, v112 @ N10
	.byte W12
	.byte Cn4 @ N10, v112
	.byte W12
	.byte Dn4, v116 @ N10
	.byte W12
	.byte Cn4, v120 @ N10
	.byte W12
	.byte As3 @ N10, v120
	.byte W12
	.byte Cn4, v124 @ N10
	.byte W12
	.byte Dn4, v127 @ N10
	.byte W12
	.byte Cn4 @ N10, v127
	.byte W12
	.byte As3, v116 @ N10
	.byte W12
	.byte Cn4, v112 @ N10
	.byte W12
	.byte Dn4, v108 @ N10
	.byte W12
	.byte Cn4, v104 @ N10
	.byte W12
	.byte As3, v100 @ N10
	.byte W12
	.byte Cn4, v096 @ N10
	.byte W12
	.byte Dn4 @ N10, v096
	.byte W12
	.byte Cn4, v092 @ N10
	.byte W12
	.byte As3, v088 @ N10
	.byte W12
	.byte Cn4, v084 @ N10
	.byte W12
	.byte Dn4, v080 @ N10
	.byte W12
	.byte Cn4, v076 @ N10
	.byte W12
	.byte As3 @ N10, v076
	.byte W12
	.byte Cn4, v072 @ N10
	.byte W12
	.byte Dn4, v068 @ N10
	.byte W12
	.byte Cn4, v064 @ N10
	.byte W12
track_50_lbl_21e853:
	.byte N10, As3, v052
	.byte W12
	.byte Cn4 @ N10, v052
	.byte W12
	.byte Dn4, v056 @ N10
	.byte W12
	.byte Cn4, v060 @ N10
	.byte W12
	.byte As3 @ N10, v060
	.byte W12
	.byte Cn4, v064 @ N10
	.byte W12
	.byte Dn4, v068 @ N10
	.byte W12
	.byte Cn4 @ N10, v068
	.byte W12
	.byte PEND
track_50_lbl_21e86a:
	.byte N10, As3, v072
	.byte W12
	.byte Cn4, v068 @ N10
	.byte W12
	.byte Dn4, v060 @ N10
	.byte W12
	.byte Cn4, v056 @ N10
	.byte W12
	.byte As3, v052 @ N10
	.byte W12
	.byte Cn4, v048 @ N10
	.byte W12
	.byte Dn4, v040 @ N10
	.byte W12
	.byte Cn4, v036 @ N10
	.byte W12
	.byte PEND
track_50_lbl_21e884:
	.byte N10, Cs4, v032
	.byte W12
	.byte Ds4, v036 @ N10
	.byte W12
	.byte Fn4, v040 @ N10
	.byte W12
	.byte Ds4, v044 @ N10
	.byte W12
	.byte Cs4, v048 @ N10
	.byte W12
	.byte Ds4, v052 @ N10
	.byte W12
	.byte Fn4, v056 @ N10
	.byte W12
	.byte Ds4, v060 @ N10
	.byte W12
	.byte PEND
track_50_lbl_21e89e:
	.byte N10, Cs4, v068
	.byte W12
	.byte Ds4, v072 @ N10
	.byte W12
	.byte Fn4, v076 @ N10
	.byte W12
	.byte Ds4, v080 @ N10
	.byte W12
	.byte Cs4, v084 @ N10
	.byte W12
	.byte Ds4, v088 @ N10
	.byte W12
	.byte Fn4, v092 @ N10
	.byte W12
	.byte Ds4, v096 @ N10
	.byte W12
	.byte PEND
track_50_lbl_21e8b8:
	.byte N10, Cs4, v096
	.byte W12
	.byte Ds4 @ N10, v096
	.byte W12
	.byte Fn4, v092 @ N10
	.byte W12
	.byte Ds4, v088 @ N10
	.byte W12
	.byte Cs4 @ N10, v088
	.byte W12
	.byte Ds4, v084 @ N10
	.byte W12
	.byte Fn4 @ N10, v084
	.byte W12
	.byte Ds4, v080 @ N10
	.byte W12
	.byte PEND
track_50_lbl_21e8cf:
	.byte N10, Cs4, v080
	.byte W12
	.byte Ds4, v076 @ N10
	.byte W12
	.byte Fn4 @ N10, v076
	.byte W12
	.byte Ds4, v072 @ N10
	.byte W12
	.byte Cs4, v068 @ N10
	.byte W12
	.byte Ds4 @ N10, v068
	.byte W12
	.byte Fn4, v064 @ N10
	.byte W12
	.byte Ds4 @ N10, v064
	.byte W12
	.byte PEND
	.byte As3, v032 @ N10
	.byte W12
	.byte Cn4, v036 @ N10
	.byte W12
	.byte Dn4, v044 @ N10
	.byte W12
	.byte Cn4, v048 @ N10
	.byte W12
	.byte As3, v056 @ N10
	.byte W12
	.byte Cn4, v060 @ N10
	.byte W12
	.byte Dn4, v068 @ N10
	.byte W12
	.byte Cn4, v072 @ N10
	.byte W12
	.byte As3, v068 @ N10
	.byte W12
	.byte Cn4, v076 @ N10
	.byte W12
	.byte Dn4, v080 @ N10
	.byte W12
	.byte Cn4, v088 @ N10
	.byte W12
	.byte As3, v092 @ N10
	.byte W12
	.byte Cn4, v100 @ N10
	.byte W12
	.byte Dn4, v104 @ N10
	.byte W12
	.byte Cn4, v112 @ N10
	.byte W12
	.byte As3, v120 @ N10
	.byte W12
	.byte Cn4, v112 @ N10
	.byte W12
	.byte Dn4, v104 @ N10
	.byte W12
	.byte Cn4, v100 @ N10
	.byte W12
	.byte As3, v092 @ N10
	.byte W12
	.byte Cn4, v088 @ N10
	.byte W12
	.byte Dn4, v080 @ N10
	.byte W12
	.byte Cn4, v076 @ N10
	.byte W12
	.byte As3, v080 @ N10
	.byte W12
	.byte Cn4, v072 @ N10
	.byte W12
	.byte Dn4, v068 @ N10
	.byte W12
	.byte Cn4, v060 @ N10
	.byte W12
	.byte As3, v056 @ N10
	.byte W12
	.byte Cn4, v048 @ N10
	.byte W12
	.byte Dn4, v044 @ N10
	.byte W12
	.byte Cn4, v036 @ N10
	.byte W12
track_50_lbl_21e946:
	.byte N10, Cs4, v032
	.byte W12
	.byte Ds4, v036 @ N10
	.byte W12
	.byte Fn4, v044 @ N10
	.byte W12
	.byte Ds4, v048 @ N10
	.byte W12
	.byte Cs4, v056 @ N10
	.byte W12
	.byte Ds4, v060 @ N10
	.byte W12
	.byte Fn4, v068 @ N10
	.byte W12
	.byte Ds4, v072 @ N10
	.byte W12
	.byte PEND
track_50_lbl_21e960:
	.byte N10, Cs4, v080
	.byte W12
	.byte Ds4, v084 @ N10
	.byte W12
	.byte Fn4, v092 @ N10
	.byte W12
	.byte Ds4, v096 @ N10
	.byte W12
	.byte Cs4, v104 @ N10
	.byte W12
	.byte Ds4, v108 @ N10
	.byte W12
	.byte Fn4, v116 @ N10
	.byte W12
	.byte Ds4, v120 @ N10
	.byte W12
	.byte PEND
track_50_lbl_21e97a:
	.byte N10, Cs4, v127
	.byte W12
	.byte Ds4, v120 @ N10
	.byte W12
	.byte Fn4, v116 @ N10
	.byte W12
	.byte Ds4, v108 @ N10
	.byte W12
	.byte Cs4, v104 @ N10
	.byte W12
	.byte Ds4, v096 @ N10
	.byte W12
	.byte Fn4, v092 @ N10
	.byte W12
	.byte Ds4, v084 @ N10
	.byte W12
	.byte PEND
track_50_lbl_21e994:
	.byte N10, Cs4, v080
	.byte W12
	.byte Ds4, v072 @ N10
	.byte W12
	.byte Fn4, v068 @ N10
	.byte W12
	.byte Ds4, v060 @ N10
	.byte W12
	.byte Cs4, v056 @ N10
	.byte W12
	.byte Ds4, v048 @ N10
	.byte W12
	.byte Fn4, v044 @ N10
	.byte W12
	.byte Ds4, v036 @ N10
	.byte W12
	.byte PEND
track_50_lbl_21e9ae:
	.byte N10, As3, v032
	.byte W12
	.byte Cn4, v044 @ N10
	.byte W12
	.byte Dn4, v056 @ N10
	.byte W12
	.byte Cn4, v068 @ N10
	.byte W12
	.byte As3, v080 @ N10
	.byte W12
	.byte Cn4, v092 @ N10
	.byte W12
	.byte Dn4, v104 @ N10
	.byte W12
	.byte Cn4, v116 @ N10
	.byte W12
	.byte PEND
	.byte As3, v112 @ N10
	.byte W12
	.byte Cn4, v104 @ N10
	.byte W12
	.byte Dn4, v100 @ N10
	.byte W12
	.byte Cn4, v092 @ N10
	.byte W12
	.byte As3, v088 @ N10
	.byte W12
	.byte Cn4, v080 @ N10
	.byte W12
	.byte Dn4, v072 @ N10
	.byte W12
	.byte Cn4, v068 @ N10
	.byte W12
	.byte As3, v060 @ N10
	.byte W12
	.byte Cn4, v056 @ N10
	.byte W12
	.byte Dn4, v052 @ N10
	.byte W12
	.byte Cn4, v048 @ N10
	.byte W12
	.byte As3 @ N10, v048
	.byte W12
	.byte Cn4, v044 @ N10
	.byte W12
	.byte Dn4, v040 @ N10
	.byte W12
	.byte Cn4, v036 @ N10
	.byte W12
track_50_lbl_21e9f7:
	.byte N10, As3, v032
	.byte W12
	.byte Cn4, v040 @ N10
	.byte W12
	.byte Dn4, v048 @ N10
	.byte W12
	.byte Cn4, v056 @ N10
	.byte W12
	.byte As3, v068 @ N10
	.byte W12
	.byte Cn4, v076 @ N10
	.byte W12
	.byte Dn4, v084 @ N10
	.byte W12
	.byte Cn4, v092 @ N10
	.byte W12
	.byte PEND
track_50_lbl_21ea11:
	.byte N10, Cs4, v100
	.byte W12
	.byte Ds4, v092 @ N10
	.byte W12
	.byte Fn4, v084 @ N10
	.byte W12
	.byte Ds4, v076 @ N10
	.byte W12
	.byte Cs4, v068 @ N10
	.byte W12
	.byte Ds4, v056 @ N10
	.byte W12
	.byte Fn4, v048 @ N10
	.byte W12
	.byte Ds4, v040 @ N10
	.byte W12
	.byte PEND
track_50_lbl_21ea2b:
	.byte N10, Cs4, v032
	.byte W12
	.byte Ds4, v040 @ N10
	.byte W12
	.byte Fn4, v048 @ N10
	.byte W12
	.byte Ds4, v056 @ N10
	.byte W12
	.byte Cs4, v068 @ N10
	.byte W12
	.byte Ds4, v076 @ N10
	.byte W12
	.byte Fn4, v084 @ N10
	.byte W12
	.byte Ds4, v092 @ N10
	.byte W12
	.byte PEND
track_50_lbl_21ea45:
	.byte N10, Cs4, v100
	.byte W12
	.byte Ds4, v096 @ N10
	.byte W12
	.byte Fn4, v092 @ N10
	.byte W12
	.byte Ds4, v088 @ N10
	.byte W12
	.byte Cs4, v084 @ N10
	.byte W12
	.byte Ds4, v080 @ N10
	.byte W12
	.byte Fn4, v076 @ N10
	.byte W12
	.byte Ds4, v072 @ N10
	.byte W12
	.byte PEND
track_50_lbl_21ea5f:
	.byte N10, Cs4, v068
	.byte W12
	.byte Ds4, v060 @ N10
	.byte W12
	.byte Fn4, v056 @ N10
	.byte W12
	.byte Ds4, v052 @ N10
	.byte W12
	.byte Cs4, v048 @ N10
	.byte W12
	.byte Ds4, v044 @ N10
	.byte W12
	.byte Fn4, v040 @ N10
	.byte W12
	.byte Ds4, v036 @ N10
	.byte W12
	.byte PEND
	.byte PATT
		.word track_50_lbl_21e9f7
	.byte N10, As3, v100
	.byte W12
	.byte Cn4, v096 @ N10
	.byte W12
	.byte Dn4, v092 @ N10
	.byte W12
	.byte Cn4, v088 @ N10
	.byte W12
	.byte As3 @ N10, v088
	.byte W12
	.byte Cn4, v084 @ N10
	.byte W12
	.byte Dn4, v080 @ N10
	.byte W12
	.byte Cn4, v076 @ N10
	.byte W12
	.byte As3, v072 @ N10
	.byte W12
	.byte Cn4, v068 @ N10
	.byte W12
	.byte Dn4 @ N10, v068
	.byte W12
	.byte Cn4, v064 @ N10
	.byte W12
	.byte As3, v060 @ N10
	.byte W12
	.byte Cn4 @ N10, v060
	.byte W12
	.byte Dn4, v056 @ N10
	.byte W12
	.byte Cn4, v052 @ N10
	.byte W12
	.byte As3 @ N10, v052
	.byte W12
	.byte Cn4, v048 @ N10
	.byte W12
	.byte Dn4 @ N10, v048
	.byte W12
	.byte Cn4, v044 @ N10
	.byte W12
	.byte As3, v040 @ N10
	.byte W12
	.byte Cn4 @ N10, v040
	.byte W12
	.byte Dn4, v036 @ N10
	.byte W12
	.byte Cn4, v032 @ N10
	.byte W12
	.byte PATT
		.word track_50_lbl_21e946
	.byte N10, Cs4, v080
	.byte W12
	.byte Ds4, v084 @ N10
	.byte W12
	.byte Fn4, v092 @ N10
	.byte W12
	.byte Ds4, v096 @ N10
	.byte W12
	.byte Cs4, v104 @ N10
	.byte W12
	.byte Ds4, v108 @ N10
	.byte W12
	.byte Fn4 @ N10, v108
	.byte W12
	.byte Ds4 @ N10, v108
	.byte W12
	.byte Cs4 @ N10, v108
	.byte W12
	.byte Ds4 @ N10, v108
	.byte W12
	.byte Fn4 @ N10, v108
	.byte W12
	.byte Ds4 @ N10, v108
	.byte W12
	.byte Cs4, v104 @ N10
	.byte W12
	.byte Ds4, v096 @ N10
	.byte W12
	.byte Fn4, v092 @ N10
	.byte W12
	.byte Ds4, v084 @ N10
	.byte W12
	.byte PATT
		.word track_50_lbl_21e994
	.byte PATT
		.word track_50_lbl_21e9ae
	.byte N10, As3, v127
	.byte W12
	.byte Cn4, v120 @ N10
	.byte W12
	.byte Dn4, v108 @ N10
	.byte W12
	.byte Cn4, v100 @ N10
	.byte W12
	.byte As3, v088 @ N10
	.byte W12
	.byte Cn4, v080 @ N10
	.byte W12
	.byte Dn4, v072 @ N10
	.byte W12
	.byte Cn4, v060 @ N10
	.byte W12
	.byte As3 @ N10, v060
	.byte W12
	.byte Cn4, v064 @ N10
	.byte W12
	.byte Dn4, v068 @ N10
	.byte W12
	.byte Cn4 @ N10, v068
	.byte W12
	.byte As3, v072 @ N10
	.byte W12
	.byte Cn4 @ N10, v072
	.byte W12
	.byte Dn4, v076 @ N10
	.byte W12
	.byte Cn4, v080 @ N10
	.byte W12
	.byte As3 @ N10, v080
	.byte W12
	.byte Cn4, v084 @ N10
	.byte W12
	.byte Dn4, v088 @ N10
	.byte W12
	.byte Cn4 @ N10, v088
	.byte W12
	.byte As3, v092 @ N10
	.byte W12
	.byte Cn4 @ N10, v092
	.byte W12
	.byte Dn4, v096 @ N10
	.byte W12
	.byte Cn4, v100 @ N10
	.byte W12
	.byte PATT
		.word track_50_lbl_21ea45
	.byte PATT
		.word track_50_lbl_21ea5f
	.byte PATT
		.word track_50_lbl_21ea2b
	.byte PATT
		.word track_50_lbl_21ea11
	.byte VOICE, 5
	.byte PAN, c_v-4
	.byte N10, As3, v052
	.byte W12
	.byte Cn4 @ N10, v052
	.byte W12
	.byte Dn4, v056 @ N10
	.byte W12
	.byte Cn4, v060 @ N10
	.byte W12
	.byte As3 @ N10, v060
	.byte W12
	.byte Cn4, v064 @ N10
	.byte W12
	.byte Dn4, v068 @ N10
	.byte W12
	.byte Cn4 @ N10, v068
	.byte W12
	.byte As3, v072 @ N10
	.byte W12
	.byte Cn4 @ N10, v072
	.byte W12
	.byte Dn4, v076 @ N10
	.byte W12
	.byte Cn4, v080 @ N10
	.byte W12
	.byte As3 @ N10, v080
	.byte W12
	.byte Cn4, v084 @ N10
	.byte W12
	.byte Dn4 @ N10, v084
	.byte W12
	.byte Cn4, v088 @ N10
	.byte W12
	.byte As3 @ N10, v088
	.byte W12
	.byte Cn4, v092 @ N10
	.byte W12
	.byte Dn4 @ N10, v092
	.byte W12
	.byte Cn4, v096 @ N10
	.byte W12
	.byte As3 @ N10, v096
	.byte W12
	.byte Cn4, v100 @ N10
	.byte W12
	.byte Dn4 @ N10, v100
	.byte W12
	.byte Cn4 @ N10, v100
	.byte W12
	.byte As3, v104 @ N10
	.byte W12
	.byte Cn4 @ N10, v104
	.byte W12
	.byte Dn4, v108 @ N10
	.byte W12
	.byte Cn4 @ N10, v108
	.byte W12
	.byte As3 @ N10, v108
	.byte W12
	.byte Cn4 @ N10, v108
	.byte W12
	.byte Dn4 @ N10, v108
	.byte W12
	.byte Cn4 @ N10, v108
	.byte W12
	.byte As3, v096 @ N10
	.byte W12
	.byte Cn4 @ N10, v096
	.byte W12
	.byte Dn4 @ N10, v096
	.byte W12
	.byte Cn4 @ N10, v096
	.byte W12
	.byte As3, v092 @ N10
	.byte W12
	.byte Cn4, v088 @ N10
	.byte W12
	.byte Dn4, v084 @ N10
	.byte W12
	.byte Cn4, v080 @ N10
	.byte W12
	.byte As3, v076 @ N10
	.byte W12
	.byte Cn4 @ N10, v076
	.byte W12
	.byte Dn4, v072 @ N10
	.byte W12
	.byte Cn4, v068 @ N10
	.byte W12
	.byte As3, v064 @ N10
	.byte W12
	.byte Cn4, v060 @ N10
	.byte W12
	.byte Dn4, v056 @ N10
	.byte W12
	.byte Cn4 @ N10, v056
	.byte W12
	.byte PATT
		.word track_50_lbl_21e853
	.byte PATT
		.word track_50_lbl_21e86a
	.byte PATT
		.word track_50_lbl_21e884
	.byte PATT
		.word track_50_lbl_21e89e
	.byte PATT
		.word track_50_lbl_21e8b8
	.byte PATT
		.word track_50_lbl_21e8cf
	.byte PATT
		.word track_50_lbl_21e946
	.byte PATT
		.word track_50_lbl_21e960
	.byte PATT
		.word track_50_lbl_21e97a
	.byte PATT
		.word track_50_lbl_21e994
	.byte PATT
		.word track_50_lbl_21e946
	.byte PATT
		.word track_50_lbl_21e960
	.byte PATT
		.word track_50_lbl_21e97a
	.byte PATT
		.word track_50_lbl_21e994
	.byte GOTO
		.word track_50_lbl_21e7c6
	.byte FINE

track_50_1:
	.byte KEYSH, 0
track_50_lbl_21ec1f:
	.byte VOICE, 95
	.byte VOL, 94
	.byte PRIO, 119
	.byte PAN, c_v-10
	.byte BEND, c_v
	.byte N68, En0, v120, 1
	.byte W54
	.byte W01
	.byte VOL, 92
	.byte W04
	.byte 89 @ VOL
	.byte W04
	.byte 86 @ VOL
	.byte W09
	.byte N21, Gs0, v092
	.byte W24
track_50_lbl_21ec3a:
	.byte N44, As0, v100, 1
	.byte W48
	.byte Dn1 @ N44, v100
	.byte W48
	.byte PEND
track_50_lbl_21ec42:
	.byte VOL, 86
	.byte TIE, Cn1, v080
	.byte W96
	.byte PEND
	.byte W96
track_50_lbl_21ec4a:
	.byte W09
	.byte BEND, c_v-2
	.byte W04
	.byte c_v-4 @ BEND
	.byte W04
	.byte VOL, 83
	.byte W04
	.byte BEND, c_v-6
	.byte W08
	.byte c_v-8 @ BEND
	.byte W02
	.byte VOL, 80
	.byte W06
	.byte BEND, c_v-10
	.byte W07
	.byte c_v-12 @ BEND
	.byte W04
	.byte VOL, 77
	.byte W01
	.byte BEND, c_v-14
	.byte W05
	.byte c_v-15 @ BEND
	.byte W04
	.byte VOL, 74
	.byte W01
	.byte BEND, c_v-16
	.byte W06
	.byte c_v-18 @ BEND
	.byte W01
	.byte VOL, 70
	.byte W04
	.byte BEND, c_v-20
	.byte W04
	.byte c_v-22 @ BEND
	.byte W02
	.byte VOL, 67
	.byte W02
	.byte BEND, c_v-24
	.byte W02
	.byte VOL, 64
	.byte W02
	.byte BEND, c_v-26
	.byte W04
	.byte c_v-28 @ BEND
	.byte W01
	.byte VOL, 61
	.byte W04
	.byte 58 @ VOL
	.byte BEND, c_v-29
	.byte W03
	.byte c_v-30 @ BEND
	.byte W02
	.byte PEND
track_50_lbl_21ec90:
	.byte VOL, 55
	.byte W02
	.byte BEND, c_v-32
	.byte W04
	.byte VOL, 51
	.byte BEND, c_v-34
	.byte W03
	.byte VOL, 48
	.byte BEND, c_v-36
	.byte W03
	.byte c_v-38 @ BEND
	.byte W02
	.byte VOL, 45
	.byte W01
	.byte BEND, c_v-40
	.byte W03
	.byte VOL, 42
	.byte BEND, c_v-42
	.byte W02
	.byte c_v-43 @ BEND
	.byte W01
	.byte VOL, 39
	.byte W02
	.byte BEND, c_v-44
	.byte W03
	.byte c_v-46 @ BEND
	.byte W01
	.byte VOL, 36
	.byte W02
	.byte BEND, c_v-48
	.byte W01
	.byte VOL, 33
	.byte W02
	.byte BEND, c_v-50
	.byte W03
	.byte VOL, 29
	.byte BEND, c_v-51
	.byte W03
	.byte VOL, 26
	.byte W03
	.byte 23 @ VOL
	.byte W04
	.byte 20 @ VOL
	.byte W01
	.byte PEND
	.byte EOT, Cn1 @ v080
	.byte W14
	.byte BEND, c_v
	.byte W36
	.byte VOL, 86
	.byte N44, Fs1, v108, 3
	.byte W48
	.byte En1, v108, 1 @ N44
	.byte W10
	.byte VOL, 83
	.byte W05
	.byte 80 @ VOL
	.byte W06
	.byte 77 @ VOL
	.byte W06
	.byte 74 @ VOL
	.byte W06
	.byte 70 @ VOL
	.byte W05
	.byte 67 @ VOL
	.byte W06
	.byte 64 @ VOL
	.byte W04
	.byte 78 @ VOL
	.byte N44, Cn1, v100, 1
	.byte W48
	.byte N48, Gs0 @ v100
	.byte W48
	.byte TIE, Fs0, v080
	.byte W96
	.byte W12
	.byte VOL, 83
	.byte W06
	.byte 80 @ VOL
	.byte W06
	.byte 77 @ VOL
	.byte W06
	.byte 74 @ VOL
	.byte W05
	.byte 70 @ VOL
	.byte W06
	.byte 67 @ VOL
	.byte W06
	.byte 64 @ VOL
	.byte W06
	.byte 61 @ VOL
	.byte W06
	.byte 58 @ VOL
	.byte W05
	.byte 55 @ VOL
	.byte W06
	.byte 51 @ VOL
	.byte W20
	.byte EOT @ Fs0, v080
	.byte W06
	.byte W96
	.byte W96
	.byte VOICE, 2
	.byte PAN, c_v-10
	.byte VOL, 18
	.byte BEND, c_v
	.byte TIE, Fn3, v096
	.byte W06
	.byte VOL, 20
	.byte W06
	.byte 23 @ VOL
	.byte W06
	.byte 26 @ VOL
	.byte W08
	.byte 29 @ VOL
	.byte W11
	.byte 33 @ VOL
	.byte W12
	.byte 36 @ VOL
	.byte W21
	.byte 38 @ VOL
	.byte W24
	.byte W02
	.byte W02
	.byte BEND, c_v
	.byte W02
	.byte c_v-1 @ BEND
	.byte W03
	.byte c_v-2 @ BEND
	.byte W03
	.byte c_v-3 @ BEND
	.byte W02
	.byte VOL, 36
	.byte W04
	.byte BEND, c_v-4
	.byte W03
	.byte c_v-5 @ BEND
	.byte W05
	.byte c_v-6 @ BEND
	.byte W02
	.byte c_v-7 @ BEND
	.byte W03
	.byte VOL, 33
	.byte W02
	.byte BEND, c_v-8
	.byte W02
	.byte c_v-9 @ BEND
	.byte W02
	.byte c_v-10 @ BEND
	.byte W02
	.byte c_v-11 @ BEND
	.byte W05
	.byte c_v-12 @ BEND
	.byte W02
	.byte c_v-13 @ BEND
	.byte W02
	.byte VOL, 29
	.byte W02
	.byte BEND, c_v-14
	.byte W02
	.byte c_v-15 @ BEND
	.byte W04
	.byte c_v-16 @ BEND
	.byte W02
	.byte c_v-17 @ BEND
	.byte W04
	.byte VOL, 26
	.byte BEND, c_v-18
	.byte W02
	.byte c_v-19 @ BEND
	.byte W02
	.byte c_v-20 @ BEND
	.byte W02
	.byte c_v-21 @ BEND
	.byte W03
	.byte c_v-22 @ BEND
	.byte W02
	.byte c_v-23 @ BEND
	.byte W01
	.byte VOL, 23
	.byte W03
	.byte BEND, c_v-24
	.byte W02
	.byte c_v-25 @ BEND
	.byte W04
	.byte c_v-26 @ BEND
	.byte W01
	.byte c_v-27 @ BEND
	.byte W02
	.byte VOL, 20
	.byte BEND, c_v-28
	.byte W01
	.byte c_v-29 @ BEND
	.byte W03
	.byte c_v-30 @ BEND
	.byte W02
	.byte c_v-31 @ BEND
	.byte W03
	.byte c_v-32 @ BEND
	.byte W01
	.byte c_v-33 @ BEND
	.byte W01
	.byte VOL, 17
	.byte W01
	.byte W01
	.byte BEND, c_v-34
	.byte W02
	.byte c_v-35 @ BEND
	.byte W03
	.byte c_v-36 @ BEND
	.byte W02
	.byte c_v-37 @ BEND
	.byte W01
	.byte c_v-38 @ BEND
	.byte W01
	.byte VOL, 14
	.byte BEND, c_v-39
	.byte W03
	.byte c_v-40 @ BEND
	.byte W01
	.byte c_v-41 @ BEND
	.byte W02
	.byte VOL, 11
	.byte W01
	.byte BEND, c_v-42
	.byte W01
	.byte c_v-43 @ BEND
	.byte W03
	.byte c_v-44 @ BEND
	.byte W01
	.byte c_v-45 @ BEND
	.byte W02
	.byte EOT @ Fn3, v096
	.byte W01
	.byte BEND, c_v-46
	.byte W01
	.byte c_v-47 @ BEND
	.byte W02
	.byte c_v-48 @ BEND
	.byte W01
	.byte c_v-49 @ BEND
	.byte W03
	.byte c_v-50 @ BEND
	.byte W01
	.byte c_v-51 @ BEND
	.byte W02
	.byte c_v-52 @ BEND
	.byte W02
	.byte c_v-53 @ BEND
	.byte W02
	.byte c_v-54 @ BEND
	.byte W02
	.byte c_v-55 @ BEND
	.byte W01
	.byte c_v-56 @ BEND
	.byte W01
	.byte c_v-57 @ BEND
	.byte W02
	.byte c_v-58 @ BEND
	.byte W02
	.byte c_v-59 @ BEND
	.byte W02
	.byte c_v-60 @ BEND
	.byte W01
	.byte c_v-61 @ BEND
	.byte W03
	.byte c_v-62 @ BEND
	.byte W01
	.byte c_v-63 @ BEND
	.byte W42
	.byte W96
	.byte c_v @ BEND
	.byte TIE, Cn4, v124
	.byte W02
	.byte VOL, 14
	.byte W05
	.byte 17 @ VOL
	.byte W06
	.byte 20 @ VOL
	.byte W06
	.byte 23 @ VOL
	.byte W09
	.byte 26 @ VOL
	.byte W12
	.byte 29 @ VOL
	.byte W24
	.byte W01
	.byte 33 @ VOL
	.byte W30
	.byte W01
	.byte W12
	.byte 29 @ VOL
	.byte W17
	.byte 26 @ VOL
	.byte W14
	.byte 23 @ VOL
	.byte W12
	.byte 20 @ VOL
	.byte W11
	.byte 17 @ VOL
	.byte W10
	.byte 14 @ VOL
	.byte W09
	.byte 11 @ VOL
	.byte W07
	.byte 8 @ VOL
	.byte W04
	.byte EOT @ Cn4, v124
	.byte W96
	.byte W96
	.byte W96
	.byte VOL, 37
	.byte N96, Cn4, v068
	.byte W02
	.byte VOL, 38
	.byte W02
	.byte 41 @ VOL
	.byte W02
	.byte 43 @ VOL
	.byte W02
	.byte 46 @ VOL
	.byte W03
	.byte 49 @ VOL
	.byte W05
	.byte 52 @ VOL
	.byte W07
	.byte 55 @ VOL
	.byte W09
	.byte 56 @ VOL
	.byte W11
	.byte 55 @ VOL
	.byte W09
	.byte 52 @ VOL
	.byte W08
	.byte 49 @ VOL
	.byte W06
	.byte 46 @ VOL
	.byte W05
	.byte 43 @ VOL
	.byte W05
	.byte 40 @ VOL
	.byte W03
	.byte 38 @ VOL
	.byte W03
	.byte 36 @ VOL
	.byte W03
	.byte 33 @ VOL
	.byte W04
	.byte 30 @ VOL
	.byte W04
	.byte 27 @ VOL
	.byte W03
	.byte TIE, As3, v052
	.byte W03
	.byte VOL, 25
	.byte W01
	.byte 29 @ VOL
	.byte W01
	.byte 33 @ VOL
	.byte W01
	.byte 37 @ VOL
	.byte W01
	.byte 40 @ VOL
	.byte W01
	.byte 43 @ VOL
	.byte W01
	.byte 46 @ VOL
	.byte W01
	.byte 49 @ VOL
	.byte W01
	.byte 51 @ VOL
	.byte W01
	.byte 54 @ VOL
	.byte W01
	.byte 55 @ VOL
	.byte W01
	.byte 58 @ VOL
	.byte W01
	.byte 60 @ VOL
	.byte W02
	.byte 63 @ VOL
	.byte W02
	.byte 66 @ VOL
	.byte W02
	.byte 69 @ VOL
	.byte W02
	.byte 71 @ VOL
	.byte W02
	.byte 74 @ VOL
	.byte W04
	.byte 77 @ VOL
	.byte W05
	.byte 80 @ VOL
	.byte W13
	.byte 83 @ VOL
	.byte W19
	.byte 80 @ VOL
	.byte W09
	.byte 77 @ VOL
	.byte W08
	.byte 74 @ VOL
	.byte W07
	.byte 70 @ VOL
	.byte W06
	.byte W01
	.byte 67 @ VOL
	.byte W06
	.byte 64 @ VOL
	.byte W05
	.byte 61 @ VOL
	.byte W06
	.byte 58 @ VOL
	.byte W05
	.byte 55 @ VOL
	.byte W05
	.byte 51 @ VOL
	.byte W04
	.byte 49 @ VOL
	.byte W05
	.byte 46 @ VOL
	.byte W05
	.byte 43 @ VOL
	.byte W04
	.byte 40 @ VOL
	.byte W05
	.byte 37 @ VOL
	.byte W05
	.byte 34 @ VOL
	.byte W04
	.byte 31 @ VOL
	.byte W03
	.byte 29 @ VOL
	.byte W05
	.byte 25 @ VOL
	.byte W03
	.byte 23 @ VOL
	.byte W05
	.byte 20 @ VOL
	.byte W02
	.byte EOT @ As3, v052
	.byte W18
	.byte W96
	.byte VOL, 29
	.byte N96, An3, v108
	.byte W05
	.byte VOL, 33
	.byte W05
	.byte 36 @ VOL
	.byte W11
	.byte 39 @ VOL
	.byte W30
	.byte W01
	.byte 36 @ VOL
	.byte W09
	.byte 33 @ VOL
	.byte W08
	.byte 29 @ VOL
	.byte W08
	.byte 26 @ VOL
	.byte W07
	.byte 23 @ VOL
	.byte W07
	.byte 20 @ VOL
	.byte W05
	.byte 18 @ VOL
	.byte TIE, Gs3, v088
	.byte W07
	.byte VOL, 21
	.byte W02
	.byte 24 @ VOL
	.byte W04
	.byte 27 @ VOL
	.byte W03
	.byte 30 @ VOL
	.byte W03
	.byte 33 @ VOL
	.byte W03
	.byte 36 @ VOL
	.byte W03
	.byte 38 @ VOL
	.byte W05
	.byte 40 @ VOL
	.byte W06
	.byte 44 @ VOL
	.byte W08
	.byte 47 @ VOL
	.byte W11
	.byte 50 @ VOL
	.byte W13
	.byte 53 @ VOL
	.byte W21
	.byte 56 @ VOL
	.byte W07
	.byte W20
	.byte 58 @ VOL
	.byte W56
	.byte W03
	.byte 55 @ VOL
	.byte W09
	.byte 51 @ VOL
	.byte W08
	.byte W02
	.byte 48 @ VOL
	.byte W08
	.byte BEND, c_v
	.byte W01
	.byte c_v-1 @ BEND
	.byte W01
	.byte c_v-2 @ BEND
	.byte W02
	.byte c_v-3 @ BEND
	.byte W01
	.byte VOL, 45
	.byte BEND, c_v-3
	.byte W02
	.byte c_v-4 @ BEND
	.byte W02
	.byte c_v-5 @ BEND
	.byte W06
	.byte c_v-6 @ BEND
	.byte W03
	.byte c_v-7 @ BEND
	.byte W02
	.byte VOL, 42
	.byte W04
	.byte BEND, c_v-8
	.byte W05
	.byte c_v-9 @ BEND
	.byte W03
	.byte c_v-10 @ BEND
	.byte W04
	.byte c_v-11 @ BEND
	.byte W02
	.byte VOL, 39
	.byte W07
	.byte BEND, c_v-12
	.byte W04
	.byte c_v-13 @ BEND
	.byte W06
	.byte VOL, 36
	.byte W03
	.byte BEND, c_v-14
	.byte W05
	.byte c_v-15 @ BEND
	.byte W09
	.byte c_v-16 @ BEND
	.byte W02
	.byte VOL, 33
	.byte W02
	.byte BEND, c_v-17
	.byte W09
	.byte c_v-18 @ BEND
	.byte W01
	.byte W05
	.byte c_v-19 @ BEND
	.byte W07
	.byte c_v-20 @ BEND
	.byte W06
	.byte VOL, 29
	.byte BEND, c_v-21
	.byte W13
	.byte c_v-22 @ BEND
	.byte W07
	.byte c_v-23 @ BEND
	.byte W12
	.byte VOL, 26
	.byte W04
	.byte BEND, c_v-24
	.byte W09
	.byte c_v-25 @ BEND
	.byte W17
	.byte c_v-26 @ BEND
	.byte W06
	.byte VOL, 23
	.byte W04
	.byte BEND, c_v-27
	.byte W06
	.byte W02
	.byte c_v-28 @ BEND
	.byte W09
	.byte c_v-29 @ BEND
	.byte W20
	.byte VOL, 20
	.byte W01
	.byte BEND, c_v-30
	.byte W11
	.byte c_v-31 @ BEND
	.byte W22
	.byte c_v-32 @ BEND
	.byte W07
	.byte VOL, 17
	.byte W04
	.byte BEND, c_v-33
	.byte W20
	.byte W02
	.byte c_v-34 @ BEND
	.byte W12
	.byte c_v-35 @ BEND
	.byte W08
	.byte VOL, 14
	.byte W17
	.byte BEND, c_v-36
	.byte W13
	.byte c_v-37 @ BEND
	.byte W12
	.byte c_v-38 @ BEND
	.byte W05
	.byte VOL, 11
	.byte W07
	.byte BEND, c_v-39
	.byte W19
	.byte c_v-33 @ BEND
	.byte W01
	.byte W06
	.byte EOT @ Gs3, v088
	.byte W90
	.byte W96
	.byte BEND, c_v
	.byte W96
	.byte W96
	.byte W96
	.byte W96
	.byte W96
	.byte W96
	.byte W96
	.byte W96
	.byte W96
	.byte W96
	.byte VOICE, 95
	.byte VOL, 94
	.byte PAN, c_v-10
	.byte BEND, c_v
	.byte N68, En0, v120, 1
	.byte W54
	.byte W01
	.byte VOL, 92
	.byte W04
	.byte 89 @ VOL
	.byte W04
	.byte 86 @ VOL
	.byte W09
	.byte N21, Gs0, v092
	.byte W24
	.byte PATT
		.word track_50_lbl_21ec3a
	.byte PATT
		.word track_50_lbl_21ec42
	.byte W96
	.byte PATT
		.word track_50_lbl_21ec4a
	.byte PATT
		.word track_50_lbl_21ec90
	.byte EOT, Cn1 @ v092
	.byte W14
	.byte BEND, c_v
	.byte W36
	.byte VOL, 86
	.byte N44, Fs1, v108, 3
	.byte W48
	.byte En1, v120, 1 @ N44
	.byte W48
	.byte Cn1, v120, 1 @ N44
	.byte W48
	.byte Gs0, v120, 3 @ N44
	.byte W48
	.byte TIE, Fs0 @ v120
	.byte W96
	.byte W12
	.byte VOL, 83
	.byte W06
	.byte 80 @ VOL
	.byte W06
	.byte 77 @ VOL
	.byte W06
	.byte 74 @ VOL
	.byte W05
	.byte 70 @ VOL
	.byte W06
	.byte 67 @ VOL
	.byte W06
	.byte 64 @ VOL
	.byte W06
	.byte 61 @ VOL
	.byte W06
	.byte 58 @ VOL
	.byte W05
	.byte 55 @ VOL
	.byte W06
	.byte 51 @ VOL
	.byte W02
	.byte EOT @ Fs0, v120
	.byte W24
	.byte W96
	.byte W96
	.byte VOL, 80
	.byte N92, Ds0, v100, 3
	.byte W96
	.byte N44, An0, v084, 3
	.byte W48
	.byte Gn0, v084, 3 @ N44
	.byte W48
	.byte TIE, Bn0, v072
	.byte W96
	.byte W08
	.byte VOL, 77
	.byte W07
	.byte 74 @ VOL
	.byte W07
	.byte 70 @ VOL
	.byte W06
	.byte 67 @ VOL
	.byte W05
	.byte 64 @ VOL
	.byte W06
	.byte 61 @ VOL
	.byte W05
	.byte 58 @ VOL
	.byte W05
	.byte 55 @ VOL
	.byte W05
	.byte 51 @ VOL
	.byte W04
	.byte 48 @ VOL
	.byte W04
	.byte 46 @ VOL
	.byte W10
	.byte EOT @ Bn0, v072
	.byte W24
	.byte VOL, 86
	.byte N44, Cs1, v052, 1
	.byte W48
	.byte Ds1, v052, 1 @ N44
	.byte W48
	.byte Bn0, v052, 1 @ N44
	.byte W48
	.byte Cs1, v052, 1 @ N44
	.byte W48
	.byte TIE, An0 @ v052
	.byte W80
	.byte VOL, 85
	.byte W10
	.byte 81 @ VOL
	.byte W06
	.byte W04
	.byte 78 @ VOL
	.byte W08
	.byte 75 @ VOL
	.byte W07
	.byte 72 @ VOL
	.byte W06
	.byte 69 @ VOL
	.byte W06
	.byte 66 @ VOL
	.byte W06
	.byte 62 @ VOL
	.byte W04
	.byte 59 @ VOL
	.byte W03
	.byte 57 @ VOL
	.byte W04
	.byte 54 @ VOL
	.byte W05
	.byte 51 @ VOL
	.byte W03
	.byte 48 @ VOL
	.byte W02
	.byte 46 @ VOL
	.byte W03
	.byte 44 @ VOL
	.byte W04
	.byte 41 @ VOL
	.byte W03
	.byte 38 @ VOL
	.byte W02
	.byte 37 @ VOL
	.byte W02
	.byte EOT @ An0, v052
	.byte W24
	.byte GOTO
		.word track_50_lbl_21ec1f
	.byte FINE

track_50_2:
	.byte KEYSH, 0
track_50_lbl_21f047:
	.byte W02
	.byte VOICE, 6
	.byte VOL, 47
	.byte PAN, c_v+6
	.byte PRIO, 118
	.byte N10, Fs3, v060
	.byte W12
	.byte Gs3, v064 @ N10
	.byte W12
	.byte As3, v068 @ N10
	.byte W12
	.byte Gs3 @ N10, v068
	.byte W12
	.byte Fs3, v072 @ N10
	.byte W12
	.byte Gs3 @ N10, v072
	.byte W12
	.byte As3, v076 @ N10
	.byte W12
	.byte Gs3, v080 @ N10
	.byte W10
track_50_lbl_21f067:
	.byte W02
	.byte N10, Fs3, v080
	.byte W12
	.byte Gs3, v084 @ N10
	.byte W12
	.byte As3, v088 @ N10
	.byte W12
	.byte Gs3 @ N10, v088
	.byte W12
	.byte Fs3, v092 @ N10
	.byte W12
	.byte Gs3 @ N10, v092
	.byte W12
	.byte As3, v096 @ N10
	.byte W12
	.byte Gs3, v100 @ N10
	.byte W10
	.byte PEND
	.byte W02
	.byte Fs3 @ N10, v100
	.byte W12
	.byte Gs3, v104 @ N10
	.byte W12
	.byte As3, v108 @ N10
	.byte W12
	.byte Gs3 @ N10, v108
	.byte W12
	.byte Fs3, v112 @ N10
	.byte W12
	.byte Gs3 @ N10, v112
	.byte W12
	.byte As3, v116 @ N10
	.byte W12
	.byte Gs3, v120 @ N10
	.byte W10
	.byte W02
	.byte Fs3 @ N10, v120
	.byte W12
	.byte Gs3, v124 @ N10
	.byte W12
	.byte As3, v127 @ N10
	.byte W12
	.byte Gs3 @ N10, v127
	.byte W12
	.byte Fs3 @ N10, v127
	.byte W12
	.byte Gs3 @ N10, v127
	.byte W12
	.byte As3 @ N10, v127
	.byte W12
	.byte Gs3 @ N10, v127
	.byte W10
	.byte W02
	.byte Fs3, v112 @ N10
	.byte W12
	.byte Gs3, v108 @ N10
	.byte W12
	.byte As3, v104 @ N10
	.byte W12
	.byte Gs3, v100 @ N10
	.byte W12
	.byte Fs3, v096 @ N10
	.byte W12
	.byte Gs3 @ N10, v096
	.byte W12
	.byte As3, v092 @ N10
	.byte W12
	.byte Gs3, v088 @ N10
	.byte W10
	.byte W02
	.byte Fs3, v084 @ N10
	.byte W12
	.byte Gs3 @ N10, v084
	.byte W12
	.byte As3, v080 @ N10
	.byte W12
	.byte Gs3, v076 @ N10
	.byte W12
	.byte Fs3, v072 @ N10
	.byte W12
	.byte Gs3, v068 @ N10
	.byte W12
	.byte As3 @ N10, v068
	.byte W12
	.byte Gs3, v064 @ N10
	.byte W10
track_50_lbl_21f0d8:
	.byte W02
	.byte N10, Fs3, v060
	.byte W12
	.byte Gs3, v064 @ N10
	.byte W12
	.byte As3, v068 @ N10
	.byte W12
	.byte Gs3 @ N10, v068
	.byte W12
	.byte Fs3, v072 @ N10
	.byte W12
	.byte Gs3 @ N10, v072
	.byte W12
	.byte As3, v076 @ N10
	.byte W12
	.byte Gs3, v080 @ N10
	.byte W10
	.byte PEND
track_50_lbl_21f0f1:
	.byte W02
	.byte N10, Fs3, v080
	.byte W12
	.byte Gs3, v076 @ N10
	.byte W12
	.byte As3, v072 @ N10
	.byte W12
	.byte Gs3, v064 @ N10
	.byte W12
	.byte Fs3, v060 @ N10
	.byte W12
	.byte Gs3, v056 @ N10
	.byte W12
	.byte As3, v052 @ N10
	.byte W12
	.byte Gs3, v044 @ N10
	.byte W10
	.byte PEND
track_50_lbl_21f10c:
	.byte W02
	.byte N10, An3, v040
	.byte W12
	.byte Bn3, v048 @ N10
	.byte W12
	.byte Cs4, v052 @ N10
	.byte W12
	.byte Bn3, v056 @ N10
	.byte W12
	.byte An3, v060 @ N10
	.byte W12
	.byte Bn3, v064 @ N10
	.byte W12
	.byte Cs4, v068 @ N10
	.byte W12
	.byte Bn3, v072 @ N10
	.byte W10
	.byte PEND
track_50_lbl_21f127:
	.byte W02
	.byte N10, An3, v076
	.byte W12
	.byte Bn3, v080 @ N10
	.byte W12
	.byte Cs4, v084 @ N10
	.byte W12
	.byte Bn3, v088 @ N10
	.byte W12
	.byte An3, v096 @ N10
	.byte W12
	.byte Bn3, v100 @ N10
	.byte W12
	.byte Cs4, v104 @ N10
	.byte W12
	.byte Bn3, v108 @ N10
	.byte W10
	.byte PEND
track_50_lbl_21f142:
	.byte W02
	.byte N10, An3, v108
	.byte W12
	.byte Bn3, v104 @ N10
	.byte W12
	.byte Cs4, v100 @ N10
	.byte W12
	.byte Bn3 @ N10, v100
	.byte W12
	.byte An3, v096 @ N10
	.byte W12
	.byte Bn3 @ N10, v096
	.byte W12
	.byte Cs4, v092 @ N10
	.byte W12
	.byte Bn3 @ N10, v092
	.byte W10
	.byte PEND
track_50_lbl_21f15a:
	.byte W02
	.byte N10, An3, v088
	.byte W12
	.byte Bn3 @ N10, v088
	.byte W12
	.byte Cs4, v084 @ N10
	.byte W12
	.byte Bn3, v080 @ N10
	.byte W12
	.byte An3 @ N10, v080
	.byte W12
	.byte Bn3, v076 @ N10
	.byte W12
	.byte Cs4 @ N10, v076
	.byte W12
	.byte Bn3, v072 @ N10
	.byte W10
	.byte PEND
	.byte W02
	.byte Fs3, v044 @ N10
	.byte W12
	.byte Gs3, v048 @ N10
	.byte W12
	.byte As3, v056 @ N10
	.byte W12
	.byte Gs3, v060 @ N10
	.byte W12
	.byte Fs3, v068 @ N10
	.byte W12
	.byte Gs3, v072 @ N10
	.byte W12
	.byte As3, v080 @ N10
	.byte W12
	.byte Gs3, v084 @ N10
	.byte W10
	.byte W02
	.byte Fs3, v080 @ N10
	.byte W12
	.byte Gs3, v088 @ N10
	.byte W12
	.byte As3, v092 @ N10
	.byte W12
	.byte Gs3, v100 @ N10
	.byte W12
	.byte Fs3, v104 @ N10
	.byte W12
	.byte Gs3, v112 @ N10
	.byte W12
	.byte As3, v116 @ N10
	.byte W12
	.byte Gs3, v120 @ N10
	.byte W10
	.byte W02
	.byte Fs3 @ N10, v120
	.byte W12
	.byte Gs3 @ N10, v120
	.byte W12
	.byte As3, v116 @ N10
	.byte W12
	.byte Gs3, v108 @ N10
	.byte W12
	.byte Fs3, v104 @ N10
	.byte W12
	.byte Gs3, v096 @ N10
	.byte W12
	.byte As3, v092 @ N10
	.byte W12
	.byte Gs3, v084 @ N10
	.byte W10
	.byte W02
	.byte Fs3, v088 @ N10
	.byte W12
	.byte Gs3, v084 @ N10
	.byte W12
	.byte As3, v076 @ N10
	.byte W12
	.byte Gs3, v072 @ N10
	.byte W12
	.byte Fs3, v064 @ N10
	.byte W12
	.byte Gs3, v060 @ N10
	.byte W12
	.byte As3, v052 @ N10
	.byte W12
	.byte Gs3, v048 @ N10
	.byte W10
track_50_lbl_21f1d4:
	.byte W02
	.byte N10, An3, v044
	.byte W12
	.byte Bn3, v048 @ N10
	.byte W12
	.byte Cs4, v056 @ N10
	.byte W12
	.byte Bn3, v060 @ N10
	.byte W12
	.byte An3, v068 @ N10
	.byte W12
	.byte Bn3, v072 @ N10
	.byte W12
	.byte Cs4, v080 @ N10
	.byte W12
	.byte Bn3, v084 @ N10
	.byte W10
	.byte PEND
track_50_lbl_21f1ef:
	.byte W02
	.byte N10, An3, v092
	.byte W12
	.byte Bn3, v096 @ N10
	.byte W12
	.byte Cs4, v104 @ N10
	.byte W12
	.byte Bn3, v108 @ N10
	.byte W12
	.byte An3, v116 @ N10
	.byte W12
	.byte Bn3, v120 @ N10
	.byte W12
	.byte Cs4, v127 @ N10
	.byte W12
	.byte Bn3 @ N10, v127
	.byte W10
	.byte PEND
track_50_lbl_21f209:
	.byte W02
	.byte N10, An3, v127
	.byte W12
	.byte Bn3 @ N10, v127
	.byte W12
	.byte Cs4, v124 @ N10
	.byte W12
	.byte Bn3, v120 @ N10
	.byte W12
	.byte An3, v112 @ N10
	.byte W12
	.byte Bn3, v108 @ N10
	.byte W12
	.byte Cs4, v100 @ N10
	.byte W12
	.byte Bn3, v096 @ N10
	.byte W10
	.byte PEND
track_50_lbl_21f223:
	.byte W02
	.byte N10, An3, v088
	.byte W12
	.byte Bn3, v084 @ N10
	.byte W12
	.byte Cs4, v076 @ N10
	.byte W12
	.byte Bn3, v072 @ N10
	.byte W12
	.byte An3, v064 @ N10
	.byte W12
	.byte Bn3, v060 @ N10
	.byte W12
	.byte Cs4, v052 @ N10
	.byte W12
	.byte Bn3, v048 @ N10
	.byte W10
	.byte PEND
track_50_lbl_21f23e:
	.byte W02
	.byte N10, Fs3, v044
	.byte W12
	.byte Gs3, v056 @ N10
	.byte W12
	.byte As3, v068 @ N10
	.byte W12
	.byte Gs3, v080 @ N10
	.byte W12
	.byte Fs3, v092 @ N10
	.byte W12
	.byte Gs3, v104 @ N10
	.byte W12
	.byte As3, v116 @ N10
	.byte W12
	.byte Gs3, v127 @ N10
	.byte W10
	.byte PEND
	.byte W02
	.byte Fs3, v120 @ N10
	.byte W12
	.byte Gs3, v112 @ N10
	.byte W12
	.byte As3, v108 @ N10
	.byte W12
	.byte Gs3, v100 @ N10
	.byte W12
	.byte Fs3, v096 @ N10
	.byte W12
	.byte Gs3, v088 @ N10
	.byte W12
	.byte As3, v084 @ N10
	.byte W12
	.byte Gs3, v076 @ N10
	.byte W10
	.byte W02
	.byte Fs3, v072 @ N10
	.byte W12
	.byte Gs3, v068 @ N10
	.byte W12
	.byte As3, v064 @ N10
	.byte W12
	.byte Gs3, v060 @ N10
	.byte W12
	.byte Fs3, v056 @ N10
	.byte W12
	.byte Gs3, v052 @ N10
	.byte W12
	.byte As3, v048 @ N10
	.byte W12
	.byte Gs3, v044 @ N10
	.byte W10
track_50_lbl_21f28b:
	.byte W02
	.byte N10, Fs3, v044
	.byte W12
	.byte Gs3, v052 @ N10
	.byte W12
	.byte As3, v060 @ N10
	.byte W12
	.byte Gs3, v068 @ N10
	.byte W12
	.byte Fs3, v076 @ N10
	.byte W12
	.byte Gs3, v088 @ N10
	.byte W12
	.byte As3, v096 @ N10
	.byte W12
	.byte Gs3, v104 @ N10
	.byte W10
	.byte PEND
track_50_lbl_21f2a6:
	.byte W02
	.byte N10, An3, v108
	.byte W12
	.byte Bn3, v100 @ N10
	.byte W12
	.byte Cs4, v092 @ N10
	.byte W12
	.byte Bn3, v084 @ N10
	.byte W12
	.byte An3, v076 @ N10
	.byte W12
	.byte Bn3, v064 @ N10
	.byte W12
	.byte Cs4, v056 @ N10
	.byte W12
	.byte Bn3, v048 @ N10
	.byte W10
	.byte PEND
track_50_lbl_21f2c1:
	.byte W02
	.byte N10, An3, v044
	.byte W12
	.byte Bn3, v052 @ N10
	.byte W12
	.byte Cs4, v060 @ N10
	.byte W12
	.byte Bn3, v068 @ N10
	.byte W12
	.byte An3, v076 @ N10
	.byte W12
	.byte Bn3, v088 @ N10
	.byte W12
	.byte Cs4, v096 @ N10
	.byte W12
	.byte Bn3, v104 @ N10
	.byte W10
	.byte PEND
track_50_lbl_21f2dc:
	.byte W02
	.byte N10, An3, v112
	.byte W12
	.byte Bn3, v104 @ N10
	.byte W12
	.byte Cs4, v100 @ N10
	.byte W12
	.byte Bn3, v096 @ N10
	.byte W12
	.byte An3, v092 @ N10
	.byte W12
	.byte Bn3, v088 @ N10
	.byte W12
	.byte Cs4, v084 @ N10
	.byte W12
	.byte Bn3, v080 @ N10
	.byte W10
	.byte PEND
track_50_lbl_21f2f7:
	.byte W02
	.byte N10, An3, v076
	.byte W12
	.byte Bn3, v072 @ N10
	.byte W12
	.byte Cs4, v068 @ N10
	.byte W12
	.byte Bn3, v064 @ N10
	.byte W12
	.byte An3, v056 @ N10
	.byte W12
	.byte Bn3, v052 @ N10
	.byte W12
	.byte Cs4, v048 @ N10
	.byte W12
	.byte Bn3, v044 @ N10
	.byte W10
	.byte PEND
	.byte PATT
		.word track_50_lbl_21f28b
	.byte W02
	.byte N10, Fs3, v112
	.byte W12
	.byte Gs3, v108 @ N10
	.byte W12
	.byte As3, v104 @ N10
	.byte W12
	.byte Gs3, v100 @ N10
	.byte W12
	.byte Fs3, v096 @ N10
	.byte W12
	.byte Gs3, v092 @ N10
	.byte W12
	.byte As3, v088 @ N10
	.byte W12
	.byte Gs3, v084 @ N10
	.byte W10
	.byte W02
	.byte Fs3, v080 @ N10
	.byte W12
	.byte Gs3 @ N10, v080
	.byte W12
	.byte As3, v076 @ N10
	.byte W12
	.byte Gs3, v072 @ N10
	.byte W12
	.byte Fs3 @ N10, v072
	.byte W12
	.byte Gs3, v068 @ N10
	.byte W12
	.byte As3, v064 @ N10
	.byte W12
	.byte Gs3 @ N10, v064
	.byte W10
	.byte W02
	.byte Fs3, v060 @ N10
	.byte W12
	.byte Gs3 @ N10, v060
	.byte W12
	.byte As3, v056 @ N10
	.byte W12
	.byte Gs3, v052 @ N10
	.byte W12
	.byte Fs3 @ N10, v052
	.byte W12
	.byte Gs3, v048 @ N10
	.byte W12
	.byte As3, v044 @ N10
	.byte W12
	.byte Gs3 @ N10, v044
	.byte W10
	.byte PATT
		.word track_50_lbl_21f1d4
	.byte W02
	.byte N10, An3, v092
	.byte W12
	.byte Bn3, v096 @ N10
	.byte W12
	.byte Cs4, v104 @ N10
	.byte W12
	.byte Bn3, v108 @ N10
	.byte W12
	.byte An3 @ N10, v108
	.byte W12
	.byte Bn3 @ N10, v108
	.byte W12
	.byte Cs4 @ N10, v108
	.byte W12
	.byte Bn3 @ N10, v108
	.byte W10
	.byte W02
	.byte An3 @ N10, v108
	.byte W12
	.byte Bn3 @ N10, v108
	.byte W12
	.byte Cs4 @ N10, v108
	.byte W12
	.byte Bn3 @ N10, v108
	.byte W12
	.byte An3 @ N10, v108
	.byte W12
	.byte Bn3 @ N10, v108
	.byte W12
	.byte Cs4, v100 @ N10
	.byte W12
	.byte Bn3, v096 @ N10
	.byte W10
	.byte PATT
		.word track_50_lbl_21f223
	.byte PATT
		.word track_50_lbl_21f23e
	.byte W02
	.byte N10, Fs3, v127
	.byte W12
	.byte Gs3 @ N10, v127
	.byte W12
	.byte As3, v120 @ N10
	.byte W12
	.byte Gs3, v108 @ N10
	.byte W12
	.byte Fs3, v100 @ N10
	.byte W12
	.byte Gs3, v092 @ N10
	.byte W12
	.byte As3, v080 @ N10
	.byte W12
	.byte Gs3, v072 @ N10
	.byte W10
	.byte W02
	.byte Fs3 @ N10, v072
	.byte W12
	.byte Gs3 @ N10, v072
	.byte W12
	.byte As3, v076 @ N10
	.byte W12
	.byte Gs3, v080 @ N10
	.byte W12
	.byte Fs3 @ N10, v080
	.byte W12
	.byte Gs3, v084 @ N10
	.byte W12
	.byte As3, v088 @ N10
	.byte W12
	.byte Gs3 @ N10, v088
	.byte W10
	.byte W02
	.byte Fs3, v092 @ N10
	.byte W12
	.byte Gs3 @ N10, v092
	.byte W12
	.byte As3, v096 @ N10
	.byte W12
	.byte Gs3, v100 @ N10
	.byte W12
	.byte Fs3 @ N10, v100
	.byte W12
	.byte Gs3, v104 @ N10
	.byte W12
	.byte As3, v108 @ N10
	.byte W12
	.byte Gs3 @ N10, v108
	.byte W10
	.byte PATT
		.word track_50_lbl_21f2dc
	.byte PATT
		.word track_50_lbl_21f2f7
	.byte PATT
		.word track_50_lbl_21f2c1
	.byte PATT
		.word track_50_lbl_21f2a6
	.byte W02
	.byte VOICE, 6
	.byte N10, Fs3, v060
	.byte W12
	.byte Gs3, v064 @ N10
	.byte W12
	.byte As3, v068 @ N10
	.byte W12
	.byte Gs3 @ N10, v068
	.byte W12
	.byte Fs3, v072 @ N10
	.byte W12
	.byte Gs3 @ N10, v072
	.byte W12
	.byte As3, v076 @ N10
	.byte W12
	.byte Gs3, v080 @ N10
	.byte W10
	.byte PATT
		.word track_50_lbl_21f067
	.byte W02
	.byte N10, Fs3, v080
	.byte W12
	.byte Gs3, v084 @ N10
	.byte W12
	.byte As3 @ N10, v084
	.byte W12
	.byte Gs3, v088 @ N10
	.byte W12
	.byte Fs3 @ N10, v088
	.byte W12
	.byte Gs3, v092 @ N10
	.byte W12
	.byte As3 @ N10, v092
	.byte W12
	.byte Gs3, v096 @ N10
	.byte W10
	.byte W02
	.byte Fs3 @ N10, v096
	.byte W12
	.byte Gs3, v100 @ N10
	.byte W12
	.byte As3 @ N10, v100
	.byte W12
	.byte Gs3, v104 @ N10
	.byte W12
	.byte Fs3 @ N10, v104
	.byte W12
	.byte Gs3, v108 @ N10
	.byte W12
	.byte As3 @ N10, v108
	.byte W12
	.byte Gs3, v112 @ N10
	.byte W10
	.byte W02
	.byte Fs3, v100 @ N10
	.byte W12
	.byte Gs3, v096 @ N10
	.byte W12
	.byte As3 @ N10, v096
	.byte W12
	.byte Gs3, v092 @ N10
	.byte W12
	.byte Fs3, v088 @ N10
	.byte W12
	.byte Gs3, v084 @ N10
	.byte W12
	.byte As3, v080 @ N10
	.byte W12
	.byte Gs3 @ N10, v080
	.byte W10
	.byte W02
	.byte Fs3, v076 @ N10
	.byte W12
	.byte Gs3, v072 @ N10
	.byte W12
	.byte As3, v068 @ N10
	.byte W12
	.byte Gs3 @ N10, v068
	.byte W12
	.byte Fs3, v064 @ N10
	.byte W12
	.byte Gs3, v060 @ N10
	.byte W12
	.byte As3, v056 @ N10
	.byte W12
	.byte Gs3, v052 @ N10
	.byte W10
	.byte PATT
		.word track_50_lbl_21f0d8
	.byte PATT
		.word track_50_lbl_21f0f1
	.byte PATT
		.word track_50_lbl_21f10c
	.byte PATT
		.word track_50_lbl_21f127
	.byte PATT
		.word track_50_lbl_21f142
	.byte PATT
		.word track_50_lbl_21f15a
	.byte PATT
		.word track_50_lbl_21f1d4
	.byte PATT
		.word track_50_lbl_21f1ef
	.byte PATT
		.word track_50_lbl_21f209
	.byte PATT
		.word track_50_lbl_21f223
	.byte PATT
		.word track_50_lbl_21f1d4
	.byte PATT
		.word track_50_lbl_21f1ef
	.byte PATT
		.word track_50_lbl_21f209
	.byte PATT
		.word track_50_lbl_21f223
	.byte GOTO
		.word track_50_lbl_21f047
	.byte FINE

track_50_3:
	.byte KEYSH, 0
track_50_lbl_21f4b5:
	.byte PRIO, 30
	.byte W96
	.byte W96
	.byte W96
	.byte W96
	.byte W96
	.byte W96
	.byte W96
	.byte W96
	.byte W96
	.byte W96
	.byte W96
	.byte W96
	.byte VOICE, 2
	.byte VOL, 19
	.byte BEND, c_v
	.byte TIE, Cs3, v080
	.byte W10
	.byte VOL, 22
	.byte W03
	.byte 24 @ VOL
	.byte W05
	.byte 26 @ VOL
	.byte W08
	.byte 29 @ VOL
	.byte W11
	.byte 33 @ VOL
	.byte W12
	.byte 36 @ VOL
	.byte W21
	.byte 38 @ VOL
	.byte W24
	.byte W02
	.byte W02
	.byte BEND, c_v
	.byte W02
	.byte c_v-1 @ BEND
	.byte W03
	.byte c_v-2 @ BEND
	.byte W03
	.byte c_v-3 @ BEND
	.byte W02
	.byte VOL, 36
	.byte W04
	.byte BEND, c_v-4
	.byte W03
	.byte c_v-5 @ BEND
	.byte W05
	.byte c_v-6 @ BEND
	.byte W02
	.byte c_v-7 @ BEND
	.byte W03
	.byte VOL, 33
	.byte W02
	.byte BEND, c_v-8
	.byte W02
	.byte c_v-9 @ BEND
	.byte W02
	.byte c_v-10 @ BEND
	.byte W02
	.byte c_v-11 @ BEND
	.byte W05
	.byte c_v-12 @ BEND
	.byte W02
	.byte c_v-13 @ BEND
	.byte W02
	.byte VOL, 29
	.byte W02
	.byte BEND, c_v-14
	.byte W02
	.byte c_v-15 @ BEND
	.byte W04
	.byte c_v-16 @ BEND
	.byte W02
	.byte c_v-17 @ BEND
	.byte W04
	.byte VOL, 26
	.byte BEND, c_v-18
	.byte W02
	.byte c_v-19 @ BEND
	.byte W02
	.byte c_v-20 @ BEND
	.byte W02
	.byte c_v-21 @ BEND
	.byte W03
	.byte c_v-22 @ BEND
	.byte W02
	.byte c_v-23 @ BEND
	.byte W01
	.byte VOL, 23
	.byte W03
	.byte BEND, c_v-24
	.byte W02
	.byte c_v-25 @ BEND
	.byte W04
	.byte c_v-26 @ BEND
	.byte W01
	.byte c_v-27 @ BEND
	.byte W02
	.byte VOL, 20
	.byte BEND, c_v-28
	.byte W01
	.byte c_v-29 @ BEND
	.byte W03
	.byte c_v-30 @ BEND
	.byte W02
	.byte c_v-31 @ BEND
	.byte W03
	.byte c_v-32 @ BEND
	.byte W01
	.byte c_v-33 @ BEND
	.byte W01
	.byte VOL, 17
	.byte W01
	.byte W01
	.byte BEND, c_v-34
	.byte W02
	.byte c_v-35 @ BEND
	.byte W03
	.byte c_v-36 @ BEND
	.byte W02
	.byte c_v-37 @ BEND
	.byte W01
	.byte c_v-38 @ BEND
	.byte W01
	.byte VOL, 14
	.byte BEND, c_v-39
	.byte W03
	.byte c_v-40 @ BEND
	.byte W01
	.byte c_v-41 @ BEND
	.byte W02
	.byte VOL, 11
	.byte W01
	.byte BEND, c_v-42
	.byte W01
	.byte c_v-43 @ BEND
	.byte W03
	.byte c_v-44 @ BEND
	.byte W01
	.byte c_v-45 @ BEND
	.byte W02
	.byte EOT @ Cs3, v080
	.byte W01
	.byte BEND, c_v-46
	.byte W01
	.byte c_v-47 @ BEND
	.byte W02
	.byte c_v-48 @ BEND
	.byte W01
	.byte c_v-49 @ BEND
	.byte W03
	.byte c_v-50 @ BEND
	.byte W01
	.byte c_v-51 @ BEND
	.byte W02
	.byte c_v-52 @ BEND
	.byte W02
	.byte c_v-53 @ BEND
	.byte W02
	.byte c_v-54 @ BEND
	.byte W02
	.byte c_v-55 @ BEND
	.byte W01
	.byte c_v-56 @ BEND
	.byte W01
	.byte c_v-57 @ BEND
	.byte W02
	.byte c_v-58 @ BEND
	.byte W02
	.byte c_v-59 @ BEND
	.byte W02
	.byte c_v-60 @ BEND
	.byte W01
	.byte c_v-61 @ BEND
	.byte W03
	.byte c_v-62 @ BEND
	.byte W01
	.byte c_v-63 @ BEND
	.byte W42
	.byte W96
	.byte c_v @ BEND
	.byte TIE, Gn3, v104
	.byte W02
	.byte VOL, 14
	.byte W05
	.byte 17 @ VOL
	.byte W06
	.byte 20 @ VOL
	.byte W06
	.byte 23 @ VOL
	.byte W09
	.byte 26 @ VOL
	.byte W12
	.byte 29 @ VOL
	.byte W24
	.byte W01
	.byte 33 @ VOL
	.byte W30
	.byte W01
	.byte W12
	.byte 29 @ VOL
	.byte W17
	.byte 26 @ VOL
	.byte W14
	.byte 23 @ VOL
	.byte W12
	.byte 20 @ VOL
	.byte W11
	.byte 17 @ VOL
	.byte W10
	.byte 14 @ VOL
	.byte W09
	.byte 11 @ VOL
	.byte W07
	.byte 8 @ VOL
	.byte W04
	.byte EOT @ Gn3, v104
	.byte W96
	.byte W96
	.byte VOICE, 2
	.byte PAN, c_v
	.byte VOL, 68
	.byte BEND, c_v
	.byte TIE, Dn3, v068
	.byte W11
	.byte VOL, 66
	.byte W17
	.byte 62 @ VOL
	.byte W17
	.byte 59 @ VOL
	.byte W17
	.byte 56 @ VOL
	.byte W16
	.byte 53 @ VOL
	.byte W17
	.byte 50 @ VOL
	.byte W01
	.byte W16
	.byte 47 @ VOL
	.byte W17
	.byte 44 @ VOL
	.byte W17
	.byte 40 @ VOL
	.byte W17
	.byte 37 @ VOL
	.byte W17
	.byte 34 @ VOL
	.byte W12
	.byte W05
	.byte 31 @ VOL
	.byte W16
	.byte 28 @ VOL
	.byte W17
	.byte 25 @ VOL
	.byte W17
	.byte 22 @ VOL
	.byte W13
	.byte 19 @ VOL
	.byte W05
	.byte EOT @ Dn3, v068
	.byte W23
	.byte W96
	.byte VOL, 86
	.byte TIE, As2 @ v068
	.byte W02
	.byte VOL, 83
	.byte W04
	.byte 80 @ VOL
	.byte W06
	.byte 77 @ VOL
	.byte W07
	.byte 74 @ VOL
	.byte W08
	.byte 70 @ VOL
	.byte W07
	.byte 67 @ VOL
	.byte W09
	.byte 64 @ VOL
	.byte W09
	.byte 61 @ VOL
	.byte W09
	.byte 58 @ VOL
	.byte W11
	.byte 55 @ VOL
	.byte W13
	.byte 51 @ VOL
	.byte W11
	.byte W07
	.byte 48 @ VOL
	.byte W20
	.byte 45 @ VOL
	.byte W22
	.byte 42 @ VOL
	.byte W24
	.byte W01
	.byte 39 @ VOL
	.byte W22
	.byte W06
	.byte 36 @ VOL
	.byte W24
	.byte 33 @ VOL
	.byte W30
	.byte W01
	.byte 29 @ VOL
	.byte W32
	.byte W01
	.byte 26 @ VOL
	.byte W02
	.byte W32
	.byte W01
	.byte 23 @ VOL
	.byte W36
	.byte W01
	.byte 20 @ VOL
	.byte W24
	.byte W02
	.byte W09
	.byte BEND, c_v
	.byte W01
	.byte VOL, 17
	.byte W01
	.byte BEND, c_v-1
	.byte W03
	.byte c_v-2 @ BEND
	.byte W04
	.byte c_v-3 @ BEND
	.byte W05
	.byte c_v-4 @ BEND
	.byte W02
	.byte c_v-5 @ BEND
	.byte W03
	.byte VOL, 15
	.byte BEND, c_v-6
	.byte W03
	.byte c_v-7 @ BEND
	.byte W03
	.byte c_v-8 @ BEND
	.byte W03
	.byte c_v-9 @ BEND
	.byte W04
	.byte EOT @ As2, v068
	.byte W01
	.byte BEND, c_v-10
	.byte W04
	.byte c_v-11 @ BEND
	.byte W04
	.byte c_v-12 @ BEND
	.byte W04
	.byte c_v-13 @ BEND
	.byte W03
	.byte c_v-14 @ BEND
	.byte W03
	.byte c_v-15 @ BEND
	.byte W06
	.byte c_v-16 @ BEND
	.byte W30
	.byte W96
	.byte W96
	.byte W96
	.byte W96
	.byte W96
	.byte W96
	.byte W96
	.byte W96
	.byte W96
	.byte W96
	.byte W96
	.byte W96
	.byte W96
	.byte W96
	.byte W96
	.byte VOICE, 3
	.byte PAN, c_v+10
	.byte VOL, 78
	.byte BEND, c_v
	.byte N72, En1, v040
	.byte W96
	.byte N48, As1, v036
	.byte W48
	.byte VOL, 65
	.byte W01
	.byte 66 @ VOL
	.byte W02
	.byte 68 @ VOL
	.byte W01
	.byte 69 @ VOL
	.byte W01
	.byte 70 @ VOL
	.byte W01
	.byte 70 @ VOL
	.byte W02
	.byte 71 @ VOL
	.byte W02
	.byte 72 @ VOL
	.byte W01
	.byte 73 @ VOL
	.byte W02
	.byte 74 @ VOL
	.byte W01
	.byte 74 @ VOL
	.byte W03
	.byte 75 @ VOL
	.byte W02
	.byte 76 @ VOL
	.byte W04
	.byte 77 @ VOL
	.byte W04
	.byte 77 @ VOL
	.byte W06
	.byte 78 @ VOL
	.byte W15
	.byte TIE, Cn2, v040
	.byte W96
	.byte W96
	.byte W02
	.byte VOL, 77
	.byte W05
	.byte 77 @ VOL
	.byte W02
	.byte BEND, c_v-2
	.byte W04
	.byte c_v-4 @ BEND
	.byte W04
	.byte VOL, 75
	.byte W04
	.byte BEND, c_v-6
	.byte W04
	.byte VOL, 74
	.byte W04
	.byte BEND, c_v-8
	.byte W02
	.byte VOL, 72
	.byte W06
	.byte 70 @ VOL
	.byte BEND, c_v-10
	.byte W05
	.byte VOL, 70
	.byte W02
	.byte BEND, c_v-12
	.byte W04
	.byte VOL, 69
	.byte W01
	.byte BEND, c_v-14
	.byte W05
	.byte VOL, 67
	.byte BEND, c_v-15
	.byte W04
	.byte VOL, 66
	.byte W01
	.byte BEND, c_v-16
	.byte W03
	.byte VOL, 64
	.byte W03
	.byte BEND, c_v-18
	.byte W01
	.byte VOL, 62
	.byte W03
	.byte 62 @ VOL
	.byte W01
	.byte BEND, c_v-20
	.byte W03
	.byte VOL, 61
	.byte W01
	.byte BEND, c_v-22
	.byte W02
	.byte VOL, 59
	.byte W02
	.byte 58 @ VOL
	.byte BEND, c_v-24
	.byte W02
	.byte VOL, 56
	.byte W02
	.byte BEND, c_v-26
	.byte W01
	.byte VOL, 55
	.byte W02
	.byte 54 @ VOL
	.byte W01
	.byte BEND, c_v-28
	.byte W01
	.byte VOL, 53
	.byte W02
	.byte 51 @ VOL
	.byte W02
	.byte 50 @ VOL
	.byte BEND, c_v-29
	.byte W03
	.byte VOL, 48
	.byte BEND, c_v-30
	.byte W02
	.byte VOL, 47
	.byte W02
	.byte 46 @ VOL
	.byte BEND, c_v-32
	.byte W02
	.byte VOL, 45
	.byte W02
	.byte 44 @ VOL
	.byte BEND, c_v-34
	.byte W02
	.byte VOL, 42
	.byte W01
	.byte 40 @ VOL
	.byte BEND, c_v-36
	.byte W02
	.byte VOL, 39
	.byte W01
	.byte BEND, c_v-38
	.byte W01
	.byte VOL, 38
	.byte W01
	.byte 37 @ VOL
	.byte W01
	.byte BEND, c_v-40
	.byte W01
	.byte VOL, 36
	.byte W02
	.byte 34 @ VOL
	.byte BEND, c_v-42
	.byte W02
	.byte VOL, 33
	.byte BEND, c_v-43
	.byte W01
	.byte VOL, 31
	.byte W02
	.byte BEND, c_v-44
	.byte W01
	.byte VOL, 30
	.byte W01
	.byte 29 @ VOL
	.byte W01
	.byte BEND, c_v-46
	.byte W01
	.byte VOL, 28
	.byte W02
	.byte 26 @ VOL
	.byte BEND, c_v-48
	.byte W01
	.byte VOL, 25
	.byte W01
	.byte 23 @ VOL
	.byte W01
	.byte BEND, c_v-50
	.byte W02
	.byte VOL, 22
	.byte W01
	.byte 22 @ VOL
	.byte BEND, c_v-51
	.byte W01
	.byte VOL, 20
	.byte W02
	.byte 18 @ VOL
	.byte W01
	.byte 17 @ VOL
	.byte W02
	.byte 15 @ VOL
	.byte W01
	.byte 14 @ VOL
	.byte W02
	.byte 14 @ VOL
	.byte W01
	.byte 12 @ VOL
	.byte W02
	.byte 11 @ VOL
	.byte W01
	.byte EOT @ Cn2, v040
	.byte W12
	.byte BEND, c_v
	.byte W36
	.byte W96
	.byte W96
	.byte VOL, 47
	.byte BEND, c_v
	.byte TIE, Fs1, v072
	.byte W96
	.byte W05
	.byte VOL, 46
	.byte W04
	.byte 45 @ VOL
	.byte W04
	.byte 44 @ VOL
	.byte W04
	.byte 44 @ VOL
	.byte W04
	.byte 43 @ VOL
	.byte W04
	.byte 42 @ VOL
	.byte W05
	.byte 41 @ VOL
	.byte W08
	.byte 40 @ VOL
	.byte W08
	.byte 38 @ VOL
	.byte W09
	.byte 37 @ VOL
	.byte W08
	.byte 35 @ VOL
	.byte W06
	.byte BEND, c_v-2
	.byte W02
	.byte VOL, 33
	.byte BEND, c_v-4
	.byte W03
	.byte c_v-6 @ BEND
	.byte W03
	.byte c_v-8 @ BEND
	.byte W03
	.byte VOL, 32
	.byte BEND, c_v-10
	.byte W03
	.byte c_v-12 @ BEND
	.byte W03
	.byte c_v-14 @ BEND
	.byte W02
	.byte VOL, 30
	.byte W01
	.byte BEND, c_v-15
	.byte W01
	.byte EOT @ Fs1, v072
	.byte W02
	.byte BEND, c_v-16
	.byte W03
	.byte c_v-18 @ BEND
	.byte W01
	.byte W96
	.byte W96
	.byte VOL, 76
	.byte BEND, c_v
	.byte N96, Ds1, v060
	.byte W96
	.byte N48, An1, v032
	.byte W48
	.byte Gn1 @ N48, v032
	.byte W48
	.byte TIE, Bn1, v072
	.byte W01
	.byte VOL, 93
	.byte W06
	.byte 92 @ VOL
	.byte W05
	.byte 92 @ VOL
	.byte W07
	.byte 91 @ VOL
	.byte W04
	.byte 90 @ VOL
	.byte W06
	.byte 89 @ VOL
	.byte W02
	.byte 88 @ VOL
	.byte W07
	.byte 88 @ VOL
	.byte W02
	.byte 87 @ VOL
	.byte W05
	.byte 86 @ VOL
	.byte W02
	.byte 85 @ VOL
	.byte W06
	.byte 85 @ VOL
	.byte W02
	.byte 84 @ VOL
	.byte W04
	.byte 83 @ VOL
	.byte W02
	.byte 82 @ VOL
	.byte W05
	.byte 81 @ VOL
	.byte W02
	.byte 81 @ VOL
	.byte W03
	.byte 80 @ VOL
	.byte W02
	.byte 79 @ VOL
	.byte W04
	.byte 78 @ VOL
	.byte W02
	.byte 77 @ VOL
	.byte W04
	.byte 77 @ VOL
	.byte W01
	.byte 76 @ VOL
	.byte W02
	.byte 75 @ VOL
	.byte W01
	.byte 74 @ VOL
	.byte W04
	.byte 74 @ VOL
	.byte W01
	.byte 73 @ VOL
	.byte W03
	.byte 72 @ VOL
	.byte W01
	.byte 71 @ VOL
	.byte W03
	.byte 70 @ VOL
	.byte W01
	.byte 70 @ VOL
	.byte W04
	.byte 69 @ VOL
	.byte W01
	.byte 68 @ VOL
	.byte W02
	.byte 67 @ VOL
	.byte W01
	.byte 66 @ VOL
	.byte W03
	.byte 66 @ VOL
	.byte W01
	.byte 65 @ VOL
	.byte W02
	.byte 64 @ VOL
	.byte W01
	.byte 63 @ VOL
	.byte W03
	.byte 62 @ VOL
	.byte W01
	.byte 62 @ VOL
	.byte W02
	.byte 61 @ VOL
	.byte W01
	.byte 60 @ VOL
	.byte W02
	.byte 59 @ VOL
	.byte W01
	.byte 59 @ VOL
	.byte W02
	.byte 58 @ VOL
	.byte W01
	.byte 57 @ VOL
	.byte W01
	.byte 56 @ VOL
	.byte W02
	.byte 55 @ VOL
	.byte W02
	.byte 55 @ VOL
	.byte W01
	.byte 54 @ VOL
	.byte W01
	.byte 53 @ VOL
	.byte W01
	.byte 52 @ VOL
	.byte W02
	.byte 51 @ VOL
	.byte W01
	.byte 51 @ VOL
	.byte W01
	.byte 50 @ VOL
	.byte W01
	.byte 49 @ VOL
	.byte W01
	.byte 48 @ VOL
	.byte W02
	.byte 48 @ VOL
	.byte W01
	.byte 47 @ VOL
	.byte W01
	.byte 46 @ VOL
	.byte W02
	.byte 44 @ VOL
	.byte W02
	.byte 44 @ VOL
	.byte W01
	.byte 43 @ VOL
	.byte W01
	.byte 42 @ VOL
	.byte W01
	.byte 41 @ VOL
	.byte W01
	.byte 40 @ VOL
	.byte W01
	.byte 40 @ VOL
	.byte W01
	.byte 39 @ VOL
	.byte W02
	.byte 38 @ VOL
	.byte W02
	.byte 37 @ VOL
	.byte W08
	.byte EOT @ Bn1, v072
	.byte W24
	.byte VOL, 70
	.byte N44, Cs2, v072, 1
	.byte W48
	.byte Ds2, v072, 1 @ N44
	.byte W22
	.byte VOL, 70
	.byte W01
	.byte 68 @ VOL
	.byte W01
	.byte 67 @ VOL
	.byte W01
	.byte 66 @ VOL
	.byte W01
	.byte 65 @ VOL
	.byte W01
	.byte 64 @ VOL
	.byte W01
	.byte 62 @ VOL
	.byte W01
	.byte 62 @ VOL
	.byte W01
	.byte 60 @ VOL
	.byte W01
	.byte 59 @ VOL
	.byte W01
	.byte 59 @ VOL
	.byte W01
	.byte 57 @ VOL
	.byte W01
	.byte 56 @ VOL
	.byte W01
	.byte 55 @ VOL
	.byte W01
	.byte 54 @ VOL
	.byte W01
	.byte 53 @ VOL
	.byte W01
	.byte 51 @ VOL
	.byte W01
	.byte 51 @ VOL
	.byte W01
	.byte 50 @ VOL
	.byte W01
	.byte 48 @ VOL
	.byte W01
	.byte 48 @ VOL
	.byte W01
	.byte 46 @ VOL
	.byte W01
	.byte 45 @ VOL
	.byte W01
	.byte 44 @ VOL
	.byte W01
	.byte 43 @ VOL
	.byte W01
	.byte 42 @ VOL
	.byte W01
	.byte 41 @ VOL
	.byte N44, Bn1, v060, 1
	.byte W48
	.byte Cs2, v060, 1 @ N44
	.byte W48
	.byte VOL, 94
	.byte TIE, An1, v072
	.byte W48
	.byte W02
	.byte VOL, 91
	.byte W17
	.byte 88 @ VOL
	.byte W13
	.byte 85 @ VOL
	.byte W10
	.byte 81 @ VOL
	.byte W06
	.byte W04
	.byte 78 @ VOL
	.byte W08
	.byte 75 @ VOL
	.byte W07
	.byte 72 @ VOL
	.byte W06
	.byte 69 @ VOL
	.byte W06
	.byte 66 @ VOL
	.byte W06
	.byte 62 @ VOL
	.byte W04
	.byte 59 @ VOL
	.byte W03
	.byte 57 @ VOL
	.byte W04
	.byte 54 @ VOL
	.byte W05
	.byte 51 @ VOL
	.byte W03
	.byte 48 @ VOL
	.byte W02
	.byte 46 @ VOL
	.byte W04
	.byte 43 @ VOL
	.byte W04
	.byte 40 @ VOL
	.byte W03
	.byte 37 @ VOL
	.byte W03
	.byte EOT @ An1, v072
	.byte W24
	.byte GOTO
		.word track_50_lbl_21f4b5
	.byte FINE

track_50_4:
	.byte KEYSH, 0
track_50_lbl_21f8ce:
	.byte PAN, c_v
	.byte PRIO, 29
	.byte W96
	.byte W96
	.byte W96
	.byte W96
	.byte W96
	.byte W96
	.byte W96
	.byte W96
	.byte W96
	.byte W96
	.byte W96
	.byte W96
	.byte VOICE, 2
	.byte VOL, 19
	.byte BEND, c_v
	.byte TIE, Gn2, v104
	.byte W08
	.byte VOL, 22
	.byte W07
	.byte 25 @ VOL
	.byte W06
	.byte 28 @ VOL
	.byte W10
	.byte 31 @ VOL
	.byte W10
	.byte 34 @ VOL
	.byte W21
	.byte 37 @ VOL
	.byte W32
	.byte W02
	.byte W02
	.byte BEND, c_v
	.byte W02
	.byte c_v-1 @ BEND
	.byte W03
	.byte c_v-2 @ BEND
	.byte W03
	.byte c_v-3 @ BEND
	.byte W02
	.byte VOL, 36
	.byte W04
	.byte BEND, c_v-4
	.byte W03
	.byte c_v-5 @ BEND
	.byte W05
	.byte c_v-6 @ BEND
	.byte W02
	.byte c_v-7 @ BEND
	.byte W03
	.byte VOL, 33
	.byte W02
	.byte BEND, c_v-8
	.byte W02
	.byte c_v-9 @ BEND
	.byte W02
	.byte c_v-10 @ BEND
	.byte W02
	.byte c_v-11 @ BEND
	.byte W05
	.byte c_v-12 @ BEND
	.byte W02
	.byte c_v-13 @ BEND
	.byte W02
	.byte VOL, 29
	.byte W02
	.byte BEND, c_v-14
	.byte W02
	.byte c_v-15 @ BEND
	.byte W04
	.byte c_v-16 @ BEND
	.byte W02
	.byte c_v-17 @ BEND
	.byte W04
	.byte VOL, 26
	.byte BEND, c_v-18
	.byte W02
	.byte c_v-19 @ BEND
	.byte W02
	.byte c_v-20 @ BEND
	.byte W02
	.byte c_v-21 @ BEND
	.byte W03
	.byte c_v-22 @ BEND
	.byte W02
	.byte c_v-23 @ BEND
	.byte W01
	.byte VOL, 23
	.byte W03
	.byte BEND, c_v-24
	.byte W02
	.byte c_v-25 @ BEND
	.byte W04
	.byte c_v-26 @ BEND
	.byte W01
	.byte c_v-27 @ BEND
	.byte W02
	.byte VOL, 20
	.byte BEND, c_v-28
	.byte W01
	.byte c_v-29 @ BEND
	.byte W03
	.byte c_v-30 @ BEND
	.byte W02
	.byte c_v-31 @ BEND
	.byte W03
	.byte c_v-32 @ BEND
	.byte W01
	.byte c_v-33 @ BEND
	.byte W01
	.byte VOL, 17
	.byte W01
	.byte W01
	.byte BEND, c_v-34
	.byte W02
	.byte c_v-35 @ BEND
	.byte W03
	.byte c_v-36 @ BEND
	.byte W02
	.byte c_v-37 @ BEND
	.byte W01
	.byte c_v-38 @ BEND
	.byte W01
	.byte VOL, 14
	.byte BEND, c_v-39
	.byte W03
	.byte c_v-40 @ BEND
	.byte W01
	.byte c_v-41 @ BEND
	.byte W03
	.byte c_v-42 @ BEND
	.byte W01
	.byte c_v-43 @ BEND
	.byte W03
	.byte c_v-44 @ BEND
	.byte W01
	.byte c_v-45 @ BEND
	.byte W02
	.byte EOT @ Gn2, v104
	.byte W01
	.byte BEND, c_v-46
	.byte W01
	.byte c_v-47 @ BEND
	.byte W02
	.byte c_v-48 @ BEND
	.byte W01
	.byte c_v-49 @ BEND
	.byte W03
	.byte c_v-50 @ BEND
	.byte W01
	.byte c_v-51 @ BEND
	.byte W02
	.byte c_v-52 @ BEND
	.byte W02
	.byte c_v-53 @ BEND
	.byte W02
	.byte c_v-54 @ BEND
	.byte W02
	.byte c_v-55 @ BEND
	.byte W01
	.byte c_v-56 @ BEND
	.byte W01
	.byte c_v-57 @ BEND
	.byte W02
	.byte c_v-58 @ BEND
	.byte W02
	.byte c_v-59 @ BEND
	.byte W02
	.byte c_v-60 @ BEND
	.byte W01
	.byte c_v-61 @ BEND
	.byte W03
	.byte c_v-62 @ BEND
	.byte W01
	.byte c_v-63 @ BEND
	.byte W42
	.byte W92
	.byte W03
	.byte VOL, 11
	.byte W01
	.byte BEND, c_v
	.byte TIE, Cs3, v124
	.byte W02
	.byte VOL, 14
	.byte W05
	.byte 17 @ VOL
	.byte W06
	.byte 20 @ VOL
	.byte W06
	.byte 23 @ VOL
	.byte W09
	.byte 26 @ VOL
	.byte W12
	.byte 29 @ VOL
	.byte W24
	.byte W01
	.byte 33 @ VOL
	.byte W30
	.byte W01
	.byte W12
	.byte 29 @ VOL
	.byte W17
	.byte 26 @ VOL
	.byte W14
	.byte 23 @ VOL
	.byte W12
	.byte 20 @ VOL
	.byte W11
	.byte 17 @ VOL
	.byte W10
	.byte 14 @ VOL
	.byte W09
	.byte 11 @ VOL
	.byte W07
	.byte 8 @ VOL
	.byte W04
	.byte EOT @ Cs3, v124
	.byte W96
	.byte W96
	.byte W96
	.byte W96
	.byte W96
	.byte W96
	.byte W96
	.byte W96
	.byte W96
	.byte W96
	.byte W96
	.byte W96
	.byte W96
	.byte W96
	.byte W96
	.byte W96
	.byte W96
	.byte W96
	.byte W96
	.byte W96
	.byte W96
	.byte W96
	.byte W96
	.byte W96
	.byte W96
	.byte W96
	.byte W96
	.byte W96
	.byte W96
	.byte W96
	.byte W96
	.byte W96
	.byte W96
	.byte W96
	.byte W96
	.byte W96
	.byte W96
	.byte W96
	.byte W96
	.byte W96
	.byte W96
	.byte W96
	.byte W96
	.byte W96
	.byte W96
	.byte W96
	.byte GOTO
		.word track_50_lbl_21f8ce
	.byte FINE

track_50_5:
	.byte KEYSH, 0
track_50_lbl_21f9fd:
	.byte VOICE, 1
	.byte VOL, 86
	.byte PAN, c_v
	.byte PRIO, 117
	.byte BEND, c_v
	.byte N72, En1, v080
	.byte W72
	.byte N24, Gs1 @ v080
	.byte W24
track_50_lbl_21fa0e:
	.byte N48, As1, v080
	.byte W48
	.byte N44, Dn2, v080, 2
	.byte W48
	.byte PEND
	.byte TIE, Cn2 @ v080
	.byte W96
	.byte W96
	.byte W09
	.byte BEND, c_v-2
	.byte W04
	.byte c_v-4 @ BEND
	.byte W04
	.byte VOL, 83
	.byte W04
	.byte BEND, c_v-6
	.byte W08
	.byte c_v-8 @ BEND
	.byte W02
	.byte VOL, 80
	.byte W06
	.byte BEND, c_v-10
	.byte W07
	.byte c_v-12 @ BEND
	.byte W04
	.byte VOL, 77
	.byte W01
	.byte BEND, c_v-14
	.byte W05
	.byte c_v-15 @ BEND
	.byte W04
	.byte VOL, 74
	.byte W01
	.byte BEND, c_v-16
	.byte W06
	.byte c_v-18 @ BEND
	.byte W01
	.byte VOL, 70
	.byte W04
	.byte BEND, c_v-20
	.byte W04
	.byte c_v-22 @ BEND
	.byte W02
	.byte VOL, 67
	.byte W02
	.byte 66 @ VOL
	.byte BEND, c_v-24
	.byte W04
	.byte c_v-26 @ BEND
	.byte W01
	.byte VOL, 62
	.byte W03
	.byte BEND, c_v-28
	.byte W03
	.byte VOL, 59
	.byte W02
	.byte BEND, c_v-29
	.byte W03
	.byte VOL, 56
	.byte BEND, c_v-30
	.byte W02
	.byte EOT @ Cn2, v080
	.byte W96
track_50_lbl_21fa66:
	.byte VOL, 86
	.byte BEND, c_v
	.byte N48, Fs2, v080
	.byte W48
	.byte En2 @ N48, v080
	.byte W48
	.byte PEND
track_50_lbl_21fa71:
	.byte N48, Cn2, v092
	.byte W48
	.byte Gs1, v100 @ N48
	.byte W48
	.byte PEND
	.byte TIE, Fs1, v080
	.byte W96
track_50_lbl_21fa7d:
	.byte W68
	.byte W01
	.byte BEND, c_v-2
	.byte W02
	.byte c_v-4 @ BEND
	.byte W03
	.byte c_v-6 @ BEND
	.byte W03
	.byte c_v-8 @ BEND
	.byte W03
	.byte c_v-10 @ BEND
	.byte W03
	.byte c_v-12 @ BEND
	.byte W03
	.byte c_v-14 @ BEND
	.byte W03
	.byte c_v-15 @ BEND
	.byte W01
	.byte PEND
	.byte EOT, Fs1 @ v080
	.byte W02
	.byte BEND, c_v-16
	.byte W03
	.byte c_v-18 @ BEND
	.byte W01
	.byte W96
	.byte W96
	.byte W96
	.byte W96
	.byte W96
	.byte W96
	.byte W96
	.byte W96
	.byte W96
	.byte W96
	.byte W96
	.byte W96
	.byte W96
	.byte W96
	.byte W96
	.byte W96
	.byte W96
	.byte W96
	.byte W96
	.byte W96
	.byte W96
	.byte W96
	.byte W96
	.byte W96
	.byte W96
	.byte W96
	.byte W96
	.byte W96
	.byte W96
	.byte W96
	.byte W96
	.byte W96
	.byte W96
	.byte W96
	.byte VOICE, 1
	.byte VOL, 86
	.byte BEND, c_v
	.byte N72, En1, v080
	.byte W72
	.byte N24, Gs1 @ v080
	.byte W24
	.byte PATT
		.word track_50_lbl_21fa0e
	.byte TIE, Cn2, v080
	.byte W96
	.byte W96
	.byte W07
	.byte VOL, 85
	.byte W02
	.byte BEND, c_v-2
	.byte W04
	.byte c_v-4 @ BEND
	.byte W08
	.byte c_v-6 @ BEND
	.byte W04
	.byte VOL, 81
	.byte W04
	.byte BEND, c_v-8
	.byte W08
	.byte VOL, 78
	.byte BEND, c_v-10
	.byte W07
	.byte c_v-12 @ BEND
	.byte W05
	.byte c_v-14 @ BEND
	.byte W05
	.byte VOL, 75
	.byte BEND, c_v-15
	.byte W05
	.byte c_v-16 @ BEND
	.byte W03
	.byte VOL, 72
	.byte W03
	.byte BEND, c_v-18
	.byte W05
	.byte c_v-20 @ BEND
	.byte W03
	.byte VOL, 69
	.byte W01
	.byte BEND, c_v-22
	.byte W04
	.byte VOL, 66
	.byte BEND, c_v-24
	.byte W04
	.byte c_v-26 @ BEND
	.byte W01
	.byte VOL, 62
	.byte W03
	.byte BEND, c_v-28
	.byte W01
	.byte VOL, 61
	.byte W04
	.byte 58 @ VOL
	.byte BEND, c_v-29
	.byte W03
	.byte VOL, 56
	.byte BEND, c_v-30
	.byte W02
	.byte EOT @ Cn2, v080
	.byte W96
	.byte PATT
		.word track_50_lbl_21fa66
	.byte PATT
		.word track_50_lbl_21fa71
	.byte TIE, Fs1, v080
	.byte W96
	.byte PATT
		.word track_50_lbl_21fa7d
	.byte EOT, Fs1 @ v080
	.byte W02
	.byte BEND, c_v-16
	.byte W03
	.byte c_v-18 @ BEND
	.byte W01
	.byte W96
	.byte W96
	.byte c_v @ BEND
	.byte N96, Ds1, v080
	.byte W96
	.byte N48, An1, v072
	.byte W48
	.byte Gn1 @ N48, v072
	.byte W48
	.byte VOL, 100
	.byte TIE, Bn1 @ v072
	.byte W28
	.byte W01
	.byte VOL, 97
	.byte W16
	.byte 94 @ VOL
	.byte W14
	.byte 91 @ VOL
	.byte W12
	.byte 88 @ VOL
	.byte W12
	.byte 85 @ VOL
	.byte W08
	.byte 81 @ VOL
	.byte W05
	.byte W03
	.byte 78 @ VOL
	.byte W08
	.byte 75 @ VOL
	.byte W07
	.byte 72 @ VOL
	.byte W07
	.byte 69 @ VOL
	.byte W06
	.byte 66 @ VOL
	.byte W06
	.byte 62 @ VOL
	.byte W05
	.byte 59 @ VOL
	.byte W04
	.byte 56 @ VOL
	.byte W04
	.byte 54 @ VOL
	.byte W08
	.byte 48 @ VOL
	.byte W04
	.byte 46 @ VOL
	.byte W02
	.byte 44 @ VOL
	.byte W08
	.byte EOT @ Bn1, v072
	.byte W24
	.byte VOL, 100
	.byte N48, Cs2 @ v072
	.byte W48
	.byte Ds2 @ N48, v072
	.byte W48
	.byte Bn1 @ N48, v072
	.byte W48
	.byte Cs2 @ N48, v072
	.byte W48
	.byte TIE, An1 @ v072
	.byte W56
	.byte W03
	.byte VOL, 97
	.byte W14
	.byte 94 @ VOL
	.byte W12
	.byte 91 @ VOL
	.byte W11
	.byte 88 @ VOL
	.byte W08
	.byte 85 @ VOL
	.byte W07
	.byte 81 @ VOL
	.byte W08
	.byte 78 @ VOL
	.byte W05
	.byte 75 @ VOL
	.byte W05
	.byte 72 @ VOL
	.byte W06
	.byte 69 @ VOL
	.byte W03
	.byte 66 @ VOL
	.byte W04
	.byte 63 @ VOL
	.byte W02
	.byte 62 @ VOL
	.byte W05
	.byte 59 @ VOL
	.byte W03
	.byte 56 @ VOL
	.byte W02
	.byte 54 @ VOL
	.byte W03
	.byte 51 @ VOL
	.byte W04
	.byte 49 @ VOL
	.byte W02
	.byte 47 @ VOL
	.byte W03
	.byte 44 @ VOL
	.byte W02
	.byte EOT @ An1, v072
	.byte W24
	.byte GOTO
		.word track_50_lbl_21f9fd
	.byte FINE

.align 2

track_50:
	.byte 6
	.byte 0
	.byte 130
	.byte 0
	.word voice_group20
	.word track_50_0
	.word track_50_1
	.word track_50_2
	.word track_50_3
	.word track_50_4
	.word track_50_5

.align 2
