.align 2

.global track_564

track_564_0:
	.byte KEYSH, 0
	.byte TEMPO, 75
	.byte VOICE, 12
	.byte VOL, 120
	.byte PAN, c_v
	.byte BENDR, 6
	.byte BEND, c_v-63
	.byte TIE
	.byte Cn2, Gn8
	.byte W09
	.byte BEND, c_v-62
	.byte W03
	.byte DsM2
	.byte W06
	.byte FnM2
	.byte W09
	.byte GnM2
	.byte W06
	.byte AnM2
	.byte W03
	.byte AsM2
	.byte W03
	.byte BnM2
	.byte W03
	.byte CnM1
	.byte W03
	.byte CsM1
	.byte W03
	.byte DsM1
	.byte W03
	.byte EnM1
	.byte W03
	.byte FnM1
	.byte W03
	.byte GnM1
	.byte W03
	.byte AnM1
	.byte W03
	.byte BnM1
	.byte W03
	.byte Cs0
	.byte W03
	.byte Ds0
	.byte W03
	.byte Fn0
	.byte W03
	.byte An0
	.byte W03
	.byte Bn0
	.byte W03
	.byte Ds1
	.byte W03
	.byte Fs1
	.byte W03
	.byte An1
	.byte W01
	.byte Bn1
	.byte W03
	.byte Cs2
	.byte W03
	.byte Fs2
	.byte W02
	.byte W01
	.byte An2
	.byte W03
	.byte Bn2
	.byte W03
	.byte Cs3
	.byte W16
	.byte Bn2
	.byte W03
	.byte As2
	.byte W06
	.byte An2
	.byte W19
	.byte Bn2
	.byte W06
	.byte Cs3
	.byte W03
	.byte Ds3
	.byte W04
	.byte BENDR, 8
	.byte BEND, c_v
	.byte W03
	.byte Fs3
	.byte W03
	.byte Gn3
	.byte W03
	.byte An3
	.byte W03
	.byte As3
	.byte W03
	.byte Cn4
	.byte W03
	.byte Cs4
	.byte W03
	.byte Ds4
	.byte W03
	.byte Fn4
	.byte W03
	.byte Fs4
	.byte W03
	.byte Gs4
	.byte W02
	.byte W01
	.byte An4
	.byte W03
	.byte Bn4
	.byte W03
	.byte Cn5
	.byte W03
	.byte Dn5
	.byte W03
	.byte En5
	.byte W03
	.byte Fn5
	.byte W03
	.byte Gn5
	.byte W03
	.byte Gs5
	.byte W03
	.byte As5
	.byte W03
	.byte Bn5
	.byte W03
	.byte Cs6
	.byte W03
	.byte Ds6
	.byte W03
	.byte En6
	.byte W03
	.byte Fs6
	.byte W03
	.byte Gn6
	.byte W03
	.byte An6
	.byte W02
	.byte VOL, 120
	.byte W01
	.byte BEND, c_v+42
	.byte W02
	.byte VOL, 118
	.byte W01
	.byte BEND, c_v+44
	.byte W03
	.byte Dn7
	.byte W02
	.byte VOL, 116
	.byte W01
	.byte BEND, c_v+47
	.byte W02
	.byte VOL, 114
	.byte W01
	.byte BEND, c_v+49
	.byte W02
	.byte VOL, 113
	.byte W01
	.byte BEND, c_v+50
	.byte W02
	.byte VOL, 111
	.byte W01
	.byte BEND, c_v+52
	.byte W02
	.byte VOL, 108
	.byte W01
	.byte BEND, c_v+54
	.byte W02
	.byte VOL, 106
	.byte W01
	.byte BEND, c_v+55
	.byte W02
	.byte VOL, 104
	.byte W01
	.byte BEND, c_v+57
	.byte W02
	.byte VOL, 101
	.byte W01
	.byte BEND, c_v+58
	.byte W02
	.byte VOL, 93
	.byte W01
	.byte BEND, c_v+60
	.byte W02
	.byte VOL, 86
	.byte W01
	.byte BEND, c_v+61
	.byte W02
	.byte VOL, 80
	.byte W01
	.byte BEND, c_v+63
	.byte W02
	.byte VOL, 76
	.byte W03
	.byte Cn4
	.byte W03
	.byte Gs3
	.byte W03
	.byte Fn3
	.byte W03
	.byte Cs3
	.byte W03
	.byte Bn2
	.byte W04
	.byte EOT

	.byte FINE

track_564_1:
	.byte KEYSH, 0
	.byte VOICE, 13
	.byte PAN, c_v
	.byte BENDR, 6
	.byte BEND, c_v-63
	.byte W96
	.byte W04
	.byte VOL, 0
	.byte TIE
	.byte Cn3, Gn8
	.byte W03
	.byte VOL, 0
	.byte W03
	.byte CsM2
	.byte W03
	.byte DnM2
	.byte W03
	.byte EnM2
	.byte W06
	.byte FsM2
	.byte W03
	.byte GsM2
	.byte W03
	.byte AsM2
	.byte W03
	.byte CnM1
	.byte W03
	.byte DnM1
	.byte W03
	.byte FnM1
	.byte W03
	.byte GnM1
	.byte W03
	.byte BnM1
	.byte W03
	.byte Ds0
	.byte W03
	.byte As0
	.byte W03
	.byte Fs1
	.byte W03
	.byte En2
	.byte W03
	.byte Gs3
	.byte W03
	.byte Fn5
	.byte W03
	.byte Cn8
	.byte W09
	.byte BEND, c_v-62
	.byte W06
	.byte DsM2
	.byte W12
	.byte FnM2
	.byte W05
	.byte W04
	.byte FsM2
	.byte W03
	.byte GnM2
	.byte W06
	.byte AnM2
	.byte W06
	.byte AsM2
	.byte W03
	.byte BnM2
	.byte W06
	.byte CsM1
	.byte W03
	.byte DnM1
	.byte W03
	.byte DsM1
	.byte W03
	.byte EnM1
	.byte W03
	.byte FnM1
	.byte W03
	.byte GnM1
	.byte W03
	.byte GsM1
	.byte W03
	.byte AsM1
	.byte W03
	.byte BnM1
	.byte W03
	.byte Cs0
	.byte W03
	.byte En0
	.byte W03
	.byte Gn0
	.byte W03
	.byte An0
	.byte W03
	.byte Bn0
	.byte W03
	.byte Ds1
	.byte W03
	.byte Gn1
	.byte W03
	.byte As1
	.byte W03
	.byte Dn2
	.byte W03
	.byte Fs2
	.byte W03
	.byte Bn2
	.byte W03
	.byte En3
	.byte W08
	.byte W13
	.byte EOT

	.byte FINE

track_564_2:
	.byte KEYSH, 0
	.byte VOICE, 13
	.byte VOL, 103
	.byte PAN, c_v
	.byte BENDR, 12
	.byte BEND, c_v+63
	.byte W96
	.byte W64
	.byte N24
	.byte Fn2, En6
	.byte W01
	.byte BEND, c_v+56
	.byte W01
	.byte En7
	.byte W01
	.byte An6
	.byte W01
	.byte Cs6
	.byte W01
	.byte Fs5
	.byte W01
	.byte Bn4
	.byte W01
	.byte Ds4
	.byte W01
	.byte Gs3
	.byte W01
	.byte Cn3
	.byte W01
	.byte Fn2
	.byte W01
	.byte As1
	.byte W01
	.byte Dn1
	.byte W01
	.byte Gn0
	.byte W01
	.byte BnM1
	.byte W01
	.byte EnM1
	.byte W01
	.byte AnM2
	.byte W01
	.byte CsM2
	.byte W01
	.byte VOL, 75
	.byte W01
	.byte Gs2
	.byte W01
	.byte Cs1
	.byte W01
	.byte FsM1
	.byte W01
	.byte AnM2
	.byte W01
	.byte CnM2
	.byte W01

	.byte FINE

.align 2

track_564:
	.byte 3
	.byte 0
	.byte 251
	.byte 0
	.word voice_group17
	.word track_564_0
	.word track_564_1
	.word track_564_2

.align 2
