.align 2

.global track_551

track_551_0:
	.byte KEYSH, 0
	.byte TEMPO, 75
	.byte VOICE, 3
	.byte VOL, 39
	.byte PAN, c_v
	.byte BENDR, 12
	.byte BEND, c_v-47
	.byte N40
	.byte Cn3, Gs4
	.byte W01
	.byte BEND, c_v-45
	.byte W01
	.byte AsM1
	.byte W01
	.byte Cs0
	.byte W01
	.byte En0
	.byte W01
	.byte Gn0
	.byte W01
	.byte An0
	.byte W01
	.byte Cn1
	.byte W01
	.byte Ds1
	.byte W01
	.byte Fs1
	.byte W01
	.byte VOL, 100
	.byte BEND, c_v-19
	.byte W01
	.byte Cn2
	.byte W01
	.byte Dn2
	.byte W01
	.byte Fn2
	.byte W01
	.byte Gs2
	.byte W01
	.byte Bn2
	.byte W01
	.byte Dn3
	.byte W01
	.byte En3
	.byte W01
	.byte Gn3
	.byte W01
	.byte As3
	.byte W01
	.byte Cs4
	.byte W01
	.byte En4
	.byte W01
	.byte Gn4
	.byte W01
	.byte An4
	.byte W01
	.byte Cn5
	.byte W01
	.byte Ds5
	.byte W01
	.byte Fs5
	.byte W01
	.byte An5
	.byte W01
	.byte Cn6
	.byte W01
	.byte Dn6
	.byte W01
	.byte Fn6
	.byte W01
	.byte Gs6
	.byte W01
	.byte Bn6
	.byte W01
	.byte Dn7
	.byte W01
	.byte En7
	.byte W01
	.byte Gn7
	.byte W01
	.byte As7
	.byte W01
	.byte Cs8
	.byte W01
	.byte En8
	.byte W01
	.byte Gn8
	.byte W09

	.byte FINE

track_551_1:
	.byte KEYSH, 0
	.byte VOICE, 2
	.byte VOL, 0
	.byte PAN, c_v
	.byte BENDR, 48
	.byte BEND, c_v-63
	.byte N40
	.byte Cn3, En2
	.byte W01
	.byte VOL, 2
	.byte BEND, c_v-62
	.byte W01
	.byte VOL, 5
	.byte BEND, c_v-60
	.byte W01
	.byte VOL, 8
	.byte BEND, c_v-59
	.byte W01
	.byte VOL, 13
	.byte BEND, c_v-57
	.byte W01
	.byte VOL, 18
	.byte BEND, c_v-56
	.byte W01
	.byte VOL, 24
	.byte BEND, c_v-54
	.byte W01
	.byte VOL, 32
	.byte BEND, c_v-53
	.byte W01
	.byte VOL, 43
	.byte BEND, c_v-51
	.byte W01
	.byte VOL, 57
	.byte BEND, c_v-50
	.byte W01
	.byte VOL, 78
	.byte BEND, c_v-49
	.byte W01
	.byte FnM1
	.byte W01
	.byte FsM1
	.byte W01
	.byte GsM1
	.byte W01
	.byte AnM1
	.byte W01
	.byte BnM1
	.byte W01
	.byte Cn0
	.byte W01
	.byte En0
	.byte W01
	.byte An0
	.byte W01
	.byte Cs1
	.byte W01
	.byte Fs1
	.byte W01
	.byte As1
	.byte W01
	.byte Ds2
	.byte W01
	.byte Gn2
	.byte W01
	.byte Cn3
	.byte W01
	.byte En3
	.byte W01
	.byte An3
	.byte W01
	.byte Cs4
	.byte W01
	.byte Fs4
	.byte W01
	.byte As4
	.byte W01
	.byte Ds5
	.byte W01
	.byte Gn5
	.byte W01
	.byte Cn6
	.byte W01
	.byte En6
	.byte W01
	.byte An6
	.byte W01
	.byte Cs7
	.byte W01
	.byte Fs7
	.byte W01
	.byte As7
	.byte W01
	.byte Dn8
	.byte W01
	.byte Gn8
	.byte W09

	.byte FINE

track_551_2:
	.byte KEYSH, 0
	.byte VOICE, 1
	.byte VOL, 0
	.byte PAN, c_v
	.byte BENDR, 12
	.byte BEND, c_v-63
	.byte N40
	.byte Cn3, En6
	.byte W01
	.byte VOL, 2
	.byte W01
	.byte FnM2
	.byte BEND, c_v-61
	.byte W01
	.byte VOL, 8
	.byte W01
	.byte CnM1
	.byte BEND, c_v-59
	.byte W01
	.byte VOL, 18
	.byte W01
	.byte Cn0
	.byte BEND, c_v-57
	.byte W01
	.byte VOL, 33
	.byte BEND, c_v-56
	.byte W01
	.byte VOL, 45
	.byte BEND, c_v-54
	.byte W01
	.byte VOL, 63
	.byte BEND, c_v-53
	.byte W01
	.byte VOL, 100
	.byte BEND, c_v-51
	.byte W01
	.byte DsM1
	.byte W01
	.byte EnM1
	.byte W01
	.byte FsM1
	.byte W01
	.byte GsM1
	.byte W01
	.byte AsM1
	.byte W01
	.byte Cn0
	.byte W01
	.byte Dn0
	.byte W01
	.byte En0
	.byte W01
	.byte Gn0
	.byte W01
	.byte An0
	.byte W01
	.byte Bn0
	.byte W01
	.byte Ds1
	.byte W01
	.byte Fs1
	.byte W01
	.byte An1
	.byte W01
	.byte Cs2
	.byte W01
	.byte En2
	.byte W01
	.byte Gs2
	.byte W01
	.byte Cs3
	.byte W01
	.byte Fs3
	.byte W01
	.byte Bn3
	.byte W01
	.byte Ds4
	.byte W01
	.byte An4
	.byte W01
	.byte Ds5
	.byte W01
	.byte An5
	.byte W01
	.byte Ds6
	.byte W01
	.byte As6
	.byte W01
	.byte En7
	.byte W01
	.byte Cn8
	.byte W01
	.byte Gn8
	.byte W09

	.byte FINE

track_551_3:
	.byte KEYSH, 0
	.byte VOICE, 6
	.byte VOL, 62
	.byte PAN, c_v
	.byte N18
	.byte Cn3, Gs4
	.byte W48

	.byte FINE

.align 2

track_551:
	.byte 4
	.byte 0
	.byte 229
	.byte 128
	.word voice_group17
	.word track_551_0
	.word track_551_1
	.word track_551_2
	.word track_551_3

.align 2
