.include "audio/m_play_def.s"

.align 2

.section .rodata
.global track_652

track_652_0:
	.byte KEYSH, 0
	.byte TEMPO, 75
	.byte VOICE, 38
	.byte VOL, 100
	.byte PAN, c_v
	.byte TIE
	.byte Cn3, Gn8
	.byte W60
	.byte VOL, 100
	.byte W03
	.byte Gs5
	.byte W03
	.byte Cs5
	.byte W03
	.byte Gn4
	.byte W03
	.byte Dn4
	.byte W03
	.byte Gs3
	.byte W03
	.byte Ds3
	.byte W03
	.byte Bn2
	.byte W03
	.byte Fs2
	.byte W03
	.byte Cs2
	.byte W03
	.byte As1
	.byte W03
	.byte Fs1
	.byte W03
	.byte Dn1
	.byte W03
	.byte Cn1
	.byte W03
	.byte An0
	.byte W03
	.byte Fs0
	.byte W03
	.byte Ds0
	.byte W03
	.byte Cs0
	.byte W03
	.byte Cn0
	.byte W03
	.byte AsM1
	.byte W03
	.byte GsM1
	.byte W03
	.byte FsM1
	.byte W03
	.byte FnM1
	.byte W03
	.byte EnM1
	.byte W03
	.byte DnM1
	.byte W03
	.byte CsM1
	.byte W03
	.byte BnM2
	.byte W03
	.byte AsM2
	.byte W03
	.byte AnM2
	.byte W03
	.byte GsM2
	.byte W03
	.byte GnM2
	.byte W03
	.byte FsM2
	.byte W03
	.byte FnM2
	.byte W03
	.byte EnM2
	.byte W03
	.byte DsM2
	.byte W03
	.byte DsM2
	.byte W03
	.byte DnM2
	.byte W03
	.byte CsM2
	.byte W03
	.byte CnM2
	.byte W03
	.byte CnM2
	.byte W03
	.byte EOT

	.byte FINE

track_652_1:
	.byte KEYSH, 0
	.byte VOICE, 39
	.byte VOL, 0
	.byte PAN, c_v
	.byte BENDR, 48
	.byte BEND, c_v+63
	.byte TIE
	.byte Cn3, Gn8
	.byte W06
	.byte VOL, 0
	.byte BEND, c_v
	.byte W18
	.byte VOL, 0
	.byte W03
	.byte DnM2
	.byte W03
	.byte FnM2
	.byte W03
	.byte GnM2
	.byte W03
	.byte AsM2
	.byte W03
	.byte DnM1
	.byte W03
	.byte FsM1
	.byte W03
	.byte Cn0
	.byte W03
	.byte Fs0
	.byte W03
	.byte Dn1
	.byte W03
	.byte Dn2
	.byte W03
	.byte Fn3
	.byte W03
	.byte Fs5
	.byte W36
	.byte W96
	.byte W21
	.byte Fs5
	.byte W02
	.byte Bn4
	.byte W02
	.byte En4
	.byte W02
	.byte An3
	.byte W02
	.byte Dn3
	.byte W02
	.byte An2
	.byte W02
	.byte En2
	.byte W02
	.byte Cn2
	.byte W02
	.byte Gn1
	.byte W02
	.byte Dn1
	.byte W02
	.byte Bn0
	.byte W02
	.byte Gs0
	.byte W02
	.byte Fn0
	.byte W02
	.byte Dn0
	.byte W02
	.byte Cn0
	.byte W02
	.byte AnM1
	.byte W02
	.byte GnM1
	.byte W02
	.byte FnM1
	.byte W02
	.byte DnM1
	.byte W02
	.byte CsM1
	.byte W02
	.byte BnM2
	.byte W02
	.byte AsM2
	.byte W02
	.byte GsM2
	.byte W02
	.byte GnM2
	.byte W02
	.byte FsM2
	.byte W02
	.byte EnM2
	.byte W02
	.byte DsM2
	.byte W02
	.byte CsM2
	.byte W02
	.byte CnM2
	.byte W01
	.byte EOT
	.byte VOL, 0

	.byte FINE

track_652_2:
	.byte KEYSH, 0
	.byte VOICE, 38
	.byte VOL, 100
	.byte PAN, c_v
	.byte W60
	.byte W03
	.byte N21
	.byte Cn3, En6
	.byte W21
	.byte N32
	.byte Cn3, Gs4, DnM2
	.byte W12
	.byte W22
	.byte N14
	.byte An2, En6
	.byte W14
	.byte N21
	.byte Cn3, Gs4
	.byte W21
	.byte N30
	.byte Cn3, Cn3, CsM2
	.byte W30
	.byte W01
	.byte N18
	.byte Cn3, Gs4
	.byte W08
	.byte W10
	.byte N20
	.byte An2, Cn3
	.byte W11
	.byte VOL, 90
	.byte W02
	.byte Bn4
	.byte W02
	.byte En4
	.byte W02
	.byte An3
	.byte W02
	.byte Dn3
	.byte W01
	.byte N48
	.byte Cn3, Cn4
	.byte W01
	.byte VOL, 57
	.byte W02
	.byte En2
	.byte W02
	.byte Cn2
	.byte W02
	.byte Gn1
	.byte W02
	.byte Dn1
	.byte W02
	.byte Bn0
	.byte W02
	.byte Gs0
	.byte W02
	.byte Fn0
	.byte W02
	.byte Dn0
	.byte W02
	.byte Cn0
	.byte W02
	.byte AnM1
	.byte W02
	.byte GnM1
	.byte W02
	.byte FnM1
	.byte W02
	.byte DnM1
	.byte W02
	.byte CsM1
	.byte W02
	.byte BnM2
	.byte W02
	.byte AsM2
	.byte W02
	.byte GsM2
	.byte W02
	.byte GnM2
	.byte W02
	.byte FsM2
	.byte W02
	.byte EnM2
	.byte W02
	.byte DsM2
	.byte W02
	.byte CsM2
	.byte W02
	.byte CnM2
	.byte W01
	.byte CnM2

	.byte FINE

.align 2

track_652:
	.byte 3
	.byte 0
	.byte 229
	.byte 0
	.word voice_group17
	.word track_652_0
	.word track_652_1
	.word track_652_2

.align 2
