.align 2

.global track_656

track_656_0:
	.byte KEYSH, 0
	.byte TEMPO, 75
	.byte VOICE, 44
	.byte VOL, 18
	.byte PAN, c_v-20
	.byte BENDR, 3
	.byte BEND, c_v+63
	.byte TIE
	.byte Cn3, En6
	.byte W03
	.byte VOL, 19
	.byte BEND, c_v+62
	.byte W03
	.byte VOL, 21
	.byte W03
	.byte BnM1
	.byte BEND, c_v+61
	.byte W03
	.byte VOL, 25
	.byte BEND, c_v+60
	.byte W03
	.byte VOL, 27
	.byte W03
	.byte Fn0
	.byte BEND, c_v+59
	.byte W03
	.byte VOL, 33
	.byte W03
	.byte As0
	.byte BEND, c_v+58
	.byte W03
	.byte VOL, 37
	.byte BEND, c_v+57
	.byte W03
	.byte VOL, 40
	.byte W03
	.byte Gs1
	.byte BEND, c_v+56
	.byte W03
	.byte VOL, 48
	.byte BEND, c_v+55
	.byte W03
	.byte VOL, 52
	.byte W03
	.byte An2
	.byte BEND, c_v+54
	.byte W03
	.byte VOL, 63
	.byte W03
	.byte An3
	.byte BEND, c_v+53
	.byte W03
	.byte VOL, 76
	.byte BEND, c_v+52
	.byte W03
	.byte VOL, 85
	.byte W03
	.byte Bn5
	.byte BEND, c_v+51
	.byte W03
	.byte VOL, 105
	.byte BEND, c_v+50
	.byte W03
	.byte VOL, 120
	.byte W03
	.byte BEND, c_v+49
	.byte W06
	.byte En7
	.byte W03
	.byte Ds7
	.byte W03
	.byte Ds7
	.byte W03
	.byte Dn7
	.byte W03
	.byte Cs7
	.byte W06
	.byte Cn7
	.byte W03
	.byte Bn6
	.byte W03
	.byte W03
	.byte As6
	.byte W06
	.byte An6
	.byte W03
	.byte Gs6
	.byte W06
	.byte Gn6
	.byte W03
	.byte Fs6
	.byte W06
	.byte Fn6
	.byte W06
	.byte En6
	.byte W03
	.byte Ds6
	.byte W06
	.byte Dn6
	.byte W03
	.byte Cs6
	.byte W06
	.byte Cn6
	.byte W06
	.byte Bn5
	.byte W03
	.byte As5
	.byte W03
	.byte As5
	.byte W03
	.byte An5
	.byte W03
	.byte Gs5
	.byte W06
	.byte Gn5
	.byte W03
	.byte Fs5
	.byte W06
	.byte Fn5
	.byte W06
	.byte En5
	.byte W03
	.byte Ds5
	.byte W03
	.byte W03
	.byte Dn5
	.byte W03
	.byte Cs5
	.byte W06
	.byte Cn5
	.byte W06
	.byte Bn4
	.byte W03
	.byte As4
	.byte W06
	.byte An4
	.byte W03
	.byte Gs4
	.byte W06
	.byte Gn4
	.byte W03
	.byte Fs4
	.byte W06
	.byte Fn4
	.byte W06
	.byte En4
	.byte W03
	.byte Ds4
	.byte W06
	.byte Dn4
	.byte W03
	.byte Cs4
	.byte W06
	.byte Cn4
	.byte W06
	.byte Bn3
	.byte W03
	.byte As3
	.byte W06
	.byte An3
	.byte W03
	.byte Gs3
	.byte W06
	.byte Gn3
	.byte W03
	.byte W03
	.byte Fs3
	.byte W03
	.byte Fn3
	.byte W06
	.byte En3
	.byte W03
	.byte Ds3
	.byte W06
	.byte Dn3
	.byte W03
	.byte Cs3
	.byte W06
	.byte Cn3
	.byte W06
	.byte Bn2
	.byte W03
	.byte As2
	.byte W06
	.byte An2
	.byte W03
	.byte Gs2
	.byte W06
	.byte Gn2
	.byte W06
	.byte Fs2
	.byte W03
	.byte Fn2
	.byte W06
	.byte En2
	.byte W03
	.byte Ds2
	.byte W06
	.byte Dn2
	.byte W06
	.byte Cs2
	.byte W03
	.byte Cn2
	.byte W06
	.byte Bn1
	.byte W03
	.byte As1
	.byte W06
	.byte An1
	.byte W03
	.byte Gs1
	.byte W06
	.byte Gn1
	.byte W06
	.byte Fs1
	.byte W03
	.byte Fn1
	.byte W06
	.byte En1
	.byte W03
	.byte Ds1
	.byte W06
	.byte Dn1
	.byte W06
	.byte Cs1
	.byte W03
	.byte Cn1
	.byte W06
	.byte Bn0
	.byte W03
	.byte As0
	.byte W06
	.byte An0
	.byte W06
	.byte Gs0
	.byte W03
	.byte Gn0
	.byte W06
	.byte Fs0
	.byte W03
	.byte Fn0
	.byte W06
	.byte En0
	.byte W03
	.byte Ds0
	.byte W03
	.byte Ds0
	.byte W03
	.byte Dn0
	.byte W06
	.byte Cs0
	.byte W03
	.byte Cn0
	.byte W06
	.byte BnM1
	.byte W03
	.byte AsM1
	.byte W06
	.byte AnM1
	.byte W06
	.byte GsM1
	.byte W03
	.byte GnM1
	.byte W06
	.byte FsM1
	.byte W03
	.byte FnM1
	.byte W06
	.byte EnM1
	.byte W03
	.byte DsM1
	.byte W06
	.byte DnM1
	.byte W06
	.byte CsM1
	.byte W03
	.byte CnM1
	.byte W06
	.byte BnM2
	.byte W03
	.byte AsM2
	.byte W06
	.byte AnM2
	.byte W06
	.byte GsM2
	.byte W03
	.byte VOL, 120
	.byte BEND, c_v-57
	.byte W03
	.byte VOL, 97
	.byte W03
	.byte Gn4
	.byte BEND, c_v-58
	.byte W03
	.byte VOL, 65
	.byte BEND, c_v-59
	.byte W03
	.byte VOL, 52
	.byte W03
	.byte Gn1
	.byte BEND, c_v-60
	.byte W03
	.byte VOL, 34
	.byte W03
	.byte Fn0
	.byte BEND, c_v-61
	.byte W03
	.byte VOL, 23
	.byte BEND, c_v-62
	.byte W03
	.byte VOL, 17
	.byte W03
	.byte CsM1
	.byte BEND, c_v-63
	.byte W03
	.byte VOL, 8
	.byte W03
	.byte FnM2
	.byte W03
	.byte DnM2
	.byte W02
	.byte CnM2
	.byte W01
	.byte EOT

	.byte FINE

track_656_1:
	.byte KEYSH, 0
	.byte VOICE, 12
	.byte VOL, 18
	.byte PAN, c_v
	.byte BENDR, 6
	.byte BEND, c_v+63
	.byte TIE
	.byte Fn1, Gs4
	.byte W03
	.byte VOL, 19
	.byte W03
	.byte AnM1
	.byte BEND, c_v+62
	.byte W03
	.byte VOL, 23
	.byte W03
	.byte Cs0
	.byte BEND, c_v+61
	.byte W03
	.byte VOL, 27
	.byte W03
	.byte Fn0
	.byte BEND, c_v+60
	.byte W03
	.byte VOL, 33
	.byte W03
	.byte As0
	.byte W03
	.byte Cs1
	.byte BEND, c_v+59
	.byte W03
	.byte VOL, 40
	.byte W03
	.byte Gs1
	.byte BEND, c_v+58
	.byte W03
	.byte VOL, 48
	.byte W03
	.byte En2
	.byte BEND, c_v+57
	.byte W03
	.byte VOL, 57
	.byte W03
	.byte Ds3
	.byte BEND, c_v+56
	.byte W03
	.byte VOL, 69
	.byte W03
	.byte En4
	.byte W03
	.byte Cs5
	.byte BEND, c_v+55
	.byte W03
	.byte VOL, 95
	.byte W03
	.byte An6
	.byte W01
	.byte BEND, c_v+54
	.byte W02
	.byte VOL, 120
	.byte W04
	.byte BEND, c_v+53
	.byte W09
	.byte Gs7
	.byte W09
	.byte Gn7
	.byte W03
	.byte Fs7
	.byte W08
	.byte W01
	.byte Fn7
	.byte W06
	.byte En7
	.byte W06
	.byte Ds7
	.byte W09
	.byte Dn7
	.byte W07
	.byte Cs7
	.byte W06
	.byte Cn7
	.byte W06
	.byte Bn6
	.byte W09
	.byte As6
	.byte W06
	.byte An6
	.byte W06
	.byte Gs6
	.byte W09
	.byte Gn6
	.byte W06
	.byte Fs6
	.byte W06
	.byte Fn6
	.byte W10
	.byte En6
	.byte W03
	.byte W03
	.byte Ds6
	.byte W06
	.byte Dn6
	.byte W06
	.byte Cs6
	.byte W09
	.byte Cn6
	.byte W06
	.byte Bn5
	.byte W06
	.byte As5
	.byte W09
	.byte An5
	.byte W07
	.byte Gs5
	.byte W06
	.byte Gn5
	.byte W09
	.byte Fs5
	.byte W06
	.byte Fn5
	.byte W06
	.byte En5
	.byte W06
	.byte Ds5
	.byte W09
	.byte Dn5
	.byte W02
	.byte W04
	.byte Cs5
	.byte W06
	.byte Cn5
	.byte W10
	.byte Bn4
	.byte W06
	.byte As4
	.byte W06
	.byte An4
	.byte W09
	.byte Gs4
	.byte W06
	.byte Gn4
	.byte W06
	.byte Fs4
	.byte W09
	.byte Fn4
	.byte W06
	.byte En4
	.byte W06
	.byte Ds4
	.byte W07
	.byte Dn4
	.byte W09
	.byte Cs4
	.byte W06
	.byte Cn4
	.byte W06
	.byte Bn3
	.byte W09
	.byte As3
	.byte W06
	.byte An3
	.byte W06
	.byte Gs3
	.byte W09
	.byte Gn3
	.byte W07
	.byte Fs3
	.byte W06
	.byte Fn3
	.byte W06
	.byte En3
	.byte W09
	.byte Ds3
	.byte W06
	.byte Dn3
	.byte W06
	.byte Cs3
	.byte W09
	.byte Cn3
	.byte W06
	.byte Bn2
	.byte W05
	.byte W01
	.byte As2
	.byte W10
	.byte An2
	.byte W06
	.byte Gs2
	.byte W06
	.byte Gn2
	.byte W09
	.byte Fs2
	.byte W06
	.byte Fn2
	.byte W06
	.byte En2
	.byte W06
	.byte Ds2
	.byte W09
	.byte Dn2
	.byte W06
	.byte Cs2
	.byte W07
	.byte Cn2
	.byte W09
	.byte Bn1
	.byte W06
	.byte As1
	.byte W03
	.byte VOL, 120
	.byte W03
	.byte Cs6
	.byte BEND, c_v-19
	.byte W03
	.byte VOL, 79
	.byte W03
	.byte Fn3
	.byte W03
	.byte En2
	.byte BEND, c_v-20
	.byte W03
	.byte VOL, 43
	.byte W03
	.byte As0
	.byte BEND, c_v-21
	.byte W03
	.byte VOL, 29
	.byte W03
	.byte BnM1
	.byte BEND, c_v-22
	.byte W03
	.byte VOL, 17
	.byte W03
	.byte CsM1
	.byte BEND, c_v-23
	.byte W03
	.byte VOL, 8
	.byte W03
	.byte FnM2
	.byte W03
	.byte DnM2
	.byte W01
	.byte BEND, c_v-24
	.byte W01
	.byte VOL, 0
	.byte W01
	.byte EOT

	.byte FINE

track_656_2:
	.byte KEYSH, 0
	.byte W96
	.byte W96
	.byte W96
	.byte W96
	.byte W72
	.byte W03
	.byte VOL, 36
	.byte W01
	.byte VOICE, 15
	.byte PAN, c_v
	.byte BENDR, 8
	.byte VOL, 39
	.byte BEND, c_v
	.byte N60
	.byte Cn1, Gs7, CsM2
	.byte W01
	.byte VOL, 42
	.byte W01
	.byte As1
	.byte W01
	.byte Ds2
	.byte BEND, c_v-1
	.byte W01
	.byte VOL, 55
	.byte W01
	.byte Bn2
	.byte W01
	.byte Gn3
	.byte BEND, c_v-2
	.byte W01
	.byte VOL, 75
	.byte W01
	.byte Cs5
	.byte W01
	.byte An5
	.byte BEND, c_v-3
	.byte W01
	.byte VOL, 111
	.byte W01
	.byte An7
	.byte W01
	.byte Gs7
	.byte BEND, c_v-5
	.byte W01
	.byte VOL, 111
	.byte W01
	.byte As6
	.byte W01
	.byte Fs6
	.byte BEND, c_v-6
	.byte W01
	.byte VOL, 95
	.byte W01
	.byte Gn5
	.byte W01
	.byte Ds5
	.byte BEND, c_v-7
	.byte W01
	.byte VOL, 82
	.byte W01
	.byte Fn4
	.byte W01
	.byte Cn4
	.byte BEND, c_v-8
	.byte W01
	.byte VOL, 67
	.byte W01
	.byte Ds3
	.byte W01
	.byte Cs3
	.byte BEND, c_v-9
	.byte W01
	.byte VOL, 60
	.byte W01
	.byte Cs3
	.byte W01
	.byte Fs3
	.byte BEND, c_v-10
	.byte W01
	.byte VOL, 70
	.byte W01
	.byte Ds4
	.byte W01
	.byte Fs4
	.byte BEND, c_v-11
	.byte W01
	.byte VOL, 82
	.byte W01
	.byte Cs5
	.byte W01
	.byte BEND, c_v-13
	.byte W02
	.byte VOL, 82
	.byte W01
	.byte Gn4
	.byte BEND, c_v-14
	.byte W01
	.byte VOL, 74
	.byte W01
	.byte Gs3
	.byte W01
	.byte En3
	.byte BEND, c_v-15
	.byte W01
	.byte VOL, 59
	.byte W01
	.byte Gn2
	.byte W01
	.byte Ds2
	.byte BEND, c_v-16
	.byte W01
	.byte VOL, 52
	.byte W01
	.byte Gn2
	.byte W01
	.byte An2
	.byte BEND, c_v-17
	.byte W01
	.byte VOL, 60
	.byte W01
	.byte Gn3
	.byte W01
	.byte Ds4
	.byte BEND, c_v-18
	.byte W01
	.byte VOL, 84
	.byte W01
	.byte Gn5
	.byte W01
	.byte An5
	.byte BEND, c_v-20
	.byte W03
	.byte VOL, 91
	.byte BEND, c_v-21
	.byte W01
	.byte VOL, 88
	.byte W01
	.byte Cs5
	.byte W01
	.byte As4
	.byte BEND, c_v-22
	.byte W01
	.byte VOL, 78
	.byte W01
	.byte Dn4
	.byte W01
	.byte Cn4
	.byte BEND, c_v-23
	.byte W01
	.byte VOL, 70
	.byte BEND, c_v
	.byte N92
	.byte Cn1, En7
	.byte W01
	.byte VOL, 68
	.byte W01
	.byte Gs3
	.byte W01
	.byte Gs3
	.byte BEND, c_v-1
	.byte W03
	.byte VOL, 69
	.byte BEND, c_v-2
	.byte W01
	.byte VOL, 71
	.byte W02
	.byte Gs4
	.byte BEND, c_v-3
	.byte W01
	.byte VOL, 93
	.byte W01
	.byte Cs7
	.byte W01
	.byte Fs7
	.byte BEND, c_v-5
	.byte W03
	.byte As2
	.byte W01
	.byte VOL, 113
	.byte W01
	.byte En7
	.byte W01
	.byte Cn7
	.byte BEND, c_v-7
	.byte W01
	.byte VOL, 105
	.byte W01
	.byte Fn6
	.byte W01
	.byte Bn5
	.byte BEND, c_v-8
	.byte W01
	.byte VOL, 89
	.byte W01
	.byte Bn4
	.byte W01
	.byte Fn4
	.byte BEND, c_v-9
	.byte W01
	.byte VOL, 74
	.byte W01
	.byte Bn3
	.byte W01
	.byte An3
	.byte BEND, c_v-10
	.byte W01
	.byte VOL, 68
	.byte W01
	.byte Gs3
	.byte W01
	.byte Gs3
	.byte BEND, c_v-11
	.byte W01
	.byte VOL, 71
	.byte W01
	.byte En4
	.byte W01
	.byte Gs4
	.byte BEND, c_v-13
	.byte W01
	.byte VOL, 84
	.byte W01
	.byte Cs5
	.byte W01
	.byte Ds5
	.byte BEND, c_v-14
	.byte W01
	.byte VOL, 89
	.byte W02
	.byte Ds5
	.byte BEND, c_v-15
	.byte W01
	.byte VOL, 86
	.byte W01
	.byte Cs5
	.byte W01
	.byte Cn5
	.byte BEND, c_v-16
	.byte W01
	.byte VOL, 81
	.byte W01
	.byte Gs4
	.byte W01
	.byte En4
	.byte BEND, c_v-17
	.byte W01
	.byte VOL, 71
	.byte W01
	.byte Fs3
	.byte W01
	.byte Dn3
	.byte BEND, c_v-18
	.byte W01
	.byte VOL, 59
	.byte W01
	.byte Cs3
	.byte W01
	.byte En3
	.byte BEND, c_v-20
	.byte W01
	.byte VOL, 68
	.byte W01
	.byte Bn3
	.byte W01
	.byte Ds4
	.byte BEND, c_v-21
	.byte W01
	.byte VOL, 78
	.byte W01
	.byte Gs4
	.byte W01
	.byte Cn5
	.byte BEND, c_v-22
	.byte W01
	.byte VOL, 87
	.byte W01
	.byte An5
	.byte W01
	.byte Ds6
	.byte BEND, c_v-23
	.byte W01
	.byte VOL, 102
	.byte W01
	.byte Gs6
	.byte W01
	.byte An6
	.byte W01
	.byte As6
	.byte W03
	.byte Gs6
	.byte W01
	.byte Fs6
	.byte W01
	.byte En6
	.byte W01
	.byte As5
	.byte W01
	.byte Cn5
	.byte W01
	.byte En4
	.byte W01
	.byte Gs3
	.byte W01
	.byte Cs3
	.byte W01
	.byte Gn2
	.byte W01
	.byte Dn2
	.byte W01
	.byte Gs1
	.byte W01
	.byte Ds1
	.byte W01
	.byte As0
	.byte W01
	.byte Gn0
	.byte W01
	.byte Ds0
	.byte W01
	.byte BnM1
	.byte W01
	.byte AnM1
	.byte W01
	.byte FnM1
	.byte W01
	.byte DsM1
	.byte W01
	.byte CnM1
	.byte W01
	.byte AnM2
	.byte W01
	.byte FsM2
	.byte W01
	.byte EnM2
	.byte W01
	.byte DnM2
	.byte W01
	.byte CnM2
	.byte W01

	.byte FINE

.align 2

track_656:
	.byte 3
	.byte 0
	.byte 228
	.byte 0
	.word voice_group17
	.word track_656_0
	.word track_656_1
	.word track_656_2

.align 2
