.align 2

.global track_72

track_72_0:
	.byte KEYSH, 0
	.byte TEMPO, 69
	.byte VOICE, 34
	.byte PAN, c_v
	.byte VOL, 75
	.byte N06, Fn1, v040
	.byte W06
	.byte Fs1 @ N06, v040
	.byte W06
	.byte Fn1 @ N06, v040
	.byte W06
	.byte Fs1 @ N06, v040
	.byte W06
	.byte Fn1 @ N06, v040
	.byte W06
	.byte Fs1 @ N06, v040
	.byte W06
	.byte Fn1 @ N06, v040
	.byte W06
	.byte Fs1 @ N06, v040
	.byte W06
	.byte Fn1, v052 @ N06
	.byte W06
	.byte Fs1 @ N06, v052
	.byte W06
	.byte Fn1 @ N06, v052
	.byte W06
	.byte Fs1 @ N06, v052
	.byte W06
	.byte Fn1 @ N06, v052
	.byte W06
	.byte Fs1 @ N06, v052
	.byte W06
	.byte Fn1 @ N06, v052
	.byte W06
	.byte Fs1 @ N06, v052
	.byte W06
	.byte Gn1 @ N06, v052
	.byte W06
	.byte Fs1, v056 @ N06
	.byte W06
	.byte Gn1 @ N06, v056
	.byte W06
	.byte Fs1, v060 @ N06
	.byte W06
	.byte Gn1 @ N06, v060
	.byte W06
	.byte Fs1 @ N06, v060
	.byte W06
	.byte Gn1 @ N06, v060
	.byte W06
	.byte Fs1 @ N06, v060
	.byte W06
	.byte Gn1, v064 @ N06
	.byte W06
	.byte Fs1, v068 @ N06
	.byte W06
	.byte Gn1 @ N06, v068
	.byte W06
	.byte Fs1 @ N06, v068
	.byte W06
	.byte Gn1, v072 @ N06
	.byte W06
	.byte Fs1 @ N06, v072
	.byte W06
	.byte Gn1 @ N06, v072
	.byte W06
	.byte Fs1 @ N06, v072
	.byte W06
	.byte Gs1, v080 @ N06
	.byte W06
	.byte Gn1 @ N06, v080
	.byte W06
	.byte Gs1 @ N06, v080
	.byte W06
	.byte Gn1 @ N06, v080
	.byte W06
	.byte Gs1 @ N06, v080
	.byte W06
	.byte Gn1 @ N06, v080
	.byte W06
	.byte Gs1 @ N06, v080
	.byte W06
	.byte Gn1 @ N06, v080
	.byte W06
	.byte Gs1, v096 @ N06
	.byte W06
	.byte Gn1 @ N06, v096
	.byte W06
	.byte Gs1 @ N06, v096
	.byte W06
	.byte Gn1 @ N06, v096
	.byte W06
	.byte Gs1 @ N06, v096
	.byte W06
	.byte Gn1 @ N06, v096
	.byte W06
	.byte Gs1 @ N06, v096
	.byte W06
	.byte Gn1 @ N06, v096
	.byte W06
	.byte Gn1, v100 @ N06
	.byte W06
	.byte Fs1 @ N06, v100
	.byte W06
	.byte Gn1 @ N06, v100
	.byte W06
	.byte Fs1 @ N06, v100
	.byte W06
	.byte Gn1 @ N06, v100
	.byte W06
	.byte Fs1 @ N06, v100
	.byte W06
	.byte Gn1 @ N06, v100
	.byte W06
	.byte Fs1 @ N06, v100
	.byte W06
	.byte Gn1 @ N06, v100
	.byte W06
	.byte Fs1 @ N06, v100
	.byte W06
	.byte Gn1 @ N06, v100
	.byte W06
	.byte Fs1 @ N06, v100
	.byte W06
	.byte Gn1 @ N06, v100
	.byte W06
	.byte Fs1 @ N06, v100
	.byte W06
	.byte Gn1 @ N06, v100
	.byte W06
	.byte Fs1 @ N06, v100
	.byte W06
	.byte Fn1, v108 @ N06
	.byte W06
	.byte Fs1 @ N06, v108
	.byte W06
	.byte Fn1 @ N06, v108
	.byte W06
	.byte Fs1 @ N06, v108
	.byte W06
	.byte Fn1 @ N06, v108
	.byte W06
	.byte Fs1 @ N06, v108
	.byte W06
	.byte Fn1 @ N06, v108
	.byte W06
	.byte Fs1 @ N06, v108
	.byte W06
	.byte Fn1, v112 @ N06
	.byte W06
	.byte Fs1 @ N06, v112
	.byte W06
	.byte Fn1 @ N06, v112
	.byte W06
	.byte Fs1 @ N06, v112
	.byte W06
	.byte Fn1, v116 @ N06
	.byte W06
	.byte Fs1 @ N06, v116
	.byte W06
	.byte Fn1 @ N06, v116
	.byte W06
	.byte Fs1 @ N06, v116
	.byte W06
track_72_lbl_22763c:
	.byte N06, Gn1, v120
	.byte W06
	.byte Fs1 @ N06, v120
	.byte W06
	.byte Gn1 @ N06, v120
	.byte W06
	.byte Fs1 @ N06, v120
	.byte W06
	.byte Gn1 @ N06, v120
	.byte W06
	.byte Fs1 @ N06, v120
	.byte W06
	.byte Gn1 @ N06, v120
	.byte W06
	.byte Fs1 @ N06, v120
	.byte W06
	.byte Gn1 @ N06, v120
	.byte W06
	.byte Fs1 @ N06, v120
	.byte W06
	.byte Gn1 @ N06, v120
	.byte W06
	.byte Fs1 @ N06, v120
	.byte W06
	.byte Gn1 @ N06, v120
	.byte W06
	.byte Fs1 @ N06, v120
	.byte W06
	.byte Gn1 @ N06, v120
	.byte W06
	.byte Fs1 @ N06, v120
	.byte W06
	.byte PEND
	.byte Gs1 @ N06, v120
	.byte W06
	.byte Gn1 @ N06, v120
	.byte W06
	.byte Gs1 @ N06, v120
	.byte W06
	.byte Gn1 @ N06, v120
	.byte W06
	.byte Gs1 @ N06, v120
	.byte W06
	.byte Gn1 @ N06, v120
	.byte W06
	.byte Gs1 @ N06, v120
	.byte W06
	.byte Gn1 @ N06, v120
	.byte W06
	.byte Gs1 @ N06, v120
	.byte W06
	.byte Gn1 @ N06, v120
	.byte W06
	.byte Gs1 @ N06, v120
	.byte W06
	.byte Gn1 @ N06, v120
	.byte W06
	.byte Gs1 @ N06, v120
	.byte W06
	.byte Gn1 @ N06, v120
	.byte W06
	.byte Gs1 @ N06, v120
	.byte W06
	.byte Gn1 @ N06, v120
	.byte W06
	.byte PATT
		.word track_72_lbl_22763c
	.byte VOICE, 34
	.byte N06, Fn1, v120
	.byte W06
	.byte Fs1 @ N06, v120
	.byte W06
	.byte Fn1 @ N06, v120
	.byte W06
	.byte Fs1 @ N06, v120
	.byte W06
	.byte Fn1 @ N06, v120
	.byte W06
	.byte Fs1 @ N06, v120
	.byte W06
	.byte Fn1 @ N06, v120
	.byte W06
	.byte Fs1 @ N06, v120
	.byte W06
	.byte Fn1 @ N06, v120
	.byte W06
	.byte Fs1 @ N06, v120
	.byte W06
	.byte Fn1 @ N06, v120
	.byte W06
	.byte Fs1 @ N06, v120
	.byte W06
	.byte Fn1 @ N06, v120
	.byte W06
	.byte Fs1 @ N06, v120
	.byte W06
	.byte Fn1 @ N06, v120
	.byte W06
	.byte Fs1 @ N06, v120
	.byte W06
	.byte GOTO
		.word track_72_lbl_22763c
	.byte FINE

track_72_1:
	.byte KEYSH, 0
	.byte VOICE, 5
	.byte VOL, 10
	.byte PAN, c_v-34
	.byte PRIO, 119
	.byte BEND, c_v-8
	.byte N96, Fn1, v112
	.byte W12
	.byte PAN, c_v-30
	.byte W06
	.byte VOL, 12
	.byte W05
	.byte PAN, c_v-26
	.byte W11
	.byte c_v-22 @ PAN
	.byte W01
	.byte VOL, 15
	.byte W10
	.byte PAN, c_v-18
	.byte W08
	.byte VOL, 17
	.byte W02
	.byte PAN, c_v-14
	.byte W11
	.byte c_v-10 @ PAN
	.byte W04
	.byte VOL, 20
	.byte W07
	.byte PAN, c_v-6
	.byte W11
	.byte VOL, 22
	.byte PAN, c_v-2
	.byte W08
	.byte N96, Fs1 @ v112
	.byte W03
	.byte PAN, c_v+2
	.byte W05
	.byte c_v+4 @ PAN
	.byte W10
	.byte VOL, 26
	.byte W01
	.byte PAN, c_v+8
	.byte W11
	.byte c_v+12 @ PAN
	.byte W05
	.byte VOL, 28
	.byte W06
	.byte PAN, c_v+16
	.byte W11
	.byte c_v+20 @ PAN
	.byte W01
	.byte VOL, 31
	.byte W10
	.byte PAN, c_v+24
	.byte W07
	.byte VOL, 34
	.byte W03
	.byte PAN, c_v+28
	.byte W15
	.byte VOL, 36
	.byte W07
	.byte PAN, c_v+36
	.byte W01
	.byte N96, Gn1 @ v112
	.byte W09
	.byte VOL, 39
	.byte W01
	.byte PAN, c_v+32
	.byte W10
	.byte c_v+28 @ PAN
	.byte W05
	.byte c_v+26 @ PAN
	.byte W02
	.byte VOL, 41
	.byte W09
	.byte PAN, c_v+22
	.byte W08
	.byte VOL, 44
	.byte W02
	.byte PAN, c_v+18
	.byte W10
	.byte c_v+14 @ PAN
	.byte W06
	.byte VOL, 46
	.byte W04
	.byte PAN, c_v+10
	.byte W11
	.byte c_v+6 @ PAN
	.byte W02
	.byte VOL, 49
	.byte W08
	.byte PAN, c_v+2
	.byte W09
	.byte VOL, 51
	.byte N96, Fs1 @ v112
	.byte W01
	.byte PAN, c_v-2
	.byte W10
	.byte c_v-6 @ PAN
	.byte W07
	.byte VOL, 54
	.byte W04
	.byte PAN, c_v-10
	.byte W10
	.byte c_v-14 @ PAN
	.byte W03
	.byte VOL, 56
	.byte W07
	.byte PAN, c_v-18
	.byte W10
	.byte c_v-22 @ PAN
	.byte W01
	.byte VOL, 59
	.byte W10
	.byte PAN, c_v-26
	.byte W07
	.byte VOL, 61
	.byte W03
	.byte PAN, c_v-30
	.byte W10
	.byte c_v-34 @ PAN
	.byte W05
	.byte VOL, 64
	.byte W05
	.byte PAN, c_v-38
	.byte W03
	.byte VOICE, 5
	.byte PAN, c_v-34
	.byte BEND, c_v-8
	.byte N96, Fn1 @ v112
	.byte W09
	.byte VOL, 66
	.byte W03
	.byte PAN, c_v-30
	.byte W11
	.byte c_v-26 @ PAN
	.byte W04
	.byte VOL, 69
	.byte W07
	.byte PAN, c_v-22
	.byte W10
	.byte VOL, 71
	.byte W01
	.byte PAN, c_v-18
	.byte W10
	.byte c_v-14 @ PAN
	.byte W07
	.byte VOL, 74
	.byte W04
	.byte PAN, c_v-10
	.byte W11
	.byte c_v-6 @ PAN
	.byte W02
	.byte VOL, 76
	.byte W09
	.byte PAN, c_v-2
	.byte W08
track_72_lbl_227790:
	.byte VOL, 79
	.byte N96, Fs1, v112
	.byte W03
	.byte PAN, c_v+2
	.byte W05
	.byte c_v+4 @ PAN
	.byte W11
	.byte c_v+8 @ PAN
	.byte W11
	.byte c_v+12 @ PAN
	.byte W11
	.byte c_v+16 @ PAN
	.byte W11
	.byte c_v+20 @ PAN
	.byte W11
	.byte c_v+24 @ PAN
	.byte W10
	.byte c_v+28 @ PAN
	.byte W11
	.byte c_v+32 @ PAN
	.byte W11
	.byte c_v+36 @ PAN
	.byte W01
	.byte N96, Gn1 @ v112
	.byte W10
	.byte PAN, c_v+32
	.byte W10
	.byte c_v+28 @ PAN
	.byte W05
	.byte c_v+26 @ PAN
	.byte W11
	.byte c_v+22 @ PAN
	.byte W10
	.byte c_v+18 @ PAN
	.byte W10
	.byte c_v+14 @ PAN
	.byte W10
	.byte c_v+10 @ PAN
	.byte W11
	.byte c_v+6 @ PAN
	.byte W10
	.byte c_v+2 @ PAN
	.byte W09
	.byte N96, Fs1 @ v112
	.byte W01
	.byte PAN, c_v-2
	.byte W10
	.byte c_v-6 @ PAN
	.byte W11
	.byte c_v-10 @ PAN
	.byte W10
	.byte c_v-14 @ PAN
	.byte W10
	.byte c_v-18 @ PAN
	.byte W10
	.byte c_v-22 @ PAN
	.byte W11
	.byte c_v-26 @ PAN
	.byte W10
	.byte c_v-30 @ PAN
	.byte W10
	.byte c_v-34 @ PAN
	.byte W10
	.byte c_v-38 @ PAN
	.byte W03
	.byte VOICE, 5
	.byte PAN, c_v-34
	.byte BEND, c_v-8
	.byte N96, Fn1 @ v112
	.byte W12
	.byte PAN, c_v-30
	.byte W11
	.byte c_v-26 @ PAN
	.byte W11
	.byte c_v-22 @ PAN
	.byte W11
	.byte c_v-18 @ PAN
	.byte W10
	.byte c_v-14 @ PAN
	.byte W11
	.byte c_v-10 @ PAN
	.byte W11
	.byte c_v-6 @ PAN
	.byte W11
	.byte c_v-2 @ PAN
	.byte W08
	.byte GOTO
		.word track_72_lbl_227790
	.byte FINE

track_72_2:
	.byte KEYSH, 0
	.byte VOICE, 14
	.byte VOL, 10
	.byte PAN, c_v+26
	.byte PRIO, 118
	.byte BEND, c_v
	.byte N96, Fn3, v100
	.byte W10
	.byte PAN, c_v+22
	.byte W08
	.byte VOL, 12
	.byte W02
	.byte PAN, c_v+18
	.byte W11
	.byte c_v+14 @ PAN
	.byte W04
	.byte VOL, 15
	.byte W07
	.byte PAN, c_v+10
	.byte W11
	.byte c_v+6 @ PAN
	.byte VOL, 17
	.byte W10
	.byte PAN, c_v+2
	.byte W07
	.byte VOL, 20
	.byte W04
	.byte PAN, c_v-2
	.byte W11
	.byte c_v-6 @ PAN
	.byte W03
	.byte VOL, 22
	.byte W08
	.byte PAN, c_v-10
	.byte N96, Fs3 @ v100
	.byte W10
	.byte PAN, c_v-14
	.byte W08
	.byte VOL, 26
	.byte W03
	.byte PAN, c_v-18
	.byte W11
	.byte c_v-22 @ PAN
	.byte W03
	.byte VOL, 28
	.byte W08
	.byte PAN, c_v-26
	.byte W10
	.byte c_v-30 @ PAN
	.byte VOL, 31
	.byte W11
	.byte PAN, c_v-34
	.byte W06
	.byte VOL, 34
	.byte W05
	.byte PAN, c_v-38
	.byte W11
	.byte c_v-42 @ PAN
	.byte W02
	.byte VOL, 36
	.byte W06
	.byte PAN, c_v-45
	.byte W02
	.byte N96, Gn3 @ v100
	.byte W09
	.byte VOL, 39
	.byte W06
	.byte PAN, c_v-40
	.byte W09
	.byte c_v-36 @ PAN
	.byte W03
	.byte VOL, 41
	.byte W05
	.byte PAN, c_v-32
	.byte W09
	.byte c_v-28 @ PAN
	.byte W03
	.byte VOL, 44
	.byte W06
	.byte PAN, c_v-24
	.byte W08
	.byte c_v-20 @ PAN
	.byte W04
	.byte VOL, 46
	.byte W05
	.byte PAN, c_v-16
	.byte W09
	.byte c_v-12 @ PAN
	.byte W03
	.byte VOL, 49
	.byte W05
	.byte PAN, c_v-8
	.byte W09
	.byte c_v-4 @ PAN
	.byte W03
	.byte VOL, 51
	.byte N96, Fs3 @ v100
	.byte W06
	.byte PAN, c_v
	.byte W08
	.byte c_v+4 @ PAN
	.byte W04
	.byte VOL, 54
	.byte W05
	.byte PAN, c_v+8
	.byte W09
	.byte c_v+12 @ PAN
	.byte W03
	.byte VOL, 56
	.byte W05
	.byte PAN, c_v+16
	.byte W09
	.byte c_v+20 @ PAN
	.byte W04
	.byte VOL, 59
	.byte W05
	.byte PAN, c_v+24
	.byte W08
	.byte c_v+28 @ PAN
	.byte W04
	.byte VOL, 61
	.byte W05
	.byte PAN, c_v+32
	.byte W09
	.byte c_v+36 @ PAN
	.byte W04
	.byte VOL, 64
	.byte W04
	.byte PAN, c_v+40
	.byte W04
	.byte VOICE, 14
	.byte PAN, c_v+26
	.byte BEND, c_v
	.byte N96, Fn3 @ v100
	.byte W09
	.byte VOL, 66
	.byte W01
	.byte PAN, c_v+22
	.byte W10
	.byte c_v+18 @ PAN
	.byte W07
	.byte VOL, 69
	.byte W04
	.byte PAN, c_v+14
	.byte W11
	.byte c_v+10 @ PAN
	.byte W02
	.byte VOL, 71
	.byte W09
	.byte PAN, c_v+6
	.byte W09
	.byte VOL, 74
	.byte W01
	.byte PAN, c_v+2
	.byte W11
	.byte c_v-2 @ PAN
	.byte W05
	.byte VOL, 76
	.byte W06
	.byte PAN, c_v-6
	.byte W11
track_72_lbl_2278df:
	.byte VOL, 79
	.byte PAN, c_v-10
	.byte N96, Fs3, v100
	.byte W10
	.byte PAN, c_v-14
	.byte W11
	.byte c_v-18 @ PAN
	.byte W11
	.byte c_v-22 @ PAN
	.byte W11
	.byte c_v-26 @ PAN
	.byte W10
	.byte c_v-30 @ PAN
	.byte W11
	.byte c_v-34 @ PAN
	.byte W11
	.byte c_v-38 @ PAN
	.byte W11
	.byte c_v-42 @ PAN
	.byte W08
	.byte c_v-45 @ PAN
	.byte W02
	.byte N96, Gn3 @ v100
	.byte W15
	.byte PAN, c_v-40
	.byte W09
	.byte c_v-36 @ PAN
	.byte W08
	.byte c_v-32 @ PAN
	.byte W09
	.byte c_v-28 @ PAN
	.byte W09
	.byte c_v-24 @ PAN
	.byte W08
	.byte c_v-20 @ PAN
	.byte W09
	.byte c_v-16 @ PAN
	.byte W09
	.byte c_v-12 @ PAN
	.byte W08
	.byte c_v-8 @ PAN
	.byte W09
	.byte c_v-4 @ PAN
	.byte W03
	.byte N96, Fs3 @ v100
	.byte W06
	.byte PAN, c_v
	.byte W08
	.byte c_v+4 @ PAN
	.byte W09
	.byte c_v+8 @ PAN
	.byte W09
	.byte c_v+12 @ PAN
	.byte W08
	.byte c_v+16 @ PAN
	.byte W09
	.byte c_v+20 @ PAN
	.byte W09
	.byte c_v+24 @ PAN
	.byte W08
	.byte c_v+28 @ PAN
	.byte W09
	.byte c_v+32 @ PAN
	.byte W09
	.byte c_v+36 @ PAN
	.byte W08
	.byte c_v+40 @ PAN
	.byte W04
	.byte VOICE, 14
	.byte PAN, c_v+26
	.byte BEND, c_v
	.byte N96, Fn3 @ v100
	.byte W10
	.byte PAN, c_v+22
	.byte W10
	.byte c_v+18 @ PAN
	.byte W11
	.byte c_v+14 @ PAN
	.byte W11
	.byte c_v+10 @ PAN
	.byte W11
	.byte c_v+6 @ PAN
	.byte W10
	.byte c_v+2 @ PAN
	.byte W11
	.byte c_v-2 @ PAN
	.byte W11
	.byte c_v-6 @ PAN
	.byte W11
	.byte GOTO
		.word track_72_lbl_2278df
	.byte FINE

track_72_3:
	.byte KEYSH, 0
	.byte VOICE, 14
	.byte PAN, c_v
	.byte VOL, 10
	.byte PRIO, 120
	.byte BEND, c_v
	.byte TIE, Fn3, v100
	.byte W18
	.byte VOL, 12
	.byte W17
	.byte 15 @ VOL
	.byte W18
	.byte 17 @ VOL
	.byte W17
	.byte 20 @ VOL
	.byte W18
	.byte 22 @ VOL
	.byte W08
	.byte W06
	.byte EOT @ Fn3, v100
	.byte N96, Fs3 @ v100
	.byte W12
	.byte VOL, 26
	.byte W17
	.byte 28 @ VOL
	.byte W18
	.byte 31 @ VOL
	.byte W17
	.byte 34 @ VOL
	.byte W18
	.byte 36 @ VOL
	.byte W08
	.byte W06
	.byte N96, Gn3 @ v100
	.byte W03
	.byte VOL, 39
	.byte W18
	.byte 41 @ VOL
	.byte W17
	.byte 44 @ VOL
	.byte W18
	.byte 46 @ VOL
	.byte W17
	.byte 49 @ VOL
	.byte W17
	.byte 51 @ VOL
	.byte W06
	.byte N90, Fs3 @ v100
	.byte W12
	.byte VOL, 54
	.byte W17
	.byte 56 @ VOL
	.byte W18
	.byte 59 @ VOL
	.byte W17
	.byte 61 @ VOL
	.byte W18
	.byte 64 @ VOL
	.byte W08
	.byte TIE, Fn3 @ v100
	.byte W09
	.byte VOL, 66
	.byte W18
	.byte 69 @ VOL
	.byte W17
	.byte 71 @ VOL
	.byte W18
	.byte 74 @ VOL
	.byte W17
	.byte 76 @ VOL
	.byte W17
track_72_lbl_2279a4:
	.byte VOL, 79
	.byte W06
	.byte EOT, Fn3 @ v100
	.byte N96, Fs3, v100
	.byte W90
	.byte W06
	.byte Gn3 @ N96, v100
	.byte W90
	.byte W06
	.byte N90, Fs3 @ v100
	.byte W90
	.byte N96, Fn3 @ v100
	.byte W96
	.byte GOTO
		.word track_72_lbl_2279a4
	.byte FINE

.align 2

track_72:
	.byte 4
	.byte 0
	.byte 130
	.byte 0
	.word voice_group22
	.word track_72_0
	.word track_72_1
	.word track_72_2
	.word track_72_3

.align 2
