.align 2

.global track_494

track_494_0:
	.byte KEYSH, 0
	.byte TEMPO, 75
	.byte VOICE, 13
	.byte VOL, 105
	.byte PAN, c_v-20
	.byte N05, Cn3, v120
	.byte W05
	.byte N14, En3, v127
	.byte W14
	.byte N13, Dn3, v080
	.byte W28
	.byte W01
	.byte N05, Dn3, v120
	.byte W05
	.byte N14, Cn3, v127
	.byte W14
	.byte N13, En3, v080
	.byte W28
	.byte W01
	.byte N05, En3, v112
	.byte W05
	.byte N14, Cn3, v127
	.byte W14
	.byte N13, Dn3, v080
	.byte W28
	.byte W01
	.byte N05, Cn3, v112
	.byte W05
	.byte N14, Dn3, v127
	.byte W14
	.byte N13, En3, v080
	.byte W19
	.byte VOL, 100
	.byte W02
	.byte 95 @ VOL
	.byte W02
	.byte 90 @ VOL
	.byte W02
	.byte 85 @ VOL
	.byte W02
	.byte 80 @ VOL
	.byte W02
	.byte 76 @ VOL
	.byte N05, Cn3, v120
	.byte W02
	.byte VOL, 73
	.byte W02
	.byte 70 @ VOL
	.byte W01
	.byte N14, En3, v127
	.byte W01
	.byte VOL, 66
	.byte W02
	.byte 63 @ VOL
	.byte W02
	.byte 60 @ VOL
	.byte W02
	.byte 57 @ VOL
	.byte W02
	.byte 54 @ VOL
	.byte W02
	.byte 52 @ VOL
	.byte W02
	.byte 50 @ VOL
	.byte W01
	.byte N13, Dn3, v080
	.byte W01
	.byte VOL, 47
	.byte W02
	.byte 45 @ VOL
	.byte W02
	.byte 42 @ VOL
	.byte W02
	.byte 41 @ VOL
	.byte W02
	.byte 38 @ VOL
	.byte W02
	.byte 37 @ VOL
	.byte W02
	.byte 35 @ VOL
	.byte W02
	.byte 33 @ VOL
	.byte W02
	.byte 32 @ VOL
	.byte W02
	.byte 31 @ VOL
	.byte W02
	.byte 29 @ VOL
	.byte W02
	.byte 28 @ VOL
	.byte W02
	.byte 27 @ VOL
	.byte W02
	.byte 25 @ VOL
	.byte W02
	.byte 24 @ VOL
	.byte N05, Dn3, v120
	.byte W02
	.byte VOL, 23
	.byte W02
	.byte 22 @ VOL
	.byte W01
	.byte N14, Cn3, v127
	.byte W01
	.byte VOL, 21
	.byte W02
	.byte 20 @ VOL
	.byte W02
	.byte 19 @ VOL
	.byte W02
	.byte 19 @ VOL
	.byte W02
	.byte 18 @ VOL
	.byte W02
	.byte 17 @ VOL
	.byte W02
	.byte 15 @ VOL
	.byte W01
	.byte N13, En3, v080
	.byte W03
	.byte VOL, 14
	.byte W04
	.byte 13 @ VOL
	.byte W02
	.byte 12 @ VOL
	.byte W02
	.byte 11 @ VOL
	.byte W02
	.byte 10 @ VOL
	.byte W04
	.byte 9 @ VOL
	.byte W02
	.byte 9 @ VOL
	.byte W04
	.byte 8 @ VOL
	.byte W02
	.byte 7 @ VOL
	.byte W04
	.byte 6 @ VOL
	.byte N05, En3, v112
	.byte W02
	.byte VOL, 5
	.byte W03
	.byte N14, Cn3, v127
	.byte W01
	.byte VOL, 4
	.byte W02
	.byte 4 @ VOL
	.byte W06
	.byte 3 @ VOL
	.byte W02
	.byte 2 @ VOL
	.byte W03
	.byte N13, Dn3, v080
	.byte W01
	.byte VOL, 1
	.byte W04
	.byte 0 @ VOL
	.byte W04
	.byte 0 @ VOL
	.byte W04
	.byte FINE

track_494_1:
	.byte KEYSH, 0
	.byte W24
	.byte VOICE, 12
	.byte VOL, 105
	.byte PAN, c_v-20
	.byte N03, Bn2, v112
	.byte W03
	.byte VOICE, 15
	.byte N06, Gn2, v127
	.byte W06
	.byte N21, Cn3, v112
	.byte W36
	.byte W03
	.byte VOICE, 12
	.byte N03, Bn2, v100
	.byte W03
	.byte VOICE, 14
	.byte N07, An2, v112
	.byte W07
	.byte N21, Bn2, v080
	.byte W14
	.byte W24
	.byte VOICE, 12
	.byte N03, Bn2, v112
	.byte W03
	.byte VOICE, 15
	.byte N07, An2, v127
	.byte W07
	.byte N21, Cn3, v112
	.byte W36
	.byte W02
	.byte VOICE, 12
	.byte N03, Bn2, v100
	.byte W03
	.byte VOICE, 14
	.byte N07, Cn3, v120
	.byte W07
	.byte N21, Bn2, v092
	.byte W04
	.byte VOL, 100
	.byte W02
	.byte 95 @ VOL
	.byte W02
	.byte 90 @ VOL
	.byte W02
	.byte 85 @ VOL
	.byte W02
	.byte 80 @ VOL
	.byte W02
	.byte 76 @ VOL
	.byte W02
	.byte 73 @ VOL
	.byte W02
	.byte 70 @ VOL
	.byte W02
	.byte 66 @ VOL
	.byte W02
	.byte 63 @ VOL
	.byte W02
	.byte 60 @ VOL
	.byte W02
	.byte 57 @ VOL
	.byte W02
	.byte 54 @ VOL
	.byte W02
	.byte 52 @ VOL
	.byte W02
	.byte 50 @ VOL
	.byte W02
	.byte 47 @ VOL
	.byte W02
	.byte 45 @ VOL
	.byte W02
	.byte VOICE, 12
	.byte VOL, 42
	.byte N03, Bn2, v112
	.byte W02
	.byte VOL, 41
	.byte W01
	.byte VOICE, 15
	.byte N06, Gn2, v127
	.byte W01
	.byte VOL, 38
	.byte W02
	.byte 37 @ VOL
	.byte W02
	.byte 35 @ VOL
	.byte W01
	.byte N21, Cn3, v112
	.byte W01
	.byte VOL, 33
	.byte W02
	.byte 32 @ VOL
	.byte W02
	.byte 31 @ VOL
	.byte W02
	.byte 29 @ VOL
	.byte W02
	.byte 28 @ VOL
	.byte W02
	.byte 27 @ VOL
	.byte W02
	.byte 25 @ VOL
	.byte W02
	.byte 24 @ VOL
	.byte W02
	.byte 23 @ VOL
	.byte W02
	.byte 22 @ VOL
	.byte W02
	.byte 21 @ VOL
	.byte W02
	.byte 20 @ VOL
	.byte W02
	.byte 19 @ VOL
	.byte W02
	.byte 19 @ VOL
	.byte W02
	.byte 18 @ VOL
	.byte W02
	.byte 17 @ VOL
	.byte W02
	.byte 15 @ VOL
	.byte W04
	.byte 14 @ VOL
	.byte W02
	.byte VOICE, 12
	.byte N03, Bn2, v100
	.byte W02
	.byte VOL, 13
	.byte W01
	.byte VOICE, 14
	.byte N07, An2, v112
	.byte W01
	.byte VOL, 12
	.byte W02
	.byte 11 @ VOL
	.byte W02
	.byte 10 @ VOL
	.byte W02
	.byte N21, Bn2, v080
	.byte W02
	.byte VOL, 9
	.byte W02
	.byte 9 @ VOL
	.byte W04
	.byte 8 @ VOL
	.byte W02
	.byte 7 @ VOL
	.byte W04
	.byte 6 @ VOL
	.byte W02
	.byte 5 @ VOL
	.byte W04
	.byte 4 @ VOL
	.byte W02
	.byte 4 @ VOL
	.byte W06
	.byte 3 @ VOL
	.byte W02
	.byte 2 @ VOL
	.byte W04
	.byte 1 @ VOL
	.byte W04
	.byte VOICE, 12
	.byte VOL, 0
	.byte N03, Bn2, v112
	.byte W03
	.byte VOICE, 15
	.byte N05, An2, v080
	.byte W01
	.byte VOL, 0
	.byte W04
	.byte FINE

track_494_2:
	.byte KEYSH, 0
	.byte W04
	.byte VOICE, 16
	.byte MOD, 0
	.byte VOL, 105
	.byte LFOS, 0
	.byte N05, Gs2, v080
	.byte W05
	.byte N10, Gs2, v112
	.byte W42
	.byte W01
	.byte N05, Gs2, v080
	.byte W05
	.byte N10, Gs2, v112
	.byte W36
	.byte W03
	.byte W04
	.byte N05, Gs2, v080
	.byte W05
	.byte N10, Gs2, v112
	.byte W42
	.byte W01
	.byte N05, Gs2, v080
	.byte W05
	.byte N10, Gs2, v112
	.byte W36
	.byte W03
	.byte N05, Gs2, v080
	.byte W05
	.byte N10 @ Gs2, v080
	.byte W42
	.byte W01
	.byte N05, Gs2, v060
	.byte W05
	.byte N10 @ Gs2, v060
	.byte W42
	.byte W01
	.byte N05, Gs2, v032
	.byte W05
	.byte FINE

track_494_3:
	.byte KEYSH, 0
	.byte VOICE, 10
	.byte VOL, 105
	.byte PAN, c_v
	.byte PRIO, 1
	.byte BEND, c_v
	.byte N56, Cn3, v127, 3
	.byte W72
	.byte VOICE, 11
	.byte BENDR, 12
	.byte BEND, c_v
	.byte N36, An2, v100, 3
	.byte W10
	.byte BEND, c_v+21
	.byte W01
	.byte c_v+22 @ BEND
	.byte W01
	.byte c_v+23 @ BEND
	.byte W01
	.byte c_v+24 @ BEND
	.byte W01
	.byte c_v+25 @ BEND
	.byte W01
	.byte c_v+26 @ BEND
	.byte W01
	.byte c_v+28 @ BEND
	.byte W01
	.byte c_v+29 @ BEND
	.byte W01
	.byte c_v+30 @ BEND
	.byte W01
	.byte c_v+31 @ BEND
	.byte W01
	.byte c_v+32 @ BEND
	.byte W04
	.byte W05
	.byte c_v+32 @ BEND
	.byte W01
	.byte VOL, 82
	.byte BEND, c_v+30
	.byte W01
	.byte VOL, 55
	.byte BEND, c_v+28
	.byte W01
	.byte VOL, 38
	.byte BEND, c_v+25
	.byte W01
	.byte VOL, 28
	.byte BEND, c_v+23
	.byte W01
	.byte VOL, 19
	.byte BEND, c_v+21
	.byte W14
	.byte VOICE, 10
	.byte VOL, 105
	.byte BEND, c_v
	.byte N68 @ An2, v100
	.byte W60
	.byte W02
	.byte VOL, 100
	.byte W02
	.byte 95 @ VOL
	.byte W02
	.byte 90 @ VOL
	.byte W02
	.byte 85 @ VOL
	.byte W02
	.byte 80 @ VOL
	.byte W02
	.byte 76 @ VOL
	.byte W02
	.byte 73 @ VOL
	.byte W02
	.byte 70 @ VOL
	.byte W01
	.byte N44, En3, v100, 3
	.byte W01
	.byte VOL, 66
	.byte W02
	.byte 63 @ VOL
	.byte W02
	.byte 60 @ VOL
	.byte W02
	.byte 57 @ VOL
	.byte W02
	.byte 54 @ VOL
	.byte W02
	.byte 52 @ VOL
	.byte W02
	.byte 50 @ VOL
	.byte W02
	.byte 47 @ VOL
	.byte W02
	.byte 45 @ VOL
	.byte W02
	.byte 42 @ VOL
	.byte W02
	.byte 41 @ VOL
	.byte W02
	.byte 38 @ VOL
	.byte W02
	.byte 37 @ VOL
	.byte W02
	.byte 35 @ VOL
	.byte W02
	.byte 33 @ VOL
	.byte W02
	.byte 32 @ VOL
	.byte W02
	.byte 31 @ VOL
	.byte W02
	.byte 29 @ VOL
	.byte W02
	.byte 28 @ VOL
	.byte W02
	.byte 27 @ VOL
	.byte W02
	.byte 25 @ VOL
	.byte W02
	.byte 24 @ VOL
	.byte W02
	.byte 23 @ VOL
	.byte W02
	.byte 22 @ VOL
	.byte N56, Dn3, v080, 2
	.byte W02
	.byte VOL, 21
	.byte W02
	.byte 20 @ VOL
	.byte W02
	.byte 19 @ VOL
	.byte W02
	.byte 19 @ VOL
	.byte BEND, c_v
	.byte W02
	.byte VOL, 18
	.byte BEND, c_v-1
	.byte W02
	.byte VOL, 17
	.byte W02
	.byte 15 @ VOL
	.byte BEND, c_v-3
	.byte W04
	.byte VOL, 14
	.byte BEND, c_v-5
	.byte W02
	.byte c_v-7 @ BEND
	.byte W02
	.byte VOL, 13
	.byte BEND, c_v-8
	.byte W02
	.byte VOL, 12
	.byte BEND, c_v-11
	.byte W02
	.byte VOL, 11
	.byte BEND, c_v-13
	.byte W02
	.byte VOL, 10
	.byte BEND, c_v-17
	.byte W02
	.byte c_v-20 @ BEND
	.byte W02
	.byte VOL, 9
	.byte BEND, c_v-24
	.byte W02
	.byte VOL, 9
	.byte W04
	.byte 8 @ VOL
	.byte W02
	.byte 7 @ VOL
	.byte W04
	.byte 6 @ VOL
	.byte W02
	.byte 5 @ VOL
	.byte W04
	.byte 4 @ VOL
	.byte W02
	.byte 4 @ VOL
	.byte W06
	.byte 3 @ VOL
	.byte W02
	.byte 2 @ VOL
	.byte W04
	.byte 1 @ VOL
	.byte W04
	.byte 0 @ VOL
	.byte W04
	.byte 0 @ VOL
	.byte FINE

.align 2

track_494:
	.byte 4
	.byte 0
	.byte 228
	.byte 0
	.word voice_group13
	.word track_494_0
	.word track_494_1
	.word track_494_2
	.word track_494_3

.align 2
