.include "audio/m_play_def.s"

.align 2

.section .rodata
.global track_12

track_12_0:
	.byte KEYSH, 0
track_12_lbl_22eb66:
	.byte TEMPO, 37
	.byte VOICE, 59
	.byte VOL, 15
	.byte PAN, c_v-22
	.byte PRIO, 30
	.byte W66
	.byte N01
	.byte Gs6, Cn1
	.byte W06
	.byte Cn6
	.byte W06
	.byte Gn6
	.byte W06
	.byte As5
	.byte W06
	.byte En6
	.byte W06
	.byte Cn7
	.byte W06
	.byte Cs7
	.byte W06
	.byte Dn6
	.byte W06
	.byte Fs6
	.byte W06
	.byte Fn6
	.byte W06
	.byte An5
	.byte W06
	.byte Fn5
	.byte W06
	.byte As6
	.byte W54
	.byte W36
	.byte Ds6
	.byte W06
	.byte Dn6
	.byte W06
	.byte Gs6
	.byte W06
	.byte As5
	.byte W06
	.byte Dn6
	.byte W06
	.byte Gn6
	.byte W06
	.byte N01
	.byte W06
	.byte Dn7
	.byte W06
	.byte En6
	.byte W06
	.byte Gs6
	.byte W06
	.byte Cn6
	.byte W06
	.byte Ds6
	.byte W78
	.byte N01
	.byte W06
	.byte Dn6
	.byte W06
	.byte Cn6
	.byte W06
	.byte As6
	.byte W06
	.byte Bn6
	.byte W06
	.byte N01
	.byte W06
	.byte Ds6
	.byte W06
	.byte Cn6
	.byte W06
	.byte Gn6
	.byte W06
	.byte Fs6
	.byte W06
	.byte Fn6
	.byte W06
	.byte An5
	.byte W06
	.byte Dn6
	.byte W12
	.byte GOTO
		.word track_12_lbl_22eb66

	.byte FINE

track_12_1:
	.byte KEYSH, 0
track_12_lbl_22ebc8:
	.byte VOICE, 59
	.byte VOL, 18
	.byte PAN, c_v+20
	.byte PRIO, 29
	.byte W48
	.byte N01
	.byte Dn5, En1
	.byte W01
	.byte An4
	.byte W02
	.byte Gn5
	.byte W01
	.byte Cs5
	.byte W02
	.byte Ds5
	.byte W01
	.byte An4
	.byte W02
	.byte Fn4
	.byte W01
	.byte Dn5
	.byte W02
	.byte Gs4
	.byte W01
	.byte Cs5
	.byte W02
	.byte Gn4
	.byte W01
	.byte As4
	.byte W02
	.byte An4
	.byte W01
	.byte Fn5
	.byte W02
	.byte Ds5
	.byte W01
	.byte Cn5
	.byte W02
	.byte Gs4
	.byte W01
	.byte Gn5
	.byte W02
	.byte An4
	.byte W01
	.byte Fn4
	.byte W02
	.byte Ds5
	.byte W18
	.byte W06
	.byte Fs4
	.byte W01
	.byte Gs4
	.byte W02
	.byte Gn4
	.byte W01
	.byte Cs4
	.byte W02
	.byte Ds4
	.byte W01
	.byte Fn4
	.byte W02
	.byte Dn4
	.byte W01
	.byte An4
	.byte W02
	.byte Ds4
	.byte N01
	.byte En4
	.byte W01
	.byte Gs4
	.byte W02
	.byte Cn5
	.byte W01
	.byte Cn4
	.byte W02
	.byte Fs4
	.byte W01
	.byte An4
	.byte W02
	.byte Fs4
	.byte W01
	.byte Cn5
	.byte W02
	.byte Fn4
	.byte W01
	.byte Gn4
	.byte W02
	.byte Ds4
	.byte W01
	.byte Cs5
	.byte W48
	.byte W03
	.byte Ds5
	.byte W02
	.byte Ds4
	.byte W01
	.byte An4
	.byte W02
	.byte Cs4
	.byte W01
	.byte Gn4
	.byte W02
	.byte Fn4
	.byte W01
	.byte Gn5
	.byte W02
	.byte Fs4
	.byte W01
	.byte Gn4
	.byte N01
	.byte An4
	.byte W02
	.byte Cn4
	.byte N01
	.byte Dn4
	.byte W01
	.byte Gs5
	.byte W02
	.byte Cs4
	.byte W01
	.byte Cs5
	.byte W02
	.byte Fs4
	.byte W24
	.byte W01
	.byte N01
	.byte W02
	.byte Bn4
	.byte W01
	.byte Cn4
	.byte W02
	.byte Gn4
	.byte W01
	.byte Ds5
	.byte W02
	.byte Gs4
	.byte W01
	.byte Gn3
	.byte W02
	.byte En5
	.byte N01
	.byte Fn5
	.byte W01
	.byte Ds4
	.byte W02
	.byte As5
	.byte W01
	.byte En4
	.byte W02
	.byte Fs4
	.byte W01
	.byte Gs4
	.byte W02
	.byte Cn5
	.byte W01
	.byte Cn4
	.byte W02
	.byte Fs4
	.byte W01
	.byte En4
	.byte W02
	.byte Ds5
	.byte W01
	.byte Ds4
	.byte W02
	.byte Fn4
	.byte W01
	.byte Dn5
	.byte W02
	.byte En4
	.byte W30
	.byte W24
	.byte Ds5
	.byte W01
	.byte N01
	.byte W02
	.byte Ds4
	.byte W01
	.byte Gn4
	.byte W02
	.byte Dn4
	.byte W01
	.byte Dn5
	.byte W02
	.byte Fs4
	.byte W01
	.byte Bn5
	.byte W02
	.byte Cs5
	.byte W01
	.byte Dn5
	.byte W02
	.byte Cn5
	.byte W01
	.byte Cn6
	.byte W02
	.byte Gn4
	.byte W01
	.byte Cs5
	.byte W02
	.byte Ds5
	.byte W01
	.byte Gs4
	.byte W02
	.byte Bn4
	.byte W01
	.byte Bn3
	.byte W02
	.byte Ds4
	.byte W01
	.byte As3
	.byte W02
	.byte Gs4
	.byte W01
	.byte Fn4
	.byte N01
	.byte Gn4
	.byte W02
	.byte Dn5
	.byte W01
	.byte Fs4
	.byte W02
	.byte Fn5
	.byte W01
	.byte Gs4
	.byte W32
	.byte W03
	.byte W12
	.byte Ds5
	.byte W01
	.byte Cs4
	.byte W02
	.byte Gn4
	.byte W01
	.byte Cn4
	.byte W02
	.byte Fn5
	.byte W01
	.byte Gs3
	.byte W02
	.byte As4
	.byte W01
	.byte Cs4
	.byte W02
	.byte Ds5
	.byte W01
	.byte Ds4
	.byte W02
	.byte Gs4
	.byte W01
	.byte Dn4
	.byte W02
	.byte As4
	.byte W01
	.byte Bn3
	.byte W02
	.byte Dn5
	.byte W36
	.byte W03
	.byte GOTO
		.word track_12_lbl_22ebc8

	.byte FINE

track_12_2:
	.byte KEYSH, 0
track_12_lbl_22ecd8:
	.byte VOICE, 22
	.byte VOL, 15
	.byte PAN, c_v
	.byte PRIO, 28
	.byte W96
	.byte W48
	.byte N06
	.byte Fs5, En0
	.byte W12
	.byte N06
	.byte W12
	.byte N06
	.byte W12
	.byte N06
	.byte W12
	.byte N06
	.byte W12
	.byte N06
	.byte W84
	.byte W12
	.byte N06
	.byte W12
	.byte N06
	.byte W12
	.byte N06
	.byte W12
	.byte N06
	.byte W12
	.byte N06
	.byte W12
	.byte N06
	.byte W24
	.byte W72
	.byte GOTO
		.word track_12_lbl_22ecd8

	.byte FINE

track_12_3:
	.byte KEYSH, 0
track_12_lbl_22ed06:
	.byte VOICE, 14
	.byte VOL, 62
	.byte PAN, c_v-17
	.byte PRIO, 120
	.byte N96
	.byte Dn3, En6
	.byte W96
	.byte W36
	.byte N96
	.byte W60
	.byte W96
	.byte W12
	.byte TIE
	.byte W84
	.byte W36
	.byte EOT
	.byte W36
	.byte GOTO
		.word track_12_lbl_22ed06

	.byte FINE

track_12_4:
	.byte KEYSH, 0
track_12_lbl_22ed24:
	.byte VOICE, 19
	.byte VOL, 37
	.byte PAN, c_v+15
	.byte PRIO, 119
	.byte N96
	.byte AsM1, Gs5
	.byte W96
	.byte W36
	.byte N96
	.byte W60
	.byte W96
	.byte W12
	.byte TIE
	.byte W84
	.byte W36
	.byte EOT
	.byte W36
	.byte GOTO
		.word track_12_lbl_22ed24

	.byte FINE

track_12_5:
	.byte KEYSH, 0
track_12_lbl_22ed42:
	.byte VOICE, 0
	.byte VOL, 62
	.byte PAN, c_v
	.byte PRIO, 118
	.byte TIE
	.byte Cn2, Cn8
	.byte W96
	.byte W96
	.byte W96
	.byte W96
	.byte W72
	.byte EOT
	.byte GOTO
		.word track_12_lbl_22ed42

	.byte FINE

.align 2

track_12:
	.byte 6
	.byte 0
	.byte 130
	.byte 0
	.word voice_group0
	.word track_12_0
	.word track_12_1
	.word track_12_2
	.word track_12_3
	.word track_12_4
	.word track_12_5

.align 2
