.include "audio/m_play_def.s"

.align 2

.section .rodata
.global track_276

track_276_0:
	.byte KEYSH, 0
	.byte TEMPO, 75
	.byte VOICE, 5
	.byte VOL, 28
	.byte PAN, c_v
	.byte BENDR, 12
	.byte BEND, c_v-63
	.byte N48
	.byte En2, Cn3, DnM2
	.byte W01
	.byte VOL, 31
	.byte BEND, c_v-60
	.byte W01
	.byte VOL, 35
	.byte BEND, c_v-58
	.byte W01
	.byte VOL, 38
	.byte BEND, c_v-55
	.byte W01
	.byte VOL, 42
	.byte BEND, c_v-53
	.byte W01
	.byte DnM1
	.byte W01
	.byte FnM1
	.byte W01
	.byte GnM1
	.byte W01
	.byte AsM1
	.byte W01
	.byte Cs0
	.byte W01
	.byte Ds0
	.byte W01
	.byte Fs0
	.byte W01
	.byte Gs0
	.byte W01
	.byte Bn0
	.byte W01
	.byte Dn1
	.byte W01
	.byte En1
	.byte W01
	.byte Gn1
	.byte W01
	.byte As1
	.byte W01
	.byte Cn2
	.byte W01
	.byte Ds2
	.byte W01
	.byte Fn2
	.byte W01
	.byte Gs2
	.byte W01
	.byte Bn2
	.byte W01
	.byte Cs3
	.byte W01
	.byte En3
	.byte W01
	.byte Gn3
	.byte W01
	.byte An3
	.byte W01
	.byte Cn4
	.byte W01
	.byte Dn4
	.byte W01
	.byte Fn4
	.byte W01
	.byte Gs4
	.byte W01
	.byte As4
	.byte W01
	.byte Cs5
	.byte W01
	.byte En5
	.byte W01
	.byte Fs5
	.byte W01
	.byte An5
	.byte W01
	.byte Bn5
	.byte W01
	.byte Dn6
	.byte W01
	.byte Fn6
	.byte W01
	.byte VOL, 33
	.byte BEND, c_v+39
	.byte W01
	.byte VOL, 24
	.byte BEND, c_v+42
	.byte W01
	.byte VOL, 19
	.byte BEND, c_v+45
	.byte W01
	.byte VOL, 14
	.byte BEND, c_v+47
	.byte W01
	.byte VOL, 12
	.byte BEND, c_v+50
	.byte W01
	.byte VOL, 9
	.byte BEND, c_v+52
	.byte W01
	.byte VOL, 7
	.byte BEND, c_v+55
	.byte W01
	.byte VOL, 4
	.byte BEND, c_v+58
	.byte W01
	.byte VOL, 3
	.byte BEND, c_v+60
	.byte W01
	.byte VOL, 1
	.byte BEND, c_v+63
	.byte W01
	.byte VOL, 0
	.byte W01

	.byte FINE

track_276_1:
	.byte KEYSH, 0
	.byte VOICE, 0
	.byte VOL, 0
	.byte PAN, c_v
	.byte W10
	.byte MOD, 5
	.byte LFOS, 127
	.byte W05
	.byte VOL, 0
	.byte TIE
	.byte An2, En2
	.byte W01
	.byte VOL, 2
	.byte W01
	.byte DsM2
	.byte W01
	.byte FnM2
	.byte W01
	.byte GnM2
	.byte W01
	.byte AsM2
	.byte W01
	.byte CnM1
	.byte W01
	.byte EnM1
	.byte W01
	.byte GnM1
	.byte W01
	.byte BnM1
	.byte W01
	.byte Ds0
	.byte W01
	.byte An0
	.byte W01
	.byte Ds1
	.byte W01
	.byte As1
	.byte W01
	.byte Gs2
	.byte W66
	.byte W01
	.byte W76
	.byte Ds1
	.byte W02
	.byte Ds0
	.byte W02
	.byte GnM1
	.byte W02
	.byte CsM1
	.byte W02
	.byte AnM2
	.byte W02
	.byte EnM2
	.byte W02
	.byte DnM2
	.byte W01
	.byte CnM2
	.byte W01
	.byte EOT

	.byte FINE

track_276_2:
	.byte KEYSH, 0
	.byte VOICE, 4
	.byte VOL, 49
	.byte PAN, c_v
	.byte N12
	.byte Cn2, Cn3
	.byte W20
	.byte VOICE, 7
	.byte VOL, 42
	.byte N04
	.byte Cn4
	.byte W04
	.byte Cn4, GsM1
	.byte W14
	.byte VOICE, 6
	.byte VOL, 35
	.byte TIE
	.byte Gn3, Gs2
	.byte W03
	.byte VOL, 34
	.byte W03
	.byte Cn1
	.byte W03
	.byte Dn1
	.byte W03
	.byte En1
	.byte W03
	.byte Fn1
	.byte W06
	.byte Fs1
	.byte W03
	.byte Fn1
	.byte W06
	.byte En1
	.byte W03
	.byte Dn1
	.byte W03
	.byte Cn1
	.byte W03
	.byte An0
	.byte W03
	.byte Gn0
	.byte W03
	.byte Fn0
	.byte W03
	.byte Dn0
	.byte W03
	.byte Cn0
	.byte W03
	.byte BnM1
	.byte W03
	.byte AnM1
	.byte W01
	.byte W11
	.byte BnM1
	.byte W03
	.byte Cn0
	.byte W03
	.byte Dn0
	.byte W03
	.byte En0
	.byte W03
	.byte Fs0
	.byte W03
	.byte An0
	.byte W03
	.byte Cn1
	.byte W03
	.byte Cs1
	.byte W03
	.byte Dn1
	.byte W03
	.byte Fn1
	.byte W03
	.byte Fn1
	.byte W03
	.byte Fs1
	.byte W06
	.byte Fn1
	.byte W03
	.byte Fn1
	.byte W03
	.byte Dn1
	.byte W03
	.byte Cs1
	.byte W03
	.byte As0
	.byte W03
	.byte An0
	.byte W03
	.byte Fs0
	.byte W03
	.byte En0
	.byte W02
	.byte AnM1
	.byte W02
	.byte EnM1
	.byte W02
	.byte CnM1
	.byte W02
	.byte AnM2
	.byte W02
	.byte FsM2
	.byte W02
	.byte EnM2
	.byte W02
	.byte DnM2
	.byte W02
	.byte CsM2
	.byte W02
	.byte CnM2
	.byte W01
	.byte EOT

	.byte FINE

.align 2

track_276:
	.byte 3
	.byte 0
	.byte 251
	.byte 0
	.word voice_group4
	.word track_276_0
	.word track_276_1
	.word track_276_2

.align 2
