.align 2

.global track_570

track_570_0:
	.byte KEYSH, 0
	.byte TEMPO, 75
	.byte W96
	.byte W52
	.byte W01
	.byte BEND, c_v-49
	.byte W01
	.byte VOICE, 21
	.byte VOL, 40
	.byte PAN, c_v
	.byte BENDR, 12
	.byte N96
	.byte Cn3, Gs4
	.byte W01
	.byte BEND, c_v-47
	.byte W02
	.byte GsM1
	.byte W02
	.byte AsM1
	.byte W02
	.byte Cn0
	.byte W02
	.byte Dn0
	.byte W01
	.byte VOL, 120
	.byte W01
	.byte BEND, c_v-35
	.byte W02
	.byte Gn0
	.byte W02
	.byte An0
	.byte W02
	.byte Cn1
	.byte W02
	.byte Dn1
	.byte W02
	.byte En1
	.byte W02
	.byte Fs1
	.byte W02
	.byte An1
	.byte W02
	.byte Bn1
	.byte W02
	.byte Cs2
	.byte W02
	.byte En2
	.byte W02
	.byte Fs2
	.byte W02
	.byte Gs2
	.byte W02
	.byte As2
	.byte W02
	.byte Cs3
	.byte W02
	.byte Dn3
	.byte W01
	.byte W01
	.byte Fs3
	.byte W02
	.byte An3
	.byte W02
	.byte Cs4
	.byte W02
	.byte En4
	.byte W02
	.byte Gs4
	.byte W02
	.byte Cn5
	.byte W02
	.byte Ds5
	.byte W02
	.byte Gn5
	.byte W02
	.byte As5
	.byte W02
	.byte Dn6
	.byte W02
	.byte Fs6
	.byte W02
	.byte An6
	.byte W02
	.byte Cs7
	.byte W02
	.byte En7
	.byte W02
	.byte Gs7
	.byte W02
	.byte Cn8
	.byte W02
	.byte Ds8
	.byte W02
	.byte Gn8
	.byte W60
	.byte W01

	.byte FINE

track_570_1:
	.byte KEYSH, 0
	.byte W96
	.byte W54
	.byte VOICE, 2
	.byte VOL, 0
	.byte PAN, c_v
	.byte BENDR, 48
	.byte BEND, c_v-63
	.byte TIE
	.byte Cn3, Cn4
	.byte W01
	.byte VOL, 3
	.byte W01
	.byte GnM2
	.byte W01
	.byte BnM2
	.byte W01
	.byte FnM1
	.byte BEND, c_v-62
	.byte W01
	.byte VOL, 23
	.byte W01
	.byte Gn0
	.byte BEND, c_v-61
	.byte W01
	.byte VOL, 41
	.byte W01
	.byte Gn2
	.byte BEND, c_v-60
	.byte W01
	.byte VOL, 73
	.byte W01
	.byte En6
	.byte BEND, c_v-59
	.byte W02
	.byte FsM2
	.byte W02
	.byte GnM2
	.byte W02
	.byte AnM2
	.byte W02
	.byte AsM2
	.byte W02
	.byte BnM2
	.byte W02
	.byte CsM1
	.byte W02
	.byte DnM1
	.byte W02
	.byte DsM1
	.byte W02
	.byte FnM1
	.byte W02
	.byte GnM1
	.byte W02
	.byte GsM1
	.byte W02
	.byte AnM1
	.byte W02
	.byte BnM1
	.byte W02
	.byte Cs0
	.byte W02
	.byte Ds0
	.byte W02
	.byte En0
	.byte W02
	.byte Fs0
	.byte W02
	.byte Gs0
	.byte W02
	.byte As0
	.byte W02
	.byte Cn1
	.byte W02
	.byte Dn1
	.byte W02
	.byte Fn1
	.byte W02
	.byte Gn1
	.byte W02
	.byte An1
	.byte W02
	.byte Bn1
	.byte W02
	.byte Dn2
	.byte W02
	.byte Fn2
	.byte W02
	.byte Gn2
	.byte W02
	.byte Bn2
	.byte W02
	.byte Dn3
	.byte W02
	.byte Fn3
	.byte W02
	.byte An3
	.byte W02
	.byte Cs4
	.byte W02
	.byte En4
	.byte W02
	.byte Gs4
	.byte W02
	.byte Cn5
	.byte W02
	.byte En5
	.byte W02
	.byte Gs5
	.byte W02
	.byte Cs6
	.byte W02
	.byte Fn6
	.byte W02
	.byte Bn6
	.byte W02
	.byte Ds7
	.byte W02
	.byte An7
	.byte W02
	.byte Dn8
	.byte W02
	.byte VOL, 100
	.byte BEND, c_v+63
	.byte W02
	.byte VOL, 87
	.byte W02
	.byte Ds4
	.byte W02
	.byte Fn3
	.byte W02
	.byte As2
	.byte W02
	.byte Ds2
	.byte W02
	.byte Gs1
	.byte W02
	.byte Dn1
	.byte W02
	.byte An0
	.byte W02
	.byte Fn0
	.byte W02
	.byte Cs0
	.byte W02
	.byte AnM1
	.byte W02
	.byte FnM1
	.byte W02
	.byte DsM1
	.byte W02
	.byte BnM2
	.byte W02
	.byte GsM2
	.byte W02
	.byte FsM2
	.byte W02
	.byte DsM2
	.byte W02
	.byte CnM2
	.byte W02
	.byte EOT

	.byte FINE

track_570_2:
	.byte KEYSH, 0
	.byte W96
	.byte W54
	.byte VOICE, 13
	.byte VOL, 0
	.byte PAN, c_v
	.byte BENDR, 12
	.byte VOL, 0
	.byte BEND, c_v-63
	.byte TIE
	.byte Cn3, Cn4
	.byte W02
	.byte VOL, 3
	.byte W02
	.byte GnM2
	.byte BEND, c_v-61
	.byte W02
	.byte VOL, 10
	.byte W02
	.byte DnM1
	.byte BEND, c_v-59
	.byte W02
	.byte VOL, 19
	.byte BEND, c_v-58
	.byte W02
	.byte VOL, 23
	.byte BEND, c_v-57
	.byte W02
	.byte VOL, 29
	.byte BEND, c_v-56
	.byte W02
	.byte VOL, 37
	.byte BEND, c_v-54
	.byte W02
	.byte VOL, 44
	.byte BEND, c_v-53
	.byte W02
	.byte VOL, 55
	.byte BEND, c_v-51
	.byte W02
	.byte VOL, 67
	.byte W02
	.byte Bn4
	.byte BEND, c_v-49
	.byte W02
	.byte VOL, 101
	.byte BEND, c_v-47
	.byte W02
	.byte VOL, 127
	.byte BEND, c_v-46
	.byte W02
	.byte GsM1
	.byte W02
	.byte AsM1
	.byte W02
	.byte Cn0
	.byte W02
	.byte Cs0
	.byte W02
	.byte Ds0
	.byte W02
	.byte Fn0
	.byte W02
	.byte Gn0
	.byte W02
	.byte An0
	.byte W02
	.byte Bn0
	.byte W02
	.byte Cs1
	.byte W02
	.byte Ds1
	.byte W02
	.byte Fn1
	.byte W02
	.byte Gn1
	.byte W02
	.byte Bn1
	.byte W02
	.byte Cs2
	.byte W02
	.byte Ds2
	.byte W02
	.byte Fn2
	.byte W02
	.byte An2
	.byte W02
	.byte Bn2
	.byte W02
	.byte Dn3
	.byte W02
	.byte Fs3
	.byte W02
	.byte An3
	.byte W02
	.byte Cs4
	.byte W02
	.byte En4
	.byte W02
	.byte Gn4
	.byte W02
	.byte Bn4
	.byte W02
	.byte Ds5
	.byte W02
	.byte Gn5
	.byte W02
	.byte Bn5
	.byte W02
	.byte Ds6
	.byte W02
	.byte Gn6
	.byte W02
	.byte Cn7
	.byte W02
	.byte Fn7
	.byte W02
	.byte An7
	.byte W02
	.byte Dn8
	.byte W02
	.byte VOL, 127
	.byte BEND, c_v+63
	.byte W02
	.byte VOL, 107
	.byte W02
	.byte Fn5
	.byte W02
	.byte Fn4
	.byte W02
	.byte Gn3
	.byte W02
	.byte An2
	.byte W02
	.byte Cs2
	.byte W02
	.byte Fs1
	.byte W02
	.byte Cs1
	.byte W02
	.byte Gn0
	.byte W02
	.byte Ds0
	.byte W02
	.byte BnM1
	.byte W02
	.byte GnM1
	.byte W02
	.byte DsM1
	.byte W02
	.byte CnM1
	.byte W02
	.byte AnM2
	.byte W02
	.byte FsM2
	.byte W02
	.byte EnM2
	.byte W02
	.byte CsM2
	.byte W02
	.byte EOT

	.byte FINE

track_570_3:
	.byte KEYSH, 0
	.byte W96
	.byte W54
	.byte VOICE, 6
	.byte VOL, 80
	.byte PAN, c_v
	.byte N18
	.byte Cn3, Gs4
	.byte W42
	.byte W96

	.byte FINE

track_570_4:
	.byte KEYSH, 0
	.byte VOICE, 18
	.byte MOD, 20
	.byte VOL, 80
	.byte PAN, c_v
	.byte BENDR, 6
	.byte LFOS, 10
	.byte MODT, mod_tre
	.byte BEND, c_v+32
	.byte TIE
	.byte An2, En6
	.byte W03
	.byte BEND, c_v+33
	.byte W03
	.byte En6
	.byte W03
	.byte Fs6
	.byte W03
	.byte Gn6
	.byte W03
	.byte Gs6
	.byte W09
	.byte Gn6
	.byte W03
	.byte Fn6
	.byte W03
	.byte Ds6
	.byte W03
	.byte Cs6
	.byte W03
	.byte Bn5
	.byte W03
	.byte An5
	.byte W03
	.byte Gn5
	.byte W15
	.byte An5
	.byte W03
	.byte Cn6
	.byte W03
	.byte Fn6
	.byte W03
	.byte As6
	.byte W03
	.byte Cs7
	.byte W03
	.byte En7
	.byte W03
	.byte Fn7
	.byte W06
	.byte En7
	.byte W03
	.byte Ds7
	.byte W03
	.byte Dn7
	.byte W03
	.byte Cs7
	.byte W03
	.byte Bn6
	.byte W03
	.byte Gn6
	.byte W03
	.byte Fn6
	.byte W09
	.byte Fs6
	.byte W03
	.byte An6
	.byte W03
	.byte Bn6
	.byte W03
	.byte Cs7
	.byte W03
	.byte Fn7
	.byte W03
	.byte An7
	.byte W03
	.byte Bn7
	.byte W03
	.byte Cs8
	.byte W06
	.byte Ds8
	.byte W03
	.byte En8
	.byte W03
	.byte Fn8
	.byte W06
	.byte Fs8
	.byte W03
	.byte EOT
	.byte BEND, c_v+63
	.byte W42
	.byte W96

	.byte FINE

track_570_5:
	.byte KEYSH, 0
	.byte VOICE, 12
	.byte MOD, 20
	.byte VOL, 120
	.byte PAN, c_v
	.byte BENDR, 4
	.byte LFOS, 10
	.byte MODT, mod_tre
	.byte TIE
	.byte Cn3, Gs4
	.byte W01
	.byte BEND, c_v-28
	.byte W03
	.byte Ds1
	.byte W03
	.byte Fn1
	.byte W03
	.byte Gn1
	.byte W06
	.byte An1
	.byte W03
	.byte Bn1
	.byte W06
	.byte Cs2
	.byte W06
	.byte Bn1
	.byte W03
	.byte As1
	.byte W03
	.byte An1
	.byte W03
	.byte Gn1
	.byte W03
	.byte Fn1
	.byte W03
	.byte Ds1
	.byte W06
	.byte Dn1
	.byte W03
	.byte Ds1
	.byte W03
	.byte Fn1
	.byte W03
	.byte Gn1
	.byte W03
	.byte Gs1
	.byte W03
	.byte As1
	.byte W03
	.byte Cs2
	.byte W03
	.byte Fn2
	.byte W03
	.byte Gn2
	.byte W03
	.byte An2
	.byte W03
	.byte Bn2
	.byte W12
	.byte An2
	.byte W02
	.byte W04
	.byte Gn2
	.byte W03
	.byte Fs2
	.byte W03
	.byte Fn2
	.byte W03
	.byte Ds2
	.byte W03
	.byte Cs2
	.byte W09
	.byte Dn2
	.byte W03
	.byte Ds2
	.byte W03
	.byte En2
	.byte W03
	.byte Fn2
	.byte W03
	.byte Fs2
	.byte W03
	.byte An2
	.byte W03
	.byte Bn2
	.byte W03
	.byte Ds3
	.byte W05
	.byte En3
	.byte W03
	.byte EOT
	.byte W42
	.byte W96

	.byte FINE

.align 2

track_570:
	.byte 6
	.byte 0
	.byte 229
	.byte 0
	.word voice_group17
	.word track_570_0
	.word track_570_1
	.word track_570_2
	.word track_570_3
	.word track_570_4
	.word track_570_5

.align 2
