.align 2

.global track_562

track_562_0:
	.byte KEYSH, 0
	.byte TEMPO, 75
	.byte VOICE, 12
	.byte VOL, 0
	.byte PAN, c_v
	.byte BENDR, 6
	.byte BEND, c_v+63
	.byte TIE
	.byte Cn2, Gn8
	.byte W03
	.byte VOL, 2
	.byte BEND, c_v+63
	.byte W03
	.byte VOL, 4
	.byte BEND, c_v+62
	.byte W03
	.byte VOL, 6
	.byte BEND, c_v+62
	.byte W03
	.byte VOL, 10
	.byte BEND, c_v+62
	.byte W03
	.byte VOL, 13
	.byte BEND, c_v+61
	.byte W03
	.byte VOL, 17
	.byte BEND, c_v+61
	.byte W03
	.byte VOL, 20
	.byte BEND, c_v+61
	.byte W03
	.byte VOL, 25
	.byte BEND, c_v+60
	.byte W03
	.byte VOL, 30
	.byte BEND, c_v+60
	.byte W03
	.byte VOL, 35
	.byte BEND, c_v+60
	.byte W03
	.byte VOL, 42
	.byte BEND, c_v+59
	.byte W03
	.byte VOL, 50
	.byte BEND, c_v+59
	.byte W03
	.byte VOL, 57
	.byte BEND, c_v+58
	.byte W03
	.byte VOL, 68
	.byte BEND, c_v+58
	.byte W03
	.byte VOL, 80
	.byte BEND, c_v+58
	.byte W03
	.byte VOL, 94
	.byte BEND, c_v+57
	.byte W03
	.byte VOL, 101
	.byte BEND, c_v+57
	.byte W03
	.byte VOL, 106
	.byte BEND, c_v+57
	.byte W03
	.byte VOL, 111
	.byte BEND, c_v+56
	.byte W03
	.byte VOL, 114
	.byte BEND, c_v+56
	.byte W03
	.byte VOL, 116
	.byte BEND, c_v+56
	.byte W03
	.byte VOL, 118
	.byte BEND, c_v+55
	.byte W03
	.byte VOL, 120
	.byte W07
	.byte BEND, c_v+53
	.byte W06
	.byte Gn7
	.byte W06
	.byte Fn7
	.byte W06
	.byte Ds7
	.byte W02
	.byte W01
	.byte Dn7
	.byte W03
	.byte Cs7
	.byte W03
	.byte Bn6
	.byte W06
	.byte An6
	.byte W03
	.byte Gs6
	.byte W03
	.byte Gn6
	.byte W03
	.byte Fn6
	.byte W03
	.byte Ds6
	.byte W03
	.byte Dn6
	.byte W03
	.byte Cs6
	.byte W03
	.byte Bn5
	.byte W03
	.byte An5
	.byte W03
	.byte Gn5
	.byte W03
	.byte Fs5
	.byte W03
	.byte En5
	.byte W03
	.byte Dn5
	.byte W03
	.byte Cs5
	.byte W03
	.byte Bn4
	.byte W03
	.byte An4
	.byte W03
	.byte Fs4
	.byte W03
	.byte En4
	.byte W03
	.byte Cs4
	.byte W03
	.byte Bn3
	.byte W03
	.byte An3
	.byte W03
	.byte Gn3
	.byte W03
	.byte En3
	.byte W03
	.byte Ds3
	.byte W06
	.byte Cs3
	.byte W06
	.byte Bn2
	.byte W02
	.byte W04
	.byte An2
	.byte W06
	.byte Gn2
	.byte W06
	.byte Fn2
	.byte W03
	.byte En2
	.byte W03
	.byte Ds2
	.byte W03
	.byte Cs2
	.byte W06
	.byte Bn1
	.byte W03
	.byte An1
	.byte W03
	.byte Gs1
	.byte W03
	.byte Gn1
	.byte W03
	.byte Fn1
	.byte W03
	.byte Ds1
	.byte W03
	.byte Cs1
	.byte W03
	.byte Cn1
	.byte W03
	.byte As0
	.byte W03
	.byte An0
	.byte W03
	.byte Fs0
	.byte W03
	.byte En0
	.byte W03
	.byte Dn0
	.byte W03
	.byte BnM1
	.byte W02
	.byte VOL, 120
	.byte W01
	.byte BEND, c_v-43
	.byte W02
	.byte VOL, 93
	.byte W01
	.byte BEND, c_v-45
	.byte W02
	.byte VOL, 74
	.byte W01
	.byte BEND, c_v-48
	.byte W02
	.byte VOL, 59
	.byte W01
	.byte BEND, c_v-51
	.byte W02
	.byte VOL, 48
	.byte W01
	.byte BEND, c_v-53
	.byte W02
	.byte VOL, 38
	.byte W01
	.byte BEND, c_v-56
	.byte W02
	.byte VOL, 31
	.byte W01
	.byte BEND, c_v-59
	.byte W02
	.byte VOL, 24
	.byte W01
	.byte BEND, c_v-62
	.byte W02
	.byte VOL, 18
	.byte BEND, c_v-63
	.byte W01
	.byte EOT
	.byte VOICE, 15
	.byte VOL, 37
	.byte PAN, c_v
	.byte BENDR, 8
	.byte BEND, c_v
	.byte N60
	.byte Cn1, Cn4, CsM2
	.byte W03
	.byte VOL, 43
	.byte BEND, c_v-1
	.byte W03
	.byte VOL, 51
	.byte BEND, c_v-2
	.byte W03
	.byte VOL, 63
	.byte BEND, c_v-3
	.byte W03
	.byte VOL, 84
	.byte BEND, c_v-5
	.byte W03
	.byte As2
	.byte W03
	.byte An2
	.byte W03
	.byte Gs2
	.byte W03
	.byte Gn2
	.byte W03
	.byte Fs2
	.byte W03
	.byte Fn2
	.byte W03
	.byte Ds2
	.byte W03
	.byte VOL, 85
	.byte BEND, c_v-14
	.byte W03
	.byte VOL, 59
	.byte BEND, c_v-15
	.byte W03
	.byte VOL, 42
	.byte BEND, c_v-16
	.byte W03
	.byte VOL, 31
	.byte BEND, c_v-17
	.byte W03
	.byte VOL, 21
	.byte BEND, c_v-18
	.byte W03
	.byte VOL, 14
	.byte BEND, c_v-20
	.byte W03
	.byte VOL, 8
	.byte BEND, c_v-21
	.byte W03
	.byte VOL, 4
	.byte BEND, c_v-22
	.byte W03
	.byte VOL, 0
	.byte BEND, c_v-23
	.byte W01

	.byte FINE

track_562_1:
	.byte KEYSH, 0
	.byte VOICE, 13
	.byte VOL, 0
	.byte PAN, c_v
	.byte BENDR, 4
	.byte BEND, c_v+63
	.byte TIE
	.byte Cn3, Gn8
	.byte W03
	.byte VOL, 1
	.byte BEND, c_v+47
	.byte W03
	.byte VOL, 4
	.byte BEND, c_v+35
	.byte W03
	.byte VOL, 6
	.byte BEND, c_v+29
	.byte W03
	.byte VOL, 8
	.byte BEND, c_v+23
	.byte W03
	.byte VOL, 10
	.byte BEND, c_v+19
	.byte W03
	.byte VOL, 13
	.byte BEND, c_v+17
	.byte W03
	.byte VOL, 16
	.byte BEND, c_v+14
	.byte W03
	.byte VOL, 18
	.byte BEND, c_v+13
	.byte W03
	.byte VOL, 21
	.byte BEND, c_v+11
	.byte W03
	.byte VOL, 25
	.byte BEND, c_v+9
	.byte W03
	.byte VOL, 29
	.byte W03
	.byte An0
	.byte BEND, c_v+7
	.byte W03
	.byte VOL, 36
	.byte W02
	.byte BEND, c_v+3
	.byte W01
	.byte VOL, 40
	.byte W03
	.byte Gs1
	.byte W02
	.byte BEND, c_v+2
	.byte W01
	.byte VOL, 50
	.byte W02
	.byte BEND, c_v+1
	.byte W01
	.byte VOL, 54
	.byte W03
	.byte Cs3
	.byte W02
	.byte BEND, c_v-1
	.byte W01
	.byte VOL, 67
	.byte W02
	.byte BEND, c_v-2
	.byte W01
	.byte VOL, 74
	.byte W02
	.byte BEND, c_v-3
	.byte W01
	.byte VOL, 82
	.byte W03
	.byte Ds5
	.byte W02
	.byte BEND, c_v-5
	.byte W01
	.byte VOL, 93
	.byte W01
	.byte BENDR, 8
	.byte W01
	.byte BEND, c_v-7
	.byte W01
	.byte VOL, 97
	.byte W02
	.byte BEND, c_v-9
	.byte W01
	.byte VOL, 101
	.byte W02
	.byte BEND, c_v-11
	.byte W01
	.byte VOL, 104
	.byte W02
	.byte BEND, c_v-12
	.byte W01
	.byte VOL, 108
	.byte W02
	.byte BEND, c_v-13
	.byte W01
	.byte VOL, 110
	.byte W02
	.byte BEND, c_v-15
	.byte W01
	.byte VOL, 114
	.byte W01
	.byte BEND, c_v-15
	.byte W02
	.byte VOL, 116
	.byte W01
	.byte BEND, c_v-17
	.byte W02
	.byte VOL, 118
	.byte W01
	.byte BEND, c_v-19
	.byte W02
	.byte VOL, 120
	.byte W01
	.byte BEND, c_v-21
	.byte W03
	.byte Fn1
	.byte W03
	.byte Ds1
	.byte W03
	.byte Dn1
	.byte W03
	.byte Cs1
	.byte W03
	.byte Bn0
	.byte W03
	.byte As0
	.byte W03
	.byte An0
	.byte W03
	.byte Gn0
	.byte W03
	.byte Fs0
	.byte W03
	.byte Fn0
	.byte W03
	.byte En0
	.byte W03
	.byte Ds0
	.byte W03
	.byte Dn0
	.byte W03
	.byte Cs0
	.byte W03
	.byte Cn0
	.byte W03
	.byte BnM1
	.byte W06
	.byte AnM1
	.byte W06
	.byte GsM1
	.byte W03
	.byte GnM1
	.byte W06
	.byte BENDR, 10
	.byte BEND, c_v-46
	.byte W03
	.byte FnM1
	.byte W06
	.byte EnM1
	.byte W03
	.byte DsM1
	.byte W06
	.byte DnM1
	.byte W03
	.byte CsM1
	.byte W05
	.byte W04
	.byte CnM1
	.byte W03
	.byte BnM2
	.byte W12
	.byte AsM2
	.byte W03
	.byte AnM2
	.byte W09
	.byte GsM2
	.byte W03
	.byte GnM2
	.byte W09
	.byte FsM2
	.byte W03
	.byte FnM2
	.byte W15
	.byte EnM2
	.byte W06
	.byte DsM2
	.byte W05
	.byte VOL, 119
	.byte W03
	.byte Cn5
	.byte W01
	.byte BEND, c_v-62
	.byte W02
	.byte VOL, 61
	.byte W03
	.byte Gs1
	.byte W01
	.byte BEND, c_v-63
	.byte W02
	.byte VOL, 31
	.byte W03
	.byte AnM1
	.byte W03
	.byte DnM1
	.byte W03
	.byte FsM2
	.byte W03
	.byte CnM2
	.byte W01
	.byte EOT
	.byte W02
	.byte VOICE, 15
	.byte VOL, 37
	.byte PAN, c_v
	.byte BENDR, 8
	.byte BEND, c_v
	.byte N60
	.byte Gs0, Cn4, CsM2
	.byte W03
	.byte VOL, 43
	.byte BEND, c_v-1
	.byte W03
	.byte VOL, 51
	.byte BEND, c_v-2
	.byte W03
	.byte VOL, 63
	.byte BEND, c_v-3
	.byte W03
	.byte VOL, 84
	.byte BEND, c_v-5
	.byte W03
	.byte As2
	.byte W03
	.byte An2
	.byte W03
	.byte Gs2
	.byte W03
	.byte Gn2
	.byte W03
	.byte Fs2
	.byte W03
	.byte Fn2
	.byte W03
	.byte Ds2
	.byte W03
	.byte VOL, 85
	.byte BEND, c_v-14
	.byte W03
	.byte VOL, 59
	.byte BEND, c_v-15
	.byte W03
	.byte VOL, 42
	.byte BEND, c_v-16
	.byte W03
	.byte VOL, 31
	.byte BEND, c_v-17
	.byte W03
	.byte VOL, 21
	.byte BEND, c_v-18
	.byte W03
	.byte VOL, 14
	.byte BEND, c_v-20
	.byte W03
	.byte VOL, 8
	.byte BEND, c_v-21
	.byte W03
	.byte VOL, 4
	.byte BEND, c_v-22
	.byte W03
	.byte VOL, 0
	.byte BEND, c_v-23
	.byte W01

	.byte FINE

track_562_2:
	.byte KEYSH, 0
	.byte W68
	.byte W02
	.byte VOICE, 13
	.byte MOD, 6
	.byte LFOS, 120
	.byte VOL, 94
	.byte PAN, c_v
	.byte BENDR, 12
	.byte BEND, c_v+63
	.byte N72
	.byte An1, En7, DsM2
	.byte W24
	.byte W02
	.byte VOL, 94
	.byte W03
	.byte As4
	.byte W03
	.byte As3
	.byte W03
	.byte Cs3
	.byte W03
	.byte Fn2
	.byte W03
	.byte As1
	.byte W03
	.byte En1
	.byte W03
	.byte As0
	.byte W03
	.byte En0
	.byte W03
	.byte BnM1
	.byte W03
	.byte GnM1
	.byte W03
	.byte EnM1
	.byte W03
	.byte CnM1
	.byte W03
	.byte GsM2
	.byte W03
	.byte FnM2
	.byte W03
	.byte DnM2
	.byte W03
	.byte CnM2
	.byte W22
	.byte As5
	.byte N36
	.byte W08
	.byte VOL, 63
	.byte W03
	.byte Bn1
	.byte W03
	.byte As0
	.byte W03
	.byte Cs0
	.byte W03
	.byte FsM1
	.byte W03
	.byte DnM1
	.byte W03
	.byte GsM2
	.byte W03
	.byte EnM2
	.byte W03
	.byte CsM2
	.byte W03
	.byte CnM2
	.byte W80
	.byte W03
	.byte VOICE, 14
	.byte VOL, 45
	.byte BEND, c_v
	.byte N10
	.byte An2, En6
	.byte W04
	.byte W06
	.byte An2, Cn3
	.byte W10
	.byte N21
	.byte An2, Gs0
	.byte W21

	.byte FINE

.align 2

track_562:
	.byte 3
	.byte 0
	.byte 251
	.byte 0
	.word voice_group17
	.word track_562_0
	.word track_562_1
	.word track_562_2

.align 2
