.align 2

.global track_540

track_540_0:
	.byte KEYSH, 0
	.byte TEMPO, 75
	.byte VOICE, 29
	.byte VOL, 0
	.byte PAN, c_v-20
	.byte N48
	.byte Cn2, Cn3
	.byte W02
	.byte VOL, 6
	.byte W02
	.byte DsM1
	.byte W02
	.byte Cs0
	.byte W02
	.byte Dn1
	.byte W02
	.byte An2
	.byte W01
	.byte Cn4
	.byte W02
	.byte Fn5
	.byte W02
	.byte Bn5
	.byte W04
	.byte Gn5
	.byte W02
	.byte Cs5
	.byte W02
	.byte Fn4
	.byte W03
	.byte Bn2
	.byte W02
	.byte Cn2
	.byte W02
	.byte Ds1
	.byte W02
	.byte Gs0
	.byte W02
	.byte Cs0
	.byte W02
	.byte GsM1
	.byte W02
	.byte EnM1
	.byte W02
	.byte CnM1
	.byte W02
	.byte GsM2
	.byte W02
	.byte EnM2
	.byte W02
	.byte CsM2
	.byte W01
	.byte CnM2
	.byte W30
	.byte W01
	.byte VOICE, 15
	.byte MOD, 20
	.byte BENDR, 12
	.byte LFOS, 127
	.byte BEND, c_v
	.byte TIE
	.byte Cn3, Gn8
	.byte W01
	.byte VOL, 2
	.byte W01
	.byte DsM2
	.byte W01
	.byte FnM2
	.byte W01
	.byte GnM2
	.byte W01
	.byte AnM2
	.byte W01
	.byte BnM2
	.byte W01
	.byte DnM1
	.byte W01
	.byte EnM1
	.byte W01
	.byte GnM1
	.byte W01
	.byte AsM1
	.byte W01
	.byte Cs0
	.byte W01
	.byte Fn0
	.byte W01
	.byte An0
	.byte W01
	.byte Cn1
	.byte W01
	.byte Fn1
	.byte W01
	.byte As1
	.byte W01
	.byte En2
	.byte W01
	.byte Bn2
	.byte W01
	.byte Fn3
	.byte W01
	.byte Dn4
	.byte W01
	.byte Bn4
	.byte W01
	.byte As5
	.byte W01
	.byte As6
	.byte W01
	.byte Cn8
	.byte W48
	.byte LFOS, 100
	.byte BEND, c_v+10
	.byte W40
	.byte LFOS, 80
	.byte BEND, c_v+21
	.byte W02
	.byte W52
	.byte VOL, 110
	.byte W03
	.byte Fs6
	.byte W03
	.byte Gn5
	.byte W03
	.byte Gs4
	.byte W03
	.byte Gs3
	.byte W01
	.byte Gn2
	.byte W01
	.byte Gs1
	.byte W01
	.byte Cn1
	.byte W01
	.byte Fn0
	.byte W01
	.byte BnM1
	.byte W01
	.byte FnM1
	.byte W01
	.byte DnM1
	.byte W01
	.byte AsM2
	.byte W01
	.byte FsM2
	.byte W01
	.byte DnM2
	.byte W01
	.byte CnM2
	.byte W01
	.byte EOT
	.byte W10
	.byte VOICE, 14
	.byte VOL, 94
	.byte BENDR, 12
	.byte BEND, c_v-63
	.byte N07
	.byte Cn2, Cn3
	.byte W01
	.byte BEND, c_v-39
	.byte W01
	.byte Cn2
	.byte W01
	.byte Cn4
	.byte W01
	.byte VOL, 94
	.byte BEND, c_v+32
	.byte W01
	.byte VOL, 27
	.byte BEND, c_v+55
	.byte W01
	.byte VOL, 0
	.byte W04
	.byte W15

	.byte FINE

track_540_1:
	.byte KEYSH, 0
	.byte VOICE, 29
	.byte VOL, 0
	.byte PAN, c_v-20
	.byte N48
	.byte En2, Cn3
	.byte W02
	.byte VOL, 6
	.byte W02
	.byte DsM1
	.byte W02
	.byte Cs0
	.byte W02
	.byte Dn1
	.byte W02
	.byte An2
	.byte W01
	.byte Cn4
	.byte W02
	.byte Fn5
	.byte W02
	.byte Bn5
	.byte W04
	.byte Gn5
	.byte W02
	.byte Cs5
	.byte W02
	.byte Fn4
	.byte W03
	.byte Bn2
	.byte W02
	.byte Cn2
	.byte W02
	.byte Ds1
	.byte W02
	.byte Gs0
	.byte W02
	.byte Cs0
	.byte W02
	.byte GsM1
	.byte W02
	.byte EnM1
	.byte W02
	.byte CnM1
	.byte W02
	.byte GsM2
	.byte W02
	.byte EnM2
	.byte W02
	.byte CsM2
	.byte W01
	.byte CnM2
	.byte W30
	.byte W01
	.byte VOICE, 14
	.byte MOD, 20
	.byte BENDR, 12
	.byte LFOS, 80
	.byte BEND, c_v
	.byte TIE
	.byte Gn1, Gs4
	.byte W01
	.byte VOL, 1
	.byte W01
	.byte DnM2
	.byte W01
	.byte EnM2
	.byte W01
	.byte FsM2
	.byte W01
	.byte GsM2
	.byte W01
	.byte AsM2
	.byte W01
	.byte CnM1
	.byte W01
	.byte DnM1
	.byte W01
	.byte EnM1
	.byte W01
	.byte FsM1
	.byte W01
	.byte AnM1
	.byte W01
	.byte BnM1
	.byte W01
	.byte Dn0
	.byte W01
	.byte Fn0
	.byte W01
	.byte An0
	.byte W01
	.byte Cn1
	.byte W01
	.byte En1
	.byte W01
	.byte Gs1
	.byte W01
	.byte Cn2
	.byte W01
	.byte En2
	.byte W01
	.byte An2
	.byte W01
	.byte Ds3
	.byte W01
	.byte Gs3
	.byte W01
	.byte Ds4
	.byte W48
	.byte LFOS, 70
	.byte BEND, c_v+10
	.byte W40
	.byte LFOS, 60
	.byte BEND, c_v+21
	.byte W02
	.byte W52
	.byte VOL, 70
	.byte W03
	.byte Fn3
	.byte W03
	.byte Bn2
	.byte W03
	.byte Ds2
	.byte W03
	.byte Gs1
	.byte W01
	.byte As0
	.byte W01
	.byte En0
	.byte W01
	.byte BnM1
	.byte W01
	.byte FnM1
	.byte W01
	.byte DnM1
	.byte W01
	.byte AsM2
	.byte W01
	.byte GsM2
	.byte W01
	.byte FsM2
	.byte W01
	.byte DsM2
	.byte W01
	.byte CsM2
	.byte W01
	.byte CnM2
	.byte W01
	.byte EOT
	.byte W20
	.byte W15

	.byte FINE

track_540_2:
	.byte KEYSH, 0
	.byte VOICE, 29
	.byte VOL, 0
	.byte PAN, c_v-20
	.byte N48
	.byte Gn2, Cn3
	.byte W02
	.byte VOL, 6
	.byte W02
	.byte DsM1
	.byte W02
	.byte Cs0
	.byte W02
	.byte Dn1
	.byte W02
	.byte An2
	.byte W01
	.byte Cn4
	.byte W02
	.byte Fn5
	.byte W02
	.byte Bn5
	.byte W04
	.byte Gn5
	.byte W02
	.byte Cs5
	.byte W02
	.byte Fn4
	.byte W03
	.byte Bn2
	.byte W02
	.byte Cn2
	.byte W02
	.byte Ds1
	.byte W02
	.byte Gs0
	.byte W02
	.byte Cs0
	.byte W02
	.byte GsM1
	.byte W02
	.byte EnM1
	.byte W02
	.byte CnM1
	.byte W02
	.byte GsM2
	.byte W02
	.byte EnM2
	.byte W02
	.byte CsM2
	.byte W01
	.byte CnM2
	.byte W30
	.byte W01
	.byte VOICE, 30
	.byte MOD, 12
	.byte VOL, 85
	.byte LFOS, 120
	.byte PRIO, 22
	.byte W01
	.byte N05
	.byte Cn2, GsM1
	.byte W05
	.byte En2, Cn0
	.byte W09
	.byte Fn2, GsM1
	.byte W03
	.byte W02
	.byte Cn2, Gs0
	.byte W05
	.byte En2, Cn0
	.byte W06
	.byte Fn2, En1
	.byte W05
	.byte Cn2, En2
	.byte W05
	.byte En2, En6
	.byte W09
	.byte Fn2
	.byte W05
	.byte Cn2, Gs4
	.byte W05
	.byte En2
	.byte W06
	.byte Fn2, En6
	.byte W08
	.byte Cn2, Gs5
	.byte W05
	.byte En2, En6
	.byte W07
	.byte Fn2, Gs4
	.byte W05
	.byte Cn2, En6
	.byte W06
	.byte En2, Gs5
	.byte W05
	.byte Fn2, En6
	.byte W07
	.byte Cn2
	.byte W05
	.byte En2, Gs5
	.byte W07
	.byte Fn2, Gs4
	.byte W05
	.byte Cn2, Gs5
	.byte W09
	.byte En2, En6
	.byte W05
	.byte Fn2
	.byte W05
	.byte Cn2
	.byte W06
	.byte En2
	.byte W07
	.byte N10
	.byte Fn2, Cn8
	.byte W52
	.byte W15

	.byte FINE

.align 2

track_540:
	.byte 3
	.byte 0
	.byte 229
	.byte 0
	.word voice_group4
	.word track_540_0
	.word track_540_1
	.word track_540_2

.align 2
