.align 2

.global track_599

track_599_0:
	.byte KEYSH, 0
	.byte TEMPO, 75
	.byte W48
	.byte VOICE, 45
	.byte MOD, 0
	.byte VOL, 94
	.byte PAN, c_v
	.byte BENDR, 16
	.byte LFOS, 30
	.byte BEND, c_v-63
	.byte TIE, Cn2, v120
	.byte W01
	.byte BEND, c_v-62
	.byte W01
	.byte c_v-62 @ BEND
	.byte W01
	.byte c_v-61 @ BEND
	.byte W01
	.byte c_v-60 @ BEND
	.byte W01
	.byte c_v-59 @ BEND
	.byte W01
	.byte c_v-59 @ BEND
	.byte W01
	.byte c_v-58 @ BEND
	.byte W01
	.byte c_v-57 @ BEND
	.byte W01
	.byte c_v-57 @ BEND
	.byte W01
	.byte c_v-56 @ BEND
	.byte W01
	.byte c_v-55 @ BEND
	.byte W01
	.byte c_v-54 @ BEND
	.byte W01
	.byte c_v-54 @ BEND
	.byte W01
	.byte c_v-53 @ BEND
	.byte W01
	.byte c_v-52 @ BEND
	.byte W01
	.byte c_v-52 @ BEND
	.byte W01
	.byte c_v-51 @ BEND
	.byte W01
	.byte c_v-50 @ BEND
	.byte W01
	.byte c_v-49 @ BEND
	.byte W01
	.byte c_v-49 @ BEND
	.byte W01
	.byte c_v-48 @ BEND
	.byte W01
	.byte c_v-47 @ BEND
	.byte W01
	.byte c_v-47 @ BEND
	.byte W01
	.byte c_v-46 @ BEND
	.byte W01
	.byte c_v-45 @ BEND
	.byte W01
	.byte c_v-44 @ BEND
	.byte W01
	.byte c_v-44 @ BEND
	.byte W01
	.byte c_v-43 @ BEND
	.byte W01
	.byte c_v-42 @ BEND
	.byte W01
	.byte c_v-42 @ BEND
	.byte W01
	.byte c_v-41 @ BEND
	.byte W01
	.byte c_v-40 @ BEND
	.byte W01
	.byte c_v-39 @ BEND
	.byte W01
	.byte c_v-39 @ BEND
	.byte W01
	.byte c_v-38 @ BEND
	.byte W01
	.byte c_v-37 @ BEND
	.byte W01
	.byte c_v-37 @ BEND
	.byte W01
	.byte c_v-36 @ BEND
	.byte W01
	.byte c_v-35 @ BEND
	.byte W01
	.byte c_v-34 @ BEND
	.byte W01
	.byte c_v-34 @ BEND
	.byte W01
	.byte c_v-33 @ BEND
	.byte W01
	.byte c_v-32 @ BEND
	.byte W01
	.byte c_v-32 @ BEND
	.byte W01
	.byte c_v-31 @ BEND
	.byte W01
	.byte c_v-30 @ BEND
	.byte W01
	.byte c_v-29 @ BEND
	.byte W01
	.byte c_v-29 @ BEND
	.byte W01
	.byte c_v-28 @ BEND
	.byte W01
	.byte c_v-27 @ BEND
	.byte W01
	.byte c_v-27 @ BEND
	.byte W01
	.byte c_v-26 @ BEND
	.byte W01
	.byte c_v-25 @ BEND
	.byte W01
	.byte c_v-24 @ BEND
	.byte W01
	.byte c_v-24 @ BEND
	.byte W01
	.byte c_v-23 @ BEND
	.byte W01
	.byte c_v-22 @ BEND
	.byte W01
	.byte c_v-22 @ BEND
	.byte W01
	.byte c_v-21 @ BEND
	.byte W01
	.byte c_v-20 @ BEND
	.byte W01
	.byte c_v-19 @ BEND
	.byte W01
	.byte c_v-19 @ BEND
	.byte W01
	.byte c_v-18 @ BEND
	.byte W01
	.byte c_v-17 @ BEND
	.byte W01
	.byte c_v-17 @ BEND
	.byte W01
	.byte c_v-16 @ BEND
	.byte W01
	.byte c_v-15 @ BEND
	.byte W01
	.byte c_v-14 @ BEND
	.byte W01
	.byte c_v-14 @ BEND
	.byte W01
	.byte c_v-13 @ BEND
	.byte W01
	.byte c_v-12 @ BEND
	.byte W01
	.byte c_v-11 @ BEND
	.byte W01
	.byte c_v-11 @ BEND
	.byte W01
	.byte c_v-10 @ BEND
	.byte W01
	.byte c_v-9 @ BEND
	.byte W01
	.byte c_v-9 @ BEND
	.byte W01
	.byte c_v-8 @ BEND
	.byte W01
	.byte c_v-7 @ BEND
	.byte W01
	.byte c_v-6 @ BEND
	.byte W01
	.byte c_v-6 @ BEND
	.byte W01
	.byte c_v-5 @ BEND
	.byte W01
	.byte c_v-4 @ BEND
	.byte W01
	.byte c_v-4 @ BEND
	.byte W01
	.byte c_v-3 @ BEND
	.byte W01
	.byte c_v-2 @ BEND
	.byte W01
	.byte c_v-1 @ BEND
	.byte W01
	.byte c_v-1 @ BEND
	.byte W01
	.byte c_v @ BEND
	.byte W01
	.byte c_v+1 @ BEND
	.byte W01
	.byte c_v+1 @ BEND
	.byte W01
	.byte c_v+2 @ BEND
	.byte W01
	.byte c_v+3 @ BEND
	.byte W01
	.byte c_v+4 @ BEND
	.byte W01
	.byte c_v+4 @ BEND
	.byte W01
	.byte c_v+5 @ BEND
	.byte W01
	.byte c_v+6 @ BEND
	.byte W01
	.byte c_v+6 @ BEND
	.byte W01
	.byte c_v+7 @ BEND
	.byte W01
	.byte c_v+8 @ BEND
	.byte W01
	.byte c_v+9 @ BEND
	.byte W01
	.byte c_v+9 @ BEND
	.byte W01
	.byte VOL, 94
	.byte BEND, c_v+10
	.byte W01
	.byte VOL, 85
	.byte BEND, c_v+11
	.byte W01
	.byte VOL, 79
	.byte BEND, c_v+11
	.byte W01
	.byte VOL, 72
	.byte BEND, c_v+12
	.byte W01
	.byte VOL, 66
	.byte BEND, c_v+13
	.byte W01
	.byte VOL, 62
	.byte BEND, c_v+14
	.byte W01
	.byte VOL, 57
	.byte BEND, c_v+14
	.byte W01
	.byte VOL, 53
	.byte BEND, c_v+15
	.byte W01
	.byte VOL, 49
	.byte BEND, c_v+16
	.byte W01
	.byte VOL, 46
	.byte BEND, c_v+16
	.byte W01
	.byte VOL, 43
	.byte BEND, c_v+17
	.byte W01
	.byte VOL, 40
	.byte BEND, c_v+18
	.byte W01
	.byte VOL, 37
	.byte BEND, c_v+19
	.byte W01
	.byte VOL, 35
	.byte BEND, c_v+19
	.byte W01
	.byte VOL, 32
	.byte BEND, c_v+20
	.byte W01
	.byte VOL, 30
	.byte BEND, c_v+21
	.byte W01
	.byte VOL, 29
	.byte BEND, c_v+21
	.byte W01
	.byte VOL, 25
	.byte BEND, c_v+22
	.byte W01
	.byte VOL, 24
	.byte BEND, c_v+23
	.byte W01
	.byte VOL, 22
	.byte BEND, c_v+24
	.byte W01
	.byte VOL, 21
	.byte BEND, c_v+24
	.byte W01
	.byte VOL, 19
	.byte BEND, c_v+25
	.byte W01
	.byte VOL, 18
	.byte BEND, c_v+26
	.byte W01
	.byte VOL, 17
	.byte BEND, c_v+26
	.byte W01
	.byte VOL, 15
	.byte BEND, c_v+27
	.byte W01
	.byte VOL, 14
	.byte BEND, c_v+28
	.byte W01
	.byte VOL, 13
	.byte BEND, c_v+29
	.byte W01
	.byte VOL, 12
	.byte BEND, c_v+29
	.byte W01
	.byte VOL, 11
	.byte BEND, c_v+30
	.byte W01
	.byte VOL, 10
	.byte BEND, c_v+31
	.byte W01
	.byte VOL, 9
	.byte BEND, c_v+31
	.byte W01
	.byte VOL, 8
	.byte BEND, c_v+32
	.byte W01
	.byte VOL, 7
	.byte BEND, c_v+33
	.byte W01
	.byte c_v+34 @ BEND
	.byte W01
	.byte VOL, 5
	.byte BEND, c_v+34
	.byte W01
	.byte c_v+35 @ BEND
	.byte W01
	.byte VOL, 3
	.byte BEND, c_v+36
	.byte W01
	.byte c_v+36 @ BEND
	.byte W01
	.byte VOL, 2
	.byte BEND, c_v+37
	.byte W01
	.byte c_v+38 @ BEND
	.byte W01
	.byte VOL, 1
	.byte BEND, c_v+39
	.byte W01
	.byte VOL, 0
	.byte BEND, c_v+39
	.byte W01
	.byte VOL, 0
	.byte BEND, c_v+40
	.byte W48
	.byte W01
	.byte EOT @ Cn2, v120
	.byte FINE

track_599_1:
	.byte KEYSH, 0
	.byte VOICE, 14
	.byte VOL, 31
	.byte PAN, c_v
	.byte BENDR, 6
	.byte BEND, c_v-32
	.byte TIE, Cn2, v127
	.byte W01
	.byte VOL, 32
	.byte BEND, c_v-32
	.byte W01
	.byte VOL, 34
	.byte BEND, c_v-31
	.byte W01
	.byte VOL, 35
	.byte BEND, c_v-31
	.byte W01
	.byte VOL, 37
	.byte BEND, c_v-30
	.byte W01
	.byte VOL, 39
	.byte BEND, c_v-30
	.byte W01
	.byte VOL, 40
	.byte BEND, c_v-29
	.byte W01
	.byte VOL, 42
	.byte BEND, c_v-29
	.byte W01
	.byte VOL, 44
	.byte BEND, c_v-29
	.byte W01
	.byte VOL, 46
	.byte BEND, c_v-28
	.byte W01
	.byte VOL, 48
	.byte BEND, c_v-28
	.byte W01
	.byte VOL, 51
	.byte BEND, c_v-27
	.byte W01
	.byte VOL, 52
	.byte BEND, c_v-27
	.byte W01
	.byte VOL, 55
	.byte BEND, c_v-26
	.byte W01
	.byte VOL, 58
	.byte BEND, c_v-26
	.byte W01
	.byte VOL, 60
	.byte BEND, c_v-26
	.byte W01
	.byte VOL, 64
	.byte BEND, c_v-25
	.byte W01
	.byte VOL, 68
	.byte BEND, c_v-25
	.byte W01
	.byte VOL, 71
	.byte BEND, c_v-24
	.byte W01
	.byte VOL, 74
	.byte BEND, c_v-24
	.byte W01
	.byte VOL, 79
	.byte BEND, c_v-23
	.byte W01
	.byte VOL, 84
	.byte BEND, c_v-23
	.byte W01
	.byte VOL, 88
	.byte BEND, c_v-23
	.byte W01
	.byte VOL, 93
	.byte BEND, c_v-22
	.byte W01
	.byte VOL, 100
	.byte BEND, c_v-22
	.byte W01
	.byte c_v-21 @ BEND
	.byte W01
	.byte c_v-21 @ BEND
	.byte W01
	.byte c_v-20 @ BEND
	.byte W01
	.byte c_v-20 @ BEND
	.byte W01
	.byte c_v-20 @ BEND
	.byte W01
	.byte c_v-19 @ BEND
	.byte W01
	.byte c_v-19 @ BEND
	.byte W01
	.byte c_v-18 @ BEND
	.byte W01
	.byte c_v-18 @ BEND
	.byte W01
	.byte c_v-18 @ BEND
	.byte W01
	.byte c_v-17 @ BEND
	.byte W01
	.byte c_v-17 @ BEND
	.byte W01
	.byte c_v-16 @ BEND
	.byte W01
	.byte c_v-16 @ BEND
	.byte W01
	.byte c_v-15 @ BEND
	.byte W01
	.byte c_v-15 @ BEND
	.byte W01
	.byte c_v-15 @ BEND
	.byte W01
	.byte c_v-14 @ BEND
	.byte W01
	.byte c_v-14 @ BEND
	.byte W01
	.byte c_v-13 @ BEND
	.byte W01
	.byte c_v-13 @ BEND
	.byte W01
	.byte c_v-12 @ BEND
	.byte W01
	.byte c_v-12 @ BEND
	.byte W01
	.byte c_v-12 @ BEND
	.byte W01
	.byte c_v-11 @ BEND
	.byte W01
	.byte c_v-11 @ BEND
	.byte W01
	.byte c_v-10 @ BEND
	.byte W01
	.byte c_v-10 @ BEND
	.byte W01
	.byte c_v-9 @ BEND
	.byte W01
	.byte c_v-9 @ BEND
	.byte W01
	.byte c_v-9 @ BEND
	.byte W01
	.byte c_v-8 @ BEND
	.byte W01
	.byte c_v-8 @ BEND
	.byte W01
	.byte c_v-7 @ BEND
	.byte W01
	.byte c_v-7 @ BEND
	.byte W01
	.byte c_v-6 @ BEND
	.byte W01
	.byte c_v-6 @ BEND
	.byte W01
	.byte c_v-6 @ BEND
	.byte W01
	.byte c_v-5 @ BEND
	.byte W01
	.byte c_v-5 @ BEND
	.byte W01
	.byte c_v-4 @ BEND
	.byte W01
	.byte c_v-4 @ BEND
	.byte W01
	.byte c_v-3 @ BEND
	.byte W01
	.byte c_v-3 @ BEND
	.byte W01
	.byte c_v-3 @ BEND
	.byte W01
	.byte c_v-2 @ BEND
	.byte W01
	.byte c_v-2 @ BEND
	.byte W01
	.byte c_v-1 @ BEND
	.byte W01
	.byte c_v-1 @ BEND
	.byte W01
	.byte c_v @ BEND
	.byte W01
	.byte c_v @ BEND
	.byte W01
	.byte c_v @ BEND
	.byte W01
	.byte c_v+1 @ BEND
	.byte W01
	.byte c_v+1 @ BEND
	.byte W01
	.byte c_v+2 @ BEND
	.byte W01
	.byte c_v+2 @ BEND
	.byte W01
	.byte c_v+3 @ BEND
	.byte W01
	.byte c_v+3 @ BEND
	.byte W01
	.byte c_v+3 @ BEND
	.byte W01
	.byte c_v+4 @ BEND
	.byte W01
	.byte c_v+4 @ BEND
	.byte W01
	.byte c_v+5 @ BEND
	.byte W01
	.byte c_v+5 @ BEND
	.byte W01
	.byte c_v+6 @ BEND
	.byte W01
	.byte c_v+6 @ BEND
	.byte W01
	.byte c_v+6 @ BEND
	.byte W01
	.byte c_v+7 @ BEND
	.byte W01
	.byte c_v+7 @ BEND
	.byte W01
	.byte c_v+8 @ BEND
	.byte W01
	.byte c_v+8 @ BEND
	.byte W01
	.byte c_v+9 @ BEND
	.byte W01
	.byte c_v+9 @ BEND
	.byte W01
	.byte c_v+9 @ BEND
	.byte W01
	.byte c_v+10 @ BEND
	.byte W01
	.byte c_v+10 @ BEND
	.byte W01
	.byte c_v+11 @ BEND
	.byte W01
	.byte c_v+11 @ BEND
	.byte W01
	.byte c_v+11 @ BEND
	.byte W01
	.byte c_v+12 @ BEND
	.byte W01
	.byte c_v+12 @ BEND
	.byte W01
	.byte c_v+13 @ BEND
	.byte W01
	.byte c_v+13 @ BEND
	.byte W01
	.byte c_v+14 @ BEND
	.byte W01
	.byte c_v+14 @ BEND
	.byte W01
	.byte c_v+14 @ BEND
	.byte W01
	.byte c_v+15 @ BEND
	.byte W01
	.byte c_v+15 @ BEND
	.byte W01
	.byte c_v+16 @ BEND
	.byte W01
	.byte c_v+16 @ BEND
	.byte W01
	.byte c_v+17 @ BEND
	.byte W01
	.byte c_v+17 @ BEND
	.byte W01
	.byte c_v+17 @ BEND
	.byte W01
	.byte c_v+18 @ BEND
	.byte W01
	.byte c_v+18 @ BEND
	.byte W01
	.byte c_v+19 @ BEND
	.byte W01
	.byte c_v+19 @ BEND
	.byte W01
	.byte c_v+20 @ BEND
	.byte W01
	.byte c_v+20 @ BEND
	.byte W01
	.byte c_v+20 @ BEND
	.byte W01
	.byte c_v+21 @ BEND
	.byte W01
	.byte c_v+21 @ BEND
	.byte W01
	.byte c_v+22 @ BEND
	.byte W01
	.byte c_v+22 @ BEND
	.byte W01
	.byte c_v+23 @ BEND
	.byte W01
	.byte c_v+23 @ BEND
	.byte W01
	.byte c_v+23 @ BEND
	.byte W01
	.byte c_v+24 @ BEND
	.byte W01
	.byte c_v+24 @ BEND
	.byte W01
	.byte c_v+25 @ BEND
	.byte W01
	.byte c_v+25 @ BEND
	.byte W01
	.byte c_v+26 @ BEND
	.byte W01
	.byte c_v+26 @ BEND
	.byte W01
	.byte c_v+26 @ BEND
	.byte W01
	.byte c_v+27 @ BEND
	.byte W01
	.byte c_v+27 @ BEND
	.byte W01
	.byte c_v+28 @ BEND
	.byte W01
	.byte c_v+28 @ BEND
	.byte W01
	.byte c_v+29 @ BEND
	.byte W01
	.byte c_v+29 @ BEND
	.byte W01
	.byte c_v+29 @ BEND
	.byte W01
	.byte c_v+30 @ BEND
	.byte W01
	.byte c_v+30 @ BEND
	.byte W01
	.byte c_v+31 @ BEND
	.byte W01
	.byte c_v+31 @ BEND
	.byte W01
	.byte c_v+32 @ BEND
	.byte W01
	.byte VOL, 100
	.byte BEND, c_v+32
	.byte W01
	.byte VOL, 96
	.byte W01
	.byte 92 @ VOL
	.byte W01
	.byte 89 @ VOL
	.byte W01
	.byte 86 @ VOL
	.byte W01
	.byte 82 @ VOL
	.byte W01
	.byte 80 @ VOL
	.byte W01
	.byte 77 @ VOL
	.byte W01
	.byte 74 @ VOL
	.byte BEND, c_v+29
	.byte W01
	.byte VOL, 73
	.byte W01
	.byte 70 @ VOL
	.byte W01
	.byte 68 @ VOL
	.byte W01
	.byte 66 @ VOL
	.byte W01
	.byte 63 @ VOL
	.byte BEND, c_v+25
	.byte W01
	.byte VOL, 62
	.byte W01
	.byte 59 @ VOL
	.byte W01
	.byte 58 @ VOL
	.byte W01
	.byte 56 @ VOL
	.byte W01
	.byte 54 @ VOL
	.byte BEND, c_v+19
	.byte W01
	.byte VOL, 52
	.byte W01
	.byte 51 @ VOL
	.byte W01
	.byte 49 @ VOL
	.byte W01
	.byte 48 @ VOL
	.byte W01
	.byte 46 @ VOL
	.byte W01
	.byte 45 @ VOL
	.byte BEND, c_v+11
	.byte W01
	.byte VOL, 43
	.byte W02
	.byte 41 @ VOL
	.byte W01
	.byte 40 @ VOL
	.byte W01
	.byte 38 @ VOL
	.byte W01
	.byte 37 @ VOL
	.byte BEND, c_v+1
	.byte W02
	.byte VOL, 35
	.byte W01
	.byte 34 @ VOL
	.byte W01
	.byte 33 @ VOL
	.byte W01
	.byte 32 @ VOL
	.byte W01
	.byte 31 @ VOL
	.byte BEND, c_v-9
	.byte W01
	.byte VOL, 30
	.byte W01
	.byte 29 @ VOL
	.byte W02
	.byte 27 @ VOL
	.byte W01
	.byte 25 @ VOL
	.byte W01
	.byte BEND, c_v-19
	.byte W01
	.byte VOL, 25
	.byte W01
	.byte 24 @ VOL
	.byte W01
	.byte 22 @ VOL
	.byte W02
	.byte 21 @ VOL
	.byte W01
	.byte BEND, c_v-26
	.byte W01
	.byte VOL, 20
	.byte W01
	.byte 19 @ VOL
	.byte W02
	.byte 18 @ VOL
	.byte W02
	.byte 16 @ VOL
	.byte BEND, c_v-31
	.byte W02
	.byte VOL, 15
	.byte W01
	.byte 14 @ VOL
	.byte W02
	.byte 14 @ VOL
	.byte W01
	.byte 13 @ VOL
	.byte W02
	.byte 11 @ VOL
	.byte W02
	.byte 11 @ VOL
	.byte W01
	.byte 10 @ VOL
	.byte W02
	.byte BEND, c_v-30
	.byte W01
	.byte VOL, 8
	.byte W03
	.byte 7 @ VOL
	.byte W01
	.byte BEND, c_v-26
	.byte W02
	.byte VOL, 6
	.byte W01
	.byte 5 @ VOL
	.byte W02
	.byte 4 @ VOL
	.byte W01
	.byte 3 @ VOL
	.byte BEND, c_v-19
	.byte W03
	.byte VOL, 3
	.byte W01
	.byte 2 @ VOL
	.byte W02
	.byte BEND, c_v-10
	.byte W01
	.byte VOL, 1
	.byte W01
	.byte 0 @ VOL
	.byte W02
	.byte 0 @ VOL
	.byte W03
	.byte EOT @ Cn2, v127
	.byte FINE

track_599_2:
	.byte KEYSH, 0
	.byte VOICE, 22
	.byte MOD, 12
	.byte VOL, 94
	.byte PAN, c_v
	.byte LFOS, 120
	.byte PRIO, 25
	.byte W01
	.byte N05, Gn2, v080
	.byte W05
	.byte Dn2, v100 @ N05
	.byte W09
	.byte Gn2, v080 @ N05
	.byte W05
	.byte Dn2, v100 @ N05
	.byte W05
	.byte Gn2, v080 @ N05
	.byte W06
	.byte N05 @ Gn2, v080
	.byte W05
	.byte Dn2, v100 @ N05
	.byte W05
	.byte Gn2, v080 @ N05
	.byte W09
	.byte Dn2, v100 @ N05
	.byte W05
	.byte Gn2, v080 @ N05
	.byte W05
	.byte N05 @ Gn2, v080
	.byte W06
	.byte En2, v100 @ N05
	.byte W08
	.byte Fn2, v092 @ N05
	.byte W05
	.byte Dn2, v100 @ N05
	.byte W07
	.byte Gn2, v080 @ N05
	.byte W05
	.byte Dn2, v100 @ N05
	.byte W05
	.byte W01
	.byte Fn2, v092 @ N05
	.byte W05
	.byte Gn2, v100 @ N05
	.byte W07
	.byte Dn2 @ N05, v100
	.byte W05
	.byte Fn2, v092 @ N05
	.byte W07
	.byte Gn2, v080 @ N05
	.byte W05
	.byte Fn2, v092 @ N05
	.byte W09
	.byte En2, v100 @ N05
	.byte W05
	.byte Dn2 @ N05, v100
	.byte W05
	.byte Fn2 @ N05, v100
	.byte W06
	.byte Gn2 @ N05, v100
	.byte W05
	.byte Fn2, v092 @ N05
	.byte W05
	.byte Gn2, v084 @ N05
	.byte W09
	.byte Dn2, v076 @ N05
	.byte W05
	.byte Gn2, v068 @ N05
	.byte W05
	.byte Fn2, v060 @ N05
	.byte W06
	.byte En2, v052 @ N05
	.byte W06
	.byte W02
	.byte Fn2, v044 @ N05
	.byte W05
	.byte Dn2, v036 @ N05
	.byte W07
	.byte Gn2, v028 @ N05
	.byte W05
	.byte Fn2, v020 @ N05
	.byte W06
	.byte Gn2, v016 @ N05
	.byte W05
	.byte Dn2, v012 @ N05
	.byte W07
	.byte Dn2, v008 @ N05
	.byte W05
	.byte Gn2, v004 @ N05
	.byte W05
	.byte FINE

.align 2

track_599:
	.byte 3
	.byte 0
	.byte 200
	.byte 0
	.word voice_group4
	.word track_599_0
	.word track_599_1
	.word track_599_2

.align 2
