.align 2

.global track_574

track_574_0:
	.byte KEYSH, 0
	.byte TEMPO, 75
	.byte VOICE, 25
	.byte VOL, 100
	.byte PAN, c_v-20
	.byte N05, Cn3, v112
	.byte W05
	.byte N14, En3, v127
	.byte W14
	.byte N13, Dn3, v060
	.byte W28
	.byte W01
	.byte N05, En3, v112
	.byte W05
	.byte N14, Dn3, v127
	.byte W14
	.byte N13, Fn3, v060
	.byte W13
	.byte VOL, 76
	.byte W02
	.byte 59 @ VOL
	.byte W02
	.byte 48 @ VOL
	.byte W02
	.byte 38 @ VOL
	.byte W02
	.byte 30 @ VOL
	.byte W02
	.byte 24 @ VOL
	.byte W02
	.byte 19 @ VOL
	.byte W02
	.byte 15 @ VOL
	.byte W02
	.byte 11 @ VOL
	.byte N05, En3, v112
	.byte W02
	.byte VOL, 8
	.byte W02
	.byte 5 @ VOL
	.byte W01
	.byte N14, Cn3, v127
	.byte W01
	.byte VOL, 3
	.byte W02
	.byte 0 @ VOL
	.byte W11
	.byte FINE

track_574_1:
	.byte KEYSH, 0
	.byte W24
	.byte VOICE, 24
	.byte VOL, 100
	.byte PAN, c_v-20
	.byte N03, Bn2, v112
	.byte W03
	.byte VOICE, 27
	.byte N06 @ Bn2, v112
	.byte W06
	.byte N21, Cn3, v092
	.byte W36
	.byte W03
	.byte VOICE, 24
	.byte N03, Cn3, v112
	.byte W03
	.byte VOICE, 27
	.byte N07 @ Cn3, v112
	.byte W05
	.byte VOL, 76
	.byte W02
	.byte 59 @ VOL
	.byte N21, Dn3, v092
	.byte W02
	.byte VOL, 48
	.byte W02
	.byte 38 @ VOL
	.byte W02
	.byte 30 @ VOL
	.byte W02
	.byte 24 @ VOL
	.byte W02
	.byte 19 @ VOL
	.byte W02
	.byte 15 @ VOL
	.byte W02
	.byte 11 @ VOL
	.byte W02
	.byte 8 @ VOL
	.byte W02
	.byte 5 @ VOL
	.byte W02
	.byte 3 @ VOL
	.byte W02
	.byte 0 @ VOL
	.byte FINE

track_574_2:
	.byte KEYSH, 0
	.byte W04
	.byte VOICE, 26
	.byte VOL, 100
	.byte PAN, c_v
	.byte PRIO, 22
	.byte N05, Gs2, v100
	.byte W05
	.byte N10, Gs2, v127
	.byte W42
	.byte W01
	.byte N05, Gs2, v100
	.byte W05
	.byte N10, Gs2, v127
	.byte W10
	.byte FINE

track_574_3:
	.byte KEYSH, 0
	.byte W32
	.byte W02
	.byte VOICE, 29
	.byte VOL, 78
	.byte PAN, c_v
	.byte N14, Cn3, v127
	.byte W14
	.byte Cn3, v032 @ N14
	.byte W14
	.byte N18, Cn3, v012
	.byte W18
	.byte VOL, 76
	.byte W02
	.byte VOICE, 29
	.byte VOL, 59
	.byte N14, Cn3, v127
	.byte W02
	.byte VOL, 48
	.byte W02
	.byte 38 @ VOL
	.byte W02
	.byte 30 @ VOL
	.byte W02
	.byte 24 @ VOL
	.byte W02
	.byte 19 @ VOL
	.byte W02
	.byte 15 @ VOL
	.byte W02
	.byte 11 @ VOL
	.byte N14, Cn3, v032
	.byte W02
	.byte VOL, 8
	.byte W02
	.byte 5 @ VOL
	.byte W02
	.byte 3 @ VOL
	.byte W02
	.byte 0 @ VOL
	.byte W06
	.byte N18, Cn3, v012
	.byte W18
	.byte FINE

track_574_4:
	.byte KEYSH, 0
	.byte W15
	.byte VOICE, 30
	.byte VOL, 86
	.byte PAN, c_v
	.byte N05, Cn3, v100
	.byte W05
	.byte N14, En3, v127
	.byte W14
	.byte N13, Dn3, v052
	.byte W13
	.byte VOICE, 29
	.byte N18, Cn3, v020
	.byte W20
	.byte VOICE, 30
	.byte N05, Cn3, v100
	.byte W05
	.byte N14, En3, v127
	.byte W08
	.byte VOL, 76
	.byte W02
	.byte 59 @ VOL
	.byte W02
	.byte 48 @ VOL
	.byte W02
	.byte 38 @ VOL
	.byte N13, Dn3, v052
	.byte W02
	.byte VOL, 30
	.byte W02
	.byte 24 @ VOL
	.byte W02
	.byte 19 @ VOL
	.byte W02
	.byte 15 @ VOL
	.byte W02
	.byte 11 @ VOL
	.byte W02
	.byte 8 @ VOL
	.byte W01
	.byte VOICE, 29
	.byte N18, Cn3, v020
	.byte W01
	.byte VOL, 5
	.byte W02
	.byte 3 @ VOL
	.byte W02
	.byte 0 @ VOL
	.byte W13
	.byte FINE

track_574_5:
	.byte KEYSH, 0
	.byte W07
	.byte VOICE, 28
	.byte VOL, 100
	.byte PAN, c_v
	.byte N24, An2, v127, 3
	.byte W24
	.byte W03
	.byte An2, v120, 3 @ N24
	.byte W28
	.byte W01
	.byte An2, v080, 3 @ N24
	.byte W17
	.byte VOL, 76
	.byte W02
	.byte 59 @ VOL
	.byte W02
	.byte 48 @ VOL
	.byte W02
	.byte 38 @ VOL
	.byte W02
	.byte 30 @ VOL
	.byte W02
	.byte 24 @ VOL
	.byte W02
	.byte 19 @ VOL
	.byte W02
	.byte 15 @ VOL
	.byte W02
	.byte 11 @ VOL
	.byte W02
	.byte 8 @ VOL
	.byte W02
	.byte 5 @ VOL
	.byte W02
	.byte 3 @ VOL
	.byte W02
	.byte 0 @ VOL
	.byte FINE

.align 2

track_574:
	.byte 6
	.byte 0
	.byte 228
	.byte 0
	.word voice_group17
	.word track_574_0
	.word track_574_1
	.word track_574_2
	.word track_574_3
	.word track_574_4
	.word track_574_5

.align 2
