.align 2

.global track_402

track_402_0:
	.byte KEYSH, 0
	.byte TEMPO, 75
	.byte VOICE, 0
	.byte MOD, 40
	.byte VOL, 70
	.byte PAN, c_v
	.byte LFOS, 80
	.byte TIE
	.byte Cn3, En6
	.byte W96
	.byte W96
	.byte W24
	.byte EOT
	.byte LFOS, 60
	.byte N72
	.byte Gn2
	.byte W03
	.byte VOL, 62
	.byte W03
	.byte Fs2
	.byte W03
	.byte Cn2
	.byte W03
	.byte LFOS, 50
	.byte VOL, 40
	.byte W03
	.byte Bn0
	.byte W03
	.byte Fs0
	.byte W03
	.byte Cs0
	.byte W03
	.byte LFOS, 40
	.byte VOL, 22
	.byte W03
	.byte GnM1
	.byte W03
	.byte EnM1
	.byte W03
	.byte DnM1
	.byte W03
	.byte LFOS, 30
	.byte VOL, 12
	.byte W03
	.byte BnM2
	.byte W03
	.byte GsM2
	.byte W03
	.byte GnM2
	.byte W03
	.byte LFOS, 20
	.byte VOL, 6
	.byte W03
	.byte FnM2
	.byte W03
	.byte EnM2
	.byte W03
	.byte DsM2
	.byte W03
	.byte LFOS, 10
	.byte VOL, 3
	.byte W03
	.byte DnM2
	.byte W03
	.byte CnM2
	.byte W03
	.byte CnM2
	.byte W03

	.byte FINE

track_402_1:
	.byte KEYSH, 0
	.byte VOICE, 1
	.byte VOL, 78
	.byte PAN, c_v
	.byte BEND, c_v
	.byte N04
	.byte Cn2, Gs4
	.byte W04
	.byte Bn1
	.byte W04
	.byte Dn2
	.byte W04
	.byte An1
	.byte W04
	.byte Gn1
	.byte W04
	.byte Dn2
	.byte W04
	.byte Bn1
	.byte W04
	.byte Cn2
	.byte W04
	.byte Dn2
	.byte W04
	.byte Bn1
	.byte W04
	.byte Gn1
	.byte W04
	.byte An1
	.byte W04
	.byte Bn1
	.byte W04
	.byte Cn2
	.byte W04
	.byte Gn1
	.byte W04
	.byte Bn1
	.byte W04
	.byte Cn2
	.byte W04
	.byte An1
	.byte W04
	.byte Dn2
	.byte W04
	.byte Gn1
	.byte W04
	.byte Bn1
	.byte W04
	.byte Cn2
	.byte W04
	.byte Dn2
	.byte W04
	.byte An1
	.byte W04
	.byte Cn2
	.byte W04
	.byte Bn1
	.byte W04
	.byte Dn2
	.byte W04
	.byte An1
	.byte W04
	.byte Gn1
	.byte W04
	.byte Dn2
	.byte W04
	.byte Bn1
	.byte W04
	.byte Cn2
	.byte W04
	.byte Dn2
	.byte W04
	.byte Bn1
	.byte W04
	.byte Gn1
	.byte W04
	.byte An1
	.byte W04
	.byte Bn1
	.byte W04
	.byte Cn2
	.byte W04
	.byte Gn1
	.byte W04
	.byte Bn1
	.byte W04
	.byte Cn2
	.byte W04
	.byte An1
	.byte W04
	.byte Dn2
	.byte W04
	.byte Gn1
	.byte W04
	.byte Bn1
	.byte W04
	.byte Cn2
	.byte W04
	.byte Dn2
	.byte W04
	.byte An1
	.byte W04
	.byte Cn2
	.byte W04
	.byte Bn1
	.byte W04
	.byte Dn2
	.byte W04
	.byte An1
	.byte W04
	.byte Gn1
	.byte W04
	.byte Dn2
	.byte W04
	.byte BENDR, 12
	.byte BEND, c_v-16
	.byte N04
	.byte Bn1
	.byte W03
	.byte VOL, 74
	.byte W01
	.byte N04
	.byte Cn2
	.byte W02
	.byte VOL, 71
	.byte W02
	.byte N04
	.byte Dn2
	.byte W01
	.byte VOL, 68
	.byte W03
	.byte Fn3
	.byte N04
	.byte Bn1
	.byte W03
	.byte VOL, 61
	.byte W01
	.byte N04
	.byte Gn1
	.byte W02
	.byte VOL, 58
	.byte W02
	.byte N04
	.byte An1
	.byte W01
	.byte VOL, 55
	.byte W03
	.byte Ds2
	.byte N04
	.byte Bn1
	.byte W03
	.byte VOL, 48
	.byte W01
	.byte N04
	.byte Cn2
	.byte W02
	.byte VOL, 44
	.byte W02
	.byte N04
	.byte Gn1
	.byte W01
	.byte VOL, 41
	.byte W03
	.byte Dn1
	.byte N04
	.byte Bn1
	.byte W03
	.byte VOL, 35
	.byte W01
	.byte N04
	.byte Cn2
	.byte W02
	.byte VOL, 31
	.byte W02
	.byte N04
	.byte An1
	.byte W01
	.byte VOL, 28
	.byte W03
	.byte Cs0
	.byte N04
	.byte Dn2
	.byte W03
	.byte VOL, 22
	.byte W01
	.byte N04
	.byte Gn1
	.byte W02
	.byte VOL, 18
	.byte W02
	.byte N04
	.byte Bn1
	.byte W01
	.byte VOL, 14
	.byte W03
	.byte BnM2
	.byte N04
	.byte Cn2
	.byte W03
	.byte VOL, 8
	.byte W01
	.byte N04
	.byte Dn2
	.byte W02
	.byte VOL, 5
	.byte W02
	.byte N04
	.byte An1
	.byte W01
	.byte VOL, 1
	.byte W02
	.byte CnM2
	.byte W01

	.byte FINE

track_402_2:
	.byte KEYSH, 0
	.byte VOICE, 2
	.byte MOD, 0
	.byte VOL, 70
	.byte PAN, c_v
	.byte BENDR, 12
	.byte PRIO, 24
	.byte BEND, c_v
	.byte N24
	.byte Cn3, Gs5
	.byte W03
	.byte BEND, c_v+7
	.byte W03
	.byte Fs4
	.byte W03
	.byte Bn4
	.byte W03
	.byte Ds5
	.byte W03
	.byte Gn5
	.byte W03
	.byte An5
	.byte W03
	.byte Cn6
	.byte W03
	.byte Cs6
	.byte N24
	.byte W03
	.byte BEND, c_v+35
	.byte W09
	.byte Cs6
	.byte W03
	.byte Cn6
	.byte W03
	.byte An5
	.byte W03
	.byte Gn5
	.byte W03
	.byte Ds5
	.byte N24
	.byte W03
	.byte BEND, c_v+18
	.byte W03
	.byte Fn4
	.byte W03
	.byte Bn3
	.byte W03
	.byte Fn3
	.byte W03
	.byte As2
	.byte W03
	.byte Ds2
	.byte W03
	.byte Gn1
	.byte W03
	.byte Bn0
	.byte N24
	.byte W03
	.byte BEND, c_v-35
	.byte W03
	.byte Cs0
	.byte W03
	.byte AnM1
	.byte W03
	.byte FsM1
	.byte W03
	.byte DsM1
	.byte W03
	.byte DnM1
	.byte W03
	.byte CnM1
	.byte W03
	.byte BnM2
	.byte N24
	.byte W12
	.byte BEND, c_v-51
	.byte W03
	.byte DsM1
	.byte W03
	.byte FsM1
	.byte W03
	.byte AnM1
	.byte W03
	.byte Dn0
	.byte N24
	.byte W03
	.byte BEND, c_v-33
	.byte W03
	.byte Cs1
	.byte W03
	.byte Gn1
	.byte W03
	.byte Cs2
	.byte W03
	.byte Gn2
	.byte W03
	.byte Ds3
	.byte W03
	.byte Bn3
	.byte W03
	.byte Gn4
	.byte N24
	.byte W03
	.byte BEND, c_v+19
	.byte W03
	.byte Ds5
	.byte W03
	.byte Gn5
	.byte W03
	.byte An5
	.byte W03
	.byte Cn6
	.byte W03
	.byte Cs6
	.byte W03
	.byte Ds6
	.byte W03
	.byte Fn6
	.byte N24
	.byte W15
	.byte BEND, c_v+36
	.byte W03
	.byte Ds6
	.byte W03
	.byte Cs6
	.byte W03
	.byte Bn5
	.byte N24
	.byte W03
	.byte BEND, c_v+29
	.byte W03
	.byte Fn5
	.byte W03
	.byte Cs5
	.byte W03
	.byte An4
	.byte W03
	.byte Fn4
	.byte W03
	.byte Cs4
	.byte W03
	.byte Gn3
	.byte W03
	.byte VOICE, 3
	.byte VOL, 70
	.byte MOD, 40
	.byte LFOS, 60
	.byte BEND, c_v
	.byte N24
	.byte En2, Cn8
	.byte W06
	.byte VOL, 64
	.byte W06
	.byte As2
	.byte W06
	.byte En2
	.byte W06
	.byte As1
	.byte LFOS, 40
	.byte N24
	.byte W06
	.byte VOL, 40
	.byte W06
	.byte As0
	.byte W06
	.byte En0
	.byte W06
	.byte AsM1
	.byte LFOS, 20
	.byte N24
	.byte W06
	.byte VOL, 16
	.byte W06
	.byte AsM2
	.byte W06
	.byte EnM2
	.byte W05
	.byte CnM2
	.byte W01

	.byte FINE

.align 2

track_402:
	.byte 3
	.byte 0
	.byte 229
	.byte 0
	.word voice_group6
	.word track_402_0
	.word track_402_1
	.word track_402_2

.align 2
