.align 2

.global track_566

track_566_0:
	.byte KEYSH, 0
	.byte TEMPO, 75
	.byte VOICE, 18
	.byte VOL, 62
	.byte PAN, c_v+30
	.byte BENDR, 6
	.byte BEND, c_v+63
	.byte N60
	.byte An2, En6, CsM2
	.byte W01
	.byte BEND, c_v+61
	.byte W01
	.byte En8
	.byte W01
	.byte PAN, c_v+27
	.byte BEND, c_v+58
	.byte W01
	.byte Cs8
	.byte W01
	.byte Bn7
	.byte W01
	.byte PAN, c_v+24
	.byte BEND, c_v+54
	.byte W01
	.byte Gs7
	.byte W01
	.byte Fs7
	.byte W01
	.byte PAN, c_v+21
	.byte BEND, c_v+49
	.byte W01
	.byte Ds7
	.byte W01
	.byte Dn7
	.byte W01
	.byte PAN, c_v+18
	.byte BEND, c_v+44
	.byte W01
	.byte As6
	.byte W01
	.byte An6
	.byte W01
	.byte PAN, c_v+15
	.byte BEND, c_v+39
	.byte W01
	.byte Fs6
	.byte W01
	.byte En6
	.byte W01
	.byte PAN, c_v+12
	.byte BEND, c_v+35
	.byte W01
	.byte Cs6
	.byte W01
	.byte Bn5
	.byte W01
	.byte PAN, c_v+9
	.byte BEND, c_v+30
	.byte W01
	.byte Gs5
	.byte W01
	.byte Gn5
	.byte W01
	.byte PAN, c_v+6
	.byte BEND, c_v+25
	.byte W01
	.byte Ds5
	.byte W01
	.byte Dn5
	.byte W01
	.byte PAN, c_v+3
	.byte BEND, c_v+20
	.byte W01
	.byte Bn4
	.byte W01
	.byte An4
	.byte W01
	.byte PAN, c_v
	.byte BEND, c_v+16
	.byte W01
	.byte Fs4
	.byte W01
	.byte En4
	.byte W01
	.byte PAN, c_v-3
	.byte BEND, c_v+11
	.byte W01
	.byte Cs4
	.byte W01
	.byte Cn4
	.byte W01
	.byte PAN, c_v-6
	.byte BEND, c_v+6
	.byte W01
	.byte Gs3
	.byte W01
	.byte Gn3
	.byte W01
	.byte PAN, c_v-9
	.byte BEND, c_v+1
	.byte W01
	.byte En3
	.byte W01
	.byte Dn3
	.byte W01
	.byte PAN, c_v-12
	.byte BEND, c_v-3
	.byte W01
	.byte Bn2
	.byte W01
	.byte An2
	.byte W01
	.byte PAN, c_v-15
	.byte BEND, c_v-8
	.byte W01
	.byte Fs2
	.byte W01
	.byte Fn2
	.byte W01
	.byte PAN, c_v-18
	.byte BEND, c_v-13
	.byte W01
	.byte Cs2
	.byte W01
	.byte Cn2
	.byte W01
	.byte PAN, c_v-21
	.byte BEND, c_v-18
	.byte W01
	.byte VOL, 93
	.byte BEND, c_v-19
	.byte W01
	.byte VOL, 66
	.byte BEND, c_v-21
	.byte W01
	.byte PAN, c_v-24
	.byte VOL, 48
	.byte BEND, c_v-22
	.byte W01
	.byte VOL, 33
	.byte BEND, c_v-24
	.byte W01
	.byte VOL, 24
	.byte BEND, c_v-26
	.byte W01
	.byte PAN, c_v-27
	.byte VOL, 16
	.byte BEND, c_v-27
	.byte W01
	.byte VOL, 10
	.byte BEND, c_v-29
	.byte W01
	.byte VOL, 4
	.byte BEND, c_v-30
	.byte W01
	.byte PAN, c_v-30
	.byte VOL, 0
	.byte BEND, c_v-32
	.byte W01

	.byte FINE

track_566_1:
	.byte KEYSH, 0
	.byte VOICE, 12
	.byte VOL, 94
	.byte PAN, c_v+30
	.byte BENDR, 4
	.byte BEND, c_v
	.byte N60
	.byte Cn3, Cn8, CsM2
	.byte W03
	.byte PAN, c_v+27
	.byte W03
	.byte En5
	.byte W03
	.byte Cs5
	.byte W03
	.byte As4
	.byte BEND, c_v
	.byte W01
	.byte Ds3
	.byte W01
	.byte Ds3
	.byte W01
	.byte PAN, c_v+15
	.byte BEND, c_v-2
	.byte W01
	.byte Cs3
	.byte W01
	.byte Cs3
	.byte W01
	.byte PAN, c_v+12
	.byte BEND, c_v-4
	.byte W01
	.byte Bn2
	.byte W01
	.byte Bn2
	.byte W01
	.byte PAN, c_v+9
	.byte BEND, c_v-6
	.byte W01
	.byte An2
	.byte W01
	.byte An2
	.byte W01
	.byte PAN, c_v+6
	.byte BEND, c_v-8
	.byte W01
	.byte Gn2
	.byte W01
	.byte Gn2
	.byte W01
	.byte PAN, c_v+3
	.byte BEND, c_v-10
	.byte W01
	.byte Fn2
	.byte W01
	.byte Fn2
	.byte W01
	.byte PAN, c_v
	.byte BEND, c_v-12
	.byte W01
	.byte Ds2
	.byte W01
	.byte Ds2
	.byte W01
	.byte PAN, c_v-3
	.byte BEND, c_v-14
	.byte W01
	.byte Cs2
	.byte W01
	.byte Cs2
	.byte W01
	.byte PAN, c_v-6
	.byte BEND, c_v-16
	.byte W01
	.byte Bn1
	.byte W01
	.byte Bn1
	.byte W01
	.byte PAN, c_v-9
	.byte BEND, c_v-18
	.byte W01
	.byte An1
	.byte W01
	.byte An1
	.byte W01
	.byte PAN, c_v-12
	.byte BEND, c_v-20
	.byte W01
	.byte Gn1
	.byte W01
	.byte Gn1
	.byte W01
	.byte PAN, c_v-15
	.byte BEND, c_v-22
	.byte W01
	.byte Fn1
	.byte W01
	.byte Fn1
	.byte W01
	.byte PAN, c_v-18
	.byte BEND, c_v-24
	.byte W01
	.byte Ds1
	.byte W01
	.byte Ds1
	.byte W01
	.byte PAN, c_v-21
	.byte BEND, c_v-26
	.byte W01
	.byte VOL, 93
	.byte BEND, c_v-27
	.byte W01
	.byte VOL, 66
	.byte BEND, c_v-27
	.byte W01
	.byte PAN, c_v-24
	.byte VOL, 48
	.byte BEND, c_v-28
	.byte W01
	.byte VOL, 33
	.byte BEND, c_v-29
	.byte W01
	.byte VOL, 24
	.byte BEND, c_v-29
	.byte W01
	.byte PAN, c_v-27
	.byte VOL, 16
	.byte BEND, c_v-30
	.byte W01
	.byte VOL, 10
	.byte BEND, c_v-31
	.byte W01
	.byte VOL, 4
	.byte BEND, c_v-31
	.byte W01
	.byte PAN, c_v-30
	.byte VOL, 0
	.byte BEND, c_v-32
	.byte W01

	.byte FINE

.align 2

track_566:
	.byte 2
	.byte 0
	.byte 229
	.byte 0
	.word voice_group17
	.word track_566_0
	.word track_566_1

.align 2
