.include "audio/m_play_def.s"

.align 2

.section .rodata
.global track_283

track_283_0:
	.byte KEYSH, 0
	.byte TEMPO, 75
	.byte VOICE, 23
	.byte VOL, 0
	.byte PAN, c_v
	.byte TIE
	.byte Gn1, En6
	.byte W02
	.byte VOL, 8
	.byte W02
	.byte EnM1
	.byte W02
	.byte AsM1
	.byte W02
	.byte En0
	.byte W02
	.byte As0
	.byte W02
	.byte Dn1
	.byte W02
	.byte Fs1
	.byte W02
	.byte As1
	.byte W02
	.byte Cn2
	.byte W02
	.byte Dn2
	.byte W02
	.byte Ds2
	.byte W04
	.byte En2
	.byte W02
	.byte Ds2
	.byte W04
	.byte Ds2
	.byte W02
	.byte Dn2
	.byte W02
	.byte Cn2
	.byte W02
	.byte As1
	.byte W02
	.byte Gs1
	.byte W02
	.byte Fs1
	.byte W02
	.byte Dn1
	.byte W02
	.byte Cn1
	.byte W02
	.byte An0
	.byte W02
	.byte Fn0
	.byte W02
	.byte Cs0
	.byte W02
	.byte AnM1
	.byte W04
	.byte GnM1
	.byte W02
	.byte FsM1
	.byte W02
	.byte AnM1
	.byte W02
	.byte Cs0
	.byte W02
	.byte En0
	.byte W02
	.byte Fs0
	.byte W02
	.byte Gs0
	.byte W02
	.byte As0
	.byte W02
	.byte As0
	.byte W02
	.byte Bn0
	.byte W02
	.byte Cn1
	.byte W04
	.byte Cs1
	.byte W04
	.byte An0
	.byte W02
	.byte Fn0
	.byte W02
	.byte Cs0
	.byte W02
	.byte AsM1
	.byte W02
	.byte GnM1
	.byte W02
	.byte EnM1
	.byte W02
	.byte DnM1
	.byte W02
	.byte CnM1
	.byte W02
	.byte AsM2
	.byte W02
	.byte GsM2
	.byte W02
	.byte FsM2
	.byte W02
	.byte FnM2
	.byte W02
	.byte EnM2
	.byte W02
	.byte DnM2
	.byte W04
	.byte CnM2
	.byte W02
	.byte CnM2
	.byte W02
	.byte EOT

	.byte FINE

track_283_1:
	.byte KEYSH, 0
	.byte VOICE, 23
	.byte VOL, 0
	.byte PAN, c_v
	.byte TIE
	.byte Bn1, Gs4
	.byte W02
	.byte VOL, 3
	.byte W02
	.byte FsM2
	.byte W02
	.byte AsM2
	.byte W02
	.byte DnM1
	.byte W02
	.byte FnM1
	.byte W02
	.byte AsM1
	.byte W02
	.byte Ds0
	.byte W02
	.byte An0
	.byte W02
	.byte Dn1
	.byte W02
	.byte An1
	.byte W02
	.byte Fn2
	.byte W02
	.byte Ds4
	.byte W02
	.byte Gs3
	.byte W02
	.byte En3
	.byte W02
	.byte Bn2
	.byte W02
	.byte Fn2
	.byte W02
	.byte Dn2
	.byte W02
	.byte As1
	.byte W02
	.byte Fs1
	.byte W02
	.byte Dn1
	.byte W02
	.byte Cn1
	.byte W02
	.byte An0
	.byte W02
	.byte Gn0
	.byte W02
	.byte Fn0
	.byte W02
	.byte Ds0
	.byte W02
	.byte Cs0
	.byte W02
	.byte BnM1
	.byte W02
	.byte AnM1
	.byte W02
	.byte GnM1
	.byte W02
	.byte FsM1
	.byte W02
	.byte AsM1
	.byte W02
	.byte Cs0
	.byte W02
	.byte En0
	.byte W02
	.byte Gn0
	.byte W02
	.byte An0
	.byte W02
	.byte As0
	.byte W02
	.byte As0
	.byte W02
	.byte Cn1
	.byte W06
	.byte Cs1
	.byte W04
	.byte An0
	.byte W02
	.byte Fn0
	.byte W02
	.byte Cs0
	.byte W02
	.byte AnM1
	.byte W02
	.byte GnM1
	.byte W02
	.byte EnM1
	.byte W02
	.byte DnM1
	.byte W02
	.byte CnM1
	.byte W02
	.byte AsM2
	.byte W02
	.byte GsM2
	.byte W02
	.byte FsM2
	.byte W02
	.byte FnM2
	.byte W02
	.byte EnM2
	.byte W02
	.byte DnM2
	.byte W04
	.byte CnM2
	.byte W02
	.byte CnM2
	.byte W02
	.byte EOT

	.byte FINE

track_283_2:
	.byte KEYSH, 0
	.byte VOICE, 23
	.byte VOL, 0
	.byte PAN, c_v
	.byte TIE
	.byte Cn2, Cn3
	.byte W02
	.byte VOL, 2
	.byte W02
	.byte EnM2
	.byte W02
	.byte GnM2
	.byte W02
	.byte AsM2
	.byte W02
	.byte CnM1
	.byte W02
	.byte DnM1
	.byte W02
	.byte FnM1
	.byte W02
	.byte GnM1
	.byte W02
	.byte BnM1
	.byte W02
	.byte Cs0
	.byte W02
	.byte Fn0
	.byte W02
	.byte An0
	.byte W02
	.byte Cn1
	.byte W02
	.byte En1
	.byte W02
	.byte As1
	.byte W02
	.byte Ds2
	.byte W02
	.byte As2
	.byte W02
	.byte Ds4
	.byte W02
	.byte Gn3
	.byte W02
	.byte Cn3
	.byte W02
	.byte Fn2
	.byte W02
	.byte Cn2
	.byte W02
	.byte Gn1
	.byte W02
	.byte Dn1
	.byte W02
	.byte As0
	.byte W02
	.byte Gn0
	.byte W02
	.byte Ds0
	.byte W02
	.byte Cn0
	.byte W02
	.byte AnM1
	.byte W02
	.byte FsM1
	.byte W02
	.byte AsM1
	.byte W02
	.byte Cs0
	.byte W02
	.byte En0
	.byte W02
	.byte Gn0
	.byte W02
	.byte An0
	.byte W02
	.byte As0
	.byte W02
	.byte As0
	.byte W02
	.byte Cn1
	.byte W06
	.byte Cs1
	.byte W04
	.byte An0
	.byte W02
	.byte Fn0
	.byte W02
	.byte Cn0
	.byte W02
	.byte AnM1
	.byte W02
	.byte FnM1
	.byte W02
	.byte EnM1
	.byte W02
	.byte CsM1
	.byte W02
	.byte AsM2
	.byte W02
	.byte AnM2
	.byte W02
	.byte GsM2
	.byte W02
	.byte FsM2
	.byte W02
	.byte EnM2
	.byte W04
	.byte DnM2
	.byte W04
	.byte CnM2
	.byte W02
	.byte CnM2
	.byte W02
	.byte EOT

	.byte FINE

.align 2

track_283:
	.byte 3
	.byte 0
	.byte 251
	.byte 0
	.word voice_group4
	.word track_283_0
	.word track_283_1
	.word track_283_2

.align 2
