.align 2

.global track_576

track_576_0:
	.byte KEYSH, 0
	.byte TEMPO, 75
	.byte VOICE, 25
	.byte VOL, 100
	.byte PAN, c_v-20
	.byte N05
	.byte Cn3, En7
	.byte W05
	.byte N14
	.byte En3, Gn8
	.byte W14
	.byte N13
	.byte Dn3, Cn3
	.byte W23
	.byte VOL, 84
	.byte W02
	.byte Cn4
	.byte W02
	.byte Dn3
	.byte W02
	.byte En2
	.byte N05
	.byte En3, En7
	.byte W02
	.byte VOL, 44
	.byte W02
	.byte Cs1
	.byte W01
	.byte N14
	.byte Dn3, Gn8
	.byte W01
	.byte VOL, 32
	.byte W02
	.byte Cs0
	.byte W02
	.byte AsM1
	.byte W02
	.byte FsM1
	.byte W02
	.byte DnM1
	.byte W02
	.byte BnM2
	.byte W02
	.byte GnM2
	.byte W01
	.byte N13
	.byte Fn3, Cn3
	.byte W01
	.byte VOL, 5
	.byte W02
	.byte DsM2
	.byte W02
	.byte CnM2
	.byte W24
	.byte N05
	.byte En3, En7
	.byte W05
	.byte N14
	.byte Cn3, Gn8
	.byte W14

	.byte FINE

track_576_1:
	.byte KEYSH, 0
	.byte W24
	.byte VOICE, 24
	.byte VOL, 100
	.byte PAN, c_v-20
	.byte N03
	.byte Bn2, En7
	.byte W03
	.byte VOICE, 27
	.byte N06
	.byte W06
	.byte N21
	.byte Cn3, Gs5
	.byte W09
	.byte VOL, 84
	.byte W02
	.byte Cn4
	.byte W02
	.byte Dn3
	.byte W02
	.byte En2
	.byte W02
	.byte Gs1
	.byte W02
	.byte Cs1
	.byte W02
	.byte Gs0
	.byte W02
	.byte Cs0
	.byte W02
	.byte AsM1
	.byte W02
	.byte FsM1
	.byte W02
	.byte DnM1
	.byte W02
	.byte BnM2
	.byte W02
	.byte GnM2
	.byte W02
	.byte FnM2
	.byte W02
	.byte DsM2
	.byte W02
	.byte VOICE, 24
	.byte VOL, 0
	.byte N03
	.byte Cn3, En7
	.byte W03
	.byte VOICE, 27
	.byte N07
	.byte W07
	.byte N21
	.byte Dn3, Gs5
	.byte W14
	.byte W07

	.byte FINE

track_576_2:
	.byte KEYSH, 0
	.byte W04
	.byte VOICE, 26
	.byte VOL, 100
	.byte PAN, c_v
	.byte PRIO, 22
	.byte N05
	.byte Gs2, En6
	.byte W05
	.byte N10
	.byte Gs2, Gn8
	.byte W10

	.byte FINE

track_576_3:
	.byte KEYSH, 0
	.byte W32
	.byte W02
	.byte VOICE, 29
	.byte VOL, 87
	.byte PAN, c_v
	.byte N14
	.byte Cn3, Gn8
	.byte W08
	.byte VOL, 84
	.byte W02
	.byte Cn4
	.byte W02
	.byte Dn3
	.byte W02
	.byte En2
	.byte N14
	.byte Cn3, Gs0
	.byte W02
	.byte VOL, 44
	.byte W02
	.byte Cs1
	.byte W02
	.byte Gs0
	.byte W02
	.byte Cs0
	.byte W02
	.byte AsM1
	.byte W02
	.byte FsM1
	.byte W02
	.byte DnM1
	.byte N18
	.byte Cn3, CnM1
	.byte W02
	.byte VOL, 11
	.byte W02
	.byte GnM2
	.byte W02
	.byte FnM2
	.byte W02
	.byte DsM2
	.byte W02
	.byte CnM2
	.byte W10
	.byte VOICE, 29
	.byte N14
	.byte Cn3, Gn8
	.byte W14
	.byte Cn3, Gs0
	.byte W14
	.byte N18
	.byte Cn3, CnM1
	.byte W18

	.byte FINE

track_576_4:
	.byte KEYSH, 0
	.byte W15
	.byte VOICE, 30
	.byte VOL, 87
	.byte PAN, c_v
	.byte N05
	.byte Cn3, En6
	.byte W05
	.byte N14
	.byte En3, Gn8
	.byte W14
	.byte N13
	.byte Dn3, En2
	.byte W08
	.byte VOL, 84
	.byte W02
	.byte Cn4
	.byte W02
	.byte Dn3
	.byte W01
	.byte VOICE, 29
	.byte N18
	.byte Cn3, GsM1
	.byte W01
	.byte VOL, 52
	.byte W02
	.byte Gs1
	.byte W02
	.byte Cs1
	.byte W02
	.byte Gs0
	.byte W02
	.byte Cs0
	.byte W02
	.byte AsM1
	.byte W02
	.byte FsM1
	.byte W02
	.byte DnM1
	.byte W02
	.byte BnM2
	.byte W02
	.byte GnM2
	.byte W01
	.byte VOICE, 30
	.byte N05
	.byte Cn3, En6
	.byte W01
	.byte VOL, 5
	.byte W02
	.byte DsM2
	.byte W02
	.byte CnM2
	.byte N14
	.byte En3, Gn8
	.byte W14
	.byte N13
	.byte Dn3, En2
	.byte W10
	.byte W03
	.byte VOICE, 29
	.byte N18
	.byte Cn3, GsM1
	.byte W18

	.byte FINE

track_576_5:
	.byte KEYSH, 0
	.byte W07
	.byte VOICE, 28
	.byte VOL, 100
	.byte PAN, c_v
	.byte N24
	.byte An2, Gn8, DsM2
	.byte W24
	.byte W03
	.byte An2, Cn8, DsM2
	.byte W08
	.byte VOL, 84
	.byte W02
	.byte Cn4
	.byte W02
	.byte Dn3
	.byte W02
	.byte En2
	.byte W02
	.byte Gs1
	.byte W02
	.byte Cs1
	.byte W02
	.byte Gs0
	.byte W02
	.byte Cs0
	.byte W02
	.byte AsM1
	.byte W02
	.byte FsM1
	.byte W02
	.byte DnM1
	.byte W01
	.byte N24
	.byte An2, Gs4, DsM2
	.byte W01
	.byte VOL, 11
	.byte W02
	.byte GnM2
	.byte W02
	.byte FnM2
	.byte W02
	.byte DsM2
	.byte W02
	.byte CnM2
	.byte W18

	.byte FINE

.align 2

track_576:
	.byte 6
	.byte 0
	.byte 228
	.byte 0
	.word voice_group17
	.word track_576_0
	.word track_576_1
	.word track_576_2
	.word track_576_3
	.word track_576_4
	.word track_576_5

.align 2
