.align 2

.global track_580

track_580_0:
	.byte KEYSH, 0
	.byte TEMPO, 75
	.byte VOICE, 38
	.byte VOL, 70
	.byte PAN, c_v
	.byte BENDR, 24
	.byte BEND, c_v
	.byte TIE
	.byte An2, Gn8
	.byte W48
	.byte BEND, c_v
	.byte W03
	.byte Ds3
	.byte W03
	.byte Cs3
	.byte W03
	.byte Cn3
	.byte W03
	.byte As2
	.byte W03
	.byte An2
	.byte W03
	.byte Gn2
	.byte W03
	.byte Fs2
	.byte W03
	.byte En2
	.byte W03
	.byte Ds2
	.byte W03
	.byte Dn2
	.byte W03
	.byte Cn2
	.byte W03
	.byte Bn1
	.byte W03
	.byte An1
	.byte W03
	.byte Gs1
	.byte W03
	.byte Fs1
	.byte W03
	.byte Fn1
	.byte W03
	.byte En1
	.byte W03
	.byte Dn1
	.byte W03
	.byte Cs1
	.byte W03
	.byte Bn0
	.byte W03
	.byte As0
	.byte W03
	.byte Gs0
	.byte W03
	.byte Gn0
	.byte W03
	.byte Fn0
	.byte W03
	.byte En0
	.byte W03
	.byte Ds0
	.byte W03
	.byte Cs0
	.byte W03
	.byte Cn0
	.byte W03
	.byte AsM1
	.byte W03
	.byte AnM1
	.byte W03
	.byte GnM1
	.byte W03
	.byte FsM1
	.byte W03
	.byte EnM1
	.byte W03
	.byte DsM1
	.byte W03
	.byte DnM1
	.byte W03
	.byte CnM1
	.byte W03
	.byte BnM2
	.byte W03
	.byte AnM2
	.byte W03
	.byte GsM2
	.byte W03
	.byte FsM2
	.byte W03
	.byte FnM2
	.byte W03
	.byte DsM2
	.byte W03
	.byte DnM2
	.byte W05
	.byte VOL, 63
	.byte W02
	.byte As2
	.byte W02
	.byte Fn2
	.byte W02
	.byte Cn2
	.byte W02
	.byte Gs1
	.byte W02
	.byte En1
	.byte W02
	.byte Cn1
	.byte W02
	.byte An0
	.byte W02
	.byte Fs0
	.byte W02
	.byte Ds0
	.byte W02
	.byte Cn0
	.byte W02
	.byte AsM1
	.byte W02
	.byte GsM1
	.byte W02
	.byte FsM1
	.byte W02
	.byte FnM1
	.byte W02
	.byte DnM1
	.byte W02
	.byte CsM1
	.byte W02
	.byte CnM1
	.byte W02
	.byte AsM2
	.byte W02
	.byte AnM2
	.byte W02
	.byte GsM2
	.byte W02
	.byte GnM2
	.byte W02
	.byte FsM2
	.byte W02
	.byte EnM2
	.byte W02
	.byte EnM2
	.byte W02
	.byte DsM2
	.byte W02
	.byte DnM2
	.byte W02
	.byte CsM2
	.byte W02
	.byte CnM2
	.byte W01
	.byte CnM2
	.byte W01
	.byte EOT

	.byte FINE

track_580_1:
	.byte KEYSH, 0
	.byte VOICE, 39
	.byte VOL, 0
	.byte PAN, c_v
	.byte BENDR, 24
	.byte TIE
	.byte Cn3, Gn8
	.byte W56
	.byte W02
	.byte VOL, 0
	.byte W02
	.byte CsM2
	.byte W02
	.byte DnM2
	.byte W02
	.byte DsM2
	.byte W02
	.byte FsM2
	.byte W02
	.byte GsM2
	.byte W02
	.byte AsM2
	.byte W02
	.byte CnM1
	.byte W02
	.byte DnM1
	.byte W02
	.byte FnM1
	.byte W02
	.byte GsM1
	.byte W02
	.byte BnM1
	.byte W02
	.byte Ds0
	.byte W02
	.byte Gs0
	.byte W02
	.byte Cn1
	.byte W02
	.byte Fs1
	.byte W02
	.byte Cs2
	.byte W02
	.byte Gn2
	.byte W02
	.byte Dn3
	.byte W02
	.byte As3
	.byte W84
	.byte W02
	.byte Ds3
	.byte W02
	.byte As2
	.byte W02
	.byte Fn2
	.byte W02
	.byte Cn2
	.byte W02
	.byte Gs1
	.byte W02
	.byte En1
	.byte W02
	.byte Cn1
	.byte W02
	.byte An0
	.byte W02
	.byte Fs0
	.byte W02
	.byte Ds0
	.byte W02
	.byte Cn0
	.byte W02
	.byte AsM1
	.byte W02
	.byte GsM1
	.byte W02
	.byte FsM1
	.byte W02
	.byte FnM1
	.byte W02
	.byte DnM1
	.byte W02
	.byte CsM1
	.byte W02
	.byte CnM1
	.byte W02
	.byte AsM2
	.byte W02
	.byte AnM2
	.byte W02
	.byte GsM2
	.byte W02
	.byte GnM2
	.byte W02
	.byte FsM2
	.byte W02
	.byte EnM2
	.byte W02
	.byte EnM2
	.byte W02
	.byte DsM2
	.byte W02
	.byte DnM2
	.byte W02
	.byte CsM2
	.byte W02
	.byte CnM2
	.byte W01
	.byte CnM2
	.byte W01
	.byte EOT

	.byte FINE

track_580_2:
	.byte KEYSH, 0
	.byte VOICE, 12
	.byte VOL, 22
	.byte MOD, 30
	.byte PAN, c_v+26
	.byte LFOS, 10
	.byte MODT, mod_tre
	.byte VOL, 22
	.byte TIE
	.byte Gn2, Gs4
	.byte W02
	.byte VOL, 23
	.byte W01
	.byte Cn0
	.byte W01
	.byte Cs0
	.byte W01
	.byte Ds0
	.byte W01
	.byte En0
	.byte W01
	.byte Fn0
	.byte W01
	.byte Fs0
	.byte W01
	.byte Gs0
	.byte W01
	.byte As0
	.byte W01
	.byte Cn1
	.byte W01
	.byte Ds1
	.byte W01
	.byte Fs1
	.byte W01
	.byte As1
	.byte W01
	.byte Dn2
	.byte W01
	.byte Fs2
	.byte W80
	.byte W84
	.byte W03
	.byte Cs2
	.byte W03
	.byte Gs1
	.byte W03
	.byte Ds1
	.byte W03
	.byte As0
	.byte W03
	.byte Gn0
	.byte W03
	.byte Ds0
	.byte W03
	.byte Cn0
	.byte W03
	.byte AnM1
	.byte W03
	.byte FsM1
	.byte W03
	.byte DsM1
	.byte W03
	.byte CsM1
	.byte W03
	.byte CnM1
	.byte W03
	.byte AnM2
	.byte W03
	.byte GsM2
	.byte W03
	.byte FsM2
	.byte W03
	.byte EnM2
	.byte W03
	.byte DsM2
	.byte W03
	.byte DnM2
	.byte W03
	.byte CnM2
	.byte W01
	.byte CnM2
	.byte W02
	.byte EOT

	.byte FINE

.align 2

track_580:
	.byte 3
	.byte 0
	.byte 229
	.byte 0
	.word voice_group17
	.word track_580_0
	.word track_580_1
	.word track_580_2

.align 2
