.include "audio/m_play_def.s"

.align 2

.section .rodata
.global track_14

track_14_0:
	.byte KEYSH, 0
	.byte TEMPO, 28
	.byte PRIO, 120
	.byte W96
	.byte W96
track_14_lbl_22f06c:
	.byte VOICE, 29
	.byte VOL, 48
	.byte PAN, c_v+15
	.byte N44
	.byte Bn3, Gs4
	.byte W48
	.byte N24
	.byte Cn4, En4
	.byte W24
	.byte Gn3, En3
	.byte W24
	.byte Gs3
	.byte W24
	.byte Fn3, Cn3
	.byte W24
	.byte Gn3, Gs2
	.byte W24
	.byte Ds3, Gs1
	.byte W24
	.byte Fn3, En7
	.byte W24
	.byte Dn3
	.byte W24
	.byte Ds3, Gs6
	.byte W24
	.byte N96
	.byte Gn2, Gn8
	.byte W24
	.byte W96
	.byte N24
	.byte As3, En5
	.byte W24
	.byte Gs3
	.byte W24
	.byte N96
	.byte Gn3
	.byte W48
	.byte W96
	.byte N24
	.byte Fn3, Gs6
	.byte W24
	.byte Dn3
	.byte W24
	.byte Ds3
	.byte W24
	.byte TIE
	.byte Gn2
	.byte W24
	.byte W96
	.byte W24
	.byte EOT
	.byte W72
	.byte N48
	.byte Dn4, En5
	.byte W48
	.byte N24
	.byte Ds4
	.byte W24
	.byte Bn3
	.byte W24
	.byte Cn4
	.byte W24
	.byte Gn3
	.byte W24
	.byte As3
	.byte W24
	.byte Gs3
	.byte W24
	.byte N96
	.byte Gn3
	.byte W96
	.byte W24
	.byte N24
	.byte Fn3, Cn8
	.byte W24
	.byte Dn3
	.byte W24
	.byte Ds3
	.byte W24
	.byte N96
	.byte Gn2, Gn8
	.byte W96
	.byte GOTO
		.word track_14_lbl_22f06c

	.byte FINE

track_14_1:
	.byte KEYSH, 0
	.byte W96
	.byte W96
track_14_lbl_22f0d9:
	.byte VOICE, 27
	.byte VOL, 37
	.byte PAN, c_v-17
	.byte PRIO, 119
	.byte N44
	.byte Bn1, Gs4
	.byte W48
	.byte N24
	.byte Cn2, Gs5
	.byte W24
	.byte Gn1
	.byte W24
	.byte VOICE, 60
	.byte N24
	.byte Gs1
	.byte W24
	.byte Fn1, En5
	.byte W24
	.byte Gn1, Cn5
	.byte W24
	.byte Ds1, Cn4
	.byte W24
	.byte Fn1, Gn8
	.byte W24
	.byte Dn1
	.byte W24
	.byte Ds1
	.byte W24
	.byte N96
	.byte Gn0
	.byte W24
	.byte W96
	.byte N24
	.byte As1, En5
	.byte W24
	.byte Gs1, Gs6
	.byte W24
	.byte TIE
	.byte Gn1
	.byte W48
	.byte W72
	.byte EOT
	.byte W24
	.byte N24
	.byte Fn1
	.byte W24
	.byte Dn1
	.byte W24
	.byte Ds1
	.byte W24
	.byte TIE
	.byte Gn0
	.byte W24
	.byte W96
	.byte W72
	.byte EOT
	.byte W24
	.byte N48
	.byte Dn2, En5
	.byte W48
	.byte N24
	.byte Ds2
	.byte W24
	.byte Bn1
	.byte W24
	.byte Cn2
	.byte W24
	.byte Gn1
	.byte W24
	.byte As1
	.byte W24
	.byte Gs1
	.byte W24
	.byte N96
	.byte Gn1
	.byte W96
	.byte N24
	.byte Fn1, Gn8
	.byte W24
	.byte Dn1
	.byte W24
	.byte Ds1
	.byte W24
	.byte TIE
	.byte Gn0
	.byte W24
	.byte W96
	.byte EOT
	.byte GOTO
		.word track_14_lbl_22f0d9

	.byte FINE

track_14_2:
	.byte KEYSH, 0
	.byte VOICE, 27
	.byte VOL, 80
	.byte PAN, c_v+20
	.byte PRIO, 118
	.byte N24
	.byte Cn1, Gn8
	.byte W48
	.byte N24
	.byte W48
track_14_lbl_22f156:
	.byte N24
	.byte Cn1, Gn8
	.byte W48
	.byte N24
	.byte W48
	.byte PEND
track_14_lbl_22f15d:
	.byte PATT
		.word track_14_lbl_22f156
	.byte PATT
		.word track_14_lbl_22f156
	.byte PATT
		.word track_14_lbl_22f156
	.byte PATT
		.word track_14_lbl_22f156
	.byte PATT
		.word track_14_lbl_22f156
	.byte PATT
		.word track_14_lbl_22f156
	.byte PATT
		.word track_14_lbl_22f156
	.byte PATT
		.word track_14_lbl_22f156
	.byte PATT
		.word track_14_lbl_22f156
	.byte PATT
		.word track_14_lbl_22f156
	.byte PATT
		.word track_14_lbl_22f156
	.byte PATT
		.word track_14_lbl_22f156
	.byte PATT
		.word track_14_lbl_22f156
	.byte PATT
		.word track_14_lbl_22f156
	.byte GOTO
		.word track_14_lbl_22f15d

	.byte FINE

track_14_3:
	.byte KEYSH, 0
	.byte PRIO, 30
	.byte W01
	.byte VOICE, 4
	.byte VOL, 59
	.byte PAN, c_v-22
	.byte N28
	.byte Cn1, En6
	.byte W48
	.byte N28
	.byte W44
	.byte W03
track_14_lbl_22f1bb:
	.byte W01
	.byte N28
	.byte Cn1, En6
	.byte W48
	.byte N28
	.byte W44
	.byte W03
	.byte PEND
track_14_lbl_22f1c4:
	.byte PATT
		.word track_14_lbl_22f1bb
	.byte PATT
		.word track_14_lbl_22f1bb
	.byte PATT
		.word track_14_lbl_22f1bb
	.byte PATT
		.word track_14_lbl_22f1bb
	.byte PATT
		.word track_14_lbl_22f1bb
	.byte PATT
		.word track_14_lbl_22f1bb
	.byte PATT
		.word track_14_lbl_22f1bb
	.byte PATT
		.word track_14_lbl_22f1bb
	.byte PATT
		.word track_14_lbl_22f1bb
	.byte PATT
		.word track_14_lbl_22f1bb
	.byte PATT
		.word track_14_lbl_22f1bb
	.byte PATT
		.word track_14_lbl_22f1bb
	.byte PATT
		.word track_14_lbl_22f1bb
	.byte PATT
		.word track_14_lbl_22f1bb
	.byte GOTO
		.word track_14_lbl_22f1c4

	.byte FINE

.align 2

track_14:
	.byte 4
	.byte 0
	.byte 130
	.byte 0
	.word voice_group0
	.word track_14_0
	.word track_14_1
	.word track_14_2
	.word track_14_3

.align 2
