.align 2

.global track_18

track_18_0:
	.byte KEYSH, 0
	.byte TEMPO, 28
	.byte VOICE, 28
	.byte VOL, 62
	.byte PAN, c_v+10
	.byte W72
	.byte VOICE, 27
	.byte N12, Gn1, v072
	.byte W12
	.byte Dn2, v092 @ N12
	.byte W12
	.byte N36, Dn2, v112
	.byte W48
	.byte VOICE, 28
	.byte N08, Dn2, v072
	.byte W08
	.byte En2, v076 @ N08
	.byte W08
	.byte Dn2, v080 @ N08
	.byte W08
	.byte N12, Cn2, v084
	.byte W12
	.byte Dn2, v092 @ N12
	.byte W12
	.byte As1, v096 @ N12
	.byte W12
	.byte Cn2, v104 @ N12
	.byte W12
	.byte N60, An1, v112
	.byte W72
	.byte N12, Gn1, v072
	.byte W12
	.byte Dn2, v076 @ N12
	.byte W12
	.byte N36 @ Dn2, v076
	.byte W48
	.byte N08, Dn2, v092
	.byte W08
	.byte En2 @ N08, v092
	.byte W08
	.byte Dn2, v096 @ N08
	.byte W08
	.byte VOICE, 27
	.byte N12, Cn2 @ v096
	.byte W12
	.byte Dn2, v100 @ N12
	.byte W12
	.byte As1, v104 @ N12
	.byte W12
	.byte Cn2, v108 @ N12
	.byte W12
	.byte N48, Dn2, v112
	.byte W48
	.byte W24
	.byte TEMPO, 45
	.byte W72
	.byte W96
	.byte W96
	.byte W96
	.byte W96
	.byte W48
	.byte FINE

track_18_1:
	.byte KEYSH, 0
	.byte VOICE, 14
	.byte VOL, 62
	.byte PAN, c_v-10
	.byte W72
	.byte N12, Gn3, v072
	.byte W12
	.byte N48, Dn4, v112
	.byte W12
	.byte W48
	.byte N24 @ Dn4, v112
	.byte W24
	.byte N20, Cn4, v072
	.byte W24
	.byte As3 @ N20, v072
	.byte W24
	.byte N60, An3, v060
	.byte W72
	.byte N12, Gn3, v072
	.byte W12
	.byte N48, Dn4, v112
	.byte W60
	.byte N24, Dn4, v060
	.byte W24
	.byte N20, Cn4, v040
	.byte W24
	.byte As3, v060 @ N20
	.byte W24
	.byte N48, Dn4, v052
	.byte W48
	.byte W96
	.byte W96
	.byte W96
	.byte W96
	.byte W96
	.byte W48
	.byte FINE

track_18_2:
	.byte KEYSH, 0
	.byte W96
	.byte W96
	.byte W96
	.byte W96
	.byte W96
	.byte W24
	.byte VOICE, 63
	.byte VOL, 61
	.byte PAN, c_v+15
	.byte N24, En5, v052
	.byte W24
	.byte An4, v056 @ N24
	.byte W24
	.byte Fn5, v064 @ N24
	.byte W24
	.byte N12, En5, v068
	.byte W12
	.byte Dn5, v072 @ N12
	.byte W12
	.byte N24, Cn5 @ v072
	.byte W24
	.byte Dn5, v080 @ N24
	.byte W24
	.byte En5, v084 @ N24
	.byte W24
	.byte N12, Dn5, v092
	.byte W12
	.byte En5 @ N12, v092
	.byte W12
	.byte Fn5, v088 @ N12
	.byte W12
	.byte En5 @ N12, v088
	.byte W12
	.byte Dn5 @ N12, v088
	.byte W12
	.byte Cn5 @ N12, v088
	.byte W12
	.byte N24, Bn4, v084
	.byte W24
	.byte An5 @ N24, v084
	.byte W24
	.byte Gn5, v080 @ N24
	.byte W48
	.byte N72, En5 @ v080
	.byte W24
	.byte W96
	.byte W48
	.byte FINE

track_18_3:
	.byte KEYSH, 0
	.byte W96
	.byte W96
	.byte W96
	.byte W96
	.byte W96
	.byte W24
	.byte VOICE, 63
	.byte VOL, 61
	.byte PAN, c_v-17
	.byte N12, An3, v052
	.byte W12
	.byte En4 @ N12, v052
	.byte W12
	.byte Cn4, v056 @ N12
	.byte W12
	.byte En4, v060 @ N12
	.byte W12
	.byte Fn3, v064 @ N12
	.byte W12
	.byte An3 @ N12, v064
	.byte W12
	.byte Cn4, v068 @ N12
	.byte W12
	.byte En4, v072 @ N12
	.byte W12
	.byte N09, An3 @ v072
	.byte N08, Cn4 @ v072
	.byte W12
	.byte En4, v076 @ N08
	.byte W12
	.byte N10, Bn3, v080
	.byte N11, Dn4 @ v080
	.byte W12
	.byte Fn4, v084 @ N11
	.byte W12
	.byte N23, Cn4 @ v084
	.byte N24, En4 @ v084
	.byte W12
	.byte N18, Gn4, v088
	.byte W12
	.byte W24
	.byte N12, Fn3 @ v088
	.byte W12
	.byte An3 @ N12, v088
	.byte W12
	.byte Cn4 @ N12, v088
	.byte W12
	.byte En4 @ N12, v088
	.byte W12
	.byte Bn3, v084 @ N12
	.byte W12
	.byte Dn4 @ N12, v084
	.byte W12
	.byte Fn4 @ N12, v084
	.byte W12
	.byte An4 @ N12, v084
	.byte W12
	.byte An3, v080 @ N12
	.byte W12
	.byte Cn4 @ N12, v080
	.byte W12
	.byte En4 @ N12, v080
	.byte W12
	.byte Gn4 @ N12, v080
	.byte W36
	.byte W96
	.byte W48
	.byte FINE

track_18_4:
	.byte KEYSH, 0
	.byte W96
	.byte W96
	.byte W96
	.byte W96
	.byte W96
	.byte W24
	.byte VOICE, 14
	.byte VOL, 37
	.byte PAN, c_v-20
	.byte N48, An3, v088
	.byte W72
	.byte W24
	.byte VOICE, 14
	.byte N36 @ An3, v088
	.byte W48
	.byte N36 @ An3, v088
	.byte W24
	.byte W72
	.byte VOICE, 14
	.byte N44, Bn3 @ v088
	.byte W24
	.byte W96
	.byte W96
	.byte W48
	.byte FINE

track_18_5:
	.byte KEYSH, 0
	.byte W96
	.byte W96
	.byte W96
	.byte W96
	.byte W96
	.byte W24
	.byte VOICE, 14
	.byte VOL, 37
	.byte PAN, c_v-20
	.byte W48
	.byte N44, Fn3, v088
	.byte W24
	.byte W48
	.byte VOICE, 14
	.byte N24, Gn3 @ v088
	.byte W48
	.byte W24
	.byte N48, Fn3 @ v088
	.byte W24
	.byte VOICE, 14
	.byte W48
	.byte W24
	.byte N48, An3 @ v088
	.byte W72
	.byte W96
	.byte W48
	.byte FINE

track_18_6:
	.byte KEYSH, 0
	.byte W96
	.byte W96
	.byte W96
	.byte W96
	.byte W96
	.byte W24
	.byte VOICE, 27
	.byte VOL, 48
	.byte PAN, c_v+13
	.byte N48, An1, v100
	.byte W72
	.byte W24
	.byte VOICE, 64
	.byte N72 @ An1, v100
	.byte W72
	.byte W72
	.byte VOICE, 27
	.byte N44, Bn1 @ v100
	.byte W24
	.byte W96
	.byte W96
	.byte W48
	.byte FINE

track_18_7:
	.byte KEYSH, 0
	.byte W96
	.byte W96
	.byte W96
	.byte W96
	.byte W96
	.byte W24
	.byte VOICE, 27
	.byte VOL, 46
	.byte PAN, c_v+13
	.byte W48
	.byte N44, Fn1, v100
	.byte W24
	.byte W48
	.byte VOICE, 64
	.byte W48
	.byte W24
	.byte N48 @ Fn1, v100
	.byte W24
	.byte VOICE, 27
	.byte W48
	.byte W24
	.byte N96, An1 @ v100
	.byte W72
	.byte W96
	.byte W48
	.byte FINE

.align 2

track_18:
	.byte 8
	.byte 0
	.byte 130
	.byte 0
	.word voice_group0
	.word track_18_0
	.word track_18_1
	.word track_18_2
	.word track_18_3
	.word track_18_4
	.word track_18_5
	.word track_18_6
	.word track_18_7

.align 2
