.include "audio/m_play_def.s"

.align 2

.section .rodata
.global track_654

track_654_0:
	.byte KEYSH, 0
	.byte TEMPO, 75
	.byte VOICE, 44
	.byte VOL, 40
	.byte PAN, c_v-32
	.byte BENDR, 6
	.byte BEND, c_v-47
	.byte TIE
	.byte Cn3, Gn8
	.byte W03
	.byte PAN, c_v-31
	.byte W03
	.byte As0
	.byte W03
	.byte Cn1
	.byte W03
	.byte Cs1
	.byte W03
	.byte Dn1
	.byte W03
	.byte Ds1
	.byte W03
	.byte En1
	.byte W03
	.byte Fs1
	.byte W03
	.byte Gn1
	.byte W03
	.byte Gs1
	.byte W03
	.byte An1
	.byte W03
	.byte As1
	.byte W03
	.byte Cn2
	.byte W03
	.byte Cs2
	.byte W03
	.byte Dn2
	.byte W03
	.byte Ds2
	.byte W03
	.byte En2
	.byte W03
	.byte Fs2
	.byte W03
	.byte Gn2
	.byte W03
	.byte Gs2
	.byte W03
	.byte An2
	.byte W03
	.byte As2
	.byte W03
	.byte Cn3
	.byte W03
	.byte Cs3
	.byte W03
	.byte Dn3
	.byte W03
	.byte Ds3
	.byte W03
	.byte En3
	.byte W03
	.byte Fs3
	.byte W03
	.byte Gn3
	.byte W03
	.byte Gs3
	.byte W03
	.byte An3
	.byte W03
	.byte As3
	.byte W03
	.byte Cn4
	.byte W03
	.byte Cs4
	.byte W03
	.byte Dn4
	.byte W03
	.byte Ds4
	.byte W03
	.byte En4
	.byte W03
	.byte Fs4
	.byte W03
	.byte Gn4
	.byte W03
	.byte Gs4
	.byte W03
	.byte An4
	.byte W03
	.byte As4
	.byte W03
	.byte Cn5
	.byte W03
	.byte Cs5
	.byte W03
	.byte Dn5
	.byte W03
	.byte Ds5
	.byte W03
	.byte En5
	.byte W03
	.byte Fs5
	.byte W03
	.byte Gn5
	.byte W03
	.byte Gs5
	.byte W03
	.byte An5
	.byte W03
	.byte As5
	.byte W03
	.byte Cn6
	.byte W05
	.byte BEND, c_v-48
	.byte W04
	.byte DsM1
	.byte W06
	.byte DnM1
	.byte W04
	.byte CsM1
	.byte W06
	.byte CnM1
	.byte W04
	.byte BnM2
	.byte W04
	.byte W02
	.byte AsM2
	.byte W04
	.byte AnM2
	.byte W06
	.byte GsM2
	.byte W04
	.byte GnM2
	.byte W06
	.byte FsM2
	.byte W04
	.byte FnM2
	.byte W06
	.byte EnM2
	.byte W04
	.byte DsM2
	.byte W06
	.byte DnM2
	.byte W04
	.byte CsM2
	.byte W02
	.byte PAN, c_v+32
	.byte VOL, 40
	.byte W01
	.byte Fn1
	.byte W02
	.byte PAN, c_v+30
	.byte W01
	.byte BEND, c_v-61
	.byte W02
	.byte PAN, c_v+28
	.byte W01
	.byte VOL, 42
	.byte W01
	.byte Gn1
	.byte BEND, c_v-59
	.byte W01
	.byte PAN, c_v+26
	.byte W01
	.byte BEND, c_v-58
	.byte W02
	.byte PAN, c_v+25
	.byte VOL, 44
	.byte BEND, c_v-57
	.byte W01
	.byte VOL, 45
	.byte W01
	.byte BEND, c_v-55
	.byte W01
	.byte PAN, c_v+23
	.byte W01
	.byte VOL, 47
	.byte BEND, c_v-53
	.byte W02
	.byte PAN, c_v+21
	.byte BEND, c_v-52
	.byte W01
	.byte VOL, 48
	.byte W01
	.byte Cs2
	.byte BEND, c_v-51
	.byte W01
	.byte PAN, c_v+19
	.byte W01
	.byte VOL, 51
	.byte BEND, c_v-49
	.byte W02
	.byte PAN, c_v+17
	.byte VOL, 53
	.byte BEND, c_v-46
	.byte W02
	.byte VOL, 55
	.byte BEND, c_v-44
	.byte W01
	.byte PAN, c_v+15
	.byte W01
	.byte VOL, 57
	.byte BEND, c_v-41
	.byte W02
	.byte PAN, c_v+14
	.byte VOL, 59
	.byte BEND, c_v-39
	.byte W01
	.byte VOL, 61
	.byte W01
	.byte Ds3
	.byte BEND, c_v-36
	.byte W01
	.byte PAN, c_v+12
	.byte VOL, 65
	.byte W01
	.byte Gn3
	.byte BEND, c_v-33
	.byte W01
	.byte VOL, 69
	.byte W01
	.byte PAN, c_v+10
	.byte VOL, 72
	.byte BEND, c_v-30
	.byte W01
	.byte VOL, 75
	.byte W01
	.byte Gn4
	.byte BEND, c_v-27
	.byte W01
	.byte PAN, c_v+8
	.byte VOL, 81
	.byte W01
	.byte Cs5
	.byte BEND, c_v-21
	.byte W01
	.byte VOL, 89
	.byte W01
	.byte PAN, c_v+6
	.byte VOL, 93
	.byte BEND, c_v-17
	.byte W01
	.byte VOL, 99
	.byte W01
	.byte Gn6
	.byte BEND, c_v-13
	.byte W01
	.byte PAN, c_v+4
	.byte VOL, 109
	.byte W01
	.byte Gn7
	.byte BEND, c_v-7
	.byte W01
	.byte VOL, 121
	.byte W01
	.byte PAN, c_v+2
	.byte VOL, 127
	.byte BEND, c_v
	.byte W03
	.byte PAN, c_v+1
	.byte W03
	.byte Ds3
	.byte W03
	.byte Cs3
	.byte W03
	.byte Bn2
	.byte W03
	.byte An2
	.byte W03
	.byte Gn2
	.byte W03
	.byte Fs2
	.byte W03
	.byte En2
	.byte W03
	.byte Dn2
	.byte W03
	.byte Cn2
	.byte W03
	.byte As1
	.byte W03
	.byte Gs1
	.byte W03
	.byte Fs1
	.byte W01
	.byte BENDR, 12
	.byte W02
	.byte PAN, c_v-23
	.byte W03
	.byte Ds1
	.byte W03
	.byte Cs1
	.byte W03
	.byte Bn0
	.byte W03
	.byte An0
	.byte W18
	.byte VOL, 127
	.byte BEND, c_v
	.byte W01
	.byte VOL, 117
	.byte BEND, c_v-1
	.byte W01
	.byte VOL, 108
	.byte BEND, c_v-2
	.byte W01
	.byte VOL, 101
	.byte BEND, c_v-3
	.byte W01
	.byte VOL, 93
	.byte W01
	.byte Ds5
	.byte BEND, c_v-5
	.byte W01
	.byte VOL, 81
	.byte W01
	.byte Ds4
	.byte BEND, c_v-7
	.byte W01
	.byte VOL, 70
	.byte W01
	.byte Ds3
	.byte W01
	.byte Bn2
	.byte BEND, c_v-9
	.byte W01
	.byte VOL, 55
	.byte W01
	.byte Ds2
	.byte W01
	.byte Bn1
	.byte W01
	.byte Gn1
	.byte BEND, c_v-11
	.byte W01
	.byte VOL, 39
	.byte W01
	.byte Cs1
	.byte W01
	.byte An0
	.byte W01
	.byte Gn0
	.byte BEND, c_v-12
	.byte W01
	.byte VOL, 27
	.byte BEND, c_v-13
	.byte W01
	.byte VOL, 25
	.byte W01
	.byte AsM1
	.byte W01
	.byte GnM1
	.byte W01
	.byte FnM1
	.byte BEND, c_v-14
	.byte W01
	.byte VOL, 15
	.byte W01
	.byte CnM1
	.byte BEND, c_v-15
	.byte W01
	.byte VOL, 10
	.byte W01
	.byte GnM2
	.byte W01
	.byte FsM2
	.byte W01
	.byte DsM2
	.byte W01
	.byte DnM2
	.byte W01
	.byte CnM2
	.byte BEND, c_v-16
	.byte W01
	.byte EOT

	.byte FINE

track_654_1:
	.byte KEYSH, 0
	.byte VOICE, 12
	.byte VOL, 80
	.byte PAN, c_v-32
	.byte BENDR, 6
	.byte BEND, c_v-47
	.byte TIE
	.byte Cn3, Gs0
	.byte W03
	.byte PAN, c_v-31
	.byte W03
	.byte As0
	.byte W03
	.byte Cn1
	.byte W03
	.byte Cs1
	.byte W03
	.byte Dn1
	.byte W03
	.byte Ds1
	.byte W03
	.byte En1
	.byte W03
	.byte Fs1
	.byte W03
	.byte Gn1
	.byte W03
	.byte Gs1
	.byte W03
	.byte An1
	.byte W03
	.byte As1
	.byte W03
	.byte Cn2
	.byte W03
	.byte Cs2
	.byte W03
	.byte Dn2
	.byte W03
	.byte Ds2
	.byte W03
	.byte En2
	.byte W03
	.byte Fs2
	.byte W03
	.byte Gn2
	.byte W03
	.byte Gs2
	.byte W03
	.byte An2
	.byte W03
	.byte As2
	.byte W03
	.byte Cn3
	.byte W03
	.byte Cs3
	.byte W03
	.byte Dn3
	.byte W03
	.byte Ds3
	.byte W03
	.byte En3
	.byte W03
	.byte Fs3
	.byte W03
	.byte Gn3
	.byte W03
	.byte Gs3
	.byte W03
	.byte An3
	.byte W03
	.byte As3
	.byte W03
	.byte Cn4
	.byte W03
	.byte Cs4
	.byte W03
	.byte Dn4
	.byte W03
	.byte Ds4
	.byte W03
	.byte En4
	.byte W03
	.byte Fs4
	.byte W03
	.byte Gn4
	.byte W03
	.byte Gs4
	.byte W03
	.byte An4
	.byte W03
	.byte As4
	.byte W03
	.byte Cn5
	.byte W03
	.byte Cs5
	.byte W03
	.byte Dn5
	.byte W03
	.byte Ds5
	.byte W03
	.byte En5
	.byte W03
	.byte Fs5
	.byte W03
	.byte Gn5
	.byte W03
	.byte Gs5
	.byte W03
	.byte An5
	.byte W03
	.byte As5
	.byte W03
	.byte Cn6
	.byte W01
	.byte VOL, 80
	.byte W02
	.byte Gn4
	.byte W02
	.byte BEND, c_v-48
	.byte W04
	.byte DsM1
	.byte W05
	.byte VOL, 78
	.byte W01
	.byte BEND, c_v-50
	.byte W01
	.byte VOL, 77
	.byte W03
	.byte BEND, c_v-51
	.byte W06
	.byte VOL, 76
	.byte BEND, c_v-52
	.byte W02
	.byte VOL, 75
	.byte W02
	.byte BEND, c_v-53
	.byte W04
	.byte W02
	.byte AsM2
	.byte W02
	.byte VOL, 74
	.byte W01
	.byte Cs4
	.byte W01
	.byte BEND, c_v-55
	.byte W06
	.byte VOL, 72
	.byte BEND, c_v-56
	.byte W02
	.byte VOL, 71
	.byte W02
	.byte BEND, c_v-57
	.byte W06
	.byte VOL, 70
	.byte BEND, c_v-58
	.byte W02
	.byte VOL, 69
	.byte W02
	.byte BEND, c_v-59
	.byte W04
	.byte VOL, 68
	.byte W01
	.byte Gn3
	.byte W01
	.byte BEND, c_v-60
	.byte W04
	.byte DsM2
	.byte W02
	.byte VOL, 66
	.byte W02
	.byte Fn3
	.byte W02
	.byte BEND, c_v-62
	.byte W03
	.byte VOL, 64
	.byte W01
	.byte Ds3
	.byte BEND, c_v-63
	.byte W02
	.byte PAN, c_v+32
	.byte W03
	.byte As5
	.byte VOL, 62
	.byte W01
	.byte Cs3
	.byte BEND, c_v-61
	.byte W02
	.byte PAN, c_v+28
	.byte W02
	.byte BEND, c_v-59
	.byte W01
	.byte PAN, c_v+26
	.byte W01
	.byte VOL, 60
	.byte BEND, c_v-58
	.byte W02
	.byte PAN, c_v+25
	.byte VOL, 59
	.byte BEND, c_v-57
	.byte W02
	.byte AnM2
	.byte W01
	.byte PAN, c_v+23
	.byte W01
	.byte VOL, 58
	.byte BEND, c_v-53
	.byte W01
	.byte VOL, 57
	.byte W01
	.byte PAN, c_v+21
	.byte BEND, c_v-52
	.byte W02
	.byte CsM1
	.byte W01
	.byte PAN, c_v+19
	.byte W01
	.byte VOL, 56
	.byte BEND, c_v-49
	.byte W02
	.byte PAN, c_v+17
	.byte VOL, 55
	.byte BEND, c_v-46
	.byte W02
	.byte GsM1
	.byte W01
	.byte PAN, c_v+15
	.byte W01
	.byte VOL, 54
	.byte BEND, c_v-41
	.byte W01
	.byte VOL, 53
	.byte W01
	.byte PAN, c_v+14
	.byte VOL, 51
	.byte BEND, c_v-39
	.byte W02
	.byte VOL, 49
	.byte BEND, c_v-36
	.byte W01
	.byte PAN, c_v+12
	.byte VOL, 48
	.byte W01
	.byte Bn1
	.byte BEND, c_v-33
	.byte W01
	.byte VOL, 45
	.byte W01
	.byte PAN, c_v+10
	.byte BEND, c_v-30
	.byte W01
	.byte VOL, 43
	.byte W01
	.byte Fs1
	.byte BEND, c_v-27
	.byte W01
	.byte PAN, c_v+8
	.byte VOL, 41
	.byte W01
	.byte Ds1
	.byte BEND, c_v-21
	.byte W02
	.byte PAN, c_v+6
	.byte VOL, 37
	.byte BEND, c_v-17
	.byte W02
	.byte VOL, 35
	.byte BEND, c_v-13
	.byte W01
	.byte PAN, c_v+4
	.byte W01
	.byte VOL, 33
	.byte BEND, c_v-7
	.byte W02
	.byte PAN, c_v+2
	.byte VOL, 31
	.byte BEND, c_v
	.byte W02
	.byte VOL, 30
	.byte W01
	.byte PAN, c_v+1
	.byte VOL, 29
	.byte W01
	.byte En0
	.byte W01
	.byte Ds0
	.byte W01
	.byte PAN, c_v-1
	.byte W01
	.byte VOL, 26
	.byte W01
	.byte Cs0
	.byte W01
	.byte PAN, c_v-3
	.byte VOL, 24
	.byte W01
	.byte BnM1
	.byte W02
	.byte PAN, c_v-5
	.byte VOL, 22
	.byte W01
	.byte AnM1
	.byte W02
	.byte PAN, c_v-7
	.byte VOL, 19
	.byte W03
	.byte PAN, c_v-9
	.byte VOL, 17
	.byte W03
	.byte PAN, c_v-10
	.byte VOL, 16
	.byte W01
	.byte DsM1
	.byte W02
	.byte PAN, c_v-12
	.byte W01
	.byte VOL, 14
	.byte W01
	.byte CsM1
	.byte W01
	.byte PAN, c_v-14
	.byte W03
	.byte Cn2
	.byte VOL, 12
	.byte W01
	.byte BnM2
	.byte W02
	.byte PAN, c_v-18
	.byte W02
	.byte VOL, 10
	.byte W01
	.byte PAN, c_v-20
	.byte VOL, 9
	.byte W03
	.byte PAN, c_v-22
	.byte W01
	.byte BENDR, 12
	.byte BEND, c_v
	.byte W01
	.byte VOL, 8
	.byte W01
	.byte PAN, c_v-23
	.byte VOL, 7
	.byte BEND, c_v-13
	.byte W02
	.byte Gn1
	.byte W01
	.byte PAN, c_v-25
	.byte W01
	.byte VOL, 6
	.byte BEND, c_v-27
	.byte W01
	.byte VOL, 5
	.byte W01
	.byte PAN, c_v-27
	.byte BEND, c_v-33
	.byte W02
	.byte Cs0
	.byte W01
	.byte PAN, c_v-29
	.byte W01
	.byte BEND, c_v-42
	.byte W02
	.byte PAN, c_v-31
	.byte VOL, 4
	.byte BEND, c_v-45
	.byte W01
	.byte VOL, 3
	.byte W01
	.byte BEND, c_v-49
	.byte W02
	.byte CsM1
	.byte W02
	.byte BnM2
	.byte W01
	.byte VOL, 2
	.byte W01
	.byte BEND, c_v-55
	.byte W01
	.byte VOL, 1
	.byte W01
	.byte BEND, c_v-57
	.byte W02
	.byte FnM2
	.byte W02
	.byte VOL, 0
	.byte BEND, c_v-61
	.byte W02
	.byte CsM2
	.byte W02
	.byte EOT
	.byte W17

	.byte FINE

track_654_2:
	.byte KEYSH, 0
	.byte VOICE, 19
	.byte VOL, 30
	.byte PAN, c_v-32
	.byte BENDR, 12
	.byte BEND, c_v-47
	.byte TIE
	.byte An1, Gn8
	.byte W03
	.byte PAN, c_v-31
	.byte W03
	.byte As0
	.byte W03
	.byte Cn1
	.byte W03
	.byte Cs1
	.byte W03
	.byte Dn1
	.byte W03
	.byte Ds1
	.byte W03
	.byte En1
	.byte W03
	.byte Fs1
	.byte W03
	.byte Gn1
	.byte W03
	.byte Gs1
	.byte W03
	.byte An1
	.byte W03
	.byte As1
	.byte W03
	.byte Cn2
	.byte W03
	.byte Cs2
	.byte W03
	.byte Dn2
	.byte W03
	.byte Ds2
	.byte W03
	.byte En2
	.byte W03
	.byte Fs2
	.byte W03
	.byte Gn2
	.byte W03
	.byte Gs2
	.byte W03
	.byte An2
	.byte W03
	.byte As2
	.byte W03
	.byte Cn3
	.byte W03
	.byte Cs3
	.byte W03
	.byte Dn3
	.byte W03
	.byte Ds3
	.byte W03
	.byte En3
	.byte W03
	.byte Fs3
	.byte W03
	.byte Gn3
	.byte W03
	.byte Gs3
	.byte W03
	.byte An3
	.byte W03
	.byte As3
	.byte W03
	.byte Cn4
	.byte W03
	.byte Cs4
	.byte W03
	.byte Dn4
	.byte W03
	.byte Ds4
	.byte W03
	.byte En4
	.byte W03
	.byte Fs4
	.byte W03
	.byte Gn4
	.byte W03
	.byte Gs4
	.byte W03
	.byte An4
	.byte W03
	.byte As4
	.byte W03
	.byte Cn5
	.byte W03
	.byte Cs5
	.byte W03
	.byte Dn5
	.byte W03
	.byte Ds5
	.byte W03
	.byte En5
	.byte W03
	.byte Fs5
	.byte W03
	.byte Gn5
	.byte W03
	.byte Gs5
	.byte W03
	.byte An5
	.byte W03
	.byte As5
	.byte W03
	.byte Cn6
	.byte W05
	.byte BEND, c_v-48
	.byte W04
	.byte DsM1
	.byte W06
	.byte DnM1
	.byte W04
	.byte CsM1
	.byte W06
	.byte CnM1
	.byte W04
	.byte BnM2
	.byte W04
	.byte W02
	.byte AsM2
	.byte W04
	.byte AnM2
	.byte W06
	.byte GsM2
	.byte W04
	.byte GnM2
	.byte W06
	.byte FsM2
	.byte W04
	.byte FnM2
	.byte W06
	.byte EnM2
	.byte W04
	.byte DsM2
	.byte W06
	.byte DnM2
	.byte W04
	.byte CsM2
	.byte W02
	.byte VOL, 30
	.byte PAN, c_v+32
	.byte W01
	.byte VOL, 31
	.byte W02
	.byte PAN, c_v+30
	.byte W01
	.byte BEND, c_v-61
	.byte W02
	.byte PAN, c_v+28
	.byte W01
	.byte VOL, 32
	.byte W01
	.byte An0
	.byte BEND, c_v-59
	.byte W01
	.byte PAN, c_v+26
	.byte W01
	.byte BEND, c_v-58
	.byte W01
	.byte VOL, 34
	.byte W01
	.byte Bn0
	.byte PAN, c_v+25
	.byte BEND, c_v-57
	.byte W02
	.byte VOL, 36
	.byte BEND, c_v-55
	.byte W01
	.byte VOL, 37
	.byte PAN, c_v+23
	.byte W01
	.byte BEND, c_v-53
	.byte W01
	.byte VOL, 38
	.byte W01
	.byte Ds1
	.byte PAN, c_v+21
	.byte BEND, c_v-52
	.byte W02
	.byte VOL, 41
	.byte BEND, c_v-51
	.byte W01
	.byte PAN, c_v+19
	.byte W01
	.byte VOL, 43
	.byte BEND, c_v-49
	.byte W02
	.byte VOL, 44
	.byte PAN, c_v+17
	.byte BEND, c_v-46
	.byte W01
	.byte VOL, 45
	.byte W01
	.byte Bn1
	.byte BEND, c_v-44
	.byte W01
	.byte VOL, 48
	.byte PAN, c_v+15
	.byte W01
	.byte VOL, 49
	.byte BEND, c_v-41
	.byte W01
	.byte VOL, 51
	.byte W01
	.byte En2
	.byte PAN, c_v+14
	.byte BEND, c_v-39
	.byte W01
	.byte VOL, 53
	.byte W01
	.byte Gn2
	.byte BEND, c_v-36
	.byte W01
	.byte VOL, 57
	.byte PAN, c_v+12
	.byte W01
	.byte VOL, 59
	.byte BEND, c_v-33
	.byte W01
	.byte VOL, 62
	.byte W01
	.byte En3
	.byte PAN, c_v+10
	.byte BEND, c_v-30
	.byte W01
	.byte VOL, 67
	.byte W01
	.byte Bn3
	.byte BEND, c_v-27
	.byte W01
	.byte VOL, 75
	.byte PAN, c_v+8
	.byte BEND, c_v-26
	.byte W01
	.byte VOL, 77
	.byte BEND, c_v-25
	.byte W01
	.byte VOL, 82
	.byte BEND, c_v-23
	.byte W01
	.byte VOL, 87
	.byte PAN, c_v+6
	.byte BEND, c_v-21
	.byte W01
	.byte VOL, 93
	.byte W01
	.byte Cs6
	.byte BEND, c_v-19
	.byte W01
	.byte VOL, 104
	.byte PAN, c_v+4
	.byte BEND, c_v-17
	.byte W01
	.byte VOL, 111
	.byte W01
	.byte An7
	.byte BEND, c_v-15
	.byte W01
	.byte PAN, c_v+2
	.byte VOL, 127
	.byte W01
	.byte BEND, c_v-13
	.byte W02
	.byte PAN, c_v+1
	.byte BEND, c_v-12
	.byte W01
	.byte Fn2
	.byte W02
	.byte PAN, c_v-1
	.byte BEND, c_v-10
	.byte W01
	.byte Gn2
	.byte W02
	.byte PAN, c_v-3
	.byte W01
	.byte BEND, c_v-8
	.byte W01
	.byte An2
	.byte W01
	.byte PAN, c_v-5
	.byte W03
	.byte An2
	.byte W03
	.byte Gn2
	.byte W03
	.byte Fs2
	.byte W03
	.byte En2
	.byte W02
	.byte BEND, c_v-8
	.byte W01
	.byte PAN, c_v-14
	.byte BEND, c_v-9
	.byte W03
	.byte PAN, c_v-16
	.byte W01
	.byte BEND, c_v-10
	.byte W02
	.byte PAN, c_v-18
	.byte BEND, c_v-11
	.byte W02
	.byte En2
	.byte W01
	.byte PAN, c_v-20
	.byte BEND, c_v-13
	.byte W03
	.byte PAN, c_v-22
	.byte BEND, c_v-15
	.byte W01
	.byte BENDR, 12
	.byte W02
	.byte PAN, c_v-23
	.byte BEND, c_v-17
	.byte W02
	.byte As1
	.byte W01
	.byte PAN, c_v-25
	.byte BEND, c_v-19
	.byte W02
	.byte Gn1
	.byte W01
	.byte PAN, c_v-27
	.byte W01
	.byte BEND, c_v-22
	.byte W01
	.byte Fn1
	.byte W01
	.byte PAN, c_v-29
	.byte W01
	.byte BEND, c_v-24
	.byte W01
	.byte Ds1
	.byte W01
	.byte PAN, c_v-31
	.byte W02
	.byte BEND, c_v-26
	.byte W01
	.byte Cs1
	.byte W02
	.byte Cn1
	.byte W01
	.byte Bn0
	.byte W04
	.byte As0
	.byte W01
	.byte An0
	.byte W04
	.byte Gs0
	.byte W01
	.byte Gn0
	.byte W02
	.byte VOL, 127
	.byte W01
	.byte Gn7
	.byte W01
	.byte Bn6
	.byte W01
	.byte Cs6
	.byte BEND, c_v-34
	.byte W01
	.byte VOL, 89
	.byte BEND, c_v-35
	.byte W01
	.byte VOL, 84
	.byte W01
	.byte Fn4
	.byte W01
	.byte Bn3
	.byte W01
	.byte Fs3
	.byte W01
	.byte Cs3
	.byte BEND, c_v-36
	.byte W01
	.byte VOL, 56
	.byte BEND, c_v-37
	.byte W01
	.byte VOL, 51
	.byte W01
	.byte Cn2
	.byte W01
	.byte Gn1
	.byte W01
	.byte Fn1
	.byte W01
	.byte Cs1
	.byte W01
	.byte As0
	.byte BEND, c_v-38
	.byte W01
	.byte VOL, 31
	.byte W01
	.byte Fn0
	.byte BEND, c_v-39
	.byte W01
	.byte VOL, 25
	.byte W01
	.byte BnM1
	.byte W01
	.byte AnM1
	.byte W01
	.byte FsM1
	.byte W01
	.byte DsM1
	.byte BEND, c_v-40
	.byte W01
	.byte VOL, 13
	.byte W01
	.byte BnM2
	.byte W01
	.byte AnM2
	.byte W01
	.byte GnM2
	.byte W01
	.byte FnM2
	.byte W01
	.byte DsM2
	.byte W01
	.byte CsM2
	.byte W02
	.byte EOT

	.byte FINE

track_654_3:
	.byte KEYSH, 0
	.byte VOICE, 0
	.byte VOL, 10
	.byte PAN, c_v-32
	.byte BENDR, 0
	.byte BEND, c_v-32
	.byte W96
	.byte W96
	.byte W48
	.byte TIE
	.byte Cn2, Gs4
	.byte W01
	.byte VOL, 11
	.byte W03
	.byte CsM1
	.byte W03
	.byte DsM1
	.byte W03
	.byte FnM1
	.byte W02
	.byte GnM1
	.byte W02
	.byte AnM1
	.byte W02
	.byte BnM1
	.byte W01
	.byte Cs0
	.byte W02
	.byte Ds0
	.byte W01
	.byte Fn0
	.byte W02
	.byte Gn0
	.byte W01
	.byte An0
	.byte W01
	.byte As0
	.byte W01
	.byte Cn1
	.byte W01
	.byte Cs1
	.byte W01
	.byte Ds1
	.byte W01
	.byte Fn1
	.byte W01
	.byte Gn1
	.byte W01
	.byte An1
	.byte W01
	.byte Cs2
	.byte W01
	.byte Ds2
	.byte W01
	.byte Fs2
	.byte W01
	.byte An2
	.byte W01
	.byte Cs3
	.byte W01
	.byte En3
	.byte W01
	.byte Gs3
	.byte W01
	.byte Bn3
	.byte W01
	.byte En4
	.byte W01
	.byte An4
	.byte W01
	.byte Cs5
	.byte W01
	.byte Gn5
	.byte W01
	.byte Cn6
	.byte W01
	.byte Fn6
	.byte W01
	.byte Bn6
	.byte W01
	.byte Fn7
	.byte W01
	.byte Cn8
	.byte W01
	.byte Gn8
	.byte W23
	.byte Gn8
	.byte W01
	.byte Fs8
	.byte W01
	.byte Fn8
	.byte W04
	.byte En8
	.byte W01
	.byte Ds8
	.byte W03
	.byte Dn8
	.byte W01
	.byte Cs8
	.byte W03
	.byte Cn8
	.byte W01
	.byte Bn7
	.byte W02
	.byte As7
	.byte W01
	.byte An7
	.byte W02
	.byte Gs7
	.byte W01
	.byte Gn7
	.byte W02
	.byte Fn7
	.byte W03
	.byte Ds7
	.byte W02
	.byte Cs7
	.byte W02
	.byte Cn7
	.byte W01
	.byte Bn6
	.byte W01
	.byte As6
	.byte W01
	.byte An6
	.byte W01
	.byte Gs6
	.byte W01
	.byte Gn6
	.byte W01
	.byte Fn6
	.byte W02
	.byte Ds6
	.byte W01
	.byte Dn6
	.byte W01
	.byte Cs6
	.byte W01
	.byte Bn5
	.byte W01
	.byte An5
	.byte W01
	.byte Gn5
	.byte W01
	.byte Fs5
	.byte W01
	.byte Fn5
	.byte W01
	.byte Ds5
	.byte W01
	.byte Cs5
	.byte W01
	.byte Bn4
	.byte W01
	.byte An4
	.byte W01
	.byte Gn4
	.byte W01
	.byte En4
	.byte W01
	.byte Dn4
	.byte W01
	.byte Bn3
	.byte W01
	.byte An3
	.byte W01
	.byte Gn3
	.byte W01
	.byte En3
	.byte W01
	.byte Cs3
	.byte W01
	.byte Bn2
	.byte W01
	.byte Bn2
	.byte W01
	.byte Gn2
	.byte W01
	.byte Ds2
	.byte W01
	.byte Bn1
	.byte W01
	.byte Gn1
	.byte W01
	.byte Ds1
	.byte W01
	.byte Cs1
	.byte W01
	.byte An0
	.byte W01
	.byte Gn0
	.byte W01
	.byte Ds0
	.byte W01
	.byte Cs0
	.byte W01
	.byte AsM1
	.byte W01
	.byte GnM1
	.byte W01
	.byte FnM1
	.byte W01
	.byte DsM1
	.byte W01
	.byte CnM1
	.byte W01
	.byte AsM2
	.byte W01
	.byte GnM2
	.byte W01
	.byte FsM2
	.byte W01
	.byte DsM2
	.byte W01
	.byte DnM2
	.byte W01
	.byte CnM2
	.byte W01
	.byte EOT

	.byte FINE

.align 2

track_654:
	.byte 4
	.byte 0
	.byte 229
	.byte 0
	.word voice_group17
	.word track_654_0
	.word track_654_1
	.word track_654_2
	.word track_654_3

.align 2
