.include "audio/m_play_def.s"

.align 2

.section .rodata
.global track_27

track_27_0:
	.byte KEYSH, 0
	.byte TEMPO, 63
	.byte VOICE, 78
	.byte VOL, 80
	.byte PAN, c_v+20
	.byte N90
	.byte An2, Gs5
	.byte W96
	.byte Cn3, En7
	.byte W96
	.byte Bn2
	.byte W96
	.byte As2, En6
	.byte W96
	.byte An2, Gs5
	.byte W96
	.byte Cn3, En7
	.byte W96
	.byte Bn2
	.byte W96
	.byte As2, En6
	.byte W96
	.byte An2
	.byte W96
	.byte N90
	.byte W96
	.byte VOICE, 89
	.byte VOL, 37
	.byte PAN, c_v+10
	.byte N06
	.byte Fs3, Gs5
	.byte W06
	.byte An3, Cn5
	.byte W06
	.byte Dn4, En4
	.byte W06
	.byte Fs4, Gs3
	.byte W06
	.byte N19
	.byte An4, Cn3
	.byte W24
	.byte VOICE, 88
	.byte N24
	.byte Gn4
	.byte W24
	.byte N20
	.byte Fs4, Cn4
	.byte W24
	.byte N72
	.byte Dn4, Gs4
	.byte W96
track_27_lbl_230a11:
	.byte VOICE, 89
	.byte N42
	.byte Bn3, En6
	.byte W48
	.byte N18
	.byte An3, Gs5
	.byte W24
	.byte N06
	.byte Gn4, Cn3
	.byte W06
	.byte Fs4, Cn4
	.byte W06
	.byte Dn4, Gs4
	.byte W06
	.byte An3, Gs5
	.byte W06
	.byte PEND
track_27_lbl_230a29:
	.byte N48
	.byte Gn3, Gs5
	.byte W48
	.byte VOICE, 88
	.byte N42
	.byte Dn4, En6
	.byte W48
	.byte PEND
	.byte VOICE, 89
	.byte N06
	.byte Fs3, Gs5
	.byte W06
	.byte An3, Cn5
	.byte W06
	.byte Dn4, En4
	.byte W06
	.byte Fs4, Gs3
	.byte W06
	.byte N19
	.byte An4, Cn3
	.byte W24
	.byte VOICE, 88
	.byte N24
	.byte Gn4
	.byte W24
	.byte N20
	.byte Fs4, Cn4
	.byte W24
	.byte N72
	.byte Dn4, Gs4
	.byte W96
	.byte PATT
		.word track_27_lbl_230a11
	.byte PATT
		.word track_27_lbl_230a29
	.byte N42
	.byte Cs4, Gs4
	.byte W48
	.byte N24
	.byte Dn4, Gs5
	.byte W24
	.byte N18
	.byte An3
	.byte W24
track_27_lbl_230a69:
	.byte N18
	.byte Fs4, Gs5
	.byte W24
	.byte En4, Gs4
	.byte W24
	.byte Gn4, En6
	.byte W24
	.byte Fs4, Gs5
	.byte W24
	.byte PEND
track_27_lbl_230a77:
	.byte VOICE, 89
	.byte N12
	.byte En4, Cn7
	.byte W12
	.byte Dn4, Gs6
	.byte W12
	.byte As3, En6
	.byte W12
	.byte Gn3, Cn6
	.byte W12
	.byte N18
	.byte Fs3, Gs5
	.byte W24
	.byte Dn4, En6
	.byte W24
	.byte PEND
track_27_lbl_230a8e:
	.byte N12
	.byte Gs3, Gs5
	.byte W12
	.byte Bn3
	.byte W12
	.byte N24
	.byte En4, Cn6
	.byte W24
	.byte Dn4, En6
	.byte W24
	.byte N18
	.byte En4, Gs6
	.byte W24
	.byte PEND
	.byte VOICE, 88
	.byte N48
	.byte Cs4, Gs4
	.byte W48
	.byte N24
	.byte Dn4, Gs5
	.byte W24
	.byte An3
	.byte W24
	.byte PATT
		.word track_27_lbl_230a69
	.byte PATT
		.word track_27_lbl_230a77
	.byte PATT
		.word track_27_lbl_230a8e
	.byte VOICE, 79
	.byte VOL, 44
	.byte N18
	.byte Fs3, Cn4
	.byte W24
	.byte An3, Cn5
	.byte W24
	.byte Dn4, Gs5
	.byte W24
	.byte An3, Cn4
	.byte W24
track_27_lbl_230acc:
	.byte N18
	.byte Gn3, Cn4
	.byte W24
	.byte An3, Cn5
	.byte W24
	.byte Dn4, Gs5
	.byte W24
	.byte Gn3, Cn4
	.byte W24
	.byte PEND
	.byte Fs3
	.byte W24
	.byte An3, Cn5
	.byte W24
	.byte Dn4, Gs5
	.byte W24
	.byte An3, Cn4
	.byte W24
	.byte PATT
		.word track_27_lbl_230acc
	.byte N18
	.byte Fs3, Cn5
	.byte W24
	.byte An3, Gs5
	.byte W24
	.byte Dn4, En6
	.byte W24
	.byte An3, Cn5
	.byte W24
	.byte Gn3
	.byte W24
	.byte An3, Gs5
	.byte W24
	.byte Dn4, En6
	.byte W24
	.byte Gn3, Cn5
	.byte W24
	.byte Fs3, Gs5
	.byte W24
	.byte An3, En6
	.byte W24
	.byte Dn4, Cn7
	.byte W24
	.byte An3, Gs5
	.byte W24
	.byte Gn3
	.byte W24
	.byte An3, En6
	.byte W24
	.byte Dn4, Cn7
	.byte W24
	.byte Gn3, Gs5
	.byte W24
	.byte VOICE, 49
	.byte VOL, 31
	.byte N12
	.byte An5, En4
	.byte W24
	.byte Gn5
	.byte W24
	.byte Fs5
	.byte W24
	.byte En5
	.byte W24
track_27_lbl_230b27:
	.byte N12
	.byte Gn5, Gs3
	.byte W24
	.byte Fs5, En3
	.byte W24
	.byte Dn5
	.byte W24
	.byte En5
	.byte W24
	.byte PEND
	.byte An5, En4
	.byte W24
	.byte Gn5
	.byte W24
	.byte Fs5
	.byte W24
	.byte En5, En3
	.byte W24
	.byte PATT
		.word track_27_lbl_230b27
	.byte VOL, 31
	.byte N12
	.byte An5, Gs2
	.byte W24
	.byte Gn5
	.byte W24
	.byte Fs5
	.byte W24
	.byte En5
	.byte W24
track_27_lbl_230b4e:
	.byte N12
	.byte Gn5, Cn2
	.byte W24
	.byte Fs5
	.byte W24
	.byte Dn5
	.byte W24
	.byte En5
	.byte W24
	.byte PEND
track_27_lbl_230b59:
	.byte N12
	.byte An5, Cn2
	.byte W24
	.byte Gn5
	.byte W24
	.byte Fs5, Gs1
	.byte W24
	.byte En5
	.byte W24
	.byte PEND
track_27_lbl_230b65:
	.byte N12
	.byte Gn5, En1
	.byte W24
	.byte Fs5
	.byte W24
	.byte Dn5
	.byte W24
	.byte En5
	.byte W24
	.byte PEND
	.byte PATT
		.word track_27_lbl_230b59
	.byte PATT
		.word track_27_lbl_230b65
	.byte N12
	.byte An5, Gs3
	.byte W24
	.byte Gn5, En3
	.byte W24
	.byte Fs5
	.byte W24
	.byte En5
	.byte W24
track_27_lbl_230b85:
	.byte N12
	.byte Gn5, Gs2
	.byte W24
	.byte Fs5
	.byte W24
	.byte Dn5
	.byte W24
	.byte En5
	.byte W24
	.byte PEND
	.byte VOICE, 49
	.byte VOL, 31
	.byte N12
	.byte An5, Gs3
	.byte W24
	.byte Gn5, En3
	.byte W24
	.byte Fs5
	.byte W24
	.byte En5
	.byte W24
	.byte PATT
		.word track_27_lbl_230b85
	.byte N12
	.byte An5, Gs2
	.byte W24
	.byte Gn5
	.byte W24
	.byte Fs5
	.byte W24
	.byte En5
	.byte W24
	.byte PATT
		.word track_27_lbl_230b4e
	.byte PATT
		.word track_27_lbl_230b59
	.byte PATT
		.word track_27_lbl_230b65
	.byte PATT
		.word track_27_lbl_230b59
	.byte PATT
		.word track_27_lbl_230b65
	.byte VOICE, 51
	.byte VOL, 62
	.byte N84
	.byte An3, En7
	.byte W96
	.byte N42
	.byte Dn4, Cn8
	.byte W48
	.byte N32
	.byte Cs4, Gs7
	.byte W36
	.byte N10
	.byte Bn3, En7
	.byte W12
	.byte N84
	.byte An3
	.byte W96
	.byte N42
	.byte Dn3, Cn8
	.byte W48
	.byte N32
	.byte Gn3
	.byte W36
	.byte N10
	.byte Fs3, Gs7
	.byte W12
	.byte N84
	.byte An3, En7
	.byte W96
	.byte N42
	.byte Dn4
	.byte W48
	.byte N32
	.byte Cs4, Cn8
	.byte W36
	.byte N10
	.byte Bn3, Gs7
	.byte W12
	.byte N90
	.byte An3, En7
	.byte W96
	.byte N42
	.byte Dn3, Gn8
	.byte W48
	.byte N32
	.byte Gn3
	.byte W36
	.byte N10
	.byte Fs3
	.byte W12
	.byte VOICE, 79
	.byte VOL, 62
	.byte N03
	.byte An3, Cn8
	.byte W06
	.byte N03
	.byte W06
	.byte N03
	.byte W24
	.byte N03
	.byte W06
	.byte N03
	.byte W06
	.byte N03
	.byte W12
	.byte N03
	.byte W06
	.byte N03
	.byte W06
	.byte N03
	.byte W06
	.byte N03
	.byte W06
	.byte N03
	.byte W12
track_27_lbl_230c22:
	.byte N03
	.byte Fn3, Cn8
	.byte W06
	.byte N03
	.byte W06
	.byte N03
	.byte W24
	.byte N03
	.byte W06
	.byte N03
	.byte W06
	.byte Gn3
	.byte W12
	.byte N03
	.byte W06
	.byte N03
	.byte W06
	.byte N03
	.byte W06
	.byte N03
	.byte W06
	.byte N03
	.byte W12
	.byte PEND
track_27_lbl_230c3b:
	.byte N03
	.byte An3, Cn8
	.byte W06
	.byte N03
	.byte W06
	.byte N03
	.byte W24
	.byte N03
	.byte W06
	.byte N03
	.byte W06
	.byte N03
	.byte W12
	.byte N03
	.byte W06
	.byte N03
	.byte W06
	.byte N03
	.byte W06
	.byte N03
	.byte W06
	.byte N03
	.byte W12
	.byte PEND
	.byte PATT
		.word track_27_lbl_230c22
	.byte PATT
		.word track_27_lbl_230c3b
	.byte PATT
		.word track_27_lbl_230c22
	.byte PATT
		.word track_27_lbl_230c3b
	.byte PATT
		.word track_27_lbl_230c3b
	.byte N72
	.byte An3, Cn8
	.byte W96
	.byte W12
	.byte N06
	.byte Dn3, En6
	.byte W12
	.byte N03
	.byte W06
	.byte N04
	.byte W06
	.byte N07
	.byte W60
	.byte W96
	.byte W96
	.byte W96
	.byte W24
track_27_lbl_230c80:
	.byte VOICE, 78
	.byte VOL, 80
	.byte PAN, c_v+20
	.byte N90
	.byte An2, Gs5
	.byte W72
	.byte W24
	.byte Cn3, En7
	.byte W72
	.byte W24
	.byte Bn2
	.byte W72
	.byte W24
	.byte As2, En6
	.byte W72
	.byte W24
	.byte TIE
	.byte An2, Gs5
	.byte W72
	.byte W66
	.byte EOT
	.byte W30
	.byte W96
	.byte W96
	.byte W24
	.byte GOTO
		.word track_27_lbl_230c80

	.byte FINE

track_27_1:
	.byte KEYSH, 0
	.byte VOICE, 46
	.byte VOL, 80
	.byte PAN, c_v-22
	.byte N90
	.byte En2, Gs5
	.byte W96
	.byte An2, En7
	.byte W96
	.byte Gs2
	.byte W96
	.byte Gn2, En6
	.byte W96
	.byte En2, Gs5
	.byte W96
	.byte An2, En7
	.byte W96
	.byte Gs2
	.byte W96
	.byte Gn2, En6
	.byte W96
	.byte En2
	.byte W96
	.byte N90
	.byte W96
	.byte VOICE, 89
	.byte VOL, 37
	.byte PAN, c_v-10
	.byte N06
	.byte Dn3
	.byte W06
	.byte Fs3, En4
	.byte W06
	.byte An3, Gs4
	.byte W06
	.byte Dn4, Cn5
	.byte W06
	.byte N19
	.byte Fs4
	.byte W24
	.byte VOICE, 88
	.byte N24
	.byte En4, En5
	.byte W24
	.byte N20
	.byte Dn4, Gs4
	.byte W24
	.byte N72
	.byte An3, Cn4
	.byte W96
track_27_lbl_230cec:
	.byte VOICE, 89
	.byte N06
	.byte En3, Cn4
	.byte W06
	.byte Fs3, En4
	.byte W06
	.byte Gn3, Gs4
	.byte W06
	.byte An3, Cn5
	.byte W06
	.byte N24
	.byte Dn4
	.byte W24
	.byte Dn3, En3
	.byte W24
	.byte N06
	.byte En4, En2
	.byte W06
	.byte Dn4, Gs2
	.byte W06
	.byte An3, En3
	.byte W06
	.byte Fs3, Cn4
	.byte W06
	.byte PEND
	.byte VOICE, 88
	.byte N42
	.byte En3
	.byte W48
	.byte Bn3, Gs4
	.byte W48
	.byte VOICE, 89
	.byte N06
	.byte Dn3, Cn4
	.byte W06
	.byte Fs3, En4
	.byte W06
	.byte An3, Gs4
	.byte W06
	.byte Dn4, Cn5
	.byte W06
	.byte N19
	.byte Fs4
	.byte W24
	.byte VOICE, 88
	.byte N24
	.byte En4, En5
	.byte W24
	.byte N20
	.byte Dn4, Gs4
	.byte W24
	.byte N72
	.byte An3, Cn4
	.byte W96
	.byte PATT
		.word track_27_lbl_230cec
	.byte N42
	.byte En3, Cn4
	.byte W48
	.byte Bn3, Gs4
	.byte W48
	.byte VOL, 44
	.byte N48
	.byte En3
	.byte W48
	.byte N18
	.byte Fs3, Gs5
	.byte W24
	.byte Dn3, Gs4
	.byte W24
	.byte VOICE, 88
	.byte N18
	.byte Dn3, Gs5
	.byte W24
	.byte Cn3, Gs4
	.byte W24
	.byte En3, En6
	.byte W24
	.byte Dn3, Gs4
	.byte W24
	.byte VOICE, 89
	.byte N18
	.byte As3, En5
	.byte W24
	.byte Gn3, Gs4
	.byte W24
	.byte Dn3, Cn4
	.byte W24
	.byte An3
	.byte W24
	.byte N12
	.byte Fn3
	.byte W12
	.byte Gs3, Gs4
	.byte W12
	.byte N18
	.byte Bn3, Gs5
	.byte W24
	.byte Gn3, Cn4
	.byte W24
	.byte N18
	.byte W24
	.byte N48
	.byte En3, Gs4
	.byte W48
	.byte N18
	.byte Fs3, Gs5
	.byte W24
	.byte Dn3, Cn4
	.byte W24
	.byte Dn3, En5
	.byte W24
	.byte Cn3, Gs4
	.byte W24
	.byte En3, Cn4
	.byte W24
	.byte Dn3
	.byte W24
	.byte As3, En5
	.byte W24
	.byte Gn3, Gs4
	.byte W24
	.byte Dn3, Cn4
	.byte W24
	.byte An3
	.byte W24
	.byte N12
	.byte Fn3, Gs4
	.byte W12
	.byte Gs3, En5
	.byte W12
	.byte N18
	.byte Bn3, Gs5
	.byte W24
	.byte Gn3, Cn4
	.byte W24
	.byte N18
	.byte W24
	.byte VOICE, 46
	.byte VOL, 50
	.byte N42
	.byte An2, Cn6
	.byte W48
	.byte Cn3, En7
	.byte W48
	.byte Bn2
	.byte W48
	.byte As2, En6
	.byte W48
	.byte An2, Cn7
	.byte W48
	.byte Cn3, Cn8
	.byte W48
	.byte Bn2
	.byte W48
	.byte As2, En7
	.byte W48
track_27_lbl_230dc7:
	.byte N42
	.byte An2, Gs7
	.byte W48
	.byte Cn3, Gn8
	.byte W48
	.byte PEND
track_27_lbl_230dcf:
	.byte N42
	.byte Bn2, Gn8
	.byte W48
	.byte As2, Cn8
	.byte W48
	.byte PEND
	.byte PATT
		.word track_27_lbl_230dc7
	.byte PATT
		.word track_27_lbl_230dcf
	.byte VOICE, 81
	.byte VOL, 25
	.byte N90
	.byte Dn3, En7
	.byte W96
	.byte N42
	.byte En3, Cn8
	.byte W48
	.byte Gn3
	.byte W48
	.byte N90
	.byte Fs3, En7
	.byte W96
	.byte N42
	.byte Gn3, Cn8
	.byte W48
	.byte As3
	.byte W48
	.byte N32
	.byte Dn3, En7
	.byte W36
	.byte VOICE, 81
	.byte VOL, 69
	.byte N12
	.byte An2, Cn6
	.byte W12
	.byte N84
	.byte Dn2, Gs5
	.byte W48
	.byte W48
	.byte N36
	.byte Gn2, En7
	.byte W36
	.byte N12
	.byte Fs2, Gs5
	.byte W12
	.byte VOICE, 80
	.byte N16
	.byte Dn1, Cn4
	.byte W16
	.byte An1, En4
	.byte W16
	.byte Dn2, Cn5
	.byte W16
	.byte Fs2, En5
	.byte W16
	.byte An2, Cn6
	.byte W16
	.byte Dn3, En6
	.byte W16
	.byte VOICE, 81
	.byte N36
	.byte En3, Gs5
	.byte W36
	.byte N12
	.byte As2, Cn5
	.byte W12
	.byte N48
	.byte Gn2, Gs4
	.byte W48
	.byte N84
	.byte An2, Cn4
	.byte W96
	.byte VOICE, 80
	.byte N16
	.byte Gn2, En7
	.byte W16
	.byte Fs2, Gs6
	.byte W16
	.byte Dn2, En6
	.byte W16
	.byte En2, Gs5
	.byte W16
	.byte Dn2, En5
	.byte W16
	.byte En2, Gs4
	.byte W16
	.byte VOICE, 81
	.byte N84
	.byte Dn2
	.byte W96
	.byte VOICE, 80
	.byte N16
	.byte Gn2, Cn4
	.byte W16
	.byte As2, Gs4
	.byte W16
	.byte Dn3, En5
	.byte W16
	.byte Gn3, Cn6
	.byte W16
	.byte As3, Gs6
	.byte W16
	.byte Dn4, En7
	.byte W16
	.byte VOICE, 80
	.byte VOL, 37
	.byte N03
	.byte Fs3, Gs4
	.byte W06
	.byte An3, Cn5
	.byte W06
	.byte Fs3
	.byte W06
	.byte An3
	.byte W06
	.byte An3, En5
	.byte W06
	.byte Bn3
	.byte W06
	.byte An3
	.byte W06
	.byte Bn3, Gs5
	.byte W06
	.byte Dn4
	.byte W06
	.byte En4
	.byte W06
	.byte Dn4, Cn6
	.byte W06
	.byte En4
	.byte W06
	.byte N03
	.byte W06
	.byte Fs4, En6
	.byte W06
	.byte En4
	.byte W06
	.byte Fs4
	.byte W06
track_27_lbl_230e93:
	.byte N03
	.byte Fs3, Gs4
	.byte W06
	.byte An3, Cn5
	.byte W06
	.byte Fs3
	.byte W06
	.byte An3
	.byte W06
	.byte An3, En5
	.byte W06
	.byte Bn3
	.byte W06
	.byte An3
	.byte W06
	.byte Bn3, Gs5
	.byte W06
	.byte Dn4
	.byte W06
	.byte En4
	.byte W06
	.byte Dn4, Cn6
	.byte W06
	.byte En4
	.byte W06
	.byte N03
	.byte W06
	.byte Fs4, En6
	.byte W06
	.byte En4
	.byte W06
	.byte Fs4
	.byte W06
	.byte PEND
	.byte PATT
		.word track_27_lbl_230e93
	.byte PATT
		.word track_27_lbl_230e93
	.byte PATT
		.word track_27_lbl_230e93
	.byte PATT
		.word track_27_lbl_230e93
	.byte PATT
		.word track_27_lbl_230e93
	.byte PATT
		.word track_27_lbl_230e93
	.byte PATT
		.word track_27_lbl_230e93
	.byte PATT
		.word track_27_lbl_230e93
	.byte PATT
		.word track_27_lbl_230e93
	.byte PATT
		.word track_27_lbl_230e93
	.byte PATT
		.word track_27_lbl_230e93
	.byte PATT
		.word track_27_lbl_230e93
track_27_lbl_230ef7:
	.byte N03
	.byte Fs3, Gs4
	.byte W06
	.byte An3, Cn5
	.byte W06
	.byte Fs3, En5
	.byte W06
	.byte An3
	.byte W06
	.byte An3, Gs5
	.byte W06
	.byte Bn3, Cn6
	.byte W06
	.byte An3
	.byte W06
	.byte Bn3, En6
	.byte W06
	.byte Dn4, Gs6
	.byte W06
	.byte En4
	.byte W06
	.byte Dn4, Cn7
	.byte W06
	.byte En4, En7
	.byte W06
	.byte N03
	.byte W06
	.byte Fs4, Gs7
	.byte W06
	.byte En4, Cn8
	.byte W06
	.byte Fs4
	.byte W06
	.byte PEND
	.byte PATT
		.word track_27_lbl_230ef7
	.byte VOICE, 47
	.byte VOL, 75
	.byte N92
	.byte An2, Gn8
	.byte W96
	.byte N16
	.byte As1, En6
	.byte W16
	.byte Fn2, Gs6
	.byte W16
	.byte As2, Cn7
	.byte W16
	.byte Dn2, Gs7
	.byte W16
	.byte Gn2, Cn8
	.byte W16
	.byte Cn3, En8
	.byte W16
	.byte N92
	.byte Dn3, Gn8
	.byte W96
	.byte N16
	.byte Fn3, Gs5
	.byte W16
	.byte Cn3, Gs6
	.byte W16
	.byte Gn2, Cn7
	.byte W16
	.byte Gn3, Gs5
	.byte W16
	.byte En3, Cn8
	.byte W16
	.byte Cn3, Gs5
	.byte W16
	.byte N92
	.byte Dn3, Gn8
	.byte W96
	.byte N24
	.byte Dn2, En6
	.byte W24
	.byte An2, Cn7
	.byte W24
	.byte Gn2, Cn8
	.byte W24
	.byte Cn3, Gn8
	.byte W24
track_27_lbl_230f6c:
	.byte N03
	.byte En3, Gn8
	.byte W06
	.byte N03
	.byte W06
	.byte N03
	.byte W24
	.byte N03
	.byte W06
	.byte N03
	.byte W06
	.byte N03
	.byte W12
	.byte N03
	.byte W06
	.byte N03
	.byte W06
	.byte N03
	.byte W06
	.byte N03
	.byte W06
	.byte N03
	.byte W12
	.byte PEND
	.byte PATT
		.word track_27_lbl_230f6c
	.byte N72
	.byte En3, Gs5
	.byte W96
	.byte W12
	.byte N05
	.byte Fs2, En6
	.byte W12
	.byte N03
	.byte W06
	.byte N03
	.byte W06
	.byte N06
	.byte W60
	.byte W96
	.byte W96
	.byte W96
	.byte W24
track_27_lbl_230f9d:
	.byte VOICE, 46
	.byte VOL, 80
	.byte PAN, c_v-22
	.byte N90
	.byte En2, Gs5
	.byte W72
	.byte W24
	.byte An2, En7
	.byte W72
	.byte W24
	.byte Gs2
	.byte W72
	.byte W24
	.byte Gn2, En6
	.byte W72
	.byte W24
	.byte TIE
	.byte En2, Gs5
	.byte W72
	.byte W66
	.byte EOT
	.byte W30
	.byte W96
	.byte W96
	.byte W24
	.byte GOTO
		.word track_27_lbl_230f9d

	.byte FINE

track_27_2:
	.byte KEYSH, 0
	.byte VOICE, 28
	.byte VOL, 69
	.byte PAN, c_v
	.byte N54
	.byte En2, En7
	.byte W96
	.byte An2, Cn3
	.byte W96
	.byte Gs2
	.byte W96
	.byte Gn2
	.byte W96
	.byte En2, En7
	.byte W96
	.byte An2, Cn3
	.byte W96
	.byte Gs2
	.byte W96
	.byte Gn2
	.byte W96
	.byte En2, En6
	.byte W96
	.byte En2, En7
	.byte W96
	.byte W96
	.byte W96
	.byte W96
	.byte W96
	.byte W96
	.byte W96
	.byte W96
	.byte W96
	.byte W96
	.byte W96
	.byte W96
	.byte W96
	.byte W96
	.byte W96
	.byte W96
	.byte W96
	.byte VOICE, 87
	.byte VOL, 69
	.byte PAN, c_v-17
	.byte N24
	.byte Fs5, Cn1
	.byte W24
	.byte PAN, c_v+15
	.byte N24
	.byte An5, En1
	.byte W24
	.byte PAN, c_v-10
	.byte N24
	.byte Dn6
	.byte W24
	.byte PAN, c_v+10
	.byte N24
	.byte An5, Gs1
	.byte W24
	.byte PAN, c_v-17
	.byte N24
	.byte Gn5
	.byte W24
	.byte PAN, c_v+15
	.byte N24
	.byte An5, Cn2
	.byte W24
	.byte PAN, c_v-10
	.byte N24
	.byte Dn6
	.byte W24
	.byte PAN, c_v+10
	.byte N24
	.byte Gn5
	.byte W24
	.byte PAN, c_v-17
	.byte N24
	.byte Fs5, En2
	.byte W24
	.byte PAN, c_v+15
	.byte N24
	.byte An5
	.byte W24
	.byte PAN, c_v-10
	.byte N24
	.byte Dn6, Gs2
	.byte W24
	.byte PAN, c_v+10
	.byte N24
	.byte An5
	.byte W24
	.byte PAN, c_v-17
	.byte N24
	.byte Gn5
	.byte W24
	.byte PAN, c_v+15
	.byte N24
	.byte An5, Cn3
	.byte W24
	.byte PAN, c_v-10
	.byte N24
	.byte Dn6
	.byte W24
	.byte PAN, c_v+10
	.byte N24
	.byte Gn5, En3
	.byte W24
	.byte PAN, c_v-17
	.byte N24
	.byte Fs5
	.byte W24
	.byte PAN, c_v+15
	.byte N24
	.byte An5, Gs3
	.byte W24
	.byte PAN, c_v-10
	.byte N24
	.byte Dn6
	.byte W24
	.byte PAN, c_v+10
	.byte N24
	.byte An5
	.byte W24
	.byte PAN, c_v-17
	.byte N24
	.byte Gn5, Cn4
	.byte W24
	.byte PAN, c_v+15
	.byte N24
	.byte An5
	.byte W24
	.byte PAN, c_v-10
	.byte N24
	.byte Dn6, En4
	.byte W24
	.byte PAN, c_v+10
	.byte N24
	.byte Gn5
	.byte W24
	.byte PAN, c_v-17
	.byte N24
	.byte Fs5
	.byte W24
	.byte PAN, c_v+15
	.byte N24
	.byte An5, Gs4
	.byte W24
	.byte PAN, c_v-10
	.byte N24
	.byte Dn6
	.byte W24
	.byte PAN, c_v+10
	.byte N24
	.byte An5, Cn5
	.byte W24
	.byte PAN, c_v-17
	.byte N24
	.byte Gn5
	.byte W24
	.byte PAN, c_v+15
	.byte N24
	.byte An5, En5
	.byte W24
	.byte PAN, c_v-10
	.byte N24
	.byte Dn6
	.byte W24
	.byte PAN, c_v+10
	.byte N24
	.byte Gn5
	.byte W24
	.byte VOICE, 87
	.byte VOL, 44
	.byte PAN, c_v-17
	.byte N24
	.byte An6, Gs4
	.byte W24
	.byte PAN, c_v+15
	.byte N24
	.byte Gn6, Cn5
	.byte W24
	.byte PAN, c_v-10
	.byte N24
	.byte Fs6, En5
	.byte W24
	.byte PAN, c_v+10
	.byte N24
	.byte En6
	.byte W24
	.byte PAN, c_v-17
	.byte N24
	.byte Gn6, Gs5
	.byte W24
	.byte PAN, c_v+15
	.byte N24
	.byte Fs6
	.byte W24
	.byte PAN, c_v-10
	.byte N24
	.byte Dn6, Cn6
	.byte W24
	.byte PAN, c_v+10
	.byte N24
	.byte En6, En6
	.byte W24
	.byte PAN, c_v-17
	.byte N24
	.byte An6
	.byte W24
	.byte PAN, c_v+15
	.byte N24
	.byte Gn6, Gs6
	.byte W24
	.byte PAN, c_v-10
	.byte N24
	.byte Fs6, Cn7
	.byte W24
	.byte PAN, c_v+10
	.byte N24
	.byte En6
	.byte W24
	.byte PAN, c_v-17
	.byte N24
	.byte Gn6, En7
	.byte W24
	.byte PAN, c_v+15
	.byte N24
	.byte Fs6
	.byte W24
	.byte PAN, c_v-10
	.byte N24
	.byte Dn6, Gs7
	.byte W24
	.byte PAN, c_v+10
	.byte N24
	.byte En6, Cn8
	.byte W24
track_27_lbl_231107:
	.byte PAN, c_v-17
	.byte N24
	.byte An6, Gn8
	.byte W24
	.byte PAN, c_v+15
	.byte N24
	.byte Gn6, Cn8
	.byte W24
	.byte PAN, c_v-10
	.byte N24
	.byte Fs6, En7
	.byte W24
	.byte PAN, c_v+10
	.byte N24
	.byte En6, En6
	.byte W24
	.byte PEND
track_27_lbl_231120:
	.byte PAN, c_v-17
	.byte N24
	.byte Gn6, Gn8
	.byte W24
	.byte PAN, c_v+15
	.byte N24
	.byte Fs6, Cn8
	.byte W24
	.byte PAN, c_v-10
	.byte N24
	.byte Dn6, En7
	.byte W24
	.byte PAN, c_v+10
	.byte N24
	.byte En6, Cn8
	.byte W24
	.byte PEND
	.byte PATT
		.word track_27_lbl_231107
	.byte PATT
		.word track_27_lbl_231120
	.byte PATT
		.word track_27_lbl_231107
	.byte PATT
		.word track_27_lbl_231120
	.byte PATT
		.word track_27_lbl_231107
	.byte PATT
		.word track_27_lbl_231120
	.byte VOICE, 87
	.byte VOL, 37
	.byte PAN, c_v-17
	.byte N24
	.byte An6, Gn8
	.byte W24
	.byte PAN, c_v+15
	.byte N24
	.byte Gn6, Cn8
	.byte W24
	.byte PAN, c_v-10
	.byte N24
	.byte Fs6, En7
	.byte W24
	.byte PAN, c_v+10
	.byte N24
	.byte En6, En6
	.byte W24
	.byte PATT
		.word track_27_lbl_231120
	.byte PATT
		.word track_27_lbl_231107
	.byte PATT
		.word track_27_lbl_231120
	.byte PATT
		.word track_27_lbl_231107
	.byte PATT
		.word track_27_lbl_231120
	.byte PATT
		.word track_27_lbl_231107
	.byte PATT
		.word track_27_lbl_231120
	.byte PATT
		.word track_27_lbl_231107
	.byte PATT
		.word track_27_lbl_231120
	.byte PATT
		.word track_27_lbl_231107
	.byte PATT
		.word track_27_lbl_231120
	.byte PATT
		.word track_27_lbl_231107
	.byte PATT
		.word track_27_lbl_231120
	.byte PATT
		.word track_27_lbl_231107
	.byte PAN, c_v-17
	.byte N24
	.byte Gn6, Gn8
	.byte W24
	.byte PAN, c_v+15
	.byte N24
	.byte Fs6, Cn8
	.byte W24
	.byte PAN, c_v-10
	.byte N24
	.byte Dn6, En7
	.byte W48
	.byte W96
	.byte W96
	.byte W96
	.byte W96
	.byte W96
	.byte W96
	.byte W96
	.byte W96
	.byte W96
	.byte W96
	.byte W96
	.byte W96
	.byte W96
	.byte W24
track_27_lbl_2311d9:
	.byte VOICE, 28
	.byte VOL, 69
	.byte PAN, c_v
	.byte N54
	.byte En2, En7
	.byte W72
	.byte W24
	.byte An2, Cn3
	.byte W72
	.byte W24
	.byte Gs2
	.byte W72
	.byte W24
	.byte Gn2
	.byte W72
	.byte W24
	.byte TIE
	.byte En2, En7
	.byte W72
	.byte W54
	.byte EOT
	.byte W42
	.byte W96
	.byte W96
	.byte W24
	.byte GOTO
		.word track_27_lbl_2311d9

	.byte FINE

track_27_3:
	.byte KEYSH, 0
	.byte W96
	.byte W96
	.byte W96
	.byte W96
	.byte W96
	.byte W96
	.byte W96
	.byte W96
	.byte W96
	.byte W96
	.byte W96
	.byte W96
	.byte W96
	.byte W96
	.byte W96
	.byte W96
	.byte W96
	.byte W96
	.byte VOICE, 95
	.byte VOL, 69
	.byte PAN, c_v
	.byte N44
	.byte Cs3, En7
	.byte W48
	.byte Dn3
	.byte W48
	.byte En3
	.byte W48
	.byte Dn3
	.byte W48
	.byte N44
	.byte W48
	.byte N42
	.byte Fs3, En6
	.byte W48
	.byte N44
	.byte Fn3, Cn8
	.byte W48
	.byte N42
	.byte En3, En6
	.byte W48
	.byte N44
	.byte Cs3, En7
	.byte W48
	.byte Dn3
	.byte W48
	.byte En3
	.byte W48
	.byte Dn3
	.byte W48
	.byte Fn3, En6
	.byte W48
	.byte N36
	.byte Fs3, En7
	.byte W48
	.byte N44
	.byte Fn3
	.byte W48
	.byte N36
	.byte En3, En6
	.byte W48
	.byte VOICE, 95
	.byte VOL, 50
	.byte PAN, c_v+20
	.byte N92
	.byte An3
	.byte W96
	.byte N84
	.byte Gn3, Gs5
	.byte W96
	.byte N92
	.byte An3, En6
	.byte W96
	.byte N84
	.byte Gn3, Gs5
	.byte W96
	.byte N92
	.byte An3, En7
	.byte W96
	.byte N84
	.byte Gn3, En6
	.byte W96
	.byte N92
	.byte An3, Cn8
	.byte W96
	.byte N84
	.byte Gn3, En7
	.byte W96
	.byte VOICE, 72
	.byte VOL, 50
	.byte N96
	.byte Fs4, Gs0
	.byte W96
	.byte N48
	.byte Bn4
	.byte W48
	.byte Cs5
	.byte W48
	.byte N96
	.byte Fs4
	.byte W96
	.byte N48
	.byte Gn4
	.byte W48
	.byte N48
	.byte W48
	.byte N96
	.byte Fs4, En2
	.byte W96
	.byte W03
	.byte N48
	.byte En4, En3
	.byte W44
	.byte W01
	.byte Cs4, Gs3
	.byte W48
	.byte N96
	.byte Fs4, En4
	.byte W96
	.byte N48
	.byte Bn3, En5
	.byte W48
	.byte As3, Cn6
	.byte W48
	.byte N96
	.byte Dn4, En6
	.byte W96
	.byte W03
	.byte N48
	.byte En4
	.byte W44
	.byte W01
	.byte Cs4
	.byte W48
	.byte N96
	.byte Dn4
	.byte W96
	.byte N48
	.byte As3, Gs4
	.byte W48
	.byte As3, En6
	.byte W48
	.byte VOICE, 95
	.byte VOL, 56
	.byte N96
	.byte Dn4
	.byte W96
track_27_lbl_2312b6:
	.byte W03
	.byte N48
	.byte En4, Cn5
	.byte W44
	.byte W01
	.byte Cs4, En6
	.byte W48
	.byte PEND
	.byte N96
	.byte Dn4
	.byte W96
track_27_lbl_2312c3:
	.byte N48
	.byte Bn3, Gs4
	.byte W48
	.byte As3, En6
	.byte W48
	.byte PEND
	.byte N96
	.byte Dn4
	.byte W96
	.byte PATT
		.word track_27_lbl_2312b6
	.byte N96
	.byte Dn4, En6
	.byte W96
	.byte PATT
		.word track_27_lbl_2312c3
	.byte VOL, 56
	.byte N96
	.byte Dn4, En6
	.byte W96
	.byte PATT
		.word track_27_lbl_2312b6
	.byte N96
	.byte Dn4, En6
	.byte W96
	.byte PATT
		.word track_27_lbl_2312c3
	.byte N96
	.byte Dn4, En6
	.byte W96
	.byte PATT
		.word track_27_lbl_2312b6
	.byte N96
	.byte Dn4, En6
	.byte W96
	.byte PATT
		.word track_27_lbl_2312c3
	.byte N96
	.byte Dn4, Cn8
	.byte W96
track_27_lbl_231306:
	.byte N48
	.byte Dn4, En6
	.byte W48
	.byte En4, Cn8
	.byte W48
	.byte PEND
	.byte N92
	.byte Dn4
	.byte W96
	.byte PATT
		.word track_27_lbl_231306
	.byte N92
	.byte Dn4, Cn8
	.byte W96
	.byte N48
	.byte Dn4, En6
	.byte W48
	.byte En4, Gs5
	.byte W48
	.byte N92
	.byte En4, Cn6
	.byte W96
	.byte N96
	.byte W96
	.byte N72
	.byte En4, En2
	.byte W96
	.byte W12
	.byte N06
	.byte Fs4
	.byte W12
	.byte N03
	.byte W06
	.byte N04
	.byte W06
	.byte N07
	.byte W60
	.byte W96
	.byte W96
	.byte W96
	.byte W24
track_27_lbl_231339:
	.byte W72
	.byte W96
	.byte W96
	.byte W96
	.byte W96
	.byte W96
	.byte W96
	.byte W96
	.byte W24
	.byte GOTO
		.word track_27_lbl_231339

	.byte FINE

track_27_4:
	.byte KEYSH, 0
	.byte W96
	.byte W96
	.byte W96
	.byte W96
	.byte W96
	.byte W96
	.byte W96
	.byte W96
	.byte W96
	.byte W96
	.byte VOICE, 51
	.byte VOL, 69
	.byte PAN, c_v
	.byte N36
	.byte Fs3, Gs5
	.byte W48
	.byte N42
	.byte En3
	.byte W48
	.byte N44
	.byte Dn3
	.byte W48
	.byte Cs3
	.byte W48
track_27_lbl_231366:
	.byte N36
	.byte Bn2, En7
	.byte W48
	.byte N44
	.byte An2, En6
	.byte W48
	.byte PEND
	.byte Gn2, En7
	.byte W48
	.byte N48
	.byte An2, En6
	.byte W48
	.byte N36
	.byte Fs3, En7
	.byte W48
	.byte N42
	.byte En3
	.byte W48
	.byte N44
	.byte Dn3, En6
	.byte W48
	.byte Cs3, Gs5
	.byte W48
	.byte PATT
		.word track_27_lbl_231366
	.byte N36
	.byte Gn2, En7
	.byte W48
	.byte N48
	.byte An2, En6
	.byte W48
	.byte VOL, 69
	.byte W96
	.byte W96
	.byte W96
	.byte W96
	.byte W96
	.byte W96
	.byte W96
	.byte W96
	.byte VOICE, 95
	.byte VOL, 50
	.byte PAN, c_v-22
	.byte N92
	.byte Dn3
	.byte W96
	.byte N84
	.byte Dn3, Gs5
	.byte W96
	.byte N92
	.byte Dn3, En6
	.byte W96
	.byte N84
	.byte Dn3, Gs5
	.byte W96
	.byte N92
	.byte Dn3, En7
	.byte W96
	.byte N84
	.byte Dn3, En6
	.byte W96
	.byte N92
	.byte Dn3, Cn8
	.byte W96
	.byte N84
	.byte Dn3, En7
	.byte W96
	.byte VOICE, 72
	.byte VOL, 50
	.byte N96
	.byte Dn4, Gs0
	.byte W96
	.byte N48
	.byte En4
	.byte W48
	.byte An4
	.byte W48
	.byte N96
	.byte Dn4
	.byte W96
	.byte N48
	.byte Bn3
	.byte W48
	.byte As3
	.byte W48
	.byte N96
	.byte Dn4, En2
	.byte W96
	.byte N48
	.byte Gn3, En3
	.byte W48
	.byte An3, Gs3
	.byte W48
	.byte N96
	.byte Dn4, En4
	.byte W96
	.byte N48
	.byte Gn3, En5
	.byte W48
	.byte Gn3, Cn6
	.byte W48
	.byte N96
	.byte Fs3, En6
	.byte W96
	.byte N48
	.byte Gn3
	.byte W48
	.byte An3
	.byte W48
	.byte N96
	.byte Fs3
	.byte W96
track_27_lbl_2313f7:
	.byte N48
	.byte Gn3, Gs4
	.byte W48
	.byte Gn3, En6
	.byte W48
	.byte PEND
	.byte VOICE, 95
	.byte VOL, 56
	.byte N96
	.byte Fs3
	.byte W96
track_27_lbl_231406:
	.byte N48
	.byte Gn3, Gs4
	.byte W48
	.byte An3, En6
	.byte W48
	.byte PEND
	.byte N96
	.byte Fs3
	.byte W96
	.byte PATT
		.word track_27_lbl_2313f7
	.byte N96
	.byte Fs3, En6
	.byte W96
	.byte PATT
		.word track_27_lbl_231406
	.byte N96
	.byte Fs3, En6
	.byte W96
	.byte PATT
		.word track_27_lbl_2313f7
	.byte VOL, 56
	.byte N96
	.byte Fs3, En6
	.byte W96
	.byte PATT
		.word track_27_lbl_231406
	.byte N96
	.byte Fs3, En6
	.byte W96
	.byte PATT
		.word track_27_lbl_2313f7
	.byte N96
	.byte Fs3, En6
	.byte W96
	.byte PATT
		.word track_27_lbl_231406
	.byte N96
	.byte Fs3, En6
	.byte W96
	.byte PATT
		.word track_27_lbl_2313f7
	.byte N96
	.byte Fs3, Cn8
	.byte W96
track_27_lbl_231452:
	.byte N48
	.byte As3, En6
	.byte W48
	.byte Cn4, Cn8
	.byte W48
	.byte PEND
	.byte N92
	.byte Fs3
	.byte W96
	.byte PATT
		.word track_27_lbl_231452
	.byte N92
	.byte Fs3, Cn8
	.byte W96
	.byte N48
	.byte As3, En6
	.byte W48
	.byte Cn4, Gs5
	.byte W48
	.byte N92
	.byte An3, Cn6
	.byte W96
	.byte N96
	.byte W96
	.byte N72
	.byte An3, En2
	.byte W96
	.byte W12
	.byte N05
	.byte Bn3
	.byte W12
	.byte N03
	.byte W06
	.byte N03
	.byte W06
	.byte N06
	.byte W60
	.byte W96
	.byte W96
	.byte W96
	.byte W24
track_27_lbl_231485:
	.byte W72
	.byte W96
	.byte W96
	.byte W96
	.byte W96
	.byte W96
	.byte W96
	.byte W96
	.byte W24
	.byte GOTO
		.word track_27_lbl_231485

	.byte FINE

track_27_5:
	.byte KEYSH, 0
	.byte VOICE, 84
	.byte VOL, 80
	.byte PAN, c_v
	.byte N04
	.byte An0, Gn8
	.byte W06
	.byte N04
	.byte W06
	.byte N04
	.byte W24
	.byte N04
	.byte W06
	.byte N04
	.byte W06
	.byte N04
	.byte W12
	.byte N04
	.byte W06
	.byte N04
	.byte W06
	.byte N04
	.byte W06
	.byte N04
	.byte W06
	.byte N04
	.byte W12
track_27_lbl_2314b4:
	.byte N04
	.byte An0, Gn8
	.byte W06
	.byte N04
	.byte W06
	.byte N04
	.byte W24
	.byte N04
	.byte W06
	.byte N04
	.byte W06
	.byte N04
	.byte W12
	.byte N04
	.byte W06
	.byte N04
	.byte W06
	.byte N04
	.byte W06
	.byte N04
	.byte W06
	.byte N04
	.byte W12
	.byte PEND
	.byte PATT
		.word track_27_lbl_2314b4
	.byte PATT
		.word track_27_lbl_2314b4
	.byte PATT
		.word track_27_lbl_2314b4
	.byte PATT
		.word track_27_lbl_2314b4
	.byte PATT
		.word track_27_lbl_2314b4
	.byte PATT
		.word track_27_lbl_2314b4
	.byte PATT
		.word track_27_lbl_2314b4
	.byte PATT
		.word track_27_lbl_2314b4
	.byte VOICE, 100
	.byte VOL, 80
	.byte N12
	.byte Dn2, Gn8
	.byte W24
	.byte Dn2, En8
	.byte W24
	.byte Cs2
	.byte W24
	.byte Cs2, Cn8
	.byte W24
track_27_lbl_231505:
	.byte N12
	.byte Bn1, Cn8
	.byte W24
	.byte Bn1, Gs7
	.byte W24
	.byte An1, En7
	.byte W24
	.byte N12
	.byte W24
	.byte PEND
track_27_lbl_231512:
	.byte N12
	.byte Gn1, En7
	.byte W24
	.byte N12
	.byte W24
	.byte Fs1, Gs7
	.byte W24
	.byte Fs1, Cn8
	.byte W24
	.byte PEND
track_27_lbl_23151f:
	.byte N12
	.byte En1, Cn8
	.byte W24
	.byte En1, En8
	.byte W24
	.byte An1
	.byte W24
	.byte An1, Gn8
	.byte W24
	.byte PEND
	.byte Dn2
	.byte W24
	.byte Dn2, En8
	.byte W24
	.byte Cs2
	.byte W24
	.byte Cs2, Cn8
	.byte W24
	.byte PATT
		.word track_27_lbl_231505
	.byte PATT
		.word track_27_lbl_231512
	.byte PATT
		.word track_27_lbl_23151f
	.byte PATT
		.word track_27_lbl_231512
track_27_lbl_23154a:
	.byte N12
	.byte Cn2, Cn8
	.byte W24
	.byte Cn2, En8
	.byte W24
	.byte Bn1
	.byte W24
	.byte Bn1, Gn8
	.byte W24
	.byte PEND
	.byte As1
	.byte W24
	.byte As1, En8
	.byte W24
	.byte An1
	.byte W24
	.byte An1, Cn8
	.byte W24
	.byte Gs1
	.byte W24
	.byte Gs1, Gs7
	.byte W24
	.byte An1, En7
	.byte W24
	.byte N12
	.byte W24
	.byte PATT
		.word track_27_lbl_231512
	.byte PATT
		.word track_27_lbl_23154a
	.byte N12
	.byte As1, Gn8
	.byte W24
	.byte N12
	.byte W24
	.byte An1
	.byte W24
	.byte N12
	.byte W24
	.byte Gs1
	.byte W24
	.byte N12
	.byte W24
	.byte An1
	.byte W24
	.byte N12
	.byte W24
	.byte VOICE, 84
	.byte VOL, 80
	.byte N04
	.byte Dn1, En6
	.byte W06
	.byte N04
	.byte W06
	.byte N04
	.byte W24
	.byte N04
	.byte W06
	.byte N04
	.byte W06
	.byte N04
	.byte W12
	.byte N04
	.byte W06
	.byte N04
	.byte W06
	.byte N04
	.byte W06
	.byte N04
	.byte W06
	.byte N04
	.byte W12
track_27_lbl_2315a3:
	.byte N04
	.byte Dn1, En6
	.byte W06
	.byte N04
	.byte W06
	.byte N04
	.byte W24
	.byte N04
	.byte W06
	.byte N04
	.byte W06
	.byte N04
	.byte W12
	.byte N04
	.byte W06
	.byte N04
	.byte W06
	.byte N04
	.byte W06
	.byte N04
	.byte W06
	.byte N04
	.byte W12
	.byte PEND
	.byte PATT
		.word track_27_lbl_2315a3
	.byte PATT
		.word track_27_lbl_2315a3
	.byte PATT
		.word track_27_lbl_2315a3
	.byte PATT
		.word track_27_lbl_2315a3
	.byte PATT
		.word track_27_lbl_2315a3
	.byte PATT
		.word track_27_lbl_2315a3
	.byte VOICE, 86
	.byte VOL, 44
	.byte N03
	.byte Dn4, En2
	.byte W06
	.byte N03
	.byte W06
	.byte An4
	.byte W06
	.byte N03
	.byte W06
	.byte Dn5
	.byte W06
	.byte N03
	.byte W06
	.byte An4
	.byte W06
	.byte N03
	.byte W06
	.byte Dn4
	.byte W06
	.byte N03
	.byte W06
	.byte An4
	.byte W06
	.byte N03
	.byte W06
	.byte Dn5
	.byte W06
	.byte N03
	.byte W06
	.byte An4
	.byte W06
	.byte N03
	.byte W06
	.byte Dn4
	.byte W06
	.byte N03
	.byte W06
	.byte An4
	.byte W06
	.byte N03
	.byte W06
	.byte Dn5, Gs2
	.byte W06
	.byte N03
	.byte W06
	.byte An4
	.byte W06
	.byte N03
	.byte W06
	.byte Dn4
	.byte W06
	.byte N03
	.byte W06
	.byte An4
	.byte W06
	.byte N03
	.byte W06
	.byte Dn5
	.byte W06
	.byte N03
	.byte W06
	.byte An4
	.byte W06
	.byte N03
	.byte W06
	.byte Dn4
	.byte W06
	.byte N03
	.byte W06
	.byte An4
	.byte W06
	.byte N03
	.byte W06
	.byte Dn5
	.byte W06
	.byte N03
	.byte W06
	.byte An4
	.byte W06
	.byte N03
	.byte W06
	.byte Dn4
	.byte W06
	.byte N03
	.byte W06
	.byte An4
	.byte W06
	.byte N03
	.byte W06
	.byte Dn5
	.byte W06
	.byte Dn5, Cn3
	.byte W06
	.byte An4
	.byte W06
	.byte N03
	.byte W06
	.byte Dn4
	.byte W06
	.byte N03
	.byte W06
	.byte An4
	.byte W06
	.byte N03
	.byte W06
	.byte Dn5
	.byte W06
	.byte N03
	.byte W06
	.byte An4
	.byte W06
	.byte N03
	.byte W06
	.byte Dn4
	.byte W06
	.byte N03
	.byte W06
	.byte An4
	.byte W06
	.byte N03
	.byte W06
	.byte Dn5
	.byte W06
	.byte N03
	.byte W06
	.byte An4
	.byte W06
	.byte N03
	.byte W06
	.byte VOL, 44
	.byte N03
	.byte Dn4, En3
	.byte W06
	.byte N03
	.byte W06
	.byte An4
	.byte W06
	.byte N03
	.byte W06
	.byte Dn5
	.byte W06
	.byte N03
	.byte W06
	.byte An4
	.byte W06
	.byte N03
	.byte W06
	.byte Dn4
	.byte W06
	.byte N03
	.byte W06
	.byte An4
	.byte W06
	.byte N03
	.byte W06
	.byte Dn5
	.byte W06
	.byte N03
	.byte W06
	.byte An4
	.byte W06
	.byte N03
	.byte W06
	.byte Dn4
	.byte W06
	.byte N03
	.byte W06
	.byte An4
	.byte W06
	.byte N03
	.byte W06
	.byte Dn5
	.byte W06
	.byte N03
	.byte W06
	.byte An4
	.byte W06
	.byte N03
	.byte W06
	.byte Dn4
	.byte W06
	.byte N03
	.byte W06
	.byte An4
	.byte W06
	.byte N03
	.byte W06
	.byte Dn5, Gs3
	.byte W06
	.byte N03
	.byte W06
	.byte An4
	.byte W06
	.byte N03
	.byte W06
	.byte Dn4
	.byte W06
	.byte N03
	.byte W06
	.byte An4
	.byte W06
	.byte N03
	.byte W06
	.byte Dn5
	.byte W06
	.byte N03
	.byte W06
	.byte An4
	.byte W06
	.byte N03
	.byte W06
	.byte Dn4
	.byte W06
	.byte N03
	.byte W06
	.byte An4
	.byte W06
	.byte N03
	.byte W06
	.byte Dn5
	.byte W06
	.byte N03
	.byte W06
	.byte An4
	.byte W06
	.byte N03
	.byte W06
	.byte Dn4
	.byte W06
	.byte N03
	.byte W06
	.byte An4
	.byte W06
	.byte N03
	.byte W06
	.byte Dn5
	.byte W06
	.byte N03
	.byte W06
	.byte An4
	.byte W06
	.byte N03
	.byte W06
	.byte Dn4, Cn4
	.byte W06
	.byte N03
	.byte W06
	.byte An4
	.byte W06
	.byte N03
	.byte W06
	.byte Dn5
	.byte W06
	.byte N03
	.byte W06
	.byte An4
	.byte W06
	.byte N03
	.byte W06
	.byte Dn4
	.byte W06
	.byte N03
	.byte W06
	.byte An4
	.byte W06
	.byte N03
	.byte W06
	.byte Dn5
	.byte W06
	.byte N03
	.byte W06
	.byte An4
	.byte W06
	.byte N03
	.byte W06
	.byte Dn4
	.byte W06
	.byte N03
	.byte W06
	.byte An4
	.byte W06
	.byte N03
	.byte W06
	.byte Dn5
	.byte W06
	.byte N03
	.byte W06
	.byte An4
	.byte W06
	.byte N03
	.byte W06
	.byte Dn4
	.byte W06
	.byte N03
	.byte W06
	.byte An4
	.byte W06
	.byte N03
	.byte W06
	.byte Dn5, En4
	.byte W06
	.byte N03
	.byte W06
	.byte An4
	.byte W06
	.byte N03
	.byte W06
	.byte Dn4
	.byte W06
	.byte N03
	.byte W06
	.byte An4
	.byte W06
	.byte N03
	.byte W06
	.byte Dn5
	.byte W06
	.byte N03
	.byte W06
	.byte An4
	.byte W06
	.byte N03
	.byte W06
	.byte Dn4
	.byte W06
	.byte N03
	.byte W06
	.byte An4
	.byte W06
	.byte N03
	.byte W06
	.byte Dn5
	.byte W06
	.byte N03
	.byte W06
	.byte An4
	.byte W06
	.byte N03
	.byte W06
	.byte Dn4
	.byte W06
	.byte N03
	.byte W06
	.byte An4
	.byte W06
	.byte N03
	.byte W06
	.byte Dn5
	.byte W06
	.byte N03
	.byte W06
	.byte An4
	.byte W06
	.byte N03
	.byte W06
	.byte Dn4, Gs4
	.byte W06
	.byte N03
	.byte W06
	.byte An4
	.byte W06
	.byte N03
	.byte W06
	.byte Dn5
	.byte W06
	.byte N03
	.byte W06
	.byte An4
	.byte W06
	.byte N03
	.byte W06
	.byte Dn4
	.byte W06
	.byte N03
	.byte W06
	.byte An4
	.byte W06
	.byte N03
	.byte W06
	.byte Dn5
	.byte W06
	.byte N03
	.byte W06
	.byte An4
	.byte W06
	.byte N03
	.byte W06
	.byte VOICE, 101
	.byte VOL, 80
	.byte N12
	.byte Dn1, Gn8
	.byte W12
	.byte N12
	.byte W12
	.byte N12
	.byte W12
	.byte N12
	.byte W24
	.byte Fs1
	.byte W12
	.byte N12
	.byte W12
	.byte N12
	.byte W12
track_27_lbl_23177e:
	.byte N12
	.byte En1, Gn8
	.byte W12
	.byte N12
	.byte W12
	.byte N12
	.byte W12
	.byte N12
	.byte W12
	.byte An1
	.byte W12
	.byte N12
	.byte W12
	.byte N12
	.byte W12
	.byte N12
	.byte W12
	.byte PEND
track_27_lbl_231791:
	.byte W12
	.byte N12
	.byte Fs1, Gn8
	.byte W12
	.byte N12
	.byte W12
	.byte N12
	.byte W12
	.byte N12
	.byte W12
	.byte N12
	.byte W12
	.byte N12
	.byte W12
	.byte N12
	.byte W12
	.byte PEND
track_27_lbl_2317a3:
	.byte N16
	.byte Gn1, Gn8
	.byte W16
	.byte Dn1
	.byte W16
	.byte En1
	.byte W16
	.byte As1
	.byte W16
	.byte An1
	.byte W16
	.byte Gn1
	.byte W16
	.byte PEND
track_27_lbl_2317b2:
	.byte N12
	.byte Dn1, Gn8
	.byte W12
	.byte N12
	.byte W12
	.byte N12
	.byte W12
	.byte N12
	.byte W24
	.byte Fs1
	.byte W12
	.byte N12
	.byte W12
	.byte N12
	.byte W12
	.byte PEND
	.byte PATT
		.word track_27_lbl_23177e
	.byte PATT
		.word track_27_lbl_231791
	.byte PATT
		.word track_27_lbl_2317a3
	.byte PATT
		.word track_27_lbl_2317b2
	.byte PATT
		.word track_27_lbl_23177e
	.byte PATT
		.word track_27_lbl_231791
	.byte PATT
		.word track_27_lbl_2317a3
	.byte PATT
		.word track_27_lbl_2317b2
	.byte PATT
		.word track_27_lbl_23177e
	.byte PATT
		.word track_27_lbl_231791
	.byte PATT
		.word track_27_lbl_2317a3
track_27_lbl_2317fa:
	.byte N04
	.byte Dn1, Gn8
	.byte W06
	.byte N04
	.byte W06
	.byte N04
	.byte W24
	.byte N04
	.byte W06
	.byte N04
	.byte W06
	.byte N04
	.byte W12
	.byte N04
	.byte W06
	.byte N04
	.byte W06
	.byte N04
	.byte W06
	.byte N04
	.byte W06
	.byte N04
	.byte W12
	.byte PEND
track_27_lbl_231813:
	.byte N04
	.byte As0, Gn8
	.byte W06
	.byte N04
	.byte W06
	.byte N04
	.byte W24
	.byte N04
	.byte W06
	.byte N04
	.byte W06
	.byte Cn1
	.byte W12
	.byte N04
	.byte W06
	.byte N04
	.byte W06
	.byte N04
	.byte W06
	.byte N04
	.byte W06
	.byte N04
	.byte W12
	.byte PEND
	.byte PATT
		.word track_27_lbl_2317fa
	.byte PATT
		.word track_27_lbl_231813
	.byte PATT
		.word track_27_lbl_2317fa
	.byte PATT
		.word track_27_lbl_231813
	.byte PATT
		.word track_27_lbl_2317fa
	.byte PATT
		.word track_27_lbl_2317fa
	.byte N72
	.byte Dn1, En6
	.byte W96
	.byte W12
	.byte N06
	.byte Dn1, Gn8
	.byte W12
	.byte N03
	.byte W06
	.byte N04
	.byte W06
	.byte N07
	.byte W60
	.byte W96
	.byte W96
	.byte W96
	.byte W24
track_27_lbl_23185d:
	.byte VOICE, 84
	.byte VOL, 80
	.byte N04
	.byte An0, Gn8
	.byte W06
	.byte N04
	.byte W06
	.byte N04
	.byte W24
	.byte N04
	.byte W06
	.byte N04
	.byte W06
	.byte N04
	.byte W12
	.byte N04
	.byte W06
	.byte N04
	.byte W06
track_27_lbl_231873:
	.byte N04
	.byte An0, Gn8
	.byte W06
	.byte N04
	.byte W06
	.byte N04
	.byte W12
	.byte N04
	.byte W06
	.byte N04
	.byte W06
	.byte N04
	.byte W24
	.byte N04
	.byte W06
	.byte N04
	.byte W06
	.byte N04
	.byte W12
	.byte N04
	.byte W06
	.byte N04
	.byte W06
	.byte PEND
	.byte PATT
		.word track_27_lbl_231873
	.byte PATT
		.word track_27_lbl_231873
	.byte PATT
		.word track_27_lbl_231873
	.byte PATT
		.word track_27_lbl_231873
	.byte PATT
		.word track_27_lbl_231873
	.byte PATT
		.word track_27_lbl_231873
	.byte N04
	.byte An0, Gn8
	.byte W06
	.byte N04
	.byte W06
	.byte N04
	.byte W12
	.byte GOTO
		.word track_27_lbl_23185d

	.byte FINE

track_27_6:
	.byte KEYSH, 0
	.byte VOICE, 83
	.byte VOL, 69
	.byte N06
	.byte Dn3, Gs4
	.byte W06
	.byte Cn3, Cn3
	.byte W06
	.byte N06
	.byte W24
	.byte N06
	.byte W06
	.byte N06
	.byte W06
	.byte N06
	.byte W12
	.byte N06
	.byte W06
	.byte N06
	.byte W06
	.byte Dn3, Gs4
	.byte W06
	.byte Cn3, Cn3
	.byte W06
	.byte N06
	.byte W12
track_27_lbl_2318d9:
	.byte N06
	.byte Dn3, Gs4
	.byte W06
	.byte Cn3, Cn3
	.byte W06
	.byte N06
	.byte W24
	.byte N06
	.byte W06
	.byte N06
	.byte W06
	.byte N06
	.byte W12
	.byte N06
	.byte W06
	.byte N06
	.byte W06
	.byte Dn3, Gs4
	.byte W06
	.byte Cn3, Cn3
	.byte W06
	.byte N06
	.byte W12
	.byte PEND
	.byte PATT
		.word track_27_lbl_2318d9
	.byte PATT
		.word track_27_lbl_2318d9
	.byte PATT
		.word track_27_lbl_2318d9
	.byte PATT
		.word track_27_lbl_2318d9
	.byte PATT
		.word track_27_lbl_2318d9
	.byte PATT
		.word track_27_lbl_2318d9
	.byte PATT
		.word track_27_lbl_2318d9
	.byte PATT
		.word track_27_lbl_2318d9
track_27_lbl_23191d:
	.byte VOICE, 92
	.byte N48
	.byte Gn2, Gs4
	.byte W48
	.byte N48
	.byte W48
	.byte PEND
track_27_lbl_231926:
	.byte N48
	.byte Gn2, Gs4
	.byte W48
	.byte N48
	.byte W48
	.byte PEND
track_27_lbl_23192d:
	.byte N48
	.byte Gn2, Gs4
	.byte W24
	.byte VOICE, 92
	.byte W24
	.byte N48
	.byte W24
	.byte VOICE, 92
	.byte W24
	.byte PEND
track_27_lbl_23193a:
	.byte N48
	.byte Gn2, Gs4
	.byte W24
	.byte VOICE, 92
	.byte W24
	.byte N48
	.byte W48
	.byte PEND
	.byte PATT
		.word track_27_lbl_23191d
	.byte PATT
		.word track_27_lbl_231926
	.byte PATT
		.word track_27_lbl_23192d
	.byte PATT
		.word track_27_lbl_23193a
	.byte PATT
		.word track_27_lbl_23191d
	.byte PATT
		.word track_27_lbl_23191d
	.byte PATT
		.word track_27_lbl_23192d
	.byte PATT
		.word track_27_lbl_23191d
	.byte PATT
		.word track_27_lbl_23191d
	.byte PATT
		.word track_27_lbl_231926
	.byte PATT
		.word track_27_lbl_23192d
	.byte PATT
		.word track_27_lbl_23193a
	.byte VOICE, 83
	.byte VOL, 69
	.byte N12
	.byte Bn2, En6
	.byte W12
	.byte VOICE, 83
	.byte N06
	.byte Cn3, En1
	.byte W06
	.byte N06
	.byte W06
	.byte N06
	.byte W12
	.byte N06
	.byte W06
	.byte Cn3, Gs1
	.byte W54
	.byte VOICE, 83
	.byte N12
	.byte Bn2, En6
	.byte W12
	.byte VOICE, 83
	.byte N06
	.byte Cn3, Gs1
	.byte W06
	.byte Cn3, Cn2
	.byte W06
	.byte N06
	.byte W12
	.byte N06
	.byte W06
	.byte N06
	.byte W54
	.byte VOICE, 83
	.byte N12
	.byte Bn2, En6
	.byte W12
	.byte VOICE, 83
	.byte N06
	.byte Cn3, En2
	.byte W06
	.byte N06
	.byte W06
	.byte N06
	.byte W12
	.byte N06
	.byte W06
	.byte N06
	.byte W54
	.byte VOICE, 83
	.byte N12
	.byte Bn2, En6
	.byte W12
	.byte VOICE, 83
	.byte N06
	.byte Cn3, Gs2
	.byte W06
	.byte N06
	.byte W06
	.byte N06
	.byte W12
	.byte N06
	.byte W06
	.byte N06
	.byte W54
	.byte VOICE, 83
	.byte N12
	.byte Bn2, En6
	.byte W12
	.byte VOICE, 83
	.byte N06
	.byte Cn3, Cn3
	.byte W06
	.byte N06
	.byte W06
	.byte N06
	.byte W12
	.byte Cn3, En3
	.byte W06
	.byte N06
	.byte W54
	.byte VOICE, 83
	.byte N12
	.byte Bn2, En6
	.byte W12
	.byte VOICE, 83
	.byte N06
	.byte Cn3, Gs3
	.byte W06
	.byte N06
	.byte W06
	.byte N06
	.byte W12
	.byte N06
	.byte W06
	.byte N06
	.byte W54
track_27_lbl_2319fd:
	.byte VOICE, 83
	.byte N12
	.byte Bn2, En6
	.byte W12
	.byte VOICE, 83
	.byte N06
	.byte Cn3, Cn4
	.byte W06
	.byte N06
	.byte W06
	.byte N06
	.byte W12
	.byte N06
	.byte W06
	.byte N06
	.byte W54
	.byte PEND
	.byte PATT
		.word track_27_lbl_2319fd
	.byte VOICE, 102
	.byte N12
	.byte Cn3, Gs1
	.byte W12
	.byte N06
	.byte Cn3, En0
	.byte W06
	.byte N06
	.byte W06
	.byte N12
	.byte Cn3, Gs1
	.byte W12
	.byte N06
	.byte Cn3, En0
	.byte W06
	.byte N06
	.byte W06
	.byte N12
	.byte Cn3, Gs1
	.byte W12
	.byte N06
	.byte Cn3, En0
	.byte W06
	.byte N06
	.byte W06
	.byte N12
	.byte Cn3, Gs1
	.byte W12
	.byte N06
	.byte Cn3, En0
	.byte W06
	.byte N06
	.byte W06
track_27_lbl_231a41:
	.byte N12
	.byte Cn3, Gs1
	.byte W12
	.byte N06
	.byte Cn3, En0
	.byte W06
	.byte N06
	.byte W06
	.byte N12
	.byte Cn3, Gs1
	.byte W12
	.byte N06
	.byte Cn3, En0
	.byte W06
	.byte N06
	.byte W06
	.byte N12
	.byte Cn3, Gs1
	.byte W12
	.byte N06
	.byte Cn3, En0
	.byte W06
	.byte N06
	.byte W06
	.byte N12
	.byte Cn3, Gs1
	.byte W12
	.byte N06
	.byte Cn3, En0
	.byte W06
	.byte N06
	.byte W06
	.byte PEND
	.byte PATT
		.word track_27_lbl_231a41
	.byte PATT
		.word track_27_lbl_231a41
	.byte PATT
		.word track_27_lbl_231a41
	.byte PATT
		.word track_27_lbl_231a41
	.byte PATT
		.word track_27_lbl_231a41
	.byte PATT
		.word track_27_lbl_231a41
	.byte PATT
		.word track_27_lbl_231a41
	.byte PATT
		.word track_27_lbl_231a41
	.byte PATT
		.word track_27_lbl_231a41
	.byte PATT
		.word track_27_lbl_231a41
	.byte VOICE, 83
	.byte VOL, 69
	.byte W24
	.byte N06
	.byte Bn2, Gs4
	.byte W06
	.byte N06
	.byte W06
	.byte N12
	.byte W12
	.byte N06
	.byte W06
	.byte N06
	.byte W06
	.byte N12
	.byte W12
	.byte N06
	.byte W06
	.byte N06
	.byte W06
	.byte N12
	.byte W12
track_27_lbl_231ab5:
	.byte N06
	.byte Gn2, Gs4
	.byte W06
	.byte N06
	.byte W06
	.byte N12
	.byte W12
	.byte N06
	.byte W06
	.byte N06
	.byte W06
	.byte N12
	.byte W12
	.byte N06
	.byte W06
	.byte N06
	.byte W06
	.byte N12
	.byte W12
	.byte N06
	.byte Bn2
	.byte W06
	.byte N06
	.byte W06
	.byte N06
	.byte W12
	.byte PEND
	.byte N06
	.byte W06
	.byte N06
	.byte W06
	.byte N12
	.byte W12
	.byte N06
	.byte W06
	.byte N06
	.byte W06
	.byte N12
	.byte W12
	.byte N06
	.byte W06
	.byte N06
	.byte W06
	.byte N12
	.byte W12
	.byte N06
	.byte W06
	.byte N06
	.byte W06
	.byte N12
	.byte W12
	.byte PATT
		.word track_27_lbl_231ab5
track_27_lbl_231aee:
	.byte W24
	.byte N06
	.byte Bn2, Gs4
	.byte W06
	.byte N06
	.byte W06
	.byte N12
	.byte W12
	.byte N06
	.byte W06
	.byte N06
	.byte W06
	.byte N12
	.byte W12
	.byte N06
	.byte W06
	.byte N06
	.byte W06
	.byte N12
	.byte W12
	.byte PEND
track_27_lbl_231b04:
	.byte N06
	.byte Gn2, Gs4
	.byte W06
	.byte N06
	.byte W06
	.byte N12
	.byte W12
	.byte N06
	.byte W06
	.byte N06
	.byte W06
	.byte N12
	.byte W12
	.byte N06
	.byte W06
	.byte N06
	.byte W06
	.byte N12
	.byte W12
	.byte N06
	.byte W06
	.byte N06
	.byte W06
	.byte N06
	.byte W12
	.byte PEND
	.byte PATT
		.word track_27_lbl_231aee
track_27_lbl_231b24:
	.byte N06
	.byte Gn2, Gs4
	.byte W06
	.byte N06
	.byte W06
	.byte N12
	.byte W12
	.byte N06
	.byte W06
	.byte N06
	.byte W06
	.byte N12
	.byte W12
	.byte N06
	.byte Bn2
	.byte W06
	.byte N06
	.byte W06
	.byte N12
	.byte W12
	.byte N06
	.byte W06
	.byte N06
	.byte W06
	.byte N06
	.byte W12
	.byte PEND
	.byte PATT
		.word track_27_lbl_231aee
	.byte PATT
		.word track_27_lbl_231b04
	.byte PATT
		.word track_27_lbl_231aee
	.byte PATT
		.word track_27_lbl_231b24
	.byte PATT
		.word track_27_lbl_231aee
	.byte PATT
		.word track_27_lbl_231b24
	.byte PATT
		.word track_27_lbl_231aee
	.byte PATT
		.word track_27_lbl_231b04
track_27_lbl_231b68:
	.byte N04
	.byte Bn2, Gs4
	.byte W06
	.byte N04
	.byte W06
	.byte N04
	.byte W24
	.byte N04
	.byte W06
	.byte N04
	.byte W06
	.byte N04
	.byte W12
	.byte N04
	.byte W06
	.byte N04
	.byte W06
	.byte N04
	.byte W06
	.byte N04
	.byte W06
	.byte N04
	.byte W12
	.byte PEND
	.byte PATT
		.word track_27_lbl_231b68
track_27_lbl_231b86:
	.byte W36
	.byte N04
	.byte Bn2, Gs4
	.byte W06
	.byte N04
	.byte W06
	.byte N04
	.byte W12
	.byte N04
	.byte W06
	.byte N04
	.byte W06
	.byte N04
	.byte W06
	.byte N04
	.byte W06
	.byte N04
	.byte W12
	.byte PEND
	.byte PATT
		.word track_27_lbl_231b68
	.byte PATT
		.word track_27_lbl_231b86
	.byte PATT
		.word track_27_lbl_231b68
	.byte PATT
		.word track_27_lbl_231b86
	.byte PATT
		.word track_27_lbl_231b86
	.byte N48
	.byte Bn2, Gs4
	.byte W96
	.byte W12
	.byte N05
	.byte Bn2, Cn8
	.byte W12
	.byte N03
	.byte W06
	.byte N03
	.byte W06
	.byte N06
	.byte W60
	.byte W96
	.byte W96
	.byte W96
	.byte W24
track_27_lbl_231bc6:
	.byte VOICE, 83
	.byte VOL, 69
	.byte N06
	.byte Dn3, Gs4
	.byte W06
	.byte Cn3, Cn3
	.byte W06
	.byte N06
	.byte W24
	.byte N06
	.byte W06
	.byte N06
	.byte W06
	.byte N06
	.byte W12
	.byte N06
	.byte W06
	.byte N06
	.byte W06
track_27_lbl_231bdd:
	.byte N06
	.byte Dn3, Gs4
	.byte W06
	.byte Cn3, Cn3
	.byte W06
	.byte N06
	.byte W12
	.byte Dn3, Gs4
	.byte W06
	.byte Cn3, Cn3
	.byte W06
	.byte N06
	.byte W24
	.byte N06
	.byte W06
	.byte N06
	.byte W06
	.byte N06
	.byte W12
	.byte N06
	.byte W06
	.byte N06
	.byte W06
	.byte PEND
	.byte PATT
		.word track_27_lbl_231bdd
	.byte PATT
		.word track_27_lbl_231bdd
	.byte PATT
		.word track_27_lbl_231bdd
	.byte PATT
		.word track_27_lbl_231bdd
	.byte PATT
		.word track_27_lbl_231bdd
	.byte PATT
		.word track_27_lbl_231bdd
	.byte N06
	.byte Dn3, Gs4
	.byte W06
	.byte Cn3, Cn3
	.byte W06
	.byte N06
	.byte W12
	.byte GOTO
		.word track_27_lbl_231bc6

	.byte FINE

track_27_7:
	.byte KEYSH, 0
	.byte W96
	.byte W96
	.byte W96
	.byte W96
	.byte W96
	.byte W96
	.byte W96
	.byte W96
	.byte W96
	.byte W96
	.byte VOICE, 25
	.byte VOL, 80
	.byte PAN, c_v
	.byte N48
	.byte Cn3, Gn8
	.byte W48
	.byte VOICE, 92
	.byte W48
	.byte Gs5
	.byte W96
	.byte Gs5
	.byte W48
	.byte Gs5
	.byte W48
	.byte Gs5
	.byte W96
track_27_lbl_231c47:
	.byte VOICE, 25
	.byte N48
	.byte Cn3, Gn8
	.byte W48
	.byte VOICE, 92
	.byte W48
	.byte PEND
	.byte Gs5
	.byte W96
	.byte Gs5
	.byte W48
	.byte Gs5
	.byte W48
	.byte Gs5
	.byte W96
	.byte PATT
		.word track_27_lbl_231c47
	.byte VOICE, 92
	.byte W96
	.byte PATT
		.word track_27_lbl_231c47
	.byte VOICE, 92
	.byte W96
	.byte PATT
		.word track_27_lbl_231c47
	.byte PATT
		.word track_27_lbl_231c47
	.byte PATT
		.word track_27_lbl_231c47
	.byte PATT
		.word track_27_lbl_231c47
	.byte W48
	.byte VOICE, 25
	.byte N48
	.byte Cn3, Gn8
	.byte W48
	.byte W48
	.byte VOICE, 25
	.byte N48
	.byte W48
	.byte W48
	.byte VOICE, 25
	.byte N48
	.byte W48
	.byte W48
	.byte VOICE, 25
	.byte N48
	.byte W48
	.byte W48
	.byte VOICE, 25
	.byte N48
	.byte W48
	.byte W48
	.byte VOICE, 25
	.byte N48
	.byte W48
	.byte W48
	.byte N48
	.byte W48
	.byte W48
	.byte N48
	.byte W48
	.byte W48
	.byte VOICE, 25
	.byte W48
	.byte W96
	.byte W96
	.byte W96
	.byte W96
	.byte W96
	.byte W96
	.byte W96
	.byte W96
	.byte W96
	.byte W96
	.byte W96
	.byte N24
	.byte W96
	.byte W96
	.byte N24
	.byte W96
	.byte W96
	.byte N24
	.byte W96
	.byte W96
	.byte N24
	.byte W96
	.byte W96
	.byte N24
	.byte W96
	.byte W96
	.byte N24
	.byte W96
	.byte W96
	.byte N24
	.byte W96
	.byte W96
	.byte N24
	.byte W96
	.byte W96
	.byte W96
	.byte W96
	.byte N24
	.byte W96
	.byte W96
	.byte N24
	.byte W96
	.byte W96
	.byte N24
	.byte W96
	.byte N24
	.byte W96
	.byte N48
	.byte W96
	.byte W36
	.byte N24
	.byte W60
	.byte W96
	.byte W96
	.byte W96
	.byte W24
track_27_lbl_231cdf:
	.byte W72
	.byte W96
	.byte W96
	.byte W96
	.byte W96
	.byte W96
	.byte W96
	.byte W96
	.byte W24
	.byte GOTO
		.word track_27_lbl_231cdf

	.byte FINE

track_27_8:
	.byte KEYSH, 0
	.byte VOICE, 90
	.byte VOL, 69
	.byte W96
	.byte W96
	.byte W96
	.byte W96
	.byte W96
	.byte W96
	.byte W96
	.byte W96
	.byte W96
	.byte W96
	.byte W96
	.byte W96
	.byte W96
	.byte W96
	.byte W96
	.byte W96
	.byte W96
	.byte W96
	.byte W96
	.byte W96
	.byte W96
	.byte W96
	.byte W96
	.byte W96
	.byte W96
	.byte W96
	.byte N01
	.byte Gn4, En1
	.byte W12
	.byte N01
	.byte W06
	.byte N01
	.byte W06
	.byte N01
	.byte W12
	.byte N01
	.byte W06
	.byte Gn4, Gs1
	.byte W06
	.byte Gn4, En1
	.byte W12
	.byte N01
	.byte W06
	.byte N01
	.byte W06
	.byte N01
	.byte W12
	.byte N01
	.byte W06
	.byte Gn4, Gs1
	.byte W06
	.byte N01
	.byte W12
	.byte N01
	.byte W06
	.byte Gn4, Cn2
	.byte W06
	.byte N01
	.byte W12
	.byte N01
	.byte W06
	.byte N01
	.byte W06
	.byte Gn4, En1
	.byte W12
	.byte N01
	.byte W06
	.byte N01
	.byte W06
	.byte N01
	.byte W12
	.byte N01
	.byte W06
	.byte Gn4, Gs1
	.byte W06
	.byte Gn4, En2
	.byte W12
	.byte N01
	.byte W06
	.byte N01
	.byte W06
	.byte N01
	.byte W12
	.byte N01
	.byte W06
	.byte N01
	.byte W06
	.byte Gn4, En1
	.byte W12
	.byte N01
	.byte W06
	.byte N01
	.byte W06
	.byte N01
	.byte W12
	.byte N01
	.byte W06
	.byte Gn4, Gs1
	.byte W06
	.byte Gn4, Gs2
	.byte W12
	.byte N01
	.byte W06
	.byte N01
	.byte W06
	.byte N01
	.byte W12
	.byte N01
	.byte W06
	.byte N01
	.byte W06
	.byte N01
	.byte W12
	.byte N01
	.byte W06
	.byte N01
	.byte W06
	.byte N01
	.byte W12
	.byte N01
	.byte W06
	.byte N01
	.byte W06
	.byte Gn4, Cn3
	.byte W12
	.byte N01
	.byte W06
	.byte N01
	.byte W06
	.byte N01
	.byte W12
	.byte Gn4, En3
	.byte W06
	.byte N01
	.byte W06
	.byte Gn4, Gs2
	.byte W12
	.byte N01
	.byte W06
	.byte N01
	.byte W06
	.byte N01
	.byte W12
	.byte N01
	.byte W06
	.byte N01
	.byte W06
	.byte Gn4, En3
	.byte W12
	.byte Gn4, Gs3
	.byte W06
	.byte N01
	.byte W06
	.byte N01
	.byte W12
	.byte N01
	.byte W06
	.byte N01
	.byte W06
	.byte Gn4, Gs2
	.byte W12
	.byte N01
	.byte W06
	.byte N01
	.byte W06
	.byte N01
	.byte W12
	.byte N01
	.byte W06
	.byte N01
	.byte W06
track_27_lbl_231db0:
	.byte N01
	.byte Gn4, Cn4
	.byte W12
	.byte N01
	.byte W06
	.byte N01
	.byte W06
	.byte N01
	.byte W12
	.byte N01
	.byte W06
	.byte N01
	.byte W06
	.byte Gn4, Gs2
	.byte W12
	.byte N01
	.byte W06
	.byte N01
	.byte W06
	.byte N01
	.byte W12
	.byte N01
	.byte W06
	.byte N01
	.byte W06
	.byte PEND
	.byte PATT
		.word track_27_lbl_231db0
	.byte W96
	.byte W96
	.byte W96
	.byte W96
	.byte W96
	.byte W96
	.byte W96
	.byte W96
	.byte W96
	.byte W96
	.byte W96
	.byte W96
track_27_lbl_231ddd:
	.byte N01
	.byte Gn4, Cn3
	.byte W06
	.byte N01
	.byte W06
	.byte N01
	.byte W12
	.byte N01
	.byte W06
	.byte N01
	.byte W06
	.byte N01
	.byte W12
	.byte N01
	.byte W06
	.byte N01
	.byte W06
	.byte N01
	.byte W12
	.byte N01
	.byte W06
	.byte N01
	.byte W06
	.byte N01
	.byte W12
	.byte PEND
	.byte PATT
		.word track_27_lbl_231ddd
	.byte PATT
		.word track_27_lbl_231ddd
	.byte PATT
		.word track_27_lbl_231ddd
	.byte PATT
		.word track_27_lbl_231ddd
	.byte PATT
		.word track_27_lbl_231ddd
	.byte PATT
		.word track_27_lbl_231ddd
	.byte PATT
		.word track_27_lbl_231ddd
	.byte PATT
		.word track_27_lbl_231ddd
	.byte PATT
		.word track_27_lbl_231ddd
	.byte PATT
		.word track_27_lbl_231ddd
	.byte PATT
		.word track_27_lbl_231ddd
	.byte PATT
		.word track_27_lbl_231ddd
	.byte PATT
		.word track_27_lbl_231ddd
	.byte PATT
		.word track_27_lbl_231ddd
	.byte PATT
		.word track_27_lbl_231ddd
track_27_lbl_231e43:
	.byte N01
	.byte Gn4, Cn3
	.byte W06
	.byte N01
	.byte W06
	.byte N01
	.byte W24
	.byte N01
	.byte W06
	.byte N01
	.byte W06
	.byte N01
	.byte W12
	.byte N01
	.byte W06
	.byte N01
	.byte W06
	.byte N01
	.byte W06
	.byte N01
	.byte W06
	.byte N01
	.byte W12
	.byte PEND
	.byte PATT
		.word track_27_lbl_231e43
	.byte PATT
		.word track_27_lbl_231e43
	.byte PATT
		.word track_27_lbl_231e43
	.byte PATT
		.word track_27_lbl_231e43
	.byte PATT
		.word track_27_lbl_231e43
	.byte PATT
		.word track_27_lbl_231e43
	.byte PATT
		.word track_27_lbl_231e43
	.byte N01
	.byte Gn4, Cn3
	.byte W96
	.byte W12
	.byte Gn4, En6
	.byte W12
	.byte N01
	.byte W06
	.byte N01
	.byte W06
	.byte N01
	.byte W60
	.byte W96
	.byte W96
	.byte W96
	.byte W24
track_27_lbl_231e91:
	.byte W72
	.byte W96
	.byte W96
	.byte W96
	.byte W96
	.byte W96
	.byte W96
	.byte W96
	.byte W24
	.byte GOTO
		.word track_27_lbl_231e91

	.byte FINE

track_27_9:
	.byte KEYSH, 0
	.byte W96
	.byte W96
	.byte W96
	.byte W96
	.byte W96
	.byte W96
	.byte W96
	.byte W96
	.byte W96
	.byte W96
	.byte VOICE, 83
	.byte VOL, 69
	.byte N06
	.byte Fn3, Gs2
	.byte W12
	.byte N06
	.byte W06
	.byte N06
	.byte W06
	.byte N06
	.byte W12
	.byte N06
	.byte W06
	.byte N06
	.byte W06
	.byte N06
	.byte W12
	.byte N06
	.byte W06
	.byte N06
	.byte W06
	.byte N06
	.byte W12
	.byte N06
	.byte W06
	.byte N06
	.byte W06
track_27_lbl_231eca:
	.byte N06
	.byte Fn3, Gs2
	.byte W12
	.byte N06
	.byte W06
	.byte N06
	.byte W06
	.byte N06
	.byte W12
	.byte N06
	.byte W06
	.byte N06
	.byte W06
	.byte N06
	.byte W12
	.byte N06
	.byte W06
	.byte N06
	.byte W06
	.byte Gn3, Cn4
	.byte W06
	.byte Fn3, Gs2
	.byte W06
	.byte N06
	.byte W06
	.byte N06
	.byte W06
	.byte PEND
track_27_lbl_231ee9:
	.byte N06
	.byte Fn3, Gs2
	.byte W12
	.byte N06
	.byte W06
	.byte N06
	.byte W06
	.byte N06
	.byte W12
	.byte N06
	.byte W06
	.byte N06
	.byte W06
	.byte N06
	.byte W12
	.byte N06
	.byte W06
	.byte N06
	.byte W06
	.byte N06
	.byte W12
	.byte N06
	.byte W06
	.byte N06
	.byte W06
	.byte PEND
track_27_lbl_231f04:
	.byte N06
	.byte Fn3, Gs2
	.byte W12
	.byte N06
	.byte W06
	.byte N06
	.byte W06
	.byte N06
	.byte W12
	.byte N06
	.byte W06
	.byte N06
	.byte W06
	.byte N06
	.byte W12
	.byte N06
	.byte W06
	.byte N06
	.byte W06
	.byte Gn3, Cn4
	.byte W06
	.byte Fn3, Gs2
	.byte W06
	.byte N06
	.byte W12
	.byte PEND
	.byte PATT
		.word track_27_lbl_231ee9
	.byte PATT
		.word track_27_lbl_231eca
	.byte PATT
		.word track_27_lbl_231ee9
	.byte PATT
		.word track_27_lbl_231eca
	.byte PATT
		.word track_27_lbl_231eca
	.byte PATT
		.word track_27_lbl_231eca
	.byte PATT
		.word track_27_lbl_231eca
	.byte PATT
		.word track_27_lbl_231f04
	.byte VOICE, 83
	.byte VOL, 69
	.byte N04
	.byte Dn3, En6
	.byte W06
	.byte Cn3, En3
	.byte W06
	.byte N04
	.byte W24
	.byte N04
	.byte W06
	.byte N04
	.byte W06
	.byte Dn3, Cn5
	.byte W12
	.byte Cn3, En3
	.byte W06
	.byte N04
	.byte W06
	.byte Dn3, Cn5
	.byte W06
	.byte Cn3, En3
	.byte W06
	.byte N04
	.byte W12
track_27_lbl_231f6a:
	.byte N04
	.byte Dn3, Cn5
	.byte W06
	.byte Cn3, En3
	.byte W06
	.byte N04
	.byte W24
	.byte N04
	.byte W06
	.byte N04
	.byte W06
	.byte Dn3, Cn5
	.byte W12
	.byte Cn3, En3
	.byte W06
	.byte N04
	.byte W06
	.byte Dn3, Cn5
	.byte W06
	.byte Cn3, En3
	.byte W06
	.byte N04
	.byte W12
	.byte PEND
	.byte Dn3, En6
	.byte W06
	.byte Cn3, En3
	.byte W06
	.byte N04
	.byte W24
	.byte N04
	.byte W06
	.byte N04
	.byte W06
	.byte Dn3, Cn5
	.byte W12
	.byte Cn3, En3
	.byte W06
	.byte N04
	.byte W06
	.byte Dn3, Cn5
	.byte W06
	.byte Cn3, En3
	.byte W06
	.byte N04
	.byte W12
	.byte PATT
		.word track_27_lbl_231f6a
	.byte W96
	.byte W96
	.byte W96
	.byte W96
	.byte W96
	.byte W96
	.byte W96
	.byte W96
	.byte W96
	.byte W96
	.byte W96
	.byte W96
	.byte W96
	.byte W96
	.byte W96
	.byte W96
	.byte W96
	.byte W96
	.byte W96
	.byte W96
	.byte W96
	.byte W96
	.byte W96
	.byte W96
	.byte W96
	.byte W96
	.byte W96
	.byte W96
	.byte W96
	.byte W96
	.byte W96
	.byte W96
	.byte W96
	.byte W96
	.byte W96
	.byte W96
	.byte W96
	.byte W96
	.byte W96
	.byte W96
	.byte W96
	.byte W96
	.byte W96
	.byte W96
	.byte W96
	.byte W96
	.byte W96
	.byte W96
	.byte W96
	.byte W24
track_27_lbl_231fdb:
	.byte W72
	.byte W96
	.byte W96
	.byte W96
	.byte W96
	.byte W96
	.byte W96
	.byte W96
	.byte W24
	.byte GOTO
		.word track_27_lbl_231fdb

	.byte FINE

.align 2

track_27:
	.byte 10
	.byte 0
	.byte 130
	.byte 0
	.word voice_group0
	.word track_27_0
	.word track_27_1
	.word track_27_2
	.word track_27_3
	.word track_27_4
	.word track_27_5
	.word track_27_6
	.word track_27_7
	.word track_27_8
	.word track_27_9

.align 2
