.align 2

.global track_7

track_7_0:
	.byte KEYSH, 0
	.byte TEMPO, 56
	.byte W72
	.byte W72
	.byte W72
	.byte W72
	.byte W72
	.byte W72
	.byte W72
	.byte W72
track_7_lbl_22d6d8:
	.byte W72
	.byte W72
	.byte W72
	.byte W72
	.byte W72
	.byte W72
	.byte W72
	.byte W72
	.byte W72
	.byte W72
	.byte W72
	.byte W72
	.byte W72
	.byte W72
	.byte W72
	.byte W72
	.byte W72
	.byte W72
	.byte W72
	.byte W72
	.byte W72
	.byte W72
	.byte W72
	.byte W72
	.byte VOICE, 35
	.byte VOL, 39
	.byte N06, Cn3, v048
	.byte W12
	.byte N06 @ Cn3, v048
	.byte W12
	.byte N06 @ Cn3, v048
	.byte W12
	.byte N06 @ Cn3, v048
	.byte W12
	.byte N06 @ Cn3, v048
	.byte W12
	.byte N06 @ Cn3, v048
	.byte W12
track_7_lbl_22d702:
	.byte N06, Cn3, v048
	.byte W12
	.byte N06 @ Cn3, v048
	.byte W12
	.byte N06 @ Cn3, v048
	.byte W12
	.byte N06 @ Cn3, v048
	.byte W12
	.byte N06 @ Cn3, v048
	.byte W12
	.byte N06 @ Cn3, v048
	.byte W12
	.byte PEND
	.byte PATT
		.word track_7_lbl_22d702
	.byte PATT
		.word track_7_lbl_22d702
	.byte PATT
		.word track_7_lbl_22d702
	.byte PATT
		.word track_7_lbl_22d702
	.byte PATT
		.word track_7_lbl_22d702
	.byte PATT
		.word track_7_lbl_22d702
	.byte PATT
		.word track_7_lbl_22d702
	.byte PATT
		.word track_7_lbl_22d702
	.byte PATT
		.word track_7_lbl_22d702
	.byte PATT
		.word track_7_lbl_22d702
	.byte PATT
		.word track_7_lbl_22d702
	.byte PATT
		.word track_7_lbl_22d702
	.byte PATT
		.word track_7_lbl_22d702
	.byte PATT
		.word track_7_lbl_22d702
	.byte PATT
		.word track_7_lbl_22d702
	.byte PATT
		.word track_7_lbl_22d702
	.byte PATT
		.word track_7_lbl_22d702
	.byte PATT
		.word track_7_lbl_22d702
	.byte PATT
		.word track_7_lbl_22d702
	.byte PATT
		.word track_7_lbl_22d702
	.byte PATT
		.word track_7_lbl_22d702
	.byte PATT
		.word track_7_lbl_22d702
	.byte PATT
		.word track_7_lbl_22d702
	.byte PATT
		.word track_7_lbl_22d702
	.byte PATT
		.word track_7_lbl_22d702
	.byte PATT
		.word track_7_lbl_22d702
	.byte PATT
		.word track_7_lbl_22d702
	.byte PATT
		.word track_7_lbl_22d702
	.byte PATT
		.word track_7_lbl_22d702
	.byte PATT
		.word track_7_lbl_22d702
	.byte PATT
		.word track_7_lbl_22d702
	.byte PATT
		.word track_7_lbl_22d702
	.byte PATT
		.word track_7_lbl_22d702
	.byte PATT
		.word track_7_lbl_22d702
	.byte PATT
		.word track_7_lbl_22d702
	.byte W72
	.byte W72
	.byte W72
	.byte W72
	.byte GOTO
		.word track_7_lbl_22d6d8
	.byte FINE

track_7_1:
	.byte KEYSH, 0
	.byte VOICE, 39
	.byte VOL, 70
	.byte PAN, c_v
	.byte PRIO, 120
	.byte N30, En4, v052
	.byte W36
	.byte En4, v048 @ N30
	.byte W36
	.byte Dn4 @ N30, v048
	.byte W36
	.byte En4, v052 @ N30
	.byte W36
	.byte N30 @ En4, v052
	.byte W36
	.byte En4, v048 @ N30
	.byte W36
	.byte Dn4 @ N30, v048
	.byte W36
	.byte Bn3, v052 @ N30
	.byte W36
	.byte VOL, 100
	.byte N30, En4 @ v052
	.byte W36
	.byte En4, v056 @ N30
	.byte W36
track_7_lbl_22d7f2:
	.byte N30, Dn4, v064
	.byte W36
	.byte En4, v068 @ N30
	.byte W36
	.byte PEND
track_7_lbl_22d7fa:
	.byte N30, En4, v076
	.byte W36
	.byte En4, v084 @ N30
	.byte W36
	.byte PEND
track_7_lbl_22d802:
	.byte N30, Dn4, v088
	.byte W36
	.byte Bn3, v096 @ N30
	.byte W36
	.byte PEND
track_7_lbl_22d80a:
	.byte VOICE, 23
	.byte N24, En3, v052
	.byte W24
	.byte N12, Bn2 @ v052
	.byte W12
	.byte N24, An3 @ v052
	.byte W24
	.byte N12, Cn3 @ v052
	.byte W12
	.byte VOL, 94
	.byte N24, Fs3 @ v052
	.byte W24
	.byte N12, Dn3 @ v052
	.byte W12
	.byte N24, Bn2 @ v052
	.byte W24
	.byte N12, As2 @ v052
	.byte W12
track_7_lbl_22d827:
	.byte N24, En3, v052
	.byte W24
	.byte N12, Bn2 @ v052
	.byte W12
	.byte N24, An3 @ v052
	.byte W24
	.byte N12, Cn3 @ v052
	.byte W12
	.byte PEND
track_7_lbl_22d835:
	.byte N24, Fs3, v052
	.byte W24
	.byte N12, Dn3 @ v052
	.byte W12
	.byte N24, Bn2 @ v052
	.byte W24
	.byte N12, As2 @ v052
	.byte W12
	.byte PEND
	.byte PATT
		.word track_7_lbl_22d827
	.byte PATT
		.word track_7_lbl_22d835
	.byte PATT
		.word track_7_lbl_22d827
	.byte PATT
		.word track_7_lbl_22d835
track_7_lbl_22d857:
	.byte N24, Gn3, v052
	.byte W24
	.byte N12, Dn3 @ v052
	.byte W12
	.byte N24, En3 @ v052
	.byte W24
	.byte N12, Bn2 @ v052
	.byte W12
	.byte PEND
track_7_lbl_22d865:
	.byte N24, Fs3, v052
	.byte W24
	.byte N12, Dn3 @ v052
	.byte W12
	.byte N24, An3 @ v052
	.byte W24
	.byte N12, En3 @ v052
	.byte W12
	.byte PEND
	.byte PATT
		.word track_7_lbl_22d857
	.byte PATT
		.word track_7_lbl_22d865
	.byte VOICE, 37
	.byte N06, Gn3, v048
	.byte W06
	.byte Bn2 @ N06, v048
	.byte W06
	.byte Gn3 @ N06, v048
	.byte W06
	.byte Bn2 @ N06, v048
	.byte W06
	.byte Gn3 @ N06, v048
	.byte W06
	.byte Bn2 @ N06, v048
	.byte W06
	.byte As3 @ N06, v048
	.byte W06
	.byte En3 @ N06, v048
	.byte W06
	.byte As3 @ N06, v048
	.byte W06
	.byte En3 @ N06, v048
	.byte W06
	.byte As3 @ N06, v048
	.byte W06
	.byte En3 @ N06, v048
	.byte W06
track_7_lbl_22d899:
	.byte N06, An3, v048
	.byte W06
	.byte Cn3 @ N06, v048
	.byte W06
	.byte An3 @ N06, v048
	.byte W06
	.byte Cn3 @ N06, v048
	.byte W06
	.byte An3 @ N06, v048
	.byte W06
	.byte Cn3 @ N06, v048
	.byte W06
	.byte An3 @ N06, v048
	.byte W06
	.byte Ds3 @ N06, v048
	.byte W06
	.byte Fs3 @ N06, v048
	.byte W06
	.byte Ds3 @ N06, v048
	.byte W06
	.byte Bn3 @ N06, v048
	.byte W06
	.byte Ds3 @ N06, v048
	.byte W06
	.byte PEND
track_7_lbl_22d8b4:
	.byte N06, Gn3, v048
	.byte W06
	.byte Bn2 @ N06, v048
	.byte W06
	.byte Gn3 @ N06, v048
	.byte W06
	.byte Bn2 @ N06, v048
	.byte W06
	.byte Gn3 @ N06, v048
	.byte W06
	.byte Bn2 @ N06, v048
	.byte W06
	.byte As3 @ N06, v048
	.byte W06
	.byte En3 @ N06, v048
	.byte W06
	.byte As3 @ N06, v048
	.byte W06
	.byte En3 @ N06, v048
	.byte W06
	.byte As3 @ N06, v048
	.byte W06
	.byte En3 @ N06, v048
	.byte W06
	.byte PEND
	.byte PATT
		.word track_7_lbl_22d899
	.byte PATT
		.word track_7_lbl_22d8b4
	.byte PATT
		.word track_7_lbl_22d899
	.byte PATT
		.word track_7_lbl_22d8b4
	.byte PATT
		.word track_7_lbl_22d899
	.byte VOICE, 42
	.byte VOL, 100
	.byte N06, Fs3, v060
	.byte W06
	.byte Gn3, v127 @ N06
	.byte W06
	.byte An3 @ N06, v127
	.byte W06
	.byte Bn3 @ N06, v127
	.byte W06
	.byte Dn4 @ N06, v127
	.byte W06
	.byte Bn3 @ N06, v127
	.byte W06
	.byte Fs4 @ N06, v127
	.byte W06
	.byte Dn4 @ N06, v127
	.byte W06
	.byte An3 @ N06, v127
	.byte W06
	.byte Gn3 @ N06, v127
	.byte W06
	.byte Fs3 @ N06, v127
	.byte W06
	.byte Bn3 @ N06, v127
	.byte W06
track_7_lbl_22d907:
	.byte N06, An4, v127
	.byte W06
	.byte Fs4 @ N06, v127
	.byte W06
	.byte Dn4 @ N06, v127
	.byte W06
	.byte An3 @ N06, v127
	.byte W06
	.byte Gn3 @ N06, v127
	.byte W06
	.byte Fs3 @ N06, v127
	.byte W06
	.byte En3 @ N06, v127
	.byte W06
	.byte Gn3 @ N06, v127
	.byte W06
	.byte An3 @ N06, v127
	.byte W06
	.byte Dn4 @ N06, v127
	.byte W06
	.byte En4 @ N06, v127
	.byte W12
	.byte PEND
	.byte Fs3 @ N06, v127
	.byte W06
	.byte Gn3 @ N06, v127
	.byte W06
	.byte An3 @ N06, v127
	.byte W06
	.byte Bn3 @ N06, v127
	.byte W06
	.byte Dn4 @ N06, v127
	.byte W06
	.byte Bn3 @ N06, v127
	.byte W06
	.byte Fs4 @ N06, v127
	.byte W06
	.byte Dn4 @ N06, v127
	.byte W06
	.byte An3 @ N06, v127
	.byte W06
	.byte Gn3 @ N06, v127
	.byte W06
	.byte Fs3 @ N06, v127
	.byte W06
	.byte Bn3 @ N06, v127
	.byte W06
	.byte PATT
		.word track_7_lbl_22d907
track_7_lbl_22d93d:
	.byte VOICE, 41
	.byte VOL, 100
	.byte PAN, c_v+15
	.byte TIE, Gn2, v127
	.byte W72
	.byte PEND
	.byte W72
	.byte W72
	.byte W72
	.byte EOT @ Gn2, v127
	.byte W72
track_7_lbl_22d94d:
	.byte VOICE, 40
	.byte VOL, 70
	.byte PAN, c_v
	.byte N36, Gn4, v088
	.byte W72
	.byte PEND
	.byte TIE, Fs4, v084
	.byte W72
	.byte W72
	.byte W12
	.byte EOT @ Fs4, v084
	.byte W60
	.byte PATT
		.word track_7_lbl_22d93d
	.byte W72
	.byte EOT, Gn2 @ v084
	.byte W72
	.byte PATT
		.word track_7_lbl_22d94d
	.byte N60, Fs4, v084
	.byte W72
	.byte TIE, Fn4, v076
	.byte W72
	.byte W72
	.byte W12
	.byte EOT @ Fn4, v076
	.byte W60
track_7_lbl_22d97a:
	.byte VOICE, 41
	.byte VOL, 100
	.byte PAN, c_v+15
	.byte TIE, Gn2, v112
	.byte W72
	.byte PEND
	.byte W72
	.byte EOT @ Gn2, v112
	.byte W72
	.byte VOICE, 40
	.byte VOL, 70
	.byte PAN, c_v
	.byte N60, Gn4, v088
	.byte W72
	.byte Fs4, v084 @ N60
	.byte W72
	.byte Fn4, v076 @ N60
	.byte W72
	.byte TIE, En4, v084
	.byte W72
	.byte W72
	.byte W72
	.byte EOT @ En4, v084
	.byte PATT
		.word track_7_lbl_22d97a
	.byte W72
	.byte EOT, Gn2 @ v084
	.byte W72
	.byte VOICE, 39
	.byte VOL, 100
	.byte PAN, c_v
	.byte N30, En4, v052
	.byte W36
	.byte En4, v048 @ N30
	.byte W36
	.byte Dn4 @ N30, v048
	.byte W36
	.byte En4, v052 @ N30
	.byte W36
	.byte N30 @ En4, v052
	.byte W36
	.byte En4, v048 @ N30
	.byte W36
	.byte Dn4 @ N30, v048
	.byte W36
	.byte Bn3, v052 @ N30
	.byte W36
	.byte En4 @ N30, v052
	.byte W36
	.byte En4, v056 @ N30
	.byte W36
	.byte PATT
		.word track_7_lbl_22d7f2
	.byte PATT
		.word track_7_lbl_22d7fa
	.byte PATT
		.word track_7_lbl_22d802
	.byte VOICE, 23
	.byte VOL, 94
	.byte PAN, c_v
	.byte N24, En3, v052
	.byte W24
	.byte N12, Bn2 @ v052
	.byte W12
	.byte N24, An3 @ v052
	.byte W24
	.byte N12, Cn3 @ v052
	.byte W12
	.byte PATT
		.word track_7_lbl_22d835
	.byte PATT
		.word track_7_lbl_22d827
	.byte PATT
		.word track_7_lbl_22d835
	.byte GOTO
		.word track_7_lbl_22d80a
	.byte FINE

track_7_2:
	.byte KEYSH, 0
	.byte VOICE, 4
	.byte VOL, 100
	.byte PAN, c_v+10
	.byte PRIO, 119
	.byte N12, En1, v032
	.byte W12
	.byte N24, En2, v024
	.byte W24
	.byte N12, En1, v032
	.byte W12
	.byte N24, En2, v028
	.byte W24
	.byte N12, En1, v036
	.byte W12
	.byte N24, En2, v028
	.byte W24
	.byte N12, En1, v040
	.byte W12
	.byte N24, En2, v032
	.byte W24
	.byte N12, En1, v040
	.byte W12
	.byte N24, En2, v032
	.byte W24
	.byte N12, En1, v044
	.byte W12
	.byte N24, En2, v036
	.byte W24
	.byte N12, En1, v048
	.byte W12
	.byte N24, En2, v036
	.byte W24
	.byte N12, En1, v048
	.byte W12
	.byte N24, En2, v040
	.byte W24
	.byte N12, En1, v052
	.byte W12
	.byte N24, En2, v040
	.byte W24
	.byte N12, En1, v052
	.byte W12
	.byte N24, En2, v044
	.byte W24
	.byte N12, En1, v056
	.byte W12
	.byte N24, En2, v044
	.byte W24
	.byte N12, En1, v060
	.byte W12
	.byte N24, En2, v048
	.byte W24
	.byte N12, En1, v060
	.byte W12
	.byte N24, En2, v048
	.byte W24
	.byte N12, En1, v064
	.byte W12
	.byte N24, En2, v052
	.byte W24
	.byte N12, En1, v068
	.byte W12
	.byte N24, En2, v052
	.byte W24
	.byte N12, En1, v068
	.byte W12
	.byte N24, En2, v056
	.byte W24
track_7_lbl_22da8a:
	.byte VOICE, 4
	.byte VOL, 100
	.byte N12, En1, v072
	.byte W12
	.byte N24, En2 @ v072
	.byte W24
	.byte N12, En1 @ v072
	.byte W12
	.byte N24, En2 @ v072
	.byte W24
	.byte PEND
track_7_lbl_22da9c:
	.byte N12, En1, v072
	.byte W12
	.byte N24, En2 @ v072
	.byte W24
	.byte N12, En1 @ v072
	.byte W12
	.byte N24, En2 @ v072
	.byte W24
	.byte PEND
	.byte PATT
		.word track_7_lbl_22da9c
	.byte PATT
		.word track_7_lbl_22da9c
	.byte PATT
		.word track_7_lbl_22da9c
	.byte PATT
		.word track_7_lbl_22da9c
	.byte PATT
		.word track_7_lbl_22da9c
	.byte PATT
		.word track_7_lbl_22da9c
track_7_lbl_22dac8:
	.byte N12, Cn1, v072
	.byte W12
	.byte N24, Cn2 @ v072
	.byte W24
	.byte N12, Cn1 @ v072
	.byte W12
	.byte N24, Cn2 @ v072
	.byte W24
	.byte PEND
track_7_lbl_22dad6:
	.byte N12, Dn1, v072
	.byte W12
	.byte N24, Dn2 @ v072
	.byte W24
	.byte N12, Dn1 @ v072
	.byte W12
	.byte N24, Dn2 @ v072
	.byte W24
	.byte PEND
	.byte PATT
		.word track_7_lbl_22dac8
	.byte PATT
		.word track_7_lbl_22dad6
track_7_lbl_22daee:
	.byte N12, En1, v072
	.byte W12
	.byte En2 @ N12, v072
	.byte W12
	.byte En1 @ N12, v072
	.byte W12
	.byte Fs1 @ N12, v072
	.byte W12
	.byte Fs2 @ N12, v072
	.byte W12
	.byte Fs1 @ N12, v072
	.byte W12
	.byte PEND
track_7_lbl_22dafd:
	.byte N12, Fn1, v072
	.byte W12
	.byte Fn2 @ N12, v072
	.byte W12
	.byte Fn1 @ N12, v072
	.byte W12
	.byte Bn0 @ N12, v072
	.byte W12
	.byte Bn1 @ N12, v072
	.byte W12
	.byte Bn0 @ N12, v072
	.byte W12
	.byte PEND
	.byte PATT
		.word track_7_lbl_22daee
	.byte PATT
		.word track_7_lbl_22dafd
	.byte PATT
		.word track_7_lbl_22daee
	.byte PATT
		.word track_7_lbl_22dafd
	.byte PATT
		.word track_7_lbl_22daee
	.byte PATT
		.word track_7_lbl_22dafd
track_7_lbl_22db2a:
	.byte N24, En1, v072
	.byte W24
	.byte N12, Bn1 @ v072
	.byte W12
	.byte N24, Cn2 @ v072
	.byte W24
	.byte N12, Bn1 @ v072
	.byte W12
	.byte PEND
track_7_lbl_22db38:
	.byte N24, Bn0, v072
	.byte W24
	.byte N12, Fs1 @ v072
	.byte W12
	.byte N24, Gn1 @ v072
	.byte W24
	.byte N12, An1 @ v072
	.byte W12
	.byte PEND
	.byte PATT
		.word track_7_lbl_22db2a
	.byte PATT
		.word track_7_lbl_22db38
	.byte VOL, 100
	.byte TIE, En0, v127
	.byte W72
	.byte W72
	.byte W72
	.byte W72
	.byte W72
	.byte W72
	.byte W72
	.byte W72
	.byte W72
	.byte W72
	.byte W72
	.byte W72
	.byte W72
	.byte W72
	.byte W72
	.byte W72
	.byte W72
	.byte W72
	.byte W72
	.byte W72
	.byte W72
	.byte W72
	.byte W72
	.byte W72
	.byte W72
	.byte W72
	.byte W72
	.byte W72
	.byte W72
	.byte EOT @ En0, v127
	.byte VOL, 100
	.byte TIE, En0, v092
	.byte W72
	.byte W72
	.byte W72
	.byte W72
	.byte W72
	.byte W72
	.byte W72
	.byte W72
	.byte EOT @ En0, v092
	.byte PATT
		.word track_7_lbl_22da9c
	.byte PATT
		.word track_7_lbl_22da8a
	.byte PATT
		.word track_7_lbl_22da9c
	.byte PATT
		.word track_7_lbl_22da9c
	.byte GOTO
		.word track_7_lbl_22da8a
	.byte FINE

track_7_3:
	.byte KEYSH, 0
	.byte VOICE, 39
	.byte VOL, 70
	.byte PAN, c_v
	.byte PRIO, 118
	.byte N30, Bn3, v060
	.byte W36
	.byte Cn4 @ N30, v060
	.byte W36
track_7_lbl_22dbab:
	.byte N30, An3, v052
	.byte W36
	.byte Bn3, v060 @ N30
	.byte W36
	.byte PEND
track_7_lbl_22dbb3:
	.byte N30, Bn3, v060
	.byte W36
	.byte Cn4 @ N30, v060
	.byte W36
	.byte PEND
track_7_lbl_22dbba:
	.byte N30, An3, v052
	.byte W36
	.byte Gn3, v060 @ N30
	.byte W36
	.byte PEND
	.byte VOL, 100
	.byte N30, Bn3, v052
	.byte W36
	.byte Cn4, v056 @ N30
	.byte W36
track_7_lbl_22dbcb:
	.byte N30, An3, v064
	.byte W36
	.byte Bn3, v068 @ N30
	.byte W36
	.byte PEND
track_7_lbl_22dbd3:
	.byte N30, Bn3, v076
	.byte W36
	.byte Cn4, v084 @ N30
	.byte W36
	.byte PEND
track_7_lbl_22dbdb:
	.byte N30, An3, v088
	.byte W36
	.byte Gn3, v096 @ N30
	.byte W36
	.byte PEND
track_7_lbl_22dbe3:
	.byte VOICE, 8
	.byte VOL, 70
	.byte PAN, c_v-10
	.byte N12, En1, v092
	.byte W12
	.byte N24, En2, v072
	.byte W24
	.byte N12, En1, v092
	.byte W12
	.byte N24, En2, v072
	.byte W24
track_7_lbl_22dbf9:
	.byte N12, En1, v092
	.byte W12
	.byte N24, En2, v072
	.byte W24
	.byte N12, En1, v092
	.byte W12
	.byte N24, En2, v072
	.byte W24
	.byte PEND
	.byte PATT
		.word track_7_lbl_22dbf9
	.byte PATT
		.word track_7_lbl_22dbf9
	.byte PATT
		.word track_7_lbl_22dbf9
	.byte PATT
		.word track_7_lbl_22dbf9
	.byte PATT
		.word track_7_lbl_22dbf9
	.byte PATT
		.word track_7_lbl_22dbf9
track_7_lbl_22dc28:
	.byte N12, Cn1, v092
	.byte W12
	.byte N24, Cn2, v072
	.byte W24
	.byte N12, Cn1, v092
	.byte W12
	.byte N24, Cn2, v072
	.byte W24
	.byte PEND
track_7_lbl_22dc39:
	.byte N12, Dn1, v092
	.byte W12
	.byte N24, Dn2, v072
	.byte W24
	.byte N12, Dn1, v092
	.byte W12
	.byte N24, Dn2, v072
	.byte W24
	.byte PEND
	.byte PATT
		.word track_7_lbl_22dc28
	.byte PATT
		.word track_7_lbl_22dc39
	.byte VOICE, 43
	.byte VOL, 90
	.byte N48, Gn4, v072
	.byte W36
	.byte As4, v092 @ N48
	.byte W36
	.byte An4 @ N48, v092
	.byte W72
track_7_lbl_22dc61:
	.byte N48, Gn4, v072
	.byte W36
	.byte As4, v092 @ N48
	.byte W36
	.byte PEND
	.byte An4 @ N48, v092
	.byte W72
	.byte PATT
		.word track_7_lbl_22dc61
	.byte N48, An4, v092
	.byte W72
	.byte PATT
		.word track_7_lbl_22dc61
	.byte N48, An4, v092
	.byte W72
	.byte VOICE, 8
	.byte VOL, 70
	.byte N24, En1, v072
	.byte W24
	.byte N12, Bn1 @ v072
	.byte W12
	.byte N24, Cn2 @ v072
	.byte W24
	.byte N12, Bn1 @ v072
	.byte W12
track_7_lbl_22dc8e:
	.byte N24, Bn0, v072
	.byte W24
	.byte N12, Fs1 @ v072
	.byte W12
	.byte N24, Gn1 @ v072
	.byte W24
	.byte N12, An1 @ v072
	.byte W12
	.byte PEND
	.byte N24, En1 @ v072
	.byte W24
	.byte N12, Bn1 @ v072
	.byte W12
	.byte N24, Cn2 @ v072
	.byte W24
	.byte N12, Bn1 @ v072
	.byte W12
	.byte PATT
		.word track_7_lbl_22dc8e
track_7_lbl_22dcad:
	.byte VOICE, 41
	.byte VOL, 100
	.byte PAN, c_v-17
	.byte TIE, Bn1, v127
	.byte W72
	.byte PEND
	.byte W72
	.byte W72
	.byte W72
	.byte EOT @ Bn1, v127
	.byte W72
track_7_lbl_22dcbd:
	.byte VOICE, 40
	.byte VOL, 70
	.byte PAN, c_v
	.byte N36, Dn4, v080
	.byte W72
	.byte PEND
	.byte TIE, Dn4, v052
	.byte W72
	.byte W72
	.byte W12
	.byte EOT @ Dn4, v052
	.byte W60
	.byte PATT
		.word track_7_lbl_22dcad
	.byte W72
	.byte EOT, Bn1 @ v052
	.byte W72
	.byte PATT
		.word track_7_lbl_22dcbd
	.byte N60, Dn4, v052
	.byte W72
	.byte TIE, Dn4, v056
	.byte W72
	.byte W72
	.byte W12
	.byte EOT @ Dn4, v056
	.byte W60
track_7_lbl_22dcea:
	.byte VOICE, 41
	.byte VOL, 100
	.byte PAN, c_v-17
	.byte TIE, Bn1, v116
	.byte W72
	.byte PEND
	.byte W72
	.byte EOT @ Bn1, v116
	.byte W72
	.byte VOICE, 40
	.byte VOL, 70
	.byte PAN, c_v
	.byte N60, Dn4, v080
	.byte W72
	.byte Dn4, v052 @ N60
	.byte W72
	.byte Dn4, v056 @ N60
	.byte W72
	.byte TIE, Dn4, v084
	.byte W72
	.byte W72
	.byte W72
	.byte EOT @ Dn4, v084
	.byte PATT
		.word track_7_lbl_22dcea
	.byte W72
	.byte EOT, Bn1 @ v084
	.byte W72
	.byte VOICE, 39
	.byte VOL, 100
	.byte PAN, c_v
	.byte N30, Bn3, v060
	.byte W36
	.byte Cn4 @ N30, v060
	.byte W36
	.byte PATT
		.word track_7_lbl_22dbab
	.byte PATT
		.word track_7_lbl_22dbb3
	.byte PATT
		.word track_7_lbl_22dbba
	.byte N30, Bn3, v052
	.byte W36
	.byte Cn4, v056 @ N30
	.byte W36
	.byte PATT
		.word track_7_lbl_22dbcb
	.byte PATT
		.word track_7_lbl_22dbd3
	.byte PATT
		.word track_7_lbl_22dbdb
	.byte W72
	.byte W72
	.byte W72
	.byte W72
	.byte GOTO
		.word track_7_lbl_22dbe3
	.byte FINE

track_7_4:
	.byte KEYSH, 0
	.byte PAN, c_v+15
	.byte W72
	.byte W72
	.byte W72
	.byte W72
	.byte W72
	.byte W72
	.byte W72
	.byte W72
track_7_lbl_22dd5f:
	.byte VOICE, 39
	.byte VOL, 70
	.byte N28, Gn4, v072
	.byte W36
	.byte An4, v092 @ N28
	.byte W36
	.byte PEND
track_7_lbl_22dd6b:
	.byte N28, Dn4, v092
	.byte W36
	.byte Gn4, v072 @ N28
	.byte W36
	.byte PEND
track_7_lbl_22dd73:
	.byte N28, Gn4, v072
	.byte W36
	.byte An4, v092 @ N28
	.byte W36
	.byte PEND
track_7_lbl_22dd7b:
	.byte N28, Dn4, v092
	.byte W36
	.byte En4, v072 @ N28
	.byte W36
	.byte PEND
	.byte Gn4 @ N28, v072
	.byte W36
	.byte An4, v092 @ N28
	.byte W36
	.byte Dn4 @ N28, v092
	.byte W36
	.byte Gn4, v072 @ N28
	.byte W36
	.byte N28 @ Gn4, v072
	.byte W36
	.byte An4, v092 @ N28
	.byte W36
	.byte Dn4 @ N28, v092
	.byte W36
	.byte En4, v072 @ N28
	.byte W36
	.byte VOICE, 39
	.byte N24, Dn4 @ v072
	.byte W36
	.byte Gn4, v092 @ N24
	.byte W36
	.byte Dn4 @ N24, v092
	.byte W36
	.byte Cn4, v072 @ N24
	.byte W36
	.byte Dn4 @ N24, v072
	.byte W36
	.byte Gn4, v092 @ N24
	.byte W36
	.byte Fs4 @ N24, v092
	.byte W36
	.byte Fs4, v072 @ N24
	.byte W36
	.byte VOICE, 36
	.byte VOL, 70
	.byte N60, Dn3, v056
	.byte W36
	.byte En3, v072 @ N60
	.byte W36
	.byte Cn3, v056 @ N60
	.byte W36
	.byte As2 @ N60, v056
	.byte W36
	.byte Dn3 @ N60, v056
	.byte W36
	.byte En3, v072 @ N60
	.byte W36
	.byte Cn3, v056 @ N60
	.byte W36
	.byte As2 @ N60, v056
	.byte W36
	.byte Dn3 @ N60, v056
	.byte W36
	.byte En3, v072 @ N60
	.byte W36
	.byte Cn3, v056 @ N60
	.byte W36
	.byte As2 @ N60, v056
	.byte W36
	.byte Dn3 @ N60, v056
	.byte W36
	.byte En3, v072 @ N60
	.byte W36
	.byte Cn3, v056 @ N60
	.byte W36
	.byte As2 @ N60, v056
	.byte W36
	.byte N36, Gn2, v127
	.byte W72
	.byte N48, Fs2 @ v127
	.byte W72
	.byte Gn2 @ N48, v127
	.byte W72
	.byte Fs2 @ N48, v127
	.byte W72
	.byte W72
	.byte W72
	.byte W72
	.byte W72
	.byte W72
	.byte W72
	.byte W72
	.byte W72
	.byte W72
	.byte W72
	.byte W72
	.byte W72
	.byte W72
	.byte W72
	.byte W72
	.byte W72
	.byte W72
	.byte W72
	.byte W72
	.byte W72
	.byte W72
	.byte W72
	.byte W72
	.byte W72
	.byte W72
	.byte W72
	.byte W72
	.byte W72
	.byte W72
	.byte W72
	.byte W72
	.byte W72
	.byte W72
	.byte W72
	.byte W72
	.byte W72
	.byte W72
	.byte PATT
		.word track_7_lbl_22dd5f
	.byte PATT
		.word track_7_lbl_22dd6b
	.byte PATT
		.word track_7_lbl_22dd73
	.byte PATT
		.word track_7_lbl_22dd7b
	.byte GOTO
		.word track_7_lbl_22dd5f
	.byte FINE

track_7_5:
	.byte KEYSH, 0
	.byte PAN, c_v-17
	.byte W72
	.byte W72
	.byte W72
	.byte W72
	.byte W72
	.byte W72
	.byte W72
	.byte W72
track_7_lbl_22de32:
	.byte VOICE, 39
	.byte VOL, 70
	.byte N28, Bn3, v072
	.byte W36
	.byte Cn4, v092 @ N28
	.byte W36
	.byte PEND
track_7_lbl_22de3e:
	.byte N28, An3, v092
	.byte W36
	.byte Bn3, v072 @ N28
	.byte W36
	.byte PEND
track_7_lbl_22de46:
	.byte N28, Bn3, v072
	.byte W36
	.byte Cn4, v092 @ N28
	.byte W36
	.byte PEND
track_7_lbl_22de4e:
	.byte N28, An3, v092
	.byte W36
	.byte Gn3, v072 @ N28
	.byte W36
	.byte PEND
	.byte Bn3 @ N28, v072
	.byte W36
	.byte Cn4, v092 @ N28
	.byte W36
	.byte An3 @ N28, v092
	.byte W36
	.byte Bn3, v072 @ N28
	.byte W36
	.byte N28 @ Bn3, v072
	.byte W36
	.byte Cn4, v092 @ N28
	.byte W36
	.byte An3 @ N28, v092
	.byte W36
	.byte Gn3, v072 @ N28
	.byte W36
	.byte VOICE, 39
	.byte N24, En3 @ v072
	.byte W36
	.byte Bn3, v092 @ N24
	.byte W36
	.byte An3 @ N24, v092
	.byte W36
	.byte Fs3, v072 @ N24
	.byte W36
	.byte En3 @ N24, v072
	.byte W36
	.byte Bn3, v092 @ N24
	.byte W36
	.byte An3 @ N24, v092
	.byte W36
	.byte Cn4, v072 @ N24
	.byte W36
	.byte VOICE, 36
	.byte VOL, 70
	.byte N60, Bn2, v056
	.byte W36
	.byte Cs3, v072 @ N60
	.byte W36
	.byte An2, v056 @ N60
	.byte W36
	.byte Fs2 @ N60, v056
	.byte W36
	.byte Bn2 @ N60, v056
	.byte W36
	.byte Cs3, v072 @ N60
	.byte W36
	.byte An2, v056 @ N60
	.byte W36
	.byte Fs2 @ N60, v056
	.byte W36
	.byte Bn2 @ N60, v056
	.byte W36
	.byte Cs3, v072 @ N60
	.byte W36
	.byte An2, v056 @ N60
	.byte W36
	.byte Fs2 @ N60, v056
	.byte W36
	.byte Bn2 @ N60, v056
	.byte W36
	.byte Cs3, v072 @ N60
	.byte W36
	.byte An2, v056 @ N60
	.byte W36
	.byte Fs2 @ N60, v056
	.byte W36
	.byte N36, Bn1, v127
	.byte W72
	.byte N48, Dn2 @ v127
	.byte W72
	.byte Bn1 @ N48, v127
	.byte W72
	.byte Dn2 @ N48, v127
	.byte W72
	.byte W72
	.byte W72
	.byte W72
	.byte W72
	.byte W72
	.byte W72
	.byte W72
	.byte W72
	.byte W72
	.byte W72
	.byte W72
	.byte W72
	.byte W72
	.byte W72
	.byte W72
	.byte W72
	.byte W72
	.byte W72
	.byte W72
	.byte W72
	.byte W72
	.byte W72
	.byte W72
	.byte W72
	.byte W72
	.byte W72
	.byte W72
	.byte W72
	.byte W72
	.byte W72
	.byte W72
	.byte W72
	.byte W72
	.byte W72
	.byte W72
	.byte W72
	.byte W72
	.byte PATT
		.word track_7_lbl_22de32
	.byte PATT
		.word track_7_lbl_22de3e
	.byte PATT
		.word track_7_lbl_22de46
	.byte PATT
		.word track_7_lbl_22de4e
	.byte GOTO
		.word track_7_lbl_22de32
	.byte FINE

track_7_6:
	.byte KEYSH, 0
	.byte VOICE, 38
	.byte VOL, 47
	.byte PAN, c_v
	.byte PRIO, 30
	.byte N05, An5, v012
	.byte W12
	.byte Gn5 @ N05, v012
	.byte W12
	.byte Fs5 @ N05, v012
	.byte W12
	.byte En5 @ N05, v012
	.byte W12
	.byte Fs5 @ N05, v012
	.byte W12
	.byte Gn5 @ N05, v012
	.byte W12
	.byte An5 @ N05, v012
	.byte W12
	.byte Gn5, v016 @ N05
	.byte W12
	.byte Fs5 @ N05, v016
	.byte W12
	.byte En5 @ N05, v016
	.byte W12
	.byte Fs5 @ N05, v016
	.byte W12
	.byte Gn5 @ N05, v016
	.byte W12
	.byte An5 @ N05, v016
	.byte W12
	.byte Gn5, v020 @ N05
	.byte W12
	.byte Fs5 @ N05, v020
	.byte W12
	.byte En5 @ N05, v020
	.byte W12
	.byte Fs5 @ N05, v020
	.byte W12
	.byte Gn5 @ N05, v020
	.byte W12
	.byte An5 @ N05, v020
	.byte W12
	.byte Gn5, v024 @ N05
	.byte W12
	.byte Fs5 @ N05, v024
	.byte W12
	.byte En5 @ N05, v024
	.byte W12
	.byte Fs5 @ N05, v024
	.byte W12
	.byte Gn5 @ N05, v024
	.byte W12
	.byte An5 @ N05, v024
	.byte W12
	.byte Gn5, v028 @ N05
	.byte W12
	.byte Fs5 @ N05, v028
	.byte W12
	.byte En5 @ N05, v028
	.byte W12
	.byte Fs5 @ N05, v028
	.byte W12
	.byte Gn5 @ N05, v028
	.byte W12
	.byte An5 @ N05, v028
	.byte W12
	.byte Gn5, v032 @ N05
	.byte W12
	.byte Fs5 @ N05, v032
	.byte W12
	.byte En5 @ N05, v032
	.byte W12
	.byte Fs5 @ N05, v032
	.byte W12
	.byte Gn5 @ N05, v032
	.byte W12
	.byte An5 @ N05, v032
	.byte W12
	.byte Gn5, v036 @ N05
	.byte W12
	.byte Fs5 @ N05, v036
	.byte W12
	.byte En5 @ N05, v036
	.byte W12
	.byte Fs5 @ N05, v036
	.byte W12
	.byte Gn5 @ N05, v036
	.byte W12
	.byte An5 @ N05, v036
	.byte W12
	.byte Gn5, v040 @ N05
	.byte W12
	.byte Fs5 @ N05, v040
	.byte W12
	.byte En5 @ N05, v040
	.byte W12
	.byte Fs5 @ N05, v040
	.byte W12
	.byte Gn5 @ N05, v040
	.byte W12
track_7_lbl_22df6c:
	.byte VOICE, 38
	.byte VOL, 100
	.byte W72
	.byte W72
	.byte W72
	.byte W72
	.byte W72
	.byte W72
	.byte W72
	.byte W72
	.byte W72
	.byte W72
	.byte W72
	.byte W72
	.byte W72
	.byte W72
	.byte W72
	.byte W72
	.byte W72
	.byte W72
	.byte W72
	.byte W72
	.byte W72
	.byte W72
	.byte W72
	.byte W72
	.byte VOICE, 38
	.byte VOL, 47
	.byte N05, An5, v020
	.byte W12
	.byte Gn5, v024 @ N05
	.byte W12
	.byte Fs5 @ N05, v024
	.byte W12
	.byte En5 @ N05, v024
	.byte W12
	.byte Fs5, v028 @ N05
	.byte W12
	.byte Gn5 @ N05, v028
	.byte W12
track_7_lbl_22df9c:
	.byte N05, An5, v028
	.byte W12
	.byte Gn5 @ N05, v028
	.byte W12
	.byte Fs5, v032 @ N05
	.byte W12
	.byte En5 @ N05, v032
	.byte W12
	.byte Fs5 @ N05, v032
	.byte W12
	.byte Gn5, v036 @ N05
	.byte W12
	.byte PEND
track_7_lbl_22dfad:
	.byte N05, An5, v036
	.byte W12
	.byte Gn5 @ N05, v036
	.byte W12
	.byte Fs5, v040 @ N05
	.byte W12
	.byte En5 @ N05, v040
	.byte W12
	.byte Fs5 @ N05, v040
	.byte W12
	.byte Gn5, v044 @ N05
	.byte W12
	.byte PEND
track_7_lbl_22dfbe:
	.byte N05, An5, v044
	.byte W12
	.byte Gn5 @ N05, v044
	.byte W12
	.byte Fs5, v048 @ N05
	.byte W12
	.byte En5 @ N05, v048
	.byte W12
	.byte Fs5 @ N05, v048
	.byte W12
	.byte Gn5 @ N05, v048
	.byte W12
	.byte PEND
track_7_lbl_22dfce:
	.byte N05, An5, v052
	.byte W12
	.byte Gn5, v048 @ N05
	.byte W12
	.byte Fs5 @ N05, v048
	.byte W12
	.byte En5 @ N05, v048
	.byte W12
	.byte Fs5, v044 @ N05
	.byte W12
	.byte Gn5 @ N05, v044
	.byte W12
	.byte PEND
track_7_lbl_22dfdf:
	.byte N05, An5, v040
	.byte W12
	.byte Gn5 @ N05, v040
	.byte W12
	.byte Fs5, v036 @ N05
	.byte W12
	.byte En5 @ N05, v036
	.byte W12
	.byte Fs5 @ N05, v036
	.byte W12
	.byte Gn5, v032 @ N05
	.byte W12
	.byte PEND
track_7_lbl_22dff0:
	.byte N05, An5, v032
	.byte W12
	.byte Gn5, v028 @ N05
	.byte W12
	.byte Fs5 @ N05, v028
	.byte W12
	.byte En5 @ N05, v028
	.byte W12
	.byte Fs5, v024 @ N05
	.byte W12
	.byte Gn5 @ N05, v024
	.byte W12
	.byte PEND
track_7_lbl_22e001:
	.byte N05, An5, v020
	.byte W12
	.byte Gn5 @ N05, v020
	.byte W12
	.byte Fs5, v016 @ N05
	.byte W12
	.byte En5 @ N05, v016
	.byte W12
	.byte Fs5 @ N05, v016
	.byte W12
	.byte Gn5, v012 @ N05
	.byte W12
	.byte PEND
track_7_lbl_22e012:
	.byte N05, An5, v020
	.byte W12
	.byte Gn5, v024 @ N05
	.byte W12
	.byte Fs5 @ N05, v024
	.byte W12
	.byte En5 @ N05, v024
	.byte W12
	.byte Fs5, v028 @ N05
	.byte W12
	.byte Gn5 @ N05, v028
	.byte W12
	.byte PEND
	.byte PATT
		.word track_7_lbl_22df9c
	.byte PATT
		.word track_7_lbl_22dfad
	.byte PATT
		.word track_7_lbl_22dfbe
	.byte PATT
		.word track_7_lbl_22dfce
	.byte PATT
		.word track_7_lbl_22dfdf
	.byte PATT
		.word track_7_lbl_22dff0
	.byte PATT
		.word track_7_lbl_22e001
	.byte PATT
		.word track_7_lbl_22e012
	.byte PATT
		.word track_7_lbl_22df9c
	.byte PATT
		.word track_7_lbl_22dfad
	.byte PATT
		.word track_7_lbl_22dfbe
	.byte PATT
		.word track_7_lbl_22dfce
	.byte PATT
		.word track_7_lbl_22dfdf
	.byte PATT
		.word track_7_lbl_22dff0
	.byte PATT
		.word track_7_lbl_22e001
	.byte PATT
		.word track_7_lbl_22e012
	.byte PATT
		.word track_7_lbl_22df9c
	.byte PATT
		.word track_7_lbl_22dfad
	.byte PATT
		.word track_7_lbl_22dfbe
	.byte PATT
		.word track_7_lbl_22dfce
	.byte N05, An5, v040
	.byte W12
	.byte Gn5, v044 @ N05
	.byte W12
	.byte Fs5 @ N05, v044
	.byte W12
	.byte En5 @ N05, v044
	.byte W12
	.byte Fs5 @ N05, v044
	.byte W12
	.byte Gn5, v048 @ N05
	.byte W12
	.byte An5 @ N05, v048
	.byte W12
	.byte Gn5 @ N05, v048
	.byte W12
	.byte Fs5 @ N05, v048
	.byte W12
	.byte En5, v052 @ N05
	.byte W12
	.byte Fs5 @ N05, v052
	.byte W12
	.byte Gn5 @ N05, v052
	.byte W12
	.byte An5, v056 @ N05
	.byte W12
	.byte Gn5 @ N05, v056
	.byte W12
	.byte Fs5 @ N05, v056
	.byte W12
	.byte En5 @ N05, v056
	.byte W12
	.byte Fs5, v060 @ N05
	.byte W12
	.byte Gn5 @ N05, v060
	.byte W12
	.byte An5 @ N05, v060
	.byte W12
	.byte Gn5, v064 @ N05
	.byte W12
	.byte Fs5 @ N05, v064
	.byte W12
	.byte En5 @ N05, v064
	.byte W12
	.byte Fs5 @ N05, v064
	.byte W12
	.byte Gn5, v068 @ N05
	.byte W12
	.byte An5 @ N05, v068
	.byte W12
	.byte Gn5 @ N05, v068
	.byte W12
	.byte Fs5 @ N05, v068
	.byte W12
	.byte En5, v072 @ N05
	.byte W12
	.byte Fs5 @ N05, v072
	.byte W12
	.byte Gn5 @ N05, v072
	.byte W12
	.byte An5, v076 @ N05
	.byte W12
	.byte Gn5 @ N05, v076
	.byte W12
	.byte Fs5 @ N05, v076
	.byte W12
	.byte En5 @ N05, v076
	.byte W12
	.byte Fs5, v080 @ N05
	.byte W12
	.byte Gn5 @ N05, v080
	.byte W12
	.byte An5 @ N05, v080
	.byte W12
	.byte Gn5, v084 @ N05
	.byte W12
	.byte Fs5 @ N05, v084
	.byte W12
	.byte En5 @ N05, v084
	.byte W12
	.byte Fs5 @ N05, v084
	.byte W12
	.byte Gn5, v088 @ N05
	.byte W12
	.byte An5 @ N05, v088
	.byte W12
	.byte Gn5 @ N05, v088
	.byte W12
	.byte Fs5 @ N05, v088
	.byte W12
	.byte En5, v092 @ N05
	.byte W12
	.byte Fs5 @ N05, v092
	.byte W12
	.byte Gn5 @ N05, v092
	.byte W12
	.byte VOICE, 38
	.byte VOL, 100
	.byte W72
	.byte W72
	.byte W72
	.byte W72
	.byte GOTO
		.word track_7_lbl_22df6c
	.byte FINE

track_7_7:
	.byte KEYSH, 0
	.byte W72
	.byte W72
	.byte W72
	.byte W72
	.byte W72
	.byte W72
	.byte W72
	.byte W72
track_7_lbl_22e10e:
	.byte W72
	.byte W72
	.byte W72
	.byte W72
	.byte W72
	.byte W72
	.byte W72
	.byte W72
	.byte W72
	.byte W72
	.byte W72
	.byte W72
	.byte W72
	.byte W72
	.byte W72
	.byte W72
	.byte W72
	.byte W72
	.byte W72
	.byte W72
	.byte W72
	.byte W72
	.byte W72
	.byte W72
	.byte W72
	.byte W72
	.byte W72
	.byte W72
	.byte W72
	.byte W72
	.byte W72
	.byte W72
	.byte W72
	.byte W72
	.byte W72
	.byte W72
	.byte W72
	.byte W72
	.byte W72
	.byte W72
	.byte W72
	.byte W72
	.byte W72
	.byte W72
	.byte W72
	.byte W72
	.byte W72
	.byte W72
	.byte W72
	.byte W72
	.byte W72
	.byte W72
	.byte W72
	.byte W72
	.byte W72
	.byte W72
	.byte W72
	.byte W72
	.byte W72
	.byte W72
	.byte W72
track_7_lbl_22e14b:
	.byte VOICE, 8
	.byte VOL, 70
	.byte PAN, c_v-10
	.byte N12, En1, v092
	.byte W12
	.byte N24, En2, v072
	.byte W24
	.byte N12, En1, v092
	.byte W12
	.byte N24, En2, v072
	.byte W24
	.byte PEND
	.byte PATT
		.word track_7_lbl_22e14b
track_7_lbl_22e167:
	.byte N12, En1, v092
	.byte W12
	.byte N24, En2, v072
	.byte W24
	.byte N12, En1, v092
	.byte W12
	.byte N24, En2, v072
	.byte W24
	.byte PEND
	.byte PATT
		.word track_7_lbl_22e167
	.byte GOTO
		.word track_7_lbl_22e10e
	.byte FINE

track_7_8:
	.byte KEYSH, 0
	.byte VOICE, 39
	.byte VOL, 70
	.byte PAN, c_v
	.byte N30, Gn3, v052
	.byte W36
	.byte An3, v048 @ N30
	.byte W36
	.byte Fs3, v044 @ N30
	.byte W36
	.byte Gn3, v052 @ N30
	.byte W36
	.byte N30 @ Gn3, v052
	.byte W36
	.byte An3, v048 @ N30
	.byte W36
	.byte Fs3, v044 @ N30
	.byte W36
	.byte En3, v052 @ N30
	.byte W36
	.byte VOL, 100
	.byte N30, Gn3 @ v052
	.byte W36
	.byte An3, v056 @ N30
	.byte W36
	.byte Fs3, v064 @ N30
	.byte W36
	.byte Gn3, v068 @ N30
	.byte W36
	.byte Gn3, v076 @ N30
	.byte W36
	.byte An3, v084 @ N30
	.byte W36
	.byte Fs3, v088 @ N30
	.byte W36
	.byte En3, v096 @ N30
	.byte W36
track_7_lbl_22e1bd:
	.byte W72
	.byte W72
	.byte W72
	.byte W72
	.byte W72
	.byte W72
	.byte W72
	.byte W72
	.byte W72
	.byte W72
	.byte W72
	.byte W72
	.byte W72
	.byte W72
	.byte W72
	.byte W72
	.byte W72
	.byte W72
	.byte W72
	.byte W72
	.byte W72
	.byte W72
	.byte W72
	.byte W72
	.byte W72
	.byte W72
	.byte W72
	.byte W72
	.byte W72
	.byte W72
	.byte W72
	.byte W72
	.byte W72
	.byte W72
	.byte W72
	.byte W72
	.byte W72
	.byte W72
	.byte W72
	.byte W72
	.byte W72
	.byte W72
	.byte W72
	.byte W72
	.byte W72
	.byte W72
	.byte W72
	.byte W72
	.byte W72
	.byte W72
	.byte W72
	.byte W72
	.byte W72
	.byte W72
	.byte W72
	.byte W72
	.byte W72
	.byte W72
	.byte W72
	.byte W72
	.byte W72
	.byte W72
	.byte W72
	.byte W72
	.byte W72
	.byte GOTO
		.word track_7_lbl_22e1bd
	.byte FINE

track_7_9:
	.byte KEYSH, 0
	.byte W72
	.byte W72
	.byte W72
	.byte W72
	.byte W72
	.byte W72
	.byte W72
	.byte W72
track_7_lbl_22e20e:
	.byte W72
	.byte W72
	.byte W72
	.byte W72
	.byte W72
	.byte W72
	.byte W72
	.byte W72
	.byte W72
	.byte W72
	.byte W72
	.byte W72
	.byte W72
	.byte W72
	.byte W72
	.byte W72
	.byte W72
	.byte W72
	.byte W72
	.byte W72
	.byte W72
	.byte W72
	.byte W72
	.byte W72
	.byte W72
	.byte W72
	.byte W72
	.byte W72
	.byte W72
track_7_lbl_22e22b:
	.byte VOICE, 40
	.byte VOL, 70
	.byte PAN, c_v
	.byte N36, As3, v084
	.byte W72
	.byte PEND
	.byte TIE, As3, v072
	.byte W72
	.byte W72
	.byte W12
	.byte EOT @ As3, v072
	.byte W60
	.byte W72
	.byte W72
	.byte W72
	.byte PATT
		.word track_7_lbl_22e22b
	.byte N60, As3, v072
	.byte W72
	.byte TIE, As3, v064
	.byte W72
	.byte W72
	.byte W12
	.byte EOT @ As3, v064
	.byte W60
	.byte W72
	.byte W72
	.byte W72
	.byte VOICE, 40
	.byte VOL, 70
	.byte PAN, c_v
	.byte N60, As3, v084
	.byte W72
	.byte As3, v072 @ N60
	.byte W72
	.byte As3, v064 @ N60
	.byte W72
	.byte TIE, As3, v084
	.byte W72
	.byte W72
	.byte W72
	.byte EOT @ As3, v084
	.byte W72
	.byte W72
	.byte W72
	.byte VOICE, 39
	.byte VOL, 100
	.byte PAN, c_v
	.byte N30, Gn3, v052
	.byte W36
	.byte An3, v048 @ N30
	.byte W36
	.byte Fs3, v044 @ N30
	.byte W36
	.byte Gn3, v052 @ N30
	.byte W36
	.byte N30 @ Gn3, v052
	.byte W36
	.byte An3, v048 @ N30
	.byte W36
	.byte Fs3, v044 @ N30
	.byte W36
	.byte En3, v052 @ N30
	.byte W36
	.byte Gn3 @ N30, v052
	.byte W36
	.byte An3, v056 @ N30
	.byte W36
	.byte Fs3, v064 @ N30
	.byte W36
	.byte Gn3, v068 @ N30
	.byte W36
	.byte Gn3, v076 @ N30
	.byte W36
	.byte An3, v084 @ N30
	.byte W36
	.byte An3, v088 @ N30
	.byte W36
	.byte Gn3, v096 @ N30
	.byte W36
	.byte W72
	.byte W72
	.byte W72
	.byte W72
	.byte GOTO
		.word track_7_lbl_22e20e
	.byte FINE

track_7_10:
	.byte KEYSH, 0
	.byte VOICE, 26
	.byte VOL, 86
	.byte PAN, c_v
	.byte PRIO, 29
	.byte N12, Cn3, v032
	.byte W12
	.byte N12 @ Cn3, v032
	.byte W60
	.byte Cn3, v040 @ N12
	.byte W12
	.byte N12 @ Cn3, v040
	.byte W60
	.byte Cn3, v048 @ N12
	.byte W12
	.byte N12 @ Cn3, v048
	.byte W60
	.byte Cn3, v052 @ N12
	.byte W12
	.byte Cn3, v056 @ N12
	.byte W60
	.byte Cn3, v060 @ N12
	.byte W12
	.byte Cn3, v064 @ N12
	.byte W60
	.byte Cn3, v068 @ N12
	.byte W12
	.byte N12 @ Cn3, v068
	.byte W60
	.byte Cn3, v076 @ N12
	.byte W12
	.byte N12 @ Cn3, v076
	.byte W60
	.byte Cn3, v084 @ N12
	.byte W12
	.byte N12 @ Cn3, v084
	.byte W60
track_7_lbl_22e2e3:
	.byte W72
	.byte W72
	.byte W72
	.byte W72
	.byte W72
	.byte W72
	.byte W72
	.byte W72
	.byte W72
	.byte W72
	.byte W72
	.byte W72
	.byte W72
	.byte W72
	.byte W72
	.byte W72
	.byte W72
	.byte W72
	.byte W72
	.byte W72
	.byte VOICE, 26
	.byte VOL, 86
	.byte N12, Cn3, v112
	.byte W12
	.byte Cn3, v092 @ N12
	.byte W60
track_7_lbl_22e302:
	.byte N12, Cn3, v112
	.byte W12
	.byte Cn3, v092 @ N12
	.byte W60
	.byte PEND
	.byte PATT
		.word track_7_lbl_22e302
	.byte PATT
		.word track_7_lbl_22e302
	.byte PATT
		.word track_7_lbl_22e302
	.byte PATT
		.word track_7_lbl_22e302
	.byte PATT
		.word track_7_lbl_22e302
	.byte PATT
		.word track_7_lbl_22e302
	.byte PATT
		.word track_7_lbl_22e302
	.byte PATT
		.word track_7_lbl_22e302
	.byte PATT
		.word track_7_lbl_22e302
	.byte PATT
		.word track_7_lbl_22e302
	.byte PATT
		.word track_7_lbl_22e302
	.byte PATT
		.word track_7_lbl_22e302
	.byte PATT
		.word track_7_lbl_22e302
	.byte PATT
		.word track_7_lbl_22e302
	.byte PATT
		.word track_7_lbl_22e302
	.byte PATT
		.word track_7_lbl_22e302
	.byte PATT
		.word track_7_lbl_22e302
	.byte PATT
		.word track_7_lbl_22e302
	.byte PATT
		.word track_7_lbl_22e302
	.byte PATT
		.word track_7_lbl_22e302
	.byte PATT
		.word track_7_lbl_22e302
	.byte PATT
		.word track_7_lbl_22e302
	.byte PATT
		.word track_7_lbl_22e302
	.byte PATT
		.word track_7_lbl_22e302
	.byte PATT
		.word track_7_lbl_22e302
	.byte PATT
		.word track_7_lbl_22e302
	.byte PATT
		.word track_7_lbl_22e302
	.byte PATT
		.word track_7_lbl_22e302
	.byte PATT
		.word track_7_lbl_22e302
	.byte PATT
		.word track_7_lbl_22e302
	.byte PATT
		.word track_7_lbl_22e302
	.byte PATT
		.word track_7_lbl_22e302
	.byte PATT
		.word track_7_lbl_22e302
	.byte PATT
		.word track_7_lbl_22e302
	.byte PATT
		.word track_7_lbl_22e302
	.byte PATT
		.word track_7_lbl_22e302
	.byte PATT
		.word track_7_lbl_22e302
	.byte PATT
		.word track_7_lbl_22e302
	.byte PATT
		.word track_7_lbl_22e302
	.byte W72
	.byte W72
	.byte W72
	.byte W72
	.byte GOTO
		.word track_7_lbl_22e2e3
	.byte FINE

track_7_11:
	.byte KEYSH, 0
	.byte PAN, c_v
	.byte PRIO, 28
	.byte W72
	.byte W72
	.byte W72
	.byte W72
	.byte W72
	.byte W72
	.byte W72
	.byte W72
track_7_lbl_22e3e5:
	.byte VOICE, 25
	.byte VOL, 100
	.byte N30, En3, v112
	.byte W72
	.byte PEND
	.byte W72
	.byte W72
	.byte W72
	.byte W72
	.byte W72
	.byte W72
	.byte W72
	.byte W72
	.byte W72
	.byte W72
	.byte W72
	.byte W72
	.byte W72
	.byte W72
	.byte W72
	.byte W72
	.byte W72
	.byte W72
	.byte W72
	.byte W72
	.byte W72
	.byte W72
	.byte W72
	.byte PATT
		.word track_7_lbl_22e3e5
	.byte W72
	.byte W72
	.byte W72
	.byte W72
	.byte W72
	.byte W72
	.byte W72
	.byte W72
	.byte N30, En3, v112
	.byte W72
	.byte W72
	.byte W72
	.byte W72
	.byte W72
	.byte W72
	.byte W72
	.byte W72
	.byte N30 @ En3, v112
	.byte W72
	.byte W72
	.byte W72
	.byte W72
	.byte W72
	.byte W72
	.byte W72
	.byte W72
	.byte W72
	.byte N30 @ En3, v112
	.byte W72
	.byte W72
	.byte W72
	.byte W72
	.byte W72
	.byte W72
	.byte W72
	.byte W72
	.byte W72
	.byte W72
	.byte W72
	.byte N30 @ En3, v112
	.byte W72
	.byte W72
	.byte W72
	.byte W72
	.byte GOTO
		.word track_7_lbl_22e3e5
	.byte FINE

.align 2

track_7:
	.byte 12
	.byte 0
	.byte 130
	.byte 0
	.word voice_group0
	.word track_7_0
	.word track_7_1
	.word track_7_2
	.word track_7_3
	.word track_7_4
	.word track_7_5
	.word track_7_6
	.word track_7_7
	.word track_7_8
	.word track_7_9
	.word track_7_10
	.word track_7_11

.align 2
