.align 2

.global track_59

track_59_0:
	.byte KEYSH, 0
track_59_lbl_221682:
	.byte TEMPO, 35
	.byte VOICE, 37
	.byte PAN, c_v-10
	.byte VOL, 58
	.byte PRIO, 120
	.byte N48, An2, v080
	.byte W48
	.byte N24, Gs2 @ v080
	.byte W24
	.byte Cn3 @ N24, v080
	.byte W24
	.byte Bn2 @ N24, v080
	.byte W24
	.byte Fn2 @ N24, v080
	.byte W24
	.byte N44, As2, v080, 3
	.byte W48
	.byte N48, An2 @ v080
	.byte W48
	.byte N24, Gs2 @ v080
	.byte W24
	.byte Dn2 @ N24, v080
	.byte W24
	.byte Gn2 @ N24, v080
	.byte W24
	.byte Cs2 @ N24, v080
	.byte W24
	.byte TIE, Fs2 @ v080
	.byte W48
	.byte W01
	.byte VOL, 58
	.byte W01
	.byte 57 @ VOL
	.byte W02
	.byte 56 @ VOL
	.byte W01
	.byte 55 @ VOL
	.byte W02
	.byte 55 @ VOL
	.byte W01
	.byte 54 @ VOL
	.byte W02
	.byte 53 @ VOL
	.byte W01
	.byte 53 @ VOL
	.byte W02
	.byte 52 @ VOL
	.byte W01
	.byte 51 @ VOL
	.byte W02
	.byte 51 @ VOL
	.byte W01
	.byte 50 @ VOL
	.byte W02
	.byte 49 @ VOL
	.byte W01
	.byte 48 @ VOL
	.byte W02
	.byte 48 @ VOL
	.byte W01
	.byte 47 @ VOL
	.byte W02
	.byte 46 @ VOL
	.byte W02
	.byte 46 @ VOL
	.byte W01
	.byte 45 @ VOL
	.byte W02
	.byte 44 @ VOL
	.byte W01
	.byte 43 @ VOL
	.byte W02
	.byte 43 @ VOL
	.byte W01
	.byte 42 @ VOL
	.byte W02
	.byte 41 @ VOL
	.byte W01
	.byte 41 @ VOL
	.byte W02
	.byte 40 @ VOL
	.byte W01
	.byte 39 @ VOL
	.byte W02
	.byte 38 @ VOL
	.byte W01
	.byte 38 @ VOL
	.byte W02
	.byte 37 @ VOL
	.byte W01
	.byte 36 @ VOL
	.byte W02
	.byte 36 @ VOL
	.byte W01
	.byte 35 @ VOL
	.byte W02
	.byte 34 @ VOL
	.byte W01
	.byte 34 @ VOL
	.byte W02
	.byte 33 @ VOL
	.byte W01
	.byte 32 @ VOL
	.byte W02
	.byte 31 @ VOL
	.byte W01
	.byte 31 @ VOL
	.byte W02
	.byte 30 @ VOL
	.byte W01
	.byte 29 @ VOL
	.byte W02
	.byte 29 @ VOL
	.byte W01
	.byte 28 @ VOL
	.byte W02
	.byte 27 @ VOL
	.byte W01
	.byte 26 @ VOL
	.byte W02
	.byte 26 @ VOL
	.byte W02
	.byte 25 @ VOL
	.byte W01
	.byte 24 @ VOL
	.byte W02
	.byte 24 @ VOL
	.byte W01
	.byte 23 @ VOL
	.byte W02
	.byte 22 @ VOL
	.byte W01
	.byte 21 @ VOL
	.byte W02
	.byte 21 @ VOL
	.byte W01
	.byte 20 @ VOL
	.byte W02
	.byte 19 @ VOL
	.byte W01
	.byte 19 @ VOL
	.byte W02
	.byte 18 @ VOL
	.byte W01
	.byte 17 @ VOL
	.byte W02
	.byte 17 @ VOL
	.byte W01
	.byte 16 @ VOL
	.byte W02
	.byte 15 @ VOL
	.byte W01
	.byte 14 @ VOL
	.byte W02
	.byte 14 @ VOL
	.byte W01
	.byte 13 @ VOL
	.byte W02
	.byte 12 @ VOL
	.byte W01
	.byte 12 @ VOL
	.byte W02
	.byte 11 @ VOL
	.byte W01
	.byte 10 @ VOL
	.byte W02
	.byte 9 @ VOL
	.byte W01
	.byte 9 @ VOL
	.byte W02
	.byte 8 @ VOL
	.byte W01
	.byte 7 @ VOL
	.byte W02
	.byte 7 @ VOL
	.byte W01
	.byte 6 @ VOL
	.byte W02
	.byte 5 @ VOL
	.byte W01
	.byte 4 @ VOL
	.byte W02
	.byte 4 @ VOL
	.byte W02
	.byte 3 @ VOL
	.byte W01
	.byte 2 @ VOL
	.byte W01
	.byte EOT @ Fs2, v080
	.byte W24
	.byte VOICE, 35
	.byte VOL, 28
	.byte N03, Cn4, v024
	.byte W03
	.byte An3 @ N03, v024
	.byte W03
	.byte Cn4 @ N03, v024
	.byte W03
	.byte Ds4, v028 @ N03
	.byte W03
	.byte Fs4 @ N03, v028
	.byte W03
	.byte Ds4 @ N03, v028
	.byte W03
	.byte Cn4 @ N03, v028
	.byte W03
	.byte An3 @ N03, v028
	.byte W03
	.byte Cn4, v032 @ N03
	.byte W03
	.byte Ds4 @ N03, v032
	.byte W03
	.byte Fs4 @ N03, v032
	.byte W03
	.byte Ds4 @ N03, v032
	.byte W03
	.byte Cn4 @ N03, v032
	.byte W03
	.byte An3, v036 @ N03
	.byte W03
	.byte Cn4 @ N03, v036
	.byte W03
	.byte Ds4 @ N03, v036
	.byte W03
	.byte Fs4 @ N03, v036
	.byte W03
	.byte Ds4 @ N03, v036
	.byte W03
	.byte Cn4 @ N03, v036
	.byte W03
	.byte An3, v032 @ N03
	.byte W03
	.byte Cn4 @ N03, v032
	.byte W03
	.byte Ds4 @ N03, v032
	.byte W03
	.byte Fs4 @ N03, v032
	.byte W03
	.byte Ds4, v028 @ N03
	.byte W03
	.byte Cn4 @ N03, v028
	.byte W03
	.byte An3 @ N03, v028
	.byte W03
	.byte Cn4, v024 @ N03
	.byte W03
	.byte Ds4 @ N03, v024
	.byte W03
	.byte Fs4 @ N03, v024
	.byte W03
	.byte Ds4 @ N03, v024
	.byte W03
	.byte Cn4, v020 @ N03
	.byte W03
	.byte An3 @ N03, v020
	.byte W03
	.byte Cn4 @ N03, v020
	.byte W03
	.byte Ds4, v016 @ N03
	.byte W03
	.byte Fs4 @ N03, v016
	.byte W03
	.byte Ds4 @ N03, v016
	.byte W03
	.byte Cn4 @ N03, v016
	.byte W03
	.byte An3, v012 @ N03
	.byte W03
	.byte Cn4 @ N03, v012
	.byte W03
	.byte Ds4 @ N03, v012
	.byte W03
	.byte GOTO
		.word track_59_lbl_221682
	.byte FINE

track_59_1:
	.byte KEYSH, 0
track_59_lbl_2217b6:
	.byte VOICE, 36
	.byte PAN, c_v+10
	.byte VOL, 79
	.byte PRIO, 119
	.byte N48, Bn2, v112
	.byte W48
	.byte N24, As2 @ v112
	.byte W24
	.byte Dn3 @ N24, v112
	.byte W24
	.byte Cs3, v080 @ N24
	.byte W24
	.byte Gn2 @ N24, v080
	.byte W24
	.byte N44, Cn3, v092, 3
	.byte W48
	.byte N48, Bn2, v112
	.byte W48
	.byte N24, As2 @ v112
	.byte W24
	.byte En2 @ N24, v112
	.byte W24
	.byte An2 @ N24, v112
	.byte W24
	.byte Ds2 @ N24, v112
	.byte W24
	.byte TIE, Gs2 @ v112
	.byte W48
	.byte W16
	.byte VOL, 79
	.byte W01
	.byte 78 @ VOL
	.byte W02
	.byte 77 @ VOL
	.byte W01
	.byte 77 @ VOL
	.byte W02
	.byte 76 @ VOL
	.byte W01
	.byte 75 @ VOL
	.byte W02
	.byte 75 @ VOL
	.byte W02
	.byte 74 @ VOL
	.byte W01
	.byte 73 @ VOL
	.byte W02
	.byte 72 @ VOL
	.byte W01
	.byte 72 @ VOL
	.byte W02
	.byte 71 @ VOL
	.byte W01
	.byte 70 @ VOL
	.byte W02
	.byte 70 @ VOL
	.byte W01
	.byte 69 @ VOL
	.byte W02
	.byte 68 @ VOL
	.byte W01
	.byte 68 @ VOL
	.byte W02
	.byte 67 @ VOL
	.byte W01
	.byte 66 @ VOL
	.byte W02
	.byte 65 @ VOL
	.byte W01
	.byte 65 @ VOL
	.byte W02
	.byte 64 @ VOL
	.byte W01
	.byte 63 @ VOL
	.byte W02
	.byte 63 @ VOL
	.byte W01
	.byte 62 @ VOL
	.byte W02
	.byte 61 @ VOL
	.byte W01
	.byte 60 @ VOL
	.byte W02
	.byte 60 @ VOL
	.byte W01
	.byte 59 @ VOL
	.byte W02
	.byte 58 @ VOL
	.byte W01
	.byte 58 @ VOL
	.byte W02
	.byte 57 @ VOL
	.byte W01
	.byte 56 @ VOL
	.byte W02
	.byte 55 @ VOL
	.byte W01
	.byte 55 @ VOL
	.byte W02
	.byte 54 @ VOL
	.byte W02
	.byte 53 @ VOL
	.byte W01
	.byte 53 @ VOL
	.byte W02
	.byte 52 @ VOL
	.byte W01
	.byte 51 @ VOL
	.byte W02
	.byte 51 @ VOL
	.byte W01
	.byte 50 @ VOL
	.byte W02
	.byte 49 @ VOL
	.byte W01
	.byte 48 @ VOL
	.byte W02
	.byte 48 @ VOL
	.byte W01
	.byte 47 @ VOL
	.byte W02
	.byte 46 @ VOL
	.byte W01
	.byte 46 @ VOL
	.byte W02
	.byte 45 @ VOL
	.byte W01
	.byte 44 @ VOL
	.byte W02
	.byte 43 @ VOL
	.byte W01
	.byte 43 @ VOL
	.byte W02
	.byte 42 @ VOL
	.byte W01
	.byte 41 @ VOL
	.byte W02
	.byte 41 @ VOL
	.byte W01
	.byte 40 @ VOL
	.byte W02
	.byte 39 @ VOL
	.byte W01
	.byte 38 @ VOL
	.byte W02
	.byte 38 @ VOL
	.byte W01
	.byte 37 @ VOL
	.byte W02
	.byte 36 @ VOL
	.byte W01
	.byte 36 @ VOL
	.byte W02
	.byte 35 @ VOL
	.byte W01
	.byte 34 @ VOL
	.byte W02
	.byte 34 @ VOL
	.byte W01
	.byte 33 @ VOL
	.byte W02
	.byte 32 @ VOL
	.byte W02
	.byte 31 @ VOL
	.byte W01
	.byte 31 @ VOL
	.byte W02
	.byte 30 @ VOL
	.byte W01
	.byte 29 @ VOL
	.byte W02
	.byte 29 @ VOL
	.byte W01
	.byte 28 @ VOL
	.byte W02
	.byte 27 @ VOL
	.byte W01
	.byte 26 @ VOL
	.byte W02
	.byte 26 @ VOL
	.byte W01
	.byte 25 @ VOL
	.byte W02
	.byte 24 @ VOL
	.byte W01
	.byte 24 @ VOL
	.byte W02
	.byte 23 @ VOL
	.byte W01
	.byte 22 @ VOL
	.byte W02
	.byte 21 @ VOL
	.byte W01
	.byte 21 @ VOL
	.byte W02
	.byte 20 @ VOL
	.byte W01
	.byte 19 @ VOL
	.byte W01
	.byte EOT @ Gs2, v112
	.byte W48
	.byte W72
	.byte GOTO
		.word track_59_lbl_2217b6
	.byte FINE

track_59_2:
	.byte KEYSH, 0
track_59_lbl_221898:
	.byte VOICE, 37
	.byte VOL, 28
	.byte PAN, c_v
	.byte PRIO, 118
	.byte W96
	.byte N48, Cn4, v048
	.byte W48
	.byte N24, Bn3, v064
	.byte W24
	.byte Fs4, v044 @ N24
	.byte W24
	.byte N48, Fn4 @ v044
	.byte W48
	.byte En4, v056 @ N48
	.byte W48
	.byte Ds4, v052 @ N48
	.byte W48
	.byte TIE, Dn4 @ v052
	.byte W48
	.byte W96
	.byte W01
	.byte VOL, 21
	.byte W01
	.byte 20 @ VOL
	.byte W02
	.byte 19 @ VOL
	.byte W01
	.byte 19 @ VOL
	.byte W02
	.byte 18 @ VOL
	.byte W02
	.byte 17 @ VOL
	.byte W01
	.byte 17 @ VOL
	.byte W02
	.byte 16 @ VOL
	.byte W01
	.byte 15 @ VOL
	.byte W02
	.byte 14 @ VOL
	.byte W02
	.byte 14 @ VOL
	.byte W01
	.byte 13 @ VOL
	.byte W02
	.byte 12 @ VOL
	.byte W01
	.byte 12 @ VOL
	.byte W02
	.byte 11 @ VOL
	.byte W02
	.byte 10 @ VOL
	.byte W01
	.byte 9 @ VOL
	.byte W02
	.byte 9 @ VOL
	.byte W01
	.byte 8 @ VOL
	.byte W02
	.byte 7 @ VOL
	.byte W01
	.byte 7 @ VOL
	.byte W02
	.byte 6 @ VOL
	.byte W02
	.byte 5 @ VOL
	.byte W01
	.byte 4 @ VOL
	.byte W02
	.byte 4 @ VOL
	.byte W01
	.byte 3 @ VOL
	.byte W02
	.byte 2 @ VOL
	.byte W02
	.byte 2 @ VOL
	.byte W01
	.byte 1 @ VOL
	.byte W02
	.byte 0 @ VOL
	.byte W01
	.byte EOT @ Dn4, v052
	.byte W48
	.byte W72
	.byte GOTO
		.word track_59_lbl_221898
	.byte FINE

track_59_3:
	.byte KEYSH, 0
track_59_lbl_221902:
	.byte VOICE, 34
	.byte PAN, c_v
	.byte VOL, 82
	.byte N48, Fn2, v040
	.byte W48
	.byte N24, En2 @ v040
	.byte W24
	.byte Gs2 @ N24, v040
	.byte W24
	.byte Gn2 @ N24, v040
	.byte W24
	.byte Cs2 @ N24, v040
	.byte W24
	.byte N44, Fs2, v040, 3
	.byte W48
	.byte N48, Fn2 @ v040
	.byte W48
	.byte N24, En2 @ v040
	.byte W24
	.byte As1 @ N24, v040
	.byte W24
	.byte Ds2 @ N24, v040
	.byte W24
	.byte An1 @ N24, v040
	.byte W24
	.byte TIE, Dn2 @ v040
	.byte W48
	.byte W56
	.byte VOL, 77
	.byte W01
	.byte 77 @ VOL
	.byte W02
	.byte 76 @ VOL
	.byte W01
	.byte 75 @ VOL
	.byte W02
	.byte 75 @ VOL
	.byte W01
	.byte 74 @ VOL
	.byte W02
	.byte 73 @ VOL
	.byte W01
	.byte 72 @ VOL
	.byte W01
	.byte 72 @ VOL
	.byte W02
	.byte 71 @ VOL
	.byte W01
	.byte 70 @ VOL
	.byte W02
	.byte 70 @ VOL
	.byte W01
	.byte 69 @ VOL
	.byte W02
	.byte 68 @ VOL
	.byte W01
	.byte 68 @ VOL
	.byte W02
	.byte 67 @ VOL
	.byte W01
	.byte 66 @ VOL
	.byte W02
	.byte 65 @ VOL
	.byte W01
	.byte 65 @ VOL
	.byte W01
	.byte 64 @ VOL
	.byte W02
	.byte 63 @ VOL
	.byte W01
	.byte 63 @ VOL
	.byte W02
	.byte 62 @ VOL
	.byte W01
	.byte 61 @ VOL
	.byte W02
	.byte 60 @ VOL
	.byte W01
	.byte 60 @ VOL
	.byte W02
	.byte 59 @ VOL
	.byte W01
	.byte 58 @ VOL
	.byte W01
	.byte W01
	.byte 58 @ VOL
	.byte W01
	.byte 57 @ VOL
	.byte W01
	.byte 56 @ VOL
	.byte W02
	.byte 55 @ VOL
	.byte W01
	.byte 55 @ VOL
	.byte W02
	.byte 54 @ VOL
	.byte W01
	.byte 53 @ VOL
	.byte W02
	.byte 53 @ VOL
	.byte W01
	.byte 52 @ VOL
	.byte W02
	.byte 51 @ VOL
	.byte W01
	.byte 51 @ VOL
	.byte W02
	.byte 50 @ VOL
	.byte W01
	.byte 49 @ VOL
	.byte W01
	.byte 48 @ VOL
	.byte W02
	.byte 48 @ VOL
	.byte W01
	.byte 47 @ VOL
	.byte W02
	.byte 46 @ VOL
	.byte W01
	.byte 46 @ VOL
	.byte W02
	.byte 45 @ VOL
	.byte W01
	.byte 44 @ VOL
	.byte W02
	.byte 43 @ VOL
	.byte W01
	.byte 43 @ VOL
	.byte W02
	.byte 42 @ VOL
	.byte W01
	.byte 41 @ VOL
	.byte W01
	.byte 41 @ VOL
	.byte W02
	.byte 40 @ VOL
	.byte W01
	.byte 39 @ VOL
	.byte W02
	.byte 38 @ VOL
	.byte W01
	.byte 38 @ VOL
	.byte W02
	.byte 37 @ VOL
	.byte W01
	.byte 36 @ VOL
	.byte W02
	.byte 36 @ VOL
	.byte W01
	.byte 35 @ VOL
	.byte W01
	.byte EOT @ Dn2, v040
	.byte W48
	.byte W72
	.byte GOTO
		.word track_59_lbl_221902
	.byte FINE

track_59_4:
	.byte KEYSH, 0
track_59_lbl_2219b1:
	.byte VOICE, 35
	.byte PAN, c_v
	.byte VOL, 28
	.byte PRIO, 30
	.byte N03, Fs4, v012
	.byte W03
	.byte Ds4 @ N03, v012
	.byte W03
	.byte Cn4 @ N03, v012
	.byte W03
	.byte An3 @ N03, v012
	.byte W03
	.byte Cn4, v016 @ N03
	.byte W03
	.byte Ds4 @ N03, v016
	.byte W03
	.byte Fs4 @ N03, v016
	.byte W03
	.byte Ds4 @ N03, v016
	.byte W03
	.byte Cn4 @ N03, v016
	.byte W03
	.byte An3 @ N03, v016
	.byte W03
	.byte Cn4, v020 @ N03
	.byte W03
	.byte Ds4 @ N03, v020
	.byte W03
	.byte Fs4 @ N03, v020
	.byte W03
	.byte Ds4 @ N03, v020
	.byte W03
	.byte Cn4 @ N03, v020
	.byte W03
	.byte An3, v024 @ N03
	.byte W03
	.byte Cn4 @ N03, v024
	.byte W03
	.byte Ds4, v020 @ N03
	.byte W03
	.byte Fs4 @ N03, v020
	.byte W03
	.byte Ds4 @ N03, v020
	.byte W03
	.byte Cn4 @ N03, v020
	.byte W03
	.byte An3 @ N03, v020
	.byte W03
	.byte Cn4 @ N03, v020
	.byte W03
	.byte Ds4, v016 @ N03
	.byte W03
	.byte Fs4 @ N03, v016
	.byte W03
	.byte Ds4 @ N03, v016
	.byte W03
	.byte Cn4 @ N03, v016
	.byte W03
	.byte An3 @ N03, v016
	.byte W03
	.byte Cn4, v012 @ N03
	.byte W03
	.byte Ds4 @ N03, v012
	.byte W03
	.byte Fs4 @ N03, v012
	.byte W03
	.byte Ds4 @ N03, v012
	.byte W03
	.byte Cn4, v004 @ N03
	.byte W03
	.byte An3 @ N03, v004
	.byte W03
	.byte Cn4, v008 @ N03
	.byte W03
	.byte Ds4 @ N03, v008
	.byte W03
	.byte Fs4 @ N03, v008
	.byte W03
	.byte Ds4 @ N03, v008
	.byte W03
	.byte Cn4 @ N03, v008
	.byte W03
	.byte An3, v012 @ N03
	.byte W03
	.byte Cn4 @ N03, v012
	.byte W03
	.byte Ds4 @ N03, v012
	.byte W03
	.byte Fs4 @ N03, v012
	.byte W03
	.byte Ds4 @ N03, v012
	.byte W03
	.byte Cn4, v016 @ N03
	.byte W03
	.byte An3 @ N03, v016
	.byte W03
	.byte Cn4 @ N03, v016
	.byte W03
	.byte Ds4 @ N03, v016
	.byte W03
	.byte Fs4, v020 @ N03
	.byte W03
	.byte Ds4 @ N03, v020
	.byte W03
	.byte Cn4 @ N03, v020
	.byte W03
	.byte An3 @ N03, v020
	.byte W03
	.byte Cn4 @ N03, v020
	.byte W03
	.byte Ds4, v024 @ N03
	.byte W03
	.byte Fs4 @ N03, v024
	.byte W03
	.byte Ds4 @ N03, v024
	.byte W03
	.byte Cn4 @ N03, v024
	.byte W03
	.byte An3 @ N03, v024
	.byte W03
	.byte Cn4, v028 @ N03
	.byte W03
	.byte Ds4 @ N03, v028
	.byte W03
	.byte Fs4 @ N03, v028
	.byte W03
	.byte Ds4 @ N03, v028
	.byte W03
	.byte Cn4 @ N03, v028
	.byte W03
	.byte An3, v032 @ N03
	.byte W03
	.byte Cn4, v036 @ N03
	.byte W03
	.byte Ds4 @ N03, v036
	.byte W03
	.byte Fs4 @ N03, v036
	.byte W03
	.byte Ds4 @ N03, v036
	.byte W03
	.byte Cn4, v032 @ N03
	.byte W03
	.byte An3 @ N03, v032
	.byte W03
	.byte Cn4 @ N03, v032
	.byte W03
	.byte Ds4 @ N03, v032
	.byte W03
	.byte Fs4, v028 @ N03
	.byte W03
	.byte Ds4 @ N03, v028
	.byte W03
	.byte Cn4 @ N03, v028
	.byte W03
	.byte An3 @ N03, v028
	.byte W03
	.byte Cn4 @ N03, v028
	.byte W03
	.byte Ds4, v024 @ N03
	.byte W03
	.byte Fs4 @ N03, v024
	.byte W03
	.byte Ds4 @ N03, v024
	.byte W03
	.byte Cn4 @ N03, v024
	.byte W03
	.byte An3, v020 @ N03
	.byte W03
	.byte Cn4 @ N03, v020
	.byte W03
	.byte Ds4 @ N03, v020
	.byte W03
	.byte Fs4 @ N03, v020
	.byte W03
	.byte Ds4 @ N03, v020
	.byte W03
	.byte Cn4 @ N03, v020
	.byte W03
	.byte An3, v016 @ N03
	.byte W03
	.byte Cn4 @ N03, v016
	.byte W03
	.byte Ds4 @ N03, v016
	.byte W03
	.byte Fs4 @ N03, v016
	.byte W03
	.byte Ds4 @ N03, v016
	.byte W03
	.byte Cn4, v012 @ N03
	.byte W03
	.byte An3 @ N03, v012
	.byte W03
	.byte Cn4 @ N03, v012
	.byte W03
	.byte Ds4 @ N03, v012
	.byte W03
	.byte Fs4 @ N03, v012
	.byte W03
	.byte Ds4 @ N03, v012
	.byte W03
	.byte Cn4 @ N03, v012
	.byte W03
	.byte An3 @ N03, v012
	.byte W03
	.byte Cn4, v016 @ N03
	.byte W03
	.byte Ds4 @ N03, v016
	.byte W03
	.byte Fs4 @ N03, v016
	.byte W03
	.byte Ds4 @ N03, v016
	.byte W03
	.byte Cn4 @ N03, v016
	.byte W03
	.byte An3, v020 @ N03
	.byte W03
	.byte Cn4 @ N03, v020
	.byte W03
	.byte Ds4 @ N03, v020
	.byte W03
	.byte Fs4 @ N03, v020
	.byte W03
	.byte Ds4 @ N03, v020
	.byte W03
	.byte Cn4, v024 @ N03
	.byte W03
	.byte An3 @ N03, v024
	.byte W03
	.byte Cn4 @ N03, v024
	.byte W03
	.byte Ds4 @ N03, v024
	.byte W03
	.byte Fs4 @ N03, v024
	.byte W03
	.byte Ds4, v028 @ N03
	.byte W03
	.byte Cn4 @ N03, v028
	.byte W03
	.byte An3 @ N03, v028
	.byte W03
	.byte Cn4 @ N03, v028
	.byte W03
	.byte Ds4 @ N03, v028
	.byte W03
	.byte Fs4, v032 @ N03
	.byte W03
	.byte Ds4 @ N03, v032
	.byte W03
	.byte Cn4 @ N03, v032
	.byte W03
	.byte An3 @ N03, v032
	.byte W03
	.byte Cn4 @ N03, v032
	.byte W03
	.byte Ds4, v036 @ N03
	.byte W03
	.byte Fs4 @ N03, v036
	.byte W03
	.byte Ds4 @ N03, v036
	.byte W03
	.byte Cn4 @ N03, v036
	.byte W03
	.byte An3 @ N03, v036
	.byte W03
	.byte Cn4 @ N03, v036
	.byte W03
	.byte Ds4 @ N03, v036
	.byte W03
	.byte Fs4, v032 @ N03
	.byte W03
	.byte Ds4 @ N03, v032
	.byte W03
	.byte Cn4 @ N03, v032
	.byte W03
	.byte An3 @ N03, v032
	.byte W03
	.byte Cn4, v028 @ N03
	.byte W03
	.byte Ds4 @ N03, v028
	.byte W03
	.byte Fs4 @ N03, v028
	.byte W03
	.byte Ds4 @ N03, v028
	.byte W03
	.byte Cn4 @ N03, v028
	.byte W03
	.byte An3, v024 @ N03
	.byte W03
	.byte Cn4 @ N03, v024
	.byte W03
	.byte Ds4 @ N03, v024
	.byte W03
	.byte Fs4 @ N03, v024
	.byte W03
	.byte Ds4, v020 @ N03
	.byte W03
	.byte Cn4 @ N03, v020
	.byte W03
	.byte An3 @ N03, v020
	.byte W03
	.byte Cn4 @ N03, v020
	.byte W03
	.byte Ds4 @ N03, v020
	.byte W03
	.byte Fs4 @ N03, v020
	.byte W03
	.byte Ds4, v016 @ N03
	.byte W03
	.byte Cn4 @ N03, v016
	.byte W03
	.byte An3 @ N03, v016
	.byte W03
	.byte Cn4 @ N03, v016
	.byte W03
	.byte Ds4 @ N03, v016
	.byte W03
	.byte Fs4, v012 @ N03
	.byte W03
	.byte Ds4 @ N03, v012
	.byte W03
	.byte Cn4 @ N03, v012
	.byte W03
	.byte An3 @ N03, v012
	.byte W03
	.byte Cn4 @ N03, v012
	.byte W03
	.byte Ds4 @ N03, v012
	.byte W03
	.byte Fs4 @ N03, v012
	.byte W03
	.byte Ds4 @ N03, v012
	.byte W03
	.byte Cn4, v016 @ N03
	.byte W03
	.byte An3 @ N03, v016
	.byte W03
	.byte Cn4 @ N03, v016
	.byte W03
	.byte Ds4 @ N03, v016
	.byte W03
	.byte Fs4 @ N03, v016
	.byte W03
	.byte Ds4, v020 @ N03
	.byte W03
	.byte Cn4 @ N03, v020
	.byte W03
	.byte An3 @ N03, v020
	.byte W03
	.byte Cn4 @ N03, v020
	.byte W03
	.byte Ds4 @ N03, v020
	.byte W03
	.byte Fs4, v024 @ N03
	.byte W03
	.byte Ds4 @ N03, v024
	.byte W48
	.byte W03
	.byte W72
	.byte GOTO
		.word track_59_lbl_2219b1
	.byte FINE

.align 2

track_59:
	.byte 5
	.byte 0
	.byte 130
	.byte 0
	.word voice_group20
	.word track_59_0
	.word track_59_1
	.word track_59_2
	.word track_59_3
	.word track_59_4

.align 2
