.align 2

.global track_592

track_592_0:
	.byte KEYSH, 0
	.byte TEMPO, 75
	.byte VOICE, 12
	.byte VOL, 94
	.byte BENDR, 6
	.byte BEND, c_v-15
	.byte TIE
	.byte Cn2, Cn8
	.byte W66
	.byte BEND, c_v-14
	.byte W06
	.byte Ds2
	.byte W09
	.byte En2
	.byte W09
	.byte Fn2
	.byte W06
	.byte Fs2
	.byte W09
	.byte Gn2
	.byte W06
	.byte Gs2
	.byte W09
	.byte An2
	.byte W06
	.byte As2
	.byte W09
	.byte Bn2
	.byte W09
	.byte Cn3
	.byte W06
	.byte Cs3
	.byte W09
	.byte Dn3
	.byte W06
	.byte Ds3
	.byte W09
	.byte En3
	.byte W06
	.byte Fn3
	.byte W09
	.byte Fs3
	.byte W03
	.byte W06
	.byte Gn3
	.byte W06
	.byte Gs3
	.byte W09
	.byte An3
	.byte W06
	.byte As3
	.byte W09
	.byte Bn3
	.byte W09
	.byte Cn4
	.byte W06
	.byte Cs4
	.byte W09
	.byte Dn4
	.byte W06
	.byte Ds4
	.byte W09
	.byte En4
	.byte W06
	.byte Fn4
	.byte W09
	.byte Fs4
	.byte W06
	.byte W03
	.byte Gn4
	.byte W06
	.byte Gs4
	.byte W05
	.byte An4
	.byte W09
	.byte Bn4
	.byte W09
	.byte Cs5
	.byte W06
	.byte Dn5
	.byte W03
	.byte Ds5
	.byte W03
	.byte Fn5
	.byte W06
	.byte Gn5
	.byte W03
	.byte Gs5
	.byte W03
	.byte An5
	.byte W03
	.byte Bn5
	.byte W03
	.byte Cn6
	.byte W03
	.byte Cs6
	.byte W03
	.byte Ds6
	.byte W03
	.byte Fn6
	.byte W03
	.byte Gs6
	.byte W03
	.byte As6
	.byte W03
	.byte Cs7
	.byte W03
	.byte Ds7
	.byte W03
	.byte Gn7
	.byte W03
	.byte As7
	.byte W03
	.byte Ds8
	.byte W03
	.byte Gn8
	.byte W01
	.byte W36
	.byte EOT

	.byte FINE

track_592_1:
	.byte KEYSH, 0
	.byte VOICE, 20
	.byte VOL, 94
	.byte BENDR, 6
	.byte BEND, c_v-63
	.byte TIE
	.byte Cn2, En6
	.byte W03
	.byte BEND, c_v-62
	.byte W03
	.byte DsM2
	.byte W06
	.byte EnM2
	.byte W03
	.byte FnM2
	.byte W03
	.byte FsM2
	.byte W03
	.byte GnM2
	.byte W06
	.byte GsM2
	.byte W03
	.byte AnM2
	.byte W03
	.byte AsM2
	.byte W03
	.byte BnM2
	.byte W06
	.byte CnM1
	.byte W03
	.byte CsM1
	.byte W03
	.byte DnM1
	.byte W03
	.byte DsM1
	.byte W06
	.byte EnM1
	.byte W03
	.byte FnM1
	.byte W03
	.byte FsM1
	.byte W06
	.byte GnM1
	.byte W06
	.byte GsM1
	.byte W03
	.byte AnM1
	.byte W06
	.byte AsM1
	.byte W06
	.byte BnM1
	.byte W06
	.byte Cn0
	.byte W03
	.byte Cs0
	.byte W06
	.byte Dn0
	.byte W06
	.byte Ds0
	.byte W03
	.byte En0
	.byte W06
	.byte Fn0
	.byte W06
	.byte Fs0
	.byte W03
	.byte Gn0
	.byte W06
	.byte Gs0
	.byte W06
	.byte An0
	.byte W06
	.byte As0
	.byte W03
	.byte Bn0
	.byte W06
	.byte Cn1
	.byte W06
	.byte Cs1
	.byte W03
	.byte Dn1
	.byte W06
	.byte Ds1
	.byte W06
	.byte En1
	.byte W03
	.byte Fn1
	.byte W06
	.byte Fs1
	.byte W06
	.byte Gn1
	.byte W06
	.byte Gs1
	.byte W03
	.byte An1
	.byte W06
	.byte As1
	.byte W06
	.byte Bn1
	.byte W03
	.byte Cn2
	.byte W06
	.byte Cs2
	.byte W06
	.byte Dn2
	.byte W06
	.byte Ds2
	.byte W03
	.byte En2
	.byte W06
	.byte Fn2
	.byte W06
	.byte Fs2
	.byte W03
	.byte Gn2
	.byte W06
	.byte Gs2
	.byte W06
	.byte An2
	.byte W03
	.byte As2
	.byte W06
	.byte Bn2
	.byte W06
	.byte Cn3
	.byte W06
	.byte Cs3
	.byte W03
	.byte Dn3
	.byte W06
	.byte Ds3
	.byte W06
	.byte En3
	.byte W03
	.byte Fn3
	.byte W09
	.byte Fs3
	.byte W03
	.byte Gn3
	.byte W09
	.byte Gs3
	.byte W03
	.byte An3
	.byte W06
	.byte As3
	.byte W03
	.byte Bn3
	.byte W09
	.byte Cs4
	.byte W06
	.byte Ds4
	.byte W06
	.byte Fn4
	.byte W06
	.byte Gn4
	.byte W06
	.byte An4
	.byte W03
	.byte Bn4
	.byte W06
	.byte Cs5
	.byte W03
	.byte Ds5
	.byte W03
	.byte Fn5
	.byte W03
	.byte Fs5
	.byte W03
	.byte Gs5
	.byte W03
	.byte An5
	.byte W03
	.byte Bn5
	.byte W24
	.byte EOT

	.byte FINE

track_592_2:
	.byte KEYSH, 0
	.byte VOICE, 37
	.byte VOL, 62
	.byte PAN, c_v
	.byte BENDR, 12
	.byte BEND, c_v-16
	.byte N60
	.byte Cn3, Gs4
	.byte W01
	.byte BEND, c_v-15
	.byte W01
	.byte Ds2
	.byte W01
	.byte En2
	.byte W01
	.byte Fs2
	.byte W01
	.byte Gn2
	.byte W01
	.byte Gs2
	.byte W01
	.byte As2
	.byte W01
	.byte Bn2
	.byte W01
	.byte Cs3
	.byte W01
	.byte Dn3
	.byte W01
	.byte En3
	.byte W01
	.byte Fn3
	.byte W01
	.byte Fs3
	.byte W01
	.byte Gs3
	.byte W01
	.byte An3
	.byte W01
	.byte Bn3
	.byte W01
	.byte Cn4
	.byte W01
	.byte Cs4
	.byte W01
	.byte Ds4
	.byte W01
	.byte En4
	.byte W01
	.byte Fs4
	.byte W01
	.byte Gn4
	.byte W01
	.byte Gs4
	.byte W01
	.byte As4
	.byte W01
	.byte Bn4
	.byte W01
	.byte Cs5
	.byte W01
	.byte Dn5
	.byte W01
	.byte Ds5
	.byte W01
	.byte Fn5
	.byte W01
	.byte Fs5
	.byte W01
	.byte Gs5
	.byte W01
	.byte An5
	.byte W01
	.byte Bn5
	.byte W01
	.byte Cn6
	.byte W01
	.byte Cs6
	.byte W01
	.byte Ds6
	.byte W01
	.byte En6
	.byte W01
	.byte Fs6
	.byte W01
	.byte Gn6
	.byte W01
	.byte Gs6
	.byte W01
	.byte As6
	.byte W01
	.byte Bn6
	.byte W01
	.byte Cs7
	.byte W01
	.byte Dn7
	.byte W01
	.byte Ds7
	.byte W01
	.byte Fn7
	.byte W01
	.byte Fs7
	.byte W01
	.byte Gs7
	.byte W01
	.byte An7
	.byte W01
	.byte As7
	.byte W01
	.byte Cn8
	.byte W01
	.byte Cs8
	.byte W01
	.byte Ds8
	.byte W01
	.byte En8
	.byte W01
	.byte Fs8
	.byte W01
	.byte Gn8
	.byte W40
	.byte W96
	.byte W96
	.byte W96
	.byte W17

	.byte FINE

.align 2

track_592:
	.byte 3
	.byte 0
	.byte 229
	.byte 0
	.word voice_group17
	.word track_592_0
	.word track_592_1
	.word track_592_2

.align 2
