.align 2

.global track_594

track_594_0:
	.byte KEYSH, 0
	.byte TEMPO, 75
	.byte VOICE, 5
	.byte VOL, 94
	.byte PAN, c_v
	.byte BENDR, 12
	.byte BEND, c_v
	.byte TIE
	.byte Fs2, Cn8
	.byte W02
	.byte BEND, c_v+1
	.byte W03
	.byte Fs3
	.byte W03
	.byte Gn3
	.byte W03
	.byte Gs3
	.byte W03
	.byte An3
	.byte W03
	.byte As3
	.byte W03
	.byte Bn3
	.byte W03
	.byte Cn4
	.byte W03
	.byte Cs4
	.byte W03
	.byte Dn4
	.byte W03
	.byte Ds4
	.byte W04
	.byte En4
	.byte W03
	.byte Fn4
	.byte W03
	.byte Fs4
	.byte W03
	.byte Gn4
	.byte W03
	.byte Gs4
	.byte W03
	.byte An4
	.byte W03
	.byte As4
	.byte W03
	.byte Bn4
	.byte W03
	.byte Cn5
	.byte W03
	.byte Cs5
	.byte W03
	.byte Dn5
	.byte W03
	.byte Ds5
	.byte W03
	.byte En5
	.byte W03
	.byte Fn5
	.byte W03
	.byte Fs5
	.byte W03
	.byte Gn5
	.byte W03
	.byte Gs5
	.byte W03
	.byte An5
	.byte W03
	.byte As5
	.byte W03
	.byte Bn5
	.byte W03
	.byte Cn6
	.byte W04
	.byte Cs6
	.byte W03
	.byte Dn6
	.byte W03
	.byte Ds6
	.byte W03
	.byte En6
	.byte W03
	.byte Fn6
	.byte W03
	.byte Fs6
	.byte W03
	.byte Gn6
	.byte W03
	.byte Gs6
	.byte W03
	.byte An6
	.byte W03
	.byte As6
	.byte W03
	.byte Bn6
	.byte W03
	.byte Cn7
	.byte W03
	.byte Cs7
	.byte W03
	.byte Dn7
	.byte W03
	.byte Ds7
	.byte W03
	.byte En7
	.byte W03
	.byte Fn7
	.byte W03
	.byte Fs7
	.byte W03
	.byte Gn7
	.byte W03
	.byte Gs7
	.byte W03
	.byte An7
	.byte W04
	.byte As7
	.byte W03
	.byte Bn7
	.byte W03
	.byte Cn8
	.byte W03
	.byte Cs8
	.byte W03
	.byte Dn8
	.byte W03
	.byte Ds8
	.byte W03
	.byte En8
	.byte W03
	.byte Fn8
	.byte W03
	.byte Fs8
	.byte W03
	.byte Gn8
	.byte W01
	.byte VOL, 94
	.byte W02
	.byte As3
	.byte W02
	.byte En2
	.byte W02
	.byte Ds1
	.byte W02
	.byte Fn0
	.byte W02
	.byte GsM1
	.byte W02
	.byte CsM1
	.byte W02
	.byte GnM2
	.byte W02
	.byte DnM2
	.byte W01
	.byte CnM2
	.byte W01
	.byte EOT

	.byte FINE

track_594_1:
	.byte KEYSH, 0
	.byte VOICE, 19
	.byte VOL, 94
	.byte PAN, c_v
	.byte BENDR, 12
	.byte BEND, c_v-32
	.byte TIE
	.byte Cn2, En6
	.byte W03
	.byte BEND, c_v-31
	.byte W03
	.byte Bn0
	.byte W03
	.byte Cn1
	.byte W03
	.byte Dn1
	.byte W03
	.byte Ds1
	.byte W03
	.byte Fn1
	.byte W03
	.byte Fs1
	.byte W03
	.byte Gs1
	.byte W03
	.byte An1
	.byte W03
	.byte Bn1
	.byte W03
	.byte Cn2
	.byte W03
	.byte Dn2
	.byte W03
	.byte Ds2
	.byte W03
	.byte Fn2
	.byte W03
	.byte Fs2
	.byte W03
	.byte Gs2
	.byte W03
	.byte An2
	.byte W03
	.byte Bn2
	.byte W03
	.byte Cn3
	.byte W03
	.byte Dn3
	.byte W03
	.byte Ds3
	.byte W03
	.byte Fn3
	.byte W03
	.byte Fs3
	.byte W03
	.byte Gs3
	.byte W03
	.byte An3
	.byte W03
	.byte Bn3
	.byte W03
	.byte Cn4
	.byte W03
	.byte Dn4
	.byte W03
	.byte Ds4
	.byte W03
	.byte Fn4
	.byte W03
	.byte Fs4
	.byte W03
	.byte Gs4
	.byte W03
	.byte An4
	.byte W03
	.byte Bn4
	.byte W03
	.byte Cn5
	.byte W03
	.byte Dn5
	.byte W03
	.byte Ds5
	.byte W03
	.byte Fn5
	.byte W03
	.byte Fs5
	.byte W03
	.byte Gs5
	.byte W03
	.byte An5
	.byte W03
	.byte Bn5
	.byte W03
	.byte Cn6
	.byte W03
	.byte Dn6
	.byte W03
	.byte Ds6
	.byte W03
	.byte Fn6
	.byte W03
	.byte Fs6
	.byte W03
	.byte Gs6
	.byte W03
	.byte An6
	.byte W03
	.byte Bn6
	.byte W03
	.byte Cn7
	.byte W03
	.byte Dn7
	.byte W03
	.byte Ds7
	.byte W03
	.byte Fn7
	.byte W03
	.byte Fs7
	.byte W03
	.byte Gs7
	.byte W03
	.byte An7
	.byte W03
	.byte Bn7
	.byte W03
	.byte Cn8
	.byte W03
	.byte Dn8
	.byte W03
	.byte Ds8
	.byte W03
	.byte En8
	.byte W03
	.byte Fs8
	.byte W03
	.byte VOL, 94
	.byte W02
	.byte As3
	.byte W01
	.byte BEND, c_v+57
	.byte W01
	.byte VOL, 52
	.byte W02
	.byte Ds1
	.byte BEND, c_v+58
	.byte W02
	.byte VOL, 29
	.byte W01
	.byte BEND, c_v+59
	.byte W01
	.byte VOL, 20
	.byte W02
	.byte CsM1
	.byte BEND, c_v+61
	.byte W02
	.byte VOL, 7
	.byte W01
	.byte BEND, c_v+62
	.byte W01
	.byte VOL, 2
	.byte W01
	.byte CnM2
	.byte BEND, c_v+63
	.byte W01
	.byte EOT

	.byte FINE

.align 2

track_594:
	.byte 2
	.byte 0
	.byte 229
	.byte 0
	.word voice_group17
	.word track_594_0
	.word track_594_1

.align 2
