.align 2

.global track_70

track_70_0:
	.byte KEYSH, 0
	.byte TEMPO, 46
	.byte VOICE, 41
	.byte VOL, 80
	.byte PAN, c_v
	.byte PRIO, 120
	.byte W48
	.byte N36
	.byte Fs3, Cn8
	.byte W36
	.byte TIE
	.byte Fn3, Gn8
	.byte W12
	.byte W96
	.byte W24
	.byte EOT
	.byte W24
	.byte N36
	.byte Dn3, Cn8
	.byte W36
	.byte TIE
	.byte Cs3, Gn8
	.byte W12
	.byte W96
	.byte W24
	.byte EOT
	.byte W36
	.byte VOL, 69
	.byte N06
	.byte As3, Gs5
	.byte N06
	.byte En4
	.byte N06
	.byte An4
	.byte W08
	.byte N12
	.byte As3, Cn3
	.byte N12
	.byte En4
	.byte N12
	.byte An4
	.byte W28
track_70_lbl_226093:
	.byte W96
	.byte W48
	.byte VOL, 80
	.byte N36
	.byte Fs3, Cn8
	.byte W36
	.byte TIE
	.byte Fn3, Gn8
	.byte W12
	.byte W96
	.byte W24
	.byte EOT
	.byte W24
	.byte N36
	.byte Dn3, Cn8
	.byte W36
	.byte TIE
	.byte Cs3, Gn8
	.byte W12
	.byte W96
	.byte W24
	.byte EOT
	.byte W24
	.byte VOL, 62
	.byte N36
	.byte Bn3, Cn8
	.byte W36
	.byte TIE
	.byte As3
	.byte W12
	.byte W96
	.byte W48
	.byte EOT
	.byte VOICE, 40
	.byte VOL, 17
	.byte TIE
	.byte An4, En1
	.byte W03
	.byte VOL, 18
	.byte W01
	.byte FsM1
	.byte W01
	.byte GnM1
	.byte W01
	.byte GsM1
	.byte W01
	.byte GsM1
	.byte W01
	.byte AsM1
	.byte W01
	.byte AsM1
	.byte W01
	.byte BnM1
	.byte W01
	.byte BnM1
	.byte W01
	.byte Cn0
	.byte W01
	.byte Cs0
	.byte W01
	.byte Cs0
	.byte W01
	.byte Dn0
	.byte W01
	.byte Ds0
	.byte W01
	.byte Ds0
	.byte W01
	.byte En0
	.byte W01
	.byte Fn0
	.byte W01
	.byte Fs0
	.byte W01
	.byte Fs0
	.byte W01
	.byte Gn0
	.byte W01
	.byte Gs0
	.byte W01
	.byte Gs0
	.byte W01
	.byte An0
	.byte W01
	.byte As0
	.byte W01
	.byte As0
	.byte W01
	.byte Bn0
	.byte W01
	.byte Cn1
	.byte W01
	.byte Cs1
	.byte W01
	.byte Cs1
	.byte W01
	.byte Dn1
	.byte W01
	.byte Ds1
	.byte W01
	.byte Ds1
	.byte W01
	.byte En1
	.byte W01
	.byte En1
	.byte W01
	.byte Fn1
	.byte W01
	.byte Fs1
	.byte W01
	.byte Gn1
	.byte W01
	.byte Gs1
	.byte W01
	.byte Gs1
	.byte W01
	.byte An1
	.byte W01
	.byte An1
	.byte W01
	.byte As1
	.byte W01
	.byte Bn1
	.byte W01
	.byte Bn1
	.byte W01
	.byte Cn2
	.byte W01
	.byte Cs2
	.byte W01
	.byte Dn2
	.byte W01
	.byte Ds2
	.byte W01
	.byte Ds2
	.byte W01
	.byte En2
	.byte W01
	.byte Dn2
	.byte W01
	.byte Cs2
	.byte W01
	.byte Cs2
	.byte W01
	.byte Cs2
	.byte W02
	.byte Cn2
	.byte W02
	.byte Bn1
	.byte W02
	.byte Bn1
	.byte W02
	.byte As1
	.byte W02
	.byte An1
	.byte W02
	.byte An1
	.byte W02
	.byte Gs1
	.byte W02
	.byte Gs1
	.byte W01
	.byte Gn1
	.byte W02
	.byte Fs1
	.byte W02
	.byte Fs1
	.byte W02
	.byte Fn1
	.byte W02
	.byte En1
	.byte W02
	.byte En1
	.byte W02
	.byte Ds1
	.byte W02
	.byte Ds1
	.byte W02
	.byte Dn1
	.byte W02
	.byte Cs1
	.byte W01
	.byte Cs1
	.byte W02
	.byte Cn1
	.byte W02
	.byte Bn0
	.byte W02
	.byte Bn0
	.byte W02
	.byte As0
	.byte W02
	.byte As0
	.byte W02
	.byte An0
	.byte W02
	.byte Gs0
	.byte W02
	.byte Gs0
	.byte W02
	.byte Gn0
	.byte W01
	.byte Fs0
	.byte W02
	.byte Fs0
	.byte W02
	.byte Fn0
	.byte W02
	.byte En0
	.byte W02
	.byte En0
	.byte W02
	.byte Ds0
	.byte W02
	.byte Ds0
	.byte W02
	.byte Dn0
	.byte W02
	.byte Cs0
	.byte W02
	.byte Cs0
	.byte W01
	.byte Cn0
	.byte W02
	.byte BnM1
	.byte W02
	.byte BnM1
	.byte W02
	.byte AsM1
	.byte W02
	.byte AsM1
	.byte W02
	.byte AnM1
	.byte W02
	.byte GsM1
	.byte W02
	.byte GsM1
	.byte W02
	.byte GnM1
	.byte W02
	.byte FsM1
	.byte W01
	.byte FsM1
	.byte W02
	.byte FnM1
	.byte W02
	.byte FnM1
	.byte W02
	.byte EnM1
	.byte W02
	.byte DsM1
	.byte W02
	.byte DsM1
	.byte W02
	.byte DnM1
	.byte W02
	.byte CsM1
	.byte W02
	.byte CsM1
	.byte W02
	.byte CnM1
	.byte W01
	.byte BnM2
	.byte W02
	.byte BnM2
	.byte W02
	.byte AsM2
	.byte W02
	.byte AsM2
	.byte W02
	.byte AnM2
	.byte W02
	.byte GsM2
	.byte W02
	.byte GsM2
	.byte W02
	.byte GnM2
	.byte W01
	.byte EOT
	.byte W01
	.byte VOL, 6
	.byte W56
	.byte VOICE, 19
	.byte VOL, 11
	.byte TIE
	.byte Cs3, En2
	.byte W03
	.byte VOL, 12
	.byte W02
	.byte CsM1
	.byte W02
	.byte CsM1
	.byte W03
	.byte DnM1
	.byte W02
	.byte DsM1
	.byte W03
	.byte DsM1
	.byte W02
	.byte EnM1
	.byte W02
	.byte FnM1
	.byte W03
	.byte FnM1
	.byte W02
	.byte FsM1
	.byte W02
	.byte FsM1
	.byte W03
	.byte GnM1
	.byte W02
	.byte GsM1
	.byte W02
	.byte GsM1
	.byte W03
	.byte AnM1
	.byte W02
	.byte AsM1
	.byte W03
	.byte AsM1
	.byte W02
	.byte BnM1
	.byte W02
	.byte BnM1
	.byte W03
	.byte Cn0
	.byte W02
	.byte Cs0
	.byte W02
	.byte Cs0
	.byte W03
	.byte Dn0
	.byte W02
	.byte Ds0
	.byte W02
	.byte Ds0
	.byte W03
	.byte En0
	.byte W02
	.byte En0
	.byte W03
	.byte Fn0
	.byte W02
	.byte Fs0
	.byte W02
	.byte Fs0
	.byte W03
	.byte Gn0
	.byte W02
	.byte Gs0
	.byte W02
	.byte Gs0
	.byte W03
	.byte An0
	.byte W02
	.byte As0
	.byte W02
	.byte As0
	.byte W03
	.byte Bn0
	.byte W02
	.byte Bn0
	.byte W03
	.byte Cn1
	.byte W02
	.byte Cs1
	.byte W01
	.byte W01
	.byte Cs1
	.byte W03
	.byte Dn1
	.byte W02
	.byte Ds1
	.byte W02
	.byte Ds1
	.byte W03
	.byte En1
	.byte W02
	.byte En1
	.byte W02
	.byte Fn1
	.byte W03
	.byte Fs1
	.byte W02
	.byte Fs1
	.byte W03
	.byte Gn1
	.byte W02
	.byte Gs1
	.byte W02
	.byte Gs1
	.byte W03
	.byte An1
	.byte W02
	.byte An1
	.byte W02
	.byte As1
	.byte W03
	.byte Bn1
	.byte W02
	.byte Bn1
	.byte W02
	.byte Cn2
	.byte W03
	.byte Cs2
	.byte W02
	.byte Cs2
	.byte W03
	.byte Dn2
	.byte W02
	.byte Ds2
	.byte W02
	.byte Ds2
	.byte W03
	.byte En2
	.byte W02
	.byte En2
	.byte W02
	.byte Fn2
	.byte W03
	.byte Fs2
	.byte W02
	.byte Fs2
	.byte W02
	.byte Gn2
	.byte W03
	.byte Gs2
	.byte W02
	.byte Gs2
	.byte W03
	.byte An2
	.byte W02
	.byte Gs2
	.byte W02
	.byte Gs2
	.byte W02
	.byte Gn2
	.byte W01
	.byte Fs2
	.byte W02
	.byte EOT
	.byte VOL, 54
	.byte TIE
	.byte Cn3, En1
	.byte W02
	.byte VOL, 53
	.byte W02
	.byte En2
	.byte W01
	.byte En2
	.byte W02
	.byte Ds2
	.byte W02
	.byte Ds2
	.byte W02
	.byte Dn2
	.byte W01
	.byte Cs2
	.byte W02
	.byte Cs2
	.byte W02
	.byte Cn2
	.byte W02
	.byte Bn1
	.byte W02
	.byte Bn1
	.byte W01
	.byte As1
	.byte W02
	.byte An1
	.byte W02
	.byte An1
	.byte W02
	.byte Gs1
	.byte W01
	.byte Gs1
	.byte W02
	.byte Gn1
	.byte W02
	.byte Fs1
	.byte W02
	.byte Fs1
	.byte W01
	.byte Fn1
	.byte W02
	.byte En1
	.byte W02
	.byte En1
	.byte W02
	.byte Ds1
	.byte W01
	.byte Ds1
	.byte W02
	.byte Dn1
	.byte W02
	.byte Cs1
	.byte W02
	.byte Cs1
	.byte W01
	.byte Cn1
	.byte W02
	.byte Bn0
	.byte W02
	.byte Bn0
	.byte W02
	.byte As0
	.byte W01
	.byte As0
	.byte W02
	.byte An0
	.byte W02
	.byte Gs0
	.byte W02
	.byte Gs0
	.byte W01
	.byte Gn0
	.byte W02
	.byte Fs0
	.byte W02
	.byte Fs0
	.byte W02
	.byte Fn0
	.byte W01
	.byte En0
	.byte W02
	.byte En0
	.byte W02
	.byte Ds0
	.byte W02
	.byte Ds0
	.byte W02
	.byte Dn0
	.byte W01
	.byte Cs0
	.byte W02
	.byte Cs0
	.byte W02
	.byte Cn0
	.byte W02
	.byte BnM1
	.byte W01
	.byte BnM1
	.byte W02
	.byte AsM1
	.byte W02
	.byte AsM1
	.byte W02
	.byte AnM1
	.byte W01
	.byte GsM1
	.byte W02
	.byte GsM1
	.byte W02
	.byte GnM1
	.byte W02
	.byte FsM1
	.byte W01
	.byte FsM1
	.byte W02
	.byte FnM1
	.byte W02
	.byte FnM1
	.byte W02
	.byte EnM1
	.byte W01
	.byte DsM1
	.byte W01
	.byte W01
	.byte DsM1
	.byte W02
	.byte DnM1
	.byte W02
	.byte CsM1
	.byte W01
	.byte CsM1
	.byte W02
	.byte CnM1
	.byte W02
	.byte BnM2
	.byte W02
	.byte BnM2
	.byte W01
	.byte AsM2
	.byte W02
	.byte AsM2
	.byte W02
	.byte AnM2
	.byte W02
	.byte GsM2
	.byte W02
	.byte GsM2
	.byte W01
	.byte GnM2
	.byte W02
	.byte EOT
	.byte W72
	.byte VOICE, 19
	.byte VOL, 37
	.byte TIE
	.byte Cs3, En2
	.byte W02
	.byte VOL, 13
	.byte W02
	.byte CsM1
	.byte W03
	.byte DnM1
	.byte W02
	.byte DsM1
	.byte W03
	.byte DsM1
	.byte W02
	.byte EnM1
	.byte W03
	.byte FnM1
	.byte W02
	.byte FnM1
	.byte W03
	.byte FsM1
	.byte W03
	.byte FsM1
	.byte W02
	.byte GnM1
	.byte W03
	.byte GsM1
	.byte W02
	.byte GsM1
	.byte W03
	.byte AnM1
	.byte W02
	.byte AsM1
	.byte W03
	.byte AsM1
	.byte W02
	.byte BnM1
	.byte W03
	.byte BnM1
	.byte W02
	.byte Cn0
	.byte W03
	.byte Cs0
	.byte W02
	.byte Cs0
	.byte W03
	.byte Dn0
	.byte W02
	.byte Ds0
	.byte W03
	.byte Ds0
	.byte W02
	.byte En0
	.byte W03
	.byte En0
	.byte W03
	.byte Fn0
	.byte W02
	.byte Fs0
	.byte W03
	.byte Fs0
	.byte W02
	.byte Gn0
	.byte W03
	.byte Gs0
	.byte W02
	.byte Gs0
	.byte W03
	.byte An0
	.byte W02
	.byte As0
	.byte W03
	.byte As0
	.byte W02
	.byte Bn0
	.byte W03
	.byte Bn0
	.byte W02
	.byte Cn1
	.byte W01
	.byte W84
	.byte EOT
	.byte W12
	.byte VOICE, 40
	.byte VOL, 27
	.byte TIE
	.byte As4, Cn3
	.byte W05
	.byte VOL, 26
	.byte W02
	.byte Cs0
	.byte W01
	.byte Cs0
	.byte W01
	.byte Cn0
	.byte W01
	.byte BnM1
	.byte W02
	.byte BnM1
	.byte W01
	.byte AsM1
	.byte W01
	.byte AsM1
	.byte W02
	.byte AnM1
	.byte W01
	.byte GsM1
	.byte W01
	.byte GsM1
	.byte W01
	.byte GnM1
	.byte W02
	.byte FsM1
	.byte W01
	.byte FsM1
	.byte W01
	.byte FnM1
	.byte W01
	.byte FnM1
	.byte W02
	.byte EnM1
	.byte W01
	.byte DsM1
	.byte W01
	.byte DsM1
	.byte W02
	.byte DnM1
	.byte W01
	.byte CsM1
	.byte W01
	.byte CsM1
	.byte W01
	.byte CnM1
	.byte W02
	.byte BnM2
	.byte W01
	.byte BnM2
	.byte W01
	.byte AsM2
	.byte W01
	.byte AsM2
	.byte W02
	.byte AnM2
	.byte W01
	.byte GsM2
	.byte W01
	.byte GsM2
	.byte W02
	.byte GnM2
	.byte W01
	.byte FsM2
	.byte W01
	.byte FsM2
	.byte W04
	.byte FnM2
	.byte W02
	.byte FsM2
	.byte W03
	.byte FsM2
	.byte W03
	.byte GnM2
	.byte W03
	.byte GsM2
	.byte W03
	.byte GsM2
	.byte W03
	.byte AnM2
	.byte W03
	.byte AsM2
	.byte W03
	.byte AsM2
	.byte W03
	.byte BnM2
	.byte W03
	.byte BnM2
	.byte W03
	.byte CnM1
	.byte W03
	.byte CsM1
	.byte W02
	.byte CsM1
	.byte W03
	.byte DnM1
	.byte W03
	.byte DsM1
	.byte W03
	.byte DsM1
	.byte W03
	.byte EnM1
	.byte W03
	.byte FnM1
	.byte W03
	.byte FnM1
	.byte W03
	.byte FsM1
	.byte W03
	.byte FsM1
	.byte W03
	.byte GnM1
	.byte W03
	.byte GsM1
	.byte W03
	.byte GsM1
	.byte W03
	.byte AnM1
	.byte W03
	.byte AsM1
	.byte W03
	.byte AsM1
	.byte W03
	.byte BnM1
	.byte W03
	.byte BnM1
	.byte W03
	.byte Cn0
	.byte W03
	.byte Cs0
	.byte W03
	.byte Cs0
	.byte W03
	.byte Dn0
	.byte W32
	.byte W01
	.byte EOT
	.byte W12
	.byte N36
	.byte Bn4, Gs4
	.byte W36
	.byte TIE
	.byte As4
	.byte W02
	.byte VOL, 25
	.byte W03
	.byte Cs0
	.byte W03
	.byte Cn0
	.byte W03
	.byte BnM1
	.byte W03
	.byte BnM1
	.byte W03
	.byte AsM1
	.byte W03
	.byte AsM1
	.byte W03
	.byte AnM1
	.byte W03
	.byte GsM1
	.byte W03
	.byte GsM1
	.byte W03
	.byte GnM1
	.byte W03
	.byte FsM1
	.byte W03
	.byte FsM1
	.byte W03
	.byte FnM1
	.byte W03
	.byte FnM1
	.byte W02
	.byte FnM1
	.byte W01
	.byte EnM1
	.byte W03
	.byte DsM1
	.byte W03
	.byte DsM1
	.byte W03
	.byte DnM1
	.byte W03
	.byte CsM1
	.byte W01
	.byte W02
	.byte CsM1
	.byte W03
	.byte CnM1
	.byte W03
	.byte BnM2
	.byte W03
	.byte BnM2
	.byte W03
	.byte AsM2
	.byte W03
	.byte AsM2
	.byte W03
	.byte AnM2
	.byte W03
	.byte GsM2
	.byte W03
	.byte GsM2
	.byte W03
	.byte GnM2
	.byte W03
	.byte FsM2
	.byte W03
	.byte FsM2
	.byte W03
	.byte FnM2
	.byte W03
	.byte FnM2
	.byte W03
	.byte EnM2
	.byte W03
	.byte DsM2
	.byte W03
	.byte DsM2
	.byte W03
	.byte DnM2
	.byte W03
	.byte CsM2
	.byte W03
	.byte CsM2
	.byte W01
	.byte EOT
	.byte W12
	.byte VOL, 45
	.byte N12
	.byte Bn3
	.byte W12
	.byte TIE
	.byte As3, Cn4
	.byte W12
	.byte W96
	.byte W72
	.byte EOT
	.byte W24
	.byte VOL, 31
	.byte N36
	.byte Bn4, En2
	.byte W36
	.byte N84
	.byte As4
	.byte W14
	.byte VOL, 31
	.byte W01
	.byte Fs0
	.byte W02
	.byte Fs0
	.byte W01
	.byte Fn0
	.byte W02
	.byte En0
	.byte W01
	.byte En0
	.byte W02
	.byte Ds0
	.byte W01
	.byte Ds0
	.byte W01
	.byte Ds0
	.byte W01
	.byte Dn0
	.byte W01
	.byte Cs0
	.byte W02
	.byte Cs0
	.byte W01
	.byte Cn0
	.byte W02
	.byte BnM1
	.byte W01
	.byte BnM1
	.byte W02
	.byte AsM1
	.byte W01
	.byte AsM1
	.byte W02
	.byte AnM1
	.byte W01
	.byte GsM1
	.byte W02
	.byte GsM1
	.byte W01
	.byte GnM1
	.byte W01
	.byte FsM1
	.byte W02
	.byte FsM1
	.byte W01
	.byte FnM1
	.byte W02
	.byte FnM1
	.byte W01
	.byte EnM1
	.byte W02
	.byte DsM1
	.byte W01
	.byte DsM1
	.byte W02
	.byte DnM1
	.byte W01
	.byte CsM1
	.byte W02
	.byte CsM1
	.byte W01
	.byte CnM1
	.byte W02
	.byte BnM2
	.byte W01
	.byte BnM2
	.byte W02
	.byte AsM2
	.byte W01
	.byte AsM2
	.byte W02
	.byte AnM2
	.byte W01
	.byte GsM2
	.byte W02
	.byte GsM2
	.byte W01
	.byte GnM2
	.byte W02
	.byte FsM2
	.byte W01
	.byte FsM2
	.byte W02
	.byte FnM2
	.byte W01
	.byte FnM2
	.byte W32
	.byte An1
	.byte N36
	.byte Bn3, Gs5
	.byte W36
	.byte N12
	.byte As3
	.byte W12
	.byte Cs4
	.byte W12
	.byte TIE
	.byte Dn4, Gs4
	.byte W84
	.byte W24
	.byte EOT
	.byte W24
	.byte N36
	.byte Bn3, Gs5
	.byte W36
	.byte N12
	.byte As3, Cn6
	.byte W12
	.byte Fn4, En4
	.byte W12
	.byte TIE
	.byte Fs4, Gs3
	.byte W40
	.byte VOL, 44
	.byte W01
	.byte Gn1
	.byte W01
	.byte Fs1
	.byte W02
	.byte Fs1
	.byte W01
	.byte Fn1
	.byte W01
	.byte En1
	.byte W01
	.byte En1
	.byte W02
	.byte Ds1
	.byte W01
	.byte Ds1
	.byte W01
	.byte Dn1
	.byte W01
	.byte Cs1
	.byte W01
	.byte Cs1
	.byte W02
	.byte Cn1
	.byte W01
	.byte Bn0
	.byte W01
	.byte Bn0
	.byte W01
	.byte As0
	.byte W02
	.byte As0
	.byte W01
	.byte An0
	.byte W01
	.byte Gs0
	.byte W01
	.byte Gs0
	.byte W02
	.byte Gn0
	.byte W01
	.byte Fs0
	.byte W01
	.byte Fs0
	.byte W01
	.byte Fn0
	.byte W01
	.byte En0
	.byte W02
	.byte En0
	.byte W01
	.byte Ds0
	.byte W01
	.byte Ds0
	.byte W01
	.byte Dn0
	.byte W02
	.byte Cs0
	.byte W01
	.byte Cs0
	.byte W01
	.byte Cn0
	.byte W01
	.byte BnM1
	.byte W02
	.byte BnM1
	.byte W01
	.byte AsM1
	.byte W01
	.byte AsM1
	.byte W01
	.byte AnM1
	.byte W01
	.byte GsM1
	.byte W02
	.byte GsM1
	.byte W01
	.byte GnM1
	.byte W01
	.byte FsM1
	.byte W01
	.byte FsM1
	.byte W02
	.byte FnM1
	.byte W01
	.byte FnM1
	.byte W01
	.byte EnM1
	.byte W01
	.byte DsM1
	.byte W02
	.byte DsM1
	.byte W01
	.byte DnM1
	.byte W01
	.byte CsM1
	.byte W32
	.byte W01
	.byte EOT
	.byte W36
	.byte VOL, 62
	.byte N12
	.byte Cn3, En6
	.byte W12
	.byte N84
	.byte Cs3, En5
	.byte W84
	.byte N92
	.byte Dn3, Cn4
	.byte W12
	.byte W84
	.byte TIE
	.byte Ds3, En5
	.byte W12
	.byte W96
	.byte EOT
	.byte W96
	.byte W96
	.byte VOICE, 41
	.byte VOL, 80
	.byte PAN, c_v
	.byte W48
	.byte N36
	.byte Fs3, Cn8
	.byte W36
	.byte TIE
	.byte Fn3, Gn8
	.byte W12
	.byte W96
	.byte W24
	.byte EOT
	.byte W24
	.byte N36
	.byte Dn3, Cn8
	.byte W36
	.byte TIE
	.byte Cs3, Gn8
	.byte W12
	.byte W96
	.byte W24
	.byte EOT
	.byte W36
	.byte VOL, 69
	.byte N06
	.byte As3, Gs5
	.byte N06
	.byte En4
	.byte N06
	.byte An4
	.byte W08
	.byte N12
	.byte As3, Cn3
	.byte N12
	.byte En4
	.byte N12
	.byte An4
	.byte W28
	.byte GOTO
		.word track_70_lbl_226093

	.byte FINE

track_70_1:
	.byte KEYSH, 0
	.byte VOICE, 41
	.byte VOL, 50
	.byte PAN, c_v-10
	.byte PRIO, 119
	.byte W96
	.byte W96
	.byte W48
	.byte VOL, 37
	.byte N36
	.byte Dn3, Gs5
	.byte W36
	.byte TIE
	.byte Cs3, Gs4
	.byte W12
	.byte W96
	.byte W24
	.byte EOT
	.byte W72
track_70_lbl_22659f:
	.byte W96
	.byte W96
	.byte W96
	.byte W48
	.byte N36
	.byte Dn3, Gs5
	.byte W36
	.byte TIE
	.byte Cs3, Gs4
	.byte W12
	.byte W96
	.byte W24
	.byte EOT
	.byte W72
	.byte VOICE, 40
	.byte VOL, 50
	.byte TIE
	.byte Ds3, Cn3
	.byte W96
	.byte W96
	.byte W96
	.byte W36
	.byte W03
	.byte EOT
	.byte W44
	.byte W01
	.byte TIE
	.byte Fs3, Gs4
	.byte W12
	.byte W96
	.byte W84
	.byte EOT
	.byte N84
	.byte Fn3
	.byte W12
	.byte W96
	.byte W84
	.byte TIE
	.byte Fs3, Cn3
	.byte W12
	.byte W90
	.byte VOL, 45
	.byte W02
	.byte An1
	.byte W02
	.byte As1
	.byte W01
	.byte Bn1
	.byte W01
	.byte W01
	.byte Bn1
	.byte W01
	.byte Cn2
	.byte W02
	.byte Cs2
	.byte W01
	.byte Cs2
	.byte W02
	.byte Dn2
	.byte W02
	.byte Ds2
	.byte W01
	.byte Ds2
	.byte W02
	.byte En2
	.byte W01
	.byte En2
	.byte W02
	.byte Fn2
	.byte W01
	.byte Fs2
	.byte W02
	.byte Fs2
	.byte W01
	.byte Gn2
	.byte W02
	.byte Gs2
	.byte W02
	.byte Gs2
	.byte W01
	.byte An2
	.byte W02
	.byte An2
	.byte W01
	.byte As2
	.byte W02
	.byte Bn2
	.byte W01
	.byte Bn2
	.byte W02
	.byte Cn3
	.byte W01
	.byte Cs3
	.byte W02
	.byte Cs3
	.byte W02
	.byte Dn3
	.byte W01
	.byte Dn3
	.byte W02
	.byte Ds3
	.byte W01
	.byte En3
	.byte W02
	.byte En3
	.byte W01
	.byte Fn3
	.byte W02
	.byte Fs3
	.byte W01
	.byte Fs3
	.byte W02
	.byte Gn3
	.byte W02
	.byte Gs3
	.byte W01
	.byte Gs3
	.byte W02
	.byte An3
	.byte W01
	.byte An3
	.byte W02
	.byte As3
	.byte W01
	.byte Bn3
	.byte W02
	.byte Bn3
	.byte W01
	.byte Cn4
	.byte W02
	.byte Cs4
	.byte W02
	.byte Cs4
	.byte W01
	.byte Dn4
	.byte W02
	.byte Dn4
	.byte W01
	.byte Ds4
	.byte W02
	.byte En4
	.byte W01
	.byte En4
	.byte W12
	.byte EOT
	.byte TIE
	.byte Gn3, En2
	.byte W12
	.byte W96
	.byte W84
	.byte EOT
	.byte W12
	.byte VOICE, 40
	.byte VOL, 21
	.byte TIE
	.byte Gn4, Gs1
	.byte W04
	.byte VOL, 20
	.byte W06
	.byte GsM1
	.byte W06
	.byte GnM1
	.byte W07
	.byte FsM1
	.byte W06
	.byte FsM1
	.byte W07
	.byte FnM1
	.byte W06
	.byte FnM1
	.byte W06
	.byte EnM1
	.byte W07
	.byte DsM1
	.byte W06
	.byte DsM1
	.byte W06
	.byte DnM1
	.byte W07
	.byte CsM1
	.byte W06
	.byte CsM1
	.byte W06
	.byte CnM1
	.byte W07
	.byte BnM2
	.byte W03
	.byte W03
	.byte BnM2
	.byte W07
	.byte AsM2
	.byte W06
	.byte AsM2
	.byte W06
	.byte AnM2
	.byte W07
	.byte GsM2
	.byte W06
	.byte GsM2
	.byte W06
	.byte GnM2
	.byte W07
	.byte FsM2
	.byte W06
	.byte FsM2
	.byte W06
	.byte EOT
	.byte W01
	.byte VOL, 5
	.byte W06
	.byte FnM2
	.byte W28
	.byte W01
	.byte AnM1
	.byte TIE
	.byte Gn3, En2
	.byte W01
	.byte VOL, 22
	.byte W03
	.byte AsM1
	.byte W03
	.byte BnM1
	.byte W03
	.byte BnM1
	.byte W04
	.byte Cn0
	.byte W03
	.byte Cs0
	.byte W03
	.byte Cs0
	.byte W03
	.byte Dn0
	.byte W03
	.byte Ds0
	.byte W03
	.byte Ds0
	.byte W03
	.byte En0
	.byte W03
	.byte En0
	.byte W03
	.byte Fn0
	.byte W04
	.byte Fs0
	.byte W03
	.byte Fs0
	.byte W03
	.byte Gn0
	.byte W03
	.byte Gs0
	.byte W03
	.byte Gs0
	.byte W03
	.byte An0
	.byte W03
	.byte As0
	.byte W03
	.byte As0
	.byte W04
	.byte Bn0
	.byte W03
	.byte Bn0
	.byte W03
	.byte Cn1
	.byte W03
	.byte Cs1
	.byte W03
	.byte Cs1
	.byte W03
	.byte Dn1
	.byte W03
	.byte Ds1
	.byte W03
	.byte Ds1
	.byte W04
	.byte En1
	.byte W03
	.byte En1
	.byte W01
	.byte W02
	.byte Fn1
	.byte W03
	.byte Fs1
	.byte W03
	.byte Fs1
	.byte W03
	.byte Gn1
	.byte W03
	.byte Gs1
	.byte W03
	.byte Gs1
	.byte W03
	.byte An1
	.byte W04
	.byte An1
	.byte W03
	.byte As1
	.byte W03
	.byte Bn1
	.byte W03
	.byte Bn1
	.byte W36
	.byte W03
	.byte EOT
	.byte W24
	.byte W96
	.byte W96
	.byte W96
	.byte VOICE, 40
	.byte VOL, 18
	.byte N96
	.byte Fn4
	.byte W01
	.byte VOL, 18
	.byte W01
	.byte GnM1
	.byte W02
	.byte GsM1
	.byte W01
	.byte GsM1
	.byte W01
	.byte AnM1
	.byte W02
	.byte AsM1
	.byte W01
	.byte AsM1
	.byte W01
	.byte BnM1
	.byte W01
	.byte BnM1
	.byte W02
	.byte Cn0
	.byte W01
	.byte Cs0
	.byte W01
	.byte Cs0
	.byte W02
	.byte Dn0
	.byte W01
	.byte Ds0
	.byte W01
	.byte Ds0
	.byte W01
	.byte En0
	.byte W01
	.byte En0
	.byte W01
	.byte En0
	.byte W01
	.byte Fn0
	.byte W01
	.byte Fs0
	.byte W02
	.byte Fs0
	.byte W01
	.byte Gn0
	.byte W01
	.byte Gs0
	.byte W01
	.byte Gs0
	.byte W02
	.byte An0
	.byte W01
	.byte As0
	.byte W01
	.byte As0
	.byte W02
	.byte Bn0
	.byte W01
	.byte Bn0
	.byte W01
	.byte Cn1
	.byte W01
	.byte Cs1
	.byte W03
	.byte Ds1
	.byte W01
	.byte Dn1
	.byte W01
	.byte Cs1
	.byte W01
	.byte Cs1
	.byte W01
	.byte Cn1
	.byte W01
	.byte Bn0
	.byte W01
	.byte Bn0
	.byte W01
	.byte As0
	.byte W01
	.byte As0
	.byte W01
	.byte An0
	.byte W01
	.byte Gs0
	.byte W01
	.byte Gs0
	.byte W01
	.byte Gn0
	.byte W01
	.byte Fs0
	.byte W01
	.byte Fs0
	.byte W01
	.byte Fn0
	.byte W01
	.byte En0
	.byte W01
	.byte En0
	.byte W01
	.byte Ds0
	.byte W01
	.byte Ds0
	.byte W01
	.byte Dn0
	.byte W01
	.byte Cs0
	.byte W01
	.byte Cs0
	.byte W01
	.byte Cn0
	.byte W01
	.byte BnM1
	.byte W01
	.byte BnM1
	.byte W01
	.byte AsM1
	.byte W01
	.byte AsM1
	.byte W01
	.byte AnM1
	.byte W01
	.byte GsM1
	.byte W01
	.byte GsM1
	.byte W01
	.byte GnM1
	.byte W01
	.byte FsM1
	.byte W01
	.byte FsM1
	.byte W02
	.byte FnM1
	.byte W01
	.byte FnM1
	.byte W01
	.byte EnM1
	.byte W01
	.byte DsM1
	.byte W01
	.byte DsM1
	.byte W01
	.byte DnM1
	.byte W01
	.byte CsM1
	.byte W01
	.byte CsM1
	.byte W01
	.byte CnM1
	.byte W01
	.byte BnM2
	.byte W01
	.byte BnM2
	.byte W01
	.byte AsM2
	.byte W01
	.byte AsM2
	.byte W01
	.byte AnM2
	.byte W01
	.byte GsM2
	.byte W01
	.byte GsM2
	.byte W01
	.byte GnM2
	.byte W01
	.byte FsM2
	.byte W03
	.byte VOICE, 19
	.byte VOL, 44
	.byte TIE
	.byte As2
	.byte W96
	.byte W72
	.byte EOT
	.byte W24
	.byte VOICE, 19
	.byte VOL, 25
	.byte N84
	.byte Cs3
	.byte W96
	.byte W96
	.byte VOICE, 40
	.byte VOL, 1
	.byte TIE
	.byte As4, Gs2
	.byte W03
	.byte VOL, 1
	.byte W02
	.byte DnM2
	.byte W02
	.byte DsM2
	.byte W02
	.byte DsM2
	.byte W03
	.byte EnM2
	.byte W02
	.byte FnM2
	.byte W02
	.byte FnM2
	.byte W02
	.byte FsM2
	.byte W03
	.byte FsM2
	.byte W02
	.byte GnM2
	.byte W02
	.byte GsM2
	.byte W02
	.byte GsM2
	.byte W02
	.byte AnM2
	.byte W03
	.byte AsM2
	.byte W02
	.byte AsM2
	.byte W02
	.byte BnM2
	.byte W02
	.byte BnM2
	.byte W03
	.byte CnM1
	.byte W02
	.byte CsM1
	.byte W02
	.byte CsM1
	.byte W02
	.byte DnM1
	.byte W03
	.byte DsM1
	.byte W02
	.byte DsM1
	.byte W02
	.byte EnM1
	.byte W02
	.byte FnM1
	.byte W03
	.byte FnM1
	.byte W02
	.byte FsM1
	.byte W02
	.byte FsM1
	.byte W02
	.byte GnM1
	.byte W02
	.byte GsM1
	.byte W03
	.byte GsM1
	.byte W02
	.byte AnM1
	.byte W02
	.byte AsM1
	.byte W02
	.byte AsM1
	.byte W03
	.byte BnM1
	.byte W02
	.byte BnM1
	.byte W02
	.byte Cn0
	.byte W02
	.byte Cs0
	.byte W03
	.byte Cs0
	.byte W02
	.byte Dn0
	.byte W02
	.byte Ds0
	.byte W02
	.byte Ds0
	.byte W02
	.byte W01
	.byte En0
	.byte W02
	.byte En0
	.byte W01
	.byte Ds0
	.byte W01
	.byte Cs0
	.byte W01
	.byte Cn0
	.byte W01
	.byte BnM1
	.byte W01
	.byte BnM1
	.byte W01
	.byte AsM1
	.byte W01
	.byte AsM1
	.byte W02
	.byte AnM1
	.byte W01
	.byte GsM1
	.byte W01
	.byte GsM1
	.byte W01
	.byte GnM1
	.byte W01
	.byte FsM1
	.byte W01
	.byte FsM1
	.byte W01
	.byte FnM1
	.byte W01
	.byte FnM1
	.byte W01
	.byte EnM1
	.byte W02
	.byte DsM1
	.byte W01
	.byte DsM1
	.byte W01
	.byte DnM1
	.byte W01
	.byte CsM1
	.byte W01
	.byte CsM1
	.byte W01
	.byte CnM1
	.byte W01
	.byte BnM2
	.byte W01
	.byte BnM2
	.byte W01
	.byte AsM2
	.byte W01
	.byte AsM2
	.byte W01
	.byte AsM2
	.byte W01
	.byte AnM2
	.byte W01
	.byte GsM2
	.byte W01
	.byte GsM2
	.byte W01
	.byte GnM2
	.byte W01
	.byte FsM2
	.byte W01
	.byte FsM2
	.byte W01
	.byte FnM2
	.byte W01
	.byte FnM2
	.byte W01
	.byte FnM2
	.byte W07
	.byte EOT
	.byte W48
	.byte W96
	.byte W96
	.byte W96
	.byte W48
	.byte VOICE, 41
	.byte VOL, 37
	.byte N36
	.byte Dn3, Gs5
	.byte W36
	.byte TIE
	.byte Cs3, Gs4
	.byte W12
	.byte W96
	.byte W24
	.byte EOT
	.byte W72
	.byte GOTO
		.word track_70_lbl_22659f

	.byte FINE

track_70_2:
	.byte KEYSH, 0
	.byte VOICE, 44
	.byte VOL, 37
	.byte PAN, c_v+10
	.byte PRIO, 118
	.byte W96
track_70_lbl_226874:
	.byte VOICE, 44
	.byte VOL, 37
	.byte TIE
	.byte Ds4, Cn3
	.byte W96
	.byte PEND
	.byte W96
	.byte EOT
track_70_lbl_22687f:
	.byte N12
	.byte Ds3, Cn7
	.byte W12
	.byte Ds3, En6
	.byte W84
	.byte PEND
	.byte W96
track_70_lbl_226888:
	.byte TIE
	.byte Ds4, Cn3
	.byte W96
	.byte W96
	.byte EOT
	.byte TIE
	.byte W96
	.byte W96
	.byte EOT
	.byte W12
	.byte N12
	.byte Ds3, En7
	.byte W84
	.byte W96
	.byte PATT
		.word track_70_lbl_226874
	.byte W96
	.byte EOT, Ds4
	.byte W96
	.byte W96
	.byte PATT
		.word track_70_lbl_226874
	.byte W96
	.byte EOT, Ds4
	.byte W96
	.byte W96
	.byte PATT
		.word track_70_lbl_226874
	.byte W96
	.byte EOT, Ds4
	.byte TIE
	.byte Ds4, Cn3
	.byte W96
	.byte W84
	.byte EOT
	.byte W12
	.byte TIE
	.byte W96
	.byte W96
	.byte EOT
	.byte N06
	.byte Ds4, Cn7
	.byte W12
	.byte Ds4, Gs6
	.byte W72
	.byte N12
	.byte Cs4, En6
	.byte W12
	.byte N07
	.byte Ds4, Gs5
	.byte W12
	.byte N06
	.byte W48
	.byte N30
	.byte Fs4, En6
	.byte W36
	.byte VOICE, 44
	.byte VOL, 37
	.byte N07
	.byte Ds4
	.byte W12
	.byte N11
	.byte Ds4, Cn6
	.byte W48
	.byte N36
	.byte En4
	.byte W36
	.byte N07
	.byte Ds4, En6
	.byte W12
	.byte N24
	.byte Ds4, En5
	.byte W48
	.byte N24
	.byte W36
	.byte PATT
		.word track_70_lbl_226874
	.byte W96
	.byte EOT, Ds4
	.byte W96
	.byte VOICE, 19
	.byte VOL, 25
	.byte N60
	.byte Dn3, En2
	.byte W96
	.byte PATT
		.word track_70_lbl_226874
	.byte W96
	.byte EOT, Ds4
	.byte TIE
	.byte Ds4, Cn3
	.byte W96
	.byte W96
	.byte EOT
	.byte W96
	.byte W96
	.byte PATT
		.word track_70_lbl_226874
	.byte W96
	.byte EOT, Ds4
	.byte PATT
		.word track_70_lbl_22687f
	.byte W96
	.byte GOTO
		.word track_70_lbl_226888

	.byte FINE

track_70_3:
	.byte KEYSH, 0
	.byte PAN, c_v+24
	.byte PRIO, 30
	.byte W96
	.byte W96
	.byte W96
	.byte W96
	.byte W96
track_70_lbl_22692c:
	.byte W96
	.byte W96
	.byte W96
	.byte W96
	.byte W96
	.byte W96
	.byte VOICE, 19
	.byte VOL, 25
	.byte TIE
	.byte As2, En2
	.byte W96
	.byte W96
	.byte W96
	.byte W36
	.byte W03
	.byte EOT
	.byte W56
	.byte W01
	.byte VOICE, 19
	.byte VOL, 6
	.byte TIE
	.byte Gs2
	.byte W03
	.byte VOL, 12
	.byte W02
	.byte CsM1
	.byte W02
	.byte CsM1
	.byte W03
	.byte DnM1
	.byte W02
	.byte DsM1
	.byte W03
	.byte DsM1
	.byte W02
	.byte EnM1
	.byte W02
	.byte FnM1
	.byte W03
	.byte FnM1
	.byte W02
	.byte FsM1
	.byte W02
	.byte FsM1
	.byte W03
	.byte GnM1
	.byte W02
	.byte GsM1
	.byte W02
	.byte GsM1
	.byte W03
	.byte AnM1
	.byte W02
	.byte AsM1
	.byte W03
	.byte AsM1
	.byte W02
	.byte BnM1
	.byte W02
	.byte BnM1
	.byte W03
	.byte Cn0
	.byte W02
	.byte Cs0
	.byte W02
	.byte Cs0
	.byte W03
	.byte Dn0
	.byte W02
	.byte Ds0
	.byte W02
	.byte Ds0
	.byte W03
	.byte En0
	.byte W02
	.byte En0
	.byte W03
	.byte Fn0
	.byte W02
	.byte Fs0
	.byte W02
	.byte Fs0
	.byte W03
	.byte Gn0
	.byte W02
	.byte Gs0
	.byte W02
	.byte Gs0
	.byte W03
	.byte An0
	.byte W02
	.byte As0
	.byte W02
	.byte As0
	.byte W03
	.byte Bn0
	.byte W02
	.byte Bn0
	.byte W03
	.byte Cn1
	.byte W02
	.byte Cs1
	.byte W01
	.byte W01
	.byte Cs1
	.byte W03
	.byte Dn1
	.byte W02
	.byte Ds1
	.byte W02
	.byte Ds1
	.byte W03
	.byte En1
	.byte W02
	.byte En1
	.byte W02
	.byte Fn1
	.byte W03
	.byte Fs1
	.byte W02
	.byte Fs1
	.byte W03
	.byte Gn1
	.byte W02
	.byte Gs1
	.byte W02
	.byte Gs1
	.byte W03
	.byte An1
	.byte W02
	.byte An1
	.byte W02
	.byte As1
	.byte W03
	.byte Bn1
	.byte W02
	.byte Bn1
	.byte W02
	.byte Cn2
	.byte W03
	.byte Cs2
	.byte W02
	.byte Cs2
	.byte W03
	.byte Dn2
	.byte W02
	.byte Ds2
	.byte W02
	.byte Ds2
	.byte W03
	.byte En2
	.byte W02
	.byte En2
	.byte W02
	.byte Fn2
	.byte W03
	.byte Fs2
	.byte W02
	.byte Fs2
	.byte W02
	.byte Gn2
	.byte W03
	.byte Gs2
	.byte W02
	.byte Gs2
	.byte W03
	.byte An2
	.byte W02
	.byte Gs2
	.byte W02
	.byte Gs2
	.byte W02
	.byte Gn2
	.byte W01
	.byte Fs2
	.byte W02
	.byte EOT
	.byte VOL, 54
	.byte TIE
	.byte Gn2, En1
	.byte W02
	.byte VOL, 53
	.byte W02
	.byte En2
	.byte W01
	.byte En2
	.byte W02
	.byte Ds2
	.byte W02
	.byte Ds2
	.byte W02
	.byte Dn2
	.byte W01
	.byte Cs2
	.byte W02
	.byte Cs2
	.byte W02
	.byte Cn2
	.byte W02
	.byte Bn1
	.byte W02
	.byte Bn1
	.byte W01
	.byte As1
	.byte W02
	.byte An1
	.byte W02
	.byte An1
	.byte W02
	.byte Gs1
	.byte W01
	.byte Gs1
	.byte W02
	.byte Gn1
	.byte W02
	.byte Fs1
	.byte W02
	.byte Fs1
	.byte W01
	.byte Fn1
	.byte W02
	.byte En1
	.byte W02
	.byte En1
	.byte W02
	.byte Ds1
	.byte W01
	.byte Ds1
	.byte W02
	.byte Dn1
	.byte W02
	.byte Cs1
	.byte W02
	.byte Cs1
	.byte W01
	.byte Cn1
	.byte W02
	.byte Bn0
	.byte W02
	.byte Bn0
	.byte W02
	.byte As0
	.byte W01
	.byte As0
	.byte W02
	.byte An0
	.byte W02
	.byte Gs0
	.byte W02
	.byte Gs0
	.byte W01
	.byte Gn0
	.byte W02
	.byte Fs0
	.byte W02
	.byte Fs0
	.byte W02
	.byte Fn0
	.byte W01
	.byte En0
	.byte W02
	.byte En0
	.byte W02
	.byte Ds0
	.byte W02
	.byte Ds0
	.byte W02
	.byte Dn0
	.byte W01
	.byte Cs0
	.byte W02
	.byte Cs0
	.byte W02
	.byte Cn0
	.byte W02
	.byte BnM1
	.byte W01
	.byte BnM1
	.byte W02
	.byte AsM1
	.byte W02
	.byte AsM1
	.byte W02
	.byte AnM1
	.byte W01
	.byte GsM1
	.byte W02
	.byte GsM1
	.byte W02
	.byte GnM1
	.byte W02
	.byte FsM1
	.byte W01
	.byte FsM1
	.byte W02
	.byte FnM1
	.byte W02
	.byte FnM1
	.byte W02
	.byte EnM1
	.byte W01
	.byte DsM1
	.byte W01
	.byte W01
	.byte DsM1
	.byte W02
	.byte DnM1
	.byte W02
	.byte CsM1
	.byte W01
	.byte CsM1
	.byte W02
	.byte CnM1
	.byte W02
	.byte BnM2
	.byte W02
	.byte BnM2
	.byte W01
	.byte AsM2
	.byte W02
	.byte AsM2
	.byte W02
	.byte AnM2
	.byte W02
	.byte GsM2
	.byte W02
	.byte GsM2
	.byte W01
	.byte GnM2
	.byte W02
	.byte EOT
	.byte W72
	.byte VOICE, 19
	.byte VOL, 25
	.byte TIE
	.byte Gs2, En2
	.byte W02
	.byte VOL, 13
	.byte W02
	.byte CsM1
	.byte W03
	.byte DnM1
	.byte W02
	.byte DsM1
	.byte W03
	.byte DsM1
	.byte W02
	.byte EnM1
	.byte W03
	.byte FnM1
	.byte W02
	.byte FnM1
	.byte W03
	.byte FsM1
	.byte W03
	.byte FsM1
	.byte W02
	.byte GnM1
	.byte W03
	.byte GsM1
	.byte W02
	.byte GsM1
	.byte W03
	.byte AnM1
	.byte W02
	.byte AsM1
	.byte W03
	.byte AsM1
	.byte W02
	.byte BnM1
	.byte W03
	.byte BnM1
	.byte W02
	.byte Cn0
	.byte W03
	.byte Cs0
	.byte W02
	.byte Cs0
	.byte W03
	.byte Dn0
	.byte W02
	.byte Ds0
	.byte W03
	.byte Ds0
	.byte W02
	.byte En0
	.byte W03
	.byte En0
	.byte W03
	.byte Fn0
	.byte W02
	.byte Fs0
	.byte W03
	.byte Fs0
	.byte W02
	.byte Gn0
	.byte W03
	.byte Gs0
	.byte W02
	.byte Gs0
	.byte W03
	.byte An0
	.byte W02
	.byte As0
	.byte W03
	.byte As0
	.byte W02
	.byte Bn0
	.byte W03
	.byte Bn0
	.byte W02
	.byte Cn1
	.byte W01
	.byte W02
	.byte Cs1
	.byte W02
	.byte Cs1
	.byte W03
	.byte Dn1
	.byte W03
	.byte Ds1
	.byte W02
	.byte Ds1
	.byte W03
	.byte En1
	.byte W02
	.byte En1
	.byte W03
	.byte Fn1
	.byte W02
	.byte Fs1
	.byte W03
	.byte Fs1
	.byte W02
	.byte Gn1
	.byte W03
	.byte Gs1
	.byte W02
	.byte Gs1
	.byte W03
	.byte An1
	.byte W02
	.byte An1
	.byte W03
	.byte As1
	.byte W02
	.byte Bn1
	.byte W03
	.byte Bn1
	.byte W02
	.byte Cn2
	.byte W03
	.byte Cs2
	.byte W03
	.byte Cs2
	.byte W02
	.byte Dn2
	.byte W03
	.byte Bn1
	.byte W01
	.byte Bn1
	.byte W02
	.byte As1
	.byte W02
	.byte An1
	.byte W02
	.byte An1
	.byte W02
	.byte Gs1
	.byte W02
	.byte Gs1
	.byte W02
	.byte Gn1
	.byte W02
	.byte Fs1
	.byte W02
	.byte Fs1
	.byte W03
	.byte Fn1
	.byte W02
	.byte En1
	.byte W02
	.byte En1
	.byte W02
	.byte EOT
	.byte VOL, 39
	.byte N96
	.byte As2, Gs0
	.byte N96
	.byte Ds3
	.byte W02
	.byte VOL, 39
	.byte W02
	.byte Dn1
	.byte W02
	.byte Cs1
	.byte W02
	.byte Cs1
	.byte W02
	.byte Cn1
	.byte W02
	.byte Bn0
	.byte W03
	.byte Bn0
	.byte W02
	.byte As0
	.byte W02
	.byte As0
	.byte W02
	.byte An0
	.byte W02
	.byte Gs0
	.byte W02
	.byte Gs0
	.byte W02
	.byte Gn0
	.byte W02
	.byte Fs0
	.byte W02
	.byte Fs0
	.byte W03
	.byte Fn0
	.byte W02
	.byte En0
	.byte W02
	.byte En0
	.byte W02
	.byte Ds0
	.byte W02
	.byte Ds0
	.byte W02
	.byte Dn0
	.byte W02
	.byte Cs0
	.byte W02
	.byte Cs0
	.byte W02
	.byte Cn0
	.byte W03
	.byte BnM1
	.byte W02
	.byte BnM1
	.byte W02
	.byte AsM1
	.byte W02
	.byte AsM1
	.byte W02
	.byte AnM1
	.byte W02
	.byte GsM1
	.byte W02
	.byte GsM1
	.byte W02
	.byte GnM1
	.byte W02
	.byte FsM1
	.byte W02
	.byte FsM1
	.byte W03
	.byte FnM1
	.byte W02
	.byte FnM1
	.byte W02
	.byte EnM1
	.byte W02
	.byte DsM1
	.byte W02
	.byte DsM1
	.byte W02
	.byte DnM1
	.byte W02
	.byte CsM1
	.byte W02
	.byte CsM1
	.byte W02
	.byte CnM1
	.byte W03
	.byte BnM2
	.byte W02
	.byte BnM2
	.byte W02
	.byte AsM2
	.byte W02
	.byte AsM2
	.byte W02
	.byte AnM2
	.byte W02
	.byte GsM2
	.byte W02
	.byte GsM2
	.byte W02
	.byte GnM2
	.byte W01
	.byte VOICE, 40
	.byte VOL, 2
	.byte N84
	.byte Gn4, Gs2
	.byte W02
	.byte VOL, 3
	.byte W02
	.byte DsM2
	.byte W02
	.byte EnM2
	.byte W01
	.byte FnM2
	.byte W02
	.byte FnM2
	.byte W01
	.byte FsM2
	.byte W02
	.byte FsM2
	.byte W01
	.byte GnM2
	.byte W02
	.byte GsM2
	.byte W02
	.byte GsM2
	.byte W01
	.byte AnM2
	.byte W02
	.byte AsM2
	.byte W01
	.byte AsM2
	.byte W02
	.byte BnM2
	.byte W02
	.byte BnM2
	.byte W01
	.byte CnM1
	.byte W02
	.byte CsM1
	.byte W01
	.byte CsM1
	.byte W02
	.byte DnM1
	.byte W01
	.byte DsM1
	.byte W02
	.byte DsM1
	.byte W02
	.byte EnM1
	.byte W01
	.byte FnM1
	.byte W02
	.byte FnM1
	.byte W01
	.byte FsM1
	.byte W02
	.byte FsM1
	.byte W01
	.byte GnM1
	.byte W02
	.byte GsM1
	.byte W02
	.byte GsM1
	.byte W01
	.byte AnM1
	.byte W02
	.byte AsM1
	.byte W01
	.byte AsM1
	.byte W02
	.byte BnM1
	.byte W02
	.byte BnM1
	.byte W01
	.byte Cn0
	.byte W02
	.byte Cs0
	.byte W01
	.byte Cs0
	.byte W02
	.byte Dn0
	.byte W01
	.byte Ds0
	.byte W02
	.byte Ds0
	.byte W02
	.byte En0
	.byte W01
	.byte En0
	.byte W02
	.byte Fn0
	.byte W01
	.byte Fs0
	.byte W02
	.byte Fs0
	.byte W01
	.byte Gn0
	.byte W02
	.byte Gs0
	.byte W02
	.byte Gs0
	.byte W01
	.byte An0
	.byte W02
	.byte As0
	.byte W01
	.byte As0
	.byte W02
	.byte Bn0
	.byte W02
	.byte Bn0
	.byte W01
	.byte Cn1
	.byte W02
	.byte Cs1
	.byte W01
	.byte Cs1
	.byte W02
	.byte Dn1
	.byte W01
	.byte Ds1
	.byte W04
	.byte VOICE, 40
	.byte VOL, 21
	.byte TIE
	.byte Ds4, Cn1
	.byte W04
	.byte VOL, 20
	.byte W06
	.byte GsM1
	.byte W06
	.byte GnM1
	.byte W07
	.byte FsM1
	.byte W06
	.byte FsM1
	.byte W07
	.byte FnM1
	.byte W06
	.byte FnM1
	.byte W06
	.byte EnM1
	.byte W07
	.byte DsM1
	.byte W06
	.byte DsM1
	.byte W06
	.byte DnM1
	.byte W07
	.byte CsM1
	.byte W06
	.byte CsM1
	.byte W06
	.byte CnM1
	.byte W07
	.byte BnM2
	.byte W03
	.byte W03
	.byte BnM2
	.byte W07
	.byte AsM2
	.byte W06
	.byte AsM2
	.byte W06
	.byte AnM2
	.byte W07
	.byte GsM2
	.byte W06
	.byte GsM2
	.byte W06
	.byte GnM2
	.byte W07
	.byte FsM2
	.byte W06
	.byte FsM2
	.byte W06
	.byte EOT
	.byte W01
	.byte VOL, 5
	.byte W06
	.byte FnM2
	.byte W28
	.byte W01
	.byte AnM1
	.byte TIE
	.byte Ds3, En2
	.byte W01
	.byte VOL, 22
	.byte W03
	.byte AsM1
	.byte W03
	.byte BnM1
	.byte W03
	.byte BnM1
	.byte W04
	.byte Cn0
	.byte W03
	.byte Cs0
	.byte W03
	.byte Cs0
	.byte W03
	.byte Dn0
	.byte W03
	.byte Ds0
	.byte W03
	.byte Ds0
	.byte W03
	.byte En0
	.byte W03
	.byte En0
	.byte W03
	.byte Fn0
	.byte W04
	.byte Fs0
	.byte W03
	.byte Fs0
	.byte W03
	.byte Gn0
	.byte W03
	.byte Gs0
	.byte W03
	.byte Gs0
	.byte W03
	.byte An0
	.byte W03
	.byte As0
	.byte W03
	.byte As0
	.byte W04
	.byte Bn0
	.byte W03
	.byte Bn0
	.byte W03
	.byte Cn1
	.byte W03
	.byte Cs1
	.byte W03
	.byte Cs1
	.byte W03
	.byte Dn1
	.byte W03
	.byte Ds1
	.byte W03
	.byte Ds1
	.byte W04
	.byte En1
	.byte W03
	.byte En1
	.byte W01
	.byte W02
	.byte Fn1
	.byte W03
	.byte Fs1
	.byte W03
	.byte Fs1
	.byte W03
	.byte Gn1
	.byte W03
	.byte Gs1
	.byte W03
	.byte Gs1
	.byte W03
	.byte An1
	.byte W04
	.byte An1
	.byte W03
	.byte As1
	.byte W03
	.byte Bn1
	.byte W03
	.byte Bn1
	.byte W36
	.byte W03
	.byte EOT
	.byte W24
	.byte VOL, 31
	.byte TIE
	.byte Ds4
	.byte TIE
	.byte Gn4
	.byte W54
	.byte VOL, 30
	.byte W01
	.byte Fs0
	.byte W01
	.byte Fn0
	.byte W01
	.byte En0
	.byte W01
	.byte En0
	.byte W01
	.byte Ds0
	.byte W01
	.byte Ds0
	.byte W01
	.byte Dn0
	.byte W01
	.byte Cs0
	.byte W02
	.byte Cs0
	.byte W01
	.byte Cn0
	.byte W01
	.byte BnM1
	.byte W01
	.byte BnM1
	.byte W01
	.byte AsM1
	.byte W01
	.byte AsM1
	.byte W01
	.byte AnM1
	.byte W01
	.byte GsM1
	.byte W01
	.byte GsM1
	.byte W01
	.byte GnM1
	.byte W01
	.byte FsM1
	.byte W01
	.byte FsM1
	.byte W01
	.byte FnM1
	.byte W01
	.byte FnM1
	.byte W01
	.byte EnM1
	.byte W01
	.byte DsM1
	.byte W01
	.byte DsM1
	.byte W01
	.byte DsM1
	.byte W01
	.byte DnM1
	.byte W01
	.byte CsM1
	.byte W01
	.byte CsM1
	.byte W01
	.byte CnM1
	.byte W01
	.byte BnM2
	.byte W01
	.byte BnM2
	.byte W01
	.byte AsM2
	.byte W01
	.byte AsM2
	.byte W01
	.byte AnM2
	.byte W01
	.byte GsM2
	.byte W01
	.byte GsM2
	.byte W01
	.byte GnM2
	.byte W01
	.byte FsM2
	.byte W01
	.byte FsM2
	.byte W01
	.byte W96
	.byte EOT, Ds4
	.byte Gn4
	.byte VOL, 31
	.byte N96
	.byte Ds3, En4
	.byte TIE
	.byte Fs3, Gs3
	.byte W96
	.byte W96
	.byte EOT
	.byte VOICE, 19
	.byte VOL, 44
	.byte TIE
	.byte Ds2, En2
	.byte W96
	.byte W72
	.byte EOT
	.byte W24
	.byte VOICE, 19
	.byte VOL, 25
	.byte N84
	.byte Gs2
	.byte W84
	.byte TIE
	.byte Dn3
	.byte W12
	.byte W32
	.byte W03
	.byte VOL, 24
	.byte W02
	.byte BnM1
	.byte W03
	.byte BnM1
	.byte W03
	.byte AsM1
	.byte W02
	.byte AsM1
	.byte W03
	.byte AnM1
	.byte W03
	.byte GsM1
	.byte W03
	.byte GsM1
	.byte W03
	.byte GnM1
	.byte W03
	.byte FsM1
	.byte W03
	.byte FsM1
	.byte W02
	.byte FnM1
	.byte W03
	.byte FnM1
	.byte W03
	.byte EnM1
	.byte W03
	.byte DsM1
	.byte W03
	.byte DsM1
	.byte W03
	.byte DnM1
	.byte W03
	.byte CsM1
	.byte W02
	.byte CsM1
	.byte W03
	.byte CnM1
	.byte W03
	.byte BnM2
	.byte W03
	.byte BnM2
	.byte W02
	.byte W01
	.byte AsM2
	.byte W03
	.byte AsM2
	.byte W03
	.byte AnM2
	.byte W02
	.byte GsM2
	.byte W03
	.byte GsM2
	.byte W03
	.byte GnM2
	.byte W03
	.byte FsM2
	.byte W03
	.byte FsM2
	.byte W03
	.byte FnM2
	.byte W03
	.byte FnM2
	.byte W02
	.byte EnM2
	.byte W03
	.byte DsM2
	.byte W03
	.byte DsM2
	.byte W03
	.byte DnM2
	.byte W10
	.byte EOT
	.byte W48
	.byte W96
	.byte W96
	.byte W96
	.byte W96
	.byte W96
	.byte W96
	.byte W96
	.byte GOTO
		.word track_70_lbl_22692c

	.byte FINE

track_70_4:
	.byte KEYSH, 0
	.byte PAN, c_v-10
	.byte PRIO, 29
	.byte W96
	.byte W96
	.byte W96
	.byte W96
	.byte W96
track_70_lbl_226d8e:
	.byte W96
	.byte W96
	.byte W96
	.byte W96
	.byte W96
	.byte W96
	.byte W96
	.byte W96
	.byte W96
	.byte W96
	.byte W96
	.byte W96
	.byte W96
	.byte W96
	.byte W96
	.byte W96
	.byte W96
	.byte VOICE, 40
	.byte VOL, 2
	.byte N84
	.byte Ds4, Gs2
	.byte W02
	.byte VOL, 3
	.byte W02
	.byte DsM2
	.byte W02
	.byte EnM2
	.byte W01
	.byte FnM2
	.byte W02
	.byte FnM2
	.byte W01
	.byte FsM2
	.byte W02
	.byte FsM2
	.byte W01
	.byte GnM2
	.byte W02
	.byte GsM2
	.byte W02
	.byte GsM2
	.byte W01
	.byte AnM2
	.byte W02
	.byte AsM2
	.byte W01
	.byte AsM2
	.byte W02
	.byte BnM2
	.byte W02
	.byte BnM2
	.byte W01
	.byte CnM1
	.byte W02
	.byte CsM1
	.byte W01
	.byte CsM1
	.byte W02
	.byte DnM1
	.byte W01
	.byte DsM1
	.byte W02
	.byte DsM1
	.byte W02
	.byte EnM1
	.byte W01
	.byte FnM1
	.byte W02
	.byte FnM1
	.byte W01
	.byte FsM1
	.byte W02
	.byte FsM1
	.byte W01
	.byte GnM1
	.byte W02
	.byte GsM1
	.byte W02
	.byte GsM1
	.byte W01
	.byte AnM1
	.byte W02
	.byte AsM1
	.byte W01
	.byte AsM1
	.byte W02
	.byte BnM1
	.byte W02
	.byte BnM1
	.byte W01
	.byte Cn0
	.byte W02
	.byte Cs0
	.byte W01
	.byte Cs0
	.byte W02
	.byte Dn0
	.byte W01
	.byte Ds0
	.byte W02
	.byte Ds0
	.byte W02
	.byte En0
	.byte W01
	.byte En0
	.byte W02
	.byte Fn0
	.byte W01
	.byte Fs0
	.byte W02
	.byte Fs0
	.byte W01
	.byte Gn0
	.byte W02
	.byte Gs0
	.byte W02
	.byte Gs0
	.byte W01
	.byte An0
	.byte W02
	.byte As0
	.byte W01
	.byte As0
	.byte W02
	.byte Bn0
	.byte W02
	.byte Bn0
	.byte W01
	.byte Cn1
	.byte W02
	.byte Cs1
	.byte W01
	.byte Cs1
	.byte W02
	.byte Dn1
	.byte W01
	.byte Ds1
	.byte W04
	.byte W96
	.byte W96
	.byte W96
	.byte W96
	.byte W96
	.byte W96
	.byte W96
	.byte W96
	.byte W96
	.byte W96
	.byte W84
	.byte VOICE, 19
	.byte VOL, 25
	.byte TIE
	.byte An2, En2
	.byte W12
	.byte W32
	.byte W03
	.byte VOL, 24
	.byte W02
	.byte BnM1
	.byte W03
	.byte BnM1
	.byte W03
	.byte AsM1
	.byte W02
	.byte AsM1
	.byte W03
	.byte AnM1
	.byte W03
	.byte GsM1
	.byte W03
	.byte GsM1
	.byte W03
	.byte GnM1
	.byte W03
	.byte FsM1
	.byte W03
	.byte FsM1
	.byte W02
	.byte FnM1
	.byte W03
	.byte FnM1
	.byte W03
	.byte EnM1
	.byte W03
	.byte DsM1
	.byte W03
	.byte DsM1
	.byte W03
	.byte DnM1
	.byte W03
	.byte CsM1
	.byte W02
	.byte CsM1
	.byte W03
	.byte CnM1
	.byte W03
	.byte BnM2
	.byte W03
	.byte BnM2
	.byte W02
	.byte W01
	.byte AsM2
	.byte W03
	.byte AsM2
	.byte W03
	.byte AnM2
	.byte W02
	.byte GsM2
	.byte W03
	.byte GsM2
	.byte W03
	.byte GnM2
	.byte W03
	.byte FsM2
	.byte W03
	.byte FsM2
	.byte W03
	.byte FnM2
	.byte W03
	.byte FnM2
	.byte W02
	.byte EnM2
	.byte W03
	.byte DsM2
	.byte W03
	.byte DsM2
	.byte W03
	.byte DnM2
	.byte W10
	.byte EOT
	.byte W48
	.byte W96
	.byte W96
	.byte W96
	.byte W96
	.byte W96
	.byte W96
	.byte W96
	.byte GOTO
		.word track_70_lbl_226d8e

	.byte FINE

track_70_5:
	.byte KEYSH, 0
	.byte VOICE, 22
	.byte VOL, 37
	.byte PAN, c_v
	.byte PRIO, 28
	.byte W96
track_70_lbl_226e95:
	.byte N05
	.byte Fn2, En7
	.byte W12
	.byte Fn2, En6
	.byte W48
	.byte N05
	.byte W24
	.byte N05
	.byte W12
	.byte PEND
	.byte W12
	.byte N05
	.byte W48
	.byte N05
	.byte W36
track_70_lbl_226ea6:
	.byte N05
	.byte Fn2, En7
	.byte W12
	.byte Fn2, En6
	.byte W48
	.byte N05
	.byte W36
	.byte PEND
	.byte Fn2, En7
	.byte W12
	.byte Fn2, En6
	.byte W78
	.byte N05
	.byte W06
track_70_lbl_226eb8:
	.byte PATT
		.word track_70_lbl_226ea6
	.byte PATT
		.word track_70_lbl_226ea6
	.byte PATT
		.word track_70_lbl_226ea6
	.byte PATT
		.word track_70_lbl_226ea6
	.byte PATT
		.word track_70_lbl_226e95
	.byte W12
	.byte N05
	.byte Fn2, En6
	.byte W84
track_70_lbl_226ed6:
	.byte N05
	.byte Fn2, En7
	.byte W12
	.byte Fn2, En6
	.byte W12
	.byte N05
	.byte W36
	.byte N05
	.byte W36
	.byte PEND
track_70_lbl_226ee2:
	.byte N05
	.byte Fn2, En7
	.byte W12
	.byte Fn2, En6
	.byte W72
	.byte N05
	.byte W12
	.byte PEND
	.byte PATT
		.word track_70_lbl_226ea6
	.byte PATT
		.word track_70_lbl_226ea6
	.byte PATT
		.word track_70_lbl_226ea6
	.byte PATT
		.word track_70_lbl_226ea6
	.byte PATT
		.word track_70_lbl_226ea6
	.byte PATT
		.word track_70_lbl_226ea6
	.byte PATT
		.word track_70_lbl_226ea6
	.byte PATT
		.word track_70_lbl_226ea6
	.byte PATT
		.word track_70_lbl_226ea6
	.byte N05
	.byte Fn2, En7
	.byte W12
	.byte Fn2, En6
	.byte W84
	.byte PATT
		.word track_70_lbl_226ea6
	.byte PATT
		.word track_70_lbl_226ea6
	.byte PATT
		.word track_70_lbl_226ea6
	.byte PATT
		.word track_70_lbl_226ee2
	.byte PATT
		.word track_70_lbl_226ed6
	.byte PATT
		.word track_70_lbl_226ea6
	.byte PATT
		.word track_70_lbl_226ea6
	.byte PATT
		.word track_70_lbl_226ea6
	.byte PATT
		.word track_70_lbl_226ea6
	.byte PATT
		.word track_70_lbl_226ea6
	.byte PATT
		.word track_70_lbl_226ea6
	.byte PATT
		.word track_70_lbl_226ea6
	.byte PATT
		.word track_70_lbl_226ea6
	.byte PATT
		.word track_70_lbl_226ea6
	.byte W84
	.byte N05
	.byte Fn2, En6
	.byte W12
	.byte W96
	.byte N05
	.byte W12
	.byte N05
	.byte W48
	.byte N05
	.byte W36
	.byte PATT
		.word track_70_lbl_226ea6
	.byte PATT
		.word track_70_lbl_226ea6
	.byte PATT
		.word track_70_lbl_226ea6
	.byte GOTO
		.word track_70_lbl_226eb8

	.byte FINE

track_70_6:
	.byte KEYSH, 0
	.byte VOICE, 43
	.byte PAN, c_v-10
	.byte PRIO, 27
	.byte BENDR, 20
	.byte VOL, 44
	.byte W96
track_70_lbl_226f94:
	.byte W18
	.byte BEND, c_v
	.byte N36
	.byte Cn3, Gs4
	.byte W12
	.byte BEND, c_v+12
	.byte W01
	.byte Fs4
	.byte W01
	.byte Gs4
	.byte W01
	.byte As4
	.byte W01
	.byte Cn5
	.byte W01
	.byte Dn5
	.byte W01
	.byte En5
	.byte W01
	.byte Fs5
	.byte W01
	.byte Gs5
	.byte W01
	.byte As5
	.byte W01
	.byte Bn5
	.byte W01
	.byte Cs6
	.byte W01
	.byte Ds6
	.byte W01
	.byte Fn6
	.byte W01
	.byte Gn6
	.byte W01
	.byte An6
	.byte W01
	.byte Bn6
	.byte W01
	.byte Cs7
	.byte W01
	.byte Ds7
	.byte W01
	.byte Fn7
	.byte W01
	.byte Gn7
	.byte W01
	.byte An7
	.byte W44
	.byte W01
	.byte PEND
	.byte PATT
		.word track_70_lbl_226f94
	.byte PATT
		.word track_70_lbl_226f94
	.byte PATT
		.word track_70_lbl_226f94
track_70_lbl_226fd9:
	.byte PATT
		.word track_70_lbl_226f94
	.byte PATT
		.word track_70_lbl_226f94
	.byte PATT
		.word track_70_lbl_226f94
	.byte PATT
		.word track_70_lbl_226f94
	.byte PATT
		.word track_70_lbl_226f94
	.byte W24
	.byte VOICE, 0
	.byte VOL, 62
	.byte N06
	.byte Fn1, Gs0
	.byte W12
	.byte Fn1, En1
	.byte W12
	.byte Fn1, En2
	.byte W12
	.byte Fn1, En3
	.byte W12
	.byte Fn1, Cn5
	.byte W12
	.byte An1, En6
	.byte W06
	.byte Fn1, Gs3
	.byte W06
	.byte N18
	.byte Cs2, Cn3
	.byte W30
	.byte VOICE, 43
	.byte BENDR, 20
	.byte VOL, 44
	.byte W06
	.byte BEND, c_v
	.byte N36
	.byte Cn3, Gs4
	.byte W12
	.byte BEND, c_v+12
	.byte W01
	.byte Fs4
	.byte W01
	.byte Gs4
	.byte W01
	.byte As4
	.byte W01
	.byte Cn5
	.byte W01
	.byte Dn5
	.byte W01
	.byte En5
	.byte W01
	.byte Fs5
	.byte W01
	.byte Gs5
	.byte W01
	.byte As5
	.byte W01
	.byte Bn5
	.byte W01
	.byte Cs6
	.byte W01
	.byte Ds6
	.byte W01
	.byte Fn6
	.byte W01
	.byte Gn6
	.byte W01
	.byte An6
	.byte W01
	.byte Bn6
	.byte W01
	.byte Cs7
	.byte W01
	.byte Ds7
	.byte W01
	.byte Fn7
	.byte W01
	.byte Gn7
	.byte W01
	.byte An7
	.byte W24
	.byte W03
	.byte W30
	.byte VOICE, 43
	.byte BENDR, 20
	.byte VOL, 44
	.byte W06
	.byte BEND, c_v
	.byte N36
	.byte W12
	.byte BEND, c_v+12
	.byte W01
	.byte Fs4
	.byte W01
	.byte Gs4
	.byte W01
	.byte As4
	.byte W01
	.byte Cn5
	.byte W01
	.byte Dn5
	.byte W01
	.byte En5
	.byte W01
	.byte Fs5
	.byte W01
	.byte Gs5
	.byte W01
	.byte As5
	.byte W01
	.byte Bn5
	.byte W01
	.byte Cs6
	.byte W01
	.byte Ds6
	.byte W01
	.byte Fn6
	.byte W01
	.byte Gn6
	.byte W01
	.byte An6
	.byte W01
	.byte Bn6
	.byte W01
	.byte Cs7
	.byte W01
	.byte Ds7
	.byte W01
	.byte Fn7
	.byte W01
	.byte Gn7
	.byte W01
	.byte An7
	.byte W24
	.byte W03
track_70_lbl_227086:
	.byte W36
	.byte BEND, c_v
	.byte N36
	.byte Cn3, Gs4
	.byte W12
	.byte BEND, c_v+12
	.byte W01
	.byte Fs4
	.byte W01
	.byte Gs4
	.byte W01
	.byte As4
	.byte W01
	.byte Cn5
	.byte W01
	.byte Dn5
	.byte W01
	.byte En5
	.byte W01
	.byte Fs5
	.byte W01
	.byte Gs5
	.byte W01
	.byte As5
	.byte W01
	.byte Bn5
	.byte W01
	.byte Cs6
	.byte W01
	.byte Ds6
	.byte W01
	.byte Fn6
	.byte W01
	.byte Gn6
	.byte W01
	.byte An6
	.byte W01
	.byte Bn6
	.byte W01
	.byte Cs7
	.byte W01
	.byte Ds7
	.byte W01
	.byte Fn7
	.byte W01
	.byte Gn7
	.byte W01
	.byte An7
	.byte W24
	.byte W03
	.byte PEND
	.byte PATT
		.word track_70_lbl_227086
	.byte PATT
		.word track_70_lbl_226f94
	.byte W18
	.byte BEND, c_v
	.byte N36
	.byte Cn3, Gs4
	.byte W12
	.byte BEND, c_v+12
	.byte W01
	.byte Fs4
	.byte W01
	.byte Gs4
	.byte W01
	.byte As4
	.byte W01
	.byte Cn5
	.byte W01
	.byte Dn5
	.byte W01
	.byte En5
	.byte W01
	.byte Fs5
	.byte W01
	.byte Gs5
	.byte W01
	.byte As5
	.byte W01
	.byte Bn5
	.byte W01
	.byte Cs6
	.byte W01
	.byte Ds6
	.byte W01
	.byte Fn6
	.byte W01
	.byte Gn6
	.byte W01
	.byte An6
	.byte W01
	.byte Bn6
	.byte W01
	.byte Cs7
	.byte W01
	.byte Ds7
	.byte W01
	.byte Fn7
	.byte W01
	.byte Gn7
	.byte W01
	.byte An7
	.byte W32
	.byte W01
	.byte VOICE, 0
	.byte VOL, 62
	.byte N06
	.byte An1, En6
	.byte W06
	.byte Fn1, Gs5
	.byte W06
	.byte W18
	.byte VOICE, 43
	.byte VOL, 44
	.byte BEND, c_v
	.byte N36
	.byte Cn3, Gs4
	.byte W12
	.byte BEND, c_v+12
	.byte W01
	.byte Fs4
	.byte W01
	.byte Gs4
	.byte W01
	.byte As4
	.byte W01
	.byte Cn5
	.byte W01
	.byte Dn5
	.byte W01
	.byte En5
	.byte W01
	.byte Fs5
	.byte W01
	.byte Gs5
	.byte W01
	.byte As5
	.byte W01
	.byte Bn5
	.byte W01
	.byte Cs6
	.byte W01
	.byte Ds6
	.byte W01
	.byte Fn6
	.byte W01
	.byte Gn6
	.byte W01
	.byte An6
	.byte W01
	.byte Bn6
	.byte W01
	.byte Cs7
	.byte W01
	.byte Ds7
	.byte W01
	.byte Fn7
	.byte W01
	.byte Gn7
	.byte W01
	.byte An7
	.byte W44
	.byte W01
	.byte PATT
		.word track_70_lbl_226f94
	.byte PATT
		.word track_70_lbl_226f94
	.byte PATT
		.word track_70_lbl_226f94
	.byte PATT
		.word track_70_lbl_226f94
	.byte W18
	.byte BEND, c_v
	.byte N36
	.byte Cn3, Gs4
	.byte W12
	.byte BEND, c_v+12
	.byte W01
	.byte Fs4
	.byte W01
	.byte Gs4
	.byte W01
	.byte As4
	.byte W01
	.byte Cn5
	.byte W01
	.byte Dn5
	.byte W01
	.byte En5
	.byte W01
	.byte Fs5
	.byte W01
	.byte Gs5
	.byte W01
	.byte As5
	.byte W01
	.byte Bn5
	.byte W01
	.byte Cs6
	.byte W01
	.byte Ds6
	.byte W01
	.byte Fn6
	.byte W01
	.byte Gn6
	.byte W01
	.byte An6
	.byte W01
	.byte Bn6
	.byte W01
	.byte Cs7
	.byte W01
	.byte Ds7
	.byte W01
	.byte Fn7
	.byte W01
	.byte Gn7
	.byte W01
	.byte An7
	.byte W09
	.byte VOICE, 0
	.byte VOL, 62
	.byte N06
	.byte An1, En6
	.byte W24
	.byte N06
	.byte W06
	.byte Fn1, Gs3
	.byte W06
	.byte N18
	.byte Cs2, Cn3
	.byte W18
	.byte VOICE, 43
	.byte VOL, 44
	.byte BEND, c_v
	.byte N36
	.byte Cn3, Gs4
	.byte W12
	.byte BEND, c_v+12
	.byte W01
	.byte Fs4
	.byte W01
	.byte Gs4
	.byte W01
	.byte As4
	.byte W01
	.byte Cn5
	.byte W01
	.byte Dn5
	.byte W01
	.byte En5
	.byte W01
	.byte Fs5
	.byte W01
	.byte Gs5
	.byte W01
	.byte As5
	.byte W01
	.byte Bn5
	.byte W01
	.byte Cs6
	.byte W01
	.byte Ds6
	.byte W01
	.byte Fn6
	.byte W01
	.byte Gn6
	.byte W01
	.byte An6
	.byte W01
	.byte Bn6
	.byte W01
	.byte Cs7
	.byte W01
	.byte Ds7
	.byte W01
	.byte Fn7
	.byte W01
	.byte Gn7
	.byte W01
	.byte An7
	.byte W44
	.byte W01
	.byte PATT
		.word track_70_lbl_226f94
	.byte PATT
		.word track_70_lbl_226f94
	.byte W18
	.byte BEND, c_v
	.byte N30
	.byte Cn3, Gs4
	.byte W12
	.byte BEND, c_v+12
	.byte W01
	.byte Fs4
	.byte W01
	.byte Gs4
	.byte W01
	.byte As4
	.byte W01
	.byte Cn5
	.byte W01
	.byte Dn5
	.byte W01
	.byte En5
	.byte W01
	.byte Fs5
	.byte W01
	.byte Gs5
	.byte W01
	.byte As5
	.byte W01
	.byte Bn5
	.byte W01
	.byte Cs6
	.byte W01
	.byte Ds6
	.byte W01
	.byte Fn6
	.byte W01
	.byte Gn6
	.byte W01
	.byte An6
	.byte W01
	.byte Bn6
	.byte W01
	.byte Cs7
	.byte W01
	.byte VOICE, 0
	.byte VOL, 62
	.byte N06
	.byte Bn1, En6
	.byte W12
	.byte An1, Gs4
	.byte W18
	.byte Fn1, Gs5
	.byte W18
	.byte N18
	.byte Cs2, En2
	.byte W36
	.byte VOICE, 43
	.byte VOL, 44
	.byte BEND, c_v
	.byte N36
	.byte Cn3, Gs4
	.byte W12
	.byte BEND, c_v+12
	.byte W01
	.byte Fs4
	.byte W01
	.byte Gs4
	.byte W01
	.byte As4
	.byte W01
	.byte Cn5
	.byte W01
	.byte Dn5
	.byte W01
	.byte En5
	.byte W01
	.byte Fs5
	.byte W01
	.byte Gs5
	.byte W01
	.byte As5
	.byte W01
	.byte Bn5
	.byte W01
	.byte Cs6
	.byte W01
	.byte Ds6
	.byte W01
	.byte Fn6
	.byte W01
	.byte Gn6
	.byte W01
	.byte An6
	.byte W01
	.byte Bn6
	.byte W01
	.byte Cs7
	.byte W01
	.byte Ds7
	.byte W01
	.byte Fn7
	.byte W01
	.byte Gn7
	.byte W01
	.byte An7
	.byte W24
	.byte W03
	.byte PATT
		.word track_70_lbl_226f94
	.byte PATT
		.word track_70_lbl_226f94
	.byte PATT
		.word track_70_lbl_226f94
	.byte PATT
		.word track_70_lbl_226f94
	.byte PATT
		.word track_70_lbl_226f94
	.byte PATT
		.word track_70_lbl_226f94
	.byte PATT
		.word track_70_lbl_226f94
	.byte PATT
		.word track_70_lbl_226f94
	.byte PATT
		.word track_70_lbl_226f94
	.byte PATT
		.word track_70_lbl_226f94
	.byte PATT
		.word track_70_lbl_226f94
	.byte PATT
		.word track_70_lbl_226f94
	.byte PATT
		.word track_70_lbl_226f94
	.byte PATT
		.word track_70_lbl_226f94
	.byte PATT
		.word track_70_lbl_226f94
	.byte GOTO
		.word track_70_lbl_226fd9

	.byte FINE

track_70_7:
	.byte KEYSH, 0
	.byte VOICE, 42
	.byte VOL, 37
	.byte PAN, c_v+20
	.byte PRIO, 26
	.byte W96
track_70_lbl_2272ac:
	.byte N06
	.byte Cn3, En3
	.byte W12
	.byte N06
	.byte W12
	.byte N06
	.byte W06
	.byte Cn3, En1
	.byte W66
	.byte PEND
	.byte W12
	.byte Cn3, En3
	.byte W84
	.byte N06
	.byte W12
	.byte N06
	.byte W12
	.byte N06
	.byte W06
	.byte Cn3, En1
	.byte W54
	.byte Cn3, Gs1
	.byte W06
	.byte Cn3, GsM1
	.byte W06
	.byte PATT
		.word track_70_lbl_2272ac
track_70_lbl_2272d0:
	.byte PATT
		.word track_70_lbl_2272ac
	.byte PATT
		.word track_70_lbl_2272ac
	.byte PATT
		.word track_70_lbl_2272ac
	.byte PATT
		.word track_70_lbl_2272ac
	.byte PATT
		.word track_70_lbl_2272ac
	.byte N06
	.byte Cn3, En3
	.byte W12
	.byte Cn3, Gs0
	.byte W84
	.byte W84
	.byte Cn3, En3
	.byte W06
	.byte Cn3, En1
	.byte W06
track_70_lbl_2272f7:
	.byte N06
	.byte Cn3, En3
	.byte W12
	.byte N06
	.byte W12
	.byte N06
	.byte W60
	.byte N06
	.byte W12
	.byte PEND
	.byte N06
	.byte W12
	.byte N06
	.byte W06
	.byte Cn3, En1
	.byte W06
	.byte Cn3, En3
	.byte W72
	.byte PATT
		.word track_70_lbl_2272f7
	.byte PATT
		.word track_70_lbl_2272ac
	.byte PATT
		.word track_70_lbl_2272ac
	.byte PATT
		.word track_70_lbl_2272ac
	.byte N06
	.byte Cn3, En3
	.byte W12
	.byte N06
	.byte W06
	.byte Cn3, En1
	.byte W78
	.byte PATT
		.word track_70_lbl_2272ac
	.byte PATT
		.word track_70_lbl_2272ac
	.byte PATT
		.word track_70_lbl_2272ac
	.byte PATT
		.word track_70_lbl_2272ac
	.byte PATT
		.word track_70_lbl_2272ac
	.byte PATT
		.word track_70_lbl_2272ac
	.byte PATT
		.word track_70_lbl_2272ac
	.byte PATT
		.word track_70_lbl_2272ac
	.byte W24
	.byte N06
	.byte Cn3, En3
	.byte W06
	.byte Cn3, En1
	.byte W66
	.byte PATT
		.word track_70_lbl_2272ac
	.byte PATT
		.word track_70_lbl_2272ac
	.byte PATT
		.word track_70_lbl_2272ac
	.byte PATT
		.word track_70_lbl_2272ac
	.byte PATT
		.word track_70_lbl_2272ac
	.byte PATT
		.word track_70_lbl_2272ac
	.byte PATT
		.word track_70_lbl_2272ac
	.byte PATT
		.word track_70_lbl_2272ac
	.byte PATT
		.word track_70_lbl_2272ac
	.byte N06
	.byte Cn3, En3
	.byte W12
	.byte N06
	.byte W12
	.byte N06
	.byte W06
	.byte Cn3, En1
	.byte W30
	.byte N06
	.byte W36
	.byte PATT
		.word track_70_lbl_2272ac
	.byte W12
	.byte N06
	.byte Cn3, En3
	.byte W84
	.byte PATT
		.word track_70_lbl_2272ac
	.byte PATT
		.word track_70_lbl_2272ac
	.byte PATT
		.word track_70_lbl_2272ac
	.byte GOTO
		.word track_70_lbl_2272d0

	.byte FINE

track_70_8:
	.byte KEYSH, 0
	.byte VOICE, 34
	.byte VOL, 37
	.byte PAN, c_v
	.byte W96
	.byte TIE
	.byte Ds1, En6
	.byte W96
	.byte W96
	.byte EOT
	.byte W96
	.byte W96
track_70_lbl_2273c3:
	.byte TIE
	.byte Ds1, En6
	.byte W96
	.byte W96
	.byte EOT
	.byte TIE
	.byte W96
	.byte W96
	.byte EOT
	.byte W96
	.byte W96
	.byte TIE
	.byte W96
	.byte W96
	.byte EOT
	.byte W96
	.byte W96
	.byte TIE
	.byte W96
	.byte W96
	.byte EOT
	.byte W96
	.byte W96
	.byte TIE
	.byte W96
	.byte W96
	.byte EOT
	.byte TIE
	.byte W96
	.byte W84
	.byte EOT
	.byte W12
	.byte TIE
	.byte W96
	.byte W96
	.byte EOT
	.byte W96
	.byte W96
	.byte TIE
	.byte W96
	.byte W96
	.byte EOT
	.byte TIE
	.byte W96
	.byte W96
	.byte EOT
	.byte W96
	.byte W96
	.byte TIE
	.byte W96
	.byte W96
	.byte EOT
	.byte TIE
	.byte W96
	.byte W96
	.byte EOT
	.byte W96
	.byte W96
	.byte TIE
	.byte W96
	.byte W96
	.byte EOT
	.byte W96
	.byte W96
	.byte GOTO
		.word track_70_lbl_2273c3

	.byte FINE

track_70_9:
	.byte KEYSH, 0
	.byte VOICE, 0
	.byte PAN, c_v-14
	.byte VOL, 62
	.byte N12
	.byte As3, Cn5
	.byte W12
	.byte As3, Cn3
	.byte W12
	.byte As3, Cn4
	.byte W12
	.byte As3, En2
	.byte W12
	.byte As3, Cn5
	.byte W12
	.byte As3, Cn3
	.byte W12
	.byte As3, Cn4
	.byte W12
	.byte As3, En2
	.byte W12
track_70_lbl_22742b:
	.byte N12
	.byte As3, Cn5
	.byte W12
	.byte As3, Cn3
	.byte W12
	.byte As3, Cn4
	.byte W12
	.byte As3, En2
	.byte W12
	.byte As3, Cn5
	.byte W12
	.byte As3, Cn3
	.byte W12
	.byte As3, Cn4
	.byte W12
	.byte As3, En2
	.byte W12
	.byte PEND
	.byte PATT
		.word track_70_lbl_22742b
	.byte PATT
		.word track_70_lbl_22742b
	.byte PATT
		.word track_70_lbl_22742b
track_70_lbl_227454:
	.byte PATT
		.word track_70_lbl_22742b
	.byte PATT
		.word track_70_lbl_22742b
	.byte PATT
		.word track_70_lbl_22742b
	.byte PATT
		.word track_70_lbl_22742b
	.byte PATT
		.word track_70_lbl_22742b
	.byte PATT
		.word track_70_lbl_22742b
	.byte W24
	.byte N12
	.byte As3, Cn4
	.byte W12
	.byte As3, En2
	.byte W12
	.byte As3, Cn4
	.byte W12
	.byte As3, En2
	.byte W12
	.byte N12
	.byte W12
	.byte N12
	.byte W12
	.byte PATT
		.word track_70_lbl_22742b
	.byte PATT
		.word track_70_lbl_22742b
	.byte PATT
		.word track_70_lbl_22742b
	.byte PATT
		.word track_70_lbl_22742b
	.byte PATT
		.word track_70_lbl_22742b
	.byte PATT
		.word track_70_lbl_22742b
	.byte PATT
		.word track_70_lbl_22742b
	.byte PATT
		.word track_70_lbl_22742b
	.byte PATT
		.word track_70_lbl_22742b
	.byte PATT
		.word track_70_lbl_22742b
	.byte PATT
		.word track_70_lbl_22742b
	.byte PATT
		.word track_70_lbl_22742b
	.byte PATT
		.word track_70_lbl_22742b
	.byte PATT
		.word track_70_lbl_22742b
	.byte PATT
		.word track_70_lbl_22742b
	.byte W36
	.byte N12
	.byte As3, En2
	.byte W12
	.byte As3, Cn5
	.byte W12
	.byte As3, Cn3
	.byte W12
	.byte As3, Cn4
	.byte W12
	.byte As3, En2
	.byte W12
	.byte PATT
		.word track_70_lbl_22742b
	.byte PATT
		.word track_70_lbl_22742b
	.byte PATT
		.word track_70_lbl_22742b
	.byte PATT
		.word track_70_lbl_22742b
	.byte PATT
		.word track_70_lbl_22742b
	.byte PATT
		.word track_70_lbl_22742b
	.byte PATT
		.word track_70_lbl_22742b
	.byte PATT
		.word track_70_lbl_22742b
	.byte PATT
		.word track_70_lbl_22742b
	.byte PATT
		.word track_70_lbl_22742b
	.byte PATT
		.word track_70_lbl_22742b
	.byte PATT
		.word track_70_lbl_22742b
	.byte PATT
		.word track_70_lbl_22742b
	.byte PATT
		.word track_70_lbl_22742b
	.byte PATT
		.word track_70_lbl_22742b
	.byte GOTO
		.word track_70_lbl_227454

	.byte FINE

.align 2

track_70:
	.byte 10
	.byte 0
	.byte 130
	.byte 0
	.word voice_group20
	.word track_70_0
	.word track_70_1
	.word track_70_2
	.word track_70_3
	.word track_70_4
	.word track_70_5
	.word track_70_6
	.word track_70_7
	.word track_70_8
	.word track_70_9

.align 2
