.align 2

.global track_703

track_703_0:
	.byte KEYSH, 0
	.byte TEMPO, 75
	.byte VOICE, 2
	.byte VOL, 120
	.byte PAN, c_v-14
	.byte BENDR, 12
	.byte W56
	.byte BEND, c_v
	.byte N24
	.byte Cn3, Cn8
	.byte W01
	.byte BEND, c_v+3
	.byte W01
	.byte An3
	.byte W01
	.byte Cs4
	.byte W01
	.byte Fn4
	.byte W01
	.byte Cs3
	.byte W01
	.byte An2
	.byte W01
	.byte Gn2
	.byte W01
	.byte Cn3
	.byte W01
	.byte Fn3
	.byte W01
	.byte An3
	.byte W01
	.byte Gn3
	.byte W01
	.byte Ds3
	.byte W01
	.byte Cs3
	.byte W01
	.byte Cn3
	.byte W01
	.byte Bn2
	.byte W01
	.byte Cs3
	.byte W01
	.byte Ds3
	.byte W01
	.byte Fn3
	.byte W01
	.byte As3
	.byte W01
	.byte Bn3
	.byte W01
	.byte An3
	.byte W01
	.byte Gn3
	.byte W01
	.byte Ds3
	.byte W17
	.byte W23
	.byte Fn2
	.byte W01
	.byte Ds3
	.byte N24
	.byte Cn3, En6
	.byte W01
	.byte BEND, c_v+11
	.byte W01
	.byte Cs5
	.byte W01
	.byte Dn5
	.byte W01
	.byte Ds4
	.byte W01
	.byte Ds3
	.byte W01
	.byte Gn2
	.byte W02
	.byte Fn3
	.byte W01
	.byte Dn4
	.byte W01
	.byte Gs4
	.byte W01
	.byte Gs2
	.byte W01
	.byte Cs3
	.byte W01
	.byte Gn3
	.byte W01
	.byte Bn3
	.byte W01
	.byte Fn4
	.byte W01
	.byte Bn3
	.byte W01
	.byte Fn3
	.byte W01
	.byte An2
	.byte W01
	.byte Fn2
	.byte W01
	.byte Ds2
	.byte W01
	.byte Gn2
	.byte W01
	.byte Bn2
	.byte W02

	.byte FINE

track_703_1:
	.byte KEYSH, 0
	.byte VOICE, 3
	.byte MOD, 60
	.byte VOL, 0
	.byte LFOS, 40
	.byte PAN, c_v
	.byte BENDR, 6
	.byte BEND, c_v-63
	.byte TIE
	.byte An2, Gn8
	.byte W01
	.byte VOL, 3
	.byte BEND, c_v-61
	.byte W01
	.byte VOL, 8
	.byte BEND, c_v-59
	.byte W01
	.byte VOL, 13
	.byte BEND, c_v-56
	.byte W01
	.byte VOL, 20
	.byte BEND, c_v-51
	.byte W01
	.byte VOL, 29
	.byte BEND, c_v-46
	.byte W01
	.byte VOL, 39
	.byte BEND, c_v-37
	.byte W01
	.byte VOL, 55
	.byte BEND, c_v-25
	.byte W01
	.byte VOL, 63
	.byte BEND, c_v-8
	.byte W01
	.byte VOL, 67
	.byte BEND, c_v-1
	.byte W01
	.byte VOL, 72
	.byte BEND, c_v+6
	.byte W01
	.byte VOL, 76
	.byte BEND, c_v+18
	.byte W01
	.byte VOL, 78
	.byte BEND, c_v+27
	.byte W01
	.byte VOL, 80
	.byte BEND, c_v+33
	.byte W01
	.byte Fn6
	.byte W02
	.byte VOL, 78
	.byte BEND, c_v+34
	.byte W01
	.byte VOL, 76
	.byte BEND, c_v+28
	.byte W01
	.byte VOL, 74
	.byte W01
	.byte Cn4
	.byte BEND, c_v+17
	.byte W01
	.byte VOL, 68
	.byte BEND, c_v+7
	.byte W01
	.byte VOL, 65
	.byte BEND, c_v-2
	.byte W01
	.byte VOL, 61
	.byte BEND, c_v-12
	.byte W01
	.byte VOL, 61
	.byte BEND, c_v-33
	.byte W01
	.byte VOL, 36
	.byte BEND, c_v-13
	.byte W01
	.byte VOL, 31
	.byte BEND, c_v-4
	.byte W01
	.byte VOL, 28
	.byte BEND, c_v
	.byte W01
	.byte VOL, 24
	.byte BEND, c_v-3
	.byte W01
	.byte VOL, 21
	.byte BEND, c_v-12
	.byte W01
	.byte VOL, 19
	.byte BEND, c_v-26
	.byte W01
	.byte VOL, 17
	.byte BEND, c_v-45
	.byte W01
	.byte VOL, 17
	.byte BEND, c_v-47
	.byte W01
	.byte VOL, 16
	.byte BEND, c_v-45
	.byte W01
	.byte VOL, 17
	.byte BEND, c_v-41
	.byte W01
	.byte VOL, 17
	.byte BEND, c_v-37
	.byte W01
	.byte VOL, 19
	.byte BEND, c_v-23
	.byte W01
	.byte VOL, 21
	.byte BEND, c_v-10
	.byte W01
	.byte VOL, 24
	.byte BEND, c_v+1
	.byte W01
	.byte VOL, 28
	.byte BEND, c_v+9
	.byte W01
	.byte VOL, 32
	.byte BEND, c_v+15
	.byte W01
	.byte VOL, 37
	.byte BEND, c_v+18
	.byte W01
	.byte VOL, 40
	.byte BEND, c_v+17
	.byte W01
	.byte VOL, 44
	.byte BEND, c_v+16
	.byte W01
	.byte VOL, 48
	.byte BEND, c_v+12
	.byte W01
	.byte VOL, 51
	.byte BEND, c_v-3
	.byte W01
	.byte VOL, 53
	.byte BEND, c_v-11
	.byte W01
	.byte An1
	.byte W01
	.byte VOL, 55
	.byte BEND, c_v-29
	.byte W01
	.byte Fn0
	.byte W01
	.byte VOL, 53
	.byte W01
	.byte En2
	.byte BEND, c_v-34
	.byte W01
	.byte VOL, 50
	.byte BEND, c_v-31
	.byte W01
	.byte VOL, 46
	.byte BEND, c_v-27
	.byte W01
	.byte VOL, 43
	.byte BEND, c_v-19
	.byte W01
	.byte VOL, 33
	.byte BEND, c_v-13
	.byte W01
	.byte VOL, 29
	.byte BEND, c_v-10
	.byte W01
	.byte VOL, 27
	.byte BEND, c_v-11
	.byte W01
	.byte VOL, 24
	.byte BEND, c_v-19
	.byte W01
	.byte VOL, 23
	.byte BEND, c_v-21
	.byte W01
	.byte Fn1
	.byte W01
	.byte VOL, 25
	.byte W01
	.byte En0
	.byte BEND, c_v-21
	.byte W01
	.byte VOL, 34
	.byte W01
	.byte En1
	.byte BEND, c_v-11
	.byte W01
	.byte VOL, 44
	.byte BEND, c_v-5
	.byte W01
	.byte VOL, 46
	.byte BEND, c_v-1
	.byte W01
	.byte VOL, 47
	.byte BEND, c_v
	.byte W01
	.byte VOL, 46
	.byte BEND, c_v-1
	.byte W01
	.byte VOL, 44
	.byte BEND, c_v-4
	.byte W01
	.byte VOL, 41
	.byte BEND, c_v-8
	.byte W01
	.byte VOL, 26
	.byte BEND, c_v-13
	.byte W01
	.byte VOL, 23
	.byte BEND, c_v-19
	.byte W01
	.byte VOL, 21
	.byte BEND, c_v-24
	.byte W01
	.byte VOL, 20
	.byte BEND, c_v-27
	.byte W01
	.byte VOL, 19
	.byte W01
	.byte BEND, c_v-25
	.byte W02
	.byte VOL, 21
	.byte BEND, c_v-23
	.byte W01
	.byte VOL, 25
	.byte BEND, c_v-21
	.byte W01
	.byte VOL, 31
	.byte BEND, c_v-19
	.byte W01
	.byte VOL, 31
	.byte BEND, c_v-15
	.byte W01
	.byte VOL, 34
	.byte BEND, c_v-6
	.byte W01
	.byte VOL, 36
	.byte BEND, c_v+1
	.byte W01
	.byte VOL, 40
	.byte BEND, c_v+11
	.byte W01
	.byte VOL, 42
	.byte BEND, c_v+19
	.byte W01
	.byte VOL, 44
	.byte BEND, c_v+28
	.byte W01
	.byte VOL, 46
	.byte BEND, c_v+35
	.byte W01
	.byte VOL, 49
	.byte BEND, c_v+43
	.byte W01
	.byte VOL, 50
	.byte BEND, c_v+42
	.byte W01
	.byte VOL, 51
	.byte BEND, c_v+41
	.byte W01
	.byte VOL, 52
	.byte BEND, c_v+35
	.byte W01
	.byte VOL, 53
	.byte BEND, c_v+15
	.byte W01
	.byte Fn3
	.byte W01
	.byte Cs3
	.byte W01
	.byte VOL, 54
	.byte BEND, c_v-7
	.byte W01
	.byte Gn2
	.byte W01
	.byte VOL, 53
	.byte BEND, c_v-7
	.byte W02
	.byte Cs3
	.byte W01
	.byte VOL, 51
	.byte BEND, c_v+1
	.byte W01
	.byte VOL, 50
	.byte BEND, c_v+5
	.byte W01
	.byte Cn4
	.byte W01
	.byte VOL, 48
	.byte BEND, c_v+7
	.byte W01
	.byte VOL, 45
	.byte BEND, c_v+5
	.byte W01
	.byte VOL, 43
	.byte BEND, c_v+1
	.byte W01
	.byte VOL, 40
	.byte BEND, c_v-7
	.byte W01
	.byte VOL, 38
	.byte BEND, c_v-12
	.byte W01
	.byte VOL, 34
	.byte BEND, c_v-16
	.byte W01
	.byte VOL, 33
	.byte BEND, c_v-19
	.byte W01
	.byte VOL, 26
	.byte BEND, c_v-22
	.byte W01
	.byte VOL, 21
	.byte BEND, c_v-25
	.byte W01
	.byte VOL, 17
	.byte BEND, c_v-29
	.byte W01
	.byte VOL, 14
	.byte BEND, c_v-31
	.byte W01
	.byte VOL, 12
	.byte BEND, c_v-29
	.byte W01
	.byte VOL, 9
	.byte BEND, c_v-26
	.byte W01
	.byte VOL, 8
	.byte BEND, c_v-23
	.byte W01
	.byte VOL, 5
	.byte BEND, c_v-21
	.byte W01
	.byte VOL, 4
	.byte BEND, c_v-11
	.byte W01
	.byte VOL, 2
	.byte BEND, c_v-5
	.byte W01
	.byte VOL, 0
	.byte BEND, c_v-3
	.byte W01
	.byte EOT

	.byte FINE

track_703_2:
	.byte KEYSH, 0
	.byte VOICE, 1
	.byte VOL, 113
	.byte PAN, c_v-14
	.byte W04
	.byte N48
	.byte Cn3, En6
	.byte W76
	.byte W01
	.byte N36
	.byte Dn3, Cn3, DsM2
	.byte W15
	.byte W24

	.byte FINE

track_703_3:
	.byte KEYSH, 0
	.byte VOICE, 4
	.byte VOL, 72
	.byte PAN, c_v-14
	.byte N16
	.byte Cn3, Cn8
	.byte W01
	.byte VOL, 68
	.byte W01
	.byte Ds3
	.byte W01
	.byte As2
	.byte W01
	.byte En2
	.byte W01
	.byte Dn2
	.byte W01
	.byte An2
	.byte W01
	.byte Cn4
	.byte W01
	.byte Fs4
	.byte W01
	.byte Cs5
	.byte W01
	.byte Cn5
	.byte W01
	.byte As4
	.byte W01
	.byte Fs4
	.byte W01
	.byte En4
	.byte W01
	.byte Cn4
	.byte W01
	.byte Gs3
	.byte W01
	.byte Gn3
	.byte W24
	.byte Gs4
	.byte N16
	.byte W01
	.byte VOL, 83
	.byte W01
	.byte Cn5
	.byte W01
	.byte Ds5
	.byte W01
	.byte Gn5
	.byte W01
	.byte Bn5
	.byte W01
	.byte Ds6
	.byte W01
	.byte Ds5
	.byte W01
	.byte Ds4
	.byte W01
	.byte Fs3
	.byte W01
	.byte As2
	.byte W01
	.byte Dn2
	.byte W01
	.byte En1
	.byte W01
	.byte Dn1
	.byte W01
	.byte Gs4
	.byte W01
	.byte Cn5
	.byte W01
	.byte Ds5
	.byte W24
	.byte W01
	.byte Ds5
	.byte W01
	.byte Dn5
	.byte N16
	.byte Cn3, En7
	.byte W01
	.byte VOL, 91
	.byte W01
	.byte Ds6
	.byte W01
	.byte Fs4
	.byte W01
	.byte Fn3
	.byte W01
	.byte Gn2
	.byte W01
	.byte An5
	.byte W01
	.byte Bn5
	.byte W01
	.byte Cs6
	.byte W01
	.byte Bn5
	.byte W01
	.byte Cn4
	.byte W01
	.byte Cs4
	.byte W01
	.byte En4
	.byte W01
	.byte Gn4
	.byte W01
	.byte An4
	.byte W01
	.byte Cn5
	.byte W01
	.byte Ds5
	.byte W01
	.byte Fs5

	.byte FINE

.align 2

track_703:
	.byte 4
	.byte 0
	.byte 229
	.byte 0
	.word voice_group15
	.word track_703_0
	.word track_703_1
	.word track_703_2
	.word track_703_3

.align 2
