.include "audio/m_play_def.s"

.align 2

.section .rodata
.global track_299

track_299_0:
	.byte KEYSH, 0
	.byte TEMPO, 75
	.byte VOICE, 29
	.byte VOL, 0
	.byte PAN, c_v-10
	.byte N48
	.byte Cn2, Cn3
	.byte W02
	.byte VOL, 6
	.byte W02
	.byte CsM1
	.byte W02
	.byte BnM1
	.byte W02
	.byte Bn0
	.byte W02
	.byte En2
	.byte W01
	.byte Fs3
	.byte W02
	.byte As4
	.byte W02
	.byte Ds5
	.byte W04
	.byte Cn5
	.byte W02
	.byte Fs4
	.byte W02
	.byte Bn3
	.byte W03
	.byte Fs2
	.byte W02
	.byte Gs1
	.byte W02
	.byte Cn1
	.byte W02
	.byte Fn0
	.byte W02
	.byte BnM1
	.byte W02
	.byte GnM1
	.byte W02
	.byte DnM1
	.byte W02
	.byte BnM2
	.byte W02
	.byte GnM2
	.byte W02
	.byte EnM2
	.byte W02
	.byte CsM2
	.byte W01
	.byte CnM2
	.byte W30
	.byte W01
	.byte VOICE, 15
	.byte MOD, 20
	.byte BENDR, 12
	.byte LFOS, 127
	.byte BEND, c_v
	.byte TIE
	.byte Cn3, Gn8
	.byte W01
	.byte VOL, 2
	.byte W01
	.byte DsM2
	.byte W01
	.byte FnM2
	.byte W01
	.byte FsM2
	.byte W01
	.byte GsM2
	.byte W01
	.byte AsM2
	.byte W01
	.byte CnM1
	.byte W01
	.byte DnM1
	.byte W01
	.byte FsM1
	.byte W01
	.byte GsM1
	.byte W01
	.byte BnM1
	.byte W01
	.byte Dn0
	.byte W01
	.byte Fs0
	.byte W01
	.byte An0
	.byte W01
	.byte Dn1
	.byte W01
	.byte Fs1
	.byte W01
	.byte Cn2
	.byte W01
	.byte Fs2
	.byte W01
	.byte Bn2
	.byte W01
	.byte Gs3
	.byte W01
	.byte En4
	.byte W01
	.byte Dn5
	.byte W01
	.byte Cs6
	.byte W01
	.byte Dn7
	.byte W48
	.byte LFOS, 100
	.byte BEND, c_v+10
	.byte W40
	.byte LFOS, 80
	.byte BEND, c_v+21
	.byte W02
	.byte W52
	.byte VOL, 101
	.byte W03
	.byte As5
	.byte W03
	.byte Cn5
	.byte W03
	.byte Cs4
	.byte W03
	.byte Ds3
	.byte W01
	.byte Ds2
	.byte W01
	.byte En1
	.byte W01
	.byte An0
	.byte W01
	.byte Dn0
	.byte W01
	.byte AnM1
	.byte W01
	.byte EnM1
	.byte W01
	.byte CnM1
	.byte W01
	.byte AnM2
	.byte W01
	.byte FsM2
	.byte W01
	.byte DnM2
	.byte W01
	.byte CnM2
	.byte W01
	.byte EOT
	.byte W10
	.byte VOICE, 14
	.byte VOL, 86
	.byte BENDR, 12
	.byte BEND, c_v-63
	.byte N07
	.byte Cn2, Cn3
	.byte W01
	.byte BEND, c_v-39
	.byte W01
	.byte Cn2
	.byte W01
	.byte Cn4
	.byte W01
	.byte VOL, 86
	.byte BEND, c_v+32
	.byte W01
	.byte VOL, 25
	.byte BEND, c_v+55
	.byte W01
	.byte VOL, 0
	.byte W04
	.byte W13

	.byte FINE

track_299_1:
	.byte KEYSH, 0
	.byte VOICE, 29
	.byte VOL, 0
	.byte PAN, c_v-10
	.byte N48
	.byte En2, Cn3
	.byte W02
	.byte VOL, 6
	.byte W02
	.byte CsM1
	.byte W02
	.byte BnM1
	.byte W02
	.byte Bn0
	.byte W02
	.byte En2
	.byte W01
	.byte Fs3
	.byte W02
	.byte As4
	.byte W02
	.byte Ds5
	.byte W04
	.byte Cn5
	.byte W02
	.byte Fs4
	.byte W02
	.byte Bn3
	.byte W03
	.byte Fs2
	.byte W02
	.byte Gs1
	.byte W02
	.byte Cn1
	.byte W02
	.byte Fn0
	.byte W02
	.byte BnM1
	.byte W02
	.byte GnM1
	.byte W02
	.byte DnM1
	.byte W02
	.byte BnM2
	.byte W02
	.byte GnM2
	.byte W02
	.byte EnM2
	.byte W02
	.byte CsM2
	.byte W01
	.byte CnM2
	.byte W30
	.byte W01
	.byte VOICE, 14
	.byte MOD, 20
	.byte BENDR, 12
	.byte LFOS, 80
	.byte BEND, c_v
	.byte TIE
	.byte Gn1, Gs4
	.byte W01
	.byte VOL, 1
	.byte W01
	.byte DnM2
	.byte W01
	.byte EnM2
	.byte W01
	.byte FsM2
	.byte W01
	.byte GnM2
	.byte W01
	.byte AnM2
	.byte W01
	.byte BnM2
	.byte W01
	.byte CnM1
	.byte W01
	.byte DnM1
	.byte W01
	.byte FnM1
	.byte W01
	.byte GnM1
	.byte W01
	.byte AnM1
	.byte W01
	.byte Cn0
	.byte W01
	.byte Dn0
	.byte W01
	.byte Fs0
	.byte W01
	.byte An0
	.byte W01
	.byte Cs1
	.byte W01
	.byte En1
	.byte W01
	.byte Gs1
	.byte W01
	.byte Cn2
	.byte W01
	.byte En2
	.byte W01
	.byte As2
	.byte W01
	.byte Ds3
	.byte W01
	.byte An3
	.byte W48
	.byte LFOS, 70
	.byte BEND, c_v+10
	.byte W40
	.byte LFOS, 60
	.byte BEND, c_v+21
	.byte W02
	.byte W52
	.byte VOL, 64
	.byte W03
	.byte Bn2
	.byte W03
	.byte Fs2
	.byte W03
	.byte Bn1
	.byte W03
	.byte En1
	.byte W01
	.byte Gs0
	.byte W01
	.byte Cs0
	.byte W01
	.byte AnM1
	.byte W01
	.byte EnM1
	.byte W01
	.byte CnM1
	.byte W01
	.byte AnM2
	.byte W01
	.byte GnM2
	.byte W01
	.byte FsM2
	.byte W01
	.byte DsM2
	.byte W01
	.byte CsM2
	.byte W01
	.byte CnM2
	.byte W01
	.byte EOT
	.byte W20
	.byte W13

	.byte FINE

track_299_2:
	.byte KEYSH, 0
	.byte VOICE, 29
	.byte VOL, 0
	.byte PAN, c_v-10
	.byte N48
	.byte Gn2, Cn3
	.byte W02
	.byte VOL, 6
	.byte W02
	.byte CsM1
	.byte W02
	.byte BnM1
	.byte W02
	.byte Bn0
	.byte W02
	.byte En2
	.byte W01
	.byte Fs3
	.byte W02
	.byte As4
	.byte W02
	.byte Ds5
	.byte W04
	.byte Cn5
	.byte W02
	.byte Fs4
	.byte W02
	.byte Bn3
	.byte W03
	.byte Fs2
	.byte W02
	.byte Gs1
	.byte W02
	.byte Cn1
	.byte W02
	.byte Fn0
	.byte W02
	.byte BnM1
	.byte W02
	.byte GnM1
	.byte W02
	.byte DnM1
	.byte W02
	.byte BnM2
	.byte W02
	.byte GnM2
	.byte W02
	.byte EnM2
	.byte W02
	.byte CsM2
	.byte W01
	.byte CnM2
	.byte W30
	.byte W01
	.byte VOICE, 30
	.byte MOD, 12
	.byte VOL, 77
	.byte LFOS, 120
	.byte PRIO, 23
	.byte W01
	.byte N05
	.byte Cn2, GsM1
	.byte W05
	.byte En2, Cn0
	.byte W09
	.byte Fn2, GsM1
	.byte W03
	.byte W02
	.byte Cn2, Gs0
	.byte W05
	.byte En2, Cn0
	.byte W06
	.byte Fn2, En1
	.byte W05
	.byte Cn2, En2
	.byte W05
	.byte En2, En6
	.byte W09
	.byte Fn2
	.byte W05
	.byte Cn2, Gs4
	.byte W05
	.byte En2
	.byte W06
	.byte Fn2, En6
	.byte W08
	.byte Cn2, Gs5
	.byte W05
	.byte En2, En6
	.byte W07
	.byte Fn2, Gs4
	.byte W05
	.byte Cn2, En6
	.byte W06
	.byte En2, Gs5
	.byte W05
	.byte Fn2, En6
	.byte W07
	.byte Cn2
	.byte W05
	.byte En2, Gs5
	.byte W07
	.byte Fn2, Gs4
	.byte W05
	.byte Cn2, Gs5
	.byte W09
	.byte En2, En6
	.byte W05
	.byte Fn2
	.byte W05
	.byte Cn2
	.byte W06
	.byte En2
	.byte W07
	.byte N10
	.byte Fn2, Cn8
	.byte W52
	.byte W13

	.byte FINE

.align 2

track_299:
	.byte 3
	.byte 0
	.byte 228
	.byte 0
	.word voice_group4
	.word track_299_0
	.word track_299_1
	.word track_299_2

.align 2
