.align 2

.global track_661

track_661_0:
	.byte KEYSH, 0
	.byte TEMPO, 75
	.byte VOICE, 30
	.byte VOL, 7
	.byte PAN, c_v
	.byte PRIO, 1
	.byte N32, Gn3, v040
	.byte W02
	.byte VOL, 11
	.byte W02
	.byte 20 @ VOL
	.byte W01
	.byte 31 @ VOL
	.byte W02
	.byte 38 @ VOL
	.byte W02
	.byte 38 @ VOL
	.byte W02
	.byte 35 @ VOL
	.byte W01
	.byte 31 @ VOL
	.byte W02
	.byte 23 @ VOL
	.byte W02
	.byte 16 @ VOL
	.byte W02
	.byte 12 @ VOL
	.byte W02
	.byte 9 @ VOL
	.byte W02
	.byte 6 @ VOL
	.byte W02
	.byte 4 @ VOL
	.byte W02
	.byte 2 @ VOL
	.byte W02
	.byte 1 @ VOL
	.byte W02
	.byte 0 @ VOL
	.byte W01
	.byte 0 @ VOL
	.byte W16
	.byte 7 @ VOL
	.byte N32, Gn3, v048
	.byte W02
	.byte VOL, 11
	.byte W02
	.byte 20 @ VOL
	.byte W01
	.byte 31 @ VOL
	.byte W02
	.byte 38 @ VOL
	.byte W02
	.byte 38 @ VOL
	.byte W02
	.byte 35 @ VOL
	.byte W01
	.byte 31 @ VOL
	.byte W02
	.byte 23 @ VOL
	.byte W02
	.byte 16 @ VOL
	.byte W02
	.byte 12 @ VOL
	.byte W02
	.byte 9 @ VOL
	.byte W02
	.byte 6 @ VOL
	.byte W02
	.byte 4 @ VOL
	.byte W02
	.byte 2 @ VOL
	.byte W02
	.byte 1 @ VOL
	.byte W02
	.byte 0 @ VOL
	.byte W01
	.byte 0 @ VOL
	.byte W16
	.byte 7 @ VOL
	.byte N32, Gn3, v052
	.byte W02
	.byte VOL, 11
	.byte W02
	.byte 20 @ VOL
	.byte W01
	.byte 31 @ VOL
	.byte W02
	.byte 38 @ VOL
	.byte W02
	.byte 38 @ VOL
	.byte W02
	.byte 35 @ VOL
	.byte W01
	.byte 31 @ VOL
	.byte W02
	.byte 23 @ VOL
	.byte W02
	.byte 16 @ VOL
	.byte W02
	.byte 12 @ VOL
	.byte W02
	.byte 9 @ VOL
	.byte W02
	.byte 6 @ VOL
	.byte W02
	.byte 4 @ VOL
	.byte W02
	.byte 2 @ VOL
	.byte W02
	.byte 1 @ VOL
	.byte W02
	.byte 0 @ VOL
	.byte W01
	.byte 0 @ VOL
	.byte W16
	.byte 7 @ VOL
	.byte N32, Gn3, v056
	.byte W02
	.byte VOL, 11
	.byte W02
	.byte 20 @ VOL
	.byte W01
	.byte 31 @ VOL
	.byte W02
	.byte 38 @ VOL
	.byte W02
	.byte 38 @ VOL
	.byte W02
	.byte 35 @ VOL
	.byte W01
	.byte 31 @ VOL
	.byte W02
	.byte 23 @ VOL
	.byte W02
	.byte 16 @ VOL
	.byte W02
	.byte 12 @ VOL
	.byte W02
	.byte 9 @ VOL
	.byte W02
	.byte 6 @ VOL
	.byte W02
	.byte 4 @ VOL
	.byte W02
	.byte 2 @ VOL
	.byte W02
	.byte 1 @ VOL
	.byte W02
	.byte 0 @ VOL
	.byte W01
	.byte 0 @ VOL
	.byte W16
	.byte 7 @ VOL
	.byte N32, Gn3, v060
	.byte W02
	.byte VOL, 11
	.byte W02
	.byte 20 @ VOL
	.byte W01
	.byte 31 @ VOL
	.byte W02
	.byte 38 @ VOL
	.byte W02
	.byte 38 @ VOL
	.byte W02
	.byte 35 @ VOL
	.byte W01
	.byte 31 @ VOL
	.byte W02
	.byte 23 @ VOL
	.byte W02
	.byte 16 @ VOL
	.byte W02
	.byte 12 @ VOL
	.byte W02
	.byte 9 @ VOL
	.byte W02
	.byte 6 @ VOL
	.byte W02
	.byte 4 @ VOL
	.byte W02
	.byte 2 @ VOL
	.byte W02
	.byte 1 @ VOL
	.byte W02
	.byte 0 @ VOL
	.byte W01
	.byte 0 @ VOL
	.byte W16
	.byte 7 @ VOL
	.byte N32, Gn3, v072
	.byte W02
	.byte VOL, 11
	.byte W02
	.byte 20 @ VOL
	.byte W01
	.byte 31 @ VOL
	.byte W02
	.byte 38 @ VOL
	.byte W02
	.byte 38 @ VOL
	.byte W02
	.byte 35 @ VOL
	.byte W01
	.byte 31 @ VOL
	.byte W02
	.byte 23 @ VOL
	.byte W02
	.byte 16 @ VOL
	.byte W02
	.byte 12 @ VOL
	.byte W02
	.byte 9 @ VOL
	.byte W02
	.byte 6 @ VOL
	.byte W02
	.byte 4 @ VOL
	.byte W02
	.byte 2 @ VOL
	.byte W02
	.byte 1 @ VOL
	.byte W02
	.byte 0 @ VOL
	.byte W01
	.byte 0 @ VOL
	.byte W16
	.byte 7 @ VOL
	.byte N32, Gn3, v080
	.byte W02
	.byte VOL, 11
	.byte W02
	.byte 20 @ VOL
	.byte W01
	.byte 31 @ VOL
	.byte W01
	.byte W01
	.byte 38 @ VOL
	.byte W02
	.byte 38 @ VOL
	.byte W02
	.byte 35 @ VOL
	.byte W01
	.byte 31 @ VOL
	.byte W02
	.byte 23 @ VOL
	.byte W02
	.byte 16 @ VOL
	.byte W02
	.byte 12 @ VOL
	.byte W02
	.byte 9 @ VOL
	.byte W02
	.byte 6 @ VOL
	.byte W02
	.byte 4 @ VOL
	.byte W02
	.byte 2 @ VOL
	.byte W02
	.byte 1 @ VOL
	.byte W02
	.byte 0 @ VOL
	.byte W01
	.byte 0 @ VOL
	.byte W16
	.byte 7 @ VOL
	.byte N32, Gn3, v092
	.byte W02
	.byte VOL, 11
	.byte W02
	.byte 20 @ VOL
	.byte W01
	.byte 31 @ VOL
	.byte W02
	.byte 38 @ VOL
	.byte W02
	.byte 38 @ VOL
	.byte W02
	.byte 35 @ VOL
	.byte W01
	.byte 31 @ VOL
	.byte W02
	.byte 23 @ VOL
	.byte W02
	.byte 16 @ VOL
	.byte W02
	.byte 12 @ VOL
	.byte W02
	.byte 9 @ VOL
	.byte W02
	.byte 6 @ VOL
	.byte W02
	.byte 4 @ VOL
	.byte W02
	.byte 2 @ VOL
	.byte W02
	.byte 1 @ VOL
	.byte W02
	.byte 0 @ VOL
	.byte W01
	.byte 0 @ VOL
	.byte W16
	.byte 7 @ VOL
	.byte N32 @ Gn3, v092
	.byte W02
	.byte VOL, 11
	.byte W02
	.byte 20 @ VOL
	.byte W01
	.byte 31 @ VOL
	.byte W02
	.byte 38 @ VOL
	.byte W01
	.byte W01
	.byte 38 @ VOL
	.byte W02
	.byte 35 @ VOL
	.byte W01
	.byte 31 @ VOL
	.byte W02
	.byte 23 @ VOL
	.byte W02
	.byte 16 @ VOL
	.byte W02
	.byte 12 @ VOL
	.byte W02
	.byte 9 @ VOL
	.byte W02
	.byte 6 @ VOL
	.byte W02
	.byte 4 @ VOL
	.byte W02
	.byte 2 @ VOL
	.byte W02
	.byte 1 @ VOL
	.byte W02
	.byte 0 @ VOL
	.byte W01
	.byte 0 @ VOL
	.byte W01
	.byte FINE

track_661_1:
	.byte KEYSH, 0
	.byte VOICE, 31
	.byte MOD, 40
	.byte VOL, 7
	.byte PAN, c_v
	.byte BENDR, 12
	.byte LFOS, 127
	.byte BEND, c_v-47
	.byte N30, En3, v020, 1
	.byte W02
	.byte VOL, 9
	.byte BEND, c_v-42
	.byte W02
	.byte VOL, 12
	.byte BEND, c_v-36
	.byte W02
	.byte VOL, 16
	.byte BEND, c_v-31
	.byte W02
	.byte VOL, 23
	.byte BEND, c_v-26
	.byte W02
	.byte VOL, 29
	.byte BEND, c_v-21
	.byte W02
	.byte VOL, 31
	.byte BEND, c_v-15
	.byte W02
	.byte VOL, 30
	.byte BEND, c_v-10
	.byte W02
	.byte VOL, 27
	.byte BEND, c_v-5
	.byte W02
	.byte VOL, 20
	.byte BEND, c_v
	.byte W02
	.byte VOL, 14
	.byte BEND, c_v+6
	.byte W02
	.byte VOL, 10
	.byte BEND, c_v+11
	.byte W02
	.byte VOL, 6
	.byte BEND, c_v+16
	.byte W02
	.byte VOL, 4
	.byte BEND, c_v+21
	.byte W02
	.byte VOL, 1
	.byte BEND, c_v+27
	.byte W02
	.byte VOL, 0
	.byte BEND, c_v+32
	.byte W17
	.byte VOL, 7
	.byte BEND, c_v-47
	.byte N30, En3, v028, 1
	.byte W02
	.byte VOL, 9
	.byte BEND, c_v-42
	.byte W02
	.byte VOL, 12
	.byte BEND, c_v-36
	.byte W02
	.byte VOL, 16
	.byte BEND, c_v-31
	.byte W02
	.byte VOL, 23
	.byte BEND, c_v-26
	.byte W02
	.byte VOL, 29
	.byte BEND, c_v-21
	.byte W02
	.byte VOL, 31
	.byte BEND, c_v-15
	.byte W02
	.byte VOL, 30
	.byte BEND, c_v-10
	.byte W02
	.byte VOL, 27
	.byte BEND, c_v-5
	.byte W02
	.byte VOL, 20
	.byte BEND, c_v
	.byte W02
	.byte VOL, 14
	.byte BEND, c_v+6
	.byte W02
	.byte VOL, 10
	.byte BEND, c_v+11
	.byte W02
	.byte VOL, 6
	.byte BEND, c_v+16
	.byte W02
	.byte VOL, 4
	.byte BEND, c_v+21
	.byte W02
	.byte VOL, 1
	.byte BEND, c_v+27
	.byte W02
	.byte VOL, 0
	.byte BEND, c_v+32
	.byte W17
	.byte VOL, 7
	.byte BEND, c_v-47
	.byte N30, En3, v032, 1
	.byte W02
	.byte VOL, 9
	.byte BEND, c_v-42
	.byte W02
	.byte VOL, 12
	.byte BEND, c_v-36
	.byte W02
	.byte VOL, 16
	.byte BEND, c_v-31
	.byte W02
	.byte VOL, 23
	.byte BEND, c_v-26
	.byte W02
	.byte VOL, 29
	.byte BEND, c_v-21
	.byte W02
	.byte VOL, 31
	.byte BEND, c_v-15
	.byte W02
	.byte VOL, 30
	.byte BEND, c_v-10
	.byte W02
	.byte VOL, 27
	.byte BEND, c_v-5
	.byte W02
	.byte VOL, 20
	.byte BEND, c_v
	.byte W02
	.byte VOL, 14
	.byte BEND, c_v+6
	.byte W02
	.byte VOL, 10
	.byte BEND, c_v+11
	.byte W02
	.byte VOL, 6
	.byte BEND, c_v+16
	.byte W02
	.byte VOL, 4
	.byte BEND, c_v+21
	.byte W02
	.byte VOL, 1
	.byte BEND, c_v+27
	.byte W02
	.byte VOL, 0
	.byte BEND, c_v+32
	.byte W17
	.byte VOL, 7
	.byte BEND, c_v-47
	.byte N30, En3, v036, 1
	.byte W02
	.byte VOL, 9
	.byte BEND, c_v-42
	.byte W02
	.byte VOL, 12
	.byte BEND, c_v-36
	.byte W02
	.byte VOL, 16
	.byte BEND, c_v-31
	.byte W02
	.byte VOL, 23
	.byte BEND, c_v-26
	.byte W02
	.byte VOL, 29
	.byte BEND, c_v-21
	.byte W02
	.byte VOL, 31
	.byte BEND, c_v-15
	.byte W02
	.byte VOL, 30
	.byte BEND, c_v-10
	.byte W02
	.byte VOL, 27
	.byte BEND, c_v-5
	.byte W02
	.byte VOL, 20
	.byte BEND, c_v
	.byte W02
	.byte VOL, 14
	.byte BEND, c_v+6
	.byte W02
	.byte VOL, 10
	.byte BEND, c_v+11
	.byte W02
	.byte VOL, 6
	.byte BEND, c_v+16
	.byte W02
	.byte VOL, 4
	.byte BEND, c_v+21
	.byte W02
	.byte VOL, 1
	.byte BEND, c_v+27
	.byte W02
	.byte VOL, 0
	.byte BEND, c_v+32
	.byte W17
	.byte VOL, 7
	.byte BEND, c_v-47
	.byte N30, En3, v040, 1
	.byte W02
	.byte VOL, 9
	.byte BEND, c_v-42
	.byte W02
	.byte VOL, 12
	.byte BEND, c_v-36
	.byte W02
	.byte VOL, 16
	.byte BEND, c_v-31
	.byte W02
	.byte VOL, 23
	.byte BEND, c_v-26
	.byte W02
	.byte VOL, 29
	.byte BEND, c_v-21
	.byte W02
	.byte VOL, 31
	.byte BEND, c_v-15
	.byte W02
	.byte VOL, 30
	.byte BEND, c_v-10
	.byte W02
	.byte VOL, 27
	.byte BEND, c_v-5
	.byte W02
	.byte VOL, 20
	.byte BEND, c_v
	.byte W02
	.byte VOL, 14
	.byte BEND, c_v+6
	.byte W02
	.byte VOL, 10
	.byte BEND, c_v+11
	.byte W02
	.byte VOL, 6
	.byte BEND, c_v+16
	.byte W02
	.byte VOL, 4
	.byte BEND, c_v+21
	.byte W02
	.byte VOL, 1
	.byte BEND, c_v+27
	.byte W02
	.byte VOL, 0
	.byte BEND, c_v+32
	.byte W17
	.byte VOL, 7
	.byte BEND, c_v-47
	.byte N30, En3, v052, 1
	.byte W02
	.byte VOL, 9
	.byte BEND, c_v-42
	.byte W02
	.byte VOL, 12
	.byte BEND, c_v-36
	.byte W02
	.byte VOL, 16
	.byte BEND, c_v-31
	.byte W02
	.byte VOL, 23
	.byte BEND, c_v-26
	.byte W02
	.byte VOL, 29
	.byte BEND, c_v-21
	.byte W02
	.byte VOL, 31
	.byte BEND, c_v-15
	.byte W02
	.byte VOL, 30
	.byte BEND, c_v-10
	.byte W02
	.byte VOL, 27
	.byte BEND, c_v-5
	.byte W02
	.byte VOL, 20
	.byte BEND, c_v
	.byte W02
	.byte VOL, 14
	.byte BEND, c_v+6
	.byte W02
	.byte VOL, 10
	.byte BEND, c_v+11
	.byte W02
	.byte VOL, 6
	.byte BEND, c_v+16
	.byte W02
	.byte VOL, 4
	.byte BEND, c_v+21
	.byte W02
	.byte VOL, 1
	.byte BEND, c_v+27
	.byte W02
	.byte VOL, 0
	.byte BEND, c_v+32
	.byte W17
	.byte VOL, 7
	.byte BEND, c_v-47
	.byte N30, En3, v060, 1
	.byte W02
	.byte VOL, 9
	.byte BEND, c_v-42
	.byte W02
	.byte VOL, 12
	.byte BEND, c_v-36
	.byte W02
	.byte VOL, 16
	.byte BEND, c_v-31
	.byte W02
	.byte VOL, 23
	.byte BEND, c_v-26
	.byte W02
	.byte VOL, 29
	.byte BEND, c_v-21
	.byte W02
	.byte VOL, 31
	.byte BEND, c_v-15
	.byte W02
	.byte VOL, 30
	.byte BEND, c_v-10
	.byte W02
	.byte VOL, 27
	.byte BEND, c_v-5
	.byte W02
	.byte VOL, 20
	.byte BEND, c_v
	.byte W02
	.byte VOL, 14
	.byte BEND, c_v+6
	.byte W02
	.byte VOL, 10
	.byte BEND, c_v+11
	.byte W02
	.byte VOL, 6
	.byte BEND, c_v+16
	.byte W02
	.byte VOL, 4
	.byte BEND, c_v+21
	.byte W02
	.byte VOL, 1
	.byte BEND, c_v+27
	.byte W02
	.byte VOL, 0
	.byte BEND, c_v+32
	.byte W17
	.byte VOL, 7
	.byte BEND, c_v-47
	.byte N30, En3, v072, 1
	.byte W02
	.byte VOL, 9
	.byte BEND, c_v-42
	.byte W02
	.byte VOL, 12
	.byte BEND, c_v-36
	.byte W02
	.byte VOL, 16
	.byte BEND, c_v-31
	.byte W02
	.byte VOL, 23
	.byte BEND, c_v-26
	.byte W02
	.byte VOL, 29
	.byte BEND, c_v-21
	.byte W02
	.byte VOL, 31
	.byte BEND, c_v-15
	.byte W02
	.byte VOL, 30
	.byte BEND, c_v-10
	.byte W02
	.byte VOL, 27
	.byte BEND, c_v-5
	.byte W02
	.byte VOL, 20
	.byte BEND, c_v
	.byte W02
	.byte VOL, 14
	.byte BEND, c_v+6
	.byte W02
	.byte VOL, 10
	.byte BEND, c_v+11
	.byte W02
	.byte VOL, 6
	.byte BEND, c_v+16
	.byte W02
	.byte VOL, 4
	.byte BEND, c_v+21
	.byte W02
	.byte VOL, 1
	.byte BEND, c_v+27
	.byte W02
	.byte VOL, 0
	.byte BEND, c_v+32
	.byte W17
	.byte VOL, 7
	.byte BEND, c_v-47
	.byte N30, En3, v072, 1
	.byte W02
	.byte VOL, 9
	.byte BEND, c_v-42
	.byte W02
	.byte VOL, 12
	.byte BEND, c_v-36
	.byte W02
	.byte VOL, 16
	.byte BEND, c_v-31
	.byte W02
	.byte VOL, 23
	.byte BEND, c_v-26
	.byte W02
	.byte VOL, 29
	.byte BEND, c_v-21
	.byte W02
	.byte VOL, 31
	.byte BEND, c_v-15
	.byte W02
	.byte VOL, 30
	.byte BEND, c_v-10
	.byte W02
	.byte VOL, 27
	.byte BEND, c_v-5
	.byte W02
	.byte VOL, 20
	.byte BEND, c_v
	.byte W02
	.byte VOL, 14
	.byte BEND, c_v+6
	.byte W02
	.byte VOL, 10
	.byte BEND, c_v+11
	.byte W02
	.byte VOL, 6
	.byte BEND, c_v+16
	.byte W02
	.byte VOL, 4
	.byte BEND, c_v+21
	.byte W02
	.byte VOL, 1
	.byte BEND, c_v+27
	.byte W02
	.byte VOL, 0
	.byte BEND, c_v+32
	.byte W01
	.byte FINE

.align 2

track_661:
	.byte 2
	.byte 0
	.byte 228
	.byte 0
	.word voice_group3
	.word track_661_0
	.word track_661_1

.align 2
