.align 2

.global track_411

track_411_0:
	.byte KEYSH, 0
	.byte TEMPO, 75
	.byte VOICE, 6
	.byte VOL, 80
	.byte PAN, c_v
	.byte BENDR, 12
	.byte BEND, c_v-63
	.byte N36
	.byte En3, Gs4, CsM2
	.byte W02
	.byte VOL, 87
	.byte BEND, c_v-53
	.byte W02
	.byte VOL, 99
	.byte BEND, c_v-40
	.byte W02
	.byte VOL, 127
	.byte BEND, c_v-19
	.byte W02
	.byte Gn4
	.byte W02
	.byte Bn7
	.byte W03
	.byte Gn7
	.byte W02
	.byte Cs6
	.byte W02
	.byte En4
	.byte W02
	.byte Fn2
	.byte W02
	.byte Bn1
	.byte W02
	.byte Ds2
	.byte W01
	.byte Gs2
	.byte W02
	.byte An3
	.byte W02
	.byte Fn4
	.byte W02
	.byte VOL, 55
	.byte W02
	.byte Ds0
	.byte BEND, c_v+15
	.byte W02
	.byte VOL, 11
	.byte BEND, c_v+9
	.byte W02
	.byte VOL, 0
	.byte BEND, c_v+1
	.byte W36
	.byte W03
	.byte VOL, 80
	.byte PAN, c_v
	.byte BEND, c_v-63
	.byte N21
	.byte Cn3
	.byte W02
	.byte VOL, 87
	.byte BEND, c_v-53
	.byte W02
	.byte VOL, 99
	.byte BEND, c_v-40
	.byte W02
	.byte VOL, 127
	.byte BEND, c_v-19
	.byte W02
	.byte Gn4
	.byte W02
	.byte Bn7
	.byte W03
	.byte Gn7
	.byte W02
	.byte Cs6
	.byte W02
	.byte En4
	.byte W02
	.byte Fn2
	.byte W01
	.byte Cs2
	.byte W01
	.byte VOL, 80
	.byte BEND, c_v-63
	.byte N36
	.byte Gn3, Cn8, CsM2
	.byte W02
	.byte VOL, 87
	.byte BEND, c_v-53
	.byte W02
	.byte VOL, 99
	.byte BEND, c_v-40
	.byte W02
	.byte VOL, 127
	.byte BEND, c_v-19
	.byte W02
	.byte Gn4
	.byte W02
	.byte Bn7
	.byte W02
	.byte Gn7
	.byte W02
	.byte Bn6
	.byte W02
	.byte Ds5
	.byte W02
	.byte Gn3
	.byte W02
	.byte Gn2
	.byte W01
	.byte Bn1
	.byte W04
	.byte Ds2
	.byte W02
	.byte Cs4
	.byte W02
	.byte VOL, 81
	.byte BEND, c_v+14
	.byte W02
	.byte VOL, 39
	.byte BEND, c_v+21
	.byte W02
	.byte VOL, 19
	.byte BEND, c_v+31
	.byte W02
	.byte VOL, 5
	.byte BEND, c_v+50
	.byte W01
	.byte VOL, 0
	.byte BEND, c_v+63
	.byte W10
	.byte VOICE, 8
	.byte VOL, 120
	.byte PAN, c_v
	.byte BEND, c_v
	.byte W02
	.byte N12
	.byte Cn3, Gs4
	.byte W12
	.byte Cn3, En6
	.byte W12
	.byte N12
	.byte W12
	.byte N12
	.byte W12
	.byte N12
	.byte W12
	.byte N12
	.byte W12
	.byte N12
	.byte W12
	.byte N20
	.byte W60

	.byte FINE

track_411_1:
	.byte KEYSH, 0
	.byte W28
	.byte VOICE, 6
	.byte VOL, 0
	.byte PAN, c_v
	.byte BENDR, 12
	.byte BEND, c_v
	.byte W01
	.byte N48
	.byte An2, Cn3, DnM2
	.byte W01
	.byte VOL, 10
	.byte W01
	.byte BEND, c_v+14
	.byte W01
	.byte VOL, 42
	.byte W01
	.byte Gs4
	.byte BEND, c_v+23
	.byte W02
	.byte Fs5
	.byte W03
	.byte Fn5
	.byte W02
	.byte An4
	.byte W02
	.byte An3
	.byte W02
	.byte Fn2
	.byte W02
	.byte Bn0
	.byte W02
	.byte Ds0
	.byte W02
	.byte BnM1
	.byte W02
	.byte Ds0
	.byte W02
	.byte Cs0
	.byte W02
	.byte CnM1
	.byte W02
	.byte FnM2
	.byte W02
	.byte FnM2
	.byte W02
	.byte CsM1
	.byte W02
	.byte Cs0
	.byte W02
	.byte Bn1
	.byte W02
	.byte Bn2
	.byte W02
	.byte Bn2
	.byte W02
	.byte An1
	.byte W02
	.byte BnM1
	.byte W01
	.byte VOL, 80
	.byte W01
	.byte BEND, c_v-56
	.byte W01
	.byte VOL, 11
	.byte BEND, c_v-61
	.byte W01
	.byte VOL, 0
	.byte W18
	.byte W15
	.byte Gs4
	.byte PAN, c_v
	.byte BEND, c_v-63
	.byte N36
	.byte Gn3, Gs0, CsM2
	.byte W02
	.byte VOL, 87
	.byte BEND, c_v-53
	.byte W02
	.byte VOL, 99
	.byte BEND, c_v-40
	.byte W02
	.byte VOL, 127
	.byte BEND, c_v-19
	.byte W02
	.byte Gn4
	.byte W02
	.byte Bn7
	.byte W02
	.byte Gn7
	.byte W02
	.byte Bn6
	.byte W02
	.byte Ds5
	.byte W02
	.byte Gn3
	.byte W02
	.byte Gn2
	.byte W01
	.byte Bn1
	.byte W04
	.byte Ds2
	.byte W02
	.byte Cs4
	.byte W02
	.byte VOL, 81
	.byte BEND, c_v+14
	.byte W02
	.byte VOL, 39
	.byte BEND, c_v+21
	.byte W02
	.byte VOL, 19
	.byte BEND, c_v+31
	.byte W02
	.byte VOL, 5
	.byte BEND, c_v+50
	.byte W01
	.byte VOL, 0
	.byte BEND, c_v+63
	.byte W44
	.byte W01
	.byte W96

	.byte FINE

track_411_2:
	.byte KEYSH, 0
	.byte W96
	.byte W32
	.byte W03
	.byte VOICE, 9
	.byte VOL, 110
	.byte PAN, c_v
	.byte W01
	.byte N02
	.byte Cn3, En6
	.byte W02
	.byte VOICE, 10
	.byte N18
	.byte Cn3, Gn8
	.byte W18
	.byte VOICE, 9
	.byte N02
	.byte Cn3, En6
	.byte W02
	.byte VOICE, 10
	.byte N18
	.byte An2, Gn8
	.byte W18
	.byte VOICE, 9
	.byte N02
	.byte Cn3, En6
	.byte W02
	.byte VOICE, 10
	.byte N18
	.byte Cn3, Gn8
	.byte W18
	.byte VOICE, 9
	.byte N02
	.byte Cn3, En6
	.byte W02
	.byte VOICE, 10
	.byte N18
	.byte En3, Gn8
	.byte W18
	.byte VOICE, 9
	.byte N02
	.byte Bn2, En6
	.byte W02
	.byte VOICE, 10
	.byte N18
	.byte Cn3, Gn8
	.byte W72
	.byte W02

	.byte FINE

track_411_3:
	.byte KEYSH, 0
	.byte W96
	.byte W32
	.byte W03
	.byte VOICE, 11
	.byte VOL, 127
	.byte PAN, c_v
	.byte W07
	.byte N05
	.byte Gs2, En6
	.byte W05
	.byte N10
	.byte Gs2, Gn8
	.byte W10
	.byte N05
	.byte Fn2, En6
	.byte W05
	.byte N10
	.byte Fn2, Gn8
	.byte W10
	.byte N05
	.byte Gs2, En6
	.byte W05
	.byte N10
	.byte Gs2, Gn8
	.byte W10
	.byte N05
	.byte Fn2, En6
	.byte W05
	.byte N10
	.byte Fn2, Gn8
	.byte W04
	.byte W06
	.byte N05
	.byte Gs2, En6
	.byte W05
	.byte N10
	.byte Gs2, Gn8
	.byte W10
	.byte N05
	.byte Fn2, En6
	.byte W05
	.byte N10
	.byte Fn2, Gn8
	.byte W10
	.byte N05
	.byte Gs2, Gs4
	.byte W05
	.byte N10
	.byte Gs2, En6
	.byte W54
	.byte W01

	.byte FINE

.align 2

track_411:
	.byte 4
	.byte 0
	.byte 251
	.byte 0
	.word voice_group6
	.word track_411_0
	.word track_411_1
	.word track_411_2
	.word track_411_3

.align 2
