.align 2

.global track_55

track_55_0:
	.byte KEYSH, 0
	.byte TEMPO, 56
	.byte VOICE, 15
	.byte PAN, c_v-14
	.byte VOL, 47
	.byte PRIO, 120
	.byte N24, Cn4, v060
	.byte W24
	.byte An3 @ N24, v060
	.byte W24
	.byte N12, Gn3, v052
	.byte W12
	.byte En3, v060 @ N12
	.byte W12
	.byte Cn3 @ N12, v060
	.byte W12
	.byte En3 @ N12, v060
	.byte W12
	.byte Dn4, v052 @ N12
	.byte W12
	.byte As3, v060 @ N12
	.byte W12
	.byte Gn3 @ N12, v060
	.byte W12
	.byte Ds3, v052 @ N12
	.byte W12
	.byte N03, En3 @ v052
	.byte W03
	.byte Fs3, v048 @ N03
	.byte W03
	.byte En3 @ N03, v048
	.byte W03
	.byte Fs3 @ N03, v048
	.byte W03
	.byte En3, v044 @ N03
	.byte W03
	.byte Fs3 @ N03, v044
	.byte W03
	.byte En3 @ N03, v044
	.byte W03
	.byte Fs3 @ N03, v044
	.byte W03
	.byte En3, v040 @ N03
	.byte W03
	.byte Fs3 @ N03, v040
	.byte W03
	.byte En3 @ N03, v040
	.byte W03
	.byte Fs3, v036 @ N03
	.byte W03
	.byte En3 @ N03, v036
	.byte W03
	.byte Fs3 @ N03, v036
	.byte W03
	.byte En3, v032 @ N03
	.byte W03
	.byte Fs3 @ N03, v032
	.byte W03
	.byte En3 @ N03, v032
	.byte W03
	.byte Fs3, v028 @ N03
	.byte W03
	.byte En3 @ N03, v028
	.byte W03
	.byte Fs3 @ N03, v028
	.byte W03
	.byte En3, v024 @ N03
	.byte W03
	.byte Fs3 @ N03, v024
	.byte W03
	.byte En3 @ N03, v024
	.byte W03
	.byte Fs3 @ N03, v024
	.byte W03
	.byte En3, v020 @ N03
	.byte W03
	.byte Fs3 @ N03, v020
	.byte W03
	.byte En3 @ N03, v020
	.byte W03
	.byte Fs3, v016 @ N03
	.byte W03
	.byte En3 @ N03, v016
	.byte W03
	.byte Fs3 @ N03, v016
	.byte W03
	.byte En3, v012 @ N03
	.byte W03
	.byte Fs3 @ N03, v012
	.byte W03
	.byte En3 @ N03, v012
	.byte W03
	.byte Fs3, v008 @ N03
	.byte W03
	.byte En3 @ N03, v008
	.byte W03
	.byte Fs3 @ N03, v008
	.byte W03
	.byte En3, v004 @ N03
	.byte W03
	.byte Fs3 @ N03, v004
	.byte W03
	.byte En3 @ N03, v004
	.byte W03
	.byte Fs3 @ N03, v004
	.byte W03
	.byte 0xB6

track_55_1:
	.byte KEYSH, 0
	.byte VOICE, 28
	.byte PAN, c_v+16
	.byte VOL, 31
	.byte PRIO, 119
	.byte N24, Cn4, v052
	.byte W24
	.byte An3 @ N24, v052
	.byte W24
	.byte N12, Gn3 @ v052
	.byte W12
	.byte En3 @ N12, v052
	.byte W12
	.byte Cn3 @ N12, v052
	.byte W12
	.byte En3 @ N12, v052
	.byte W12
	.byte Dn4, v040 @ N12
	.byte W12
	.byte As3 @ N12, v040
	.byte W12
	.byte Gn3 @ N12, v040
	.byte W12
	.byte Ds3, v032 @ N12
	.byte W12
	.byte TIE, Fs3 @ v032
	.byte W48
	.byte W32
	.byte W02
	.byte VOL, 30
	.byte W01
	.byte 29 @ VOL
	.byte W01
	.byte 29 @ VOL
	.byte W01
	.byte 28 @ VOL
	.byte W01
	.byte 27 @ VOL
	.byte W01
	.byte 25 @ VOL
	.byte W01
	.byte 25 @ VOL
	.byte W01
	.byte 23 @ VOL
	.byte W01
	.byte 22 @ VOL
	.byte W01
	.byte 21 @ VOL
	.byte W01
	.byte 19 @ VOL
	.byte W01
	.byte 18 @ VOL
	.byte W01
	.byte 17 @ VOL
	.byte W01
	.byte 16 @ VOL
	.byte W01
	.byte 14 @ VOL
	.byte W01
	.byte 14 @ VOL
	.byte W01
	.byte 12 @ VOL
	.byte W01
	.byte 11 @ VOL
	.byte W01
	.byte 10 @ VOL
	.byte W01
	.byte 8 @ VOL
	.byte W01
	.byte 7 @ VOL
	.byte W01
	.byte 7 @ VOL
	.byte W01
	.byte 7 @ VOL
	.byte W01
	.byte 7 @ VOL
	.byte W01
	.byte 7 @ VOL
	.byte W01
	.byte 7 @ VOL
	.byte W01
	.byte 7 @ VOL
	.byte W01
	.byte 7 @ VOL
	.byte W01
	.byte 7 @ VOL
	.byte W01
	.byte 7 @ VOL
	.byte W01
	.byte 7 @ VOL
	.byte W01
	.byte 7 @ VOL
	.byte W01
	.byte 7 @ VOL
	.byte W01
	.byte 7 @ VOL
	.byte W01
	.byte 7 @ VOL
	.byte W01
	.byte 7 @ VOL
	.byte W01
	.byte 7 @ VOL
	.byte W01
	.byte 7 @ VOL
	.byte W01
	.byte EOT @ Fs3, v032
	.byte 0xB6

track_55_2:
	.byte KEYSH, 0
	.byte VOICE, 12
	.byte PAN, c_v-24
	.byte VOL, 78
	.byte PRIO, 118
	.byte N44, As1, v092, 3
	.byte W48
	.byte An1, v080, 3 @ N44
	.byte W48
	.byte VOICE, 102
	.byte PAN, c_v-20
	.byte N44, Ds1, v112, 2
	.byte W48
	.byte W01
	.byte TIE, Dn1, v100
	.byte W44
	.byte W03
	.byte W32
	.byte W03
	.byte VOL, 77
	.byte W01
	.byte 74 @ VOL
	.byte W01
	.byte 73 @ VOL
	.byte W01
	.byte 70 @ VOL
	.byte W01
	.byte 69 @ VOL
	.byte W01
	.byte 66 @ VOL
	.byte W01
	.byte 65 @ VOL
	.byte W01
	.byte 62 @ VOL
	.byte W01
	.byte 61 @ VOL
	.byte W01
	.byte 59 @ VOL
	.byte W01
	.byte 56 @ VOL
	.byte W01
	.byte 55 @ VOL
	.byte W01
	.byte 52 @ VOL
	.byte W01
	.byte 51 @ VOL
	.byte W01
	.byte 48 @ VOL
	.byte W01
	.byte 47 @ VOL
	.byte W01
	.byte 44 @ VOL
	.byte W01
	.byte 43 @ VOL
	.byte W01
	.byte 40 @ VOL
	.byte W01
	.byte 38 @ VOL
	.byte W01
	.byte 37 @ VOL
	.byte W01
	.byte 34 @ VOL
	.byte W01
	.byte 33 @ VOL
	.byte W01
	.byte 30 @ VOL
	.byte W01
	.byte 29 @ VOL
	.byte W01
	.byte 26 @ VOL
	.byte W01
	.byte 25 @ VOL
	.byte W01
	.byte 22 @ VOL
	.byte W01
	.byte 20 @ VOL
	.byte W01
	.byte 18 @ VOL
	.byte W01
	.byte 16 @ VOL
	.byte W01
	.byte 14 @ VOL
	.byte W01
	.byte 12 @ VOL
	.byte W01
	.byte 11 @ VOL
	.byte W01
	.byte 8 @ VOL
	.byte W01
	.byte 7 @ VOL
	.byte W02
	.byte EOT @ Dn1, v100
	.byte 0xB6

track_55_3:
	.byte KEYSH, 0
	.byte VOICE, 27
	.byte PAN, c_v
	.byte VOL, 62
	.byte PRIO, 30
	.byte N12, Fn2, v072
	.byte W12
	.byte As2, v076 @ N12
	.byte W12
	.byte Cn3, v080 @ N12
	.byte W12
	.byte Dn3, v084 @ N12
	.byte W12
	.byte En3, v072 @ N12
	.byte W12
	.byte Cn3, v080 @ N12
	.byte W12
	.byte Gn2 @ N12, v080
	.byte W12
	.byte Cn3, v072 @ N12
	.byte W12
	.byte Fn3 @ N12, v072
	.byte W12
	.byte Dn3 @ N12, v072
	.byte W12
	.byte As2, v060 @ N12
	.byte W12
	.byte Gn2 @ N12, v060
	.byte W12
	.byte TIE, An2, v052
	.byte W48
	.byte W03
	.byte VOL, 62
	.byte W01
	.byte 62 @ VOL
	.byte W01
	.byte 61 @ VOL
	.byte W01
	.byte 60 @ VOL
	.byte W01
	.byte 59 @ VOL
	.byte W01
	.byte 58 @ VOL
	.byte W01
	.byte 57 @ VOL
	.byte W01
	.byte 56 @ VOL
	.byte W01
	.byte 55 @ VOL
	.byte W01
	.byte 55 @ VOL
	.byte W01
	.byte 54 @ VOL
	.byte W01
	.byte 53 @ VOL
	.byte W01
	.byte 52 @ VOL
	.byte W01
	.byte 51 @ VOL
	.byte W01
	.byte 50 @ VOL
	.byte W01
	.byte 49 @ VOL
	.byte W01
	.byte 48 @ VOL
	.byte W01
	.byte 48 @ VOL
	.byte W01
	.byte 47 @ VOL
	.byte W01
	.byte 46 @ VOL
	.byte W01
	.byte 45 @ VOL
	.byte W01
	.byte 44 @ VOL
	.byte W01
	.byte 43 @ VOL
	.byte W01
	.byte 42 @ VOL
	.byte W01
	.byte 41 @ VOL
	.byte W01
	.byte 40 @ VOL
	.byte W01
	.byte 40 @ VOL
	.byte W01
	.byte 39 @ VOL
	.byte W01
	.byte 37 @ VOL
	.byte W01
	.byte 37 @ VOL
	.byte W01
	.byte 36 @ VOL
	.byte W01
	.byte 35 @ VOL
	.byte W01
	.byte 34 @ VOL
	.byte W01
	.byte 33 @ VOL
	.byte W01
	.byte 33 @ VOL
	.byte W01
	.byte 32 @ VOL
	.byte W01
	.byte 30 @ VOL
	.byte W01
	.byte 29 @ VOL
	.byte W01
	.byte 29 @ VOL
	.byte W01
	.byte 28 @ VOL
	.byte W01
	.byte 27 @ VOL
	.byte W01
	.byte 26 @ VOL
	.byte W01
	.byte 25 @ VOL
	.byte W01
	.byte 25 @ VOL
	.byte W01
	.byte 23 @ VOL
	.byte W01
	.byte 22 @ VOL
	.byte W01
	.byte 22 @ VOL
	.byte W01
	.byte 21 @ VOL
	.byte W01
	.byte 20 @ VOL
	.byte W01
	.byte 19 @ VOL
	.byte W01
	.byte 18 @ VOL
	.byte W01
	.byte 17 @ VOL
	.byte W01
	.byte 16 @ VOL
	.byte W01
	.byte 15 @ VOL
	.byte W01
	.byte 14 @ VOL
	.byte W01
	.byte 14 @ VOL
	.byte W01
	.byte 13 @ VOL
	.byte W01
	.byte 12 @ VOL
	.byte W01
	.byte 11 @ VOL
	.byte W01
	.byte 10 @ VOL
	.byte W01
	.byte 9 @ VOL
	.byte W01
	.byte 8 @ VOL
	.byte W01
	.byte 7 @ VOL
	.byte W01
	.byte 7 @ VOL
	.byte W01
	.byte 6 @ VOL
	.byte W01
	.byte 5 @ VOL
	.byte W01
	.byte 4 @ VOL
	.byte W01
	.byte 3 @ VOL
	.byte W01
	.byte 2 @ VOL
	.byte W01
	.byte EOT @ An2, v052
	.byte VOL, 1
	.byte 0xB6

track_55_4:
	.byte KEYSH, 0
	.byte VOICE, 102
	.byte VOL, 78
	.byte PAN, c_v+26
	.byte PRIO, 29
	.byte N44, As2, v040, 3
	.byte W48
	.byte An2, v040, 3 @ N44
	.byte W48
	.byte N48, Ds2, v060
	.byte W48
	.byte TIE, Dn2 @ v060
	.byte W48
	.byte W32
	.byte W02
	.byte VOL, 78
	.byte W01
	.byte 76 @ VOL
	.byte W01
	.byte 74 @ VOL
	.byte W01
	.byte 72 @ VOL
	.byte W01
	.byte 70 @ VOL
	.byte W01
	.byte 68 @ VOL
	.byte W01
	.byte 66 @ VOL
	.byte W01
	.byte 64 @ VOL
	.byte W01
	.byte 62 @ VOL
	.byte W01
	.byte 60 @ VOL
	.byte W01
	.byte 58 @ VOL
	.byte W01
	.byte 56 @ VOL
	.byte W01
	.byte 54 @ VOL
	.byte W01
	.byte 52 @ VOL
	.byte W01
	.byte 50 @ VOL
	.byte W01
	.byte 48 @ VOL
	.byte W01
	.byte 46 @ VOL
	.byte W01
	.byte 44 @ VOL
	.byte W01
	.byte 42 @ VOL
	.byte W01
	.byte 40 @ VOL
	.byte W01
	.byte 38 @ VOL
	.byte W01
	.byte 36 @ VOL
	.byte W01
	.byte 34 @ VOL
	.byte W01
	.byte 32 @ VOL
	.byte W01
	.byte 29 @ VOL
	.byte W01
	.byte 28 @ VOL
	.byte W01
	.byte 25 @ VOL
	.byte W01
	.byte 24 @ VOL
	.byte W01
	.byte 22 @ VOL
	.byte W01
	.byte 20 @ VOL
	.byte W01
	.byte 18 @ VOL
	.byte W01
	.byte 16 @ VOL
	.byte W01
	.byte 14 @ VOL
	.byte W01
	.byte 11 @ VOL
	.byte W01
	.byte 10 @ VOL
	.byte W01
	.byte 7 @ VOL
	.byte W01
	.byte 6 @ VOL
	.byte W02
	.byte EOT @ Dn2, v060
	.byte 0xB6

.align 2

track_55:
	.byte 5
	.byte 0
	.byte 130
	.byte 0
	.word voice_group20
	.word track_55_0
	.word track_55_1
	.word track_55_2
	.word track_55_3
	.word track_55_4

.align 2
