.align 2

.global track_54

track_54_0:
	.byte KEYSH, 0
	.byte TEMPO, 45
	.byte VOICE, 24
	.byte VOL, 62
	.byte PAN, c_v
	.byte PRIO, 120
	.byte N22, Dn3, v068
	.byte W24
	.byte N24, Fn3, v036
	.byte W24
	.byte Dn3, v068 @ N24
	.byte W24
	.byte Cn3 @ N24, v068
	.byte W24
	.byte VOICE, 89
	.byte N36, An2 @ v068
	.byte W48
	.byte N40 @ An2, v068
	.byte W48
	.byte W24
	.byte 0xB6

track_54_1:
	.byte KEYSH, 0
	.byte VOICE, 90
	.byte VOL, 55
	.byte PAN, c_v-10
	.byte PRIO, 119
	.byte N03, Gn4, v072
	.byte W06
	.byte N03 @ Gn4, v072
	.byte W06
	.byte N03 @ Gn4, v072
	.byte W06
	.byte N03 @ Gn4, v072
	.byte W06
	.byte An4, v056 @ N03
	.byte W06
	.byte N03 @ An4, v056
	.byte W06
	.byte N03 @ An4, v056
	.byte W06
	.byte N03 @ An4, v056
	.byte W06
	.byte Fn4, v060 @ N03
	.byte W06
	.byte N03 @ Fn4, v060
	.byte W06
	.byte N03 @ Fn4, v060
	.byte W06
	.byte N03 @ Fn4, v060
	.byte W06
	.byte En4, v072 @ N03
	.byte W06
	.byte N03 @ En4, v072
	.byte W06
	.byte N03 @ En4, v072
	.byte W06
	.byte N03 @ En4, v072
	.byte W06
	.byte Dn4 @ N03, v072
	.byte W06
	.byte N03 @ Dn4, v072
	.byte W06
	.byte N03 @ Dn4, v072
	.byte W06
	.byte N03 @ Dn4, v072
	.byte W06
	.byte N03 @ Dn4, v072
	.byte W06
	.byte N03 @ Dn4, v072
	.byte W06
	.byte N03 @ Dn4, v072
	.byte W06
	.byte N03 @ Dn4, v072
	.byte W06
	.byte N03 @ Dn4, v072
	.byte W06
	.byte N03 @ Dn4, v072
	.byte W06
	.byte N03 @ Dn4, v072
	.byte W06
	.byte N03 @ Dn4, v072
	.byte W06
	.byte N03 @ Dn4, v072
	.byte W06
	.byte N03 @ Dn4, v072
	.byte W06
	.byte N03 @ Dn4, v072
	.byte W06
	.byte N03 @ Dn4, v072
	.byte W06
	.byte W24
	.byte 0xB6

track_54_2:
	.byte KEYSH, 0
	.byte VOICE, 90
	.byte VOL, 55
	.byte PAN, c_v-34
	.byte PRIO, 119
	.byte W03
	.byte N03, Cn4, v072
	.byte W06
	.byte N03 @ Cn4, v072
	.byte W06
	.byte N03 @ Cn4, v072
	.byte W06
	.byte N03 @ Cn4, v072
	.byte W06
	.byte Cn4, v056 @ N03
	.byte W06
	.byte N03 @ Cn4, v056
	.byte W06
	.byte N03 @ Cn4, v056
	.byte W06
	.byte N03 @ Cn4, v056
	.byte W06
	.byte As3, v072 @ N03
	.byte W06
	.byte N03 @ As3, v072
	.byte W06
	.byte N03 @ As3, v072
	.byte W06
	.byte N03 @ As3, v072
	.byte W06
	.byte An3 @ N03, v072
	.byte W06
	.byte N03 @ An3, v072
	.byte W06
	.byte N03 @ An3, v072
	.byte W06
	.byte N03 @ An3, v072
	.byte W03
	.byte W03
	.byte En3 @ N03, v072
	.byte W06
	.byte N03 @ En3, v072
	.byte W06
	.byte N03 @ En3, v072
	.byte W06
	.byte N03 @ En3, v072
	.byte W06
	.byte Fs3 @ N03, v072
	.byte W06
	.byte N03 @ Fs3, v072
	.byte W06
	.byte N03 @ Fs3, v072
	.byte W06
	.byte N03 @ Fs3, v072
	.byte W06
	.byte N03 @ Fs3, v072
	.byte W06
	.byte N03 @ Fs3, v072
	.byte W06
	.byte N03 @ Fs3, v072
	.byte W06
	.byte N03 @ Fs3, v072
	.byte W06
	.byte N03 @ Fs3, v072
	.byte W06
	.byte N03 @ Fs3, v072
	.byte W06
	.byte N03 @ Fs3, v072
	.byte W06
	.byte N03 @ Fs3, v072
	.byte W03
	.byte W24
	.byte 0xB6

track_54_3:
	.byte KEYSH, 0
	.byte VOICE, 91
	.byte VOL, 78
	.byte PAN, c_v+10
	.byte PRIO, 118
	.byte N22, Ds2, v084
	.byte W24
	.byte N24, Dn2, v068
	.byte W24
	.byte W01
	.byte N23, Cn2, v076
	.byte W24
	.byte An1, v084 @ N23
	.byte W23
	.byte W01
	.byte N92, Dn1, v084, 3
	.byte W92
	.byte W03
	.byte W24
	.byte 0xB6

track_54_4:
	.byte KEYSH, 0
	.byte VOICE, 91
	.byte VOL, 62
	.byte PAN, c_v-10
	.byte PRIO, 30
	.byte W96
	.byte N96, Dn2, v072
	.byte W96
	.byte W24
	.byte 0xB6

track_54_5:
	.byte KEYSH, 0
	.byte VOICE, 92
	.byte VOL, 55
	.byte PAN, c_v+36
	.byte PRIO, 29
	.byte N48, Cn3, v044
	.byte W48
	.byte N24, As2 @ v044
	.byte W24
	.byte An2 @ N24, v044
	.byte W24
	.byte En2 @ N24, v044
	.byte W24
	.byte N72, Fs2 @ v044
	.byte W72
	.byte W24
	.byte 0xB6

.align 2

track_54:
	.byte 6
	.byte 0
	.byte 130
	.byte 128
	.word voice_group20
	.word track_54_0
	.word track_54_1
	.word track_54_2
	.word track_54_3
	.word track_54_4
	.word track_54_5

.align 2
