.include "audio/m_play_def.s"

.align 2

.section .rodata
.global track_297

track_297_0:
	.byte KEYSH, 0
	.byte TEMPO, 75
	.byte VOICE, 26
	.byte MOD, 35
	.byte VOL, 0
	.byte PAN, c_v
	.byte LFOS, 110
	.byte MODT, mod_tre
	.byte TIE
	.byte Fs4, En1
	.byte W01
track_297_lbl_20eb4c:
	.byte W02
	.byte VOL, 1
	.byte W03
	.byte DnM2
	.byte W03
	.byte EnM2
	.byte W03
	.byte FsM2
	.byte W03
	.byte GnM2
	.byte W03
	.byte AnM2
	.byte W03
	.byte BnM2
	.byte W03
	.byte DnM1
	.byte W03
	.byte FnM1
	.byte W01
	.byte FsM1
	.byte W02
	.byte AnM1
	.byte W03
	.byte BnM1
	.byte W06
	.byte AsM1
	.byte W03
	.byte GsM1
	.byte W03
	.byte FnM1
	.byte W03
	.byte DnM1
	.byte W03
	.byte BnM2
	.byte W03
	.byte GsM2
	.byte W03
	.byte GnM2
	.byte W03
	.byte FnM2
	.byte W03
	.byte DsM2
	.byte W03
	.byte DnM2
	.byte W03
	.byte CnM2
	.byte W03
	.byte CnM2
	.byte W03
	.byte CsM2
	.byte W03
	.byte DnM2
	.byte W03
	.byte EnM2
	.byte W03
	.byte FsM2
	.byte W03
	.byte GnM2
	.byte W03
	.byte AnM2
	.byte W03
	.byte BnM2
	.byte W03
	.byte DnM1
	.byte W03
	.byte FnM1
	.byte W01
	.byte FsM1
	.byte W02
	.byte AnM1
	.byte W03
	.byte BnM1
	.byte W06
	.byte AsM1
	.byte W03
	.byte GsM1
	.byte W03
	.byte FnM1
	.byte W03
	.byte DnM1
	.byte W03
	.byte BnM2
	.byte W03
	.byte GsM2
	.byte W03
	.byte GnM2
	.byte W03
	.byte FnM2
	.byte W03
	.byte DsM2
	.byte W03
	.byte DnM2
	.byte W03
	.byte CnM2
	.byte W01
	.byte GOTO
		.word track_297_lbl_20eb4c
	.byte W01
	.byte EOT, Fs4

	.byte FINE

track_297_1:
	.byte KEYSH, 0
	.byte VOICE, 27
	.byte VOL, 9
	.byte PAN, c_v
	.byte TIE
	.byte Cn3, Cn4
	.byte W01
track_297_lbl_20ebc1:
	.byte W02
	.byte VOL, 10
	.byte W03
	.byte CnM1
	.byte W03
	.byte DnM1
	.byte W03
	.byte EnM1
	.byte W03
	.byte GnM1
	.byte W03
	.byte AsM1
	.byte W03
	.byte Cs0
	.byte W03
	.byte Fn0
	.byte W03
	.byte As0
	.byte W03
	.byte Dn1
	.byte W03
	.byte Gs1
	.byte W03
	.byte As1
	.byte W03
	.byte Gs1
	.byte W03
	.byte Ds1
	.byte W03
	.byte Gs0
	.byte W03
	.byte Ds0
	.byte W03
	.byte Cn0
	.byte W03
	.byte AnM1
	.byte W03
	.byte FsM1
	.byte W03
	.byte DsM1
	.byte W03
	.byte CsM1
	.byte W03
	.byte BnM2
	.byte W03
	.byte AsM2
	.byte W03
	.byte AnM2
	.byte W03
	.byte AsM2
	.byte W03
	.byte CnM1
	.byte W03
	.byte DnM1
	.byte W03
	.byte EnM1
	.byte W03
	.byte GnM1
	.byte W03
	.byte AsM1
	.byte W03
	.byte Cs0
	.byte W03
	.byte Fn0
	.byte W03
	.byte As0
	.byte W03
	.byte Dn1
	.byte W03
	.byte Gs1
	.byte W03
	.byte As1
	.byte W03
	.byte Gs1
	.byte W03
	.byte Ds1
	.byte W03
	.byte Gs0
	.byte W03
	.byte Ds0
	.byte W03
	.byte Cn0
	.byte W03
	.byte AnM1
	.byte W03
	.byte FsM1
	.byte W03
	.byte DsM1
	.byte W03
	.byte CsM1
	.byte W03
	.byte BnM2
	.byte W03
	.byte AsM2
	.byte W01
	.byte GOTO
		.word track_297_lbl_20ebc1
	.byte W01
	.byte EOT, Cn3

	.byte FINE

track_297_2:
	.byte KEYSH, 0
	.byte VOICE, 26
	.byte MOD, 10
	.byte VOL, 9
	.byte PAN, c_v
	.byte LFOS, 127
	.byte MODT, mod_tre
	.byte TIE
	.byte Gn3, Cn4
	.byte W01
track_297_lbl_20ec3c:
	.byte W02
	.byte VOL, 11
	.byte W03
	.byte CsM1
	.byte W03
	.byte DsM1
	.byte W03
	.byte FsM1
	.byte W03
	.byte AnM1
	.byte W03
	.byte Cn0
	.byte W03
	.byte Ds0
	.byte W03
	.byte Gn0
	.byte W03
	.byte Bn0
	.byte W03
	.byte Ds1
	.byte W03
	.byte Gs1
	.byte W03
	.byte Bn1
	.byte W03
	.byte An1
	.byte W03
	.byte En1
	.byte W03
	.byte As0
	.byte W03
	.byte Fn0
	.byte W03
	.byte Cs0
	.byte W03
	.byte AsM1
	.byte W03
	.byte GnM1
	.byte W03
	.byte FnM1
	.byte W03
	.byte DnM1
	.byte W03
	.byte CnM1
	.byte W03
	.byte AsM2
	.byte W03
	.byte AnM2
	.byte W03
	.byte BnM2
	.byte W03
	.byte CsM1
	.byte W03
	.byte DsM1
	.byte W03
	.byte FsM1
	.byte W03
	.byte AnM1
	.byte W03
	.byte Cn0
	.byte W03
	.byte Ds0
	.byte W03
	.byte Gn0
	.byte W03
	.byte Bn0
	.byte W03
	.byte Ds1
	.byte W03
	.byte Gs1
	.byte W03
	.byte Bn1
	.byte W03
	.byte An1
	.byte W03
	.byte En1
	.byte W03
	.byte As0
	.byte W03
	.byte Fn0
	.byte W03
	.byte Cs0
	.byte W03
	.byte AsM1
	.byte W03
	.byte GnM1
	.byte W03
	.byte FnM1
	.byte W03
	.byte DnM1
	.byte W03
	.byte CnM1
	.byte W03
	.byte AsM2
	.byte W01
	.byte GOTO
		.word track_297_lbl_20ec3c
	.byte W01
	.byte EOT, Gn3

	.byte FINE

.align 2

track_297:
	.byte 3
	.byte 0
	.byte 229
	.byte 0
	.word voice_group4
	.word track_297_0
	.word track_297_1
	.word track_297_2

.align 2
