.align 2

.global track_651

track_651_0:
	.byte KEYSH, 0
	.byte TEMPO, 75
	.byte VOICE, 15
	.byte VOL, 0
	.byte PAN, c_v
	.byte BENDR, 24
	.byte BEND, c_v-63
	.byte N90
	.byte Cn3, En2
	.byte W01
	.byte VOL, 3
	.byte BEND, c_v-61
	.byte W01
	.byte VOL, 6
	.byte BEND, c_v-58
	.byte W01
	.byte VOL, 9
	.byte BEND, c_v-56
	.byte W01
	.byte VOL, 13
	.byte BEND, c_v-53
	.byte W01
	.byte VOL, 18
	.byte BEND, c_v-51
	.byte W01
	.byte VOL, 23
	.byte BEND, c_v-49
	.byte W01
	.byte VOL, 28
	.byte BEND, c_v-46
	.byte W01
	.byte VOL, 35
	.byte BEND, c_v-44
	.byte W01
	.byte VOL, 44
	.byte BEND, c_v-42
	.byte W01
	.byte VOL, 53
	.byte BEND, c_v-39
	.byte W01
	.byte VOL, 66
	.byte BEND, c_v-37
	.byte W01
	.byte VOL, 86
	.byte BEND, c_v-34
	.byte W01
	.byte Gs0
	.byte W01
	.byte As0
	.byte W01
	.byte Cs1
	.byte W01
	.byte Ds1
	.byte W01
	.byte Fn1
	.byte W01
	.byte Gs1
	.byte W01
	.byte As1
	.byte W01
	.byte Cs2
	.byte W01
	.byte Ds2
	.byte W01
	.byte Fn2
	.byte W01
	.byte Gs2
	.byte W01
	.byte As2
	.byte W01
	.byte Cn3
	.byte W01
	.byte Ds3
	.byte W01
	.byte Fn3
	.byte W01
	.byte Gs3
	.byte W01
	.byte As3
	.byte W01
	.byte Cn4
	.byte W01
	.byte Ds4
	.byte W01
	.byte Fn4
	.byte W01
	.byte Gn4
	.byte W01
	.byte As4
	.byte W01
	.byte Cn5
	.byte W01
	.byte Ds5
	.byte W01
	.byte Fn5
	.byte W01
	.byte Gn5
	.byte W01
	.byte As5
	.byte W01
	.byte Cn6
	.byte W01
	.byte Dn6
	.byte W01
	.byte Fn6
	.byte W01
	.byte Gn6
	.byte W01
	.byte As6
	.byte W01
	.byte Cn7
	.byte W01
	.byte Dn7
	.byte W01
	.byte Fn7
	.byte W01
	.byte Gn7
	.byte W01
	.byte An7
	.byte W01
	.byte Cn8
	.byte W01
	.byte Dn8
	.byte W01
	.byte Fs8
	.byte W01
	.byte En8
	.byte W01
	.byte Dn8
	.byte W01
	.byte Cn8
	.byte W01
	.byte Bn7
	.byte W01
	.byte An7
	.byte W01
	.byte Gn7
	.byte W01
	.byte Fn7
	.byte W01
	.byte VOL, 86
	.byte BEND, c_v+47
	.byte W01
	.byte VOL, 77
	.byte BEND, c_v+45
	.byte W01
	.byte VOL, 70
	.byte BEND, c_v+43
	.byte W01
	.byte VOL, 63
	.byte BEND, c_v+42
	.byte W01
	.byte VOL, 58
	.byte BEND, c_v+40
	.byte W01
	.byte VOL, 51
	.byte BEND, c_v+38
	.byte W01
	.byte VOL, 47
	.byte BEND, c_v+36
	.byte W01
	.byte VOL, 42
	.byte BEND, c_v+34
	.byte W01
	.byte VOL, 38
	.byte BEND, c_v+32
	.byte W01
	.byte VOL, 34
	.byte BEND, c_v+30
	.byte W01
	.byte VOL, 32
	.byte BEND, c_v+28
	.byte W01
	.byte VOL, 28
	.byte BEND, c_v+27
	.byte W01
	.byte VOL, 25
	.byte BEND, c_v+25
	.byte W01
	.byte VOL, 23
	.byte BEND, c_v+23
	.byte W01
	.byte VOL, 21
	.byte BEND, c_v+21
	.byte W01
	.byte VOL, 19
	.byte BEND, c_v+19
	.byte W01
	.byte VOL, 17
	.byte BEND, c_v+17
	.byte W01
	.byte VOL, 14
	.byte BEND, c_v+15
	.byte W01
	.byte VOL, 12
	.byte BEND, c_v+14
	.byte W01
	.byte VOL, 11
	.byte BEND, c_v+12
	.byte W01
	.byte VOL, 10
	.byte BEND, c_v+10
	.byte W01
	.byte VOL, 9
	.byte BEND, c_v+8
	.byte W01
	.byte VOL, 7
	.byte BEND, c_v+6
	.byte W01
	.byte VOL, 6
	.byte BEND, c_v+4
	.byte W01
	.byte VOL, 5
	.byte BEND, c_v+2
	.byte W01
	.byte VOL, 4
	.byte BEND, c_v+1
	.byte W01
	.byte VOL, 3
	.byte BEND, c_v-1
	.byte W01
	.byte VOL, 2
	.byte BEND, c_v-3
	.byte W01
	.byte VOL, 0
	.byte W01
	.byte CnM2
	.byte W01

	.byte FINE

track_651_1:
	.byte KEYSH, 0
	.byte VOICE, 16
	.byte VOL, 0
	.byte PAN, c_v
	.byte BENDR, 22
	.byte BEND, c_v-63
	.byte N68
	.byte Cn3, Cn4, DsM2
	.byte W01
	.byte VOL, 9
	.byte BEND, c_v-61
	.byte W01
	.byte VOL, 19
	.byte BEND, c_v-58
	.byte W01
	.byte VOL, 28
	.byte BEND, c_v-56
	.byte W01
	.byte VOL, 38
	.byte BEND, c_v-53
	.byte W01
	.byte VOL, 47
	.byte BEND, c_v-51
	.byte W01
	.byte VOL, 57
	.byte BEND, c_v-49
	.byte W01
	.byte VOL, 66
	.byte BEND, c_v-46
	.byte W01
	.byte VOL, 76
	.byte BEND, c_v-44
	.byte W01
	.byte VOL, 85
	.byte BEND, c_v-42
	.byte W01
	.byte VOL, 82
	.byte BEND, c_v-39
	.byte W01
	.byte VOL, 77
	.byte BEND, c_v-37
	.byte W01
	.byte VOL, 73
	.byte BEND, c_v-34
	.byte W01
	.byte VOL, 70
	.byte BEND, c_v-32
	.byte W01
	.byte VOL, 65
	.byte BEND, c_v-30
	.byte W01
	.byte VOL, 62
	.byte BEND, c_v-27
	.byte W01
	.byte VOL, 58
	.byte BEND, c_v-25
	.byte W01
	.byte VOL, 56
	.byte BEND, c_v-23
	.byte W01
	.byte VOL, 52
	.byte BEND, c_v-20
	.byte W01
	.byte VOL, 49
	.byte BEND, c_v-18
	.byte W01
	.byte VOL, 47
	.byte BEND, c_v-15
	.byte W01
	.byte VOL, 44
	.byte BEND, c_v-13
	.byte W01
	.byte VOL, 42
	.byte BEND, c_v-11
	.byte W01
	.byte VOL, 40
	.byte BEND, c_v-8
	.byte W01
	.byte VOL, 38
	.byte BEND, c_v-6
	.byte W01
	.byte VOL, 36
	.byte BEND, c_v-4
	.byte W01
	.byte VOL, 33
	.byte BEND, c_v-1
	.byte W01
	.byte VOL, 32
	.byte BEND, c_v+1
	.byte W01
	.byte VOL, 31
	.byte BEND, c_v+4
	.byte W01
	.byte VOL, 29
	.byte BEND, c_v+6
	.byte W01
	.byte VOL, 28
	.byte BEND, c_v+8
	.byte W01
	.byte VOL, 26
	.byte BEND, c_v+11
	.byte W01
	.byte VOL, 25
	.byte BEND, c_v+13
	.byte W01
	.byte Gn4
	.byte W01
	.byte VOL, 23
	.byte BEND, c_v+18
	.byte W01
	.byte VOL, 22
	.byte BEND, c_v+20
	.byte W01
	.byte VOL, 21
	.byte BEND, c_v+23
	.byte W01
	.byte VOL, 19
	.byte BEND, c_v+25
	.byte W01
	.byte Gn5
	.byte W01
	.byte VOL, 18
	.byte BEND, c_v+30
	.byte W01
	.byte Cn6
	.byte W01
	.byte VOL, 16
	.byte BEND, c_v+34
	.byte W01
	.byte Fn6
	.byte W01
	.byte VOL, 14
	.byte BEND, c_v+39
	.byte W01
	.byte As6
	.byte W01
	.byte VOL, 13
	.byte BEND, c_v+44
	.byte W01
	.byte VOL, 12
	.byte BEND, c_v+46
	.byte W01
	.byte Fn7
	.byte W01
	.byte VOL, 11
	.byte BEND, c_v+51
	.byte W01
	.byte An7
	.byte W01
	.byte Cn8
	.byte W01
	.byte VOL, 10
	.byte BEND, c_v+58
	.byte W01
	.byte VOL, 9
	.byte BEND, c_v+61
	.byte W01
	.byte Gn8
	.byte W01
	.byte VOL, 8
	.byte W01
	.byte BEND, c_v+60
	.byte W01
	.byte Cs8
	.byte W01
	.byte VOL, 9
	.byte BEND, c_v+54
	.byte W01
	.byte Gn7
	.byte W01
	.byte VOL, 11
	.byte BEND, c_v+48
	.byte W01
	.byte VOL, 10
	.byte BEND, c_v+45
	.byte W01
	.byte VOL, 7
	.byte W01
	.byte FsM2
	.byte W01
	.byte FsM2
	.byte W01
	.byte EnM2
	.byte W01
	.byte DnM2
	.byte W02
	.byte CsM2
	.byte W01
	.byte CnM2
	.byte W02
	.byte CnM2
	.byte W01

	.byte FINE

track_651_2:
	.byte KEYSH, 0
	.byte VOICE, 15
	.byte PAN, c_v
	.byte BENDR, 20
	.byte W17
	.byte VOL, 0
	.byte BEND, c_v-63
	.byte N54
	.byte Ds3, En2
	.byte W01
	.byte VOL, 4
	.byte BEND, c_v-60
	.byte W01
	.byte VOL, 9
	.byte BEND, c_v-56
	.byte W01
	.byte VOL, 16
	.byte BEND, c_v-53
	.byte W01
	.byte VOL, 23
	.byte BEND, c_v-49
	.byte W01
	.byte VOL, 33
	.byte BEND, c_v-46
	.byte W01
	.byte VOL, 45
	.byte BEND, c_v-42
	.byte W01
	.byte VOL, 63
	.byte BEND, c_v-39
	.byte W01
	.byte VOL, 86
	.byte BEND, c_v-35
	.byte W01
	.byte Gs0
	.byte W01
	.byte Cn1
	.byte W01
	.byte Ds1
	.byte W01
	.byte Gn1
	.byte W01
	.byte As1
	.byte W01
	.byte Dn2
	.byte W01
	.byte Fn2
	.byte W01
	.byte An2
	.byte W01
	.byte Cn3
	.byte W01
	.byte En3
	.byte W01
	.byte Gn3
	.byte W01
	.byte Bn3
	.byte W01
	.byte Dn4
	.byte W01
	.byte Fs4
	.byte W01
	.byte An4
	.byte W01
	.byte Cs5
	.byte W01
	.byte En5
	.byte W01
	.byte Gs5
	.byte W01
	.byte Bn5
	.byte W01
	.byte Ds6
	.byte W01
	.byte Fs6
	.byte W01
	.byte As6
	.byte W01
	.byte Cs7
	.byte W01
	.byte Fn7
	.byte W01
	.byte Gs7
	.byte W01
	.byte Cn8
	.byte W01
	.byte Ds8
	.byte W01
	.byte Gn8
	.byte W02
	.byte Ds8
	.byte W01
	.byte Bn7
	.byte W01
	.byte Gs7
	.byte W01
	.byte En7
	.byte W01
	.byte Cs7
	.byte W01
	.byte VOL, 86
	.byte BEND, c_v+41
	.byte W01
	.byte VOL, 63
	.byte W01
	.byte Cs2
	.byte W01
	.byte Cs1
	.byte W01
	.byte Fn0
	.byte W01
	.byte AnM1
	.byte W01
	.byte EnM1
	.byte W01
	.byte CnM1
	.byte W01
	.byte GnM2
	.byte W01
	.byte EnM2
	.byte W01
	.byte CnM2
	.byte W01

	.byte FINE

.align 2

track_651:
	.byte 3
	.byte 0
	.byte 229
	.byte 0
	.word voice_group2
	.word track_651_0
	.word track_651_1
	.word track_651_2

.align 2
