.align 2

.global track_653

track_653_0:
	.byte KEYSH, 0
	.byte TEMPO, 75
	.byte VOICE, 43
	.byte VOL, 0
	.byte PAN, c_v
	.byte BENDR, 12
	.byte BEND, c_v
	.byte TIE
	.byte Cn3, Gs5
	.byte W01
	.byte VOL, 0
	.byte W01
	.byte CnM2
	.byte W01
	.byte CnM2
	.byte W01
	.byte CnM2
	.byte W01
	.byte CsM2
	.byte W01
	.byte CsM2
	.byte W01
	.byte CsM2
	.byte W01
	.byte DnM2
	.byte W01
	.byte DnM2
	.byte W01
	.byte DnM2
	.byte W01
	.byte DsM2
	.byte W01
	.byte DsM2
	.byte W01
	.byte DsM2
	.byte W01
	.byte EnM2
	.byte W01
	.byte EnM2
	.byte W01
	.byte EnM2
	.byte W01
	.byte FnM2
	.byte W01
	.byte FnM2
	.byte W01
	.byte FnM2
	.byte W01
	.byte FsM2
	.byte W01
	.byte FsM2
	.byte W01
	.byte FsM2
	.byte W01
	.byte FsM2
	.byte W01
	.byte FsM2
	.byte W01
	.byte FsM2
	.byte W01
	.byte GnM2
	.byte W01
	.byte GnM2
	.byte W01
	.byte GnM2
	.byte W01
	.byte GsM2
	.byte W01
	.byte GsM2
	.byte W01
	.byte GsM2
	.byte W01
	.byte AnM2
	.byte W01
	.byte AnM2
	.byte W01
	.byte AnM2
	.byte W01
	.byte AsM2
	.byte W01
	.byte AsM2
	.byte W01
	.byte AsM2
	.byte W01
	.byte BnM2
	.byte W01
	.byte BnM2
	.byte W01
	.byte BnM2
	.byte W01
	.byte CnM1
	.byte W01
	.byte CnM1
	.byte W01
	.byte CnM1
	.byte W01
	.byte CnM1
	.byte W01
	.byte CnM1
	.byte W01
	.byte CnM1
	.byte W01
	.byte CsM1
	.byte W01
	.byte CsM1
	.byte W01
	.byte CsM1
	.byte W01
	.byte DnM1
	.byte W01
	.byte DnM1
	.byte W01
	.byte DnM1
	.byte W01
	.byte DsM1
	.byte W01
	.byte DsM1
	.byte W01
	.byte DsM1
	.byte W01
	.byte EnM1
	.byte W01
	.byte EnM1
	.byte W01
	.byte EnM1
	.byte W01
	.byte FnM1
	.byte W01
	.byte FnM1
	.byte W03
	.byte FsM1
	.byte W23
	.byte GnM1
	.byte W03
	.byte GnM1
	.byte W07
	.byte W07
	.byte GsM1
	.byte W02
	.byte AnM1
	.byte W14
	.byte AsM1
	.byte W02
	.byte BnM1
	.byte W10
	.byte Cn0
	.byte W02
	.byte Cs0
	.byte W10
	.byte Cs0
	.byte W01
	.byte Dn0
	.byte W10
	.byte Ds0
	.byte W01
	.byte En0
	.byte W07
	.byte Fn0
	.byte W01
	.byte Fs0
	.byte W08
	.byte Gn0
	.byte W01
	.byte Gs0
	.byte W05
	.byte Gs0
	.byte W02
	.byte An0
	.byte W06
	.byte As0
	.byte W01
	.byte Bn0
	.byte W05
	.byte Cs1
	.byte W01
	.byte W04
	.byte Dn1
	.byte W01
	.byte Dn1
	.byte W04
	.byte En1
	.byte W05
	.byte Fn1
	.byte W01
	.byte Fs1
	.byte W03
	.byte Gn1
	.byte W01
	.byte Gs1
	.byte W03
	.byte An1
	.byte W04
	.byte Bn1
	.byte W03
	.byte Cs2
	.byte W03
	.byte Dn2
	.byte W01
	.byte Ds2
	.byte W02
	.byte En2
	.byte W03
	.byte Fn2
	.byte W01
	.byte Fs2
	.byte W02
	.byte Gn2
	.byte W01
	.byte Gs2
	.byte W01
	.byte An2
	.byte W01
	.byte As2
	.byte W02
	.byte As2
	.byte W01
	.byte Bn2
	.byte W02
	.byte Cs3
	.byte W02
	.byte Ds3
	.byte W02
	.byte En3
	.byte W01
	.byte En3
	.byte W02
	.byte Fs3
	.byte W02
	.byte Gs3
	.byte W02
	.byte As3
	.byte W02
	.byte Bn3
	.byte W01
	.byte Bn3
	.byte W01
	.byte Cs4
	.byte W02
	.byte Dn4
	.byte W01
	.byte Ds4
	.byte W01
	.byte Fn4
	.byte W02
	.byte Fs4
	.byte W01
	.byte Gn4
	.byte W01
	.byte Gs4
	.byte W02
	.byte As4
	.byte W01
	.byte Cn5
	.byte W02
	.byte Cs5
	.byte W01
	.byte Dn5
	.byte W01
	.byte Ds5
	.byte W02
	.byte Fn5
	.byte W02
	.byte Fs5
	.byte W02
	.byte Gs5
	.byte W03
	.byte As5
	.byte W02
	.byte Bn5
	.byte W01
	.byte Cn6
	.byte W02
	.byte Cs6
	.byte W01
	.byte Cs6
	.byte W02
	.byte W01
	.byte Dn6
	.byte W01
	.byte Ds6
	.byte W03
	.byte Fn6
	.byte W05
	.byte Fs6
	.byte W01
	.byte Gn6
	.byte W04
	.byte Gn6
	.byte W01
	.byte Gs6
	.byte W06
	.byte An6
	.byte W01
	.byte As6
	.byte W07
	.byte Bn6
	.byte W01
	.byte Cn7
	.byte W10
	.byte Cs7
	.byte W02
	.byte Dn7
	.byte W52
	.byte W01
	.byte W96
	.byte W80
	.byte Dn7
	.byte W01
	.byte Fs5
	.byte W01
	.byte Ds4
	.byte W01
	.byte Dn3
	.byte W01
	.byte En2
	.byte W01
	.byte Gs1
	.byte W01
	.byte Cs1
	.byte W01
	.byte Gn0
	.byte W01
	.byte Dn0
	.byte W01
	.byte BnM1
	.byte W01
	.byte GnM1
	.byte W01
	.byte EnM1
	.byte W01
	.byte CnM1
	.byte W01
	.byte BnM2
	.byte W01
	.byte AnM2
	.byte W01
	.byte GnM2
	.byte W01
	.byte FsM2
	.byte W01
	.byte EnM2
	.byte W01
	.byte DnM2
	.byte W01
	.byte CnM2
	.byte W01
	.byte EOT

	.byte FINE

track_653_1:
	.byte KEYSH, 0
	.byte VOICE, 12
	.byte VOL, 0
	.byte PAN, c_v
	.byte BENDR, 12
	.byte BEND, c_v-16
	.byte TIE
	.byte Dn2, En0
	.byte W01
	.byte VOL, 0
	.byte W01
	.byte CnM2
	.byte W01
	.byte CnM2
	.byte BEND, c_v-16
	.byte W01
	.byte VOL, 0
	.byte W01
	.byte CsM2
	.byte W01
	.byte CsM2
	.byte BEND, c_v-16
	.byte W01
	.byte VOL, 1
	.byte W01
	.byte DnM2
	.byte W01
	.byte DnM2
	.byte BEND, c_v-15
	.byte W01
	.byte VOL, 2
	.byte W01
	.byte DsM2
	.byte W01
	.byte DsM2
	.byte BEND, c_v-15
	.byte W01
	.byte VOL, 3
	.byte W01
	.byte EnM2
	.byte W01
	.byte EnM2
	.byte BEND, c_v-15
	.byte W01
	.byte VOL, 4
	.byte W01
	.byte FnM2
	.byte W01
	.byte FnM2
	.byte BEND, c_v-15
	.byte W01
	.byte VOL, 5
	.byte W01
	.byte FsM2
	.byte W01
	.byte FsM2
	.byte BEND, c_v-15
	.byte W01
	.byte VOL, 6
	.byte W01
	.byte FsM2
	.byte W01
	.byte FsM2
	.byte BEND, c_v-15
	.byte W01
	.byte VOL, 6
	.byte W01
	.byte GnM2
	.byte W01
	.byte GnM2
	.byte BEND, c_v-14
	.byte W01
	.byte VOL, 7
	.byte W01
	.byte GsM2
	.byte W01
	.byte GsM2
	.byte BEND, c_v-14
	.byte W01
	.byte VOL, 8
	.byte W01
	.byte AnM2
	.byte W01
	.byte AnM2
	.byte BEND, c_v-14
	.byte W01
	.byte VOL, 9
	.byte W01
	.byte AsM2
	.byte W01
	.byte AsM2
	.byte BEND, c_v-14
	.byte W01
	.byte VOL, 10
	.byte W01
	.byte BnM2
	.byte W01
	.byte BnM2
	.byte BEND, c_v-14
	.byte W01
	.byte VOL, 11
	.byte W01
	.byte CnM1
	.byte W01
	.byte CnM1
	.byte BEND, c_v-14
	.byte W01
	.byte VOL, 12
	.byte W01
	.byte CnM1
	.byte W01
	.byte CnM1
	.byte BEND, c_v-13
	.byte W01
	.byte VOL, 12
	.byte W01
	.byte CsM1
	.byte W01
	.byte CsM1
	.byte BEND, c_v-13
	.byte W01
	.byte VOL, 13
	.byte W01
	.byte DnM1
	.byte W01
	.byte DnM1
	.byte BEND, c_v-13
	.byte W01
	.byte VOL, 14
	.byte W01
	.byte DsM1
	.byte W01
	.byte DsM1
	.byte BEND, c_v-13
	.byte W01
	.byte VOL, 15
	.byte W01
	.byte EnM1
	.byte W01
	.byte EnM1
	.byte BEND, c_v-13
	.byte W01
	.byte VOL, 16
	.byte W01
	.byte FnM1
	.byte W01
	.byte FnM1
	.byte BEND, c_v-12
	.byte W03
	.byte VOL, 18
	.byte BEND, c_v-12
	.byte W03
	.byte En2
	.byte W03
	.byte En2
	.byte W03
	.byte En2
	.byte W03
	.byte En2
	.byte W03
	.byte Fn2
	.byte W03
	.byte Fn2
	.byte W03
	.byte Fn2
	.byte W02
	.byte VOL, 19
	.byte W01
	.byte BEND, c_v-11
	.byte W02
	.byte VOL, 19
	.byte W01
	.byte BEND, c_v-11
	.byte W03
	.byte Fs2
	.byte W03
	.byte Fs2
	.byte W03
	.byte Fs2
	.byte W03
	.byte Fs2
	.byte W01
	.byte VOL, 20
	.byte W02
	.byte AnM1
	.byte BEND, c_v-10
	.byte W03
	.byte Fs2
	.byte W03
	.byte Gn2
	.byte W03
	.byte Gn2
	.byte W03
	.byte Gn2
	.byte W02
	.byte VOL, 22
	.byte W01
	.byte BEND, c_v-9
	.byte W01
	.byte VOL, 23
	.byte W02
	.byte BEND, c_v-9
	.byte W03
	.byte Gn2
	.byte W03
	.byte Gs2
	.byte W02
	.byte VOL, 24
	.byte W01
	.byte BEND, c_v-8
	.byte W01
	.byte VOL, 25
	.byte W02
	.byte BEND, c_v-8
	.byte W03
	.byte Gs2
	.byte W03
	.byte Gs2
	.byte W02
	.byte VOL, 25
	.byte W01
	.byte Dn0
	.byte BEND, c_v-7
	.byte W03
	.byte An2
	.byte W03
	.byte An2
	.byte W03
	.byte An2
	.byte W01
	.byte VOL, 27
	.byte W01
	.byte En0
	.byte W01
	.byte BEND, c_v-7
	.byte W03
	.byte An2
	.byte W03
	.byte VOL, 29
	.byte BEND, c_v-6
	.byte W01
	.byte VOL, 30
	.byte W02
	.byte BEND, c_v-6
	.byte W03
	.byte As2
	.byte W03
	.byte VOL, 31
	.byte BEND, c_v-6
	.byte W01
	.byte VOL, 32
	.byte W02
	.byte BEND, c_v-6
	.byte W03
	.byte VOL, 32
	.byte BEND, c_v-6
	.byte W02
	.byte VOL, 33
	.byte W01
	.byte BEND, c_v-5
	.byte W03
	.byte Bn2
	.byte W02
	.byte VOL, 34
	.byte W01
	.byte Bn0
	.byte BEND, c_v-5
	.byte W03
	.byte Bn2
	.byte W02
	.byte VOL, 37
	.byte W01
	.byte BEND, c_v-5
	.byte W03
	.byte Cn3
	.byte W01
	.byte VOL, 38
	.byte W01
	.byte Dn1
	.byte W01
	.byte BEND, c_v-4
	.byte W03
	.byte VOL, 40
	.byte BEND, c_v-4
	.byte W03
	.byte Cn3
	.byte W02
	.byte VOL, 41
	.byte W01
	.byte Fs1
	.byte BEND, c_v-4
	.byte W03
	.byte VOL, 43
	.byte BEND, c_v-4
	.byte W01
	.byte VOL, 44
	.byte W02
	.byte BEND, c_v-3
	.byte W01
	.byte VOL, 45
	.byte W02
	.byte BEND, c_v-3
	.byte W02
	.byte VOL, 47
	.byte W01
	.byte BEND, c_v-3
	.byte W02
	.byte VOL, 49
	.byte W01
	.byte BEND, c_v-3
	.byte W02
	.byte VOL, 50
	.byte W01
	.byte Ds2
	.byte BEND, c_v-3
	.byte W02
	.byte VOL, 52
	.byte W01
	.byte BEND, c_v-3
	.byte W02
	.byte VOL, 53
	.byte W01
	.byte Fs2
	.byte BEND, c_v-2
	.byte W02
	.byte VOL, 55
	.byte W01
	.byte Gs2
	.byte BEND, c_v-2
	.byte W01
	.byte VOL, 57
	.byte W01
	.byte As2
	.byte W01
	.byte BEND, c_v-2
	.byte W01
	.byte VOL, 58
	.byte W01
	.byte Bn2
	.byte W01
	.byte BEND, c_v-2
	.byte W01
	.byte VOL, 61
	.byte W02
	.byte Ds3
	.byte BEND, c_v-2
	.byte W02
	.byte VOL, 64
	.byte W01
	.byte En3
	.byte BEND, c_v-1
	.byte W02
	.byte VOL, 66
	.byte W01
	.byte BEND, c_v-1
	.byte W01
	.byte VOL, 68
	.byte W02
	.byte As3
	.byte BEND, c_v-1
	.byte W02
	.byte VOL, 71
	.byte W01
	.byte Bn3
	.byte BEND, c_v-1
	.byte W01
	.byte VOL, 73
	.byte W02
	.byte Dn4
	.byte BEND, c_v-1
	.byte W01
	.byte VOL, 75
	.byte W01
	.byte Fn4
	.byte W01
	.byte BEND, c_v-1
	.byte W01
	.byte VOL, 78
	.byte W01
	.byte Gn4
	.byte W01
	.byte Gs4
	.byte BEND, c_v
	.byte W02
	.byte VOL, 82
	.byte W01
	.byte Cn5
	.byte BEND, c_v
	.byte W02
	.byte VOL, 85
	.byte W01
	.byte Dn5
	.byte BEND, c_v
	.byte W01
	.byte VOL, 87
	.byte W02
	.byte Fn5
	.byte W02
	.byte Fs5
	.byte W02
	.byte Gs5
	.byte W03
	.byte As5
	.byte W02
	.byte Bn5
	.byte W01
	.byte Cn6
	.byte W02
	.byte Cs6
	.byte W01
	.byte Cs6
	.byte W02
	.byte W01
	.byte Dn6
	.byte W01
	.byte Ds6
	.byte W03
	.byte Fn6
	.byte W05
	.byte Fs6
	.byte W01
	.byte Gn6
	.byte W04
	.byte Gn6
	.byte W01
	.byte Gs6
	.byte W06
	.byte An6
	.byte W01
	.byte As6
	.byte W07
	.byte Bn6
	.byte W01
	.byte Cn7
	.byte W10
	.byte Cs7
	.byte W02
	.byte Dn7
	.byte W52
	.byte W01
	.byte W96
	.byte W80
	.byte Dn7
	.byte W03
	.byte Bn2
	.byte W03
	.byte Cs1
	.byte W03
	.byte BnM1
	.byte W03
	.byte DnM1
	.byte W03
	.byte GnM2
	.byte W01
	.byte W02
	.byte DnM2
	.byte W01
	.byte CnM2
	.byte W01
	.byte EOT

	.byte FINE

.align 2

track_653:
	.byte 2
	.byte 0
	.byte 229
	.byte 0
	.word voice_group17
	.word track_653_0
	.word track_653_1

.align 2
