.align 2

.global track_60

track_60_0:
	.byte KEYSH, 0
	.byte TEMPO, 73
	.byte VOICE, 14
	.byte VOL, 74
	.byte PAN, c_v+10
	.byte PRIO, 120
	.byte N06
	.byte As4, Gs4
	.byte W06
	.byte Bn4, Cn3
	.byte W06
	.byte Cn5
	.byte W06
	.byte Cs5
	.byte W06
	.byte Fs4, Gs4
	.byte W06
	.byte Gn4, Cn3
	.byte W06
	.byte Gs4
	.byte W06
	.byte An4
	.byte W06
	.byte Cs4, Gs4
	.byte W06
	.byte Dn4, Cn3
	.byte W06
	.byte Cs5, Gs4
	.byte W06
	.byte Dn5, Cn3
	.byte W06
	.byte Ds5
	.byte W06
	.byte En5
	.byte W06
	.byte As4, Gs4
	.byte W06
	.byte Bn4, Cn3
	.byte W06
track_60_lbl_221b9b:
	.byte N06
	.byte Cn5, Cn3
	.byte W06
	.byte Cs5
	.byte W06
	.byte Fs4, Gs4
	.byte W06
	.byte Gn4, Cn3
	.byte W06
	.byte Gs4, En6
	.byte W06
	.byte Dn4, Gs3
	.byte W06
	.byte An3, En3
	.byte W06
	.byte An4, Gs5
	.byte W06
	.byte Ds4, Cn3
	.byte W06
	.byte As3, Gs2
	.byte W06
	.byte As4, Cn5
	.byte W06
	.byte As3, En2
	.byte W06
	.byte Fn4, Gs3
	.byte W06
	.byte Fs4, Cn3
	.byte W06
	.byte Gn4
	.byte W06
	.byte Gs4
	.byte W06
	.byte An4, Cn4
	.byte W06
	.byte As4, Gs4
	.byte W06
	.byte Bn4, Gs5
	.byte W06
	.byte N04
	.byte Cn5
	.byte W06
	.byte PEND
track_60_lbl_221bd6:
	.byte VOICE, 14
	.byte VOL, 74
	.byte PAN, c_v+20
	.byte N06
	.byte Cn3, Cn4
	.byte W06
	.byte Cs3
	.byte W06
	.byte As2
	.byte W06
	.byte Cn3
	.byte W06
	.byte Ds3
	.byte W06
	.byte En3
	.byte W06
	.byte Cs3
	.byte W06
	.byte Dn3
	.byte W06
	.byte Cn3
	.byte W06
	.byte Cs3
	.byte W06
	.byte As2
	.byte W06
	.byte Cn3
	.byte W06
	.byte Ds3
	.byte W06
	.byte En3
	.byte W06
	.byte Cs3
	.byte W06
	.byte Dn3
	.byte W06
	.byte VOICE, 15
	.byte VOL, 74
	.byte N06
	.byte Ds3
	.byte W06
	.byte En3
	.byte W06
	.byte Cs3
	.byte W06
	.byte Ds3
	.byte W06
	.byte Fs3
	.byte W06
	.byte Gn3
	.byte W06
	.byte En3
	.byte W06
	.byte Fn3
	.byte W06
	.byte Ds3
	.byte W06
	.byte En3
	.byte W06
	.byte Cs3
	.byte W06
	.byte Ds3
	.byte W06
	.byte Fs3
	.byte W06
	.byte Gn3
	.byte W06
	.byte En3
	.byte W06
	.byte Fn3
	.byte W06
	.byte VOICE, 14
	.byte VOL, 74
	.byte N06
	.byte Fs3
	.byte W06
	.byte Gn3
	.byte W06
	.byte Ds3
	.byte W06
	.byte Fs3
	.byte W06
	.byte An3
	.byte W06
	.byte As3
	.byte W06
	.byte Fs3
	.byte W06
	.byte Gn3
	.byte W06
	.byte An3
	.byte W06
	.byte As3
	.byte W06
	.byte Fs3
	.byte W06
	.byte Gn3
	.byte W06
	.byte Cs4
	.byte W06
	.byte Dn4
	.byte W06
	.byte As3
	.byte W06
	.byte Bn3
	.byte W06
	.byte Fn4
	.byte W06
	.byte Fs4
	.byte W06
	.byte Dn4
	.byte W06
	.byte Ds4
	.byte W06
	.byte An4
	.byte W06
	.byte Gs4
	.byte W06
	.byte Cn5
	.byte W06
	.byte Bn4
	.byte W06
	.byte En5
	.byte W06
	.byte Ds5
	.byte W06
	.byte Dn5
	.byte W06
	.byte Cs5
	.byte W06
	.byte Cn5
	.byte W06
	.byte Bn4
	.byte W06
	.byte As4
	.byte W06
	.byte An4
	.byte W06
	.byte En3
	.byte W06
	.byte Fn3
	.byte W06
	.byte Dn3
	.byte W06
	.byte En3
	.byte W06
	.byte Gn3
	.byte W06
	.byte Gs3
	.byte W06
	.byte Fn3
	.byte W06
	.byte Fs3
	.byte W06
	.byte En3
	.byte W06
	.byte Fn3
	.byte W06
	.byte Dn3
	.byte W06
	.byte En3
	.byte W06
	.byte Gn3
	.byte W06
	.byte Gs3
	.byte W06
	.byte Fn3
	.byte W06
	.byte Fs3
	.byte W06
	.byte VOICE, 15
	.byte VOL, 74
	.byte N06
	.byte Gn3
	.byte W06
	.byte Gs3
	.byte W06
	.byte Fn3
	.byte W06
	.byte Gn3
	.byte W06
	.byte As3
	.byte W06
	.byte Bn3
	.byte W06
	.byte Gs3
	.byte W06
	.byte An3
	.byte W06
	.byte Gn3
	.byte W06
	.byte Gs3
	.byte W06
	.byte Fn3
	.byte W06
	.byte Gn3
	.byte W06
	.byte As3
	.byte W06
	.byte Bn3
	.byte W06
	.byte Gs3
	.byte W06
	.byte An3
	.byte W06
	.byte VOICE, 14
	.byte VOL, 74
	.byte N06
	.byte As3
	.byte W06
	.byte Bn3
	.byte W06
	.byte Gn3
	.byte W06
	.byte As3
	.byte W06
	.byte Cs4
	.byte W06
	.byte Dn4
	.byte W06
	.byte As3
	.byte W06
	.byte Bn3
	.byte W06
	.byte Cs4
	.byte W06
	.byte Dn4
	.byte W06
	.byte As3
	.byte W06
	.byte Bn3
	.byte W06
	.byte Fn4
	.byte W06
	.byte Fs4
	.byte W06
	.byte Dn4
	.byte W06
	.byte Ds4
	.byte W06
	.byte Gs4
	.byte W06
	.byte Gn4
	.byte W06
	.byte Cn5
	.byte W06
	.byte Bn4
	.byte W06
	.byte Dn5
	.byte W06
	.byte Cs5
	.byte W06
	.byte En5
	.byte W06
	.byte Ds5
	.byte W06
	.byte Fs5
	.byte W06
	.byte Fn5
	.byte W06
	.byte En5
	.byte W06
	.byte Ds5
	.byte W06
	.byte Dn5
	.byte W06
	.byte Cs5
	.byte W06
	.byte Cn5
	.byte W06
	.byte Bn4
	.byte W06
	.byte VOICE, 14
	.byte VOL, 74
	.byte PAN, c_v-10
	.byte N06
	.byte As4, Gs4
	.byte W06
	.byte Bn4, Cn3
	.byte W06
	.byte Cn5
	.byte W06
	.byte Cs5
	.byte W06
	.byte Fs4, Gs4
	.byte W06
	.byte Gn4, Cn3
	.byte W06
	.byte Gs4
	.byte W06
	.byte An4
	.byte W06
	.byte Cs4, Gs4
	.byte W06
	.byte Dn4, Cn3
	.byte W06
	.byte Cs5, Gs4
	.byte W06
	.byte Dn5, Cn3
	.byte W06
	.byte Ds5
	.byte W06
	.byte En5
	.byte W06
	.byte As4, Gs4
	.byte W06
	.byte Bn4, Cn3
	.byte W06
	.byte PATT
		.word track_60_lbl_221b9b
	.byte N05
	.byte Cn5, Gs5
	.byte W18
	.byte N05
	.byte W18
	.byte Cs5, En5
	.byte W12
	.byte Cn5, Gs5
	.byte W18
	.byte N05
	.byte W18
	.byte Ds5, En6
	.byte W12
	.byte Fn5, Gs5
	.byte W18
	.byte N05
	.byte W18
	.byte Fs5, En5
	.byte W12
	.byte Fn5, Gs5
	.byte W18
	.byte N05
	.byte W18
	.byte An5, En6
	.byte W12
	.byte N06
	.byte An5, Gs6
	.byte W06
	.byte N04
	.byte An3, Gs2
	.byte W12
	.byte An3, Cn5
	.byte W12
	.byte An3, Gn8
	.byte W18
	.byte N06
	.byte An3, Cn4
	.byte W18
	.byte As3
	.byte W12
	.byte Bn3, En6
	.byte W12
	.byte N06
	.byte W06
	.byte Fn3, Cn4
	.byte W06
	.byte Fs3
	.byte W06
	.byte Gn3
	.byte W06
	.byte Gs3
	.byte W06
	.byte An3
	.byte W06
	.byte As3, En4
	.byte W06
	.byte Cn4, Gs4
	.byte W06
	.byte Cs4, Cn5
	.byte W06
	.byte Fn4, En5
	.byte W06
	.byte Fs4, Gs5
	.byte W06
	.byte Gn4, Cn6
	.byte W06
	.byte Gs4, En6
	.byte W06
	.byte GOTO
		.word track_60_lbl_221bd6

	.byte FINE

track_60_1:
	.byte KEYSH, 0
	.byte VOICE, 44
	.byte VOL, 74
	.byte PAN, c_v
	.byte PRIO, 119
	.byte N24
	.byte Fn4, En6
	.byte W24
	.byte Fs4
	.byte W24
	.byte Fn4
	.byte W24
	.byte Fs4
	.byte W24
track_60_lbl_221d9c:
	.byte N24
	.byte Fn4, En6
	.byte W24
	.byte Fs4
	.byte W24
	.byte Fn4
	.byte W24
	.byte N18
	.byte Fs4
	.byte W18
	.byte N06
	.byte Bn4
	.byte W06
	.byte Cs5
	.byte W06
	.byte Fn5
	.byte W06
	.byte Bn5
	.byte W06
	.byte Cs6
	.byte W06
	.byte PEND
track_60_lbl_221db3:
	.byte VOICE, 44
	.byte VOL, 74
	.byte PAN, c_v-24
	.byte N18
	.byte Cn4, En6
	.byte W18
	.byte N18
	.byte W18
	.byte N12
	.byte W12
	.byte N18
	.byte W18
	.byte N18
	.byte W18
	.byte N12
	.byte Cs4
	.byte W12
track_60_lbl_221dc8:
	.byte N18
	.byte Cn4, En6
	.byte W18
	.byte N18
	.byte W18
	.byte N12
	.byte W12
	.byte N18
	.byte W18
	.byte N18
	.byte W18
	.byte N12
	.byte Cs4
	.byte W12
	.byte PEND
	.byte PATT
		.word track_60_lbl_221dc8
	.byte PATT
		.word track_60_lbl_221dc8
track_60_lbl_221de2:
	.byte N17
	.byte Dn4, En6
	.byte W18
	.byte N17
	.byte W18
	.byte N11
	.byte W12
	.byte N17
	.byte W18
	.byte N17
	.byte W18
	.byte N12
	.byte Ds4
	.byte W12
	.byte PEND
	.byte PATT
		.word track_60_lbl_221de2
	.byte PATT
		.word track_60_lbl_221de2
	.byte PATT
		.word track_60_lbl_221de2
	.byte VOICE, 44
	.byte VOL, 74
	.byte N24
	.byte Fn4, En6
	.byte W24
	.byte Fs4
	.byte W24
	.byte Fn4
	.byte W24
	.byte Fs4
	.byte W24
	.byte PATT
		.word track_60_lbl_221d9c
track_60_lbl_221e14:
	.byte N24
	.byte Dn4, En6
	.byte W24
	.byte N24
	.byte W24
	.byte N24
	.byte W24
	.byte N24
	.byte W24
	.byte PEND
	.byte PATT
		.word track_60_lbl_221e14
	.byte N06
	.byte An4, En6
	.byte W06
	.byte N60
	.byte Fn4
	.byte W60
	.byte N18
	.byte Fs4
	.byte W18
	.byte N12
	.byte Gn4
	.byte W12
	.byte W24
	.byte BENDR, 6
	.byte W02
	.byte N36
	.byte Fs4, Cn8
	.byte W12
	.byte BEND, c_v+22
	.byte W01
	.byte As4
	.byte W01
	.byte Fs4
	.byte W01
	.byte Dn4
	.byte W01
	.byte Bn3
	.byte W01
	.byte Gn3
	.byte W01
	.byte Ds3
	.byte W01
	.byte Bn2
	.byte W01
	.byte Gn2
	.byte W01
	.byte Ds2
	.byte W01
	.byte Cn2
	.byte W01
	.byte Gs1
	.byte W01
	.byte En1
	.byte W01
	.byte Cn1
	.byte W01
	.byte Gs0
	.byte W01
	.byte En0
	.byte W01
	.byte Cn0
	.byte W01
	.byte AnM1
	.byte W01
	.byte FnM1
	.byte W01
	.byte CsM1
	.byte W01
	.byte AnM2
	.byte W01
	.byte FnM2
	.byte W01
	.byte CsM2
	.byte W02
	.byte En3
	.byte N10
	.byte Cn4, En6
	.byte W10
	.byte GOTO
		.word track_60_lbl_221db3

	.byte FINE

track_60_2:
	.byte KEYSH, 0
	.byte VOICE, 14
	.byte VOL, 74
	.byte PAN, c_v-10
	.byte PRIO, 118
	.byte N08
	.byte En4, Cn4
	.byte W24
	.byte Cn4
	.byte W24
	.byte Gn3
	.byte W12
	.byte Gn4
	.byte W24
	.byte En4
	.byte W12
track_60_lbl_221e89:
	.byte W12
	.byte N12
	.byte Gn2, En6
	.byte W12
	.byte N18
	.byte As2
	.byte W18
	.byte Bn2
	.byte W18
	.byte N08
	.byte Cn3
	.byte W60
	.byte PEND
track_60_lbl_221e97:
	.byte VOICE, 44
	.byte VOL, 52
	.byte PAN, c_v+26
	.byte N18
	.byte Gn4, En6
	.byte W18
	.byte N18
	.byte W18
	.byte N12
	.byte W12
	.byte N18
	.byte W18
	.byte N18
	.byte W18
	.byte N12
	.byte Gs4
	.byte W12
	.byte VOICE, 14
	.byte VOL, 74
	.byte PAN, c_v-10
	.byte N06
	.byte Cn3, Cn4
	.byte W06
	.byte Cs3
	.byte W06
	.byte As2
	.byte W06
	.byte Cn3
	.byte W06
	.byte Ds3
	.byte W06
	.byte En3
	.byte W06
	.byte Cs3
	.byte W06
	.byte Dn3
	.byte W06
	.byte Cn3
	.byte W06
	.byte Cs3
	.byte W06
	.byte As2
	.byte W06
	.byte Cn3
	.byte W06
	.byte Ds3
	.byte W06
	.byte En3
	.byte W06
	.byte Cs3
	.byte W06
	.byte Dn3
	.byte W06
track_60_lbl_221ed4:
	.byte N06
	.byte Cn3, En6
	.byte W06
	.byte Cs3
	.byte W06
	.byte As2
	.byte W06
	.byte Cn3
	.byte W06
	.byte Ds3
	.byte W06
	.byte En3
	.byte W06
	.byte Cs3
	.byte W06
	.byte Dn3
	.byte W06
	.byte Cn3
	.byte W06
	.byte Cs3
	.byte W06
	.byte As2
	.byte W06
	.byte Cn3
	.byte W06
	.byte Ds3
	.byte W06
	.byte En3
	.byte W06
	.byte Cs3
	.byte W06
	.byte Dn3
	.byte W06
	.byte PEND
	.byte PATT
		.word track_60_lbl_221ed4
	.byte VOICE, 44
	.byte VOL, 52
	.byte PAN, c_v+26
	.byte N18
	.byte An4, En6
	.byte W18
	.byte N18
	.byte W18
	.byte N12
	.byte W12
	.byte N18
	.byte W18
	.byte N18
	.byte W18
	.byte N12
	.byte As4
	.byte W12
	.byte VOICE, 14
	.byte VOL, 74
	.byte PAN, c_v-10
	.byte N06
	.byte En3, Cn4
	.byte W06
	.byte Fn3
	.byte W06
	.byte Dn3
	.byte W06
	.byte En3
	.byte W06
	.byte Gn3
	.byte W06
	.byte Gs3
	.byte W06
	.byte Fn3
	.byte W06
	.byte Fs3
	.byte W06
	.byte En3
	.byte W06
	.byte Fn3
	.byte W06
	.byte Dn3
	.byte W06
	.byte En3
	.byte W06
	.byte Gn3
	.byte W06
	.byte Gs3
	.byte W06
	.byte Fn3
	.byte W06
	.byte Fs3
	.byte W06
track_60_lbl_221f39:
	.byte N06
	.byte En3, Gs5
	.byte W06
	.byte Fn3
	.byte W06
	.byte Dn3
	.byte W06
	.byte En3
	.byte W06
	.byte Gn3
	.byte W06
	.byte Gs3
	.byte W06
	.byte Fn3
	.byte W06
	.byte Fs3
	.byte W06
	.byte En3
	.byte W06
	.byte Fn3
	.byte W06
	.byte Dn3
	.byte W06
	.byte En3
	.byte W06
	.byte Gn3
	.byte W06
	.byte Gs3
	.byte W06
	.byte Fn3
	.byte W06
	.byte Fs3
	.byte W06
	.byte PEND
	.byte PATT
		.word track_60_lbl_221f39
	.byte VOICE, 14
	.byte VOL, 74
	.byte PAN, c_v+20
	.byte N08
	.byte En4, Cn4
	.byte W24
	.byte Cn4
	.byte W24
	.byte Gn3
	.byte W12
	.byte Gn4
	.byte W24
	.byte En4
	.byte W12
	.byte PATT
		.word track_60_lbl_221e89
	.byte N18
	.byte Dn3, Gs5
	.byte W18
	.byte N18
	.byte W18
	.byte N12
	.byte Ds3
	.byte W12
	.byte N18
	.byte Dn3
	.byte W18
	.byte N18
	.byte W18
	.byte N12
	.byte En3
	.byte W12
	.byte N18
	.byte Gn3
	.byte W18
	.byte N18
	.byte W18
	.byte N12
	.byte Gs3
	.byte W12
	.byte N18
	.byte Gn3
	.byte W18
	.byte N18
	.byte W18
	.byte N05
	.byte Bn3
	.byte W12
	.byte N06
	.byte An2, En7
	.byte W06
	.byte N12
	.byte Fn2, Gs5
	.byte W12
	.byte N12
	.byte W12
	.byte N06
	.byte Fn2, Gn8
	.byte W06
	.byte N12
	.byte Fn1, Cn7
	.byte W12
	.byte N06
	.byte Fn2, Gs5
	.byte W18
	.byte Fs2, Cn5
	.byte W18
	.byte Gn2, En5
	.byte W06
	.byte Gn1, Cn8
	.byte W06
	.byte VOICE, 23
	.byte VOL, 74
	.byte N06
	.byte Bn2, En7
	.byte W06
	.byte Cn3
	.byte W06
	.byte Cs3
	.byte W06
	.byte Dn3
	.byte W06
	.byte Fs2
	.byte W06
	.byte Fn2
	.byte W06
	.byte En2
	.byte W06
	.byte Ds2
	.byte W06
	.byte Dn2
	.byte W06
	.byte Cs2
	.byte W06
	.byte Cn2
	.byte W06
	.byte Bn1
	.byte W06
	.byte GOTO
		.word track_60_lbl_221e97

	.byte FINE

track_60_3:
	.byte KEYSH, 0
	.byte VOICE, 14
	.byte VOL, 52
	.byte PAN, c_v+20
	.byte PRIO, 30
	.byte W96
track_60_lbl_221fe7:
	.byte VOICE, 44
	.byte VOL, 67
	.byte W12
	.byte N12
	.byte Cs4, Cn4
	.byte W12
	.byte N18
	.byte En4
	.byte W18
	.byte Fn4
	.byte W18
	.byte N08
	.byte Fs4
	.byte W60
	.byte PEND
track_60_lbl_221ff9:
	.byte PAN, c_v+20
	.byte W96
	.byte VOICE, 44
	.byte VOL, 52
	.byte N24
	.byte Gn4, Cn4
	.byte W24
	.byte N24
	.byte W24
	.byte N24
	.byte W24
	.byte N12
	.byte W12
	.byte Gs4
	.byte W12
	.byte N24
	.byte Gn4
	.byte W24
	.byte N24
	.byte W24
	.byte N24
	.byte W24
	.byte N12
	.byte W12
	.byte Gs4
	.byte W12
	.byte VOICE, 14
	.byte VOL, 52
	.byte N06
	.byte Ds3, Gs5
	.byte W06
	.byte En3
	.byte W06
	.byte Cs3
	.byte W06
	.byte Ds3
	.byte W06
	.byte Fs3
	.byte W06
	.byte Gn3
	.byte W06
	.byte En3
	.byte W06
	.byte Fn3
	.byte W06
	.byte Ds3
	.byte W06
	.byte En3
	.byte W06
	.byte Cs3
	.byte W06
	.byte Ds3
	.byte W06
	.byte Fs3
	.byte W06
	.byte Gn3
	.byte W06
	.byte En3
	.byte W06
	.byte Fn3
	.byte W06
	.byte W96
	.byte VOICE, 44
	.byte VOL, 74
	.byte N24
	.byte An4, Cn4
	.byte W24
	.byte N24
	.byte W24
	.byte N24
	.byte W24
	.byte N12
	.byte W12
	.byte As4
	.byte W12
	.byte N24
	.byte An4
	.byte W24
	.byte N24
	.byte W24
	.byte N24
	.byte W24
	.byte N12
	.byte W12
	.byte As4
	.byte W12
	.byte VOICE, 14
	.byte VOL, 52
	.byte N06
	.byte Gn3, Gs5
	.byte W06
	.byte Gs3
	.byte W06
	.byte Fn3
	.byte W06
	.byte Gn3
	.byte W06
	.byte As3
	.byte W06
	.byte Bn3
	.byte W06
	.byte Gs3
	.byte W06
	.byte An3
	.byte W06
	.byte Gn3
	.byte W06
	.byte Gs3
	.byte W06
	.byte Fn3
	.byte W06
	.byte Gn3
	.byte W06
	.byte As3
	.byte W06
	.byte Bn3
	.byte W06
	.byte Gs3
	.byte W06
	.byte An3
	.byte W06
	.byte VOICE, 14
	.byte VOL, 52
	.byte W96
	.byte PATT
		.word track_60_lbl_221fe7
	.byte N18
	.byte Gs4, Gs4
	.byte W18
	.byte N18
	.byte W18
	.byte N12
	.byte An4
	.byte W12
	.byte N18
	.byte Gs4
	.byte W18
	.byte N18
	.byte W18
	.byte N12
	.byte As4
	.byte W12
	.byte N18
	.byte Cs5, Cn4
	.byte W18
	.byte N18
	.byte W18
	.byte N12
	.byte Dn5
	.byte W12
	.byte N18
	.byte Cs5
	.byte W18
	.byte N18
	.byte W18
	.byte N05
	.byte Fn5
	.byte W12
	.byte VOICE, 15
	.byte VOL, 52
	.byte W06
	.byte N12
	.byte Gn3, Cn2
	.byte W12
	.byte Gn3, En4
	.byte W12
	.byte Gn3, Cn4
	.byte W18
	.byte N12
	.byte W18
	.byte Gs3
	.byte W12
	.byte N06
	.byte An3, Gs5
	.byte W06
	.byte Cn3, Cn4
	.byte W06
	.byte An3, Gs5
	.byte W06
	.byte VOICE, 23
	.byte VOL, 52
	.byte W24
	.byte N06
	.byte Fs2, Cn4
	.byte W06
	.byte Fn2
	.byte W06
	.byte En2
	.byte W06
	.byte Ds2
	.byte W06
	.byte Dn2
	.byte W06
	.byte Cs2
	.byte W06
	.byte Cn2
	.byte W06
	.byte Bn1
	.byte W06
	.byte GOTO
		.word track_60_lbl_221ff9

	.byte FINE

track_60_4:
	.byte KEYSH, 0
	.byte VOICE, 0
	.byte VOL, 67
	.byte PAN, c_v
	.byte PRIO, 29
	.byte N18
	.byte Cs2, Cn5
	.byte W24
	.byte N06
	.byte En1, Gs5
	.byte W24
	.byte En1, Cn6
	.byte W12
	.byte N18
	.byte Cs2, Cn5
	.byte W24
	.byte N06
	.byte En1, En6
	.byte W12
track_60_lbl_222102:
	.byte W12
	.byte N06
	.byte En1, En6
	.byte W12
	.byte N12
	.byte Cs2, Cn5
	.byte W18
	.byte N12
	.byte W18
	.byte N12
	.byte W12
	.byte N06
	.byte En1, Cn6
	.byte W06
	.byte N06
	.byte W06
	.byte N06
	.byte W06
	.byte N06
	.byte W06
	.byte N04
	.byte W04
	.byte N04
	.byte W04
	.byte N04
	.byte W04
	.byte N04
	.byte W04
	.byte N04
	.byte W04
	.byte N04
	.byte W04
	.byte PEND
track_60_lbl_222126:
	.byte VOICE, 0
	.byte VOL, 67
	.byte PAN, c_v-20
	.byte N24
	.byte Cs2, En6
	.byte W96
	.byte W96
track_60_lbl_222131:
	.byte N06
	.byte En1, Gs3
	.byte W06
	.byte En1, En0
	.byte W06
	.byte En1, Cn2
	.byte W06
	.byte En1, Cn0
	.byte W06
	.byte En1, Gs3
	.byte W06
	.byte En1, En1
	.byte W06
	.byte En1, Gs3
	.byte W06
	.byte En1, Cn2
	.byte W06
	.byte En1, En4
	.byte W06
	.byte En1, Cn2
	.byte W06
	.byte En1, En4
	.byte W06
	.byte En1, Gs2
	.byte W06
	.byte En1, En4
	.byte W06
	.byte En1, Cn5
	.byte W06
	.byte En1, Cn6
	.byte W06
	.byte N06
	.byte W06
	.byte PEND
	.byte N06
	.byte W06
	.byte N06
	.byte W06
	.byte N06
	.byte W06
	.byte N06
	.byte W06
	.byte N06
	.byte W06
	.byte N06
	.byte W06
	.byte N06
	.byte W06
	.byte N06
	.byte W06
	.byte N04
	.byte W04
	.byte N04
	.byte W04
	.byte N04
	.byte W04
	.byte N04
	.byte W04
	.byte N04
	.byte W04
	.byte N04
	.byte W04
	.byte N04
	.byte W04
	.byte N04
	.byte W04
	.byte N04
	.byte W04
	.byte N03
	.byte En1, En7
	.byte W03
	.byte N03
	.byte W03
	.byte N03
	.byte W03
	.byte N03
	.byte W03
track_60_lbl_22218e:
	.byte N17
	.byte En1, En3
	.byte W18
	.byte En1, Gs0
	.byte W18
	.byte N11
	.byte W12
	.byte N17
	.byte En1, En3
	.byte W18
	.byte En1, Gs0
	.byte W18
	.byte N12
	.byte W12
	.byte PEND
	.byte PATT
		.word track_60_lbl_22218e
	.byte PATT
		.word track_60_lbl_222131
	.byte N06
	.byte En1, Cn6
	.byte W06
	.byte N06
	.byte W06
	.byte N06
	.byte W06
	.byte N06
	.byte W06
	.byte N06
	.byte W06
	.byte N06
	.byte W06
	.byte N06
	.byte W06
	.byte N06
	.byte W06
	.byte N04
	.byte W04
	.byte N04
	.byte W04
	.byte N04
	.byte W04
	.byte N04
	.byte W04
	.byte N04
	.byte W04
	.byte N04
	.byte W04
	.byte N04
	.byte W04
	.byte N04
	.byte W04
	.byte N04
	.byte W04
	.byte N04
	.byte W04
	.byte N04
	.byte W04
	.byte N04
	.byte W04
	.byte VOICE, 0
	.byte VOL, 67
	.byte N18
	.byte Cs2, Cn5
	.byte W24
	.byte N06
	.byte En1, Gs5
	.byte W24
	.byte En1, Cn6
	.byte W12
	.byte N18
	.byte Cs2, Cn5
	.byte W24
	.byte N06
	.byte En1, En6
	.byte W12
	.byte PATT
		.word track_60_lbl_222102
	.byte N06
	.byte En1, En5
	.byte N06
	.byte Cs2
	.byte W06
	.byte En1, Cn3
	.byte W06
	.byte En1, Gs3
	.byte W06
	.byte En1, Cn4
	.byte W06
	.byte En1, En4
	.byte W06
	.byte En1, Cn2
	.byte W06
	.byte En1, Cn7
	.byte W06
	.byte En1, Gs2
	.byte W06
	.byte En1, Gs5
	.byte W06
	.byte En1, Cn3
	.byte W06
	.byte En1, Gs3
	.byte W06
	.byte En1, Gs4
	.byte W06
	.byte En1, En4
	.byte W06
	.byte En1, Cn2
	.byte W06
	.byte En1, En6
	.byte W06
	.byte En1, Gs2
	.byte W06
	.byte En1, En5
	.byte W06
	.byte En1, Cn3
	.byte W06
	.byte En1, Gs3
	.byte W06
	.byte En1, Cn4
	.byte W06
	.byte En1, En4
	.byte W06
	.byte En1, Cn2
	.byte W06
	.byte En1, Cn7
	.byte W06
	.byte En1, Gs2
	.byte W06
	.byte En1, Cn4
	.byte W06
	.byte En1, Cn3
	.byte W06
	.byte En1, Gs3
	.byte W06
	.byte En1, Cn5
	.byte W06
	.byte En1, En4
	.byte W06
	.byte En1, Cn2
	.byte N08
	.byte An1, Gs7
	.byte W06
	.byte N06
	.byte En1, En6
	.byte N06
	.byte Gn1, Gn8
	.byte W06
	.byte En1, Gs2
	.byte N08
	.byte Gn1, Cn8
	.byte W06
	.byte N06
	.byte En1, En5
	.byte N06
	.byte Cs2
	.byte W06
	.byte En1, Cn3
	.byte W06
	.byte En1, Gs3
	.byte W06
	.byte N06
	.byte W06
	.byte En1, En4
	.byte W06
	.byte En1, Cn2
	.byte W06
	.byte En1, Cn6
	.byte W06
	.byte En1, Gs2
	.byte W06
	.byte En1, En5
	.byte N08
	.byte Cs2, Cn4
	.byte W06
	.byte N06
	.byte En1, Cn3
	.byte W06
	.byte En1, Gs3
	.byte W06
	.byte N06, N08
	.byte An1, Gs7
	.byte W06
	.byte N06
	.byte En1, En4
	.byte W06
	.byte En1, Cn2
	.byte N15
	.byte Cs2, En6
	.byte W06
	.byte N06
	.byte En1, Cn6
	.byte N08
	.byte Gn1, Gn8
	.byte W06
	.byte N06
	.byte En1, Gs2
	.byte W06
	.byte En1, En2
	.byte N08
	.byte Fn1, En6
	.byte W06
	.byte N06
	.byte En1, En2
	.byte W06
	.byte N06
	.byte W06
	.byte N06
	.byte W06
	.byte N06
	.byte W06
	.byte En1, Cn3
	.byte W06
	.byte En1, En3
	.byte W06
	.byte En1, Cn4
	.byte W06
	.byte En1, Gs4
	.byte W06
	.byte En1, En5
	.byte W06
	.byte N04
	.byte En1, Gs5
	.byte W04
	.byte N04
	.byte W04
	.byte En1, En6
	.byte W04
	.byte GOTO
		.word track_60_lbl_222126

	.byte FINE

track_60_5:
	.byte KEYSH, 0
	.byte PRIO, 28
	.byte W96
	.byte W96
	.byte W24
track_60_lbl_2222d4:
	.byte PAN, c_v+10
	.byte W96
	.byte W96
	.byte W96
	.byte W96
	.byte W96
	.byte W96
	.byte W96
	.byte W96
	.byte W96
	.byte VOICE, 15
	.byte VOL, 52
	.byte W96
	.byte W24
	.byte N05
	.byte Fs3, Cn4
	.byte W18
	.byte N05
	.byte W18
	.byte Gn3
	.byte W12
	.byte Fs3, Gs4
	.byte W18
	.byte N05
	.byte W18
	.byte An3, Cn5
	.byte W12
	.byte Bn3, Cn4
	.byte W18
	.byte N05
	.byte W18
	.byte Cn4
	.byte W12
	.byte Bn3, Gs4
	.byte W18
	.byte N05
	.byte W18
	.byte Ds4, Cn5
	.byte W12
	.byte W96
	.byte N06
	.byte Ds3, Cn4
	.byte W06
	.byte En3, Gs4
	.byte W06
	.byte Fn3, Gs5
	.byte W06
	.byte Fs3, En6
	.byte W06
	.byte Fn3, Cn4
	.byte W06
	.byte Fs3, En4
	.byte W06
	.byte Gs3, Gs4
	.byte W06
	.byte An3, Cn5
	.byte W06
	.byte As3, En5
	.byte W06
	.byte Bn3, Gs5
	.byte W06
	.byte Cs4, Cn6
	.byte W06
	.byte Dn4, En6
	.byte W06
	.byte GOTO
		.word track_60_lbl_2222d4

	.byte FINE

track_60_6:
	.byte KEYSH, 0
	.byte VOICE, 53
	.byte VOL, 74
	.byte PAN, c_v
	.byte N06
	.byte Fn1, Cn8
	.byte W06
	.byte Fs1
	.byte W06
	.byte En1
	.byte W06
	.byte Fn1
	.byte W06
	.byte Fs1
	.byte W06
	.byte Gn1
	.byte W06
	.byte Fn1
	.byte W06
	.byte Fs1
	.byte W06
	.byte Fn1
	.byte W06
	.byte Fs1
	.byte W06
	.byte En1
	.byte W06
	.byte Fn1
	.byte W06
	.byte Fs1
	.byte W06
	.byte Gn1
	.byte W06
	.byte Fn1
	.byte W06
	.byte Fs1
	.byte W06
track_60_lbl_22235a:
	.byte N06
	.byte Fn1, Cn8
	.byte W06
	.byte Fs1
	.byte W06
	.byte En1
	.byte W06
	.byte Fn1
	.byte W06
	.byte Fs1
	.byte W06
	.byte Gn1
	.byte W06
	.byte Fn1
	.byte W06
	.byte Fs1
	.byte W06
	.byte Fn1
	.byte W06
	.byte Fs1
	.byte W06
	.byte En1
	.byte W06
	.byte Fn1
	.byte W06
	.byte Fs1
	.byte W06
	.byte Gn1
	.byte W06
	.byte Fn1
	.byte W06
	.byte Bn1
	.byte W06
	.byte Cs2, Gn8
	.byte W06
	.byte Fn2
	.byte W06
	.byte Bn2
	.byte W06
	.byte Cs3
	.byte W06
	.byte PEND
track_60_lbl_222386:
	.byte VOICE, 52
	.byte VOL, 74
	.byte N08
	.byte Dn1, En7
	.byte W18
	.byte N06
	.byte W18
	.byte N07
	.byte W12
	.byte N08
	.byte W18
	.byte N06
	.byte W18
	.byte N07
	.byte Ds1
	.byte W12
track_60_lbl_222399:
	.byte N08
	.byte Dn1, En7
	.byte W18
	.byte N06
	.byte W18
	.byte N07
	.byte W12
	.byte N08
	.byte W18
	.byte N06
	.byte W18
	.byte N07
	.byte Ds1
	.byte W12
	.byte PEND
	.byte PATT
		.word track_60_lbl_222399
	.byte PATT
		.word track_60_lbl_222399
	.byte PATT
		.word track_60_lbl_222399
	.byte PATT
		.word track_60_lbl_222399
	.byte N10
	.byte Dn1, Cn8
	.byte W18
	.byte N08
	.byte W18
	.byte N09
	.byte Ds1
	.byte W12
	.byte N10
	.byte Dn1
	.byte W18
	.byte N08
	.byte W18
	.byte N09
	.byte Ds1
	.byte W12
	.byte N10
	.byte Dn1
	.byte W18
	.byte N08
	.byte W18
	.byte N09
	.byte Ds1
	.byte W12
	.byte N10
	.byte Dn1
	.byte W18
	.byte N08
	.byte Ds1
	.byte W18
	.byte N09
	.byte Cn1
	.byte W12
	.byte VOICE, 53
	.byte VOL, 74
	.byte N06
	.byte Fn1
	.byte W06
	.byte Fs1
	.byte W06
	.byte En1
	.byte W06
	.byte Fn1
	.byte W06
	.byte Fs1
	.byte W06
	.byte Gn1
	.byte W06
	.byte Fn1
	.byte W06
	.byte Fs1
	.byte W06
	.byte Fn1
	.byte W06
	.byte Fs1
	.byte W06
	.byte En1
	.byte W06
	.byte Fn1
	.byte W06
	.byte Fs1
	.byte W06
	.byte Gn1
	.byte W06
	.byte Fn1
	.byte W06
	.byte Fs1
	.byte W06
	.byte PATT
		.word track_60_lbl_22235a
	.byte N06
	.byte Dn1, En6
	.byte W06
	.byte Ds1
	.byte W06
	.byte Cn1
	.byte W06
	.byte Dn1
	.byte W06
	.byte N06
	.byte W06
	.byte Ds1
	.byte W06
	.byte Cn1
	.byte W06
	.byte Dn1
	.byte W06
	.byte N06
	.byte W06
	.byte Ds1
	.byte W06
	.byte Cn1
	.byte W06
	.byte Dn1
	.byte W06
	.byte N06
	.byte W06
	.byte Ds1
	.byte W06
	.byte Cn1
	.byte W06
	.byte Dn1
	.byte W06
	.byte N06
	.byte W06
	.byte Ds1
	.byte W06
	.byte Cn1
	.byte W06
	.byte Dn1
	.byte W06
	.byte N06
	.byte W06
	.byte Ds1
	.byte W06
	.byte Cn1
	.byte W06
	.byte Dn1
	.byte W06
	.byte N06
	.byte W06
	.byte Ds1
	.byte W06
	.byte Cn1
	.byte W06
	.byte Dn1
	.byte W06
	.byte Ds1
	.byte W06
	.byte En1
	.byte W06
	.byte Ds1
	.byte W06
	.byte Cn1
	.byte W06
	.byte W96
	.byte W72
	.byte GOTO
		.word track_60_lbl_222386

	.byte FINE

track_60_7:
	.byte KEYSH, 0
	.byte PAN, c_v
	.byte W01
	.byte VOICE, 54
	.byte VOL, 74
	.byte N06
	.byte Fn1, Cn8
	.byte W06
	.byte Fs1
	.byte W06
	.byte En1
	.byte W06
	.byte Fn1
	.byte W06
	.byte Fs1
	.byte W06
	.byte Gn1
	.byte W06
	.byte Fn1
	.byte W06
	.byte Fs1
	.byte W06
	.byte Fn1
	.byte W06
	.byte Fs1
	.byte W06
	.byte En1
	.byte W06
	.byte Fn1
	.byte W06
	.byte Fs1
	.byte W06
	.byte Gn1
	.byte W06
	.byte Fn1
	.byte W06
	.byte Fs1
	.byte W05
track_60_lbl_22247e:
	.byte W01
	.byte N06
	.byte Fn1, Cn8
	.byte W06
	.byte Fs1
	.byte W06
	.byte En1
	.byte W06
	.byte Fn1
	.byte W06
	.byte Fs1
	.byte W06
	.byte Gn1
	.byte W06
	.byte Fn1
	.byte W06
	.byte Fs1
	.byte W06
	.byte Fn1
	.byte W06
	.byte Fs1
	.byte W06
	.byte En1
	.byte W06
	.byte Fn1
	.byte W06
	.byte Fs1
	.byte W06
	.byte Gn1
	.byte W06
	.byte Fn1
	.byte W06
	.byte Bn1
	.byte W06
	.byte Cs1, Gn8
	.byte W06
	.byte Fn1
	.byte W06
	.byte Bn1
	.byte W06
	.byte Cs2
	.byte W05
	.byte PEND
track_60_lbl_2224ab:
	.byte W96
	.byte W96
	.byte W96
	.byte W96
	.byte W96
	.byte W96
	.byte W96
	.byte W96
	.byte W01
	.byte VOICE, 54
	.byte VOL, 74
	.byte N06
	.byte Fn1, Cn8
	.byte W06
	.byte Fs1
	.byte W06
	.byte En1
	.byte W06
	.byte Fn1
	.byte W06
	.byte Fs1
	.byte W06
	.byte Gn1
	.byte W06
	.byte Fn1
	.byte W06
	.byte Fs1
	.byte W06
	.byte Fn1
	.byte W06
	.byte Fs1
	.byte W06
	.byte En1
	.byte W06
	.byte Fn1
	.byte W06
	.byte Fs1
	.byte W06
	.byte Gn1
	.byte W06
	.byte Fn1
	.byte W06
	.byte Fs1
	.byte W05
	.byte PATT
		.word track_60_lbl_22247e
	.byte W01
	.byte N06
	.byte Dn1, En6
	.byte W06
	.byte Ds1
	.byte W06
	.byte Cn1
	.byte W06
	.byte Dn1
	.byte W06
	.byte N06
	.byte W06
	.byte Ds1
	.byte W06
	.byte Cn1
	.byte W06
	.byte Dn1
	.byte W06
	.byte N06
	.byte W06
	.byte Ds1
	.byte W06
	.byte Cn1
	.byte W06
	.byte Dn1
	.byte W06
	.byte N06
	.byte W06
	.byte Ds1
	.byte W06
	.byte Cn1
	.byte W06
	.byte Dn1
	.byte W05
	.byte W01
	.byte N06
	.byte W06
	.byte Ds1
	.byte W06
	.byte Cn1
	.byte W06
	.byte Dn1
	.byte W06
	.byte N06
	.byte W06
	.byte Ds1
	.byte W06
	.byte Cn1
	.byte W06
	.byte Dn1
	.byte W06
	.byte N06
	.byte W06
	.byte Ds1
	.byte W06
	.byte Cn1
	.byte W06
	.byte Dn1
	.byte W06
	.byte Ds1
	.byte W06
	.byte En1
	.byte W06
	.byte Ds1
	.byte W06
	.byte Cn1
	.byte W05
	.byte W96
	.byte W72
	.byte GOTO
		.word track_60_lbl_2224ab

	.byte FINE

.align 2

track_60:
	.byte 8
	.byte 0
	.byte 130
	.byte 0
	.word voice_group20
	.word track_60_0
	.word track_60_1
	.word track_60_2
	.word track_60_3
	.word track_60_4
	.word track_60_5
	.word track_60_6
	.word track_60_7

.align 2
