.align 2

.global track_532

track_532_0:
	.byte KEYSH, 0
	.byte TEMPO, 75
	.byte VOICE, 15
	.byte VOL, 0
	.byte PAN, c_v
	.byte BENDR, 0
	.byte TIE
	.byte Gn1, En6
	.byte TIE
	.byte Cn2
	.byte W01
	.byte VOL, 9
	.byte W01
	.byte FnM1
	.byte W01
	.byte Cn0
	.byte W01
	.byte Fs0
	.byte W01
	.byte Bn0
	.byte W01
	.byte En1
	.byte W01
	.byte An1
	.byte W01
	.byte Cs2
	.byte W01
	.byte En2
	.byte W01
	.byte Fs2
	.byte W01
	.byte An2
	.byte W01
	.byte Bn2
	.byte W01
	.byte Cs3
	.byte W01
	.byte Cs3
	.byte W01
	.byte Dn3
	.byte W02
	.byte Dn3
	.byte W01
	.byte Dn3
	.byte W02
	.byte Cs3
	.byte W01
	.byte Cs3
	.byte W01
	.byte Bn2
	.byte W01
	.byte As2
	.byte W01
	.byte An2
	.byte W01
	.byte Fn2
	.byte W01
	.byte Cn2
	.byte W01
	.byte Gs1
	.byte W01
	.byte Ds1
	.byte W01
	.byte Cn1
	.byte W01
	.byte An0
	.byte W01
	.byte Fs0
	.byte W01
	.byte En0
	.byte W01
	.byte Ds0
	.byte W01
	.byte Cs0
	.byte W01
	.byte Cs0
	.byte W01
	.byte Cs0
	.byte W01
	.byte Dn0
	.byte W01
	.byte En0
	.byte W01
	.byte Fs0
	.byte W01
	.byte Bn0
	.byte W01
	.byte Ds1
	.byte W01
	.byte Ds1
	.byte W01
	.byte An1
	.byte W01
	.byte Cs2
	.byte W01
	.byte Fs2
	.byte W01
	.byte An2
	.byte W01
	.byte Bn2
	.byte W01
	.byte Cs3
	.byte W01
	.byte Dn3
	.byte W04
	.byte Cs3
	.byte W01
	.byte Cs3
	.byte W01
	.byte Bn2
	.byte W01
	.byte An2
	.byte W01
	.byte Gs2
	.byte W01
	.byte Fn2
	.byte W01
	.byte Ds2
	.byte W01
	.byte Cn2
	.byte W01
	.byte An1
	.byte W01
	.byte Gn1
	.byte W01
	.byte En1
	.byte W01
	.byte As0
	.byte W01
	.byte Fs0
	.byte W01
	.byte En0
	.byte W01
	.byte Ds0
	.byte W01
	.byte Cs0
	.byte W01
	.byte Cs0
	.byte W01
	.byte Cs0
	.byte W01
	.byte Ds0
	.byte W01
	.byte En0
	.byte W01
	.byte Gs0
	.byte W01
	.byte Bn0
	.byte W01
	.byte Fn1
	.byte W01
	.byte Bn1
	.byte W01
	.byte Ds2
	.byte W01
	.byte Fs2
	.byte W01
	.byte An2
	.byte W01
	.byte As2
	.byte W01
	.byte Bn2
	.byte W01
	.byte Cs3
	.byte W02
	.byte Cs3
	.byte W01
	.byte Cs3
	.byte W01
	.byte Cn3
	.byte W01
	.byte As2
	.byte W01
	.byte An2
	.byte W01
	.byte Fs2
	.byte W01
	.byte En2
	.byte W01
	.byte Cs2
	.byte W01
	.byte An1
	.byte W01
	.byte Ds1
	.byte W01
	.byte An0
	.byte W01
	.byte En0
	.byte W01
	.byte Cn0
	.byte W01
	.byte GsM1
	.byte W01
	.byte FnM1
	.byte W01
	.byte DnM1
	.byte W01
	.byte BnM2
	.byte W01
	.byte AnM2
	.byte W01
	.byte FsM2
	.byte W01
	.byte FnM2
	.byte W01
	.byte DsM2
	.byte W01
	.byte CsM2
	.byte W02
	.byte CnM2
	.byte W01
	.byte EOT, Gn1
	.byte Cn2

	.byte FINE

.align 2

track_532:
	.byte 1
	.byte 0
	.byte 229
	.byte 0
	.word voice_group16
	.word track_532_0

.align 2
