.align 2

.global track_479

track_479_0:
	.byte KEYSH, 0
	.byte TEMPO, 75
	.byte VOICE, 23
	.byte VOL, 0
	.byte PAN, c_v
	.byte BENDR, 0
	.byte TIE
	.byte Gn1, Gn8
	.byte TIE
	.byte Cn2
	.byte W03
	.byte VOL, 5
	.byte W03
	.byte AsM2
	.byte W03
	.byte EnM1
	.byte W03
	.byte AnM1
	.byte W03
	.byte Ds0
	.byte W03
	.byte Gn0
	.byte W03
	.byte As0
	.byte W03
	.byte En1
	.byte W03
	.byte Gs1
	.byte W03
	.byte Cn2
	.byte W03
	.byte Dn2
	.byte W03
	.byte Ds2
	.byte W09
	.byte Dn2
	.byte W03
	.byte Cn2
	.byte W03
	.byte As1
	.byte W03
	.byte Cn2
	.byte W03
	.byte Dn2
	.byte W03
	.byte Ds2
	.byte W03
	.byte Gn2
	.byte W03
	.byte As2
	.byte W03
	.byte Ds3
	.byte W03
	.byte Fs3
	.byte W03
	.byte Bn3
	.byte W03
	.byte Fn4
	.byte W03
	.byte Cn5
	.byte W03
	.byte En5
	.byte W03
	.byte Gn5
	.byte W03
	.byte An5
	.byte W06
	.byte W08
	.byte An5
	.byte W03
	.byte Gs5
	.byte W03
	.byte Fs5
	.byte W03
	.byte En5
	.byte W03
	.byte Ds5
	.byte W03
	.byte Cs5
	.byte W03
	.byte As4
	.byte W03
	.byte Fn4
	.byte W03
	.byte Cs4
	.byte W03
	.byte An3
	.byte W03
	.byte Fn3
	.byte W03
	.byte Bn2
	.byte W03
	.byte Fn2
	.byte W03
	.byte Dn2
	.byte W03
	.byte Cn2
	.byte W03
	.byte As1
	.byte W03
	.byte Gs1
	.byte W06
	.byte As1
	.byte W01
	.byte As1
	.byte W03
	.byte Cn2
	.byte W03
	.byte Ds2
	.byte W03
	.byte En2
	.byte W03
	.byte Fs2
	.byte W03
	.byte Gn2
	.byte W09
	.byte Fn2
	.byte W03
	.byte Ds2
	.byte W05
	.byte Gs1
	.byte W01
	.byte W02
	.byte Dn1
	.byte W03
	.byte An0
	.byte W03
	.byte Fn0
	.byte W03
	.byte Cs0
	.byte W03
	.byte AnM1
	.byte W03
	.byte FsM1
	.byte W03
	.byte EnM1
	.byte W03
	.byte DnM1
	.byte W03
	.byte BnM2
	.byte W03
	.byte AnM2
	.byte W03
	.byte GnM2
	.byte W03
	.byte FnM2
	.byte W03
	.byte DsM2
	.byte W03
	.byte DnM2
	.byte W03
	.byte CnM2
	.byte W01
	.byte CnM2
	.byte W03
	.byte EOT, Gn1
	.byte Cn2

	.byte FINE

.align 2

track_479:
	.byte 1
	.byte 0
	.byte 228
	.byte 0
	.word voice_group4
	.word track_479_0

.align 2
