.align 2

.global track_64

track_64_0:
	.byte KEYSH, 0
track_64_lbl_22315a:
	.byte TEMPO, 130
	.byte VOICE, 58
	.byte MOD, 0
	.byte VOL, 39
	.byte PAN, c_v+14
	.byte PRIO, 120
	.byte N12, An3, v112
	.byte W12
	.byte Dn4 @ N12, v112
	.byte W10
	.byte PAN, c_v+11
	.byte W02
	.byte N12, Gn4 @ v112
	.byte W06
	.byte PAN, c_v+8
	.byte W06
	.byte N12, Fs4 @ v112
	.byte W02
	.byte PAN, c_v+6
	.byte W10
	.byte N12, Fn4 @ v112
	.byte W02
	.byte PAN, c_v+3
	.byte W10
	.byte N12, En4 @ v112
	.byte W02
	.byte PAN, c_v-1
	.byte W10
	.byte N12, Gn3 @ v112
	.byte W02
	.byte PAN, c_v-4
	.byte W10
	.byte N12, Ds4 @ v112
	.byte W02
	.byte PAN, c_v-8
	.byte W10
track_64_lbl_223193:
	.byte N12, Dn4, v112
	.byte W06
	.byte PAN, c_v-12
	.byte W06
	.byte N12, Cs4 @ v112
	.byte W06
	.byte PAN, c_v-16
	.byte W06
	.byte N12, An3 @ v112
	.byte W10
	.byte PAN, c_v-20
	.byte W02
	.byte N12, Dn4 @ v112
	.byte W10
	.byte PAN, c_v-24
	.byte W02
	.byte N12, Gn4 @ v112
	.byte W12
	.byte Fs4 @ N12, v112
	.byte W02
	.byte PAN, c_v-28
	.byte W10
	.byte N12, Fn4 @ v112
	.byte W02
	.byte PAN, c_v-32
	.byte W10
	.byte PEND
track_64_lbl_2231bb:
	.byte N12, En4, v112
	.byte W06
	.byte PAN, c_v-36
	.byte W04
	.byte c_v-38 @ PAN
	.byte W02
	.byte N12, Gn3, v108
	.byte W12
	.byte Ds4, v104 @ N12
	.byte W04
	.byte PAN, c_v-36
	.byte W08
	.byte N12, Dn4, v100
	.byte W04
	.byte PAN, c_v-32
	.byte W08
	.byte N12, Cs4, v096
	.byte W04
	.byte PAN, c_v-28
	.byte W08
	.byte N12, An3, v092
	.byte W08
	.byte PAN, c_v-24
	.byte W04
	.byte N12, Dn4, v088
	.byte W08
	.byte PAN, c_v-20
	.byte W04
	.byte N12, Gn4, v084
	.byte W08
	.byte PAN, c_v-17
	.byte W04
	.byte PEND
track_64_lbl_2231f2:
	.byte N12, Fs4, v080
	.byte W04
	.byte PAN, c_v-14
	.byte W08
	.byte N12, Fn4, v076
	.byte W04
	.byte PAN, c_v-11
	.byte W08
	.byte N12, En4, v072
	.byte W04
	.byte PAN, c_v-7
	.byte W08
	.byte N12, Gn3, v068
	.byte W04
	.byte PAN, c_v-3
	.byte W08
	.byte N12, Ds4, v064
	.byte W04
	.byte PAN, c_v
	.byte W08
	.byte N12, Dn4, v060
	.byte W04
	.byte PAN, c_v+4
	.byte W08
	.byte N12, Cs4, v056
	.byte W08
	.byte PAN, c_v+8
	.byte W04
	.byte PEND
track_64_lbl_223224:
	.byte N12, An3, v040
	.byte W08
	.byte PAN, c_v+12
	.byte W04
	.byte N12, Dn4, v044
	.byte W08
	.byte PAN, c_v+16
	.byte W04
	.byte c_v+14 @ PAN
	.byte N12, Gn4 @ v044
	.byte W12
	.byte Fs4, v048 @ N12
	.byte W10
	.byte PAN, c_v+11
	.byte W02
	.byte N12, Fn4 @ v048
	.byte W06
	.byte PAN, c_v+8
	.byte W06
	.byte N12, En4 @ v048
	.byte W02
	.byte PAN, c_v+6
	.byte W10
	.byte N12, Gn3, v052
	.byte W02
	.byte PAN, c_v+3
	.byte W10
	.byte N12, Ds4 @ v052
	.byte W02
	.byte PAN, c_v-1
	.byte W10
	.byte PEND
track_64_lbl_223256:
	.byte N12, Dn4, v056
	.byte W02
	.byte PAN, c_v-4
	.byte W10
	.byte N12, Cs4 @ v056
	.byte W02
	.byte PAN, c_v-8
	.byte W10
	.byte N12, An3, v060
	.byte W06
	.byte PAN, c_v-12
	.byte W06
	.byte N12, Dn4 @ v060
	.byte W06
	.byte PAN, c_v-16
	.byte W06
	.byte N12, Gn4 @ v060
	.byte W10
	.byte PAN, c_v-20
	.byte W02
	.byte N12, Fs4, v064
	.byte W10
	.byte PAN, c_v-24
	.byte W02
	.byte N12, Fn4 @ v064
	.byte W12
	.byte PEND
track_64_lbl_223281:
	.byte N12, En4, v068
	.byte W02
	.byte PAN, c_v-28
	.byte W10
	.byte N12, Gn3 @ v068
	.byte W02
	.byte PAN, c_v-32
	.byte W10
	.byte N12, Ds4, v072
	.byte W06
	.byte PAN, c_v-36
	.byte W04
	.byte c_v-38 @ PAN
	.byte W02
	.byte N12, Dn4 @ v072
	.byte W12
	.byte Cs4, v076 @ N12
	.byte W04
	.byte PAN, c_v-36
	.byte W08
	.byte N12, An3 @ v076
	.byte W04
	.byte PAN, c_v-32
	.byte W08
	.byte N12, Dn4 @ v076
	.byte W04
	.byte PAN, c_v-28
	.byte W08
	.byte N12, Gn4, v080
	.byte W08
	.byte PAN, c_v-24
	.byte W04
	.byte PEND
track_64_lbl_2232b4:
	.byte N12, Fs4, v112
	.byte W08
	.byte PAN, c_v-20
	.byte W04
	.byte N12, Fn4 @ v112
	.byte W08
	.byte PAN, c_v-17
	.byte W04
	.byte N12, En4 @ v112
	.byte W04
	.byte PAN, c_v-14
	.byte W08
	.byte N12, Gn3 @ v112
	.byte W04
	.byte PAN, c_v-11
	.byte W08
	.byte N12, Ds4 @ v112
	.byte W04
	.byte PAN, c_v-7
	.byte W08
	.byte N12, Dn4 @ v112
	.byte W04
	.byte PAN, c_v-3
	.byte W08
	.byte N12, Cs4 @ v112
	.byte W04
	.byte PAN, c_v
	.byte W08
	.byte PEND
	.byte c_v+14 @ PAN
	.byte N12, An3 @ v112
	.byte W12
	.byte Dn4 @ N12, v112
	.byte W10
	.byte PAN, c_v+11
	.byte W02
	.byte N12, Gn4 @ v112
	.byte W06
	.byte PAN, c_v+8
	.byte W06
	.byte N12, Fs4 @ v112
	.byte W02
	.byte PAN, c_v+6
	.byte W10
	.byte N12, Fn4 @ v112
	.byte W02
	.byte PAN, c_v+3
	.byte W10
	.byte N12, En4 @ v112
	.byte W02
	.byte PAN, c_v-1
	.byte W10
	.byte N12, Gn3 @ v112
	.byte W02
	.byte PAN, c_v-4
	.byte W10
	.byte N12, Ds4 @ v112
	.byte W02
	.byte PAN, c_v-8
	.byte W10
	.byte PATT
		.word track_64_lbl_223193
	.byte PATT
		.word track_64_lbl_2231bb
	.byte PATT
		.word track_64_lbl_2231f2
	.byte PATT
		.word track_64_lbl_223224
	.byte PATT
		.word track_64_lbl_223256
	.byte PATT
		.word track_64_lbl_223281
	.byte PATT
		.word track_64_lbl_2232b4
	.byte N12, An3, v112
	.byte W12
	.byte Dn4 @ N12, v112
	.byte W12
	.byte Gn4 @ N12, v112
	.byte W12
	.byte Fs4 @ N12, v112
	.byte W12
	.byte Fn4 @ N12, v112
	.byte W12
	.byte En4 @ N12, v112
	.byte W12
	.byte Gn3 @ N12, v112
	.byte W12
	.byte Ds4 @ N12, v112
	.byte W12
	.byte Dn4 @ N12, v112
	.byte W12
	.byte Cs4, v108 @ N12
	.byte W12
	.byte An3 @ N12, v108
	.byte W12
	.byte Dn4, v104 @ N12
	.byte W12
	.byte Gn4, v100 @ N12
	.byte W12
	.byte Fs4 @ N12, v100
	.byte W12
	.byte Fn4, v096 @ N12
	.byte W12
	.byte En4 @ N12, v096
	.byte W12
	.byte Gn3, v092 @ N12
	.byte W12
	.byte Ds4, v088 @ N12
	.byte W12
	.byte Dn4 @ N12, v088
	.byte W12
	.byte Cs4, v084 @ N12
	.byte W12
	.byte An3 @ N12, v084
	.byte W12
	.byte Dn4, v080 @ N12
	.byte W12
	.byte Gn4, v076 @ N12
	.byte W12
	.byte Fs4 @ N12, v076
	.byte W12
	.byte Fn4, v072 @ N12
	.byte W12
	.byte En4, v068 @ N12
	.byte W12
	.byte Gn3 @ N12, v068
	.byte W12
	.byte Ds4, v064 @ N12
	.byte W12
	.byte Dn4 @ N12, v064
	.byte W12
	.byte Cs4, v060 @ N12
	.byte W12
	.byte An3, v056 @ N12
	.byte W12
	.byte Dn4 @ N12, v056
	.byte W12
	.byte Gn4, v052 @ N12
	.byte W12
	.byte Fs4 @ N12, v052
	.byte W12
	.byte Fn4, v048 @ N12
	.byte W12
	.byte En4, v044 @ N12
	.byte W12
	.byte Gn3 @ N12, v044
	.byte W12
	.byte Ds4, v040 @ N12
	.byte W12
	.byte Dn4, v056 @ N12
	.byte W12
	.byte Cs4 @ N12, v056
	.byte W12
	.byte An3, v060 @ N12
	.byte W12
	.byte Dn4 @ N12, v060
	.byte W12
	.byte Gn4 @ N12, v060
	.byte W12
	.byte Fs4, v064 @ N12
	.byte W12
	.byte Fn4 @ N12, v064
	.byte W12
	.byte En4, v068 @ N12
	.byte W12
	.byte Gn3 @ N12, v068
	.byte W12
	.byte Ds4, v072 @ N12
	.byte W12
	.byte Dn4 @ N12, v072
	.byte W12
	.byte Cs4, v076 @ N12
	.byte W12
	.byte An3 @ N12, v076
	.byte W12
	.byte Dn4 @ N12, v076
	.byte W12
	.byte Gn4, v080 @ N12
	.byte W12
	.byte Fs4, v112 @ N12
	.byte W12
	.byte Fn4 @ N12, v112
	.byte W12
	.byte En4 @ N12, v112
	.byte W12
	.byte Gn3 @ N12, v112
	.byte W12
	.byte Ds4 @ N12, v112
	.byte W12
	.byte Dn4 @ N12, v112
	.byte W12
	.byte Cs4 @ N12, v112
	.byte W12
	.byte GOTO
		.word track_64_lbl_22315a
	.byte FINE

track_64_1:
	.byte KEYSH, 0
track_64_lbl_2233cc:
	.byte VOICE, 44
	.byte VOL, 62
	.byte PAN, c_v+16
	.byte PRIO, 119
	.byte N36, Cn4, v092
	.byte W36
	.byte N36 @ Cn4, v092
	.byte W36
	.byte N48 @ Cn4, v092
	.byte W24
track_64_lbl_2233dc:
	.byte W24
	.byte N24, Cn4, v092
	.byte W24
	.byte N12 @ Cn4, v092
	.byte W12
	.byte N24 @ Cn4, v092
	.byte W24
	.byte PEND
track_64_lbl_2233e6:
	.byte N36, Cn4, v092
	.byte W36
	.byte N36 @ Cn4, v092
	.byte W36
	.byte N48 @ Cn4, v092
	.byte W24
	.byte PEND
	.byte PATT
		.word track_64_lbl_2233dc
track_64_lbl_2233f4:
	.byte N36, Cs4, v092
	.byte W36
	.byte N36 @ Cs4, v092
	.byte W36
	.byte N48 @ Cs4, v092
	.byte W24
	.byte PEND
track_64_lbl_2233fd:
	.byte W24
	.byte N24, Cs4, v092
	.byte W24
	.byte N12 @ Cs4, v092
	.byte W12
	.byte N24 @ Cs4, v092
	.byte W24
	.byte PEND
	.byte PATT
		.word track_64_lbl_2233f4
track_64_lbl_22340c:
	.byte W24
	.byte N24, Cs4, v092
	.byte W24
	.byte N12 @ Cs4, v092
	.byte W12
	.byte N12 @ Cs4, v092
	.byte W24
	.byte PEND
	.byte PATT
		.word track_64_lbl_2233e6
	.byte PATT
		.word track_64_lbl_2233dc
	.byte PATT
		.word track_64_lbl_2233e6
	.byte PATT
		.word track_64_lbl_2233dc
	.byte PATT
		.word track_64_lbl_2233f4
	.byte PATT
		.word track_64_lbl_2233fd
	.byte PATT
		.word track_64_lbl_2233f4
	.byte PATT
		.word track_64_lbl_22340c
	.byte PATT
		.word track_64_lbl_2233e6
	.byte PATT
		.word track_64_lbl_2233dc
	.byte PATT
		.word track_64_lbl_2233e6
	.byte PATT
		.word track_64_lbl_2233dc
	.byte PATT
		.word track_64_lbl_2233f4
	.byte PATT
		.word track_64_lbl_2233fd
	.byte PATT
		.word track_64_lbl_2233f4
	.byte PATT
		.word track_64_lbl_22340c
	.byte GOTO
		.word track_64_lbl_2233cc
	.byte FINE

track_64_2:
	.byte KEYSH, 0
track_64_lbl_22346e:
	.byte VOICE, 13
	.byte VOL, 86
	.byte PAN, c_v-38
	.byte PRIO, 118
	.byte N12, Cn2, v120
	.byte W36
	.byte N12 @ Cn2, v120
	.byte W36
	.byte N12 @ Cn2, v120
	.byte W24
track_64_lbl_22347e:
	.byte W24
	.byte N12, Cn2, v120
	.byte W24
	.byte N12 @ Cn2, v120
	.byte W12
	.byte N12 @ Cn2, v120
	.byte W24
	.byte PEND
	.byte N12 @ Cn2, v120
	.byte W36
	.byte N12 @ Cn2, v120
	.byte W36
	.byte N12 @ Cn2, v120
	.byte W24
	.byte PATT
		.word track_64_lbl_22347e
track_64_lbl_223493:
	.byte N12, Cs2, v120
	.byte W36
	.byte N12 @ Cs2, v120
	.byte W36
	.byte N12 @ Cs2, v120
	.byte W24
	.byte PEND
track_64_lbl_22349c:
	.byte W24
	.byte N12, Cs2, v120
	.byte W24
	.byte N12 @ Cs2, v120
	.byte W12
	.byte N12 @ Cs2, v120
	.byte W24
	.byte PEND
	.byte PATT
		.word track_64_lbl_223493
	.byte PATT
		.word track_64_lbl_22349c
track_64_lbl_2234b0:
	.byte N12, Cn2, v112
	.byte W36
	.byte N12 @ Cn2, v112
	.byte W36
	.byte N12 @ Cn2, v112
	.byte W24
	.byte PEND
track_64_lbl_2234b9:
	.byte W24
	.byte N12, Cn2, v112
	.byte W24
	.byte N12 @ Cn2, v112
	.byte W12
	.byte N12 @ Cn2, v112
	.byte W24
	.byte PEND
	.byte PATT
		.word track_64_lbl_2234b0
	.byte PATT
		.word track_64_lbl_2234b9
track_64_lbl_2234cd:
	.byte N12, Cs2, v112
	.byte W36
	.byte N12 @ Cs2, v112
	.byte W36
	.byte N12 @ Cs2, v112
	.byte W24
	.byte PEND
track_64_lbl_2234d6:
	.byte W24
	.byte N12, Cs2, v112
	.byte W24
	.byte N12 @ Cs2, v112
	.byte W12
	.byte N12 @ Cs2, v112
	.byte W24
	.byte PEND
	.byte PATT
		.word track_64_lbl_2234cd
	.byte PATT
		.word track_64_lbl_2234d6
	.byte N12, Cn2, v112
	.byte W36
	.byte Cn2, v108 @ N12
	.byte W36
	.byte N12 @ Cn2, v108
	.byte W24
	.byte W24
	.byte Cn2, v104 @ N12
	.byte W24
	.byte N12 @ Cn2, v104
	.byte W12
	.byte Cn2, v100 @ N12
	.byte W24
	.byte N12 @ Cn2, v100
	.byte W36
	.byte N12 @ Cn2, v100
	.byte W36
	.byte Cn2, v096 @ N12
	.byte W24
	.byte W24
	.byte Cn2, v092 @ N12
	.byte W24
	.byte N12 @ Cn2, v092
	.byte W12
	.byte N12 @ Cn2, v092
	.byte W24
	.byte Cs2, v088 @ N12
	.byte W36
	.byte Cs2, v092 @ N12
	.byte W36
	.byte N12 @ Cs2, v092
	.byte W24
	.byte W24
	.byte Cs2, v096 @ N12
	.byte W24
	.byte Cs2, v100 @ N12
	.byte W12
	.byte N12 @ Cs2, v100
	.byte W24
	.byte N12 @ Cs2, v100
	.byte W36
	.byte Cs2, v104 @ N12
	.byte W36
	.byte N12 @ Cs2, v104
	.byte W24
	.byte W24
	.byte Cs2, v108 @ N12
	.byte W24
	.byte N12 @ Cs2, v108
	.byte W12
	.byte N12 @ Cs2, v108
	.byte W24
	.byte GOTO
		.word track_64_lbl_22346e
	.byte FINE

track_64_3:
	.byte KEYSH, 0
track_64_lbl_223533:
	.byte VOICE, 59
	.byte VOL, 78
	.byte PAN, c_v+42
	.byte PRIO, 30
	.byte N16, Cn2, v100
	.byte N16, Fs2 @ v100
	.byte W36
	.byte Cn2 @ N16, v100
	.byte N16, Fs2 @ v100
	.byte W36
	.byte Cn2 @ N16, v100
	.byte N16, Fs2 @ v100
	.byte W24
track_64_lbl_223549:
	.byte W24
	.byte N16, Cn2, v100
	.byte N16, Fs2 @ v100
	.byte W24
	.byte N12, Cn2 @ v100
	.byte N12, Fs2 @ v100
	.byte W12
	.byte N16, Cn2 @ v100
	.byte N16, Fs2 @ v100
	.byte W24
	.byte PEND
track_64_lbl_22355b:
	.byte N16, Cn2, v100
	.byte N16, Fs2 @ v100
	.byte W36
	.byte Cn2 @ N16, v100
	.byte N16, Fs2 @ v100
	.byte W36
	.byte Cn2 @ N16, v100
	.byte N16, Fs2 @ v100
	.byte W24
	.byte PEND
	.byte PATT
		.word track_64_lbl_223549
track_64_lbl_22356f:
	.byte N16, Cs2, v100
	.byte N16, Gn2 @ v100
	.byte W36
	.byte Cs2 @ N16, v100
	.byte N16, Gn2 @ v100
	.byte W36
	.byte Cs2 @ N16, v100
	.byte N16, Gn2 @ v100
	.byte W24
	.byte PEND
track_64_lbl_22357e:
	.byte W24
	.byte N16, Cs2, v100
	.byte N16, Gn2 @ v100
	.byte W24
	.byte N12, Cs2 @ v100
	.byte N12, Gn2 @ v100
	.byte W12
	.byte N16, Cs2 @ v100
	.byte N16, Gn2 @ v100
	.byte W24
	.byte PEND
	.byte PATT
		.word track_64_lbl_22356f
	.byte PATT
		.word track_64_lbl_22357e
	.byte PATT
		.word track_64_lbl_22355b
	.byte PATT
		.word track_64_lbl_223549
	.byte N16, Cn2, v100
	.byte N16, Fs2 @ v100
	.byte W36
	.byte Cn2, v096 @ N16
	.byte N16, Fs2 @ v096
	.byte W36
	.byte Cn2, v092 @ N16
	.byte N16, Fs2 @ v092
	.byte W24
	.byte W24
	.byte Cn2, v088 @ N16
	.byte N16, Fs2 @ v088
	.byte W24
	.byte N12, Cn2, v084
	.byte N12, Fs2 @ v084
	.byte W12
	.byte N16, Cn2 @ v084
	.byte N16, Fs2 @ v084
	.byte W24
	.byte Cs2, v080 @ N16
	.byte N16, Gn2 @ v080
	.byte W36
	.byte Cs2, v084 @ N16
	.byte N16, Gn2 @ v084
	.byte W36
	.byte Cs2, v088 @ N16
	.byte N16, Gn2 @ v088
	.byte W24
	.byte W24
	.byte Cs2, v096 @ N16
	.byte N16, Gn2 @ v096
	.byte W24
	.byte N12, Cs2 @ v096
	.byte N12, Gn2 @ v096
	.byte W12
	.byte N16, Cs2, v100
	.byte N16, Gn2 @ v100
	.byte W24
	.byte PATT
		.word track_64_lbl_22356f
	.byte PATT
		.word track_64_lbl_22357e
	.byte N16, Cn2, v100
	.byte N16, Fs2 @ v100
	.byte W36
	.byte Cn2 @ N16, v100
	.byte N16, Fs2 @ v100
	.byte W36
	.byte Cn2, v096 @ N16
	.byte N16, Fs2 @ v096
	.byte W24
	.byte W24
	.byte Cn2 @ N16, v096
	.byte N16, Fs2 @ v096
	.byte W24
	.byte N12, Cn2, v092
	.byte N12, Fs2 @ v092
	.byte W12
	.byte N16, Cn2 @ v092
	.byte N16, Fs2 @ v092
	.byte W24
	.byte Cn2 @ N16, v092
	.byte N16, Fs2 @ v092
	.byte W36
	.byte Cn2, v084 @ N16
	.byte N16, Fs2 @ v084
	.byte W36
	.byte Cn2, v080 @ N16
	.byte N16, Fs2 @ v080
	.byte W24
	.byte W24
	.byte Cn2, v072 @ N16
	.byte N16, Fs2 @ v072
	.byte W24
	.byte N12, Cn2 @ v072
	.byte N12, Fs2 @ v072
	.byte W12
	.byte N16, Cn2, v068
	.byte N16, Fs2 @ v068
	.byte W24
	.byte Cs2, v064 @ N16
	.byte N16, Gn2 @ v064
	.byte W36
	.byte Cs2, v072 @ N16
	.byte N16, Gn2 @ v072
	.byte W36
	.byte Cs2, v076 @ N16
	.byte N16, Gn2 @ v076
	.byte W24
	.byte W24
	.byte Cs2, v080 @ N16
	.byte N16, Gn2 @ v080
	.byte W24
	.byte N12, Cs2, v084
	.byte N12, Gn2 @ v084
	.byte W12
	.byte N16, Cs2, v088
	.byte N16, Gn2 @ v088
	.byte W24
	.byte Cs2, v092 @ N16
	.byte N16, Gn2 @ v092
	.byte W36
	.byte Cs2 @ N16, v092
	.byte N16, Gn2 @ v092
	.byte W36
	.byte Cs2, v096 @ N16
	.byte N16, Gn2 @ v096
	.byte W24
	.byte W24
	.byte Cs2 @ N16, v096
	.byte N16, Gn2 @ v096
	.byte W24
	.byte N12, Cs2, v100
	.byte N12, Gn2 @ v100
	.byte W12
	.byte N16, Cs2 @ v100
	.byte N16, Gn2 @ v100
	.byte W24
	.byte GOTO
		.word track_64_lbl_223533
	.byte FINE

track_64_4:
	.byte KEYSH, 0
track_64_lbl_223674:
	.byte VOICE, 44
	.byte VOL, 62
	.byte PAN, c_v-16
	.byte PRIO, 29
	.byte N36, Cn4, v040
	.byte W36
	.byte N36 @ Cn4, v040
	.byte W36
	.byte N48 @ Cn4, v040
	.byte W24
track_64_lbl_223684:
	.byte W24
	.byte N24, Cn4, v040
	.byte W24
	.byte N12 @ Cn4, v040
	.byte W12
	.byte N24 @ Cn4, v040
	.byte W24
	.byte PEND
track_64_lbl_22368e:
	.byte N36, Cn4, v040
	.byte W36
	.byte N36 @ Cn4, v040
	.byte W36
	.byte N48 @ Cn4, v040
	.byte W24
	.byte PEND
	.byte PATT
		.word track_64_lbl_223684
track_64_lbl_22369c:
	.byte N36, Cs4, v040
	.byte W36
	.byte N36 @ Cs4, v040
	.byte W36
	.byte N48 @ Cs4, v040
	.byte W24
	.byte PEND
track_64_lbl_2236a5:
	.byte W24
	.byte N24, Cs4, v040
	.byte W24
	.byte N12 @ Cs4, v040
	.byte W12
	.byte N24 @ Cs4, v040
	.byte W24
	.byte PEND
	.byte PATT
		.word track_64_lbl_22369c
track_64_lbl_2236b4:
	.byte W24
	.byte N24, Cs4, v040
	.byte W24
	.byte N12 @ Cs4, v040
	.byte W12
	.byte N12 @ Cs4, v040
	.byte W24
	.byte PEND
	.byte PATT
		.word track_64_lbl_22368e
	.byte PATT
		.word track_64_lbl_223684
	.byte PATT
		.word track_64_lbl_22368e
	.byte PATT
		.word track_64_lbl_223684
	.byte PATT
		.word track_64_lbl_22369c
	.byte PATT
		.word track_64_lbl_2236a5
	.byte PATT
		.word track_64_lbl_22369c
	.byte PATT
		.word track_64_lbl_2236b4
	.byte PATT
		.word track_64_lbl_22368e
	.byte PATT
		.word track_64_lbl_223684
	.byte PATT
		.word track_64_lbl_22368e
	.byte PATT
		.word track_64_lbl_223684
	.byte PATT
		.word track_64_lbl_22369c
	.byte PATT
		.word track_64_lbl_2236a5
	.byte PATT
		.word track_64_lbl_22369c
	.byte PATT
		.word track_64_lbl_2236b4
	.byte GOTO
		.word track_64_lbl_223674
	.byte FINE

track_64_5:
	.byte KEYSH, 0
track_64_lbl_223716:
	.byte VOICE, 0
	.byte VOL, 78
	.byte PAN, c_v
	.byte PRIO, 28
	.byte N72, Cs2, v088
	.byte W72
	.byte N12, En1, v092
	.byte W24
track_64_lbl_223726:
	.byte N12, En1, v088
	.byte W24
	.byte En1, v084 @ N12
	.byte W24
	.byte N12 @ En1, v084
	.byte W12
	.byte En1, v080 @ N12
	.byte W24
	.byte PEND
track_64_lbl_223733:
	.byte N12, En1, v076
	.byte W36
	.byte En1, v072 @ N12
	.byte W36
	.byte En1, v068 @ N12
	.byte W24
	.byte PEND
track_64_lbl_22373e:
	.byte N24, Cs2, v088
	.byte W24
	.byte N12, An1, v096
	.byte W24
	.byte Gn1, v092 @ N12
	.byte W36
	.byte PEND
track_64_lbl_22374a:
	.byte N12, En1, v056
	.byte W36
	.byte En1, v060 @ N12
	.byte W36
	.byte En1, v064 @ N12
	.byte W24
	.byte PEND
track_64_lbl_223755:
	.byte N12, En1, v068
	.byte W24
	.byte N12 @ En1, v068
	.byte W24
	.byte En1, v072 @ N12
	.byte W12
	.byte N12 @ En1, v072
	.byte W24
	.byte PEND
track_64_lbl_223761:
	.byte N12, En1, v076
	.byte W36
	.byte En1, v080 @ N12
	.byte W36
	.byte En1, v084 @ N12
	.byte W24
	.byte PEND
track_64_lbl_22376c:
	.byte N12, En1, v088
	.byte W24
	.byte En1, v092 @ N12
	.byte W24
	.byte Cs2, v068 @ N12
	.byte W12
	.byte Cs2, v100 @ N12
	.byte W24
	.byte PEND
track_64_lbl_22377a:
	.byte N72, Cs2, v088
	.byte W72
	.byte N12, En1, v092
	.byte W24
	.byte PEND
	.byte PATT
		.word track_64_lbl_223726
	.byte PATT
		.word track_64_lbl_223733
	.byte PATT
		.word track_64_lbl_22373e
	.byte PATT
		.word track_64_lbl_22374a
	.byte PATT
		.word track_64_lbl_223755
	.byte PATT
		.word track_64_lbl_223761
	.byte PATT
		.word track_64_lbl_22376c
	.byte PATT
		.word track_64_lbl_22377a
	.byte PATT
		.word track_64_lbl_223726
	.byte PATT
		.word track_64_lbl_223733
	.byte PATT
		.word track_64_lbl_22373e
	.byte PATT
		.word track_64_lbl_22374a
	.byte PATT
		.word track_64_lbl_223755
	.byte PATT
		.word track_64_lbl_223761
	.byte PATT
		.word track_64_lbl_22376c
	.byte GOTO
		.word track_64_lbl_223716
	.byte FINE

track_64_6:
	.byte KEYSH, 0
track_64_lbl_2237d6:
	.byte VOICE, 57
	.byte VOL, 86
	.byte PAN, c_v
	.byte N30, Cn1, v127
	.byte W36
	.byte N30 @ Cn1, v127
	.byte W36
	.byte N42 @ Cn1, v127
	.byte W24
track_64_lbl_2237e4:
	.byte W24
	.byte N18, Cn1, v127
	.byte W24
	.byte N06 @ Cn1, v127
	.byte W12
	.byte N18 @ Cn1, v127
	.byte W24
	.byte PEND
track_64_lbl_2237ee:
	.byte N30, Cn1, v127
	.byte W36
	.byte N30 @ Cn1, v127
	.byte W36
	.byte N42 @ Cn1, v127
	.byte W24
	.byte PEND
track_64_lbl_2237f7:
	.byte W24
	.byte N18, Cn1, v127
	.byte W24
	.byte N12 @ Cn1, v127
	.byte W12
	.byte N18 @ Cn1, v127
	.byte W24
	.byte PEND
track_64_lbl_223801:
	.byte N30, Cs1, v127
	.byte W36
	.byte N30 @ Cs1, v127
	.byte W36
	.byte N42 @ Cs1, v127
	.byte W24
	.byte PEND
track_64_lbl_22380a:
	.byte W24
	.byte N18, Cs1, v127
	.byte W24
	.byte N06 @ Cs1, v127
	.byte W12
	.byte N18 @ Cs1, v127
	.byte W24
	.byte PEND
	.byte PATT
		.word track_64_lbl_223801
	.byte PATT
		.word track_64_lbl_22380a
	.byte PATT
		.word track_64_lbl_2237ee
	.byte PATT
		.word track_64_lbl_2237e4
	.byte PATT
		.word track_64_lbl_2237ee
	.byte PATT
		.word track_64_lbl_2237f7
	.byte PATT
		.word track_64_lbl_223801
	.byte PATT
		.word track_64_lbl_22380a
	.byte PATT
		.word track_64_lbl_223801
	.byte PATT
		.word track_64_lbl_22380a
	.byte PATT
		.word track_64_lbl_2237ee
	.byte PATT
		.word track_64_lbl_2237e4
	.byte PATT
		.word track_64_lbl_2237ee
	.byte PATT
		.word track_64_lbl_2237f7
	.byte PATT
		.word track_64_lbl_223801
	.byte PATT
		.word track_64_lbl_22380a
	.byte PATT
		.word track_64_lbl_223801
	.byte PATT
		.word track_64_lbl_22380a
	.byte GOTO
		.word track_64_lbl_2237d6
	.byte FINE

track_64_7:
	.byte KEYSH, 0
track_64_lbl_223876:
	.byte VOICE, 56
	.byte VOL, 86
	.byte PAN, c_v
	.byte N36, Cn2, v120
	.byte W36
	.byte N36 @ Cn2, v120
	.byte W36
	.byte N48 @ Cn2, v120
	.byte W24
track_64_lbl_223884:
	.byte W24
	.byte N24, Cn2, v120
	.byte W24
	.byte N12 @ Cn2, v120
	.byte W12
	.byte N24 @ Cn2, v120
	.byte W24
	.byte PEND
track_64_lbl_22388e:
	.byte N36, Cn2, v120
	.byte W36
	.byte N36 @ Cn2, v120
	.byte W36
	.byte N48 @ Cn2, v120
	.byte W24
	.byte PEND
	.byte PATT
		.word track_64_lbl_223884
track_64_lbl_22389c:
	.byte N36, Cs2, v120
	.byte W36
	.byte N36 @ Cs2, v120
	.byte W36
	.byte N48 @ Cs2, v120
	.byte W24
	.byte PEND
track_64_lbl_2238a5:
	.byte W24
	.byte N24, Cs2, v120
	.byte W24
	.byte N12 @ Cs2, v120
	.byte W12
	.byte N24 @ Cs2, v120
	.byte W24
	.byte PEND
	.byte PATT
		.word track_64_lbl_22389c
track_64_lbl_2238b4:
	.byte W24
	.byte N24, Cs2, v120
	.byte W24
	.byte N12 @ Cs2, v120
	.byte W12
	.byte N18 @ Cs2, v120
	.byte W24
	.byte PEND
	.byte PATT
		.word track_64_lbl_22388e
	.byte PATT
		.word track_64_lbl_223884
	.byte PATT
		.word track_64_lbl_22388e
	.byte PATT
		.word track_64_lbl_223884
	.byte PATT
		.word track_64_lbl_22389c
	.byte PATT
		.word track_64_lbl_2238a5
	.byte PATT
		.word track_64_lbl_22389c
	.byte PATT
		.word track_64_lbl_2238b4
	.byte PATT
		.word track_64_lbl_22388e
	.byte PATT
		.word track_64_lbl_223884
	.byte PATT
		.word track_64_lbl_22388e
	.byte PATT
		.word track_64_lbl_223884
	.byte PATT
		.word track_64_lbl_22389c
	.byte PATT
		.word track_64_lbl_2238a5
	.byte PATT
		.word track_64_lbl_22389c
	.byte PATT
		.word track_64_lbl_2238b4
	.byte GOTO
		.word track_64_lbl_223876
	.byte FINE

.align 2

track_64:
	.byte 8
	.byte 0
	.byte 130
	.byte 0
	.word voice_group20
	.word track_64_0
	.word track_64_1
	.word track_64_2
	.word track_64_3
	.word track_64_4
	.word track_64_5
	.word track_64_6
	.word track_64_7

.align 2
