.align 2

.global track_26

track_26_0:
	.byte VOL, 80
	.byte KEYSH, 0
	.byte TEMPO, 51
	.byte TIE, Fn2, v092
	.byte W06
	.byte VOICE, 46
	.byte VOL, 75
	.byte PAN, c_v+15
	.byte W30
	.byte N90, Cn3, v040
	.byte W60
	.byte W30
	.byte EOT, Fn2 @ v040
	.byte W66
	.byte W96
	.byte W96
	.byte W96
	.byte W96
	.byte W96
	.byte W96
	.byte W96
	.byte W96
	.byte W96
	.byte W96
	.byte W96
	.byte FINE

track_26_1:
	.byte KEYSH, 0
	.byte VOICE, 46
	.byte VOL, 75
	.byte PAN, c_v-17
	.byte TIE, As1, v092
	.byte W36
	.byte N90, Fn2, v072
	.byte W60
	.byte W30
	.byte EOT, As1 @ v072
	.byte W66
	.byte W96
	.byte W96
	.byte W96
	.byte W96
	.byte W96
	.byte W96
	.byte W96
	.byte W96
	.byte W96
	.byte W96
	.byte W96
	.byte FINE

track_26_2:
	.byte KEYSH, 0
	.byte W96
	.byte W30
	.byte VOICE, 91
	.byte VOL, 44
	.byte PAN, c_v+15
	.byte N36, An3, v092
	.byte W48
	.byte N20, Cn4, v096
	.byte W18
	.byte W06
	.byte N06 @ Cn4, v096
	.byte W08
	.byte N04 @ Cn4, v096
	.byte W07
	.byte N04 @ Cn4, v096
	.byte W09
	.byte N36, Ds4 @ v096
	.byte W48
	.byte N16, Gs4, v100
	.byte W18
	.byte W06
	.byte N06 @ Gs4, v100
	.byte W10
	.byte Gs4, v104 @ N06
	.byte W11
	.byte N07 @ Gs4, v104
	.byte W15
	.byte N60, Gn4 @ v104
	.byte W54
	.byte W96
	.byte W96
	.byte W96
	.byte W96
	.byte W96
	.byte W96
	.byte W96
	.byte W96
	.byte W96
	.byte FINE

track_26_3:
	.byte KEYSH, 0
	.byte W96
	.byte W30
	.byte VOICE, 91
	.byte VOL, 44
	.byte PAN, c_v
	.byte N36, Cn3, v092
	.byte N36, Fn3 @ v092
	.byte N36, An3 @ v092
	.byte W48
	.byte N20, Fn3, v096
	.byte N20, An3 @ v096
	.byte N20, Cn4 @ v096
	.byte W18
	.byte W06
	.byte N06, Fn3 @ v096
	.byte N06, An3 @ v096
	.byte N06, Cn4 @ v096
	.byte W08
	.byte N04, Fn3 @ v096
	.byte N04, An3 @ v096
	.byte N04, Cn4 @ v096
	.byte W08
	.byte Fn3 @ N04, v096
	.byte N04, An3 @ v096
	.byte N04, Cn4 @ v096
	.byte W08
	.byte N36, Ds3 @ v096
	.byte N36, Gs3 @ v096
	.byte N36, Cn4 @ v096
	.byte W48
	.byte N20, Gs3, v100
	.byte N20, Cn4 @ v100
	.byte N20, Ds4 @ v100
	.byte W18
	.byte W06
	.byte N06, Gs3 @ v100
	.byte N06, Cn4 @ v100
	.byte N06, Ds4 @ v100
	.byte W10
	.byte Gs3, v104 @ N06
	.byte N06, Cn4 @ v104
	.byte N06, Ds4 @ v104
	.byte W11
	.byte N08, Gs3 @ v104
	.byte N08, Cn4 @ v104
	.byte N08, Ds4 @ v104
	.byte W15
	.byte N60, Gn3 @ v104
	.byte N60, Cn4 @ v104
	.byte N60, Dn4 @ v104
	.byte W54
	.byte W18
	.byte N03, Dn3, v108
	.byte N03, Gn3 @ v108
	.byte W06
	.byte Dn3, v112 @ N03
	.byte N03, Gn3 @ v112
	.byte W06
	.byte Dn3 @ N03, v112
	.byte N03, Gn3 @ v112
	.byte W06
	.byte Dn3 @ N03, v112
	.byte N03, Gn3 @ v112
	.byte W06
	.byte Dn3 @ N03, v112
	.byte N03, Gn3 @ v112
	.byte W54
	.byte W96
	.byte W96
	.byte W96
	.byte W96
	.byte W96
	.byte W96
	.byte W96
	.byte W96
	.byte FINE

track_26_4:
	.byte KEYSH, 0
	.byte W96
	.byte W30
	.byte VOICE, 84
	.byte VOL, 44
	.byte PAN, c_v-17
	.byte N36, Cn3, v092
	.byte W48
	.byte N20, Fn3, v096
	.byte W18
	.byte W06
	.byte N06 @ Fn3, v096
	.byte W08
	.byte N04 @ Fn3, v096
	.byte W08
	.byte N04 @ Fn3, v096
	.byte W08
	.byte N36, Ds3 @ v096
	.byte W48
	.byte N20, Gs3, v100
	.byte W18
	.byte W06
	.byte N06 @ Gs3, v100
	.byte W10
	.byte Gs3, v104 @ N06
	.byte W11
	.byte N08 @ Gs3, v104
	.byte W15
	.byte N60, Gn3 @ v104
	.byte W54
	.byte W18
	.byte N03, Gn2, v108
	.byte W06
	.byte Gn2, v112 @ N03
	.byte W06
	.byte N03 @ Gn2, v112
	.byte W06
	.byte N03 @ Gn2, v112
	.byte W06
	.byte N03 @ Gn2, v112
	.byte W54
	.byte W96
	.byte W96
	.byte W96
	.byte W96
	.byte W96
	.byte W96
	.byte W96
	.byte W96
	.byte FINE

track_26_5:
	.byte KEYSH, 0
	.byte W96
	.byte W30
	.byte VOICE, 92
	.byte VOL, 80
	.byte PAN, c_v
	.byte W24
	.byte N24, Cn3, v127
	.byte W42
	.byte W06
	.byte N24 @ Cn3, v127
	.byte W48
	.byte N24 @ Cn3, v127
	.byte W24
	.byte N24 @ Cn3, v127
	.byte W18
	.byte W06
	.byte N10 @ Cn3, v127
	.byte W10
	.byte N11 @ Cn3, v127
	.byte W11
	.byte N13 @ Cn3, v127
	.byte W15
	.byte N09 @ Cn3, v127
	.byte W54
	.byte W18
	.byte N03 @ Cn3, v127
	.byte W06
	.byte N03 @ Cn3, v127
	.byte W06
	.byte N03 @ Cn3, v127
	.byte W06
	.byte N03 @ Cn3, v127
	.byte W06
	.byte N03 @ Cn3, v127
	.byte W54
	.byte W96
	.byte W96
	.byte W96
	.byte W96
	.byte W96
	.byte W96
	.byte W96
	.byte W96
	.byte FINE

track_26_6:
	.byte KEYSH, 0
	.byte W96
	.byte W30
	.byte VOICE, 26
	.byte VOL, 80
	.byte PAN, c_v
	.byte W24
	.byte N24, Cn3, v127
	.byte W42
	.byte W06
	.byte N24 @ Cn3, v127
	.byte W48
	.byte N24 @ Cn3, v127
	.byte W24
	.byte N24 @ Cn3, v127
	.byte W18
	.byte W06
	.byte N10 @ Cn3, v127
	.byte W10
	.byte N11 @ Cn3, v127
	.byte W11
	.byte N13 @ Cn3, v127
	.byte W15
	.byte N09 @ Cn3, v127
	.byte W54
	.byte W18
	.byte N03 @ Cn3, v127
	.byte W06
	.byte N03 @ Cn3, v127
	.byte W06
	.byte N03 @ Cn3, v127
	.byte W06
	.byte N03 @ Cn3, v127
	.byte W06
	.byte N03 @ Cn3, v127
	.byte W54
	.byte W96
	.byte W96
	.byte W96
	.byte W96
	.byte W96
	.byte W96
	.byte W96
	.byte W96
	.byte FINE

track_26_7:
	.byte KEYSH, 0
	.byte W96
	.byte W30
	.byte VOICE, 25
	.byte VOL, 80
	.byte PAN, c_v
	.byte W24
	.byte N24, Cn3, v127
	.byte W42
	.byte W06
	.byte N24 @ Cn3, v127
	.byte W48
	.byte N24 @ Cn3, v127
	.byte W42
	.byte W42
	.byte N24 @ Cn3, v127
	.byte W54
	.byte W42
	.byte N24 @ Cn3, v127
	.byte W54
	.byte W96
	.byte W96
	.byte W96
	.byte W96
	.byte W96
	.byte W96
	.byte W96
	.byte W96
	.byte FINE

.align 2

track_26:
	.byte 8
	.byte 0
	.byte 130
	.byte 0
	.word voice_group0
	.word track_26_0
	.word track_26_1
	.word track_26_2
	.word track_26_3
	.word track_26_4
	.word track_26_5
	.word track_26_6
	.word track_26_7

.align 2
