.align 2

.global track_582

track_582_0:
	.byte KEYSH, 0
	.byte TEMPO, 75
	.byte VOICE, 34
	.byte VOL, 70
	.byte PAN, c_v
	.byte BENDR, 16
	.byte BEND, c_v-63
	.byte N48
	.byte Cn3, Gn8
	.byte W01
	.byte BEND, c_v-62
	.byte W01
	.byte EnM2
	.byte W01
	.byte FnM2
	.byte W01
	.byte GnM2
	.byte W01
	.byte GsM2
	.byte W01
	.byte AsM2
	.byte W01
	.byte BnM2
	.byte W01
	.byte CsM1
	.byte W01
	.byte DnM1
	.byte W01
	.byte EnM1
	.byte W01
	.byte FnM1
	.byte W01
	.byte FsM1
	.byte W01
	.byte GsM1
	.byte W01
	.byte AnM1
	.byte W01
	.byte BnM1
	.byte W01
	.byte Cn0
	.byte W01
	.byte Dn0
	.byte W01
	.byte Ds0
	.byte W01
	.byte Fn0
	.byte W01
	.byte Fs0
	.byte W01
	.byte Gn0
	.byte W01
	.byte An0
	.byte W01
	.byte As0
	.byte W01
	.byte Cn1
	.byte W01
	.byte Cs1
	.byte W01
	.byte Ds1
	.byte W01
	.byte En1
	.byte W01
	.byte Fs1
	.byte W01
	.byte Gn1
	.byte W01
	.byte An1
	.byte W01
	.byte As1
	.byte W01
	.byte Bn1
	.byte W01
	.byte Cs2
	.byte W01
	.byte Dn2
	.byte W01
	.byte En2
	.byte W01
	.byte VOL, 70
	.byte BEND, c_v-11
	.byte W01
	.byte VOL, 57
	.byte BEND, c_v-9
	.byte W01
	.byte VOL, 46
	.byte BEND, c_v-8
	.byte W01
	.byte VOL, 37
	.byte BEND, c_v-6
	.byte W01
	.byte VOL, 29
	.byte BEND, c_v-5
	.byte W01
	.byte VOL, 23
	.byte BEND, c_v-3
	.byte W01
	.byte VOL, 19
	.byte BEND, c_v-2
	.byte W01
	.byte VOL, 14
	.byte BEND, c_v-1
	.byte W01
	.byte VOL, 11
	.byte BEND, c_v+1
	.byte W01
	.byte VOL, 7
	.byte W01
	.byte EnM2
	.byte W01
	.byte DnM2
	.byte W01
	.byte CnM2
	.byte W48
	.byte W08

	.byte FINE

track_582_1:
	.byte KEYSH, 0
	.byte VOICE, 34
	.byte VOL, 70
	.byte PAN, c_v
	.byte BENDR, 16
	.byte BEND, c_v-63
	.byte N48
	.byte Cn2, Gn8
	.byte W01
	.byte BEND, c_v-62
	.byte W01
	.byte EnM2
	.byte W01
	.byte FnM2
	.byte W01
	.byte GnM2
	.byte W01
	.byte GsM2
	.byte W01
	.byte AsM2
	.byte W01
	.byte BnM2
	.byte W01
	.byte CsM1
	.byte W01
	.byte DnM1
	.byte W01
	.byte EnM1
	.byte W01
	.byte FnM1
	.byte W01
	.byte FsM1
	.byte W01
	.byte GsM1
	.byte W01
	.byte AnM1
	.byte W01
	.byte BnM1
	.byte W01
	.byte Cn0
	.byte W01
	.byte Dn0
	.byte W01
	.byte Ds0
	.byte W01
	.byte Fn0
	.byte W01
	.byte Fs0
	.byte W01
	.byte Gn0
	.byte W01
	.byte An0
	.byte W01
	.byte As0
	.byte W01
	.byte Cn1
	.byte W01
	.byte Cs1
	.byte W01
	.byte Ds1
	.byte W01
	.byte En1
	.byte W01
	.byte Fs1
	.byte W01
	.byte Gn1
	.byte W01
	.byte An1
	.byte W01
	.byte As1
	.byte W01
	.byte Bn1
	.byte W01
	.byte Cs2
	.byte W01
	.byte Dn2
	.byte W01
	.byte En2
	.byte W01
	.byte VOL, 70
	.byte BEND, c_v-11
	.byte W01
	.byte VOL, 57
	.byte BEND, c_v-9
	.byte W01
	.byte VOL, 46
	.byte BEND, c_v-8
	.byte W01
	.byte VOL, 37
	.byte BEND, c_v-6
	.byte W01
	.byte VOL, 29
	.byte BEND, c_v-5
	.byte W01
	.byte VOL, 23
	.byte BEND, c_v-3
	.byte W01
	.byte VOL, 19
	.byte BEND, c_v-2
	.byte W01
	.byte VOL, 14
	.byte BEND, c_v-1
	.byte W01
	.byte VOL, 11
	.byte BEND, c_v+1
	.byte W01
	.byte VOL, 7
	.byte W01
	.byte EnM2
	.byte W01
	.byte DnM2
	.byte W01
	.byte CnM2
	.byte W48
	.byte W08

	.byte FINE

track_582_2:
	.byte KEYSH, 0
	.byte W24
	.byte VOICE, 25
	.byte VOL, 31
	.byte PAN, c_v
	.byte BENDR, 12
	.byte BEND, c_v-47
	.byte N40
	.byte Cn3, Gs4
	.byte W01
	.byte BEND, c_v-45
	.byte W01
	.byte AsM1
	.byte W01
	.byte Cs0
	.byte W01
	.byte En0
	.byte W01
	.byte Gn0
	.byte W01
	.byte An0
	.byte W01
	.byte Cn1
	.byte W01
	.byte Ds1
	.byte W01
	.byte Fs1
	.byte W01
	.byte VOL, 100
	.byte BEND, c_v-19
	.byte W01
	.byte Cn2
	.byte W01
	.byte Dn2
	.byte W01
	.byte Fn2
	.byte W01
	.byte Gs2
	.byte W01
	.byte Bn2
	.byte W01
	.byte Dn3
	.byte W01
	.byte En3
	.byte W01
	.byte Gn3
	.byte W01
	.byte As3
	.byte W01
	.byte Cs4
	.byte W01
	.byte En4
	.byte W01
	.byte Gn4
	.byte W01
	.byte An4
	.byte W01
	.byte Cn5
	.byte W01
	.byte Ds5
	.byte W01
	.byte Fs5
	.byte W01
	.byte An5
	.byte W01
	.byte Cn6
	.byte W01
	.byte Dn6
	.byte W01
	.byte Fn6
	.byte W01
	.byte Gs6
	.byte W01
	.byte Bn6
	.byte W01
	.byte Dn7
	.byte W01
	.byte En7
	.byte W01
	.byte Gn7
	.byte W01
	.byte As7
	.byte W01
	.byte Cs8
	.byte W01
	.byte En8
	.byte W01
	.byte Gn8
	.byte W32
	.byte W01
	.byte W08

	.byte FINE

track_582_3:
	.byte KEYSH, 0
	.byte VOICE, 24
	.byte VOL, 0
	.byte PAN, c_v
	.byte BENDR, 24
	.byte BEND, c_v-63
	.byte N96
	.byte Cn4, En2
	.byte W01
	.byte VOL, 8
	.byte BEND, c_v-60
	.byte W01
	.byte VOL, 16
	.byte BEND, c_v-58
	.byte W01
	.byte VOL, 23
	.byte BEND, c_v-55
	.byte W01
	.byte VOL, 29
	.byte BEND, c_v-53
	.byte W01
	.byte VOL, 35
	.byte BEND, c_v-50
	.byte W01
	.byte VOL, 38
	.byte BEND, c_v-47
	.byte W01
	.byte VOL, 40
	.byte BEND, c_v-45
	.byte W01
	.byte VOL, 41
	.byte BEND, c_v-42
	.byte W01
	.byte VOL, 43
	.byte BEND, c_v-39
	.byte W01
	.byte Ds0
	.byte W01
	.byte Fs0
	.byte W01
	.byte VOL, 44
	.byte BEND, c_v-32
	.byte W01
	.byte Bn0
	.byte W01
	.byte VOL, 43
	.byte BEND, c_v-26
	.byte W01
	.byte VOL, 42
	.byte BEND, c_v-24
	.byte W01
	.byte VOL, 41
	.byte BEND, c_v-21
	.byte W01
	.byte VOL, 40
	.byte BEND, c_v-18
	.byte W01
	.byte VOL, 38
	.byte BEND, c_v-16
	.byte W01
	.byte VOL, 37
	.byte BEND, c_v-13
	.byte W01
	.byte VOL, 35
	.byte BEND, c_v-11
	.byte W01
	.byte VOL, 34
	.byte BEND, c_v-8
	.byte W01
	.byte VOL, 33
	.byte BEND, c_v-5
	.byte W01
	.byte VOL, 32
	.byte BEND, c_v-3
	.byte W01
	.byte VOL, 30
	.byte BEND, c_v
	.byte W01
	.byte VOL, 29
	.byte BEND, c_v+3
	.byte W01
	.byte VOL, 27
	.byte BEND, c_v+5
	.byte W01
	.byte VOL, 25
	.byte BEND, c_v+8
	.byte W01
	.byte VOL, 24
	.byte BEND, c_v+10
	.byte W01
	.byte VOL, 23
	.byte BEND, c_v+13
	.byte W01
	.byte VOL, 22
	.byte BEND, c_v+16
	.byte W01
	.byte VOL, 21
	.byte BEND, c_v+18
	.byte W01
	.byte VOL, 19
	.byte BEND, c_v+21
	.byte W01
	.byte VOL, 18
	.byte BEND, c_v+23
	.byte W01
	.byte VOL, 16
	.byte BEND, c_v+26
	.byte W01
	.byte VOL, 14
	.byte BEND, c_v+29
	.byte W01
	.byte Bn5
	.byte W01
	.byte VOL, 13
	.byte BEND, c_v+34
	.byte W01
	.byte VOL, 11
	.byte BEND, c_v+37
	.byte W01
	.byte Gn6
	.byte W01
	.byte VOL, 10
	.byte BEND, c_v+42
	.byte W01
	.byte Cn7
	.byte W01
	.byte VOL, 8
	.byte BEND, c_v+47
	.byte W01
	.byte VOL, 7
	.byte BEND, c_v+50
	.byte W01
	.byte Gs7
	.byte W01
	.byte VOL, 6
	.byte BEND, c_v+55
	.byte W01
	.byte VOL, 5
	.byte BEND, c_v+58
	.byte W01
	.byte En8
	.byte W01
	.byte Gn8
	.byte W01
	.byte En8
	.byte W01
	.byte Cs8
	.byte W01
	.byte Bn7
	.byte W01
	.byte Gs7
	.byte W01
	.byte Fn7
	.byte W01
	.byte VOL, 6
	.byte BEND, c_v+47
	.byte W01
	.byte VOL, 7
	.byte BEND, c_v+44
	.byte W01
	.byte An6
	.byte W01
	.byte VOL, 8
	.byte BEND, c_v+39
	.byte W01
	.byte VOL, 9
	.byte BEND, c_v+36
	.byte W01
	.byte VOL, 10
	.byte BEND, c_v+34
	.byte W01
	.byte VOL, 11
	.byte BEND, c_v+31
	.byte W01
	.byte VOL, 11
	.byte BEND, c_v+28
	.byte W01
	.byte VOL, 13
	.byte BEND, c_v+26
	.byte W01
	.byte Ds5
	.byte W01
	.byte VOL, 14
	.byte BEND, c_v+20
	.byte W01
	.byte As4
	.byte W01
	.byte Gn4
	.byte W01
	.byte VOL, 15
	.byte BEND, c_v+13
	.byte W01
	.byte VOL, 16
	.byte BEND, c_v+10
	.byte W01
	.byte Bn3
	.byte W01
	.byte An3
	.byte W01
	.byte Fs3
	.byte W01
	.byte VOL, 15
	.byte BEND, c_v-1
	.byte W01
	.byte VOL, 14
	.byte BEND, c_v-3
	.byte W01
	.byte As2
	.byte W01
	.byte VOL, 13
	.byte BEND, c_v-8
	.byte W01
	.byte Fn2
	.byte W01
	.byte VOL, 12
	.byte BEND, c_v-14
	.byte W01
	.byte VOL, 11
	.byte BEND, c_v-16
	.byte W01
	.byte VOL, 11
	.byte BEND, c_v-19
	.byte W01
	.byte VOL, 10
	.byte BEND, c_v-22
	.byte W01
	.byte VOL, 8
	.byte BEND, c_v-24
	.byte W01
	.byte VOL, 7
	.byte BEND, c_v-27
	.byte W01
	.byte VOL, 7
	.byte BEND, c_v-30
	.byte W01
	.byte VOL, 5
	.byte BEND, c_v-32
	.byte W01
	.byte VOL, 4
	.byte BEND, c_v-35
	.byte W01
	.byte VOL, 3
	.byte BEND, c_v-37
	.byte W01
	.byte VOL, 3
	.byte BEND, c_v-40
	.byte W01
	.byte VOL, 2
	.byte BEND, c_v-43
	.byte W01
	.byte VOL, 1
	.byte BEND, c_v-45
	.byte W01
	.byte VOL, 0
	.byte BEND, c_v-48
	.byte W01
	.byte CsM1
	.byte W01
	.byte BnM2
	.byte W01
	.byte GsM2
	.byte W01
	.byte FsM2
	.byte W01
	.byte DsM2
	.byte W01
	.byte CsM2
	.byte W08

	.byte FINE

.align 2

track_582:
	.byte 4
	.byte 0
	.byte 229
	.byte 0
	.word voice_group4
	.word track_582_0
	.word track_582_1
	.word track_582_2
	.word track_582_3

.align 2
