.include "audio/m_play_def.s"

.align 2

.section .rodata
.global track_686

track_686_0:
	.byte KEYSH, 0
	.byte TEMPO, 75
	.byte VOICE, 1
	.byte VOL, 100
	.byte PAN, c_v
	.byte W08
	.byte N32
	.byte An2, En7
	.byte W14
	.byte VOL, 94
	.byte W01
	.byte Bn4
	.byte W01
	.byte Cs4
	.byte W01
	.byte En3
	.byte W01
	.byte Gn2
	.byte W01
	.byte Cs2
	.byte W01
	.byte Gs1
	.byte W01
	.byte Cs1
	.byte W01
	.byte Gs0
	.byte W01
	.byte Ds0
	.byte W01
	.byte BnM1
	.byte W01
	.byte GnM1
	.byte W01
	.byte DsM1
	.byte W01
	.byte BnM2
	.byte W01
	.byte GsM2
	.byte W01
	.byte FnM2
	.byte W01
	.byte DsM2
	.byte W01
	.byte CnM2
	.byte W24
	.byte W01
	.byte En6
	.byte N15
	.byte Cn3, Gs5
	.byte W15
	.byte VOICE, 7
	.byte N24
	.byte An2
	.byte W13
	.byte VOL, 94
	.byte W01
	.byte Cs4
	.byte W01
	.byte Gn2
	.byte W01
	.byte Gs1
	.byte W01
	.byte An0
	.byte W01
	.byte Cs0
	.byte W01
	.byte GnM1
	.byte W01
	.byte CsM1
	.byte W01
	.byte GsM2
	.byte W01
	.byte EnM2
	.byte W01
	.byte CnM2
	.byte W18
	.byte VOICE, 6
	.byte VOL, 100
	.byte N36
	.byte En2, Gs6
	.byte W23
	.byte VOL, 99
	.byte W01
	.byte Gn4
	.byte W01
	.byte Dn3
	.byte W01
	.byte Ds2
	.byte W01
	.byte En1
	.byte W01
	.byte Gs0
	.byte W01
	.byte Cs0
	.byte W01
	.byte FsM1
	.byte W01
	.byte CsM1
	.byte W01
	.byte GsM2
	.byte W01
	.byte EnM2
	.byte W01
	.byte CnM2
	.byte W02

	.byte FINE

track_686_1:
	.byte KEYSH, 0
	.byte W48
	.byte VOICE, 15
	.byte VOL, 100
	.byte PAN, c_v
	.byte BENDR, 8
	.byte BEND, c_v+63
	.byte TIE
	.byte Cn1, Gs5
	.byte W01
	.byte BEND, c_v+62
	.byte W01
	.byte Fn8
	.byte W01
	.byte En8
	.byte W01
	.byte Ds8
	.byte W01
	.byte Dn8
	.byte W01
	.byte Cs8
	.byte W01
	.byte Cn8
	.byte W01
	.byte Bn7
	.byte W01
	.byte An7
	.byte W01
	.byte Gs7
	.byte W01
	.byte Gn7
	.byte W01
	.byte Fs7
	.byte W01
	.byte Fn7
	.byte W01
	.byte En7
	.byte W01
	.byte Ds7
	.byte W01
	.byte Dn7
	.byte W01
	.byte Cs7
	.byte W01
	.byte Cn7
	.byte W01
	.byte Bn6
	.byte W01
	.byte As6
	.byte W01
	.byte An6
	.byte W01
	.byte Gs6
	.byte W01
	.byte Gn6
	.byte W01
	.byte Fs6
	.byte W01
	.byte Fn6
	.byte W01
	.byte Ds6
	.byte W01
	.byte Dn6
	.byte W01
	.byte Cs6
	.byte W01
	.byte Cn6
	.byte W01
	.byte Bn5
	.byte W01
	.byte As5
	.byte W01
	.byte An5
	.byte W01
	.byte Gs5
	.byte W01
	.byte Gn5
	.byte W01
	.byte Fs5
	.byte W01
	.byte Fn5
	.byte W01
	.byte En5
	.byte W01
	.byte Ds5
	.byte W01
	.byte Dn5
	.byte W01
	.byte Cs5
	.byte W01
	.byte Cn5
	.byte W01
	.byte Bn4
	.byte W01
	.byte An4
	.byte W01
	.byte Gs4
	.byte W01
	.byte Gn4
	.byte W01
	.byte Fs4
	.byte W01
	.byte Fn4
	.byte W01
	.byte En4
	.byte W01
	.byte Ds4
	.byte W01
	.byte Dn4
	.byte W01
	.byte Cs4
	.byte W01
	.byte Cn4
	.byte W01
	.byte Bn3
	.byte W01
	.byte As3
	.byte W01
	.byte An3
	.byte W01
	.byte Gs3
	.byte W01
	.byte Gn3
	.byte W01
	.byte Fs3
	.byte W01
	.byte Fn3
	.byte W01
	.byte Ds3
	.byte W01
	.byte Dn3
	.byte W01
	.byte Cs3
	.byte W01
	.byte Cn3
	.byte W01
	.byte VOL, 100
	.byte BEND, c_v-5
	.byte W01
	.byte VOL, 95
	.byte BEND, c_v-6
	.byte W01
	.byte VOL, 92
	.byte BEND, c_v-7
	.byte W01
	.byte VOL, 87
	.byte BEND, c_v-8
	.byte W01
	.byte VOL, 82
	.byte BEND, c_v-9
	.byte W01
	.byte VOL, 79
	.byte BEND, c_v-10
	.byte W01
	.byte VOL, 76
	.byte BEND, c_v-11
	.byte W01
	.byte VOL, 72
	.byte BEND, c_v-12
	.byte W01
	.byte VOL, 68
	.byte BEND, c_v-13
	.byte W01
	.byte VOL, 66
	.byte BEND, c_v-14
	.byte W01
	.byte VOL, 62
	.byte BEND, c_v-15
	.byte W01
	.byte VOL, 60
	.byte BEND, c_v-16
	.byte W01
	.byte VOL, 57
	.byte BEND, c_v-17
	.byte W01
	.byte VOL, 54
	.byte BEND, c_v-19
	.byte W01
	.byte VOL, 52
	.byte BEND, c_v-20
	.byte W01
	.byte VOL, 50
	.byte BEND, c_v-21
	.byte W01
	.byte VOL, 48
	.byte BEND, c_v-22
	.byte W01
	.byte VOL, 45
	.byte BEND, c_v-23
	.byte W01
	.byte VOL, 43
	.byte BEND, c_v-24
	.byte W01
	.byte VOL, 41
	.byte BEND, c_v-25
	.byte W01
	.byte VOL, 40
	.byte BEND, c_v-26
	.byte W01
	.byte VOL, 38
	.byte BEND, c_v-27
	.byte W01
	.byte VOL, 36
	.byte BEND, c_v-28
	.byte W01
	.byte VOL, 33
	.byte BEND, c_v-29
	.byte W01
	.byte VOL, 33
	.byte BEND, c_v-30
	.byte W01
	.byte VOL, 30
	.byte BEND, c_v-31
	.byte W01
	.byte VOL, 29
	.byte BEND, c_v-32
	.byte W01
	.byte VOL, 27
	.byte BEND, c_v-33
	.byte W01
	.byte VOL, 26
	.byte BEND, c_v-34
	.byte W01
	.byte VOL, 25
	.byte BEND, c_v-35
	.byte W01
	.byte VOL, 24
	.byte BEND, c_v-36
	.byte W01
	.byte VOL, 22
	.byte BEND, c_v-38
	.byte W01
	.byte VOL, 21
	.byte BEND, c_v-39
	.byte W01
	.byte VOL, 19
	.byte BEND, c_v-40
	.byte W01
	.byte VOL, 18
	.byte BEND, c_v-41
	.byte W01
	.byte VOL, 18
	.byte BEND, c_v-42
	.byte W01
	.byte VOL, 16
	.byte BEND, c_v-43
	.byte W01
	.byte VOL, 14
	.byte BEND, c_v-44
	.byte W01
	.byte GnM1
	.byte W01
	.byte VOL, 13
	.byte BEND, c_v-46
	.byte W01
	.byte VOL, 11
	.byte BEND, c_v-47
	.byte W01
	.byte EnM1
	.byte W01
	.byte VOL, 10
	.byte BEND, c_v-49
	.byte W01
	.byte VOL, 9
	.byte BEND, c_v-50
	.byte W01
	.byte VOL, 8
	.byte BEND, c_v-51
	.byte W01
	.byte VOL, 7
	.byte BEND, c_v-52
	.byte W01
	.byte VOL, 7
	.byte BEND, c_v-53
	.byte W01
	.byte VOL, 5
	.byte BEND, c_v-54
	.byte W01
	.byte GsM2
	.byte W01
	.byte VOL, 3
	.byte BEND, c_v-57
	.byte W01
	.byte FsM2
	.byte W01
	.byte VOL, 2
	.byte BEND, c_v-59
	.byte W01
	.byte EnM2
	.byte W01
	.byte VOL, 1
	.byte BEND, c_v-61
	.byte W01
	.byte VOL, 0
	.byte BEND, c_v-62
	.byte W01
	.byte VOL, 0
	.byte BEND, c_v-63
	.byte W01
	.byte EOT

	.byte FINE

track_686_2:
	.byte KEYSH, 0
	.byte W48
	.byte VOICE, 16
	.byte VOL, 78
	.byte PAN, c_v
	.byte BENDR, 8
	.byte BEND, c_v+63
	.byte TIE
	.byte Cn2, En2
	.byte W01
	.byte BEND, c_v+62
	.byte W01
	.byte Fn8
	.byte W01
	.byte En8
	.byte W01
	.byte Ds8
	.byte W01
	.byte Dn8
	.byte W01
	.byte Cs8
	.byte W01
	.byte Cn8
	.byte W01
	.byte Bn7
	.byte W01
	.byte An7
	.byte W01
	.byte Gs7
	.byte W01
	.byte Gn7
	.byte W01
	.byte Fs7
	.byte W01
	.byte Fn7
	.byte W01
	.byte En7
	.byte W01
	.byte Ds7
	.byte W01
	.byte Dn7
	.byte W01
	.byte Cs7
	.byte W01
	.byte Cn7
	.byte W01
	.byte Bn6
	.byte W01
	.byte As6
	.byte W01
	.byte An6
	.byte W01
	.byte Gs6
	.byte W01
	.byte Gn6
	.byte W01
	.byte Fs6
	.byte W01
	.byte Fn6
	.byte W01
	.byte Ds6
	.byte W01
	.byte Dn6
	.byte W01
	.byte Cs6
	.byte W01
	.byte Cn6
	.byte W01
	.byte Bn5
	.byte W01
	.byte As5
	.byte W01
	.byte An5
	.byte W01
	.byte Gs5
	.byte W01
	.byte Gn5
	.byte W01
	.byte Fs5
	.byte W01
	.byte Fn5
	.byte W01
	.byte En5
	.byte W01
	.byte Ds5
	.byte W01
	.byte Dn5
	.byte W01
	.byte Cs5
	.byte W01
	.byte Cn5
	.byte W01
	.byte Bn4
	.byte W01
	.byte An4
	.byte W01
	.byte Gs4
	.byte W01
	.byte Gn4
	.byte W01
	.byte Fs4
	.byte W01
	.byte Fn4
	.byte W01
	.byte En4
	.byte W01
	.byte Ds4
	.byte W01
	.byte Dn4
	.byte W01
	.byte Cs4
	.byte W01
	.byte Cn4
	.byte W01
	.byte Bn3
	.byte W01
	.byte As3
	.byte W01
	.byte An3
	.byte W01
	.byte Gs3
	.byte W01
	.byte Gn3
	.byte W01
	.byte Fs3
	.byte W01
	.byte Fn3
	.byte W01
	.byte Ds3
	.byte W01
	.byte Dn3
	.byte W01
	.byte Cs3
	.byte W01
	.byte Cn3
	.byte W01
	.byte VOL, 78
	.byte BEND, c_v-5
	.byte W01
	.byte VOL, 74
	.byte BEND, c_v-6
	.byte W01
	.byte VOL, 70
	.byte BEND, c_v-7
	.byte W01
	.byte VOL, 66
	.byte BEND, c_v-8
	.byte W01
	.byte VOL, 62
	.byte BEND, c_v-9
	.byte W01
	.byte VOL, 60
	.byte BEND, c_v-10
	.byte W01
	.byte VOL, 56
	.byte BEND, c_v-11
	.byte W01
	.byte VOL, 54
	.byte BEND, c_v-12
	.byte W01
	.byte VOL, 51
	.byte BEND, c_v-13
	.byte W01
	.byte VOL, 48
	.byte BEND, c_v-14
	.byte W01
	.byte VOL, 46
	.byte BEND, c_v-15
	.byte W01
	.byte VOL, 43
	.byte BEND, c_v-16
	.byte W01
	.byte VOL, 41
	.byte BEND, c_v-17
	.byte W01
	.byte VOL, 40
	.byte BEND, c_v-19
	.byte W01
	.byte VOL, 37
	.byte BEND, c_v-20
	.byte W01
	.byte VOL, 35
	.byte BEND, c_v-21
	.byte W01
	.byte VOL, 33
	.byte BEND, c_v-22
	.byte W01
	.byte VOL, 32
	.byte BEND, c_v-23
	.byte W01
	.byte VOL, 30
	.byte BEND, c_v-24
	.byte W01
	.byte VOL, 29
	.byte BEND, c_v-25
	.byte W01
	.byte VOL, 27
	.byte BEND, c_v-26
	.byte W01
	.byte VOL, 26
	.byte BEND, c_v-27
	.byte W01
	.byte VOL, 24
	.byte BEND, c_v-28
	.byte W01
	.byte VOL, 23
	.byte BEND, c_v-29
	.byte W01
	.byte VOL, 22
	.byte BEND, c_v-30
	.byte W01
	.byte VOL, 21
	.byte BEND, c_v-31
	.byte W01
	.byte VOL, 19
	.byte BEND, c_v-32
	.byte W01
	.byte Gn0
	.byte W01
	.byte VOL, 18
	.byte BEND, c_v-34
	.byte W01
	.byte VOL, 17
	.byte BEND, c_v-35
	.byte W01
	.byte VOL, 16
	.byte BEND, c_v-36
	.byte W01
	.byte VOL, 14
	.byte BEND, c_v-38
	.byte W01
	.byte Cs0
	.byte W01
	.byte VOL, 13
	.byte BEND, c_v-40
	.byte W01
	.byte BnM1
	.byte W01
	.byte VOL, 11
	.byte BEND, c_v-42
	.byte W01
	.byte AnM1
	.byte W01
	.byte VOL, 10
	.byte BEND, c_v-44
	.byte W01
	.byte GnM1
	.byte W01
	.byte VOL, 8
	.byte BEND, c_v-46
	.byte W01
	.byte FnM1
	.byte W01
	.byte VOL, 7
	.byte BEND, c_v-48
	.byte W01
	.byte DsM1
	.byte W01
	.byte VOL, 6
	.byte BEND, c_v-50
	.byte W01
	.byte VOL, 5
	.byte BEND, c_v-51
	.byte W01
	.byte CnM1
	.byte W01
	.byte VOL, 3
	.byte BEND, c_v-53
	.byte W01
	.byte AsM2
	.byte W01
	.byte GsM2
	.byte W01
	.byte VOL, 2
	.byte BEND, c_v-57
	.byte W01
	.byte FsM2
	.byte W01
	.byte FnM2
	.byte W01
	.byte VOL, 1
	.byte BEND, c_v-60
	.byte W01
	.byte VOL, 0
	.byte BEND, c_v-61
	.byte W01
	.byte VOL, 0
	.byte BEND, c_v-62
	.byte W01
	.byte CsM2
	.byte W01
	.byte EOT

	.byte FINE

.align 2

track_686:
	.byte 3
	.byte 0
	.byte 252
	.byte 0
	.word voice_group14
	.word track_686_0
	.word track_686_1
	.word track_686_2

.align 2
