.align 2

.global track_66

track_66_0:
	.byte KEYSH, 0
	.byte TEMPO, 40
	.byte W01
	.byte VOICE, 22
	.byte VOL, 25
	.byte PAN, c_v
	.byte PRIO, 120
	.byte TIE
	.byte Cn2, En7
	.byte W02
	.byte VOL, 27
	.byte W03
	.byte Fs0
	.byte W02
	.byte Gs0
	.byte W02
	.byte As0
	.byte W02
	.byte Cn1
	.byte W02
	.byte Ds1
	.byte W03
	.byte Fs1
	.byte W02
	.byte Gs1
	.byte W02
	.byte An1
	.byte W03
	.byte Cs2
	.byte W02
	.byte Ds2
	.byte W03
	.byte Fs2
	.byte W02
	.byte Gs2
	.byte W02
	.byte As2
	.byte W02
	.byte Cs3
	.byte W02
	.byte Dn3
	.byte W02
	.byte En3
	.byte W02
	.byte Gn3
	.byte W02
	.byte An3
	.byte W02
	.byte Bn3
	.byte W02
	.byte Cs4
	.byte W48
	.byte W01
	.byte W12
	.byte Cs4
	.byte W01
	.byte Cs4
	.byte W01
	.byte Bn3
	.byte W01
	.byte An3
	.byte W01
	.byte Gn3
	.byte W01
	.byte Fn3
	.byte W01
	.byte Ds3
	.byte W01
	.byte Cs3
	.byte W01
	.byte Bn2
	.byte W01
	.byte An2
	.byte W01
	.byte Gs2
	.byte W01
	.byte Fs2
	.byte W01
	.byte En2
	.byte W01
	.byte Dn2
	.byte W01
	.byte Cn2
	.byte W01
	.byte As1
	.byte W01
	.byte Gs1
	.byte W01
	.byte Fs1
	.byte W01
	.byte En1
	.byte W01
	.byte Ds1
	.byte W01
	.byte Cs1
	.byte W01
	.byte Bn0
	.byte W01
	.byte An0
	.byte W01
	.byte Gn0
	.byte W01
	.byte Fn0
	.byte W01
	.byte Ds0
	.byte W01
	.byte Cs0
	.byte W01
	.byte BnM1
	.byte W01
	.byte AsM1
	.byte W01
	.byte GsM1
	.byte W01
	.byte FsM1
	.byte W01
	.byte EnM1
	.byte W01
	.byte DnM1
	.byte W01
	.byte CnM1
	.byte W01
	.byte AsM2
	.byte W01
	.byte GsM2
	.byte W01
	.byte FsM2
	.byte W01
	.byte EOT
	.byte W12
	.byte 0xB6

track_66_1:
	.byte KEYSH, 0
	.byte W01
	.byte VOICE, 22
	.byte PAN, c_v
	.byte PRIO, 30
	.byte W12
	.byte VOL, 28
	.byte TIE
	.byte Cs2, Cn8
	.byte W02
	.byte VOL, 32
	.byte W02
	.byte Bn0
	.byte W02
	.byte Dn1
	.byte W02
	.byte Fn1
	.byte W02
	.byte Gs1
	.byte W02
	.byte Bn1
	.byte W02
	.byte Dn2
	.byte W02
	.byte Fn2
	.byte W02
	.byte Gs2
	.byte W02
	.byte Bn2
	.byte W02
	.byte Dn3
	.byte W02
	.byte Fs3
	.byte W03
	.byte An3
	.byte W20
	.byte As3
	.byte W03
	.byte Gs3
	.byte W02
	.byte Fs3
	.byte W02
	.byte En3
	.byte W02
	.byte Dn3
	.byte W02
	.byte Cn3
	.byte W02
	.byte As2
	.byte W02
	.byte Gs2
	.byte W03
	.byte Fs2
	.byte W02
	.byte En2
	.byte W02
	.byte Dn2
	.byte W02
	.byte Cn2
	.byte W02
	.byte As1
	.byte W02
	.byte Gs1
	.byte W02
	.byte Fs1
	.byte W02
	.byte En1
	.byte W03
	.byte Dn1
	.byte W01
	.byte W01
	.byte Cn1
	.byte W02
	.byte As0
	.byte W02
	.byte Gs0
	.byte W02
	.byte Fs0
	.byte W03
	.byte Ds0
	.byte W03
	.byte Cs0
	.byte W03
	.byte AsM1
	.byte W03
	.byte GnM1
	.byte W02
	.byte FnM1
	.byte W03
	.byte DsM1
	.byte W02
	.byte CsM1
	.byte W02
	.byte BnM2
	.byte W03
	.byte GsM2
	.byte W03
	.byte FnM2
	.byte W15
	.byte EOT
	.byte W12
	.byte 0xB6

track_66_2:
	.byte KEYSH, 0
	.byte W01
	.byte VOICE, 30
	.byte PAN, c_v
	.byte PRIO, 30
	.byte W54
	.byte VOL, 30
	.byte N72
	.byte Gn5, Gs1
	.byte W02
	.byte VOL, 30
	.byte W01
	.byte Gs0
	.byte W01
	.byte Gs0
	.byte W01
	.byte As0
	.byte W01
	.byte As0
	.byte W01
	.byte Bn0
	.byte W01
	.byte Cn1
	.byte W01
	.byte Cs1
	.byte W01
	.byte Dn1
	.byte W01
	.byte Ds1
	.byte W01
	.byte Ds1
	.byte W01
	.byte En1
	.byte W01
	.byte Fn1
	.byte W01
	.byte Fs1
	.byte W01
	.byte Gn1
	.byte W01
	.byte Gs1
	.byte W01
	.byte An1
	.byte W01
	.byte An1
	.byte W01
	.byte Bn1
	.byte W01
	.byte Bn1
	.byte W01
	.byte Cn2
	.byte W01
	.byte Cs2
	.byte W01
	.byte Dn2
	.byte W01
	.byte Ds2
	.byte W01
	.byte En2
	.byte W01
	.byte En2
	.byte W01
	.byte Fs2
	.byte W01
	.byte Fs2
	.byte W01
	.byte Gs2
	.byte W01
	.byte Gs2
	.byte W01
	.byte An2
	.byte W01
	.byte As2
	.byte W01
	.byte Bn2
	.byte W01
	.byte Cn3
	.byte W01
	.byte Cs3
	.byte W01
	.byte Cs3
	.byte W01
	.byte Dn3
	.byte W03
	.byte W60
	.byte W01
	.byte 0xB6

track_66_3:
	.byte KEYSH, 0
	.byte W01
	.byte VOICE, 30
	.byte VOL, 62
	.byte PAN, c_v
	.byte PRIO, 118
	.byte W44
	.byte N80
	.byte Cs5, Gs2, DnM2
	.byte W48
	.byte W03
	.byte W60
	.byte W01
	.byte 0xB6

track_66_4:
	.byte KEYSH, 0
	.byte W01
	.byte VOICE, 30
	.byte VOL, 62
	.byte PAN, c_v
	.byte PRIO, 119
	.byte W36
	.byte N90
	.byte An4, Gs2
	.byte W24
	.byte W01
	.byte VOL, 61
	.byte W03
	.byte As2
	.byte W03
	.byte Gs2
	.byte W03
	.byte Fs2
	.byte W04
	.byte Ds2
	.byte W03
	.byte Cs2
	.byte W04
	.byte As1
	.byte W03
	.byte Gs1
	.byte W04
	.byte Fn1
	.byte W03
	.byte Ds1
	.byte W04
	.byte Cn1
	.byte W03
	.byte As0
	.byte W02
	.byte Gs0
	.byte W04
	.byte Fs0
	.byte W03
	.byte Ds0
	.byte W04
	.byte Cs0
	.byte W03
	.byte AsM1
	.byte W04
	.byte GsM1
	.byte W03
	.byte FnM1
	.byte W03
	.byte DsM1
	.byte W32
	.byte 0xB6

track_66_5:
	.byte KEYSH, 0
	.byte W01
	.byte VOICE, 32
	.byte VOL, 25
	.byte PAN, c_v
	.byte PRIO, 28
	.byte BEND, c_v+15
	.byte W36
	.byte N08
	.byte As5, En1
	.byte W08
	.byte N10
	.byte Dn6
	.byte W10
	.byte BEND, c_v+23
	.byte N06
	.byte Gs6
	.byte W40
	.byte W01
	.byte W60
	.byte W01
	.byte 0xB6

.align 2

track_66:
	.byte 6
	.byte 0
	.byte 130
	.byte 0
	.word voice_group22
	.word track_66_0
	.word track_66_1
	.word track_66_2
	.word track_66_3
	.word track_66_4
	.word track_66_5

.align 2
