.include "audio/m_play_def.s"

.align 2

.section .rodata
.global track_76

track_76_0:
	.byte KEYSH, 0
track_76_lbl_2286ce:
	.byte TEMPO, 127
	.byte VOICE, 14
	.byte BENDR, 1
	.byte PAN, c_v
	.byte PRIO, 120
	.byte VOL, 70
	.byte N12
	.byte Cn3, Gn8
	.byte W36
	.byte N12
	.byte W36
	.byte Cs3
	.byte W24
	.byte As2
	.byte W24
track_76_lbl_2286e4:
	.byte N12
	.byte Cn3, Gn8
	.byte W36
	.byte N12
	.byte W36
	.byte Cs3
	.byte W24
	.byte As2
	.byte W24
	.byte PEND
	.byte PATT
		.word track_76_lbl_2286e4
	.byte PATT
		.word track_76_lbl_2286e4
	.byte VOICE, 17
	.byte VOL, 59
	.byte N06
	.byte Fs3, Gs7
	.byte W12
	.byte Cn3
	.byte W12
	.byte Ds3
	.byte W12
	.byte N60
	.byte Gn2
	.byte W60
track_76_lbl_228708:
	.byte N06
	.byte Gs2, Gs7
	.byte W12
	.byte As2
	.byte W12
	.byte Cn3
	.byte W12
	.byte N60
	.byte Gn3
	.byte W60
	.byte PEND
track_76_lbl_228714:
	.byte N06
	.byte Fs3, Gs7
	.byte W12
	.byte Dn3
	.byte W12
	.byte N72
	.byte An3
	.byte W72
	.byte PEND
track_76_lbl_22871e:
	.byte N36
	.byte As3, En8
	.byte W36
	.byte N30
	.byte Bn3
	.byte W36
	.byte PEND
	.byte VOICE, 14
	.byte VOL, 70
	.byte N12
	.byte Ds3, Gn8
	.byte W36
	.byte N12
	.byte W36
	.byte En3
	.byte W24
	.byte Cs3
	.byte W24
	.byte Ds3
	.byte W36
	.byte N12
	.byte W36
	.byte En3
	.byte W24
	.byte Cs3
	.byte W24
track_76_lbl_22873c:
	.byte N12
	.byte Ds3, En6
	.byte W36
	.byte N12
	.byte W36
	.byte En3
	.byte W24
	.byte Cs3
	.byte W24
	.byte PEND
track_76_lbl_228747:
	.byte N12
	.byte Ds3, Cn8
	.byte W36
	.byte N12
	.byte W36
	.byte En3
	.byte W24
	.byte Cs3
	.byte W24
	.byte PEND
track_76_lbl_228752:
	.byte N12
	.byte Cn3, En7
	.byte W36
	.byte N12
	.byte W36
	.byte Cs3
	.byte W24
	.byte As2
	.byte W24
	.byte PEND
track_76_lbl_22875d:
	.byte N12
	.byte Cn3, En6
	.byte W36
	.byte N12
	.byte W36
	.byte Cs3
	.byte W24
	.byte As2
	.byte W24
	.byte PEND
	.byte PATT
		.word track_76_lbl_2286e4
	.byte PATT
		.word track_76_lbl_2286e4
	.byte VOICE, 17
	.byte N06
	.byte Fs3, Gs7
	.byte W12
	.byte Cn3
	.byte W12
	.byte Ds3
	.byte W12
	.byte N60
	.byte Gn2
	.byte W60
	.byte PATT
		.word track_76_lbl_228708
	.byte PATT
		.word track_76_lbl_228714
	.byte PATT
		.word track_76_lbl_22871e
	.byte VOICE, 14
	.byte N12
	.byte Ds3, Gn8
	.byte W36
	.byte N12
	.byte W36
	.byte En3
	.byte W24
	.byte Cs3
	.byte W24
	.byte Ds3, En7
	.byte W36
	.byte N12
	.byte W36
	.byte En3
	.byte W24
	.byte Cs3
	.byte W24
	.byte PATT
		.word track_76_lbl_22873c
	.byte PATT
		.word track_76_lbl_228747
	.byte PATT
		.word track_76_lbl_228752
	.byte PATT
		.word track_76_lbl_22875d
	.byte N12
	.byte Cn3, Gs5
	.byte W36
	.byte N12
	.byte W36
	.byte Cs3
	.byte W24
	.byte As2
	.byte W24
	.byte Cn3, Cn8
	.byte W36
	.byte N12
	.byte W36
	.byte Cs3, Gn8
	.byte W24
	.byte As2
	.byte W24
	.byte VOICE, 25
	.byte VOL, 67
	.byte N48
	.byte As2, Cn3
	.byte W48
	.byte N08
	.byte An2
	.byte W08
	.byte As2
	.byte W08
	.byte An2
	.byte W08
track_76_lbl_2287da:
	.byte N48
	.byte Fs2, Cn3
	.byte W48
	.byte N24
	.byte An2
	.byte W24
	.byte PEND
	.byte N48
	.byte As2
	.byte W48
	.byte N08
	.byte An2
	.byte W08
	.byte As2
	.byte W08
	.byte An2
	.byte W08
	.byte PATT
		.word track_76_lbl_2287da
	.byte N48
	.byte Cs3, Gs4
	.byte W48
	.byte N08
	.byte Cn3
	.byte W08
	.byte Cs3
	.byte W08
	.byte Cn3
	.byte W08
	.byte N48
	.byte An2
	.byte W48
	.byte N24
	.byte Cn3
	.byte W24
	.byte N48
	.byte Ds3, Gs5
	.byte W48
	.byte N08
	.byte Dn3
	.byte W08
	.byte Ds3
	.byte W08
	.byte Dn3
	.byte W08
	.byte N48
	.byte Fs3, Cn7
	.byte W48
	.byte N08
	.byte Fn3
	.byte W08
	.byte Fs3
	.byte W08
	.byte Fn3
	.byte W08
	.byte N12
	.byte Ds3
	.byte W12
	.byte Dn3
	.byte W12
	.byte Fs3
	.byte W12
	.byte Fn3, Cn8
	.byte W12
	.byte Ds3
	.byte W12
	.byte Dn3, Gn8
	.byte W12
	.byte Fs3
	.byte W12
	.byte N06
	.byte Fn3
	.byte W06
	.byte GOTO
		.word track_76_lbl_2286ce

	.byte FINE

track_76_1:
	.byte KEYSH, 0
track_76_lbl_228834:
	.byte VOICE, 13
	.byte PAN, c_v+22
	.byte PRIO, 119
	.byte VOL, 56
	.byte N12
	.byte As2, En7
	.byte W36
	.byte N12
	.byte W36
	.byte Bn2
	.byte W24
	.byte Gs2
	.byte W24
track_76_lbl_228846:
	.byte N12
	.byte As2, En7
	.byte W36
	.byte N12
	.byte W36
	.byte Bn2
	.byte W24
	.byte Gs2
	.byte W24
	.byte PEND
	.byte PATT
		.word track_76_lbl_228846
	.byte PATT
		.word track_76_lbl_228846
track_76_lbl_22885b:
	.byte VOICE, 14
	.byte VOL, 55
	.byte N96
	.byte Fs2, En7
	.byte W96
	.byte PEND
	.byte Gn2
	.byte W96
track_76_lbl_228866:
	.byte N24
	.byte Gs2, En7
	.byte W24
	.byte N72
	.byte An2
	.byte W72
	.byte PEND
track_76_lbl_22886e:
	.byte PAN, c_v+36
	.byte N36
	.byte As2, Gn8
	.byte W36
	.byte N30
	.byte Bn2
	.byte W36
	.byte PEND
	.byte VOICE, 13
	.byte PAN, c_v+20
	.byte VOL, 56
	.byte N12
	.byte Cs3, En7
	.byte W36
	.byte N12
	.byte W36
	.byte Dn3
	.byte W24
	.byte Bn2
	.byte W24
	.byte Cs3
	.byte W36
	.byte N12
	.byte W36
	.byte Dn3
	.byte W24
	.byte Bn2
	.byte W24
track_76_lbl_228890:
	.byte VOICE, 14
	.byte VOL, 25
	.byte TIE
	.byte Ds4, En6
	.byte W12
	.byte VOL, 28
	.byte W14
	.byte Gn0
	.byte W07
	.byte Gs0
	.byte W14
	.byte Bn0
	.byte W14
	.byte Dn1
	.byte W14
	.byte Fn1
	.byte W14
	.byte Gn1
	.byte W14
	.byte As1
	.byte W14
	.byte Cs2
	.byte W03
	.byte PEND
	.byte EOT
track_76_lbl_2288ad:
	.byte TIE
	.byte Ds4, En6
	.byte W11
	.byte VOL, 52
	.byte W14
	.byte Gn2
	.byte W14
	.byte As2
	.byte W14
	.byte Cn3
	.byte W14
	.byte Ds3
	.byte W18
	.byte Gn3
	.byte W10
	.byte Gn3
	.byte W14
	.byte Gn3
	.byte W11
	.byte PEND
	.byte EOT
	.byte N12
	.byte Dn4, Cn6
	.byte W72
	.byte VOICE, 13
	.byte VOL, 26
	.byte N12
	.byte Bn2, En6
	.byte W24
	.byte Gs2
	.byte W24
track_76_lbl_2288d2:
	.byte N12
	.byte As2, En7
	.byte W36
	.byte As2, En6
	.byte W36
	.byte Bn2
	.byte W24
	.byte Gs2
	.byte W24
	.byte PEND
	.byte As2
	.byte W36
	.byte N12
	.byte W36
	.byte Bn2
	.byte W24
	.byte Gs2
	.byte W24
	.byte As2, Gn8
	.byte W36
	.byte N12
	.byte W36
	.byte Bn2
	.byte W24
	.byte Gs2
	.byte W24
	.byte PATT
		.word track_76_lbl_22885b
	.byte N96
	.byte Gn2, En7
	.byte W96
	.byte PATT
		.word track_76_lbl_228866
	.byte PATT
		.word track_76_lbl_22886e
	.byte VOICE, 13
	.byte PAN, c_v+20
	.byte VOL, 26
	.byte N12
	.byte Cs3, En7
	.byte W36
	.byte N12
	.byte W36
	.byte Dn3
	.byte W24
	.byte Bn2
	.byte W24
	.byte Cs3, Gs5
	.byte W36
	.byte N12
	.byte W36
	.byte Dn3
	.byte W24
	.byte Bn2
	.byte W24
	.byte PATT
		.word track_76_lbl_228890
	.byte EOT, Ds4
	.byte PATT
		.word track_76_lbl_2288ad
	.byte EOT, Ds4
	.byte N12
	.byte Dn4, En5
	.byte W72
	.byte VOICE, 13
	.byte VOL, 26
	.byte N12
	.byte Bn2, Gs5
	.byte W24
	.byte Gs2
	.byte W24
	.byte PATT
		.word track_76_lbl_2288d2
	.byte N12
	.byte As2, Gs5
	.byte W36
	.byte N12
	.byte W36
	.byte Bn2
	.byte W24
	.byte Gs2
	.byte W24
	.byte As2, Gs7
	.byte W36
	.byte N12
	.byte W36
	.byte Bn2
	.byte W24
	.byte Gs2
	.byte W24
	.byte VOICE, 14
	.byte VOL, 55
	.byte N72
	.byte Cn3, En1
	.byte W72
	.byte Ds3, Gs0
	.byte W72
	.byte Fs3, Cn0
	.byte W72
	.byte An3
	.byte W72
	.byte Ds3
	.byte W72
	.byte Fs3
	.byte W72
	.byte An3, Cn1
	.byte W72
	.byte Cn4, Gs1
	.byte W72
	.byte N36
	.byte Ds4, Gs7
	.byte W36
	.byte N28
	.byte Fs4
	.byte W28
	.byte N24
	.byte An4, Gs7, DnM2
	.byte W08
	.byte W18
	.byte GOTO
		.word track_76_lbl_228834

	.byte FINE

track_76_2:
	.byte KEYSH, 0
track_76_lbl_22897e:
	.byte VOICE, 23
	.byte VOL, 70
	.byte PAN, c_v-24
	.byte PRIO, 118
	.byte N72
	.byte Cn2, Gs7
	.byte W72
	.byte N24
	.byte Cs2
	.byte W24
	.byte As1
	.byte W24
track_76_lbl_22898f:
	.byte N72
	.byte Cn2, Gs7
	.byte W72
	.byte N24
	.byte Cs2
	.byte W24
	.byte As1
	.byte W24
	.byte PEND
	.byte PATT
		.word track_76_lbl_22898f
	.byte PATT
		.word track_76_lbl_22898f
	.byte N96
	.byte Gn1, Gs7
	.byte W96
	.byte Gs1
	.byte W96
	.byte An1, En8
	.byte W96
track_76_lbl_2289ac:
	.byte N36
	.byte As1, Gn8
	.byte W36
	.byte Bn1
	.byte W36
	.byte PEND
track_76_lbl_2289b3:
	.byte N72
	.byte Ds2, Gs7
	.byte W72
	.byte N24
	.byte En2
	.byte W24
	.byte Cs2
	.byte W24
	.byte PEND
	.byte PATT
		.word track_76_lbl_2289b3
	.byte PATT
		.word track_76_lbl_2289b3
	.byte PATT
		.word track_76_lbl_2289b3
	.byte PATT
		.word track_76_lbl_22898f
	.byte PATT
		.word track_76_lbl_22898f
	.byte PATT
		.word track_76_lbl_22898f
	.byte PATT
		.word track_76_lbl_22898f
	.byte N96
	.byte Gn1, Gs7
	.byte W96
	.byte Gs1
	.byte W96
	.byte An1, En8
	.byte W96
	.byte PATT
		.word track_76_lbl_2289ac
	.byte PATT
		.word track_76_lbl_2289b3
	.byte PATT
		.word track_76_lbl_2289b3
	.byte PATT
		.word track_76_lbl_2289b3
	.byte PATT
		.word track_76_lbl_2289b3
	.byte PATT
		.word track_76_lbl_22898f
	.byte PATT
		.word track_76_lbl_22898f
	.byte PATT
		.word track_76_lbl_22898f
	.byte PATT
		.word track_76_lbl_22898f
	.byte VOICE, 23
	.byte VOL, 55
	.byte N72
	.byte Ds2, En3
	.byte W72
	.byte Cn2
	.byte W72
	.byte Ds2
	.byte W72
	.byte Fs2
	.byte W72
	.byte An2, En4
	.byte W72
	.byte Fs2
	.byte W72
	.byte An2, Cn5
	.byte W72
	.byte Cn3, En6
	.byte W72
	.byte N36
	.byte Ds2, Gn8
	.byte W36
	.byte N28
	.byte Fs2
	.byte W28
	.byte N24
	.byte An2, Gn8, DnM2
	.byte W08
	.byte W18
	.byte GOTO
		.word track_76_lbl_22897e

	.byte FINE

track_76_3:
	.byte KEYSH, 0
track_76_lbl_228a44:
	.byte PAN, c_v+20
	.byte PRIO, 30
	.byte W96
	.byte W24
	.byte W96
	.byte W24
	.byte W96
	.byte W24
	.byte W96
	.byte W24
	.byte VOICE, 44
	.byte VOL, 26
	.byte N96
	.byte Cn4, En7
	.byte W96
	.byte Cs4
	.byte W96
track_76_lbl_228a5a:
	.byte N24
	.byte Dn4, En7
	.byte W24
	.byte N72
	.byte Ds4
	.byte W72
	.byte PEND
track_76_lbl_228a62:
	.byte PAN, c_v-38
	.byte N36
	.byte En4, Gn8
	.byte W36
	.byte N30
	.byte Fn4
	.byte W36
	.byte PEND
	.byte N18
	.byte Ds1
	.byte W96
	.byte W24
	.byte W96
	.byte W24
	.byte VOICE, 14
	.byte PAN, c_v-38
	.byte VOL, 35
	.byte TIE
	.byte Cs4, En6
	.byte W11
	.byte VOL, 26
	.byte W14
	.byte Fn0
	.byte W14
	.byte Gs0
	.byte W13
	.byte Bn0
	.byte W14
	.byte Dn1
	.byte W14
	.byte Fn1
	.byte W13
	.byte Gn1
	.byte W14
	.byte As1
	.byte W13
	.byte EOT
track_76_lbl_228a8e:
	.byte TIE
	.byte Cs4, En6
	.byte W01
	.byte VOL, 49
	.byte W13
	.byte En2
	.byte W14
	.byte Gn2
	.byte W13
	.byte As2
	.byte W14
	.byte Cn3
	.byte W14
	.byte Ds3
	.byte W13
	.byte Fs3
	.byte W14
	.byte Gn3
	.byte W14
	.byte Gn3
	.byte W10
	.byte PEND
	.byte EOT
	.byte N12
	.byte Cn4, Gs6
	.byte W96
	.byte W24
	.byte W96
	.byte W24
	.byte W96
	.byte W24
	.byte W96
	.byte W24
	.byte VOICE, 44
	.byte PAN, c_v+20
	.byte VOL, 26
	.byte N96
	.byte Cn4, En7
	.byte W96
	.byte Cs4
	.byte W96
	.byte PATT
		.word track_76_lbl_228a5a
	.byte PATT
		.word track_76_lbl_228a62
	.byte N18
	.byte Ds1, Gn8
	.byte W96
	.byte W24
	.byte W96
	.byte W24
	.byte VOICE, 14
	.byte VOL, 35
	.byte TIE
	.byte Cs4, En6
	.byte W11
	.byte VOL, 26
	.byte W14
	.byte Fn0
	.byte W14
	.byte Gs0
	.byte W13
	.byte Bn0
	.byte W14
	.byte Dn1
	.byte W14
	.byte Fn1
	.byte W13
	.byte Gn1
	.byte W14
	.byte As1
	.byte W13
	.byte EOT
	.byte PATT
		.word track_76_lbl_228a8e
	.byte EOT, Cs4
	.byte N12
	.byte Cn4, Gs6
	.byte W96
	.byte W24
	.byte W96
	.byte W24
	.byte W96
	.byte W24
	.byte W96
	.byte W24
	.byte VOICE, 44
	.byte VOL, 41
	.byte N72
	.byte Cn4, En4
	.byte W72
	.byte N72
	.byte W72
	.byte N72
	.byte W72
	.byte N72
	.byte W72
	.byte Fs4
	.byte W72
	.byte Ds4
	.byte W72
	.byte Fs4
	.byte W72
	.byte An4, Cn5
	.byte W72
	.byte VOICE, 14
	.byte VOL, 55
	.byte N36
	.byte An3, Gs6
	.byte W36
	.byte N28
	.byte Cn4
	.byte W28
	.byte N24
	.byte Ds4, Gs7, DnM2
	.byte W08
	.byte W18
	.byte GOTO
		.word track_76_lbl_228a44

	.byte FINE

track_76_4:
	.byte KEYSH, 0
track_76_lbl_228b2b:
	.byte VOICE, 44
	.byte PAN, c_v+10
	.byte PRIO, 30
	.byte VOL, 59
	.byte N12
	.byte Cn4, Gn8
	.byte W36
	.byte N12
	.byte W36
	.byte Cs4
	.byte W24
	.byte As3
	.byte W24
track_76_lbl_228b3d:
	.byte N12
	.byte Cn4, Gn8
	.byte W36
	.byte N12
	.byte W36
	.byte Cs4
	.byte W24
	.byte As3
	.byte W24
	.byte PEND
	.byte PATT
		.word track_76_lbl_228b3d
	.byte PATT
		.word track_76_lbl_228b3d
	.byte W96
	.byte W96
	.byte W96
	.byte W72
track_76_lbl_228b56:
	.byte W36
	.byte N12
	.byte Ds4, Gn8
	.byte W36
	.byte En4
	.byte W24
	.byte Cs4
	.byte W24
	.byte PEND
	.byte Ds4
	.byte W36
	.byte N12
	.byte W36
	.byte En4
	.byte W24
	.byte Cs4
	.byte W24
	.byte W96
	.byte W24
	.byte W96
	.byte W24
track_76_lbl_228b6c:
	.byte W36
	.byte N12
	.byte Cn4, Gn8
	.byte W36
	.byte Cs4
	.byte W24
	.byte As3
	.byte W24
	.byte PEND
track_76_lbl_228b76:
	.byte N12
	.byte Cn4, Gs7
	.byte W36
	.byte N12
	.byte W36
	.byte Cs4
	.byte W24
	.byte As3
	.byte W24
	.byte PEND
	.byte PATT
		.word track_76_lbl_228b76
	.byte PATT
		.word track_76_lbl_228b3d
	.byte W96
	.byte W96
	.byte W96
	.byte W72
	.byte PATT
		.word track_76_lbl_228b56
	.byte N12
	.byte Ds4, Gs7
	.byte W36
	.byte N12
	.byte W36
	.byte En4
	.byte W24
	.byte Cs4
	.byte W24
	.byte W96
	.byte W24
	.byte W96
	.byte W24
	.byte PATT
		.word track_76_lbl_228b6c
	.byte PATT
		.word track_76_lbl_228b76
	.byte N12
	.byte Cn4, Cn7
	.byte W36
	.byte N12
	.byte W36
	.byte Cs4
	.byte W24
	.byte As3
	.byte W24
	.byte Cn4
	.byte W36
	.byte N12
	.byte W36
	.byte Cs4, Gn8
	.byte W24
	.byte As3
	.byte W24
	.byte W72
	.byte W72
	.byte W72
	.byte W72
	.byte W72
	.byte W72
	.byte W72
	.byte W72
	.byte W72
	.byte W18
	.byte GOTO
		.word track_76_lbl_228b2b

	.byte FINE

track_76_5:
	.byte KEYSH, 0
track_76_lbl_228bd1:
	.byte VOICE, 23
	.byte VOL, 59
	.byte PAN, c_v-16
	.byte PRIO, 29
	.byte W96
	.byte W24
	.byte W96
	.byte W24
	.byte W96
	.byte W24
	.byte W96
	.byte W24
track_76_lbl_228be1:
	.byte VOICE, 19
	.byte VOL, 34
	.byte N96
	.byte Fs2, Cn3
	.byte W96
	.byte PEND
	.byte Gn2
	.byte W96
track_76_lbl_228bec:
	.byte N24
	.byte Gs2, Gs4
	.byte W24
	.byte N72
	.byte An2
	.byte W72
	.byte PEND
	.byte N36
	.byte As2, En7
	.byte W36
	.byte N30
	.byte Bn2
	.byte W36
track_76_lbl_228bfb:
	.byte VOICE, 23
	.byte VOL, 55
	.byte N72
	.byte As2, Cn5
	.byte W72
	.byte N24
	.byte Bn2
	.byte W24
	.byte Gs2
	.byte W24
	.byte PEND
	.byte N72
	.byte As2
	.byte W72
	.byte N24
	.byte Bn2
	.byte W24
	.byte Gs2
	.byte W24
track_76_lbl_228c11:
	.byte N72
	.byte As2, En3
	.byte W72
	.byte N24
	.byte Bn2
	.byte W24
	.byte Gs2
	.byte W24
	.byte PEND
	.byte PATT
		.word track_76_lbl_228c11
	.byte W96
	.byte W24
	.byte W96
	.byte W24
	.byte W96
	.byte W24
	.byte W96
	.byte W24
	.byte PATT
		.word track_76_lbl_228be1
	.byte N96
	.byte Gn2, Cn3
	.byte W96
	.byte PATT
		.word track_76_lbl_228bec
	.byte N36
	.byte As2, Cn7
	.byte W36
	.byte N30
	.byte Bn2
	.byte W36
	.byte PATT
		.word track_76_lbl_228bfb
	.byte N72
	.byte As2, En4
	.byte W72
	.byte N24
	.byte Bn2
	.byte W24
	.byte Gs2
	.byte W24
	.byte PATT
		.word track_76_lbl_228c11
	.byte PATT
		.word track_76_lbl_228c11
	.byte W96
	.byte W24
	.byte W96
	.byte W24
	.byte W96
	.byte W24
	.byte W96
	.byte W24
	.byte W72
	.byte W72
	.byte W72
	.byte W72
	.byte VOICE, 19
	.byte VOL, 12
	.byte TIE
	.byte An2, Cn3
	.byte W72
	.byte W72
	.byte EOT
	.byte TIE
	.byte Cn3
	.byte W72
	.byte W72
	.byte EOT
	.byte VOICE, 44
	.byte VOL, 48
	.byte N36
	.byte An3, Gs4
	.byte W36
	.byte N28
	.byte Cn4
	.byte W28
	.byte VOICE, 19
	.byte N24
	.byte Ds3, Gn8, DnM2
	.byte W08
	.byte W18
	.byte GOTO
		.word track_76_lbl_228bd1

	.byte FINE

track_76_6:
	.byte KEYSH, 0
track_76_lbl_228c8b:
	.byte VOICE, 21
	.byte VOL, 59
	.byte PAN, c_v-10
	.byte PRIO, 29
	.byte W12
	.byte N06
	.byte Cn2, En6
	.byte W12
	.byte Cn3
	.byte W24
	.byte Cn2
	.byte W12
	.byte Cn3
	.byte W24
	.byte Cs3
	.byte W24
	.byte As2
	.byte W12
track_76_lbl_228ca2:
	.byte W12
	.byte N06
	.byte Cn2, En6
	.byte W12
	.byte Cn3
	.byte W24
	.byte Cn2
	.byte W12
	.byte Cn3
	.byte W12
	.byte Cs2
	.byte W12
	.byte Cs3
	.byte W12
	.byte As1
	.byte W12
	.byte As2
	.byte W12
	.byte PEND
	.byte PATT
		.word track_76_lbl_228ca2
	.byte PATT
		.word track_76_lbl_228ca2
	.byte W96
	.byte W96
	.byte W96
	.byte W72
	.byte W96
	.byte W24
	.byte W96
	.byte W24
	.byte W96
	.byte W24
	.byte W96
	.byte W24
	.byte PATT
		.word track_76_lbl_228ca2
	.byte PATT
		.word track_76_lbl_228ca2
	.byte PATT
		.word track_76_lbl_228ca2
	.byte PATT
		.word track_76_lbl_228ca2
	.byte W96
	.byte W96
	.byte W96
	.byte W72
	.byte W96
	.byte W24
	.byte W96
	.byte W24
	.byte W96
	.byte W24
	.byte W96
	.byte W24
	.byte W12
	.byte N06
	.byte Cn2, Gs4
	.byte W12
	.byte Cn3
	.byte W24
	.byte Cn2
	.byte W12
	.byte Cn3
	.byte W12
	.byte Cs2, Cn4
	.byte W12
	.byte Cs3
	.byte W12
	.byte As1
	.byte W12
	.byte As2
	.byte W12
	.byte W12
	.byte Cn2, En1
	.byte W12
	.byte Cn3, Gs0
	.byte W24
	.byte Cn2, En1
	.byte W12
	.byte Cn3, Gs0
	.byte W12
	.byte Cs2, En1
	.byte W12
	.byte Cs3, Gs0
	.byte W12
	.byte As1, En1
	.byte W12
	.byte As2, Gs0
	.byte W12
	.byte W12
	.byte Cn2, En1
	.byte W12
	.byte Cn3
	.byte W24
	.byte Cn2
	.byte W12
	.byte Cn3
	.byte W12
	.byte Cs2
	.byte W12
	.byte Cs3
	.byte W12
	.byte As1
	.byte W12
	.byte As2
	.byte W12
	.byte W12
	.byte Cn2, Cn3
	.byte W12
	.byte Cn3
	.byte W24
	.byte Cn2
	.byte W12
	.byte Cn3, En3
	.byte W12
	.byte Cs2, Gs5
	.byte W12
	.byte Cs3
	.byte W12
	.byte As1, En6
	.byte W12
	.byte As2
	.byte W12
	.byte W72
	.byte W72
	.byte W72
	.byte W72
	.byte W72
	.byte W72
	.byte W72
	.byte W72
	.byte W72
	.byte W18
	.byte GOTO
		.word track_76_lbl_228c8b

	.byte FINE

track_76_7:
	.byte KEYSH, 0
track_76_lbl_228d52:
	.byte VOICE, 0
	.byte PAN, c_v
	.byte PRIO, 28
	.byte VOL, 71
	.byte N72
	.byte Cs2, Cn8
	.byte W72
	.byte VOL, 59
	.byte N04
	.byte Fs1, Cn1
	.byte W24
	.byte Fs1, En1
	.byte W24
	.byte W12
	.byte Fs1, Gs0
	.byte W12
	.byte N04
	.byte W12
	.byte N04
	.byte W12
	.byte N04
	.byte W12
	.byte N04
	.byte W24
	.byte N04
	.byte W24
	.byte N04
	.byte W12
	.byte W12
	.byte Fs1, En0
	.byte W12
	.byte N04
	.byte W12
	.byte N04
	.byte W12
	.byte N04
	.byte W36
	.byte N04
	.byte W12
	.byte N04
	.byte W24
track_76_lbl_228d85:
	.byte W12
	.byte N04
	.byte Fs1, Gs0
	.byte W12
	.byte N04
	.byte W12
	.byte Fs1, Gs1
	.byte W12
	.byte Fs1, En1
	.byte W12
	.byte Fs1, En2
	.byte W24
	.byte Fs1, Cn1
	.byte W24
	.byte Fs1, Gs2
	.byte W12
	.byte PEND
track_76_lbl_228d9c:
	.byte W12
	.byte N04
	.byte Fs1, GsM1
	.byte W12
	.byte N04
	.byte W12
	.byte Fs1, En0
	.byte W12
	.byte Fs1, Cn0
	.byte W12
	.byte Fs1, Gs0
	.byte W12
	.byte N48
	.byte Cs2, Cn1
	.byte W24
	.byte PEND
track_76_lbl_228db1:
	.byte W24
	.byte N04
	.byte Fs1, Gs0
	.byte W12
	.byte Fs1, Gs1
	.byte W12
	.byte Fs1, En1
	.byte W12
	.byte Fs1, Cn2
	.byte W12
	.byte N48
	.byte Cs2, En2
	.byte W24
	.byte PEND
track_76_lbl_228dc4:
	.byte W24
	.byte N12
	.byte Cs2, Gs5
	.byte W24
	.byte N04
	.byte Fs1, Gs0
	.byte W12
	.byte Fs1, Cn2
	.byte W24
	.byte Fs1, Gs0
	.byte W12
	.byte PEND
track_76_lbl_228dd4:
	.byte N18
	.byte Cs2, Cn8
	.byte W36
	.byte N18
	.byte W36
	.byte PEND
track_76_lbl_228ddb:
	.byte VOL, 55
	.byte N48
	.byte Cs2, En7
	.byte W24
	.byte W01
	.byte VOL, 53
	.byte W02
	.byte Ds2
	.byte W02
	.byte Cn2
	.byte W02
	.byte An1
	.byte W01
	.byte Gn1
	.byte W02
	.byte En1
	.byte W02
	.byte Cs1
	.byte W02
	.byte As0
	.byte W02
	.byte Gn0
	.byte W02
	.byte Fn0
	.byte W01
	.byte Ds0
	.byte W05
	.byte Gn2
	.byte N04
	.byte Fs1, Gs0
	.byte W12
	.byte Fs1, Cn1
	.byte W12
	.byte Fs1, Gs0
	.byte W24
	.byte Fs1, Cn1
	.byte W24
	.byte PEND
track_76_lbl_228e08:
	.byte W12
	.byte N04
	.byte Fs1, GsM1
	.byte W12
	.byte N04
	.byte W12
	.byte N04
	.byte W12
	.byte N04
	.byte W12
	.byte N04
	.byte W24
	.byte N04
	.byte W24
	.byte N04
	.byte W12
	.byte PEND
track_76_lbl_228e1a:
	.byte W12
	.byte N04
	.byte Fs1, GsM1
	.byte W12
	.byte N04
	.byte W12
	.byte Fs1, Cn0
	.byte W12
	.byte Fs1, GsM1
	.byte W12
	.byte Fs1, En0
	.byte W24
	.byte Fs1, GsM1
	.byte W12
	.byte Fs1, En0
	.byte W24
	.byte PEND
track_76_lbl_228e31:
	.byte W12
	.byte N04
	.byte Fs1, Gs0
	.byte W12
	.byte N04
	.byte W12
	.byte Fs1, Gs1
	.byte W12
	.byte Fs1, En1
	.byte W12
	.byte Fs1, Cn2
	.byte W60
	.byte PEND
track_76_lbl_228e42:
	.byte VOL, 55
	.byte N72
	.byte Cs2, Gn8
	.byte W36
	.byte W01
	.byte VOL, 53
	.byte W02
	.byte Ds2
	.byte W03
	.byte Cn2
	.byte W03
	.byte As1
	.byte W03
	.byte Gn1
	.byte W03
	.byte En1
	.byte W03
	.byte Cs1
	.byte W03
	.byte As0
	.byte W03
	.byte Gs0
	.byte W03
	.byte Fn0
	.byte W03
	.byte Dn0
	.byte W06
	.byte Gn2
	.byte N04
	.byte Fs1, En1
	.byte W24
	.byte Fs1, Cn2
	.byte W24
	.byte PEND
	.byte PATT
		.word track_76_lbl_228e08
	.byte PATT
		.word track_76_lbl_228e1a
	.byte PATT
		.word track_76_lbl_228d85
	.byte PATT
		.word track_76_lbl_228d9c
	.byte PATT
		.word track_76_lbl_228db1
	.byte PATT
		.word track_76_lbl_228dc4
	.byte PATT
		.word track_76_lbl_228dd4
	.byte PATT
		.word track_76_lbl_228ddb
	.byte PATT
		.word track_76_lbl_228e08
	.byte PATT
		.word track_76_lbl_228e1a
	.byte PATT
		.word track_76_lbl_228e31
	.byte PATT
		.word track_76_lbl_228e42
	.byte PATT
		.word track_76_lbl_228e08
	.byte PATT
		.word track_76_lbl_228e1a
	.byte PATT
		.word track_76_lbl_228d85
	.byte VOICE, 0
	.byte VOL, 55
	.byte W72
	.byte W72
	.byte W72
	.byte W72
	.byte W72
	.byte W72
	.byte W12
	.byte N06
	.byte Fs1, Cn0
	.byte W24
	.byte Fs1, En0
	.byte W36
	.byte Fs1, En2
	.byte W24
	.byte Fs1, Gs2
	.byte W12
	.byte Fs1, Gs0
	.byte W24
	.byte Fs1, Cn0
	.byte W12
	.byte W12
	.byte Fs1, Gs0
	.byte W12
	.byte N06
	.byte W24
	.byte N06
	.byte W12
	.byte N30
	.byte Cs2, Gn8
	.byte W12
	.byte W18
	.byte GOTO
		.word track_76_lbl_228d52

	.byte FINE

track_76_8:
	.byte KEYSH, 0
track_76_lbl_228ee7:
	.byte VOICE, 22
	.byte VOL, 59
	.byte PAN, c_v
	.byte PRIO, 28
	.byte W96
	.byte W12
	.byte N06
	.byte Cn3, Cn4
	.byte W12
	.byte Dn2, Gs5
	.byte W96
	.byte Fn2, En4
	.byte W24
	.byte Dn2, Cn3
	.byte W60
	.byte Cn3, Cn2
	.byte W48
	.byte Fn2, Gs1
	.byte W12
track_76_lbl_228f04:
	.byte N06
	.byte Dn2, Cn3
	.byte W96
	.byte Dn2, Cn5
	.byte W24
	.byte PEND
	.byte Dn2, Cn4
	.byte W96
	.byte Dn2, Gs5
	.byte W96
	.byte Dn2, En7
	.byte W96
	.byte W72
track_76_lbl_228f16:
	.byte W96
	.byte W12
	.byte N06
	.byte Cn3, Cn3
	.byte W12
	.byte PEND
track_76_lbl_228f1d:
	.byte N06
	.byte Dn2, Cn3
	.byte W96
	.byte Fn2, Gs2
	.byte W24
	.byte PEND
track_76_lbl_228f25:
	.byte N06
	.byte Dn2, Cn4
	.byte W96
	.byte W12
	.byte Fn2, En3
	.byte W12
	.byte PEND
track_76_lbl_228f2e:
	.byte N06
	.byte Dn2, En7
	.byte W84
	.byte Fn2, Cn4
	.byte W12
	.byte Dn2, Cn5
	.byte W12
	.byte Cn3, Cn3
	.byte W12
	.byte PEND
	.byte W96
	.byte W12
	.byte N06
	.byte W12
	.byte Dn2
	.byte W96
	.byte Fn2, Gs2
	.byte W24
	.byte PATT
		.word track_76_lbl_228f25
	.byte PATT
		.word track_76_lbl_228f04
	.byte N06
	.byte Dn2, Cn4
	.byte W96
	.byte Dn2, Gs5
	.byte W96
	.byte Dn2, En7
	.byte W96
	.byte W72
	.byte W96
	.byte W12
	.byte Cn3, Cn3
	.byte W12
	.byte Dn2
	.byte W96
	.byte Fn2, Gs2
	.byte W24
	.byte PATT
		.word track_76_lbl_228f25
	.byte PATT
		.word track_76_lbl_228f2e
	.byte PATT
		.word track_76_lbl_228f16
	.byte PATT
		.word track_76_lbl_228f1d
	.byte PATT
		.word track_76_lbl_228f25
	.byte PATT
		.word track_76_lbl_228f04
	.byte W72
	.byte W36
	.byte VOICE, 22
	.byte VOL, 55
	.byte N06
	.byte Cn3, Cn1
	.byte W12
	.byte Dn2
	.byte W24
	.byte W72
	.byte Fn2, En1
	.byte W24
	.byte Dn2, En2
	.byte W48
	.byte W60
	.byte Fn2, Gs2
	.byte W12
	.byte Dn2, Cn4
	.byte W72
	.byte W24
	.byte Cn3, En1
	.byte W48
	.byte W48
	.byte Dn2, Gs5
	.byte W24
	.byte N06
	.byte W36
	.byte N06
	.byte W36
	.byte W18
	.byte GOTO
		.word track_76_lbl_228ee7

	.byte FINE

track_76_9:
	.byte KEYSH, 0
track_76_lbl_228fb1:
	.byte VOICE, 20
	.byte PAN, c_v+10
	.byte PRIO, 27
	.byte VOL, 59
	.byte W24
	.byte N06
	.byte Cn3, En7
	.byte W36
	.byte N06
	.byte W24
	.byte Cs3
	.byte W24
	.byte As2
	.byte W12
track_76_lbl_228fc4:
	.byte W24
	.byte N06
	.byte Cn3, En7
	.byte W36
	.byte N06
	.byte W24
	.byte Cs3
	.byte W24
	.byte As2
	.byte W12
	.byte PEND
	.byte PATT
		.word track_76_lbl_228fc4
	.byte PATT
		.word track_76_lbl_228fc4
	.byte W96
	.byte W96
	.byte W96
	.byte W72
track_76_lbl_228fde:
	.byte W24
	.byte N06
	.byte Ds3, En7
	.byte W36
	.byte N06
	.byte W24
	.byte En3
	.byte W24
	.byte Cs3
	.byte W12
	.byte PEND
	.byte PATT
		.word track_76_lbl_228fde
track_76_lbl_228fef:
	.byte VOICE, 44
	.byte VOL, 55
	.byte N12
	.byte Ds4, Gs7
	.byte W36
	.byte N12
	.byte W36
	.byte En4
	.byte W24
	.byte Cs4
	.byte W24
	.byte PEND
track_76_lbl_228ffe:
	.byte N12
	.byte Ds4, Gs7
	.byte W36
	.byte N12
	.byte W36
	.byte En4
	.byte W24
	.byte Cs4
	.byte W24
	.byte PEND
track_76_lbl_229009:
	.byte VOICE, 20
	.byte VOL, 55
	.byte N12
	.byte Cs4, Gs7
	.byte W24
	.byte N06
	.byte Cn3, En7
	.byte W36
	.byte N06
	.byte W24
	.byte Cs3
	.byte W24
	.byte As2
	.byte W12
	.byte PEND
track_76_lbl_22901c:
	.byte W24
	.byte N06
	.byte Cn3, En6
	.byte W36
	.byte N06
	.byte W24
	.byte Cs3
	.byte W24
	.byte As2
	.byte W12
	.byte PEND
track_76_lbl_229028:
	.byte W24
	.byte N06
	.byte Cn3, Gs5
	.byte W36
	.byte N06
	.byte W24
	.byte Cs3
	.byte W24
	.byte As2
	.byte W12
	.byte PEND
	.byte PATT
		.word track_76_lbl_228fc4
	.byte W96
	.byte W96
	.byte W96
	.byte W72
	.byte PATT
		.word track_76_lbl_228fde
	.byte W24
	.byte N06
	.byte Ds3, En6
	.byte W36
	.byte N06
	.byte W24
	.byte En3
	.byte W24
	.byte Cs3
	.byte W12
	.byte PATT
		.word track_76_lbl_228fef
	.byte PATT
		.word track_76_lbl_228ffe
	.byte PATT
		.word track_76_lbl_229009
	.byte PATT
		.word track_76_lbl_22901c
	.byte PATT
		.word track_76_lbl_229028
	.byte PATT
		.word track_76_lbl_228fc4
	.byte W72
	.byte W72
	.byte W72
	.byte W72
	.byte N06
	.byte An2, En2
	.byte W12
	.byte N12
	.byte An1, Gs3
	.byte W24
	.byte N06
	.byte An2, Cn2
	.byte W12
	.byte N12
	.byte An1, Gs3
	.byte W12
	.byte N06
	.byte An2, Cn2
	.byte W12
	.byte N12
	.byte Cn2, Gs4
	.byte W24
	.byte N06
	.byte Cn3, Cn2
	.byte W12
	.byte N12
	.byte Cn2, En4
	.byte W24
	.byte N06
	.byte Cn3, En2
	.byte W12
	.byte N12
	.byte An1, En4
	.byte W12
	.byte N06
	.byte An2, En0
	.byte W24
	.byte N12
	.byte An1, En4
	.byte W12
	.byte N06
	.byte An2, Gs2
	.byte W24
	.byte N12
	.byte Cn2, Cn7
	.byte W24
	.byte N06
	.byte Cn3, En4
	.byte W12
	.byte N12
	.byte Cn2, Gs6
	.byte W24
	.byte N06
	.byte Cn3, En4
	.byte W12
	.byte N12
	.byte Ds2, Cn7
	.byte W24
	.byte N06
	.byte Ds3, Cn5
	.byte W12
	.byte N12
	.byte Fs2, En8
	.byte W12
	.byte N06
	.byte Fs3, Gs5
	.byte W12
	.byte An1, Gn8
	.byte W12
	.byte W18
	.byte GOTO
		.word track_76_lbl_228fb1

	.byte FINE

track_76_10:
	.byte KEYSH, 0
track_76_lbl_2290cf:
	.byte VOICE, 57
	.byte PAN, c_v
	.byte VOL, 59
	.byte N12
	.byte Cn1, En7
	.byte W24
	.byte N06
	.byte W12
	.byte N12
	.byte W24
	.byte N06
	.byte W12
	.byte N12
	.byte Cs1
	.byte W12
	.byte N06
	.byte W12
	.byte N12
	.byte W12
	.byte N06
	.byte W12
track_76_lbl_2290e8:
	.byte N12
	.byte Cn1, En7
	.byte W24
	.byte N06
	.byte W12
	.byte N12
	.byte W24
	.byte N06
	.byte W12
	.byte N12
	.byte Cs1
	.byte W12
	.byte N06
	.byte W12
	.byte N12
	.byte W12
	.byte N06
	.byte W12
	.byte PEND
	.byte PATT
		.word track_76_lbl_2290e8
	.byte PATT
		.word track_76_lbl_2290e8
	.byte N96
	.byte Fs1, Gs5
	.byte W96
	.byte Gn1
	.byte W96
track_76_lbl_22910c:
	.byte N24
	.byte Gs1, En6
	.byte W24
	.byte N72
	.byte An1
	.byte W72
	.byte PEND
track_76_lbl_229114:
	.byte N36
	.byte As1, Gn8
	.byte W36
	.byte N30
	.byte Bn1
	.byte W36
	.byte PEND
track_76_lbl_22911c:
	.byte N12
	.byte Ds1, En7
	.byte W24
	.byte N06
	.byte W12
	.byte N12
	.byte W24
	.byte N06
	.byte W12
	.byte N12
	.byte En1
	.byte W12
	.byte N06
	.byte W12
	.byte N12
	.byte W12
	.byte N06
	.byte W12
	.byte PEND
	.byte PATT
		.word track_76_lbl_22911c
	.byte PATT
		.word track_76_lbl_22911c
	.byte PATT
		.word track_76_lbl_22911c
	.byte PATT
		.word track_76_lbl_2290e8
	.byte PATT
		.word track_76_lbl_2290e8
	.byte PATT
		.word track_76_lbl_2290e8
	.byte PATT
		.word track_76_lbl_2290e8
	.byte N96
	.byte Fs1, Gs5
	.byte W96
	.byte Gn1
	.byte W96
	.byte PATT
		.word track_76_lbl_22910c
	.byte PATT
		.word track_76_lbl_229114
	.byte PATT
		.word track_76_lbl_22911c
	.byte PATT
		.word track_76_lbl_22911c
	.byte PATT
		.word track_76_lbl_22911c
	.byte PATT
		.word track_76_lbl_22911c
	.byte PATT
		.word track_76_lbl_2290e8
	.byte PATT
		.word track_76_lbl_2290e8
	.byte PATT
		.word track_76_lbl_2290e8
	.byte PATT
		.word track_76_lbl_2290e8
	.byte W72
	.byte W72
	.byte W72
	.byte W72
	.byte N06
	.byte An1, Gs4
	.byte W12
	.byte N12
	.byte W24
	.byte N06
	.byte W12
	.byte N12
	.byte W12
	.byte N06
	.byte W12
	.byte N12
	.byte Cn2
	.byte W24
	.byte N06
	.byte W12
	.byte N12
	.byte W24
	.byte N06
	.byte W12
	.byte N12
	.byte An1
	.byte W12
	.byte N06
	.byte W24
	.byte N12
	.byte W12
	.byte N06
	.byte W24
	.byte N12
	.byte Cn2, En7
	.byte W24
	.byte N06
	.byte W12
	.byte N12
	.byte W24
	.byte N06
	.byte W12
	.byte N12
	.byte Ds1
	.byte W24
	.byte N06
	.byte W12
	.byte N12
	.byte Fs1, Cn8
	.byte W12
	.byte N06
	.byte W12
	.byte An1, Gn8
	.byte W12
	.byte W18
	.byte GOTO
		.word track_76_lbl_2290cf

	.byte FINE

.align 2

track_76:
	.byte 11
	.byte 0
	.byte 130
	.byte 0
	.word voice_group20
	.word track_76_0
	.word track_76_1
	.word track_76_2
	.word track_76_3
	.word track_76_4
	.word track_76_5
	.word track_76_6
	.word track_76_7
	.word track_76_8
	.word track_76_9
	.word track_76_10

.align 2
