.align 2

.global track_80

track_80_0:
	.byte KEYSH, 0
	.byte TEMPO, 35
	.byte PAN, c_v
	.byte PRIO, 120
	.byte W48
track_80_lbl_22af49:
	.byte W48
	.byte VOICE, 66
	.byte VOL, 11
	.byte N36
	.byte Fs1, Gs4
	.byte W02
	.byte VOL, 13
	.byte W02
	.byte FnM1
	.byte W02
	.byte GnM1
	.byte W02
	.byte AsM1
	.byte W01
	.byte BnM1
	.byte W02
	.byte Dn0
	.byte W02
	.byte En0
	.byte W01
	.byte Fs0
	.byte W02
	.byte An0
	.byte W02
	.byte Bn0
	.byte W01
	.byte Cs1
	.byte W02
	.byte En1
	.byte W02
	.byte Fs1
	.byte W01
	.byte Gs1
	.byte W02
	.byte Bn1
	.byte W02
	.byte Cs2
	.byte W01
	.byte Ds2
	.byte W01
	.byte En2
	.byte W02
	.byte Gn2
	.byte W02
	.byte An2
	.byte W02
	.byte TIE
	.byte Fn1
	.byte W01
	.byte VOL, 57
	.byte W01
	.byte Gn2
	.byte W01
	.byte Fs2
	.byte W01
	.byte Dn2
	.byte W02
	.byte Cs2
	.byte W01
	.byte As1
	.byte W02
	.byte Gs1
	.byte W02
	.byte Fn1
	.byte W01
track_80_lbl_22af8f:
	.byte W01
	.byte VOL, 39
	.byte W03
	.byte Cn1
	.byte W02
	.byte As0
	.byte W02
	.byte Gn0
	.byte W03
	.byte Fs0
	.byte W03
	.byte Ds0
	.byte W03
	.byte Cs0
	.byte W04
	.byte BnM1
	.byte W05
	.byte AnM1
	.byte W05
	.byte FsM1
	.byte W07
	.byte FnM1
	.byte W07
	.byte DsM1
	.byte W08
	.byte CnM1
	.byte W15
	.byte AsM2
	.byte W11
	.byte GnM2
	.byte W17
	.byte PEND
	.byte W03
	.byte FnM2
	.byte W21
	.byte EOT, Fn1
	.byte W24
	.byte VOL, 15
	.byte N36
	.byte Dn1, Gs5
	.byte W02
	.byte VOL, 18
	.byte W01
	.byte GsM1
	.byte W01
	.byte AnM1
	.byte W01
	.byte BnM1
	.byte W01
	.byte Cs0
	.byte W01
	.byte Ds0
	.byte W01
	.byte En0
	.byte W01
	.byte Fs0
	.byte W01
	.byte Gs0
	.byte W01
	.byte As0
	.byte W01
	.byte Bn0
	.byte W01
	.byte Cs1
	.byte W01
	.byte Ds1
	.byte W01
	.byte En1
	.byte W01
	.byte Fs1
	.byte W01
	.byte Gs1
	.byte W01
	.byte An1
	.byte W01
	.byte Bn1
	.byte W01
	.byte Cs2
	.byte W01
	.byte Ds2
	.byte W01
	.byte En2
	.byte W03
	.byte Dn2
	.byte W08
	.byte Bn1
	.byte W03
	.byte TIE
	.byte Cs1, Gs4
	.byte W04
	.byte VOL, 45
	.byte W06
	.byte Fs1
	.byte W01
	.byte Fn1
	.byte W01
track_80_lbl_22aff6:
	.byte VOL, 39
	.byte W03
	.byte Cn1
	.byte W02
	.byte As0
	.byte W02
	.byte Gs0
	.byte W03
	.byte Fs0
	.byte W03
	.byte Ds0
	.byte W03
	.byte Cs0
	.byte W04
	.byte AsM1
	.byte W05
	.byte GsM1
	.byte W08
	.byte FnM1
	.byte W06
	.byte DsM1
	.byte W07
	.byte CnM1
	.byte W13
	.byte AsM2
	.byte W13
	.byte GnM2
	.byte W06
	.byte FsM2
	.byte W18
	.byte PEND
track_80_lbl_22b016:
	.byte W03
	.byte VOL, 3
	.byte W18
	.byte CsM2
	.byte W15
	.byte PEND
	.byte EOT, Cs1
	.byte W24
	.byte VOL, 36
	.byte N12
	.byte An2, En2
	.byte W02
	.byte VOL, 39
	.byte W01
	.byte Fs1
	.byte W01
	.byte An1
	.byte W01
	.byte Cn2
	.byte W01
	.byte Bn1
	.byte W01
	.byte An1
	.byte W01
	.byte Gn1
	.byte W01
	.byte Fn1
	.byte W01
	.byte Ds1
	.byte W01
	.byte Cs1
	.byte W01
	.byte Bn0
	.byte W24
	.byte W96
	.byte W48
	.byte BnM2
	.byte N36
	.byte Fs1, Gs4
	.byte W02
	.byte VOL, 13
	.byte W02
	.byte FnM1
	.byte W02
	.byte GnM1
	.byte W02
	.byte AsM1
	.byte W01
	.byte BnM1
	.byte W02
	.byte Dn0
	.byte W02
	.byte En0
	.byte W01
	.byte Fs0
	.byte W02
	.byte An0
	.byte W02
	.byte Bn0
	.byte W01
	.byte Cs1
	.byte W02
	.byte En1
	.byte W02
	.byte Fs1
	.byte W01
	.byte Gs1
	.byte W02
	.byte Bn1
	.byte W02
	.byte Cs2
	.byte W01
	.byte Ds2
	.byte W01
	.byte En2
	.byte W02
	.byte Gn2
	.byte W02
	.byte An2
	.byte W02
	.byte TIE
	.byte Fn1
	.byte W01
	.byte VOL, 57
	.byte W01
	.byte Gn2
	.byte W01
	.byte Fs2
	.byte W01
	.byte Dn2
	.byte W02
	.byte Cs2
	.byte W01
	.byte As1
	.byte W02
	.byte Gs1
	.byte W02
	.byte Fn1
	.byte W01
	.byte PATT
		.word track_80_lbl_22af8f
	.byte W03
	.byte VOL, 5
	.byte W21
	.byte EOT, Fn1
	.byte W24
	.byte VOL, 15
	.byte N36
	.byte Dn1, Gs5
	.byte W02
	.byte VOL, 18
	.byte W01
	.byte GsM1
	.byte W01
	.byte AnM1
	.byte W01
	.byte BnM1
	.byte W01
	.byte Cs0
	.byte W01
	.byte Ds0
	.byte W01
	.byte En0
	.byte W01
	.byte Fs0
	.byte W01
	.byte Gs0
	.byte W01
	.byte As0
	.byte W01
	.byte Bn0
	.byte W01
	.byte Cs1
	.byte W01
	.byte Ds1
	.byte W01
	.byte En1
	.byte W01
	.byte Fs1
	.byte W01
	.byte Gs1
	.byte W01
	.byte An1
	.byte W01
	.byte Bn1
	.byte W01
	.byte Cs2
	.byte W01
	.byte Ds2
	.byte W01
	.byte En2
	.byte W03
	.byte Dn2
	.byte W08
	.byte Bn1
	.byte W03
	.byte TIE
	.byte Cs1, Gs4
	.byte W04
	.byte VOL, 45
	.byte W06
	.byte Fs1
	.byte W01
	.byte Fn1
	.byte W01
	.byte PATT
		.word track_80_lbl_22aff6
	.byte PATT
		.word track_80_lbl_22b016
	.byte EOT, Cs1
	.byte W12
	.byte VOL, 11
	.byte N36
	.byte Bn1, Cn4
	.byte W02
	.byte VOL, 13
	.byte W01
	.byte DnM1
	.byte W01
	.byte EnM1
	.byte W01
	.byte FsM1
	.byte W01
	.byte GnM1
	.byte W01
	.byte AnM1
	.byte W01
	.byte BnM1
	.byte W01
	.byte Cn0
	.byte W01
	.byte Dn0
	.byte W01
	.byte En0
	.byte W01
	.byte Fn0
	.byte W01
	.byte Gn0
	.byte W01
	.byte An0
	.byte W01
	.byte As0
	.byte W01
	.byte Cn1
	.byte W01
	.byte Dn1
	.byte W01
	.byte Ds1
	.byte W01
	.byte Fn1
	.byte W01
	.byte Gn1
	.byte W01
	.byte Gs1
	.byte W01
	.byte As1
	.byte W01
	.byte Cn2
	.byte W01
	.byte Cs2
	.byte W01
	.byte Ds2
	.byte W01
	.byte En2
	.byte W01
	.byte Fs2
	.byte W01
	.byte Gs2
	.byte W01
	.byte An2
	.byte W01
	.byte Bn2
	.byte W01
	.byte Cs3
	.byte W01
	.byte Dn3
	.byte W04
	.byte TIE
	.byte As1
	.byte W01
	.byte VOL, 60
	.byte W05
	.byte An2
	.byte W05
	.byte Gn2
	.byte W01
	.byte W04
	.byte En2
	.byte W05
	.byte Dn2
	.byte W05
	.byte Bn1
	.byte W05
	.byte An1
	.byte W05
	.byte Fs1
	.byte W05
	.byte En1
	.byte W05
	.byte Cs1
	.byte W05
	.byte Bn0
	.byte W05
	.byte Gs0
	.byte W05
	.byte Fs0
	.byte W05
	.byte Ds0
	.byte W05
	.byte Cs0
	.byte W05
	.byte AsM1
	.byte W05
	.byte GsM1
	.byte W06
	.byte FnM1
	.byte W05
	.byte DsM1
	.byte W05
	.byte CnM1
	.byte W05
	.byte AsM2
	.byte W05
	.byte GnM2
	.byte W01
	.byte W01
	.byte FsM2
	.byte W05
	.byte GsM2
	.byte W06
	.byte BnM2
	.byte W07
	.byte CsM1
	.byte W03
	.byte EnM1
	.byte W05
	.byte FsM1
	.byte W04
	.byte AnM1
	.byte W03
	.byte BnM1
	.byte W04
	.byte Dn0
	.byte W03
	.byte En0
	.byte W02
	.byte Fs0
	.byte W03
	.byte As0
	.byte W02
	.byte Cn1
	.byte W03
	.byte Ds1
	.byte W02
	.byte Fn1
	.byte W02
	.byte Gs1
	.byte W03
	.byte Bn1
	.byte W02
	.byte Dn2
	.byte W02
	.byte En2
	.byte W03
	.byte Gs2
	.byte W01
	.byte EOT
	.byte VOL, 59
	.byte W02
	.byte Dn3
	.byte W01
	.byte En3
	.byte W01
	.byte En3
	.byte W02
	.byte N12
	.byte An1, En2
	.byte W12
	.byte As1, En1
	.byte W12
	.byte W96
	.byte W84
	.byte VOL, 30
	.byte TIE
	.byte Fs1, Cn3
	.byte W02
	.byte VOL, 30
	.byte W02
	.byte En0
	.byte W02
	.byte Ds0
	.byte W02
	.byte Dn0
	.byte W02
	.byte Cs0
	.byte W02
	.byte W03
	.byte BnM1
	.byte W06
	.byte AnM1
	.byte W07
	.byte FsM1
	.byte W13
	.byte FnM1
	.byte W12
	.byte EnM1
	.byte W36
	.byte W03
	.byte FsM1
	.byte W12
	.byte AnM1
	.byte W04
	.byte W07
	.byte BnM1
	.byte W12
	.byte Dn0
	.byte W12
	.byte Fs0
	.byte W10
	.byte Gs0
	.byte W07
	.byte Bn0
	.byte W10
	.byte Cs1
	.byte W06
	.byte En1
	.byte W03
	.byte Fn1
	.byte W03
	.byte Bn1
	.byte W14
	.byte EOT
	.byte N12
	.byte Fn1, En2
	.byte W12
	.byte W96
	.byte W84
	.byte VOL, 30
	.byte TIE
	.byte Fs1, Cn3
	.byte W04
	.byte VOL, 27
	.byte W05
	.byte Cs0
	.byte W03
	.byte W07
	.byte AsM1
	.byte W09
	.byte GsM1
	.byte W18
	.byte FnM1
	.byte W13
	.byte EnM1
	.byte W22
	.byte FnM1
	.byte W17
	.byte GsM1
	.byte W08
	.byte AsM1
	.byte W02
	.byte W07
	.byte Cs0
	.byte W05
	.byte Ds0
	.byte W05
	.byte Fs0
	.byte W07
	.byte Gs0
	.byte W04
	.byte Bn0
	.byte W07
	.byte Cs1
	.byte W04
	.byte En1
	.byte W04
	.byte Fs1
	.byte W05
	.byte An1
	.byte W03
	.byte Bn1
	.byte W05
	.byte Dn2
	.byte W04
	.byte En2
	.byte W04
	.byte Gn2
	.byte W05
	.byte An2
	.byte W15
	.byte EOT
	.byte N12
	.byte Gn1, En1
	.byte W12
	.byte W36
	.byte VOL, 11
	.byte N84
	.byte As1
	.byte W05
	.byte VOL, 14
	.byte W02
	.byte EnM1
	.byte W03
	.byte FsM1
	.byte W02
	.byte GsM1
	.byte W02
	.byte AsM1
	.byte W03
	.byte Cs0
	.byte W02
	.byte Ds0
	.byte W03
	.byte Fs0
	.byte W01
	.byte Gn0
	.byte W13
	.byte Fs0
	.byte W07
	.byte Ds0
	.byte W06
	.byte Cs0
	.byte W07
	.byte AsM1
	.byte W04
	.byte W02
	.byte GsM1
	.byte W06
	.byte FnM1
	.byte W07
	.byte DsM1
	.byte W06
	.byte CnM1
	.byte W72
	.byte W03
	.byte GOTO
		.word track_80_lbl_22af49

	.byte FINE

track_80_1:
	.byte KEYSH, 0
	.byte PAN, c_v-10
	.byte PRIO, 119
	.byte W48
track_80_lbl_22b23b:
	.byte W48
	.byte VOICE, 66
	.byte VOL, 11
	.byte N36
	.byte Cs1, Gs4
	.byte W02
	.byte VOL, 13
	.byte W02
	.byte FnM1
	.byte W02
	.byte GnM1
	.byte W02
	.byte AsM1
	.byte W01
	.byte BnM1
	.byte W02
	.byte Dn0
	.byte W02
	.byte En0
	.byte W01
	.byte Fs0
	.byte W02
	.byte An0
	.byte W02
	.byte Bn0
	.byte W01
	.byte Cs1
	.byte W02
	.byte En1
	.byte W02
	.byte Fs1
	.byte W01
	.byte Gs1
	.byte W02
	.byte Bn1
	.byte W02
	.byte Cs2
	.byte W01
	.byte Ds2
	.byte W01
	.byte En2
	.byte W02
	.byte Gn2
	.byte W02
	.byte An2
	.byte W02
	.byte TIE
	.byte Cn1
	.byte W01
	.byte VOL, 57
	.byte W01
	.byte Gn2
	.byte W01
	.byte Fs2
	.byte W01
	.byte Dn2
	.byte W02
	.byte Cs2
	.byte W01
	.byte As1
	.byte W02
	.byte Gs1
	.byte W02
	.byte Fn1
	.byte W01
track_80_lbl_22b281:
	.byte W01
	.byte VOL, 39
	.byte W03
	.byte Cn1
	.byte W02
	.byte As0
	.byte W02
	.byte Gn0
	.byte W03
	.byte Fs0
	.byte W03
	.byte Ds0
	.byte W03
	.byte Cs0
	.byte W04
	.byte BnM1
	.byte W05
	.byte AnM1
	.byte W05
	.byte FsM1
	.byte W07
	.byte FnM1
	.byte W07
	.byte DsM1
	.byte W08
	.byte CnM1
	.byte W15
	.byte AsM2
	.byte W11
	.byte GnM2
	.byte W17
	.byte PEND
	.byte W03
	.byte FnM2
	.byte W21
	.byte EOT, Cn1
	.byte W24
	.byte VOL, 15
	.byte N36
	.byte Cn1, Gs5
	.byte W02
	.byte VOL, 18
	.byte W01
	.byte GsM1
	.byte W01
	.byte AnM1
	.byte W01
	.byte BnM1
	.byte W01
	.byte Cs0
	.byte W01
	.byte Ds0
	.byte W01
	.byte En0
	.byte W01
	.byte Fs0
	.byte W01
	.byte Gs0
	.byte W01
	.byte As0
	.byte W01
	.byte Bn0
	.byte W01
	.byte Cs1
	.byte W01
	.byte Ds1
	.byte W01
	.byte En1
	.byte W01
	.byte Fs1
	.byte W01
	.byte Gs1
	.byte W01
	.byte An1
	.byte W01
	.byte Bn1
	.byte W01
	.byte Cs2
	.byte W01
	.byte Ds2
	.byte W01
	.byte En2
	.byte W03
	.byte Dn2
	.byte W08
	.byte Bn1
	.byte W03
	.byte TIE
	.byte Bn0, Gs4
	.byte W04
	.byte VOL, 45
	.byte W06
	.byte Fs1
	.byte W01
	.byte Fn1
	.byte W01
track_80_lbl_22b2e8:
	.byte VOL, 39
	.byte W03
	.byte Cn1
	.byte W02
	.byte As0
	.byte W02
	.byte Gs0
	.byte W03
	.byte Fs0
	.byte W03
	.byte Ds0
	.byte W03
	.byte Cs0
	.byte W04
	.byte AsM1
	.byte W05
	.byte GsM1
	.byte W08
	.byte FnM1
	.byte W06
	.byte DsM1
	.byte W07
	.byte CnM1
	.byte W13
	.byte AsM2
	.byte W13
	.byte GnM2
	.byte W06
	.byte FsM2
	.byte W18
	.byte PEND
track_80_lbl_22b308:
	.byte W03
	.byte VOL, 3
	.byte W18
	.byte CsM2
	.byte W15
	.byte PEND
	.byte EOT, Bn0
	.byte W24
	.byte N12
	.byte En2, En2
	.byte W01
	.byte VOL, 41
	.byte W01
	.byte Gs1
	.byte W01
	.byte Bn1
	.byte W02
	.byte Cn2
	.byte W01
	.byte Bn1
	.byte W01
	.byte An1
	.byte W01
	.byte Gn1
	.byte W01
	.byte Fn1
	.byte W01
	.byte Ds1
	.byte W01
	.byte Cs1
	.byte W01
	.byte Bn0
	.byte W24
	.byte W96
	.byte W48
	.byte BnM2
	.byte N36
	.byte Cs1, Gs4
	.byte W02
	.byte VOL, 13
	.byte W02
	.byte FnM1
	.byte W02
	.byte GnM1
	.byte W02
	.byte AsM1
	.byte W01
	.byte BnM1
	.byte W02
	.byte Dn0
	.byte W02
	.byte En0
	.byte W01
	.byte Fs0
	.byte W02
	.byte An0
	.byte W02
	.byte Bn0
	.byte W01
	.byte Cs1
	.byte W02
	.byte En1
	.byte W02
	.byte Fs1
	.byte W01
	.byte Gs1
	.byte W02
	.byte Bn1
	.byte W02
	.byte Cs2
	.byte W01
	.byte Ds2
	.byte W01
	.byte En2
	.byte W02
	.byte Gn2
	.byte W02
	.byte An2
	.byte W02
	.byte TIE
	.byte Cn1
	.byte W01
	.byte VOL, 57
	.byte W01
	.byte Gn2
	.byte W01
	.byte Fs2
	.byte W01
	.byte Dn2
	.byte W02
	.byte Cs2
	.byte W01
	.byte As1
	.byte W02
	.byte Gs1
	.byte W02
	.byte Fn1
	.byte W01
	.byte PATT
		.word track_80_lbl_22b281
	.byte W03
	.byte VOL, 5
	.byte W21
	.byte EOT, Cn1
	.byte W24
	.byte VOL, 15
	.byte N36
	.byte Cn1, Gs5
	.byte W02
	.byte VOL, 18
	.byte W01
	.byte GsM1
	.byte W01
	.byte AnM1
	.byte W01
	.byte BnM1
	.byte W01
	.byte Cs0
	.byte W01
	.byte Ds0
	.byte W01
	.byte En0
	.byte W01
	.byte Fs0
	.byte W01
	.byte Gs0
	.byte W01
	.byte As0
	.byte W01
	.byte Bn0
	.byte W01
	.byte Cs1
	.byte W01
	.byte Ds1
	.byte W01
	.byte En1
	.byte W01
	.byte Fs1
	.byte W01
	.byte Gs1
	.byte W01
	.byte An1
	.byte W01
	.byte Bn1
	.byte W01
	.byte Cs2
	.byte W01
	.byte Ds2
	.byte W01
	.byte En2
	.byte W03
	.byte Dn2
	.byte W08
	.byte Bn1
	.byte W03
	.byte TIE
	.byte Bn0, Gs4
	.byte W04
	.byte VOL, 45
	.byte W06
	.byte Fs1
	.byte W01
	.byte Fn1
	.byte W01
	.byte PATT
		.word track_80_lbl_22b2e8
	.byte PATT
		.word track_80_lbl_22b308
	.byte EOT, Bn0
	.byte W12
	.byte VOL, 11
	.byte N36
	.byte Fn1, Cn4
	.byte W03
	.byte VOL, 14
	.byte W01
	.byte EnM1
	.byte W01
	.byte FsM1
	.byte W01
	.byte GnM1
	.byte W01
	.byte AnM1
	.byte W02
	.byte Cn0
	.byte W01
	.byte Dn0
	.byte W01
	.byte En0
	.byte W01
	.byte Fn0
	.byte W01
	.byte Gn0
	.byte W01
	.byte An0
	.byte W01
	.byte As0
	.byte W01
	.byte Cn1
	.byte W01
	.byte Dn1
	.byte W01
	.byte Ds1
	.byte W01
	.byte Fn1
	.byte W01
	.byte Gn1
	.byte W01
	.byte Gs1
	.byte W01
	.byte As1
	.byte W01
	.byte Cn2
	.byte W01
	.byte Cs2
	.byte W01
	.byte Ds2
	.byte W01
	.byte En2
	.byte W01
	.byte Fs2
	.byte W01
	.byte Gs2
	.byte W01
	.byte An2
	.byte W01
	.byte Bn2
	.byte W01
	.byte Cs3
	.byte W01
	.byte Dn3
	.byte W01
	.byte Dn3
	.byte W02
	.byte Cs3
	.byte W01
	.byte Cs3
	.byte TIE
	.byte En1
	.byte W04
	.byte VOL, 59
	.byte W05
	.byte Gs2
	.byte W03
	.byte W02
	.byte Fs2
	.byte W05
	.byte Ds2
	.byte W05
	.byte Cs2
	.byte W05
	.byte As1
	.byte W05
	.byte Gs1
	.byte W05
	.byte Fn1
	.byte W05
	.byte Ds1
	.byte W05
	.byte Cn1
	.byte W05
	.byte As0
	.byte W05
	.byte Gn0
	.byte W05
	.byte En0
	.byte W05
	.byte Dn0
	.byte W05
	.byte BnM1
	.byte W05
	.byte AnM1
	.byte W05
	.byte FsM1
	.byte W05
	.byte EnM1
	.byte W05
	.byte CsM1
	.byte W05
	.byte BnM2
	.byte W05
	.byte GsM2
	.byte W04
	.byte W01
	.byte FsM2
	.byte W05
	.byte GsM2
	.byte W06
	.byte BnM2
	.byte W07
	.byte CsM1
	.byte W03
	.byte EnM1
	.byte W05
	.byte FsM1
	.byte W04
	.byte AnM1
	.byte W03
	.byte BnM1
	.byte W04
	.byte Dn0
	.byte W03
	.byte En0
	.byte W02
	.byte Fs0
	.byte W03
	.byte As0
	.byte W02
	.byte Cn1
	.byte W03
	.byte Ds1
	.byte W03
	.byte Fs1
	.byte W02
	.byte An1
	.byte W03
	.byte Cs2
	.byte W02
	.byte Ds2
	.byte W02
	.byte Gn2
	.byte W02
	.byte Gs2
	.byte W01
	.byte EOT
	.byte VOL, 59
	.byte W02
	.byte Dn3
	.byte W02
	.byte En3
	.byte W02
	.byte N12
	.byte Ds1, En2
	.byte W12
	.byte En1, En1
	.byte W12
	.byte W96
	.byte W84
	.byte VOL, 30
	.byte TIE
	.byte Cn1, Cn3
	.byte W02
	.byte VOL, 30
	.byte W04
	.byte Ds0
	.byte W04
	.byte Cs0
	.byte W02
	.byte W06
	.byte AsM1
	.byte W07
	.byte GsM1
	.byte W16
	.byte FnM1
	.byte W12
	.byte EnM1
	.byte W36
	.byte W03
	.byte FsM1
	.byte W12
	.byte AnM1
	.byte W04
	.byte W07
	.byte BnM1
	.byte W12
	.byte Dn0
	.byte W08
	.byte En0
	.byte W11
	.byte Gn0
	.byte W07
	.byte As0
	.byte W06
	.byte Cn1
	.byte W10
	.byte Ds1
	.byte W06
	.byte Fn1
	.byte W02
	.byte Bn1
	.byte W01
	.byte Bn1
	.byte W14
	.byte EOT
	.byte N12
	.byte Bn0, En2
	.byte W12
	.byte W96
	.byte W84
	.byte VOL, 30
	.byte TIE
	.byte Cn1, Cn3
	.byte W03
	.byte VOL, 27
	.byte W05
	.byte Cs0
	.byte W04
	.byte W06
	.byte AsM1
	.byte W09
	.byte GsM1
	.byte W18
	.byte FnM1
	.byte W13
	.byte EnM1
	.byte W22
	.byte FnM1
	.byte W17
	.byte GsM1
	.byte W08
	.byte AsM1
	.byte W03
	.byte W06
	.byte Cs0
	.byte W05
	.byte Ds0
	.byte W05
	.byte Fs0
	.byte W07
	.byte Gs0
	.byte W04
	.byte Bn0
	.byte W07
	.byte Cs1
	.byte W04
	.byte En1
	.byte W04
	.byte Fs1
	.byte W05
	.byte An1
	.byte W03
	.byte Bn1
	.byte W05
	.byte Dn2
	.byte W04
	.byte En2
	.byte W04
	.byte Gn2
	.byte W03
	.byte Gs2
	.byte W02
	.byte An2
	.byte W16
	.byte EOT
	.byte N12
	.byte Cs1, En1
	.byte W12
	.byte W96
	.byte W96
	.byte GOTO
		.word track_80_lbl_22b23b

	.byte FINE

track_80_2:
	.byte KEYSH, 0
	.byte VOICE, 104
	.byte VOL, 62
	.byte PAN, c_v
	.byte PRIO, 118
	.byte N44
	.byte Ds1, En7, DsM2
	.byte W48
track_80_lbl_22b505:
	.byte N92
	.byte Ds1, En7, DsM2
	.byte W96
	.byte Ds1, En7, DsM2
	.byte W96
	.byte Ds1, En7, DsM2
	.byte W96
track_80_lbl_22b512:
	.byte N80
	.byte Ds1, En7, DsM2
	.byte W84
	.byte N11
	.byte Cs1
	.byte W12
	.byte PEND
	.byte N92
	.byte Ds1, En7, DsM2
	.byte W56
	.byte W03
	.byte VOL, 60
	.byte W03
	.byte An2
	.byte W03
	.byte Fs2
	.byte W02
	.byte En2
	.byte W03
	.byte Cs2
	.byte W02
	.byte Bn1
	.byte W02
	.byte An1
	.byte W02
	.byte Gs1
	.byte W02
	.byte Fn1
	.byte W02
	.byte Ds1
	.byte W03
	.byte Cs1
	.byte W02
	.byte As0
	.byte W03
	.byte Gs0
	.byte W02
	.byte Fs0
	.byte W02
	.byte Ds0
	.byte W03
	.byte Cs0
	.byte W01
	.byte Dn3
	.byte N92
	.byte Ds1, En7, DsM2
	.byte W96
	.byte Ds1, En7, DsM2
	.byte W96
	.byte Ds1, En7, DsM2
	.byte W96
	.byte Ds1, En7, DsM2
	.byte W96
	.byte PATT
		.word track_80_lbl_22b512
	.byte N92
	.byte Ds1, En7, DsM2
	.byte W96
	.byte Ds1, En7, DsM2
	.byte W96
	.byte N11
	.byte W12
	.byte N56
	.byte Ds1, En7, DsM2
	.byte W60
	.byte N23
	.byte En1, Cn8
	.byte W24
	.byte N80
	.byte Ds1, En7, DsM2
	.byte W84
	.byte N11
	.byte Fs1
	.byte W12
track_80_lbl_22b575:
	.byte N23
	.byte Ds1, En7
	.byte W24
	.byte N68
	.byte Ds1, En7, DsM2
	.byte W72
	.byte PEND
	.byte PATT
		.word track_80_lbl_22b575
	.byte N92
	.byte Ds1, En7, DsM2
	.byte W84
	.byte N11
	.byte En1
	.byte W12
	.byte PATT
		.word track_80_lbl_22b575
	.byte N92
	.byte Ds1, En7, DsM2
	.byte W96
	.byte PATT
		.word track_80_lbl_22b575
	.byte N92
	.byte Ds1, En7, DsM2
	.byte W96
	.byte N23
	.byte W24
	.byte N56
	.byte Ds1, En7, DsM2
	.byte W60
	.byte N11
	.byte En1, Cn8
	.byte W12
	.byte Ds1, En7
	.byte W12
	.byte N80
	.byte Ds1, En7, DsM2
	.byte W84
	.byte GOTO
		.word track_80_lbl_22b505

	.byte FINE

track_80_3:
	.byte KEYSH, 0
	.byte PAN, c_v+10
	.byte PRIO, 30
	.byte W48
track_80_lbl_22b5c0:
	.byte W48
	.byte VOICE, 66
	.byte VOL, 11
	.byte N36
	.byte Gs0, Gs4
	.byte W02
	.byte VOL, 13
	.byte W02
	.byte FnM1
	.byte W02
	.byte GnM1
	.byte W02
	.byte AsM1
	.byte W01
	.byte BnM1
	.byte W02
	.byte Dn0
	.byte W02
	.byte En0
	.byte W01
	.byte Fs0
	.byte W02
	.byte An0
	.byte W02
	.byte Bn0
	.byte W01
	.byte Cs1
	.byte W02
	.byte En1
	.byte W02
	.byte Fs1
	.byte W01
	.byte Gs1
	.byte W02
	.byte Bn1
	.byte W02
	.byte Cs2
	.byte W01
	.byte Ds2
	.byte W01
	.byte En2
	.byte W02
	.byte Gn2
	.byte W02
	.byte An2
	.byte W02
	.byte TIE
	.byte Gn0
	.byte W01
	.byte VOL, 57
	.byte W01
	.byte Gn2
	.byte W01
	.byte Fs2
	.byte W01
	.byte Dn2
	.byte W02
	.byte Cs2
	.byte W01
	.byte As1
	.byte W02
	.byte Gs1
	.byte W02
	.byte Fn1
	.byte W01
track_80_lbl_22b606:
	.byte W01
	.byte VOL, 39
	.byte W03
	.byte Cn1
	.byte W02
	.byte As0
	.byte W02
	.byte Gn0
	.byte W03
	.byte Fs0
	.byte W03
	.byte Ds0
	.byte W03
	.byte Cs0
	.byte W04
	.byte BnM1
	.byte W05
	.byte AnM1
	.byte W05
	.byte FsM1
	.byte W07
	.byte FnM1
	.byte W07
	.byte DsM1
	.byte W08
	.byte CnM1
	.byte W15
	.byte AsM2
	.byte W11
	.byte GnM2
	.byte W17
	.byte PEND
	.byte W03
	.byte FnM2
	.byte W21
	.byte EOT, Gn0
	.byte W24
	.byte VOL, 15
	.byte N36
	.byte An0, Gs5
	.byte W02
	.byte VOL, 18
	.byte W01
	.byte GsM1
	.byte W01
	.byte AnM1
	.byte W01
	.byte BnM1
	.byte W01
	.byte Cs0
	.byte W01
	.byte Ds0
	.byte W01
	.byte En0
	.byte W01
	.byte Fs0
	.byte W01
	.byte Gs0
	.byte W01
	.byte As0
	.byte W01
	.byte Bn0
	.byte W01
	.byte Cs1
	.byte W01
	.byte Ds1
	.byte W01
	.byte En1
	.byte W01
	.byte Fs1
	.byte W01
	.byte Gs1
	.byte W01
	.byte An1
	.byte W01
	.byte Bn1
	.byte W01
	.byte Cs2
	.byte W01
	.byte Ds2
	.byte W01
	.byte En2
	.byte W03
	.byte Dn2
	.byte W08
	.byte Bn1
	.byte W03
	.byte TIE
	.byte Gs0, Gs4
	.byte W04
	.byte VOL, 45
	.byte W06
	.byte Fs1
	.byte W01
	.byte Fn1
	.byte W01
track_80_lbl_22b66d:
	.byte VOL, 39
	.byte W03
	.byte Cn1
	.byte W02
	.byte As0
	.byte W02
	.byte Gs0
	.byte W03
	.byte Fs0
	.byte W03
	.byte Ds0
	.byte W03
	.byte Cs0
	.byte W04
	.byte AsM1
	.byte W05
	.byte GsM1
	.byte W08
	.byte FnM1
	.byte W06
	.byte DsM1
	.byte W07
	.byte CnM1
	.byte W13
	.byte AsM2
	.byte W13
	.byte GnM2
	.byte W06
	.byte FsM2
	.byte W18
	.byte PEND
track_80_lbl_22b68d:
	.byte W03
	.byte VOL, 3
	.byte W18
	.byte CsM2
	.byte W15
	.byte PEND
	.byte EOT, Gs0
	.byte W24
	.byte N12
	.byte As1, En2
	.byte W02
	.byte VOL, 40
	.byte W01
	.byte Gn1
	.byte W01
	.byte As1
	.byte W01
	.byte Cn2
	.byte W02
	.byte An1
	.byte W01
	.byte Gn1
	.byte W01
	.byte Fn1
	.byte W01
	.byte Ds1
	.byte W01
	.byte Cs1
	.byte W01
	.byte Bn0
	.byte W24
	.byte W96
	.byte W48
	.byte BnM2
	.byte N36
	.byte Gs0, Gs4
	.byte W02
	.byte VOL, 13
	.byte W02
	.byte FnM1
	.byte W02
	.byte GnM1
	.byte W02
	.byte AsM1
	.byte W01
	.byte BnM1
	.byte W02
	.byte Dn0
	.byte W02
	.byte En0
	.byte W01
	.byte Fs0
	.byte W02
	.byte An0
	.byte W02
	.byte Bn0
	.byte W01
	.byte Cs1
	.byte W02
	.byte En1
	.byte W02
	.byte Fs1
	.byte W01
	.byte Gs1
	.byte W02
	.byte Bn1
	.byte W02
	.byte Cs2
	.byte W01
	.byte Ds2
	.byte W01
	.byte En2
	.byte W02
	.byte Gn2
	.byte W02
	.byte An2
	.byte W02
	.byte TIE
	.byte Gn0
	.byte W01
	.byte VOL, 57
	.byte W01
	.byte Gn2
	.byte W01
	.byte Fs2
	.byte W01
	.byte Dn2
	.byte W02
	.byte Cs2
	.byte W01
	.byte As1
	.byte W02
	.byte Gs1
	.byte W02
	.byte Fn1
	.byte W01
	.byte PATT
		.word track_80_lbl_22b606
	.byte W03
	.byte VOL, 5
	.byte W21
	.byte EOT, Gn0
	.byte W24
	.byte VOL, 15
	.byte N36
	.byte An0, Gs5
	.byte W02
	.byte VOL, 18
	.byte W01
	.byte GsM1
	.byte W01
	.byte AnM1
	.byte W01
	.byte BnM1
	.byte W01
	.byte Cs0
	.byte W01
	.byte Ds0
	.byte W01
	.byte En0
	.byte W01
	.byte Fs0
	.byte W01
	.byte Gs0
	.byte W01
	.byte As0
	.byte W01
	.byte Bn0
	.byte W01
	.byte Cs1
	.byte W01
	.byte Ds1
	.byte W01
	.byte En1
	.byte W01
	.byte Fs1
	.byte W01
	.byte Gs1
	.byte W01
	.byte An1
	.byte W01
	.byte Bn1
	.byte W01
	.byte Cs2
	.byte W01
	.byte Ds2
	.byte W01
	.byte En2
	.byte W03
	.byte Dn2
	.byte W08
	.byte Bn1
	.byte W03
	.byte TIE
	.byte Gs0, Gs4
	.byte W04
	.byte VOL, 45
	.byte W06
	.byte Fs1
	.byte W01
	.byte Fn1
	.byte W01
	.byte PATT
		.word track_80_lbl_22b66d
	.byte PATT
		.word track_80_lbl_22b68d
	.byte EOT, Gs0
	.byte W12
	.byte VOL, 11
	.byte N36
	.byte An1, Cn4
	.byte W02
	.byte VOL, 13
	.byte W01
	.byte DnM1
	.byte W01
	.byte EnM1
	.byte W01
	.byte FsM1
	.byte W01
	.byte GnM1
	.byte W01
	.byte AnM1
	.byte W01
	.byte BnM1
	.byte W01
	.byte Cn0
	.byte W01
	.byte Dn0
	.byte W01
	.byte En0
	.byte W01
	.byte Fn0
	.byte W01
	.byte Gn0
	.byte W01
	.byte An0
	.byte W01
	.byte As0
	.byte W01
	.byte Cn1
	.byte W01
	.byte Dn1
	.byte W01
	.byte Ds1
	.byte W01
	.byte Fn1
	.byte W01
	.byte Gn1
	.byte W01
	.byte Gs1
	.byte W01
	.byte As1
	.byte W01
	.byte Cn2
	.byte W01
	.byte Cs2
	.byte W01
	.byte Ds2
	.byte W01
	.byte En2
	.byte W01
	.byte Fs2
	.byte W01
	.byte Gs2
	.byte W01
	.byte An2
	.byte W01
	.byte Bn2
	.byte W01
	.byte Cs3
	.byte W01
	.byte Dn3
	.byte W03
	.byte Cs3
	.byte W01
	.byte TIE
	.byte Gs1
	.byte W01
	.byte VOL, 60
	.byte W05
	.byte An2
	.byte W05
	.byte Gn2
	.byte W01
	.byte W04
	.byte En2
	.byte W05
	.byte Dn2
	.byte W05
	.byte Bn1
	.byte W05
	.byte An1
	.byte W05
	.byte Fs1
	.byte W05
	.byte En1
	.byte W05
	.byte Cs1
	.byte W05
	.byte Bn0
	.byte W05
	.byte Gs0
	.byte W05
	.byte Fs0
	.byte W05
	.byte Ds0
	.byte W05
	.byte Cs0
	.byte W05
	.byte AsM1
	.byte W05
	.byte GsM1
	.byte W06
	.byte FnM1
	.byte W05
	.byte DsM1
	.byte W05
	.byte CnM1
	.byte W05
	.byte AsM2
	.byte W05
	.byte GnM2
	.byte W01
	.byte W01
	.byte FsM2
	.byte W05
	.byte GsM2
	.byte W06
	.byte BnM2
	.byte W07
	.byte CsM1
	.byte W03
	.byte EnM1
	.byte W05
	.byte FsM1
	.byte W04
	.byte AnM1
	.byte W03
	.byte BnM1
	.byte W04
	.byte Dn0
	.byte W03
	.byte En0
	.byte W02
	.byte Fs0
	.byte W03
	.byte As0
	.byte W02
	.byte Cn1
	.byte W03
	.byte Ds1
	.byte W02
	.byte Fn1
	.byte W02
	.byte Gs1
	.byte W01
	.byte An1
	.byte W02
	.byte Bn1
	.byte W02
	.byte Dn2
	.byte W02
	.byte En2
	.byte W01
	.byte Gn2
	.byte W02
	.byte Gs2
	.byte W01
	.byte EOT
	.byte VOL, 59
	.byte W02
	.byte Dn3
	.byte W01
	.byte En3
	.byte W03
	.byte N12
	.byte Gn1, En2
	.byte W12
	.byte Gs1
	.byte W12
	.byte W96
	.byte W84
	.byte VOL, 30
	.byte TIE
	.byte En1, Cn3
	.byte W04
	.byte VOL, 28
	.byte W02
	.byte Ds0
	.byte W04
	.byte Cs0
	.byte W02
	.byte W03
	.byte BnM1
	.byte W06
	.byte AnM1
	.byte W07
	.byte FsM1
	.byte W24
	.byte W01
	.byte EnM1
	.byte W19
	.byte FnM1
	.byte W24
	.byte W02
	.byte GsM1
	.byte W10
	.byte W02
	.byte AsM1
	.byte W13
	.byte Cs0
	.byte W08
	.byte Ds0
	.byte W08
	.byte Fs0
	.byte W10
	.byte Gs0
	.byte W07
	.byte Bn0
	.byte W10
	.byte Cs1
	.byte W06
	.byte En1
	.byte W03
	.byte Fn1
	.byte W02
	.byte Bn1
	.byte W01
	.byte Bn1
	.byte W14
	.byte EOT
	.byte N12
	.byte Ds1, En2
	.byte W12
	.byte W96
	.byte W84
	.byte VOL, 30
	.byte TIE
	.byte En1, Cn3
	.byte W03
	.byte VOL, 27
	.byte W05
	.byte Cs0
	.byte W04
	.byte W06
	.byte AsM1
	.byte W09
	.byte GsM1
	.byte W18
	.byte FnM1
	.byte W13
	.byte EnM1
	.byte W32
	.byte W03
	.byte FsM1
	.byte W08
	.byte AnM1
	.byte W07
	.byte BnM1
	.byte W09
	.byte Dn0
	.byte W05
	.byte En0
	.byte W07
	.byte Gn0
	.byte W04
	.byte As0
	.byte W04
	.byte Cn1
	.byte W07
	.byte Ds1
	.byte W04
	.byte Fn1
	.byte W05
	.byte Gs1
	.byte W04
	.byte As1
	.byte W03
	.byte Cs2
	.byte W05
	.byte Ds2
	.byte W04
	.byte Fs2
	.byte W05
	.byte Gs2
	.byte W18
	.byte EOT
	.byte N12
	.byte Fn1, En1
	.byte W12
	.byte W36
	.byte VOL, 11
	.byte W04
	.byte CsM1
	.byte W02
	.byte DsM1
	.byte W03
	.byte FsM1
	.byte W02
	.byte GsM1
	.byte W03
	.byte AsM1
	.byte W03
	.byte Cs0
	.byte W02
	.byte Ds0
	.byte W03
	.byte Fs0
	.byte W02
	.byte Gs0
	.byte W12
	.byte Fs0
	.byte W07
	.byte Ds0
	.byte W06
	.byte Cs0
	.byte W07
	.byte AsM1
	.byte W04
	.byte W02
	.byte GsM1
	.byte W06
	.byte FnM1
	.byte W07
	.byte DsM1
	.byte W06
	.byte CnM1
	.byte W72
	.byte W03
	.byte GOTO
		.word track_80_lbl_22b5c0

	.byte FINE

.align 2

track_80:
	.byte 4
	.byte 0
	.byte 130
	.byte 0
	.word voice_group20
	.word track_80_0
	.word track_80_1
	.word track_80_2
	.word track_80_3

.align 2
