.align 2

.global track_563

track_563_0:
	.byte KEYSH, 0
	.byte TEMPO, 75
	.byte W60
	.byte VOICE, 7
	.byte VOL, 28
	.byte PAN, c_v
	.byte BEND, c_v
	.byte N03, Gn4, v036
	.byte W03
	.byte VOICE, 16
	.byte VOL, 28
	.byte BENDR, 12
	.byte BEND, c_v-63
	.byte N16, Fn2, v080
	.byte W01
	.byte VOL, 33
	.byte BEND, c_v-55
	.byte W01
	.byte VOL, 37
	.byte BEND, c_v-47
	.byte W01
	.byte VOL, 42
	.byte BEND, c_v-38
	.byte W01
	.byte VOL, 47
	.byte BEND, c_v-30
	.byte W01
	.byte VOL, 46
	.byte BEND, c_v-22
	.byte W01
	.byte VOL, 44
	.byte BEND, c_v-13
	.byte W01
	.byte VOL, 43
	.byte BEND, c_v-5
	.byte W01
	.byte VOL, 42
	.byte BEND, c_v+4
	.byte W01
	.byte VOL, 41
	.byte BEND, c_v+12
	.byte W01
	.byte VOL, 40
	.byte BEND, c_v+20
	.byte W01
	.byte VOL, 39
	.byte BEND, c_v+29
	.byte W01
	.byte VOL, 37
	.byte BEND, c_v+37
	.byte W01
	.byte VOL, 25
	.byte BEND, c_v+46
	.byte W01
	.byte VOL, 12
	.byte BEND, c_v+54
	.byte W01
	.byte VOL, 0
	.byte BEND, c_v+63
	.byte W01
	.byte FINE

track_563_1:
	.byte KEYSH, 0
	.byte W60
	.byte VOICE, 4
	.byte VOL, 28
	.byte PAN, c_v
	.byte N13, Fn2, v060
	.byte W32
	.byte VOL, 37
	.byte N10, Cn2 @ v060
	.byte W04
	.byte W02
	.byte VOL, 28
	.byte W01
	.byte 18 @ VOL
	.byte W01
	.byte 9 @ VOL
	.byte W01
	.byte 0 @ VOL
	.byte W01
	.byte FINE

track_563_2:
	.byte KEYSH, 0
	.byte W96
	.byte W24
	.byte W02
	.byte VOICE, 35
	.byte VOL, 42
	.byte PAN, c_v
	.byte N12, Cn3, v052
	.byte W12
	.byte N12 @ Cn3, v052
	.byte W12
	.byte N12 @ Cn3, v052
	.byte W12
	.byte N12 @ Cn3, v052
	.byte W14
	.byte VOICE, 36
	.byte N03, Cn3, v112
	.byte W20
	.byte W14
	.byte VOICE, 37
	.byte VOL, 47
	.byte N02, Cn3, v060
	.byte W10
	.byte Cn3, v048 @ N02
	.byte W10
	.byte Cn3, v060 @ N02
	.byte W10
	.byte Cn3, v048 @ N02
	.byte W10
	.byte Cn3, v060 @ N02
	.byte W10
	.byte Cn3, v048 @ N02
	.byte W10
	.byte Cn3, v060 @ N02
	.byte W10
	.byte Cn3, v048 @ N02
	.byte W10
	.byte Cn3, v060 @ N02
	.byte W02
	.byte W08
	.byte Cn3, v048 @ N02
	.byte W10
	.byte Cn3, v060 @ N02
	.byte W10
	.byte Cn3, v048 @ N02
	.byte W10
	.byte Cn3, v060 @ N02
	.byte W10
	.byte Cn3, v048 @ N02
	.byte W10
	.byte Cn3, v060 @ N02
	.byte W10
	.byte Cn3, v048 @ N02
	.byte W10
	.byte Cn3, v060 @ N02
	.byte W05
	.byte VOL, 44
	.byte W03
	.byte 42 @ VOL
	.byte W02
	.byte N02, Cn3, v048
	.byte W01
	.byte VOL, 41
	.byte W03
	.byte 39 @ VOL
	.byte W03
	.byte 37 @ VOL
	.byte W01
	.byte W02
	.byte 35 @ VOL
	.byte N02, Cn3, v060
	.byte W03
	.byte VOL, 34
	.byte W03
	.byte 32 @ VOL
	.byte W03
	.byte 31 @ VOL
	.byte W01
	.byte N02, Cn3, v048
	.byte W02
	.byte VOL, 29
	.byte W03
	.byte 27 @ VOL
	.byte W03
	.byte 26 @ VOL
	.byte W02
	.byte N02, Cn3, v060
	.byte W01
	.byte VOL, 25
	.byte W03
	.byte 24 @ VOL
	.byte W03
	.byte 23 @ VOL
	.byte W03
	.byte 22 @ VOL
	.byte N02, Cn3, v048
	.byte W03
	.byte VOL, 20
	.byte W03
	.byte 19 @ VOL
	.byte W03
	.byte 18 @ VOL
	.byte W01
	.byte N02, Cn3, v060
	.byte W02
	.byte VOL, 17
	.byte W03
	.byte 16 @ VOL
	.byte W03
	.byte 15 @ VOL
	.byte W02
	.byte N02, Cn3, v048
	.byte W01
	.byte VOL, 14
	.byte W03
	.byte 14 @ VOL
	.byte W03
	.byte 13 @ VOL
	.byte W03
	.byte 12 @ VOL
	.byte N02, Cn3, v060
	.byte W03
	.byte VOL, 11
	.byte W03
	.byte 10 @ VOL
	.byte W03
	.byte 10 @ VOL
	.byte W01
	.byte N02, Cn3, v048
	.byte W02
	.byte VOL, 9
	.byte W03
	.byte 8 @ VOL
	.byte W03
	.byte 8 @ VOL
	.byte W02
	.byte N02, Cn3, v060
	.byte W01
	.byte VOL, 7
	.byte W03
	.byte 7 @ VOL
	.byte W03
	.byte 6 @ VOL
	.byte W03
	.byte 6 @ VOL
	.byte N02, Cn3, v048
	.byte W03
	.byte VOL, 5
	.byte W01
	.byte W02
	.byte 4 @ VOL
	.byte W03
	.byte 4 @ VOL
	.byte W01
	.byte N02, Cn3, v060
	.byte W02
	.byte VOL, 3
	.byte W03
	.byte 3 @ VOL
	.byte W03
	.byte 2 @ VOL
	.byte W02
	.byte N02, Cn3, v048
	.byte W04
	.byte VOL, 1
	.byte W03
	.byte 1 @ VOL
	.byte W03
	.byte 0 @ VOL
	.byte N02, Cn3, v060
	.byte W03
	.byte VOL, 0
	.byte W03
	.byte 0 @ VOL
	.byte FINE

.align 2

track_563:
	.byte 3
	.byte 0
	.byte 251
	.byte 0
	.word voice_group4
	.word track_563_0
	.word track_563_1
	.word track_563_2

.align 2
