.align 2

.global track_131

track_131_0:
	.byte KEYSH, 0
	.byte TEMPO, 75
	.byte VOICE, 10
	.byte VOL, 78
	.byte PAN, c_v
	.byte BEND, c_v
	.byte N04, Cn3, v127
	.byte W04
	.byte Cn3, v040 @ N04
	.byte W04
	.byte Cn3, v016 @ N04
	.byte W24
	.byte W03
	.byte VOL, 15
	.byte W01
	.byte N04, Cn3, v080
	.byte W04
	.byte Cn3, v012 @ N04
	.byte W04
	.byte Cn3, v008 @ N04
	.byte W52
	.byte VOICE, 19
	.byte VOL, 62
	.byte PAN, c_v
	.byte BENDR, 36
	.byte N30, Cn1, v012, 1
	.byte W01
	.byte BEND, c_v+1
	.byte W01
	.byte c_v+3 @ BEND
	.byte W01
	.byte c_v+5 @ BEND
	.byte W01
	.byte c_v+7 @ BEND
	.byte W01
	.byte c_v+11 @ BEND
	.byte W01
	.byte c_v+14 @ BEND
	.byte W01
	.byte c_v+17 @ BEND
	.byte W01
	.byte c_v+22 @ BEND
	.byte W01
	.byte c_v+28 @ BEND
	.byte W01
	.byte c_v+35 @ BEND
	.byte W01
	.byte c_v+43 @ BEND
	.byte W01
	.byte c_v+53 @ BEND
	.byte W01
	.byte c_v+55 @ BEND
	.byte W01
	.byte c_v+57 @ BEND
	.byte W01
	.byte c_v+58 @ BEND
	.byte W01
	.byte c_v+59 @ BEND
	.byte W01
	.byte c_v+61 @ BEND
	.byte W02
	.byte c_v+62 @ BEND
	.byte W01
	.byte c_v+63 @ BEND
	.byte W04
	.byte VOL, 62
	.byte W01
	.byte 44 @ VOL
	.byte W01
	.byte 33 @ VOL
	.byte W01
	.byte 25 @ VOL
	.byte W01
	.byte 21 @ VOL
	.byte W01
	.byte 18 @ VOL
	.byte W01
	.byte 15 @ VOL
	.byte W42
	.byte FINE

track_131_1:
	.byte KEYSH, 0
	.byte VOICE, 10
	.byte VOL, 39
	.byte PAN, c_v
	.byte BEND, c_v
	.byte W18
	.byte N04, Cn3, v100
	.byte W04
	.byte Cn3, v020 @ N04
	.byte W04
	.byte Cn3, v008 @ N04
	.byte W48
	.byte W03
	.byte VOICE, 19
	.byte VOL, 78
	.byte PAN, c_v
	.byte BENDR, 36
	.byte N30, Cn1, v020, 1
	.byte W01
	.byte BEND, c_v+1
	.byte W01
	.byte c_v+3 @ BEND
	.byte W01
	.byte c_v+5 @ BEND
	.byte W01
	.byte c_v+7 @ BEND
	.byte W01
	.byte c_v+11 @ BEND
	.byte W01
	.byte c_v+14 @ BEND
	.byte W01
	.byte c_v+17 @ BEND
	.byte W01
	.byte c_v+22 @ BEND
	.byte W01
	.byte c_v+28 @ BEND
	.byte W01
	.byte c_v+35 @ BEND
	.byte W01
	.byte c_v+43 @ BEND
	.byte W01
	.byte c_v+53 @ BEND
	.byte W01
	.byte c_v+55 @ BEND
	.byte W01
	.byte c_v+57 @ BEND
	.byte W01
	.byte c_v+58 @ BEND
	.byte W01
	.byte c_v+59 @ BEND
	.byte W01
	.byte c_v+61 @ BEND
	.byte W02
	.byte c_v+62 @ BEND
	.byte W01
	.byte c_v+63 @ BEND
	.byte W04
	.byte VOL, 78
	.byte W01
	.byte 51 @ VOL
	.byte W01
	.byte 37 @ VOL
	.byte W01
	.byte 29 @ VOL
	.byte W01
	.byte 22 @ VOL
	.byte W01
	.byte 19 @ VOL
	.byte W01
	.byte 15 @ VOL
	.byte W60
	.byte W01
	.byte FINE

track_131_2:
	.byte KEYSH, 0
	.byte VOICE, 19
	.byte VOL, 78
	.byte PAN, c_v
	.byte BENDR, 36
	.byte W56
	.byte W02
	.byte BEND, c_v
	.byte N30, Cn1, v080, 1
	.byte W01
	.byte BEND, c_v+1
	.byte W01
	.byte c_v+3 @ BEND
	.byte W01
	.byte c_v+5 @ BEND
	.byte W01
	.byte c_v+7 @ BEND
	.byte W01
	.byte c_v+11 @ BEND
	.byte W01
	.byte c_v+14 @ BEND
	.byte W01
	.byte c_v+17 @ BEND
	.byte W01
	.byte c_v+22 @ BEND
	.byte W01
	.byte c_v+28 @ BEND
	.byte W01
	.byte c_v+35 @ BEND
	.byte W01
	.byte c_v+43 @ BEND
	.byte W01
	.byte c_v+53 @ BEND
	.byte W01
	.byte c_v+55 @ BEND
	.byte W01
	.byte c_v+57 @ BEND
	.byte W01
	.byte c_v+58 @ BEND
	.byte W01
	.byte c_v+59 @ BEND
	.byte W01
	.byte c_v+61 @ BEND
	.byte W02
	.byte c_v+62 @ BEND
	.byte W01
	.byte c_v+63 @ BEND
	.byte W04
	.byte VOL, 78
	.byte W01
	.byte 51 @ VOL
	.byte W01
	.byte 37 @ VOL
	.byte W01
	.byte 29 @ VOL
	.byte W01
	.byte 22 @ VOL
	.byte W01
	.byte 19 @ VOL
	.byte W01
	.byte 15 @ VOL
	.byte W08
	.byte W72
	.byte FINE

track_131_3:
	.byte KEYSH, 0
	.byte VOICE, 43
	.byte VOL, 78
	.byte PAN, c_v
	.byte BENDR, 12
	.byte W56
	.byte W02
	.byte BEND, c_v-47
	.byte N30, Gn3, v100, 1
	.byte W01
	.byte BEND, c_v-44
	.byte W01
	.byte c_v-40 @ BEND
	.byte W01
	.byte c_v-37 @ BEND
	.byte W01
	.byte c_v-34 @ BEND
	.byte W01
	.byte c_v-30 @ BEND
	.byte W01
	.byte c_v-27 @ BEND
	.byte W01
	.byte c_v-24 @ BEND
	.byte W01
	.byte c_v-20 @ BEND
	.byte W01
	.byte c_v-17 @ BEND
	.byte W01
	.byte c_v-14 @ BEND
	.byte W01
	.byte c_v-10 @ BEND
	.byte W01
	.byte c_v-7 @ BEND
	.byte W01
	.byte c_v-4 @ BEND
	.byte W01
	.byte c_v @ BEND
	.byte W01
	.byte c_v+3 @ BEND
	.byte W01
	.byte c_v+6 @ BEND
	.byte W01
	.byte c_v+10 @ BEND
	.byte W01
	.byte c_v+13 @ BEND
	.byte W01
	.byte c_v+16 @ BEND
	.byte W01
	.byte c_v+20 @ BEND
	.byte W01
	.byte c_v+23 @ BEND
	.byte W01
	.byte c_v+26 @ BEND
	.byte W01
	.byte c_v+30 @ BEND
	.byte W01
	.byte c_v+33 @ BEND
	.byte W01
	.byte c_v+36 @ BEND
	.byte W01
	.byte c_v+40 @ BEND
	.byte W01
	.byte c_v+43 @ BEND
	.byte W01
	.byte c_v+46 @ BEND
	.byte W01
	.byte c_v+50 @ BEND
	.byte W01
	.byte c_v+53 @ BEND
	.byte W08
	.byte W72
	.byte FINE

track_131_4:
	.byte KEYSH, 0
	.byte VOICE, 31
	.byte VOL, 62
	.byte PAN, c_v
	.byte N60, Fn2, v060
	.byte W01
	.byte VOL, 62
	.byte W01
	.byte 61 @ VOL
	.byte W01
	.byte 60 @ VOL
	.byte W01
	.byte 60 @ VOL
	.byte W01
	.byte 59 @ VOL
	.byte W01
	.byte 59 @ VOL
	.byte W01
	.byte 58 @ VOL
	.byte W01
	.byte 57 @ VOL
	.byte W01
	.byte 56 @ VOL
	.byte W01
	.byte 56 @ VOL
	.byte W01
	.byte 55 @ VOL
	.byte W01
	.byte 55 @ VOL
	.byte W01
	.byte 54 @ VOL
	.byte W01
	.byte 53 @ VOL
	.byte W01
	.byte 52 @ VOL
	.byte W01
	.byte 51 @ VOL
	.byte W01
	.byte 51 @ VOL
	.byte W01
	.byte 51 @ VOL
	.byte W01
	.byte 50 @ VOL
	.byte W01
	.byte 49 @ VOL
	.byte W01
	.byte 48 @ VOL
	.byte W01
	.byte 48 @ VOL
	.byte W01
	.byte 48 @ VOL
	.byte W01
	.byte 47 @ VOL
	.byte W01
	.byte 46 @ VOL
	.byte W01
	.byte 45 @ VOL
	.byte W01
	.byte 44 @ VOL
	.byte W01
	.byte 44 @ VOL
	.byte W01
	.byte 43 @ VOL
	.byte W01
	.byte 43 @ VOL
	.byte W01
	.byte 42 @ VOL
	.byte W01
	.byte 41 @ VOL
	.byte W01
	.byte 40 @ VOL
	.byte W01
	.byte 40 @ VOL
	.byte W01
	.byte 39 @ VOL
	.byte W01
	.byte 39 @ VOL
	.byte W01
	.byte 38 @ VOL
	.byte W01
	.byte 37 @ VOL
	.byte W01
	.byte 37 @ VOL
	.byte W01
	.byte 36 @ VOL
	.byte W01
	.byte 35 @ VOL
	.byte W01
	.byte 34 @ VOL
	.byte W01
	.byte 34 @ VOL
	.byte W01
	.byte 33 @ VOL
	.byte W01
	.byte 33 @ VOL
	.byte W01
	.byte 32 @ VOL
	.byte W01
	.byte 31 @ VOL
	.byte W01
	.byte 30 @ VOL
	.byte W01
	.byte 30 @ VOL
	.byte W01
	.byte 29 @ VOL
	.byte W01
	.byte 29 @ VOL
	.byte W01
	.byte 28 @ VOL
	.byte W01
	.byte 27 @ VOL
	.byte W01
	.byte 26 @ VOL
	.byte W01
	.byte 25 @ VOL
	.byte W01
	.byte 25 @ VOL
	.byte W01
	.byte 25 @ VOL
	.byte W01
	.byte 24 @ VOL
	.byte W01
	.byte 23 @ VOL
	.byte W36
	.byte W01
	.byte W72
	.byte FINE

track_131_5:
	.byte KEYSH, 0
	.byte VOICE, 28
	.byte VOL, 39
	.byte PAN, c_v
	.byte BENDR, 16
	.byte BEND, c_v+63
	.byte TIE, Fn2, v032
	.byte W01
	.byte VOL, 38
	.byte BEND, c_v+60
	.byte W01
	.byte VOL, 38
	.byte BEND, c_v+58
	.byte W01
	.byte VOL, 37
	.byte BEND, c_v+56
	.byte W01
	.byte VOL, 37
	.byte BEND, c_v+54
	.byte W01
	.byte VOL, 37
	.byte BEND, c_v+51
	.byte W01
	.byte VOL, 37
	.byte BEND, c_v+49
	.byte W01
	.byte VOL, 36
	.byte BEND, c_v+47
	.byte W01
	.byte VOL, 36
	.byte BEND, c_v+45
	.byte W01
	.byte VOL, 35
	.byte BEND, c_v+43
	.byte W01
	.byte VOL, 35
	.byte BEND, c_v+40
	.byte W01
	.byte VOL, 34
	.byte BEND, c_v+38
	.byte W01
	.byte VOL, 34
	.byte BEND, c_v+36
	.byte W01
	.byte VOL, 33
	.byte BEND, c_v+34
	.byte W01
	.byte VOL, 33
	.byte BEND, c_v+32
	.byte W01
	.byte VOL, 33
	.byte BEND, c_v+29
	.byte W01
	.byte VOL, 33
	.byte BEND, c_v+27
	.byte W01
	.byte VOL, 32
	.byte BEND, c_v+25
	.byte W01
	.byte VOL, 32
	.byte BEND, c_v+23
	.byte W01
	.byte VOL, 31
	.byte BEND, c_v+21
	.byte W01
	.byte VOL, 30
	.byte BEND, c_v+18
	.byte W01
	.byte VOL, 30
	.byte BEND, c_v+16
	.byte W01
	.byte VOL, 29
	.byte BEND, c_v+14
	.byte W01
	.byte VOL, 29
	.byte BEND, c_v+12
	.byte W01
	.byte VOL, 29
	.byte BEND, c_v+9
	.byte W01
	.byte VOL, 29
	.byte BEND, c_v+7
	.byte W01
	.byte VOL, 28
	.byte BEND, c_v+5
	.byte W01
	.byte VOL, 28
	.byte BEND, c_v+3
	.byte W01
	.byte VOL, 27
	.byte BEND, c_v+1
	.byte W01
	.byte VOL, 27
	.byte BEND, c_v-2
	.byte W01
	.byte VOL, 26
	.byte BEND, c_v-4
	.byte W01
	.byte VOL, 26
	.byte BEND, c_v-6
	.byte W01
	.byte VOL, 25
	.byte BEND, c_v-8
	.byte W01
	.byte VOL, 25
	.byte BEND, c_v-10
	.byte W01
	.byte VOL, 25
	.byte BEND, c_v-13
	.byte W01
	.byte VOL, 25
	.byte BEND, c_v-15
	.byte W01
	.byte VOL, 24
	.byte BEND, c_v-17
	.byte W01
	.byte VOL, 24
	.byte BEND, c_v-19
	.byte W01
	.byte VOL, 23
	.byte BEND, c_v-21
	.byte W01
	.byte VOL, 22
	.byte BEND, c_v-24
	.byte W01
	.byte VOL, 22
	.byte BEND, c_v-26
	.byte W01
	.byte VOL, 22
	.byte BEND, c_v-28
	.byte W01
	.byte VOL, 22
	.byte BEND, c_v-30
	.byte W01
	.byte VOL, 21
	.byte BEND, c_v-33
	.byte W01
	.byte VOL, 21
	.byte BEND, c_v-35
	.byte W01
	.byte VOL, 20
	.byte BEND, c_v-37
	.byte W01
	.byte VOL, 20
	.byte BEND, c_v-39
	.byte W01
	.byte VOL, 19
	.byte BEND, c_v-41
	.byte W01
	.byte VOL, 19
	.byte BEND, c_v-44
	.byte W01
	.byte VOL, 18
	.byte BEND, c_v-46
	.byte W01
	.byte VOL, 18
	.byte BEND, c_v-48
	.byte W01
	.byte VOL, 18
	.byte BEND, c_v-50
	.byte W01
	.byte VOL, 18
	.byte BEND, c_v-52
	.byte W01
	.byte VOL, 17
	.byte BEND, c_v-55
	.byte W01
	.byte VOL, 17
	.byte BEND, c_v-57
	.byte W01
	.byte VOL, 16
	.byte BEND, c_v-59
	.byte W01
	.byte VOL, 16
	.byte BEND, c_v-61
	.byte W01
	.byte VOL, 15
	.byte BEND, c_v-63
	.byte W02
	.byte VOL, 62
	.byte BEND, c_v-63
	.byte W01
	.byte VOL, 62
	.byte W01
	.byte 61 @ VOL
	.byte BEND, c_v-61
	.byte W01
	.byte VOL, 59
	.byte BEND, c_v-59
	.byte W01
	.byte VOL, 58
	.byte BEND, c_v-57
	.byte W01
	.byte VOL, 56
	.byte BEND, c_v-54
	.byte W01
	.byte VOL, 55
	.byte BEND, c_v-52
	.byte W01
	.byte VOL, 53
	.byte BEND, c_v-49
	.byte W01
	.byte VOL, 52
	.byte BEND, c_v-47
	.byte W01
	.byte VOL, 50
	.byte BEND, c_v-44
	.byte W01
	.byte VOL, 48
	.byte BEND, c_v-42
	.byte W01
	.byte VOL, 48
	.byte BEND, c_v-40
	.byte W01
	.byte VOL, 46
	.byte BEND, c_v-37
	.byte W01
	.byte VOL, 44
	.byte BEND, c_v-35
	.byte W01
	.byte VOL, 43
	.byte BEND, c_v-32
	.byte W01
	.byte VOL, 41
	.byte BEND, c_v-30
	.byte W01
	.byte VOL, 40
	.byte BEND, c_v-27
	.byte W01
	.byte VOL, 40
	.byte BEND, c_v-25
	.byte W01
	.byte VOL, 38
	.byte BEND, c_v-23
	.byte W01
	.byte VOL, 37
	.byte BEND, c_v-20
	.byte W01
	.byte VOL, 35
	.byte BEND, c_v-18
	.byte W01
	.byte VOL, 34
	.byte BEND, c_v-15
	.byte W01
	.byte VOL, 33
	.byte BEND, c_v-13
	.byte W01
	.byte VOL, 32
	.byte BEND, c_v-10
	.byte W01
	.byte VOL, 30
	.byte BEND, c_v-8
	.byte W01
	.byte c_v-6 @ BEND
	.byte W01
	.byte VOL, 29
	.byte BEND, c_v-3
	.byte W01
	.byte VOL, 27
	.byte BEND, c_v-1
	.byte W01
	.byte c_v+2 @ BEND
	.byte W01
	.byte VOL, 25
	.byte BEND, c_v+4
	.byte W01
	.byte c_v+7 @ BEND
	.byte W01
	.byte VOL, 24
	.byte BEND, c_v+9
	.byte W01
	.byte VOL, 23
	.byte BEND, c_v+11
	.byte W01
	.byte VOL, 22
	.byte BEND, c_v+14
	.byte W01
	.byte VOL, 22
	.byte BEND, c_v+16
	.byte W01
	.byte VOL, 21
	.byte BEND, c_v+19
	.byte W01
	.byte VOL, 20
	.byte BEND, c_v+21
	.byte W01
	.byte VOL, 19
	.byte BEND, c_v+24
	.byte W01
	.byte c_v+26 @ BEND
	.byte W01
	.byte VOL, 18
	.byte BEND, c_v+28
	.byte W01
	.byte c_v+31 @ BEND
	.byte W01
	.byte VOL, 16
	.byte BEND, c_v+33
	.byte W01
	.byte c_v+36 @ BEND
	.byte W01
	.byte VOL, 15
	.byte BEND, c_v+38
	.byte W01
	.byte VOL, 14
	.byte BEND, c_v+41
	.byte W01
	.byte c_v+43 @ BEND
	.byte W01
	.byte VOL, 14
	.byte BEND, c_v+45
	.byte W01
	.byte VOL, 13
	.byte BEND, c_v+48
	.byte W01
	.byte c_v+50 @ BEND
	.byte W01
	.byte VOL, 12
	.byte BEND, c_v+53
	.byte W01
	.byte VOL, 11
	.byte BEND, c_v+55
	.byte W01
	.byte c_v+58 @ BEND
	.byte W01
	.byte VOL, 11
	.byte BEND, c_v+60
	.byte W01
	.byte VOL, 10
	.byte BEND, c_v+63
	.byte W03
	.byte VOL, 8
	.byte W04
	.byte 7 @ VOL
	.byte W03
	.byte 6 @ VOL
	.byte W01
	.byte 5 @ VOL
	.byte W04
	.byte 4 @ VOL
	.byte W01
	.byte 3 @ VOL
	.byte W04
	.byte 2 @ VOL
	.byte W06
	.byte 1 @ VOL
	.byte W01
	.byte 0 @ VOL
	.byte W03
	.byte 0 @ VOL
	.byte W02
	.byte EOT @ Fn2, v032
	.byte W24
	.byte FINE

.align 2

track_131:
	.byte 6
	.byte 0
	.byte 255
	.byte 198
	.word voice_group1
	.word track_131_0
	.word track_131_1
	.word track_131_2
	.word track_131_3
	.word track_131_4
	.word track_131_5

.align 2
