.include "audio/m_play_def.s"

.align 2

.section .rodata
.global track_20

track_20_0:
	.byte KEYSH, 0
	.byte TEMPO, 69
	.byte VOICE, 46
	.byte VOL, 75
	.byte PAN, c_v
	.byte TIE
	.byte As1, Gs5
	.byte W48
	.byte TIE
	.byte Fn2, En7
	.byte W48
	.byte TIE
	.byte As2, Gs7
	.byte W96
	.byte EOT, As1
	.byte Fn2
	.byte W24
	.byte As2
	.byte VOICE, 59
	.byte VOL, 15
	.byte PAN, c_v-22
	.byte W42
	.byte N01
	.byte Gs6, Cn1
	.byte W06
	.byte Cn6
	.byte W06
	.byte Gn6
	.byte W06
	.byte As5
	.byte W06
	.byte En6
	.byte W06
	.byte Cn7
	.byte W06
	.byte Cs7
	.byte W06
	.byte Dn6
	.byte W06
	.byte Fs6
	.byte W06
	.byte Fn6
	.byte W06
	.byte An5
	.byte W06
	.byte Fn5
	.byte W06
	.byte As6
	.byte W54
	.byte W36
	.byte Ds6
	.byte W06
	.byte Dn6
	.byte W06
	.byte Gs6
	.byte W06
	.byte As5
	.byte W06
	.byte Dn6
	.byte W06
	.byte Gn6
	.byte W06
	.byte N01
	.byte W06
	.byte Dn7
	.byte W06
	.byte En6
	.byte W06
	.byte Gs6
	.byte W06
	.byte Cn6
	.byte W06
	.byte Ds6
	.byte W90
	.byte W96
	.byte W96
	.byte W96
	.byte W96
	.byte W96
	.byte W96
	.byte W96
	.byte W96
	.byte W24
	.byte VOICE, 74
	.byte VOL, 80
	.byte PAN, c_v-17
	.byte TIE
	.byte Dn2, En6
	.byte W72
	.byte W48
	.byte EOT
	.byte W48
	.byte W24
	.byte TIE
	.byte Cs2
	.byte W72
	.byte W48
	.byte EOT
	.byte W48
	.byte W24
	.byte TIE
	.byte Fn2
	.byte W72
	.byte W48
	.byte EOT
	.byte W48
	.byte W24
	.byte TIE
	.byte En2
	.byte W72
	.byte W48
	.byte TEMPO, 40
	.byte W24
	.byte EOT
	.byte W24
	.byte W48
track_20_lbl_22f9ae:
	.byte W48
	.byte W96
	.byte W96
	.byte W96
	.byte W96
	.byte W96
	.byte W96
	.byte W96
	.byte W48
	.byte GOTO
		.word track_20_lbl_22f9ae

	.byte FINE

track_20_1:
	.byte KEYSH, 0
	.byte VOICE, 46
	.byte VOL, 75
	.byte PAN, c_v
	.byte TIE
	.byte Ds1, Gs5
	.byte W48
	.byte TIE
	.byte As1, En7
	.byte W48
	.byte TIE
	.byte Ds2, Gs7
	.byte W96
	.byte EOT, Ds1
	.byte As1
	.byte W24
	.byte Ds2
	.byte VOICE, 59
	.byte VOL, 18
	.byte PAN, c_v+20
	.byte W72
	.byte N01
	.byte Dn5, En1
	.byte W01
	.byte An4
	.byte W02
	.byte Gn5
	.byte W01
	.byte Cs5
	.byte W02
	.byte Ds5
	.byte W01
	.byte An4
	.byte W02
	.byte Fn4
	.byte W01
	.byte Dn5
	.byte W02
	.byte Gs4
	.byte W01
	.byte Cs5
	.byte W02
	.byte Gn4
	.byte W01
	.byte As4
	.byte W02
	.byte An4
	.byte W01
	.byte Fn5
	.byte W02
	.byte Ds5
	.byte W01
	.byte Cn5
	.byte W02
	.byte Gs4
	.byte W01
	.byte Gn5
	.byte W02
	.byte An4
	.byte W01
	.byte Fn4
	.byte W02
	.byte Ds5
	.byte W24
	.byte Fs4
	.byte W01
	.byte Gs4
	.byte W02
	.byte Gn4
	.byte W01
	.byte Cs4
	.byte W02
	.byte Ds4
	.byte W01
	.byte Fn4
	.byte W02
	.byte Dn4
	.byte W01
	.byte An4
	.byte W02
	.byte Ds4
	.byte N01
	.byte En4
	.byte W01
	.byte Gs4
	.byte W02
	.byte Cn5
	.byte W01
	.byte Cn4
	.byte W02
	.byte Fs4
	.byte W01
	.byte An4
	.byte W02
	.byte Fs4
	.byte W01
	.byte Cn5
	.byte W02
	.byte Fn4
	.byte W01
	.byte Gn4
	.byte W02
	.byte Ds4
	.byte W01
	.byte Cs5
	.byte W14
	.byte W36
	.byte W01
	.byte Ds5
	.byte W02
	.byte Ds4
	.byte W01
	.byte An4
	.byte W02
	.byte Cs4
	.byte W01
	.byte Gn4
	.byte W02
	.byte Fn4
	.byte W01
	.byte Gn5
	.byte W02
	.byte Fs4
	.byte W01
	.byte Gn4
	.byte N01
	.byte An4
	.byte W02
	.byte Cn4
	.byte N01
	.byte Dn4
	.byte W01
	.byte Gs5
	.byte W02
	.byte Cs4
	.byte W01
	.byte Cs5
	.byte W02
	.byte Fs4
	.byte W24
	.byte W01
	.byte N01
	.byte W02
	.byte Bn4
	.byte W01
	.byte Cn4
	.byte W02
	.byte Gn4
	.byte W01
	.byte Ds5
	.byte W02
	.byte Gs4
	.byte W01
	.byte Gn3
	.byte W02
	.byte En5
	.byte N01
	.byte Fn5
	.byte W01
	.byte Ds4
	.byte W02
	.byte As5
	.byte W01
	.byte En4
	.byte W02
	.byte Fs4
	.byte W01
	.byte Gs4
	.byte W02
	.byte Cn5
	.byte W01
	.byte Cn4
	.byte W02
	.byte Fs4
	.byte W01
	.byte En4
	.byte W02
	.byte Ds5
	.byte W01
	.byte Ds4
	.byte W02
	.byte Fn4
	.byte W01
	.byte Dn5
	.byte W02
	.byte En4
	.byte W54
	.byte Ds5
	.byte W01
	.byte N01
	.byte W02
	.byte Ds4
	.byte W01
	.byte Gn4
	.byte W02
	.byte Dn4
	.byte W01
	.byte Dn5
	.byte W02
	.byte Fs4
	.byte W01
	.byte Bn5
	.byte W02
	.byte Cs5
	.byte W01
	.byte Dn5
	.byte W02
	.byte Cn5
	.byte W01
	.byte Cn6
	.byte W02
	.byte Gn4
	.byte W01
	.byte Cs5
	.byte W02
	.byte Ds5
	.byte W01
	.byte Gs4
	.byte W02
	.byte Bn4
	.byte W01
	.byte Bn3
	.byte W02
	.byte Ds4
	.byte W01
	.byte As3
	.byte W02
	.byte Gs4
	.byte W01
	.byte Fn4
	.byte N01
	.byte Gn4
	.byte W02
	.byte Dn5
	.byte W01
	.byte Fs4
	.byte W02
	.byte Fn5
	.byte W01
	.byte Gs4
	.byte W80
	.byte W03
	.byte W96
	.byte W96
	.byte W96
	.byte W96
	.byte W96
	.byte W96
	.byte W96
	.byte VOICE, 74
	.byte VOL, 80
	.byte PAN, c_v+15
	.byte TIE
	.byte Gn1, Gn8
	.byte W96
	.byte W24
	.byte EOT
	.byte W72
	.byte TIE
	.byte W96
	.byte W24
	.byte EOT
	.byte W72
	.byte TIE
	.byte W96
	.byte W24
	.byte EOT
	.byte W72
	.byte TIE
	.byte W96
	.byte W24
	.byte EOT
	.byte W72
	.byte W48
track_20_lbl_22fadf:
	.byte W48
	.byte W96
	.byte W96
	.byte W96
	.byte W96
	.byte W96
	.byte W96
	.byte W96
	.byte W48
	.byte GOTO
		.word track_20_lbl_22fadf

	.byte FINE

track_20_2:
	.byte KEYSH, 0
	.byte W96
	.byte W96
	.byte W96
	.byte W96
	.byte W96
	.byte W96
	.byte W24
	.byte VOICE, 67
	.byte VOL, 62
	.byte PAN, c_v
	.byte N92
	.byte Cn3, Gn8
	.byte W72
	.byte W24
	.byte N92
	.byte W72
	.byte W24
	.byte VOICE, 68
	.byte N92
	.byte W72
	.byte W24
	.byte N92
	.byte W72
	.byte W24
	.byte VOICE, 69
	.byte N92
	.byte W72
	.byte W24
	.byte N92
	.byte W72
	.byte W24
	.byte VOICE, 70
	.byte TIE
	.byte W72
	.byte W72
	.byte EOT
	.byte W24
	.byte W96
	.byte W96
	.byte W96
	.byte W96
	.byte W96
	.byte W96
	.byte W96
	.byte W96
	.byte W48
track_20_lbl_22fb25:
	.byte W48
	.byte W96
	.byte W96
	.byte W96
	.byte W96
	.byte W96
	.byte W96
	.byte W96
	.byte W48
	.byte GOTO
		.word track_20_lbl_22fb25

	.byte FINE

track_20_3:
	.byte KEYSH, 0
	.byte W96
	.byte W96
	.byte W24
	.byte VOICE, 22
	.byte VOL, 15
	.byte PAN, c_v
	.byte W48
	.byte N06
	.byte Fs5, En0
	.byte W24
	.byte W24
	.byte N06
	.byte W48
	.byte N06
	.byte W24
	.byte N06
	.byte W24
	.byte N06
	.byte W24
	.byte N06
	.byte W48
	.byte W96
	.byte W96
	.byte W22
	.byte VOICE, 25
	.byte VOL, 80
	.byte PAN, c_v
	.byte N48
	.byte Cn3, Gn8
	.byte W72
	.byte W02
	.byte W22
	.byte N48
	.byte W72
	.byte W02
	.byte W22
	.byte N48
	.byte W72
	.byte W02
	.byte W22
	.byte N48
	.byte W72
	.byte W02
	.byte W22
	.byte N48
	.byte W72
	.byte W02
	.byte W24
	.byte N48
	.byte W72
	.byte W96
	.byte W96
	.byte W96
	.byte W96
	.byte W96
	.byte W96
	.byte W96
	.byte W96
	.byte W96
	.byte W48
track_20_lbl_22fb7a:
	.byte W48
	.byte W96
	.byte W96
	.byte W96
	.byte W96
	.byte W96
	.byte W96
	.byte W96
	.byte W48
	.byte GOTO
		.word track_20_lbl_22fb7a

	.byte FINE

track_20_4:
	.byte KEYSH, 0
	.byte W96
	.byte W96
	.byte W24
	.byte VOICE, 14
	.byte VOL, 75
	.byte PAN, c_v-17
	.byte N96
	.byte Dn3, En6
	.byte W72
	.byte W60
	.byte N96
	.byte W36
	.byte W96
	.byte W36
	.byte N84
	.byte W60
	.byte W24
	.byte VOICE, 23
	.byte VOL, 69
	.byte PAN, c_v
	.byte N12
	.byte Cn2, Gs4
	.byte W12
	.byte N06
	.byte Cs2, Cn5
	.byte W12
	.byte Gn2, En5
	.byte W12
	.byte Fs2, Gs5
	.byte W12
	.byte N12
	.byte Cs2
	.byte W12
	.byte N06
	.byte Dn2, Cn6
	.byte W12
	.byte Gs2, En6
	.byte W12
	.byte Gn2, Gs6
	.byte W12
	.byte N12
	.byte Dn2, Cn7
	.byte W12
	.byte N06
	.byte Ds2
	.byte W12
	.byte An2, En7
	.byte W12
	.byte Gs2, Gs7
	.byte W12
	.byte N12
	.byte Ds2, Cn8
	.byte W12
	.byte N06
	.byte En2
	.byte W12
	.byte As2, En8
	.byte W12
	.byte An2, Gn8
	.byte W12
	.byte N12
	.byte Fn2, Gs4
	.byte W12
	.byte N06
	.byte Fs2, Cn5
	.byte W12
	.byte Cn3, En5
	.byte W12
	.byte Bn2, Gs5
	.byte W12
	.byte N12
	.byte Fs2
	.byte W12
	.byte N06
	.byte Gn2, Cn6
	.byte W12
	.byte Cs3, En6
	.byte W12
	.byte Cn3, Gs6
	.byte W12
	.byte N12
	.byte Gn2, Cn7
	.byte W12
	.byte N06
	.byte Gs2
	.byte W12
	.byte Dn3, En7
	.byte W12
	.byte Cs3, Gs7
	.byte W12
	.byte N12
	.byte Gs2, Cn8
	.byte W12
	.byte N06
	.byte An2
	.byte W12
	.byte Ds3, En8
	.byte W12
	.byte Dn3, Gn8
	.byte W12
	.byte N12
	.byte As2, Gs4
	.byte W12
	.byte N06
	.byte Bn2, Cn5
	.byte W12
	.byte Fn3, En5
	.byte W12
	.byte En3, Gs5
	.byte W12
	.byte N12
	.byte As2
	.byte W12
	.byte N06
	.byte Bn2, Cn6
	.byte W12
	.byte Fn3, En6
	.byte W12
	.byte En3, Gs6
	.byte W12
	.byte N12
	.byte As2, Cn7
	.byte W12
	.byte N06
	.byte Bn2
	.byte W12
	.byte Fn3, En7
	.byte W12
	.byte En3, Gs7
	.byte W12
	.byte N12
	.byte As2, Cn8
	.byte W12
	.byte N06
	.byte Bn2
	.byte W12
	.byte Fn3, En8
	.byte W12
	.byte En3, Gn8
	.byte W84
	.byte W96
	.byte W96
	.byte W96
	.byte W96
	.byte W96
	.byte W96
	.byte W96
	.byte W96
	.byte W96
	.byte W48
track_20_lbl_22fc4f:
	.byte W48
	.byte W96
	.byte W96
	.byte W96
	.byte W96
	.byte W96
	.byte W96
	.byte W96
	.byte W48
	.byte GOTO
		.word track_20_lbl_22fc4f

	.byte FINE

track_20_5:
	.byte KEYSH, 0
	.byte W96
	.byte W96
	.byte W24
	.byte VOICE, 19
	.byte VOL, 37
	.byte PAN, c_v+15
	.byte N96
	.byte AsM1, Gs5
	.byte W72
	.byte W60
	.byte N96
	.byte W36
	.byte W96
	.byte W36
	.byte N84
	.byte W60
	.byte W24
	.byte VOICE, 13
	.byte VOL, 50
	.byte PAN, c_v+20
	.byte N36
	.byte An4, Cn4
	.byte W48
	.byte N42
	.byte As4, Gs4
	.byte W24
	.byte W24
	.byte N36
	.byte An4
	.byte W48
	.byte N42
	.byte Gs4, Cn4
	.byte W24
	.byte W24
	.byte N36
	.byte W48
	.byte N42
	.byte An4, Gs4
	.byte W24
	.byte W24
	.byte N36
	.byte Gs4
	.byte W48
	.byte N42
	.byte Gn4, Cn4
	.byte W24
	.byte W24
	.byte TIE
	.byte As4, Gs6
	.byte W72
	.byte W96
	.byte W24
	.byte EOT
	.byte W72
	.byte W96
	.byte W96
	.byte W96
	.byte W96
	.byte W96
	.byte W96
	.byte W96
	.byte W96
	.byte W96
	.byte W48
track_20_lbl_22fcad:
	.byte N96
	.byte Gn2, Gs6
	.byte W48
	.byte W44
	.byte Gs2, Cn6
	.byte W52
	.byte W48
	.byte Gn2, Gs6
	.byte W48
	.byte W48
	.byte Fs2
	.byte W48
	.byte W48
	.byte TIE
	.byte Gn2
	.byte W48
	.byte W96
	.byte W48
	.byte EOT
	.byte W48
	.byte W96
	.byte W48
	.byte GOTO
		.word track_20_lbl_22fcad

	.byte FINE

track_20_6:
	.byte KEYSH, 0
	.byte W96
	.byte W96
	.byte W24
	.byte VOICE, 0
	.byte VOL, 75
	.byte PAN, c_v
	.byte TIE
	.byte Cn2, Cn8
	.byte W72
	.byte W96
	.byte W96
	.byte W96
	.byte W24
	.byte EOT
	.byte VOICE, 13
	.byte VOL, 56
	.byte PAN, c_v-22
	.byte N36
	.byte Fs4, Cn4
	.byte W48
	.byte N42
	.byte Gn4, Gs4
	.byte W24
	.byte W24
	.byte N36
	.byte Fs4
	.byte W48
	.byte N42
	.byte Fn4, Cn4
	.byte W24
	.byte W24
	.byte N36
	.byte W48
	.byte N42
	.byte Fs4, Gs4
	.byte W24
	.byte W24
	.byte N36
	.byte Fn4
	.byte W48
	.byte N42
	.byte En4, Cn4
	.byte W24
	.byte W24
	.byte TIE
	.byte Gn4, Gs5
	.byte W72
	.byte W96
	.byte W24
	.byte EOT
	.byte W72
	.byte W96
	.byte W96
	.byte W96
	.byte W96
	.byte W96
	.byte W96
	.byte W96
	.byte W96
	.byte W96
	.byte W48
track_20_lbl_22fd18:
	.byte VOICE, 71
	.byte VOL, 18
	.byte N96
	.byte Gn4, Gs6
	.byte W48
	.byte W44
	.byte Gs4, Cn6
	.byte W52
	.byte W48
	.byte Gn4, Gs6
	.byte W48
	.byte W48
	.byte Fs4
	.byte W48
	.byte W48
	.byte TIE
	.byte Gn4
	.byte W48
	.byte W96
	.byte W48
	.byte EOT
	.byte W48
	.byte W96
	.byte W48
	.byte GOTO
		.word track_20_lbl_22fd18

	.byte FINE

track_20_7:
	.byte KEYSH, 0
	.byte W96
	.byte W96
	.byte W96
	.byte W96
	.byte W96
	.byte W96
	.byte W96
	.byte W96
	.byte W96
	.byte W96
	.byte W96
	.byte W96
	.byte W96
	.byte W96
	.byte W96
	.byte W96
	.byte W96
	.byte W96
	.byte W96
	.byte W96
	.byte W96
	.byte W96
	.byte W48
track_20_lbl_22fd54:
	.byte VOICE, 72
	.byte VOL, 56
	.byte PAN, c_v
	.byte N72
	.byte En3, Cn3
	.byte N72
	.byte Gn3
	.byte N72
	.byte Cn4
	.byte W48
	.byte W48
	.byte Ds3, Cn4
	.byte N72
	.byte Gs3
	.byte N72
	.byte Cn4
	.byte W48
	.byte W48
	.byte En3
	.byte N72
	.byte Gn3
	.byte N72
	.byte Cn4
	.byte W48
	.byte W48
	.byte Ds3, Cn3
	.byte N72
	.byte Fs3
	.byte N72
	.byte Cn4
	.byte W48
	.byte W48
	.byte En3
	.byte N72
	.byte Gn3
	.byte N72
	.byte Cn4
	.byte W48
	.byte W96
	.byte W96
	.byte W96
	.byte W48
	.byte GOTO
		.word track_20_lbl_22fd54

	.byte FINE

track_20_8:
	.byte KEYSH, 0
	.byte W96
	.byte W96
	.byte W96
	.byte W96
	.byte W96
	.byte W96
	.byte W96
	.byte W96
	.byte W96
	.byte W96
	.byte W96
	.byte W96
	.byte W96
	.byte W96
	.byte W96
	.byte W96
	.byte W96
	.byte W96
	.byte W96
	.byte W96
	.byte W96
	.byte W96
	.byte VOICE, 27
	.byte VOL, 62
	.byte PAN, c_v
	.byte W48
track_20_lbl_22fda9:
	.byte N24
	.byte Cn2, Gs4
	.byte W48
	.byte N30
	.byte Cn2, Cn6
	.byte W48
	.byte N28
	.byte Cn2, En6
	.byte W48
	.byte Cn2, Cn7
	.byte W48
	.byte N30
	.byte Cn2, Gs4
	.byte W48
	.byte N32
	.byte Cn2, En5
	.byte W48
	.byte N30
	.byte Cn2, Gs5
	.byte W48
	.byte N24
	.byte Cn2, Cn6
	.byte W48
	.byte Cn2, Gs6
	.byte W48
	.byte Cn2, Cn7
	.byte W48
	.byte Cn2, Gs4
	.byte W48
	.byte Cn2, En5
	.byte W48
	.byte N28
	.byte Cn2, Gs5
	.byte W48
	.byte Cn2, Cn6
	.byte W48
	.byte N30
	.byte Cn2, Gs6
	.byte W48
	.byte Cn2, Cn7
	.byte W48
	.byte GOTO
		.word track_20_lbl_22fda9

	.byte FINE

.align 2

track_20:
	.byte 9
	.byte 0
	.byte 130
	.byte 0
	.word voice_group0
	.word track_20_0
	.word track_20_1
	.word track_20_2
	.word track_20_3
	.word track_20_4
	.word track_20_5
	.word track_20_6
	.word track_20_7
	.word track_20_8

.align 2
