.include "audio/m_play_def.s"

.align 2

.section .rodata
.global track_176

track_176_0:
	.byte KEYSH, 0
	.byte TEMPO, 75
	.byte VOICE, 0
	.byte VOL, 100
	.byte PAN, c_v+16
	.byte PRIO, 1
	.byte N24
	.byte Cn3, Cn3
	.byte W02
	.byte VOL, 99
	.byte W02
	.byte Cs6
	.byte W02
	.byte Bn5
	.byte W02
	.byte An5
	.byte W02
	.byte Gn5
	.byte W02
	.byte Ds5
	.byte W02
	.byte Cs5
	.byte W02
	.byte Gn4
	.byte W02
	.byte Dn4
	.byte W02
	.byte Gn3
	.byte W02
	.byte Gs2
	.byte W01
	.byte Ds2
	.byte W01
	.byte En6
	.byte N24
	.byte En3, Gs4
	.byte W02
	.byte VOL, 99
	.byte W02
	.byte Cs6
	.byte W02
	.byte Cn6
	.byte W02
	.byte Bn5
	.byte W02
	.byte Gs5
	.byte W02
	.byte Fn5
	.byte W02
	.byte Dn5
	.byte W02
	.byte As4
	.byte W02
	.byte Ds4
	.byte W02
	.byte Gn3
	.byte W02
	.byte An2
	.byte W01
	.byte Cs2
	.byte W01
	.byte En6
	.byte N24
	.byte Dn3, En6
	.byte W02
	.byte VOL, 99
	.byte W02
	.byte Cs6
	.byte W02
	.byte Bn5
	.byte W02
	.byte An5
	.byte W02
	.byte Fs5
	.byte W02
	.byte Ds5
	.byte W02
	.byte Bn4
	.byte W02
	.byte Gn4
	.byte W02
	.byte Cs4
	.byte W02
	.byte Fn3
	.byte W02
	.byte Gn2
	.byte W01
	.byte Cs2
	.byte W01
	.byte Gs4
	.byte N36
	.byte An2
	.byte W16
	.byte VOL, 77
	.byte W02
	.byte Cs4
	.byte W02
	.byte An3
	.byte W02
	.byte Fn3
	.byte W02
	.byte Bn2
	.byte W02
	.byte Fn2
	.byte W02
	.byte Bn1
	.byte W02
	.byte Dn1
	.byte W02
	.byte Ds0
	.byte W02
	.byte DsM1
	.byte W02
	.byte CnM2
	.byte W01
	.byte Gs4
	.byte PRIO, 0
	.byte N28
	.byte Fn3, Gs0
	.byte W80
	.byte W03

	.byte FINE

track_176_1:
	.byte KEYSH, 0
	.byte VOICE, 0
	.byte VOL, 100
	.byte PAN, c_v+16
	.byte W12
	.byte VOL, 100
	.byte N24
	.byte An2, GsM1
	.byte W02
	.byte VOL, 99
	.byte W04
	.byte Cs6
	.byte W04
	.byte Bn5
	.byte W02
	.byte An5
	.byte W02
	.byte Gn5
	.byte W02
	.byte Ds5
	.byte W02
	.byte Bn4
	.byte W02
	.byte Fn4
	.byte W02
	.byte Cn4
	.byte W01
	.byte As3
	.byte W01
	.byte En6
	.byte N24
	.byte Cn3, Cn3
	.byte W02
	.byte VOL, 99
	.byte W04
	.byte Dn6
	.byte W02
	.byte Cs6
	.byte W02
	.byte Cn6
	.byte W02
	.byte Bn5
	.byte W02
	.byte An5
	.byte W02
	.byte Fs5
	.byte W02
	.byte Cs5
	.byte W02
	.byte An4
	.byte W02
	.byte Dn4
	.byte W01
	.byte As3
	.byte W01
	.byte En6
	.byte N24
	.byte Bn2, En1
	.byte W02
	.byte VOL, 99
	.byte W04
	.byte Dn6
	.byte W02
	.byte Cs6
	.byte W02
	.byte Cn6
	.byte W02
	.byte As5
	.byte W02
	.byte Gs5
	.byte W02
	.byte Fn5
	.byte W02
	.byte Cs5
	.byte W02
	.byte Gs4
	.byte W02
	.byte Dn4
	.byte W01
	.byte As3
	.byte W07
	.byte En6
	.byte W01
	.byte N30
	.byte Fn3, En6
	.byte W05
	.byte W96

	.byte FINE

track_176_2:
	.byte KEYSH, 0
	.byte VOICE, 5
	.byte VOL, 110
	.byte PAN, c_v+16
	.byte PRIO, 1
	.byte W96
	.byte W24
	.byte N04
	.byte Cn3, En6
	.byte W04
	.byte N13
	.byte Gs2, Cn8
	.byte W13
	.byte As2, Cn3
	.byte W08
	.byte VOL, 110
	.byte W01
	.byte Cs1
	.byte W01
	.byte EnM1
	.byte W01
	.byte FsM2
	.byte W01
	.byte CnM2
	.byte W42
	.byte W01

	.byte FINE

track_176_3:
	.byte KEYSH, 0
	.byte W96
	.byte VOICE, 4
	.byte VOL, 90
	.byte PAN, c_v+16
	.byte W40
	.byte W01
	.byte N13
	.byte En3, Gs4
	.byte W54
	.byte W01

	.byte FINE

track_176_4:
	.byte KEYSH, 0
	.byte VOICE, 4
	.byte VOL, 110
	.byte PAN, c_v+16
	.byte W96
	.byte W24
	.byte W01
	.byte N18
	.byte Cn3, En6
	.byte W68
	.byte W03

	.byte FINE

track_176_5:
	.byte KEYSH, 0
	.byte W96
	.byte VOICE, 6
	.byte VOL, 127
	.byte PAN, c_v+16
	.byte PRIO, 1
	.byte W28
	.byte N04
	.byte Gs2, En6
	.byte W04
	.byte N10
	.byte Fn2, Gn8
	.byte W64

	.byte FINE

.align 2

track_176:
	.byte 6
	.byte 0
	.byte 251
	.byte 0
	.word voice_group7
	.word track_176_0
	.word track_176_1
	.word track_176_2
	.word track_176_3
	.word track_176_4
	.word track_176_5

.align 2
