.align 2

.global track_77

track_77_0:
	.byte KEYSH, 0
	.byte TEMPO, 123
	.byte VOICE, 38
	.byte VOL, 85
	.byte PAN, c_v-10
	.byte PRIO, 120
	.byte N12
	.byte Ds3, Cn3
	.byte N12
	.byte Ds4
	.byte W12
	.byte Dn3
	.byte N12
	.byte Dn4
	.byte W12
	.byte Fs3, Gs4
	.byte N12
	.byte Fs4
	.byte W12
	.byte Fn3
	.byte N12
	.byte Fn4
	.byte W12
	.byte Ds3, En6
	.byte N12
	.byte Ds4
	.byte W12
	.byte Dn3
	.byte N12
	.byte Dn4
	.byte W12
	.byte Fs3, Cn8
	.byte N12
	.byte Fs4
	.byte W12
	.byte Fn3
	.byte N12
	.byte Fn4
	.byte W12
track_77_lbl_229231:
	.byte VOICE, 36
	.byte VOL, 70
	.byte PAN, c_v-34
	.byte BEND, c_v
	.byte N24
	.byte Cn5, En6
	.byte W36
	.byte N24
	.byte W36
	.byte N20
	.byte Cs5
	.byte W24
	.byte As4
	.byte W24
track_77_lbl_229244:
	.byte N24
	.byte Cn5, En6
	.byte W36
	.byte N24
	.byte W36
	.byte N20
	.byte Cs5
	.byte W24
	.byte As4
	.byte W24
	.byte PEND
	.byte PATT
		.word track_77_lbl_229244
	.byte PATT
		.word track_77_lbl_229244
	.byte PATT
		.word track_77_lbl_229244
	.byte PATT
		.word track_77_lbl_229244
	.byte PATT
		.word track_77_lbl_229244
	.byte PATT
		.word track_77_lbl_229244
	.byte N24
	.byte Ds5, En6
	.byte W36
	.byte N24
	.byte W36
	.byte N20
	.byte En5, Cn6
	.byte W24
	.byte Cs5
	.byte W24
	.byte N24
	.byte Ds5, Gs5
	.byte W36
	.byte N24
	.byte W36
	.byte N20
	.byte En5, En5
	.byte W24
	.byte Cs5
	.byte W24
	.byte N24
	.byte Ds5
	.byte W36
	.byte Ds5, Cn5
	.byte W36
	.byte N20
	.byte En5, Gs4
	.byte W24
	.byte Cs5
	.byte W24
	.byte N24
	.byte Ds5
	.byte W36
	.byte Ds5, En4
	.byte W36
	.byte N20
	.byte En5
	.byte W24
	.byte Cs5, Cn4
	.byte W24
track_77_lbl_22929e:
	.byte N24
	.byte Ds5, En6
	.byte W36
	.byte N24
	.byte W36
	.byte N20
	.byte En5
	.byte W24
	.byte Cs5
	.byte W24
	.byte PEND
	.byte PATT
		.word track_77_lbl_22929e
	.byte PATT
		.word track_77_lbl_22929e
	.byte PATT
		.word track_77_lbl_22929e
	.byte PATT
		.word track_77_lbl_229244
	.byte PATT
		.word track_77_lbl_229244
	.byte PATT
		.word track_77_lbl_229244
	.byte PATT
		.word track_77_lbl_229244
	.byte PATT
		.word track_77_lbl_229244
	.byte PATT
		.word track_77_lbl_229244
	.byte PATT
		.word track_77_lbl_229244
	.byte PATT
		.word track_77_lbl_229244
	.byte VOICE, 36
	.byte VOL, 70
	.byte W96
	.byte W96
	.byte W96
	.byte W72
	.byte W36
	.byte N24
	.byte Ds5, Cn5
	.byte W36
	.byte N20
	.byte En5, En5
	.byte W24
	.byte Cs5
	.byte W24
	.byte N24
	.byte Ds5, Gs5
	.byte W36
	.byte Ds5, Cn6
	.byte W36
	.byte N20
	.byte En5
	.byte W24
	.byte Cs5, En6
	.byte W24
	.byte PATT
		.word track_77_lbl_22929e
	.byte N24
	.byte Ds5, En6
	.byte W36
	.byte Ds5, Cn6
	.byte W36
	.byte N20
	.byte En5, En5
	.byte W24
	.byte Cs5, Cn5
	.byte W24
	.byte PATT
		.word track_77_lbl_229244
	.byte PATT
		.word track_77_lbl_229244
	.byte N24
	.byte Cn5, En6
	.byte W36
	.byte N24
	.byte W36
	.byte N20
	.byte Cs5, Cn6
	.byte W24
	.byte As4, Gs5
	.byte W24
	.byte N24
	.byte Cn5
	.byte W36
	.byte Cn5, En5
	.byte W36
	.byte N20
	.byte Cs5, Cn5
	.byte W24
	.byte As4
	.byte W24
	.byte VOICE, 2
	.byte PAN, c_v-10
	.byte VOL, 85
	.byte N48
	.byte As2, Cn8
	.byte W48
	.byte N24
	.byte An2
	.byte W24
track_77_lbl_229344:
	.byte N48
	.byte Fs2, Cn8
	.byte W48
	.byte N24
	.byte An2
	.byte W24
	.byte PEND
	.byte N48
	.byte As2
	.byte W48
	.byte N24
	.byte An2
	.byte W24
	.byte PATT
		.word track_77_lbl_229344
	.byte N48
	.byte Cs3, Gn8
	.byte W48
	.byte N24
	.byte Cn3
	.byte W24
	.byte N48
	.byte An2
	.byte W48
	.byte N24
	.byte Cn3
	.byte W24
	.byte N48
	.byte Ds3
	.byte W48
	.byte N08
	.byte Dn3
	.byte W08
	.byte Ds3
	.byte W08
	.byte Dn3
	.byte W08
	.byte N48
	.byte Fs3
	.byte W48
	.byte N08
	.byte Fn3
	.byte W08
	.byte Fs3
	.byte W08
	.byte Fn3
	.byte W08
	.byte VOICE, 38
	.byte VOL, 85
	.byte PAN, c_v-10
	.byte N12
	.byte Ds3, Cn3
	.byte N12
	.byte Ds4
	.byte W12
	.byte Dn3, Cn4
	.byte N12
	.byte Dn4
	.byte W12
	.byte Fs3, Gs4
	.byte N12
	.byte Fs4
	.byte W12
	.byte Fn3, Gs5
	.byte N12
	.byte Fn4
	.byte W12
	.byte Ds3
	.byte N12
	.byte Ds4
	.byte W12
	.byte Dn3
	.byte N12
	.byte Dn4
	.byte W12
	.byte Fs3, En7
	.byte N12
	.byte Fs4
	.byte W12
	.byte Fn3, Cn8
	.byte N12
	.byte Fn4
	.byte W12
	.byte GOTO
		.word track_77_lbl_229231

	.byte FINE

track_77_1:
	.byte KEYSH, 0
	.byte VOICE, 36
	.byte VOL, 70
	.byte PAN, c_v-14
	.byte PRIO, 119
	.byte N36
	.byte Ds4, En6
	.byte W36
	.byte Fs4, En7
	.byte W36
	.byte N24
	.byte An4, Gn8
	.byte W24
track_77_lbl_2293c0:
	.byte VOICE, 2
	.byte VOL, 85
	.byte PAN, c_v-14
	.byte BENDR, 20
	.byte N12
	.byte Cn4, Cn8
	.byte W12
	.byte Cn3
	.byte W12
	.byte Cn2, Gn8
	.byte W12
	.byte Cn1
	.byte W12
	.byte Cn2
	.byte W12
	.byte Cn3, Cn8
	.byte W12
	.byte Cs4
	.byte W12
	.byte Cs3
	.byte W12
	.byte As2
	.byte W12
	.byte As1, Gn8
	.byte W12
track_77_lbl_2293e1:
	.byte N12
	.byte Cn4, Cn8
	.byte W12
	.byte Cn3
	.byte W12
	.byte Cn2, Gn8
	.byte W12
	.byte Cn1
	.byte W12
	.byte Cn2
	.byte W12
	.byte Cn3, Cn8
	.byte W12
	.byte Cs4
	.byte W12
	.byte Cs3
	.byte W12
	.byte As2
	.byte W12
	.byte As1, Gn8
	.byte W12
	.byte PEND
	.byte PATT
		.word track_77_lbl_2293e1
	.byte PATT
		.word track_77_lbl_2293e1
track_77_lbl_229405:
	.byte VOICE, 4
	.byte VOL, 77
	.byte PAN, c_v
	.byte BEND, c_v
	.byte W96
	.byte W24
	.byte PEND
	.byte BENDR, 20
	.byte N12
	.byte Cn2, Cn4
	.byte W12
	.byte Fn2
	.byte W12
	.byte Gn2, Gs4
	.byte W12
	.byte Cn3
	.byte W12
	.byte Cn2, En6
	.byte W12
	.byte Fn2
	.byte W12
	.byte Gn2, Cn7
	.byte W12
	.byte Cn3, En7
	.byte W12
	.byte Cn2
	.byte W12
	.byte Fn2
	.byte W12
	.byte Gn2
	.byte W12
	.byte Cn3, En8
	.byte W12
	.byte Cn2
	.byte W12
	.byte Fn2
	.byte W12
	.byte Gn2
	.byte W12
	.byte Cn3
	.byte W12
	.byte Cn2
	.byte W12
	.byte Fn2
	.byte W12
	.byte Gn2
	.byte W12
	.byte Cn3
	.byte W12
	.byte Cn2
	.byte W12
	.byte Fn2
	.byte W12
	.byte Gn2
	.byte W12
	.byte Cn3
	.byte W12
	.byte Cn2
	.byte W12
	.byte Fn2
	.byte W12
	.byte Gn2
	.byte W12
	.byte Cn3
	.byte W36
	.byte VOICE, 2
	.byte VOL, 70
	.byte PAN, c_v-10
	.byte N12
	.byte Ds3, En7
	.byte W12
	.byte Ds2
	.byte W12
	.byte Ds1
	.byte W12
	.byte Ds2
	.byte W12
	.byte Ds3
	.byte W12
	.byte Ds4
	.byte W12
	.byte En3
	.byte W12
	.byte En2
	.byte W12
	.byte Cs2
	.byte W12
	.byte Cs1
	.byte W12
	.byte VOICE, 4
	.byte VOL, 70
	.byte PAN, c_v+16
	.byte BEND, c_v
	.byte N08
	.byte Ds3, Cn4
	.byte W12
	.byte N08
	.byte W24
	.byte N08
	.byte W12
	.byte N08
	.byte W24
	.byte En3, Cn3
	.byte W12
	.byte En2
	.byte W12
	.byte Cs3
	.byte W12
	.byte Gs2
	.byte W12
	.byte W12
	.byte Ds3
	.byte W36
	.byte N08
	.byte W24
	.byte VOICE, 2
	.byte VOL, 70
	.byte PAN, c_v-14
	.byte N12
	.byte En3, En7
	.byte W12
	.byte En2
	.byte W12
	.byte Cs2
	.byte W12
	.byte Cs1
	.byte W12
track_77_lbl_22949d:
	.byte N12
	.byte Ds3, Cn8
	.byte W12
	.byte Ds2
	.byte W12
	.byte Ds1
	.byte W12
	.byte Ds2
	.byte W12
	.byte Ds3
	.byte W12
	.byte Ds4
	.byte W12
	.byte En3
	.byte W12
	.byte En2
	.byte W12
	.byte Cs2
	.byte W12
	.byte Cs1
	.byte W12
	.byte PEND
	.byte W96
	.byte W24
	.byte VOICE, 4
	.byte VOL, 70
	.byte PAN, c_v+16
	.byte BEND, c_v
	.byte N08
	.byte Ds3, Cn4
	.byte W12
	.byte N08
	.byte W24
	.byte N08
	.byte W12
	.byte N08
	.byte W24
	.byte As2, Cn3
	.byte W12
	.byte En3
	.byte W12
	.byte Cs3
	.byte W12
	.byte Gs2
	.byte W12
	.byte W12
	.byte Ds3
	.byte W36
	.byte N08
	.byte W72
	.byte W12
	.byte N08
	.byte W36
	.byte N08
	.byte W72
	.byte VOICE, 2
	.byte VOL, 70
	.byte PAN, c_v-14
	.byte N12
	.byte Cn4, Cn8
	.byte W12
	.byte Cn3
	.byte W12
	.byte Cn2, Gn8
	.byte W12
	.byte Cn1
	.byte W12
	.byte Cn2
	.byte W12
	.byte Cn3, Cn8
	.byte W12
	.byte Cs4
	.byte W12
	.byte Cs3
	.byte W12
	.byte As2
	.byte W12
	.byte As1, Gn8
	.byte W12
	.byte PATT
		.word track_77_lbl_2293e1
	.byte N12
	.byte Cn3, Cn8
	.byte W12
	.byte Cn2, Gn8
	.byte W12
	.byte Cn1
	.byte W12
	.byte Cn2
	.byte W12
	.byte Cn3, Cn8
	.byte W12
	.byte Cn2, Gn8
	.byte W12
	.byte Cs1
	.byte W12
	.byte Cs2, Cn8
	.byte W12
	.byte As2
	.byte W12
	.byte As0, Gn8
	.byte W12
	.byte Cn2
	.byte W12
	.byte Cn3, Cn8
	.byte W12
	.byte Cn2, Gn8
	.byte W12
	.byte Cn1
	.byte W12
	.byte Cn2
	.byte W12
	.byte Cn3
	.byte W12
	.byte Cs3
	.byte W12
	.byte Cs2
	.byte W12
	.byte As0
	.byte W12
	.byte As1
	.byte W12
	.byte PATT
		.word track_77_lbl_229405
	.byte N12
	.byte Cn2, Cn3
	.byte W12
	.byte Fn2
	.byte W12
	.byte Gn2, Gs3
	.byte W12
	.byte Cn3
	.byte W12
	.byte Cn2, Gs5
	.byte W12
	.byte Fn2
	.byte W12
	.byte Gn2, Cn6
	.byte W12
	.byte Cn3, En6
	.byte W12
	.byte Cn2
	.byte W12
	.byte Fn2
	.byte W12
track_77_lbl_22954f:
	.byte N12
	.byte Gn2, En6
	.byte W12
	.byte Cn3, En7
	.byte W12
	.byte Cn2, Cn8
	.byte W12
	.byte Fn2
	.byte W12
	.byte Gn2
	.byte W12
	.byte Cn3, En7
	.byte W12
	.byte Cn2, En6
	.byte W12
	.byte Fn2
	.byte W12
	.byte Gn2
	.byte W12
	.byte Cn3
	.byte W12
	.byte PEND
	.byte Cn2, Gs5
	.byte W12
	.byte Fn2
	.byte W12
	.byte Gn2, Cn4
	.byte W12
	.byte Cn3
	.byte W84
	.byte VOICE, 2
	.byte VOL, 85
	.byte PAN, c_v-14
	.byte N12
	.byte Fs3, En7
	.byte W12
	.byte Cn3
	.byte W12
	.byte Ds3
	.byte W12
	.byte N60
	.byte Gn2
	.byte W60
	.byte N12
	.byte Gs2
	.byte W12
	.byte As2
	.byte W12
	.byte Cn3
	.byte W12
	.byte N60
	.byte Gn3
	.byte W60
	.byte N12
	.byte Fs3
	.byte W12
	.byte Dn3
	.byte W12
	.byte N72
	.byte An3
	.byte W72
	.byte W72
	.byte W48
	.byte VOICE, 2
	.byte VOL, 70
	.byte N12
	.byte Ds3, Gs5
	.byte W12
	.byte Ds4
	.byte W12
	.byte En3
	.byte W12
	.byte En2
	.byte W12
	.byte Cs2
	.byte W12
	.byte Cs1
	.byte W12
	.byte W96
	.byte W24
	.byte W72
	.byte En3, En7
	.byte W12
	.byte En2
	.byte W12
	.byte Cs2
	.byte W12
	.byte Cs1
	.byte W12
	.byte PATT
		.word track_77_lbl_22949d
	.byte W96
	.byte W24
	.byte VOICE, 4
	.byte VOL, 85
	.byte N12
	.byte Cn2, En1
	.byte W12
	.byte Fn2, En4
	.byte W12
	.byte Gn2, Gs4
	.byte W12
	.byte Cn3
	.byte W12
	.byte Cn2, En5
	.byte W12
	.byte Fn2
	.byte W12
	.byte Gn2, Gs5
	.byte W12
	.byte Cn3, Cn6
	.byte W12
	.byte Cn2, En6
	.byte W12
	.byte Fn2
	.byte W12
	.byte PATT
		.word track_77_lbl_22954f
	.byte N12
	.byte Cn2, Gs5
	.byte W12
	.byte Fn2
	.byte W12
	.byte Gn2, Gs4
	.byte W12
	.byte Cn3
	.byte W84
	.byte VOICE, 36
	.byte VOL, 70
	.byte N72
	.byte Ds3, Cn8
	.byte W72
	.byte Cn3
	.byte W72
	.byte Ds3
	.byte W72
	.byte Fs3
	.byte W72
	.byte An3
	.byte W72
	.byte Fs3
	.byte W72
	.byte An3
	.byte W72
	.byte Cn4, En7
	.byte W72
	.byte VOICE, 36
	.byte VOL, 70
	.byte PAN, c_v-14
	.byte N36
	.byte Ds4, Cn8
	.byte W36
	.byte Fs4
	.byte W36
	.byte N24
	.byte An4, Gn8
	.byte W24
	.byte GOTO
		.word track_77_lbl_2293c0

	.byte FINE

track_77_2:
	.byte KEYSH, 0
	.byte VOICE, 6
	.byte VOL, 70
	.byte PAN, c_v+10
	.byte PRIO, 118
	.byte W96
track_77_lbl_229626:
	.byte W96
	.byte W24
	.byte W96
	.byte W24
	.byte W96
	.byte W24
	.byte W96
	.byte W24
	.byte W96
	.byte W24
	.byte W96
	.byte W24
	.byte W96
	.byte W24
	.byte W96
	.byte W24
	.byte W96
	.byte W24
	.byte W96
	.byte W24
	.byte W96
	.byte W24
	.byte W96
	.byte W24
	.byte W96
	.byte W24
	.byte W96
	.byte W24
	.byte W96
	.byte W24
	.byte W96
	.byte W24
	.byte W96
	.byte W24
	.byte W96
	.byte W24
	.byte W96
	.byte W24
	.byte W96
	.byte W24
	.byte W96
	.byte W24
	.byte W96
	.byte W24
	.byte W96
	.byte W24
	.byte W96
	.byte W24
	.byte VOICE, 35
	.byte VOL, 85
	.byte PAN, c_v-34
	.byte N96
	.byte Cn4, En7
	.byte W96
	.byte Cs4
	.byte W96
	.byte VOICE, 4
	.byte PAN, c_v
	.byte W24
	.byte VOL, 70
	.byte BENDR, 20
	.byte BEND, c_v
	.byte N72
	.byte An3, Cn4
	.byte W06
	.byte VOL, 32
	.byte W02
	.byte As0
	.byte W02
	.byte Cn1
	.byte W02
	.byte Dn1
	.byte W03
	.byte Fn1
	.byte W03
	.byte Gn1
	.byte W03
	.byte As1
	.byte W03
	.byte Dn2
	.byte W03
	.byte Fn2
	.byte W03
	.byte Gn2
	.byte W03
	.byte As2
	.byte W04
	.byte Dn3
	.byte W03
	.byte Fn3
	.byte W03
	.byte Gs3
	.byte W03
	.byte Bn3
	.byte W03
	.byte Dn4
	.byte W03
	.byte Fn4
	.byte W20
	.byte VOICE, 38
	.byte PAN, c_v
	.byte VOL, 77
	.byte BEND, c_v
	.byte N36
	.byte Fs3, En3
	.byte N36
	.byte As3
	.byte W36
	.byte N56
	.byte Gn3, En4
	.byte N56
	.byte Bn3
	.byte W16
	.byte VOL, 76
	.byte W02
	.byte BEND, c_v-1
	.byte W01
	.byte VOL, 75
	.byte W01
	.byte BEND, c_v-5
	.byte W01
	.byte VOL, 73
	.byte W01
	.byte BEND, c_v-8
	.byte W02
	.byte VOL, 72
	.byte BEND, c_v-10
	.byte W02
	.byte VOL, 70
	.byte BEND, c_v-13
	.byte W02
	.byte Cn2
	.byte W01
	.byte VOL, 69
	.byte W01
	.byte BEND, c_v-18
	.byte W01
	.byte VOL, 68
	.byte W01
	.byte BEND, c_v-21
	.byte W01
	.byte VOL, 66
	.byte W01
	.byte BEND, c_v-23
	.byte W02
	.byte PAN, c_v+10
	.byte VOL, 65
	.byte BEND, c_v-26
	.byte W02
	.byte VOL, 63
	.byte BEND, c_v-28
	.byte W02
	.byte An0
	.byte W01
	.byte VOL, 62
	.byte W01
	.byte BEND, c_v-34
	.byte W01
	.byte VOL, 60
	.byte W01
	.byte BEND, c_v-36
	.byte W02
	.byte VOL, 59
	.byte BEND, c_v-39
	.byte W02
	.byte VOL, 58
	.byte BEND, c_v-41
	.byte W02
	.byte GsM1
	.byte W01
	.byte VOL, 56
	.byte W01
	.byte BEND, c_v-46
	.byte W01
	.byte VOL, 55
	.byte W01
	.byte BEND, c_v-49
	.byte W01
	.byte VOL, 53
	.byte W01
	.byte BEND, c_v-52
	.byte W02
	.byte AsM2
	.byte W02
	.byte GnM2
	.byte W02
	.byte FnM2
	.byte W01
	.byte EnM2
	.byte W09
	.byte En3
	.byte W84
	.byte VOICE, 4
	.byte VOL, 70
	.byte BEND, c_v
	.byte N08
	.byte Ds3, Cn4
	.byte W12
	.byte As2
	.byte W24
	.byte Ds3
	.byte W12
	.byte N08
	.byte W24
	.byte As2, Cn3
	.byte W12
	.byte En3
	.byte W12
	.byte Cs3
	.byte W12
	.byte Gs2
	.byte W12
	.byte W12
	.byte Ds3
	.byte W36
	.byte N08
	.byte W72
	.byte W96
	.byte W24
	.byte VOICE, 4
	.byte VOL, 85
	.byte BENDR, 20
	.byte TIE
	.byte Cn1, Cn8
	.byte W96
	.byte W24
	.byte EOT
	.byte W96
	.byte W24
	.byte W96
	.byte W24
	.byte W96
	.byte W24
	.byte VOICE, 4
	.byte VOL, 70
	.byte N05
	.byte Fs3, Cn3
	.byte W12
	.byte N05
	.byte W24
	.byte N05
	.byte W12
	.byte N05
	.byte W24
	.byte N05
	.byte W12
	.byte N05
	.byte W12
	.byte N05
	.byte W12
	.byte N05
	.byte W24
	.byte N05
	.byte W12
	.byte W12
	.byte Fs3, En3
	.byte W24
	.byte Fs3, Gs3
	.byte W12
	.byte Fs3, Cn4
	.byte W24
	.byte Fs3, En4
	.byte W12
	.byte Fs3, Gs4
	.byte W24
	.byte Fs3, Cn5
	.byte W24
	.byte Fs3, En5
	.byte W12
	.byte W12
	.byte Fs3, Gs5
	.byte W24
	.byte Fs3, En6
	.byte W36
	.byte W24
	.byte N06
	.byte An4, Cn4
	.byte W08
	.byte As4
	.byte W08
	.byte Dn5, Gs4
	.byte W08
	.byte Fs3
	.byte W08
	.byte As4
	.byte W08
	.byte Gn4
	.byte W08
	.byte As2
	.byte W08
	.byte Fn3
	.byte W08
	.byte Bn4
	.byte W08
	.byte Fs3
	.byte W08
	.byte En3
	.byte W08
	.byte Gn4
	.byte W32
	.byte VOICE, 6
	.byte N72
	.byte Cn3, En2
	.byte W72
	.byte VOICE, 6
	.byte VOL, 70
	.byte PAN, c_v+10
	.byte W96
	.byte GOTO
		.word track_77_lbl_229626

	.byte FINE

track_77_3:
	.byte KEYSH, 0
	.byte VOICE, 35
	.byte VOL, 85
	.byte PAN, c_v+26
	.byte PRIO, 118
	.byte W96
track_77_lbl_2297bb:
	.byte VOICE, 35
	.byte VOL, 85
	.byte PAN, c_v+26
	.byte BEND, c_v
	.byte N32
	.byte Cn4, Cn8, DnM2
	.byte W36
	.byte Cn4, Cn8, DnM2
	.byte W36
	.byte N22
	.byte Cs4
	.byte W24
	.byte As3
	.byte W24
track_77_lbl_2297d1:
	.byte N32
	.byte Cn4, Cn8, DnM2
	.byte W36
	.byte Cn4, Cn8, DnM2
	.byte W36
	.byte N22
	.byte Cs4
	.byte W24
	.byte As3
	.byte W24
	.byte PEND
	.byte PATT
		.word track_77_lbl_2297d1
	.byte PATT
		.word track_77_lbl_2297d1
	.byte PATT
		.word track_77_lbl_2297d1
	.byte PATT
		.word track_77_lbl_2297d1
	.byte PATT
		.word track_77_lbl_2297d1
track_77_lbl_2297f9:
	.byte N32
	.byte Cn4, Cn8, DnM2
	.byte W36
	.byte Cn4, Cn8, DnM2
	.byte W36
	.byte N18
	.byte Cs4
	.byte W24
	.byte As3
	.byte W24
	.byte PEND
	.byte N32
	.byte Ds4, En6, DnM2
	.byte W36
	.byte Ds4, En6, DnM2
	.byte W36
	.byte N22
	.byte En4, Cn6
	.byte W24
	.byte Cs4
	.byte W24
	.byte N32
	.byte Ds4, Gs5, DnM2
	.byte W36
	.byte Ds4, Gs5, DnM2
	.byte W36
	.byte N22
	.byte En4, En5
	.byte W24
	.byte Cs4
	.byte W24
	.byte N32
	.byte Ds4, En5, DnM2
	.byte W36
	.byte Ds4, Cn5, DnM2
	.byte W36
	.byte N22
	.byte En4, Gs4
	.byte W24
	.byte Cs4
	.byte W24
	.byte N32
	.byte Ds4, Gs4, DnM2
	.byte W36
	.byte Ds4, En4, DnM2
	.byte W36
	.byte N22
	.byte En4
	.byte W24
	.byte Cs4, Cn4
	.byte W24
track_77_lbl_229844:
	.byte N32
	.byte Ds4, Cn8, DnM2
	.byte W36
	.byte Ds4, Cn8, DnM2
	.byte W36
	.byte N22
	.byte En4
	.byte W24
	.byte Cs4
	.byte W24
	.byte PEND
track_77_lbl_229853:
	.byte N32
	.byte Ds4, En6, DnM2
	.byte W36
	.byte Ds4, En6, DnM2
	.byte W36
	.byte N22
	.byte En4
	.byte W24
	.byte Cs4
	.byte W24
	.byte PEND
	.byte PATT
		.word track_77_lbl_229853
	.byte PATT
		.word track_77_lbl_229853
	.byte VOICE, 35
	.byte N32
	.byte Cn4, Cn8, DnM2
	.byte W36
	.byte Cn4, Cn8, DnM2
	.byte W36
	.byte N22
	.byte Cs4
	.byte W24
	.byte As3
	.byte W24
	.byte PATT
		.word track_77_lbl_2297d1
	.byte PATT
		.word track_77_lbl_2297d1
	.byte PATT
		.word track_77_lbl_2297d1
	.byte PATT
		.word track_77_lbl_2297d1
	.byte PATT
		.word track_77_lbl_2297d1
	.byte PATT
		.word track_77_lbl_2297d1
	.byte PATT
		.word track_77_lbl_2297f9
	.byte N96
	.byte Fs4, En7
	.byte W96
	.byte Gn4
	.byte W96
	.byte Gs4, Cn8
	.byte W96
	.byte N32
	.byte Fn5, Cn8, DnM2
	.byte W36
	.byte En5, Cn8, DnM2
	.byte W36
	.byte VOICE, 35
	.byte BEND, c_v
	.byte N32
	.byte Ds4, Cn6, DnM2
	.byte W36
	.byte Ds4, En6, DnM2
	.byte W36
	.byte N22
	.byte En4, Gs6
	.byte W24
	.byte Cs4, Cn7
	.byte W24
	.byte N32
	.byte Ds4, Cn7, DnM2
	.byte W36
	.byte Ds4, En7, DnM2
	.byte W36
	.byte N22
	.byte En4, Gs7
	.byte W24
	.byte Cs4, Cn8
	.byte W24
	.byte PATT
		.word track_77_lbl_229844
	.byte N32
	.byte Ds4, Cn8, DnM2
	.byte W36
	.byte Ds4, Gs7, DnM2
	.byte W36
	.byte N22
	.byte En4, Cn7
	.byte W24
	.byte Cs4, Gs6
	.byte W24
	.byte PATT
		.word track_77_lbl_2297d1
	.byte PATT
		.word track_77_lbl_2297d1
	.byte N32
	.byte Cn4, Cn8, DnM2
	.byte W36
	.byte Cn4, Gs7, DnM2
	.byte W36
	.byte N22
	.byte Cs4
	.byte W24
	.byte As3, En7
	.byte W24
	.byte N32
	.byte Cn4, Cn7, DnM2
	.byte W36
	.byte Cn4, Gs6, DnM2
	.byte W36
	.byte N22
	.byte Cs4
	.byte W24
	.byte As3, En6
	.byte W24
	.byte W72
	.byte W72
	.byte W72
	.byte W72
	.byte W72
	.byte W72
	.byte W72
	.byte W72
	.byte VOICE, 35
	.byte VOL, 85
	.byte PAN, c_v+26
	.byte W96
	.byte GOTO
		.word track_77_lbl_2297bb

	.byte FINE

track_77_4:
	.byte KEYSH, 0
	.byte VOICE, 1
	.byte VOL, 70
	.byte PAN, c_v+6
	.byte PRIO, 30
	.byte W96
track_77_lbl_229932:
	.byte PAN, c_v+6
	.byte BEND, c_v
	.byte W96
	.byte W24
	.byte W96
	.byte W24
	.byte W96
	.byte W24
	.byte W96
	.byte W24
	.byte W96
	.byte W24
track_77_lbl_229940:
	.byte VOICE, 6
	.byte VOL, 70
	.byte N72
	.byte Cn1, Cn3
	.byte W72
	.byte N24
	.byte Cs1
	.byte W24
	.byte As0
	.byte W24
	.byte PEND
track_77_lbl_22994e:
	.byte N72
	.byte Cn1, Cn4
	.byte W72
	.byte N24
	.byte Cs1
	.byte W24
	.byte As0
	.byte W24
	.byte PEND
track_77_lbl_229958:
	.byte N72
	.byte Cn1, Gs4
	.byte W72
	.byte N24
	.byte Cs1
	.byte W24
	.byte As0
	.byte W24
	.byte PEND
	.byte W96
	.byte W24
	.byte VOICE, 4
	.byte VOL, 70
	.byte N08
	.byte As2, Cn4
	.byte W12
	.byte N08
	.byte W24
	.byte N08
	.byte W12
	.byte N08
	.byte W72
track_77_lbl_229972:
	.byte W12
	.byte N08
	.byte As2, Cn3
	.byte W36
	.byte N08
	.byte W72
	.byte PEND
	.byte W96
	.byte W24
	.byte W96
	.byte W24
	.byte As2, Cn4
	.byte W12
	.byte N08
	.byte W24
	.byte N08
	.byte W12
	.byte N08
	.byte W72
	.byte PATT
		.word track_77_lbl_229972
	.byte PATT
		.word track_77_lbl_229972
	.byte W96
	.byte W24
	.byte W96
	.byte W24
	.byte W96
	.byte W24
	.byte W96
	.byte W24
	.byte W96
	.byte W24
	.byte PATT
		.word track_77_lbl_229940
	.byte PATT
		.word track_77_lbl_22994e
	.byte PATT
		.word track_77_lbl_229958
	.byte W96
	.byte W96
	.byte VOICE, 35
	.byte VOL, 85
	.byte N96
	.byte Dn4, En7
	.byte W96
	.byte VOICE, 4
	.byte PAN, c_v
	.byte VOL, 77
	.byte BENDR, 20
	.byte BEND, c_v
	.byte N36
	.byte Cn3, Gs4
	.byte W36
	.byte N56
	.byte Cs3, Gs5
	.byte W16
	.byte VOL, 76
	.byte W02
	.byte BEND, c_v-1
	.byte W01
	.byte VOL, 75
	.byte W01
	.byte BEND, c_v-5
	.byte W01
	.byte VOL, 73
	.byte W01
	.byte BEND, c_v-8
	.byte W02
	.byte VOL, 72
	.byte BEND, c_v-10
	.byte W02
	.byte VOL, 70
	.byte BEND, c_v-13
	.byte W02
	.byte Cn2
	.byte W01
	.byte VOL, 69
	.byte W01
	.byte BEND, c_v-18
	.byte W01
	.byte VOL, 68
	.byte W01
	.byte BEND, c_v-21
	.byte W01
	.byte VOL, 66
	.byte W01
	.byte BEND, c_v-23
	.byte W02
	.byte VOL, 65
	.byte BEND, c_v-26
	.byte W02
	.byte VOL, 63
	.byte BEND, c_v-28
	.byte W02
	.byte An0
	.byte W01
	.byte VOL, 62
	.byte W01
	.byte BEND, c_v-34
	.byte W01
	.byte VOL, 60
	.byte W01
	.byte BEND, c_v-36
	.byte W02
	.byte VOL, 59
	.byte BEND, c_v-39
	.byte W02
	.byte VOL, 58
	.byte BEND, c_v-41
	.byte W02
	.byte GsM1
	.byte W01
	.byte VOL, 56
	.byte W01
	.byte BEND, c_v-46
	.byte W01
	.byte VOL, 55
	.byte W01
	.byte BEND, c_v-49
	.byte W01
	.byte VOL, 53
	.byte W01
	.byte BEND, c_v-52
	.byte W02
	.byte AsM2
	.byte W02
	.byte GnM2
	.byte W02
	.byte FnM2
	.byte W01
	.byte EnM2
	.byte W09
	.byte En3
	.byte W84
	.byte VOICE, 4
	.byte PAN, c_v+6
	.byte VOL, 70
	.byte N08
	.byte Ds3, Cn4
	.byte W12
	.byte As2
	.byte W24
	.byte N08
	.byte W12
	.byte N08
	.byte W24
	.byte As2, Cn3
	.byte W12
	.byte En3
	.byte W12
	.byte Cs3
	.byte W12
	.byte Gs2
	.byte W12
	.byte W12
	.byte As2
	.byte W36
	.byte N08
	.byte W72
	.byte W96
	.byte W24
	.byte W96
	.byte W24
	.byte VOICE, 6
	.byte VOL, 53
	.byte BENDR, 20
	.byte N72
	.byte Cn1, Gs4
	.byte W72
	.byte N24
	.byte Cs1, Gs5
	.byte W24
	.byte As0
	.byte W24
	.byte N72
	.byte Cn1, En6
	.byte W72
	.byte N24
	.byte Cs1, Gs5
	.byte W24
	.byte As0, Gs4
	.byte W24
	.byte W96
	.byte W24
	.byte VOICE, 1
	.byte VOL, 70
	.byte N12
	.byte Cn3, CnM1
	.byte W12
	.byte Cn3, EnM1
	.byte W12
	.byte Cn3, Cn0
	.byte W12
	.byte Cn3, Gs0
	.byte W12
	.byte Cn3, Cn1
	.byte W12
	.byte Cn3, Gs1
	.byte W12
track_77_lbl_229a8c:
	.byte N12
	.byte Cn3, En2
	.byte W12
	.byte Cn3, Gs2
	.byte W12
	.byte Cn3, En4
	.byte W12
	.byte Cn3, Gs4
	.byte W12
	.byte Dn3, En5
	.byte W12
	.byte Gn3, Cn6
	.byte W12
	.byte PEND
track_77_lbl_229aa0:
	.byte N12
	.byte Gn3, En6
	.byte W12
	.byte Gn3, En4
	.byte W12
	.byte Dn3
	.byte W12
	.byte Cn3, Cn4
	.byte W12
	.byte Cn3, Gs2
	.byte W12
	.byte Cn3, Cn2
	.byte W12
	.byte PEND
track_77_lbl_229ab3:
	.byte N12
	.byte Cn3, Cn2
	.byte W12
	.byte Cn3, Gs1
	.byte W12
	.byte Cn3, Cn1
	.byte W12
	.byte Cn3, Gs0
	.byte W12
	.byte Cn3, Cn0
	.byte W12
	.byte Cn3, EnM1
	.byte W12
	.byte PEND
	.byte Cn3, CnM1
	.byte W12
	.byte Cn3, EnM1
	.byte W12
	.byte Cn3, Cn0
	.byte W12
	.byte Cn3, Gs0
	.byte W12
	.byte Cn3, Cn1
	.byte W12
	.byte Cn3, Gs1
	.byte W12
	.byte PATT
		.word track_77_lbl_229a8c
	.byte PATT
		.word track_77_lbl_229aa0
	.byte PATT
		.word track_77_lbl_229ab3
	.byte VOICE, 1
	.byte VOL, 70
	.byte PAN, c_v+6
	.byte W96
	.byte GOTO
		.word track_77_lbl_229932

	.byte FINE

track_77_5:
	.byte KEYSH, 0
	.byte VOICE, 9
	.byte VOL, 49
	.byte PAN, c_v
	.byte PRIO, 29
	.byte W96
track_77_lbl_229b00:
	.byte VOICE, 37
	.byte VOL, 77
	.byte PAN, c_v+28
	.byte BEND, c_v
	.byte N32
	.byte Gn1, Cn8, DnM2
	.byte W36
	.byte Gn1, Cn8, DnM2
	.byte W36
	.byte N22
	.byte Gs1
	.byte W24
	.byte Fn1
	.byte W24
track_77_lbl_229b16:
	.byte N32
	.byte Gn1, Cn8, DnM2
	.byte W36
	.byte Gn1, Cn8, DnM2
	.byte W36
	.byte N22
	.byte Gs1
	.byte W24
	.byte Fn1
	.byte W24
	.byte PEND
	.byte PATT
		.word track_77_lbl_229b16
	.byte PATT
		.word track_77_lbl_229b16
track_77_lbl_229b2f:
	.byte N32
	.byte Gn1, En7, DnM2
	.byte W36
	.byte Gn1, En7, DnM2
	.byte W36
	.byte N22
	.byte Gs1
	.byte W24
	.byte Fn1
	.byte W24
	.byte PEND
track_77_lbl_229b3e:
	.byte N32
	.byte Gn1, En6, DnM2
	.byte W36
	.byte Gn1, En6, DnM2
	.byte W36
	.byte N22
	.byte Gs1
	.byte W24
	.byte Fn1
	.byte W24
	.byte PEND
track_77_lbl_229b4d:
	.byte N32
	.byte Gn1, Gs5, DnM2
	.byte W36
	.byte Gn1, Gs5, DnM2
	.byte W36
	.byte N22
	.byte Gs1
	.byte W24
	.byte Fn1
	.byte W24
	.byte PEND
track_77_lbl_229b5c:
	.byte N32
	.byte Gn1, Gs4, DnM2
	.byte W36
	.byte Gn1, Gs4, DnM2
	.byte W36
	.byte N18
	.byte Gs1
	.byte W24
	.byte N20
	.byte Fn1
	.byte W24
	.byte PEND
	.byte N32
	.byte As1, En6, DnM2
	.byte W36
	.byte As1, En6, DnM2
	.byte W36
	.byte N22
	.byte Bn1, Cn6
	.byte W24
	.byte Gs1
	.byte W24
	.byte N32
	.byte As1, Gs5, DnM2
	.byte W36
	.byte As1, Gs5, DnM2
	.byte W36
	.byte N22
	.byte Bn1, En5
	.byte W24
	.byte Gs1
	.byte W24
	.byte N32
	.byte As1, En5, DnM2
	.byte W36
	.byte As1, Cn5, DnM2
	.byte W36
	.byte N22
	.byte Bn1, Gs4
	.byte W24
	.byte Gs1
	.byte W24
	.byte N32
	.byte As1, Gs4, DnM2
	.byte W36
	.byte As1, En4, DnM2
	.byte W36
	.byte N22
	.byte Bn1
	.byte W24
	.byte Gs1, Cn4
	.byte W24
track_77_lbl_229ba8:
	.byte N32
	.byte As1, Cn8, DnM2
	.byte W36
	.byte As1, Cn8, DnM2
	.byte W36
	.byte N22
	.byte Bn1
	.byte W24
	.byte Gs1
	.byte W24
	.byte PEND
track_77_lbl_229bb7:
	.byte N32
	.byte As1, En6, DnM2
	.byte W36
	.byte As1, En6, DnM2
	.byte W36
	.byte N22
	.byte Bn1
	.byte W24
	.byte Gs1
	.byte W24
	.byte PEND
	.byte PATT
		.word track_77_lbl_229bb7
	.byte PATT
		.word track_77_lbl_229bb7
	.byte PATT
		.word track_77_lbl_229b16
	.byte PATT
		.word track_77_lbl_229b16
	.byte PATT
		.word track_77_lbl_229b16
	.byte PATT
		.word track_77_lbl_229b16
	.byte PATT
		.word track_77_lbl_229b2f
	.byte PATT
		.word track_77_lbl_229b3e
	.byte PATT
		.word track_77_lbl_229b4d
	.byte PATT
		.word track_77_lbl_229b5c
	.byte VOICE, 37
	.byte VOL, 77
	.byte W96
	.byte W96
	.byte W96
	.byte W72
	.byte N32
	.byte As1, Cn6, DnM2
	.byte W36
	.byte As1, En6, DnM2
	.byte W36
	.byte N22
	.byte Bn1, Gs6
	.byte W24
	.byte Gs1, Cn7
	.byte W24
	.byte N32
	.byte As1, Cn7, DnM2
	.byte W36
	.byte As1, En7, DnM2
	.byte W36
	.byte N22
	.byte Bn1, Gs7
	.byte W24
	.byte Gs1, Cn8
	.byte W24
	.byte PATT
		.word track_77_lbl_229ba8
	.byte N32
	.byte As1, Cn8, DnM2
	.byte W36
	.byte As1, Gs7, DnM2
	.byte W36
	.byte N22
	.byte Bn1, Cn7
	.byte W24
	.byte Gs1, Gs6
	.byte W24
	.byte PATT
		.word track_77_lbl_229b2f
	.byte PATT
		.word track_77_lbl_229b2f
	.byte N32
	.byte Gn1, Cn8, DnM2
	.byte W36
	.byte Gn1, Gs7, DnM2
	.byte W36
	.byte N22
	.byte Gs1
	.byte W24
	.byte Fn1, En7
	.byte W24
	.byte N32
	.byte Gn1, Cn7, DnM2
	.byte W36
	.byte Gn1, Gs6, DnM2
	.byte W36
	.byte N22
	.byte Gs1
	.byte W24
	.byte Fn1, En6
	.byte W24
	.byte VOICE, 5
	.byte VOL, 49
	.byte PAN, c_v
	.byte W12
	.byte N12
	.byte Fs3, Cn5
	.byte W12
	.byte An3
	.byte W12
	.byte Cn4
	.byte W12
	.byte Ds4
	.byte W12
	.byte Fs4
	.byte W12
	.byte N10
	.byte An4, Gs6
	.byte W10
	.byte Fs3
	.byte W10
	.byte An3
	.byte W10
	.byte Cn4
	.byte W10
	.byte Ds4
	.byte W10
	.byte Fs4
	.byte W10
	.byte An4
	.byte W12
	.byte An4, Cn6
	.byte W10
	.byte Fs3
	.byte W10
	.byte An3
	.byte W10
	.byte Cn4
	.byte W10
	.byte Ds4
	.byte W10
	.byte Fs4
	.byte W10
	.byte An4
	.byte W12
	.byte An4, Cn5
	.byte W10
	.byte Fs3
	.byte W10
	.byte An3
	.byte W10
	.byte Cn4
	.byte W10
	.byte Ds4
	.byte W10
	.byte Fs4
	.byte W10
	.byte An4
	.byte W12
	.byte W72
	.byte VOICE, 9
	.byte N48
	.byte An2, En6
	.byte W48
	.byte N24
	.byte An1, Cn8
	.byte W24
	.byte N48
	.byte Ds3, En6
	.byte W48
	.byte N24
	.byte Ds2, Cn8
	.byte W24
	.byte Fs2
	.byte W24
	.byte N24
	.byte W24
	.byte Fn2
	.byte W24
	.byte VOICE, 9
	.byte VOL, 49
	.byte PAN, c_v
	.byte W96
	.byte GOTO
		.word track_77_lbl_229b00

	.byte FINE

track_77_6:
	.byte KEYSH, 0
	.byte VOICE, 0
	.byte VOL, 63
	.byte PAN, c_v
	.byte PRIO, 28
	.byte W96
track_77_lbl_229ccf:
	.byte VOICE, 0
	.byte VOL, 77
	.byte PAN, c_v
	.byte W96
	.byte W24
	.byte N12
	.byte Cn4, En6
	.byte W24
	.byte N06
	.byte Fs1, GsM1
	.byte W12
	.byte Fs1, CnM1
	.byte W12
	.byte En1, Gs5
	.byte W12
	.byte Fs1, CnM1
	.byte W12
	.byte N18
	.byte Cs2, Cn4
	.byte W24
	.byte N06
	.byte Fs1, En2
	.byte W12
	.byte En1, Cn4
	.byte W12
track_77_lbl_229cf3:
	.byte N06
	.byte En1, Cn4
	.byte W12
	.byte Fs1, CnM1
	.byte W12
	.byte Fs1, GsM1
	.byte W24
	.byte Fs1, En2
	.byte W12
	.byte En1, Cn4
	.byte W12
	.byte N12
	.byte Cn4, En6
	.byte W12
	.byte N06
	.byte Fs1, CnM1
	.byte W12
	.byte En1, Gs5
	.byte W12
	.byte Cs2, En2
	.byte W12
	.byte PEND
track_77_lbl_229d12:
	.byte N12
	.byte Cn4, En6
	.byte W24
	.byte N06
	.byte Fs1, GsM1
	.byte W12
	.byte Fs1, CnM1
	.byte W12
	.byte En1, Gs5
	.byte W12
	.byte Fs1, CnM1
	.byte W12
	.byte Fs1, GsM1
	.byte W24
	.byte Fs1, En2
	.byte W24
	.byte PEND
track_77_lbl_229d2a:
	.byte N18
	.byte Cs2, En7
	.byte W24
	.byte N06
	.byte Fs1, GsM1
	.byte W12
	.byte Fs1, CnM1
	.byte W12
	.byte Fs1, Gs0
	.byte W12
	.byte En1, Cn4
	.byte W12
	.byte Fs1, GsM1
	.byte W12
	.byte As1
	.byte W12
	.byte En1, Cn4
	.byte W24
	.byte PEND
	.byte W96
	.byte W24
	.byte W96
	.byte W24
	.byte W96
	.byte W24
	.byte VOL, 63
	.byte N06
	.byte An1
	.byte W24
	.byte Fs1, GsM1
	.byte W12
	.byte Fs1, CnM1
	.byte W12
	.byte Fs1, Gs0
	.byte W12
	.byte An1, Cn4
	.byte W12
	.byte Fs1, GsM1
	.byte W12
	.byte N18
	.byte Cs2, En1
	.byte W36
	.byte W96
	.byte W24
	.byte W84
	.byte N06
	.byte As1
	.byte W24
	.byte Cs2, En2
	.byte W12
	.byte N12
	.byte Cn4, En6
	.byte W24
	.byte N06
	.byte Fs1, En1
	.byte W12
	.byte Fs1, En2
	.byte W12
	.byte An1, Gs5
	.byte W12
	.byte Fs1, Cn3
	.byte W12
	.byte Fs1, Cn4
	.byte W12
	.byte Cs2, Cn5
	.byte W36
	.byte W96
	.byte W24
	.byte W96
	.byte W24
	.byte W96
	.byte W24
	.byte W96
	.byte W24
	.byte W96
	.byte W24
	.byte VOICE, 0
	.byte VOL, 63
	.byte N12
	.byte Cn4, En6
	.byte W24
	.byte N06
	.byte Fs1, GsM1
	.byte W12
	.byte Fs1, CnM1
	.byte W12
	.byte En1, Gs5
	.byte W12
	.byte Fs1, CnM1
	.byte W12
	.byte N18
	.byte Cs2, Cn4
	.byte W24
	.byte N06
	.byte Fs1, En2
	.byte W12
	.byte En1, Cn4
	.byte W12
	.byte PATT
		.word track_77_lbl_229cf3
	.byte PATT
		.word track_77_lbl_229d12
	.byte PATT
		.word track_77_lbl_229d2a
	.byte W96
	.byte W24
	.byte W96
	.byte W24
	.byte W96
	.byte W24
	.byte W96
	.byte W96
	.byte W96
	.byte W72
	.byte VOICE, 36
	.byte VOL, 70
	.byte N24
	.byte Ds5, Cn5
	.byte W96
	.byte W24
	.byte W96
	.byte W24
	.byte W96
	.byte W24
	.byte VOICE, 0
	.byte VOL, 63
	.byte N12
	.byte Cn4, En6
	.byte W24
	.byte N06
	.byte Fs1, GsM1
	.byte W12
	.byte Fs1, CnM1
	.byte W12
	.byte An1, Gs5
	.byte W12
	.byte Fs1, CnM1
	.byte W12
	.byte Fs1, GsM1
	.byte W12
	.byte Cs2, En2
	.byte W12
	.byte Fs1
	.byte W24
	.byte W96
	.byte W24
	.byte W96
	.byte W24
	.byte W96
	.byte W24
	.byte W72
	.byte Fs1, GsM1
	.byte W24
	.byte Fs1, En2
	.byte W24
	.byte W72
	.byte W72
	.byte W72
	.byte W72
	.byte W72
	.byte W72
	.byte W72
	.byte W72
	.byte VOICE, 0
	.byte VOL, 63
	.byte PAN, c_v
	.byte W96
	.byte GOTO
		.word track_77_lbl_229ccf

	.byte FINE

track_77_7:
	.byte KEYSH, 0
	.byte VOICE, 0
	.byte PAN, c_v+10
	.byte VOL, 63
	.byte PRIO, 27
	.byte N12
	.byte En1, En6
	.byte W36
	.byte En1, Gs4
	.byte W24
	.byte Cs2, Gn8
	.byte W12
	.byte Cn4
	.byte W24
track_77_lbl_229e27:
	.byte VOICE, 0
	.byte PAN, c_v
	.byte VOL, 77
	.byte N06
	.byte En1, Cn4
	.byte N18
	.byte Cs2, En7
	.byte W24
	.byte N06
	.byte Fs1, GsM1
	.byte W12
	.byte Fs1, CnM1
	.byte W12
	.byte Fs1, Gs0
	.byte W12
	.byte En1, Cn4
	.byte N06
	.byte Fs1, CnM1
	.byte W12
	.byte Fs1, GsM1
	.byte N12
	.byte Cn4, En6
	.byte W12
	.byte N18
	.byte As1, GsM1
	.byte W12
	.byte N06
	.byte En1, Cn4
	.byte N06
	.byte Fs1, En2
	.byte W24
track_77_lbl_229e55:
	.byte W36
	.byte N12
	.byte Cn4, En6
	.byte W12
	.byte N06
	.byte Fs1, Gs0
	.byte W24
	.byte Fs1, GsM1
	.byte N12
	.byte Cn4, En6
	.byte W48
	.byte PEND
track_77_lbl_229e65:
	.byte N12
	.byte Cn4, En6
	.byte W84
	.byte N06
	.byte As1, En1
	.byte W24
	.byte N18
	.byte As1, CnM1
	.byte W12
	.byte PEND
track_77_lbl_229e72:
	.byte W48
	.byte N06
	.byte Fs1, Gs0
	.byte W24
	.byte N12
	.byte Cn4, En6
	.byte W48
	.byte PEND
track_77_lbl_229e7c:
	.byte N06
	.byte En1, Cn4
	.byte N12
	.byte Cn4, En6
	.byte W60
	.byte N06
	.byte Fs1, CnM1
	.byte W12
	.byte N12
	.byte Cn4, En6
	.byte W24
	.byte N06
	.byte Fs1, En2
	.byte W24
	.byte PEND
track_77_lbl_229e90:
	.byte N12
	.byte Cn4, En6
	.byte W24
	.byte N06
	.byte Fs1, GsM1
	.byte W12
	.byte Fs1, CnM1
	.byte N12
	.byte Cn4, En6
	.byte W12
	.byte N06
	.byte En1, Gs5
	.byte N06
	.byte Fs1, Gs0
	.byte W12
	.byte Fs1, CnM1
	.byte W12
	.byte N18
	.byte Cs2, Cn4
	.byte N12
	.byte Cn4, En6
	.byte W36
	.byte N06
	.byte En1, Cn4
	.byte W12
	.byte PEND
track_77_lbl_229eb4:
	.byte N06
	.byte En1, Cn4
	.byte N12
	.byte Cn4, En6
	.byte W12
	.byte N06
	.byte Fs1, CnM1
	.byte W12
	.byte Fs1, GsM1
	.byte W24
	.byte Fs1, En2
	.byte W12
	.byte En1, Cn4
	.byte W12
	.byte N12
	.byte Cn4, En6
	.byte W12
	.byte N06
	.byte Fs1, CnM1
	.byte N06
	.byte As1, En1
	.byte W12
	.byte En1, Gs5
	.byte W12
	.byte N18
	.byte As1, CnM1
	.byte N06
	.byte Cs2, En2
	.byte W12
	.byte PEND
track_77_lbl_229ede:
	.byte N12
	.byte Cn4, En6
	.byte W24
	.byte N06
	.byte Fs1, GsM1
	.byte W12
	.byte Fs1, CnM1
	.byte W12
	.byte En1, Gs5
	.byte N06
	.byte Fs1, Gs0
	.byte W12
	.byte Fs1, CnM1
	.byte W12
	.byte Fs1, GsM1
	.byte N12
	.byte Cn4, En6
	.byte W24
	.byte N06
	.byte Fs1, En2
	.byte W24
	.byte PEND
	.byte VOL, 63
	.byte N12
	.byte Cn4, En6
	.byte W36
	.byte N12
	.byte W24
	.byte N06
	.byte Fs1, CnM1
	.byte W24
	.byte N12
	.byte Cn4, En6
	.byte W12
	.byte N06
	.byte Fs1, En2
	.byte W24
track_77_lbl_229f11:
	.byte N12
	.byte Cn4, En6
	.byte W24
	.byte N06
	.byte Fs1, GsM1
	.byte W12
	.byte Fs1, CnM1
	.byte W12
	.byte Fs1, Gs0
	.byte N06
	.byte An1, Gs5
	.byte W12
	.byte Fs1, CnM1
	.byte W12
	.byte Fs1, GsM1
	.byte W12
	.byte N18
	.byte Cs2, Cn4
	.byte N12
	.byte Cn4, En6
	.byte W12
	.byte N06
	.byte Fs1, En2
	.byte W12
	.byte An1, Cn4
	.byte W12
	.byte PEND
	.byte N06
	.byte W12
	.byte Fs1, CnM1
	.byte W12
	.byte Fs1, GsM1
	.byte W12
	.byte N12
	.byte Cn4, En6
	.byte W12
	.byte N06
	.byte Fs1, En2
	.byte W12
	.byte An1, Cn4
	.byte W24
	.byte Fs1, CnM1
	.byte N12
	.byte Cn4, En6
	.byte W24
	.byte N18
	.byte As1, CnM1
	.byte N12
	.byte Cn4, En6
	.byte W12
	.byte PATT
		.word track_77_lbl_229e72
	.byte N06
	.byte An1, Cn4
	.byte N12
	.byte Cn4, En6
	.byte W24
	.byte N06
	.byte Fs1, GsM1
	.byte W12
	.byte Fs1, CnM1
	.byte N12
	.byte Cn4, En6
	.byte W12
	.byte N06
	.byte Fs1, Gs0
	.byte W12
	.byte Fs1, CnM1
	.byte N06
	.byte An1, Cn4
	.byte W12
	.byte Fs1, GsM1
	.byte W12
	.byte N18
	.byte Cs2, En1
	.byte N12
	.byte Cn4, En6
	.byte W12
	.byte N06
	.byte Fs1, En2
	.byte W24
	.byte PATT
		.word track_77_lbl_229f11
	.byte N06
	.byte An1, Cn4
	.byte W12
	.byte Fs1, CnM1
	.byte W12
	.byte Fs1, GsM1
	.byte W12
	.byte N12
	.byte Cn4, En6
	.byte W12
	.byte N06
	.byte Fs1, En2
	.byte W12
	.byte An1, Cn4
	.byte W24
	.byte N12
	.byte Cn4, En6
	.byte W24
	.byte N06
	.byte Cs2, En2
	.byte N12
	.byte Cn4, En6
	.byte W12
	.byte N12
	.byte W24
	.byte N06
	.byte Fs1, GsM1
	.byte W12
	.byte Fs1, CnM1
	.byte W12
	.byte Fs1, Gs0
	.byte N06
	.byte An1, Gs5
	.byte W12
	.byte Fs1, CnM1
	.byte W12
	.byte Fs1, GsM1
	.byte N12
	.byte Cn4, En6
	.byte W24
	.byte N06
	.byte W12
	.byte Cn4, Cn4
	.byte W12
	.byte En1
	.byte N18
	.byte Cs2, En7
	.byte N12
	.byte Cn4, En6
	.byte W24
	.byte N06
	.byte Fs1, GsM1
	.byte W12
	.byte Fs1, CnM1
	.byte W12
	.byte Fs1, Gs0
	.byte W12
	.byte En1, Cn4
	.byte N06
	.byte Fs1, CnM1
	.byte W12
	.byte Fs1, GsM1
	.byte N12
	.byte Cn4, En6
	.byte W12
	.byte N18
	.byte As1, GsM1
	.byte W12
	.byte N06
	.byte En1, Cn4
	.byte N06
	.byte Fs1, En2
	.byte W24
	.byte PATT
		.word track_77_lbl_229e55
	.byte PATT
		.word track_77_lbl_229e65
	.byte PATT
		.word track_77_lbl_229e72
	.byte PATT
		.word track_77_lbl_229e7c
	.byte PATT
		.word track_77_lbl_229e90
	.byte PATT
		.word track_77_lbl_229eb4
	.byte PATT
		.word track_77_lbl_229ede
	.byte N06
	.byte En1, Gs4
	.byte N06
	.byte Cs2, En7
	.byte N06
	.byte Cn4, En6
	.byte W24
	.byte Fs1, Gs0
	.byte W12
	.byte Fs1, GsM1
	.byte N06
	.byte Cn4, En6
	.byte W12
	.byte Fs1, En1
	.byte W12
	.byte En1, Gs4
	.byte N06
	.byte Fs1, GsM1
	.byte W12
	.byte Fs1, Gs0
	.byte N06
	.byte Cs2, Cn3
	.byte W12
	.byte Cn4, En6
	.byte W12
	.byte En1, Gs4
	.byte N06
	.byte Cn4, En6
	.byte W24
	.byte Fs1, Gs0
	.byte W12
	.byte Fs1, GsM1
	.byte N06
	.byte Cn4, En6
	.byte W12
	.byte Fs1, En1
	.byte W12
	.byte Fs1, GsM1
	.byte N06
	.byte An1, Gs5
	.byte W12
	.byte Fs1, Gs0
	.byte N12
	.byte Cs2, Cn3
	.byte W12
	.byte N06
	.byte Cn4, En6
	.byte W12
	.byte En1, Gs4
	.byte N06
	.byte Cn4, En6
	.byte W24
	.byte Fs1, Gs0
	.byte N11
	.byte An1, En6
	.byte W12
	.byte N06
	.byte Fs1, GsM1
	.byte W12
	.byte Fs1, En1
	.byte N06
	.byte Cn4, En6
	.byte W12
	.byte Fs1, GsM1
	.byte N06
	.byte An1, En6
	.byte W12
	.byte Fs1, Gs0
	.byte N12
	.byte Cs2, Cn3
	.byte W12
	.byte N06
	.byte Cn4, En6
	.byte W12
	.byte N12
	.byte Cs2, En7
	.byte W12
	.byte Cn4, En6
	.byte W12
	.byte N06
	.byte Fs1, Gs0
	.byte W12
	.byte Fs1, GsM1
	.byte N11
	.byte Cs2, Gs5
	.byte W12
	.byte N06
	.byte Fs1, En1
	.byte N12
	.byte Cn4, En6
	.byte W12
	.byte N06
	.byte Fs1, GsM1
	.byte N11
	.byte Cs2, En6
	.byte W12
	.byte N06
	.byte An1, Cn4
	.byte W24
	.byte Fs1, GsM1
	.byte W12
	.byte Fs1, CnM1
	.byte N12
	.byte Cn4, En6
	.byte W12
	.byte N06
	.byte Fs1, Gs0
	.byte W12
	.byte Fs1, CnM1
	.byte N06
	.byte An1, Cn4
	.byte W12
	.byte Fs1, GsM1
	.byte W12
	.byte N18
	.byte Cs2, En1
	.byte N12
	.byte Cn4, En6
	.byte W12
	.byte N06
	.byte Fs1, En2
	.byte W24
	.byte PATT
		.word track_77_lbl_229f11
	.byte N06
	.byte An1, Cn4
	.byte W12
	.byte Fs1, CnM1
	.byte W12
	.byte Fs1, GsM1
	.byte W12
	.byte N12
	.byte Cn4, En6
	.byte W12
	.byte N06
	.byte Fs1, En2
	.byte W12
	.byte An1, Cn4
	.byte W24
	.byte Fs1, CnM1
	.byte N06
	.byte As1, En1
	.byte N12
	.byte Cn4, En6
	.byte W24
	.byte N18
	.byte As1, CnM1
	.byte N06
	.byte Cs2, En2
	.byte N12
	.byte Cn4, En6
	.byte W12
	.byte PATT
		.word track_77_lbl_229e72
	.byte N18
	.byte Cs2, En7
	.byte N12
	.byte Cn4, En6
	.byte W24
	.byte N06
	.byte Fs1, GsM1
	.byte W12
	.byte Fs1, CnM1
	.byte W12
	.byte Fs1, Gs0
	.byte W12
	.byte En1, Cn4
	.byte N06
	.byte Fs1, CnM1
	.byte W12
	.byte Fs1, GsM1
	.byte N12
	.byte Cn4, En6
	.byte W12
	.byte N18
	.byte As1, GsM1
	.byte W12
	.byte N06
	.byte En1, Cn4
	.byte W24
	.byte N12
	.byte Cn4, En6
	.byte W24
	.byte N06
	.byte Fs1, GsM1
	.byte W12
	.byte N12
	.byte Cn4, En6
	.byte W12
	.byte N06
	.byte En1, Gs5
	.byte N06
	.byte Fs1, Gs0
	.byte W12
	.byte Fs1, CnM1
	.byte W12
	.byte N18
	.byte Cs2, Cn4
	.byte N12
	.byte Cn4, En6
	.byte W36
	.byte N06
	.byte En1, Cn4
	.byte W12
	.byte PATT
		.word track_77_lbl_229eb4
	.byte N12
	.byte Cn4, En6
	.byte W24
	.byte N06
	.byte Fs1, GsM1
	.byte W12
	.byte Fs1, CnM1
	.byte W12
	.byte En1, Gs5
	.byte N06
	.byte Fs1, Gs0
	.byte W12
	.byte Fs1, CnM1
	.byte W60
	.byte PAN, c_v+10
	.byte N12
	.byte Cn4, Cn8
	.byte W72
	.byte VOICE, 36
	.byte VOL, 70
	.byte N72
	.byte Cn4, Gs5
	.byte W72
	.byte Ds4
	.byte W72
	.byte Fs4
	.byte W72
	.byte An4, Cn3
	.byte W72
	.byte Fs4
	.byte W72
	.byte An4
	.byte W72
	.byte Cn5, Gs4
	.byte W72
	.byte VOICE, 0
	.byte PAN, c_v+10
	.byte VOL, 63
	.byte N12
	.byte En1, En6
	.byte W36
	.byte En1, Gs4
	.byte W24
	.byte Cs2, Gn8
	.byte W12
	.byte Cn4
	.byte W24
	.byte GOTO
		.word track_77_lbl_229e27

	.byte FINE

track_77_8:
	.byte KEYSH, 0
	.byte VOICE, 36
	.byte PAN, c_v+16
	.byte VOL, 49
	.byte PRIO, 26
	.byte N36
	.byte Ds5, Gs5
	.byte W36
	.byte Fs5, En6
	.byte W36
	.byte N24
	.byte An5, En7
	.byte W24
track_77_lbl_22a19e:
	.byte PAN, c_v+16
	.byte W96
	.byte W24
	.byte W96
	.byte W24
	.byte W96
	.byte W24
	.byte W96
	.byte W24
	.byte W96
	.byte W24
	.byte W96
	.byte W24
	.byte W96
	.byte W24
	.byte W96
	.byte W24
	.byte W96
	.byte W24
	.byte W96
	.byte W24
	.byte W96
	.byte W24
	.byte W96
	.byte W24
	.byte W96
	.byte W24
	.byte W96
	.byte W24
	.byte W96
	.byte W24
	.byte W96
	.byte W24
	.byte W96
	.byte W24
	.byte W96
	.byte W24
	.byte W96
	.byte W24
	.byte W96
	.byte W24
	.byte W96
	.byte W24
	.byte W96
	.byte W24
	.byte W96
	.byte W24
	.byte W96
	.byte W24
	.byte W96
	.byte W96
	.byte W96
	.byte W72
	.byte W96
	.byte W24
	.byte W96
	.byte W24
	.byte W96
	.byte W24
	.byte W96
	.byte W24
	.byte W96
	.byte W24
	.byte W96
	.byte W24
	.byte W96
	.byte W24
	.byte W96
	.byte W24
	.byte VOICE, 4
	.byte VOL, 70
	.byte N05
	.byte Cn3, Cn3
	.byte W12
	.byte N05
	.byte W24
	.byte N05
	.byte W12
	.byte N05
	.byte W24
	.byte N05
	.byte W12
	.byte N05
	.byte W12
	.byte N05
	.byte W12
	.byte N05
	.byte W24
	.byte N05
	.byte W12
	.byte W12
	.byte Cn3, En3
	.byte W24
	.byte Cn3, Gs3
	.byte W12
	.byte Cn3, Cn4
	.byte W24
	.byte Cn3, En4
	.byte W12
	.byte Cn3, Gs4
	.byte W24
	.byte Cn3, Cn5
	.byte W24
	.byte Cn3, En5
	.byte W12
	.byte W12
	.byte Cn3, Gs5
	.byte W24
	.byte Cn3, En6
	.byte W36
	.byte W24
	.byte N06
	.byte Fs3, Cn4
	.byte W08
	.byte Gn4
	.byte W08
	.byte Bn2, Gs4
	.byte W08
	.byte Gn2
	.byte W08
	.byte Dn3
	.byte W08
	.byte As3
	.byte W08
	.byte An2
	.byte W08
	.byte Bn2
	.byte W08
	.byte Fn4
	.byte W08
	.byte Gn2
	.byte W08
	.byte Dn3
	.byte W08
	.byte Bn3
	.byte W32
	.byte W72
	.byte VOICE, 36
	.byte PAN, c_v+16
	.byte VOL, 49
	.byte N36
	.byte Ds5, En6
	.byte W36
	.byte Fs5
	.byte W36
	.byte N24
	.byte An5, En7
	.byte W24
	.byte GOTO
		.word track_77_lbl_22a19e

	.byte FINE

track_77_9:
	.byte KEYSH, 0
	.byte VOICE, 6
	.byte PAN, c_v-14
	.byte VOL, 17
	.byte PRIO, 25
	.byte N84
	.byte Ds3, En7
	.byte N84
	.byte Fs3
	.byte W02
	.byte VOL, 2
	.byte W03
	.byte FnM2
	.byte W04
	.byte AnM2
	.byte W03
	.byte BnM2
	.byte W03
	.byte DnM1
	.byte W04
	.byte FnM1
	.byte W03
	.byte GnM1
	.byte W04
	.byte AsM1
	.byte W03
	.byte Cs0
	.byte W04
	.byte En0
	.byte W03
	.byte Gn0
	.byte W04
	.byte As0
	.byte W03
	.byte Cn1
	.byte W04
	.byte En1
	.byte W03
	.byte Fs1
	.byte W03
	.byte An1
	.byte W04
	.byte Cn2
	.byte W03
	.byte Ds2
	.byte W04
	.byte Fn2
	.byte W03
	.byte Gs2
	.byte W04
	.byte Bn2
	.byte W03
	.byte Dn3
	.byte W04
	.byte Fn3
	.byte W03
	.byte Gs3
	.byte W02
	.byte An3
	.byte W13
track_77_lbl_22a28f:
	.byte PAN, c_v-14
	.byte W96
	.byte W24
	.byte W96
	.byte W24
	.byte W96
	.byte W24
	.byte W96
	.byte W24
	.byte W96
	.byte W24
	.byte W96
	.byte W24
	.byte W96
	.byte W24
	.byte W96
	.byte W24
	.byte W96
	.byte W24
	.byte W96
	.byte W24
	.byte W96
	.byte W24
	.byte W96
	.byte W24
	.byte W96
	.byte W24
	.byte W96
	.byte W24
	.byte W96
	.byte W24
	.byte W96
	.byte W24
	.byte W96
	.byte W24
	.byte W96
	.byte W24
	.byte W96
	.byte W24
	.byte W96
	.byte W24
	.byte W96
	.byte W24
	.byte W96
	.byte W24
	.byte W96
	.byte W24
	.byte W96
	.byte W24
	.byte W96
	.byte W96
	.byte W96
	.byte W72
	.byte W96
	.byte W24
	.byte W96
	.byte W24
	.byte W96
	.byte W24
	.byte W96
	.byte W24
	.byte W96
	.byte W24
	.byte W96
	.byte W24
	.byte W96
	.byte W24
	.byte W96
	.byte W24
	.byte VOICE, 36
	.byte VOL, 70
	.byte N72
	.byte Ds4, Gs5
	.byte W72
	.byte W72
	.byte W72
	.byte W72
	.byte VOICE, 6
	.byte VOL, 90
	.byte BENDR, 0
	.byte N96
	.byte Ds3, Gs0
	.byte W72
	.byte W72
	.byte W72
	.byte W72
	.byte VOICE, 6
	.byte PAN, c_v-14
	.byte VOL, 17
	.byte N84
	.byte Ds3, En7
	.byte N84
	.byte Fs3
	.byte W02
	.byte VOL, 2
	.byte W03
	.byte FnM2
	.byte W04
	.byte AnM2
	.byte W03
	.byte BnM2
	.byte W03
	.byte DnM1
	.byte W04
	.byte FnM1
	.byte W03
	.byte GnM1
	.byte W04
	.byte AsM1
	.byte W03
	.byte Cs0
	.byte W04
	.byte En0
	.byte W03
	.byte Gn0
	.byte W04
	.byte As0
	.byte W03
	.byte Cn1
	.byte W04
	.byte En1
	.byte W03
	.byte Fs1
	.byte W03
	.byte An1
	.byte W04
	.byte Cn2
	.byte W03
	.byte Ds2
	.byte W04
	.byte Fn2
	.byte W03
	.byte Gs2
	.byte W04
	.byte Bn2
	.byte W03
	.byte Dn3
	.byte W04
	.byte Fn3
	.byte W03
	.byte Gs3
	.byte W02
	.byte An3
	.byte W13
	.byte GOTO
		.word track_77_lbl_22a28f

	.byte FINE

track_77_10:
	.byte KEYSH, 0
	.byte VOICE, 8
	.byte VOL, 70
	.byte PAN, c_v
	.byte PRIO, 30
	.byte N36
	.byte Ds2, En6
	.byte W36
	.byte Fs2, En7
	.byte W36
	.byte N24
	.byte An2
	.byte W24
track_77_lbl_22a346:
	.byte VOICE, 8
	.byte VOL, 85
	.byte PAN, c_v
	.byte N16
	.byte Cn1, Cn8
	.byte W36
	.byte N16
	.byte W36
	.byte Cs1
	.byte W48
track_77_lbl_22a354:
	.byte N16
	.byte Cn1, Cn8
	.byte W36
	.byte N16
	.byte W36
	.byte Cs1
	.byte W48
	.byte PEND
	.byte PATT
		.word track_77_lbl_22a354
	.byte PATT
		.word track_77_lbl_22a354
track_77_lbl_22a367:
	.byte N16
	.byte Cn1, Cn7
	.byte W36
	.byte N16
	.byte W36
	.byte Cs1
	.byte W48
	.byte PEND
	.byte PATT
		.word track_77_lbl_22a367
	.byte PATT
		.word track_77_lbl_22a367
	.byte PATT
		.word track_77_lbl_22a367
track_77_lbl_22a37f:
	.byte N12
	.byte Ds1, Cn7
	.byte W36
	.byte N12
	.byte W36
	.byte En1
	.byte W48
	.byte PEND
	.byte PATT
		.word track_77_lbl_22a37f
	.byte PATT
		.word track_77_lbl_22a37f
	.byte N12
	.byte Ds1, En6
	.byte W36
	.byte Ds1, Cn7
	.byte W36
	.byte En1, Gs7
	.byte W48
	.byte PATT
		.word track_77_lbl_22a37f
	.byte PATT
		.word track_77_lbl_22a37f
	.byte PATT
		.word track_77_lbl_22a37f
	.byte PATT
		.word track_77_lbl_22a37f
	.byte PATT
		.word track_77_lbl_22a367
	.byte PATT
		.word track_77_lbl_22a367
	.byte PATT
		.word track_77_lbl_22a367
	.byte PATT
		.word track_77_lbl_22a367
	.byte PATT
		.word track_77_lbl_22a367
	.byte PATT
		.word track_77_lbl_22a367
	.byte PATT
		.word track_77_lbl_22a367
	.byte PATT
		.word track_77_lbl_22a367
	.byte VOL, 85
	.byte N96
	.byte Fs0, Gs4
	.byte W96
	.byte Gn0
	.byte W96
	.byte Gs0, Cn5
	.byte W96
	.byte N32
	.byte Fn2, En6, DnM2
	.byte W36
	.byte En2, En6, DnM2
	.byte W36
	.byte PATT
		.word track_77_lbl_22a37f
	.byte PATT
		.word track_77_lbl_22a37f
	.byte PATT
		.word track_77_lbl_22a37f
	.byte PATT
		.word track_77_lbl_22a37f
track_77_lbl_22a400:
	.byte N12
	.byte Cn1, Cn7
	.byte W36
	.byte N12
	.byte W36
	.byte Cs1
	.byte W48
	.byte PEND
	.byte PATT
		.word track_77_lbl_22a400
	.byte PATT
		.word track_77_lbl_22a400
	.byte PATT
		.word track_77_lbl_22a400
	.byte VOL, 70
	.byte N72
	.byte Ds1, En7
	.byte W72
	.byte Cn1
	.byte W72
	.byte Ds1
	.byte W72
	.byte Fs1
	.byte W72
	.byte An1
	.byte W72
	.byte Fs1
	.byte W72
	.byte An1
	.byte W72
	.byte Cn2
	.byte W72
	.byte VOICE, 8
	.byte VOL, 70
	.byte PAN, c_v
	.byte N36
	.byte Ds2, En6
	.byte W36
	.byte Fs2
	.byte W36
	.byte N24
	.byte An2, En7
	.byte W24
	.byte GOTO
		.word track_77_lbl_22a346

	.byte FINE

track_77_11:
	.byte KEYSH, 0
	.byte VOICE, 16
	.byte VOL, 85
	.byte PAN, c_v
	.byte PRIO, 29
	.byte W96
track_77_lbl_22a44d:
	.byte VOICE, 16
	.byte VOL, 85
	.byte PAN, c_v
	.byte N12
	.byte Cn1, Cn8
	.byte W12
	.byte Cn2, En7
	.byte W48
	.byte Cn1
	.byte W24
	.byte Cs1
	.byte W12
	.byte As1
	.byte W24
track_77_lbl_22a460:
	.byte N12
	.byte Cn1, Cn8
	.byte W12
	.byte Cn2, En7
	.byte W48
	.byte Cn1
	.byte W24
	.byte Cs1
	.byte W12
	.byte As1
	.byte W24
	.byte PEND
	.byte PATT
		.word track_77_lbl_22a460
	.byte PATT
		.word track_77_lbl_22a460
	.byte PATT
		.word track_77_lbl_22a460
	.byte PATT
		.word track_77_lbl_22a460
	.byte PATT
		.word track_77_lbl_22a460
	.byte PATT
		.word track_77_lbl_22a460
track_77_lbl_22a48c:
	.byte N12
	.byte Ds1, En7
	.byte W12
	.byte N10
	.byte Ds2, En6
	.byte W48
	.byte Ds1
	.byte W24
	.byte En1
	.byte W12
	.byte Cs2
	.byte W24
	.byte PEND
	.byte PATT
		.word track_77_lbl_22a48c
	.byte PATT
		.word track_77_lbl_22a48c
track_77_lbl_22a4a5:
	.byte N12
	.byte Ds1, En6
	.byte W12
	.byte N10
	.byte Ds2, Gs6
	.byte W48
	.byte Ds1, En7
	.byte W24
	.byte En1, Cn8
	.byte W12
	.byte Cs2
	.byte W24
	.byte PEND
	.byte PATT
		.word track_77_lbl_22a48c
	.byte PATT
		.word track_77_lbl_22a48c
	.byte PATT
		.word track_77_lbl_22a48c
	.byte PATT
		.word track_77_lbl_22a48c
	.byte W96
	.byte W24
	.byte W96
	.byte W24
	.byte W96
	.byte W24
	.byte W96
	.byte W24
track_77_lbl_22a4d2:
	.byte N12
	.byte Cn1, En7
	.byte W12
	.byte Cn2, En6
	.byte W48
	.byte Cn1
	.byte W24
	.byte Cs1
	.byte W12
	.byte As1
	.byte W24
	.byte PEND
	.byte PATT
		.word track_77_lbl_22a4d2
	.byte PATT
		.word track_77_lbl_22a4d2
	.byte PATT
		.word track_77_lbl_22a4d2
	.byte W96
	.byte W96
	.byte W96
	.byte W72
	.byte PATT
		.word track_77_lbl_22a48c
	.byte PATT
		.word track_77_lbl_22a48c
	.byte PATT
		.word track_77_lbl_22a48c
	.byte PATT
		.word track_77_lbl_22a4a5
track_77_lbl_22a507:
	.byte N12
	.byte Cn1, En7
	.byte W12
	.byte N10
	.byte Cn2, En6
	.byte W48
	.byte Cn1
	.byte W24
	.byte Cs1
	.byte W12
	.byte As1
	.byte W24
	.byte PEND
	.byte PATT
		.word track_77_lbl_22a507
	.byte PATT
		.word track_77_lbl_22a507
	.byte PATT
		.word track_77_lbl_22a507
	.byte W72
	.byte W72
	.byte W72
	.byte W72
	.byte W72
	.byte W72
	.byte W72
	.byte W72
	.byte VOICE, 16
	.byte VOL, 85
	.byte PAN, c_v
	.byte W96
	.byte GOTO
		.word track_77_lbl_22a44d

	.byte FINE

.align 2

track_77:
	.byte 12
	.byte 0
	.byte 130
	.byte 0
	.word voice_group22
	.word track_77_0
	.word track_77_1
	.word track_77_2
	.word track_77_3
	.word track_77_4
	.word track_77_5
	.word track_77_6
	.word track_77_7
	.word track_77_8
	.word track_77_9
	.word track_77_10
	.word track_77_11

.align 2
