.include "audio/m_play_def.s"

.align 2

.section .rodata
.global track_466

track_466_0:
	.byte KEYSH, 0
	.byte TEMPO, 75
	.byte VOICE, 15
	.byte VOL, 82
	.byte PAN, c_v-20
	.byte BENDR, 6
	.byte PRIO, 1
	.byte BEND, c_v+13
	.byte TIE
	.byte Cn3, Cn7
	.byte W03
	.byte BEND, c_v+16
	.byte W03
	.byte Bn4
	.byte W06
	.byte Cs5
	.byte W03
	.byte Cn5
	.byte W03
	.byte Bn4
	.byte W06
	.byte As4
	.byte W03
	.byte An4
	.byte W03
	.byte Gn4
	.byte W03
	.byte Fn4
	.byte W03
	.byte En4
	.byte W03
	.byte Dn4
	.byte W03
	.byte Cn4
	.byte W03
	.byte An3
	.byte W03
	.byte Gn3
	.byte W03
	.byte Fn3
	.byte W13
	.byte VOICE, 16
	.byte VOL, 78
	.byte BEND, c_v
	.byte TIE
	.byte En3, En7
	.byte W32
	.byte W48
	.byte W02
	.byte EOT, Cn3
	.byte W14
	.byte VOL, 69
	.byte W02
	.byte Dn3
	.byte W02
	.byte Gs2
	.byte W02
	.byte Ds2
	.byte W02
	.byte Cn2
	.byte W02
	.byte An1
	.byte W02
	.byte Fs1
	.byte W02
	.byte Ds1
	.byte W02
	.byte Cs1
	.byte W02
	.byte Bn0
	.byte W02
	.byte An0
	.byte W04
	.byte EOT, En3
	.byte VOICE, 15
	.byte VOL, 78
	.byte BENDR, 12
	.byte N72
	.byte Cn3, En7, DsM2
	.byte W06
	.byte BEND, c_v+15
	.byte W02
	.byte W04
	.byte Bn5
	.byte W06
	.byte Fs8
	.byte W56
	.byte W01
	.byte Ds7
	.byte N92
	.byte W12
	.byte BEND, c_v+31
	.byte W17
	.byte W13
	.byte Gn4
	.byte W06
	.byte En3
	.byte W32
	.byte VOL, 60
	.byte W01
	.byte Cn2
	.byte W01
	.byte Cs1
	.byte W01
	.byte Fn0
	.byte W01
	.byte BnM1
	.byte W01
	.byte FsM1
	.byte W01
	.byte DnM1
	.byte W01
	.byte AsM2
	.byte W01
	.byte GnM2
	.byte W01
	.byte EnM2
	.byte W01
	.byte DnM2
	.byte W01
	.byte CnM2
	.byte W01
	.byte Dn6
	.byte BENDR, 24
	.byte N48
	.byte Cn3, Gn8, CsM2
	.byte W12
	.byte BEND, c_v+31
	.byte W06
	.byte Gn8
	.byte W15
	.byte W16
	.byte N36
	.byte Cn3, Gs0, DnM2
	.byte W36
	.byte W02
	.byte Cn3, GsM2, DnM2
	.byte W36
	.byte W02

	.byte FINE

track_466_1:
	.byte KEYSH, 0
	.byte VOICE, 7
	.byte VOL, 100
	.byte PAN, c_v-20
	.byte N08
	.byte En3, Cn3
	.byte W24
	.byte N05
	.byte Dn3, En7
	.byte W05
	.byte N14
	.byte En3, Gn8
	.byte W14
	.byte N13
	.byte Cn3, Cn3
	.byte W28
	.byte W01
	.byte N05
	.byte En3, En7
	.byte W05
	.byte N14
	.byte Dn3, Gn8
	.byte W14
	.byte N13
	.byte Cn3, Cn3
	.byte W05
	.byte W24
	.byte N05
	.byte Cn3, En7
	.byte W05
	.byte N14
	.byte En3, Gn8
	.byte W14
	.byte N13
	.byte Dn3, Cn3
	.byte W28
	.byte W01
	.byte N05
	.byte Dn3, En7
	.byte W05
	.byte N14
	.byte Cn3, Gn8
	.byte W14
	.byte N13
	.byte En3, Cn3
	.byte W05
	.byte W24
	.byte N05
	.byte En3, En7
	.byte W05
	.byte N14
	.byte Cn3, Gn8
	.byte W14
	.byte N13
	.byte Dn3, Cn3
	.byte W28
	.byte W01
	.byte N05
	.byte Cn3, En7
	.byte W05
	.byte N14
	.byte Dn3, Gn8
	.byte W14
	.byte N13
	.byte En3, Cn3
	.byte W05
	.byte W24
	.byte N05
	.byte Dn3, En7
	.byte W05
	.byte N14
	.byte En3, Gn8
	.byte W14
	.byte N13
	.byte Cn3, Cn3
	.byte W28
	.byte W01
	.byte N05
	.byte En3, En7
	.byte W05
	.byte N14
	.byte Dn3, Gn8
	.byte W14
	.byte N13
	.byte Cn3, Cn3
	.byte W05
	.byte W08

	.byte FINE

track_466_2:
	.byte KEYSH, 0
	.byte VOICE, 6
	.byte VOL, 90
	.byte PAN, c_v-20
	.byte N03
	.byte Bn2, Gs5
	.byte W03
	.byte VOICE, 19
	.byte N07
	.byte Cn3
	.byte W07
	.byte N21
	.byte Bn2, Cn4
	.byte W36
	.byte W02
	.byte VOICE, 6
	.byte N03
	.byte Bn2, Gs5
	.byte W03
	.byte VOICE, 19
	.byte N06
	.byte W06
	.byte N21
	.byte Cn3, Cn4
	.byte W36
	.byte W03
	.byte VOICE, 6
	.byte N03
	.byte Bn2, Gs5
	.byte W03
	.byte VOICE, 19
	.byte N07
	.byte Dn3
	.byte W07
	.byte N21
	.byte Cn3, Cn4
	.byte W36
	.byte W02
	.byte VOICE, 6
	.byte N03
	.byte Bn2, Gs5
	.byte W03
	.byte VOICE, 19
	.byte N06
	.byte W06
	.byte N21
	.byte Cn3, Cn4
	.byte W36
	.byte W03
	.byte VOICE, 6
	.byte N03
	.byte Bn2, Gs5
	.byte W03
	.byte VOICE, 19
	.byte N07
	.byte An2
	.byte W07
	.byte N21
	.byte Bn2, Cn4
	.byte W36
	.byte W02
	.byte VOICE, 6
	.byte N03
	.byte Bn2, Gs5
	.byte W03
	.byte VOICE, 19
	.byte N07
	.byte Dn3
	.byte W07
	.byte N21
	.byte Cn3, Cn4
	.byte W36
	.byte W02
	.byte VOICE, 6
	.byte N03
	.byte Bn2, Gs5
	.byte W03
	.byte VOICE, 19
	.byte N07
	.byte Cn3
	.byte W07
	.byte N21
	.byte Bn2, Cn4
	.byte W36
	.byte W02
	.byte VOICE, 6
	.byte N03
	.byte Bn2, Gs5
	.byte W03
	.byte VOICE, 19
	.byte N06
	.byte W06
	.byte N21
	.byte Cn3, Cn4
	.byte W36
	.byte W03
	.byte VOICE, 6
	.byte N03
	.byte Bn2, Gs5
	.byte W03
	.byte VOICE, 19
	.byte N07
	.byte Dn3
	.byte W07
	.byte N21
	.byte Cn3, Cn4
	.byte W21

	.byte FINE

track_466_3:
	.byte KEYSH, 0
	.byte VOICE, 18
	.byte VOL, 100
	.byte PAN, c_v
	.byte PRIO, 25
	.byte W28
	.byte N05
	.byte Gs2, Gs4
	.byte W05
	.byte N10
	.byte Gs2, En7
	.byte W42
	.byte W01
	.byte N05
	.byte Gs2, Gs4
	.byte W05
	.byte N10
	.byte Gs2, En7
	.byte W15
track_466_lbl_214fd1:
	.byte W28
	.byte N05
	.byte Gs2, Gs4
	.byte W05
	.byte N10
	.byte Gs2, En7
	.byte W42
	.byte W01
	.byte N05
	.byte Gs2, Gs4
	.byte W05
	.byte N10
	.byte Gs2, En7
	.byte W15
	.byte PEND
	.byte PATT
		.word track_466_lbl_214fd1
	.byte PATT
		.word track_466_lbl_214fd1
	.byte W07
	.byte N05
	.byte Gs2, Gs4
	.byte W05
	.byte N10
	.byte Gs2, En7
	.byte W10

	.byte FINE

.align 2

track_466:
	.byte 4
	.byte 0
	.byte 228
	.byte 0
	.word voice_group10
	.word track_466_0
	.word track_466_1
	.word track_466_2
	.word track_466_3

.align 2
