.align 2

.global track_691

track_691_0:
	.byte KEYSH, 0
	.byte TEMPO, 75
	.byte PAN, c_v+36
	.byte W04
	.byte VOICE, 1
	.byte VOL, 0
	.byte PAN, c_v
	.byte N32, Cn3, v092, 2
	.byte W02
	.byte VOL, 0
	.byte W09
	.byte PAN, c_v+35
	.byte W01
	.byte VOL, 1
	.byte W03
	.byte 1 @ VOL
	.byte W13
	.byte 2 @ VOL
	.byte W02
	.byte 3 @ VOL
	.byte W08
	.byte PAN, c_v+34
	.byte W06
	.byte VOL, 3
	.byte W02
	.byte 4 @ VOL
	.byte W10
	.byte 5 @ VOL
	.byte W02
	.byte 5 @ VOL
	.byte W07
	.byte PAN, c_v+33
	.byte W05
	.byte VOL, 6
	.byte W02
	.byte 6 @ VOL
	.byte N32, Cn3, v092, 2
	.byte W07
	.byte VOL, 7
	.byte W02
	.byte 8 @ VOL
	.byte W08
	.byte PAN, c_v+32
	.byte W02
	.byte VOL, 8
	.byte W01
	.byte W01
	.byte 9 @ VOL
	.byte W07
	.byte 10 @ VOL
	.byte W01
	.byte 10 @ VOL
	.byte W09
	.byte 11 @ VOL
	.byte W01
	.byte 11 @ VOL
	.byte W05
	.byte PAN, c_v+31
	.byte W02
	.byte VOL, 12
	.byte W01
	.byte 13 @ VOL
	.byte W05
	.byte 13 @ VOL
	.byte W02
	.byte 14 @ VOL
	.byte W07
	.byte 15 @ VOL
	.byte W02
	.byte 15 @ VOL
	.byte W05
	.byte 16 @ VOL
	.byte W01
	.byte 17 @ VOL
	.byte W02
	.byte PAN, c_v+30
	.byte W01
	.byte N32, Cn3, v092, 2
	.byte W03
	.byte VOL, 17
	.byte W01
	.byte 18 @ VOL
	.byte W06
	.byte 18 @ VOL
	.byte W01
	.byte 19 @ VOL
	.byte W05
	.byte 20 @ VOL
	.byte W02
	.byte 20 @ VOL
	.byte W04
	.byte 21 @ VOL
	.byte W01
	.byte 22 @ VOL
	.byte W03
	.byte PAN, c_v+29
	.byte W02
	.byte VOL, 22
	.byte W02
	.byte 23 @ VOL
	.byte W04
	.byte 24 @ VOL
	.byte W05
	.byte 25 @ VOL
	.byte W01
	.byte 25 @ VOL
	.byte W04
	.byte 27 @ VOL
	.byte W04
	.byte 27 @ VOL
	.byte W01
	.byte 28 @ VOL
	.byte W04
	.byte 28 @ VOL
	.byte PAN, c_v+28
	.byte W01
	.byte VOL, 29
	.byte W02
	.byte 30 @ VOL
	.byte W01
	.byte 30 @ VOL
	.byte W04
	.byte 31 @ VOL
	.byte W01
	.byte 32 @ VOL
	.byte W02
	.byte 32 @ VOL
	.byte W01
	.byte 33 @ VOL
	.byte W03
	.byte 34 @ VOL
	.byte W01
	.byte 34 @ VOL
	.byte W03
	.byte 35 @ VOL
	.byte N32, Cn3, v092, 2
	.byte W04
	.byte VOL, 37
	.byte W01
	.byte PAN, c_v+27
	.byte W01
	.byte VOL, 37
	.byte W01
	.byte 38 @ VOL
	.byte W03
	.byte 39 @ VOL
	.byte W03
	.byte 40 @ VOL
	.byte W01
	.byte 40 @ VOL
	.byte W02
	.byte 42 @ VOL
	.byte W03
	.byte 42 @ VOL
	.byte W01
	.byte 43 @ VOL
	.byte W02
	.byte 44 @ VOL
	.byte W02
	.byte 45 @ VOL
	.byte W01
	.byte 45 @ VOL
	.byte W02
	.byte 46 @ VOL
	.byte W01
	.byte 47 @ VOL
	.byte W02
	.byte 48 @ VOL
	.byte W02
	.byte 49 @ VOL
	.byte PAN, c_v+26
	.byte W03
	.byte VOL, 51
	.byte W02
	.byte 51 @ VOL
	.byte W01
	.byte 52 @ VOL
	.byte W02
	.byte 53 @ VOL
	.byte W02
	.byte 54 @ VOL
	.byte W02
	.byte 56 @ VOL
	.byte W02
	.byte 56 @ VOL
	.byte W01
	.byte 57 @ VOL
	.byte W01
	.byte 57 @ VOL
	.byte W01
	.byte 58 @ VOL
	.byte W01
	.byte 59 @ VOL
	.byte W01
	.byte 59 @ VOL
	.byte W01
	.byte 60 @ VOL
	.byte W01
	.byte 61 @ VOL
	.byte W02
	.byte 62 @ VOL
	.byte W01
	.byte 62 @ VOL
	.byte W01
	.byte 63 @ VOL
	.byte W02
	.byte 64 @ VOL
	.byte PAN, c_v+25
	.byte W01
	.byte VOL, 65
	.byte W01
	.byte 66 @ VOL
	.byte W01
	.byte 66 @ VOL
	.byte W01
	.byte 67 @ VOL
	.byte W01
	.byte 68 @ VOL
	.byte W02
	.byte 69 @ VOL
	.byte W02
	.byte 71 @ VOL
	.byte W02
	.byte 72 @ VOL
	.byte W02
	.byte 73 @ VOL
	.byte N32, Cn3, v092, 2
	.byte W01
	.byte VOL, 74
	.byte W01
	.byte 74 @ VOL
	.byte W01
	.byte 76 @ VOL
	.byte W01
	.byte 76 @ VOL
	.byte W01
	.byte 77 @ VOL
	.byte W01
	.byte 78 @ VOL
	.byte W02
	.byte 80 @ VOL
	.byte W06
	.byte PAN, c_v+24
	.byte W24
	.byte W03
	.byte c_v+23 @ PAN
	.byte W24
	.byte c_v+22 @ PAN
	.byte W07
	.byte N32, Cn3, v092, 2
	.byte W20
	.byte PAN, c_v+21
	.byte W24
	.byte W03
	.byte c_v+20 @ PAN
	.byte W24
	.byte W01
	.byte N32, Cn3, v092, 2
	.byte W02
	.byte PAN, c_v+19
	.byte W24
	.byte W03
	.byte c_v+18 @ PAN
	.byte W15
	.byte W09
	.byte c_v+17 @ PAN
	.byte W19
	.byte N32, Cn3, v092, 2
	.byte W08
	.byte PAN, c_v+16
	.byte W24
	.byte W03
	.byte c_v+15 @ PAN
	.byte W24
	.byte W03
	.byte c_v+14 @ PAN
	.byte W06
	.byte W04
	.byte N32, Cn3, v092, 2
	.byte W14
	.byte PAN, c_v+14
	.byte W03
	.byte c_v+13 @ PAN
	.byte W24
	.byte c_v+12 @ PAN
	.byte W24
	.byte W03
	.byte c_v+11 @ PAN
	.byte W04
	.byte N32, Cn3, v092, 2
	.byte W20
	.byte W03
	.byte PAN, c_v+10
	.byte W24
	.byte W03
	.byte c_v+9 @ PAN
	.byte W22
	.byte N32, Cn3, v092, 2
	.byte W05
	.byte PAN, c_v+8
	.byte W24
	.byte c_v+7 @ PAN
	.byte W15
	.byte W12
	.byte c_v+6 @ PAN
	.byte W16
	.byte N32, Cn3, v092, 2
	.byte W32
	.byte W02
	.byte FINE

track_691_1:
	.byte KEYSH, 0
	.byte PAN, c_v+36
	.byte W15
	.byte c_v+35 @ PAN
	.byte W24
	.byte W03
	.byte c_v+34 @ PAN
	.byte W02
	.byte VOICE, 1
	.byte VOL, 0
	.byte PAN, c_v
	.byte N32, Cn3, v060, 2
	.byte W04
	.byte VOL, 3
	.byte W02
	.byte 4 @ VOL
	.byte W10
	.byte 5 @ VOL
	.byte W02
	.byte 5 @ VOL
	.byte W07
	.byte PAN, c_v+33
	.byte W05
	.byte VOL, 6
	.byte W02
	.byte 6 @ VOL
	.byte W07
	.byte 7 @ VOL
	.byte W02
	.byte 8 @ VOL
	.byte W08
	.byte PAN, c_v+32
	.byte W02
	.byte VOL, 8
	.byte W01
	.byte W01
	.byte 9 @ VOL
	.byte W07
	.byte 10 @ VOL
	.byte W01
	.byte 10 @ VOL
	.byte W09
	.byte 11 @ VOL
	.byte W01
	.byte 11 @ VOL
	.byte W01
	.byte N32, Cn3, v060, 2
	.byte W04
	.byte PAN, c_v+31
	.byte W02
	.byte VOL, 12
	.byte W01
	.byte 13 @ VOL
	.byte W05
	.byte 13 @ VOL
	.byte W02
	.byte 14 @ VOL
	.byte W07
	.byte 15 @ VOL
	.byte W02
	.byte 15 @ VOL
	.byte W05
	.byte 16 @ VOL
	.byte W01
	.byte 17 @ VOL
	.byte W02
	.byte PAN, c_v+30
	.byte W04
	.byte VOL, 17
	.byte W01
	.byte 18 @ VOL
	.byte W06
	.byte 18 @ VOL
	.byte W01
	.byte 19 @ VOL
	.byte W05
	.byte 20 @ VOL
	.byte W02
	.byte 20 @ VOL
	.byte W04
	.byte 21 @ VOL
	.byte W01
	.byte 22 @ VOL
	.byte W03
	.byte PAN, c_v+29
	.byte W02
	.byte VOL, 22
	.byte W02
	.byte 23 @ VOL
	.byte W04
	.byte 24 @ VOL
	.byte W05
	.byte 25 @ VOL
	.byte W01
	.byte 25 @ VOL
	.byte N32, Cn3, v060, 2
	.byte W04
	.byte VOL, 27
	.byte W04
	.byte 27 @ VOL
	.byte W01
	.byte 28 @ VOL
	.byte W04
	.byte 28 @ VOL
	.byte PAN, c_v+28
	.byte W01
	.byte VOL, 29
	.byte W02
	.byte 30 @ VOL
	.byte W01
	.byte 30 @ VOL
	.byte W04
	.byte 31 @ VOL
	.byte W01
	.byte 32 @ VOL
	.byte W02
	.byte 32 @ VOL
	.byte W01
	.byte 33 @ VOL
	.byte W03
	.byte 34 @ VOL
	.byte W01
	.byte 34 @ VOL
	.byte W03
	.byte 35 @ VOL
	.byte W04
	.byte 37 @ VOL
	.byte W01
	.byte PAN, c_v+27
	.byte W01
	.byte VOL, 37
	.byte W01
	.byte 38 @ VOL
	.byte W03
	.byte 39 @ VOL
	.byte W03
	.byte 40 @ VOL
	.byte W01
	.byte 40 @ VOL
	.byte W02
	.byte 42 @ VOL
	.byte W03
	.byte 42 @ VOL
	.byte W01
	.byte 43 @ VOL
	.byte W02
	.byte 44 @ VOL
	.byte W02
	.byte 45 @ VOL
	.byte W01
	.byte 45 @ VOL
	.byte W02
	.byte 46 @ VOL
	.byte W01
	.byte 47 @ VOL
	.byte W02
	.byte 48 @ VOL
	.byte W02
	.byte 49 @ VOL
	.byte PAN, c_v+26
	.byte W03
	.byte VOL, 51
	.byte W02
	.byte 51 @ VOL
	.byte W01
	.byte 52 @ VOL
	.byte W02
	.byte 53 @ VOL
	.byte N32, Cn3, v060, 2
	.byte W02
	.byte VOL, 54
	.byte W02
	.byte 56 @ VOL
	.byte W02
	.byte 56 @ VOL
	.byte W01
	.byte 57 @ VOL
	.byte W01
	.byte 57 @ VOL
	.byte W01
	.byte 58 @ VOL
	.byte W01
	.byte 59 @ VOL
	.byte W01
	.byte 59 @ VOL
	.byte W01
	.byte 60 @ VOL
	.byte W01
	.byte 61 @ VOL
	.byte W02
	.byte 62 @ VOL
	.byte W01
	.byte 62 @ VOL
	.byte W01
	.byte 63 @ VOL
	.byte W02
	.byte 64 @ VOL
	.byte PAN, c_v+25
	.byte W01
	.byte VOL, 65
	.byte W01
	.byte 66 @ VOL
	.byte W01
	.byte 66 @ VOL
	.byte W01
	.byte 67 @ VOL
	.byte W01
	.byte 68 @ VOL
	.byte W02
	.byte 69 @ VOL
	.byte W02
	.byte 71 @ VOL
	.byte W02
	.byte 72 @ VOL
	.byte W02
	.byte 73 @ VOL
	.byte W01
	.byte 74 @ VOL
	.byte W01
	.byte 74 @ VOL
	.byte W01
	.byte 76 @ VOL
	.byte W01
	.byte 76 @ VOL
	.byte W01
	.byte 77 @ VOL
	.byte W01
	.byte 78 @ VOL
	.byte W02
	.byte 80 @ VOL
	.byte W06
	.byte PAN, c_v+24
	.byte W24
	.byte W02
	.byte N32, Cn3, v060, 2
	.byte W01
	.byte PAN, c_v+23
	.byte W24
	.byte c_v+22 @ PAN
	.byte W24
	.byte W03
	.byte c_v+21 @ PAN
	.byte W20
	.byte N32, Cn3, v060, 2
	.byte W07
	.byte PAN, c_v+20
	.byte W24
	.byte W03
	.byte c_v+19 @ PAN
	.byte W24
	.byte W03
	.byte c_v+18 @ PAN
	.byte W11
	.byte N32, Cn3, v060, 2
	.byte W04
	.byte W09
	.byte PAN, c_v+17
	.byte W24
	.byte W03
	.byte c_v+16 @ PAN
	.byte W24
	.byte W03
	.byte c_v+15 @ PAN
	.byte W05
	.byte N32, Cn3, v060, 2
	.byte W22
	.byte PAN, c_v+14
	.byte W06
	.byte W18
	.byte c_v+14 @ PAN
	.byte W03
	.byte c_v+13 @ PAN
	.byte W23
	.byte N32, Cn3, v060, 2
	.byte W01
	.byte PAN, c_v+12
	.byte W24
	.byte W03
	.byte c_v+11 @ PAN
	.byte W24
	.byte W03
	.byte c_v+10 @ PAN
	.byte W17
	.byte N32, Cn3, v060, 2
	.byte W10
	.byte PAN, c_v+9
	.byte W24
	.byte W03
	.byte c_v+8 @ PAN
	.byte W24
	.byte c_v+7 @ PAN
	.byte W11
	.byte N32, Cn3, v060, 2
	.byte W04
	.byte W12
	.byte PAN, c_v+6
	.byte W56
	.byte N32, Cn3, v060, 2
	.byte W28
	.byte W06
	.byte FINE

track_691_2:
	.byte KEYSH, 0
	.byte VOICE, 0
	.byte VOL, 0
	.byte PAN, c_v+36
	.byte N36, Bn2, v088, 2
	.byte W06
	.byte VOL, 0
	.byte W09
	.byte PAN, c_v+35
	.byte W01
	.byte VOL, 1
	.byte W03
	.byte 1 @ VOL
	.byte W13
	.byte 2 @ VOL
	.byte W02
	.byte 3 @ VOL
	.byte W06
	.byte N32, Cn3, v100
	.byte W02
	.byte PAN, c_v+34
	.byte W06
	.byte VOL, 3
	.byte W02
	.byte 4 @ VOL
	.byte W10
	.byte 5 @ VOL
	.byte W02
	.byte 5 @ VOL
	.byte W07
	.byte PAN, c_v+33
	.byte W03
	.byte N36, Bn2, v088, 2
	.byte W02
	.byte VOL, 6
	.byte W02
	.byte 6 @ VOL
	.byte W07
	.byte 7 @ VOL
	.byte W02
	.byte 8 @ VOL
	.byte W08
	.byte PAN, c_v+32
	.byte W02
	.byte VOL, 8
	.byte W01
	.byte W01
	.byte 9 @ VOL
	.byte W07
	.byte 10 @ VOL
	.byte W01
	.byte 10 @ VOL
	.byte W07
	.byte N32, Cn3, v100
	.byte W02
	.byte VOL, 11
	.byte W01
	.byte 11 @ VOL
	.byte W05
	.byte PAN, c_v+31
	.byte W02
	.byte VOL, 12
	.byte W01
	.byte 13 @ VOL
	.byte W05
	.byte 13 @ VOL
	.byte W02
	.byte 14 @ VOL
	.byte W07
	.byte 15 @ VOL
	.byte W02
	.byte 15 @ VOL
	.byte W05
	.byte 16 @ VOL
	.byte N36, Bn2, v088, 2
	.byte W01
	.byte VOL, 17
	.byte W02
	.byte PAN, c_v+30
	.byte W04
	.byte VOL, 17
	.byte W01
	.byte 18 @ VOL
	.byte W06
	.byte 18 @ VOL
	.byte W01
	.byte 19 @ VOL
	.byte W05
	.byte 20 @ VOL
	.byte W02
	.byte 20 @ VOL
	.byte W04
	.byte 21 @ VOL
	.byte W01
	.byte 22 @ VOL
	.byte W03
	.byte PAN, c_v+29
	.byte W02
	.byte VOL, 22
	.byte W02
	.byte 23 @ VOL
	.byte W04
	.byte 24 @ VOL
	.byte W02
	.byte N32, Cn3, v100
	.byte W03
	.byte VOL, 25
	.byte W01
	.byte 25 @ VOL
	.byte W04
	.byte 27 @ VOL
	.byte W04
	.byte 27 @ VOL
	.byte W01
	.byte 28 @ VOL
	.byte W04
	.byte 28 @ VOL
	.byte PAN, c_v+28
	.byte W01
	.byte VOL, 29
	.byte W02
	.byte 30 @ VOL
	.byte W01
	.byte 30 @ VOL
	.byte W04
	.byte 31 @ VOL
	.byte W01
	.byte 32 @ VOL
	.byte W02
	.byte 32 @ VOL
	.byte W01
	.byte 33 @ VOL
	.byte W03
	.byte 34 @ VOL
	.byte N36, Bn2, v088, 2
	.byte W01
	.byte VOL, 34
	.byte W03
	.byte 35 @ VOL
	.byte W04
	.byte 37 @ VOL
	.byte W01
	.byte PAN, c_v+27
	.byte W01
	.byte VOL, 37
	.byte W01
	.byte 38 @ VOL
	.byte W03
	.byte 39 @ VOL
	.byte W03
	.byte 40 @ VOL
	.byte W01
	.byte 40 @ VOL
	.byte W02
	.byte 42 @ VOL
	.byte W03
	.byte 42 @ VOL
	.byte W01
	.byte 43 @ VOL
	.byte W02
	.byte 44 @ VOL
	.byte W02
	.byte 45 @ VOL
	.byte W01
	.byte 45 @ VOL
	.byte W02
	.byte 46 @ VOL
	.byte W01
	.byte 47 @ VOL
	.byte W02
	.byte 48 @ VOL
	.byte W02
	.byte 49 @ VOL
	.byte PAN, c_v+26
	.byte W03
	.byte VOL, 51
	.byte W01
	.byte N32, Cn3, v100
	.byte W01
	.byte VOL, 51
	.byte W01
	.byte 52 @ VOL
	.byte W02
	.byte 53 @ VOL
	.byte W02
	.byte 54 @ VOL
	.byte W02
	.byte 56 @ VOL
	.byte W02
	.byte 56 @ VOL
	.byte W01
	.byte 57 @ VOL
	.byte W01
	.byte 57 @ VOL
	.byte W01
	.byte 58 @ VOL
	.byte W01
	.byte 59 @ VOL
	.byte W01
	.byte 59 @ VOL
	.byte W01
	.byte 60 @ VOL
	.byte W01
	.byte 61 @ VOL
	.byte W02
	.byte 62 @ VOL
	.byte W01
	.byte 62 @ VOL
	.byte W01
	.byte 63 @ VOL
	.byte W02
	.byte 64 @ VOL
	.byte PAN, c_v+25
	.byte W01
	.byte VOL, 65
	.byte W01
	.byte 66 @ VOL
	.byte W01
	.byte 66 @ VOL
	.byte W01
	.byte 67 @ VOL
	.byte W01
	.byte 68 @ VOL
	.byte W02
	.byte 69 @ VOL
	.byte W02
	.byte 71 @ VOL
	.byte N36, Bn2, v088, 2
	.byte W02
	.byte VOL, 72
	.byte W02
	.byte 73 @ VOL
	.byte W01
	.byte 74 @ VOL
	.byte W01
	.byte 74 @ VOL
	.byte W01
	.byte 76 @ VOL
	.byte W01
	.byte 76 @ VOL
	.byte W01
	.byte 77 @ VOL
	.byte W01
	.byte 78 @ VOL
	.byte W02
	.byte 80 @ VOL
	.byte W06
	.byte PAN, c_v+24
	.byte W22
	.byte N32, Cn3, v100
	.byte W05
	.byte PAN, c_v+23
	.byte W24
	.byte c_v+22 @ PAN
	.byte W03
	.byte N36, Bn2, v088, 2
	.byte W24
	.byte PAN, c_v+21
	.byte W16
	.byte N32, Cn3, v100
	.byte W11
	.byte PAN, c_v+20
	.byte W21
	.byte N36, Bn2, v088, 2
	.byte W06
	.byte PAN, c_v+19
	.byte W24
	.byte W03
	.byte c_v+18 @ PAN
	.byte W07
	.byte N32, Cn3, v100
	.byte W08
	.byte W09
	.byte PAN, c_v+17
	.byte W15
	.byte N36, Bn2, v088, 2
	.byte W12
	.byte PAN, c_v+16
	.byte W24
	.byte W03
	.byte c_v+15 @ PAN
	.byte W01
	.byte N32, Cn3, v100
	.byte W24
	.byte W02
	.byte PAN, c_v+14
	.byte W06
	.byte N36, Bn2, v088, 2
	.byte W18
	.byte PAN, c_v+14
	.byte W03
	.byte c_v+13 @ PAN
	.byte W19
	.byte N32, Cn3, v100
	.byte W05
	.byte PAN, c_v+12
	.byte W24
	.byte W03
	.byte c_v+11 @ PAN
	.byte N36, Bn2, v088, 2
	.byte W24
	.byte W03
	.byte PAN, c_v+10
	.byte W13
	.byte N32, Cn3, v100
	.byte W14
	.byte PAN, c_v+9
	.byte W18
	.byte N36, Bn2, v088, 2
	.byte W09
	.byte PAN, c_v+8
	.byte W24
	.byte c_v+7 @ PAN
	.byte W07
	.byte N32, Cn3, v100
	.byte W08
	.byte W12
	.byte PAN, c_v+6
	.byte W12
	.byte N36, Bn2, v088, 2
	.byte W40
	.byte Cn3, v100 @ N36
	.byte W32
	.byte W04
	.byte FINE

.align 2

track_691:
	.byte 3
	.byte 0
	.byte 252
	.byte 0
	.word voice_group14
	.word track_691_0
	.word track_691_1
	.word track_691_2

.align 2
