.align 2

.global track_69

track_69_0:
	.byte KEYSH, 0
	.byte TEMPO, 70
	.byte PAN, c_v
	.byte PRIO, 120
	.byte W24
track_69_lbl_22574d:
	.byte VOICE, 75
	.byte VOL, 75
	.byte N09, Cn1, v127
	.byte W12
	.byte As0, v112 @ N09
	.byte W12
	.byte Cn1, v127 @ N09
	.byte W12
	.byte As0, v112 @ N09
	.byte W12
	.byte Cn1, v127 @ N09
	.byte W12
	.byte As0, v112 @ N09
	.byte W12
	.byte Cn1 @ N09, v112
	.byte W12
	.byte Gs0 @ N09, v112
	.byte W12
track_69_lbl_225768:
	.byte N09, Cn1, v127
	.byte W12
	.byte As0, v112 @ N09
	.byte W12
	.byte Cn1, v127 @ N09
	.byte W12
	.byte As0, v112 @ N09
	.byte W12
	.byte Cn1, v127 @ N09
	.byte W12
	.byte As0, v112 @ N09
	.byte W12
	.byte Cn1 @ N09, v112
	.byte W12
	.byte Gs0 @ N09, v112
	.byte W12
	.byte PEND
	.byte PATT
		.word track_69_lbl_225768
	.byte PATT
		.word track_69_lbl_225768
	.byte PATT
		.word track_69_lbl_225768
	.byte PATT
		.word track_69_lbl_225768
	.byte PATT
		.word track_69_lbl_225768
	.byte PATT
		.word track_69_lbl_225768
	.byte PATT
		.word track_69_lbl_225768
	.byte PATT
		.word track_69_lbl_225768
	.byte PATT
		.word track_69_lbl_225768
track_69_lbl_2257ad:
	.byte N09, Cs1, v127
	.byte W12
	.byte Bn0, v112 @ N09
	.byte W12
	.byte Cs1, v127 @ N09
	.byte W12
	.byte Bn0, v112 @ N09
	.byte W12
	.byte Cs1, v127 @ N09
	.byte W12
	.byte Bn0, v112 @ N09
	.byte W12
	.byte Cs1 @ N09, v112
	.byte W12
	.byte An0 @ N09, v112
	.byte W12
	.byte PEND
	.byte PATT
		.word track_69_lbl_2257ad
	.byte PATT
		.word track_69_lbl_2257ad
	.byte PATT
		.word track_69_lbl_2257ad
	.byte PATT
		.word track_69_lbl_2257ad
	.byte PATT
		.word track_69_lbl_2257ad
	.byte PATT
		.word track_69_lbl_2257ad
	.byte PATT
		.word track_69_lbl_2257ad
	.byte PATT
		.word track_69_lbl_2257ad
	.byte PATT
		.word track_69_lbl_2257ad
	.byte PATT
		.word track_69_lbl_2257ad
	.byte PATT
		.word track_69_lbl_2257ad
	.byte PATT
		.word track_69_lbl_2257ad
	.byte N09, Cs1, v108
	.byte W12
	.byte Bn0, v092 @ N09
	.byte W12
	.byte Cs1, v108 @ N09
	.byte W12
	.byte Bn0, v092 @ N09
	.byte W12
	.byte Cs1, v108 @ N09
	.byte W12
	.byte Bn0, v092 @ N09
	.byte W12
	.byte Cs1, v108 @ N09
	.byte W12
	.byte An0, v092 @ N09
	.byte W12
track_69_lbl_22581a:
	.byte N06, Cn1, v127
	.byte W12
	.byte As0 @ N06, v127
	.byte W12
	.byte Cn1 @ N06, v127
	.byte W12
	.byte As0 @ N06, v127
	.byte W12
	.byte Cn1 @ N06, v127
	.byte W12
	.byte As0 @ N06, v127
	.byte W12
	.byte Cn1 @ N06, v127
	.byte W12
	.byte Gs0 @ N06, v127
	.byte W12
	.byte PEND
	.byte PATT
		.word track_69_lbl_22581a
track_69_lbl_225832:
	.byte N06, Cs1, v127
	.byte W12
	.byte Bn0 @ N06, v127
	.byte W12
	.byte Cs1 @ N06, v127
	.byte W12
	.byte Bn0 @ N06, v127
	.byte W12
	.byte Cs1 @ N06, v127
	.byte W12
	.byte Bn0 @ N06, v127
	.byte W12
	.byte Cs1 @ N06, v127
	.byte W12
	.byte An0 @ N06, v127
	.byte W12
	.byte PEND
	.byte PATT
		.word track_69_lbl_225832
	.byte PATT
		.word track_69_lbl_22581a
	.byte PATT
		.word track_69_lbl_22581a
	.byte PATT
		.word track_69_lbl_225832
	.byte PATT
		.word track_69_lbl_225832
	.byte PATT
		.word track_69_lbl_22581a
	.byte PATT
		.word track_69_lbl_22581a
	.byte PATT
		.word track_69_lbl_225832
	.byte PATT
		.word track_69_lbl_225832
	.byte PATT
		.word track_69_lbl_22581a
	.byte PATT
		.word track_69_lbl_22581a
	.byte PATT
		.word track_69_lbl_225832
	.byte N06, Cs1, v127
	.byte W12
	.byte Bn0 @ N06, v127
	.byte W12
	.byte Cs1 @ N06, v127
	.byte W12
	.byte Bn0 @ N06, v127
	.byte W12
	.byte Cs1 @ N06, v127
	.byte W12
	.byte Bn0 @ N06, v127
	.byte W12
	.byte Cs1 @ N06, v127
	.byte W24
	.byte GOTO
		.word track_69_lbl_22574d
	.byte FINE

track_69_1:
	.byte KEYSH, 0
	.byte VOICE, 59
	.byte VOL, 62
	.byte PAN, c_v+10
	.byte PRIO, 119
	.byte N06, Cn3, v124
	.byte W06
	.byte Dn3, v092 @ N06
	.byte W06
	.byte En3 @ N06, v092
	.byte W06
	.byte Fn3 @ N06, v092
	.byte W06
track_69_lbl_2258ac:
	.byte N96, Fs3, v060
	.byte W96
	.byte W96
	.byte W96
	.byte W96
	.byte W96
	.byte W72
	.byte VOL, 50
	.byte PAN, c_v
	.byte N06, Fs2, v104
	.byte N06, Cn3 @ v104
	.byte W06
	.byte Gs2, v072 @ N06
	.byte N06, Dn3 @ v072
	.byte W06
	.byte N04, As2 @ v072
	.byte N04, En3 @ v072
	.byte W06
	.byte Bn2 @ N04, v072
	.byte N04, Fn3 @ v072
	.byte W06
	.byte N72, Cn3, v060
	.byte N96, Fs3 @ v060
	.byte W96
	.byte W96
	.byte W96
	.byte W96
	.byte W96
	.byte W72
	.byte N06, Gn2, v124
	.byte N06, Cs3 @ v124
	.byte W06
	.byte An2, v092 @ N06
	.byte N06, Ds3 @ v092
	.byte W06
	.byte N04, Bn2 @ v092
	.byte N04, Fn3 @ v092
	.byte W06
	.byte Cn3 @ N04, v092
	.byte N04, Fs3 @ v092
	.byte W06
	.byte N72, Cs3, v080
	.byte N96, Gn3 @ v080
	.byte W96
	.byte W96
	.byte W96
	.byte W96
	.byte W96
	.byte W72
	.byte N06, Gn2, v104
	.byte N06, Cs3 @ v104
	.byte W06
	.byte An2, v072 @ N06
	.byte N06, Ds3 @ v072
	.byte W06
	.byte N04, Bn2 @ v072
	.byte N04, Fn3 @ v072
	.byte W06
	.byte Cn3 @ N04, v072
	.byte N04, Fs3 @ v072
	.byte W06
	.byte N72, Cs3, v060
	.byte N96, Gn3 @ v060
	.byte W96
	.byte W96
	.byte W96
	.byte W96
	.byte W96
	.byte W96
	.byte W96
	.byte W96
	.byte W96
	.byte W96
	.byte W96
	.byte W96
	.byte W96
	.byte W96
	.byte W96
	.byte W96
	.byte W96
	.byte W96
	.byte W96
	.byte W96
	.byte W96
	.byte W96
	.byte W72
	.byte VOL, 62
	.byte PAN, c_v+10
	.byte N06, Cn3, v124
	.byte W06
	.byte Dn3, v092 @ N06
	.byte W06
	.byte En3 @ N06, v092
	.byte W06
	.byte Fn3 @ N06, v092
	.byte W06
	.byte GOTO
		.word track_69_lbl_2258ac
	.byte FINE

track_69_2:
	.byte KEYSH, 0
	.byte VOICE, 59
	.byte VOL, 62
	.byte PAN, c_v-10
	.byte PRIO, 119
	.byte N06, Fs2, v124
	.byte W06
	.byte Gs2, v092 @ N06
	.byte W06
	.byte As2 @ N06, v092
	.byte W06
	.byte Bn2 @ N06, v092
	.byte W06
track_69_lbl_225951:
	.byte VOL, 31
	.byte PAN, c_v-10
	.byte N72, Cn3, v112
	.byte W72
	.byte N06, Cn4, v072
	.byte W06
	.byte Dn4, v060 @ N06
	.byte W06
	.byte En4, v052 @ N06
	.byte W06
	.byte Fn4 @ N06, v052
	.byte W06
track_69_lbl_225965:
	.byte N96, Cn4, v060
	.byte N96, Fs4 @ v060
	.byte W96
	.byte PEND
	.byte W96
	.byte W96
	.byte W96
	.byte W96
	.byte W72
	.byte N06, Cn4, v072
	.byte W06
	.byte Dn4, v060 @ N06
	.byte W06
	.byte En4, v052 @ N06
	.byte W06
	.byte Fn4 @ N06, v052
	.byte W06
	.byte PATT
		.word track_69_lbl_225965
	.byte W96
	.byte W96
	.byte W96
	.byte W96
track_69_lbl_225986:
	.byte W72
	.byte N06, Cs4, v072
	.byte W06
	.byte Ds4, v060 @ N06
	.byte W06
	.byte Fn4, v052 @ N06
	.byte W06
	.byte Fs4 @ N06, v052
	.byte W06
	.byte PEND
track_69_lbl_225994:
	.byte N96, Cs4, v060
	.byte N96, Gn4 @ v060
	.byte W96
	.byte PEND
	.byte W96
	.byte W96
	.byte W96
	.byte W96
	.byte PATT
		.word track_69_lbl_225986
	.byte PATT
		.word track_69_lbl_225994
	.byte W96
	.byte W96
	.byte W96
	.byte W96
	.byte W96
	.byte W24
	.byte VOICE, 73
	.byte VOL, 18
	.byte PAN, c_v
	.byte N84, Fs1, v112
	.byte N84, Cn2, v127
	.byte W06
	.byte VOL, 20
	.byte W06
	.byte 22 @ VOL
	.byte W07
	.byte 25 @ VOL
	.byte W04
	.byte 27 @ VOL
	.byte W02
	.byte 30 @ VOL
	.byte W04
	.byte 32 @ VOL
	.byte W01
	.byte 35 @ VOL
	.byte W03
	.byte 37 @ VOL
	.byte W02
	.byte 40 @ VOL
	.byte W02
	.byte 42 @ VOL
	.byte W02
	.byte 45 @ VOL
	.byte W02
	.byte 49 @ VOL
	.byte W02
	.byte 51 @ VOL
	.byte W02
	.byte 55 @ VOL
	.byte W03
	.byte 59 @ VOL
	.byte W02
	.byte 61 @ VOL
	.byte W02
	.byte 64 @ VOL
	.byte W01
	.byte 66 @ VOL
	.byte W02
	.byte 70 @ VOL
	.byte W02
	.byte 74 @ VOL
	.byte W02
	.byte 76 @ VOL
	.byte W02
	.byte 80 @ VOL
	.byte W02
	.byte 80 @ VOL
	.byte W02
	.byte 80 @ VOL
	.byte W01
	.byte 80 @ VOL
	.byte W06
	.byte W96
track_69_lbl_2259f0:
	.byte W24
	.byte VOL, 18
	.byte N84, Gn1, v112
	.byte N84, Cs2, v127
	.byte W06
	.byte VOL, 20
	.byte W06
	.byte 22 @ VOL
	.byte W07
	.byte 25 @ VOL
	.byte W04
	.byte 27 @ VOL
	.byte W02
	.byte 30 @ VOL
	.byte W04
	.byte 32 @ VOL
	.byte W01
	.byte 35 @ VOL
	.byte W03
	.byte 37 @ VOL
	.byte W02
	.byte 40 @ VOL
	.byte W02
	.byte 42 @ VOL
	.byte W02
	.byte 45 @ VOL
	.byte W02
	.byte 49 @ VOL
	.byte W02
	.byte 51 @ VOL
	.byte W02
	.byte 55 @ VOL
	.byte W03
	.byte 59 @ VOL
	.byte W02
	.byte 61 @ VOL
	.byte W02
	.byte 64 @ VOL
	.byte W01
	.byte 66 @ VOL
	.byte W02
	.byte 70 @ VOL
	.byte W02
	.byte 74 @ VOL
	.byte W02
	.byte 76 @ VOL
	.byte W02
	.byte 80 @ VOL
	.byte W02
	.byte 80 @ VOL
	.byte W02
	.byte 80 @ VOL
	.byte W01
	.byte 80 @ VOL
	.byte W06
	.byte PEND
	.byte W96
track_69_lbl_225a2f:
	.byte W24
	.byte VOL, 18
	.byte N84, Fs1, v112
	.byte N84, Cn2, v127
	.byte W06
	.byte VOL, 20
	.byte W06
	.byte 22 @ VOL
	.byte W07
	.byte 25 @ VOL
	.byte W04
	.byte 27 @ VOL
	.byte W02
	.byte 30 @ VOL
	.byte W04
	.byte 32 @ VOL
	.byte W01
	.byte 35 @ VOL
	.byte W03
	.byte 37 @ VOL
	.byte W02
	.byte 40 @ VOL
	.byte W02
	.byte 42 @ VOL
	.byte W02
	.byte 45 @ VOL
	.byte W02
	.byte 49 @ VOL
	.byte W02
	.byte 51 @ VOL
	.byte W02
	.byte 55 @ VOL
	.byte W03
	.byte 59 @ VOL
	.byte W02
	.byte 61 @ VOL
	.byte W02
	.byte 64 @ VOL
	.byte W01
	.byte 66 @ VOL
	.byte W02
	.byte 70 @ VOL
	.byte W02
	.byte 74 @ VOL
	.byte W02
	.byte 76 @ VOL
	.byte W02
	.byte 80 @ VOL
	.byte W02
	.byte 80 @ VOL
	.byte W02
	.byte 80 @ VOL
	.byte W01
	.byte 80 @ VOL
	.byte W06
	.byte PEND
	.byte W96
	.byte PATT
		.word track_69_lbl_2259f0
	.byte W96
	.byte PATT
		.word track_69_lbl_225a2f
	.byte W96
	.byte PATT
		.word track_69_lbl_2259f0
	.byte W96
	.byte PATT
		.word track_69_lbl_225a2f
	.byte W96
	.byte PATT
		.word track_69_lbl_2259f0
	.byte W72
	.byte VOICE, 59
	.byte VOL, 62
	.byte PAN, c_v-10
	.byte N06, Fs2, v124
	.byte W06
	.byte Gs2, v092 @ N06
	.byte W06
	.byte As2 @ N06, v092
	.byte W06
	.byte Bn2 @ N06, v092
	.byte W06
	.byte GOTO
		.word track_69_lbl_225951
	.byte FINE

track_69_3:
	.byte KEYSH, 0
	.byte PRIO, 119
	.byte W24
track_69_lbl_225aa8:
	.byte VOL, 60
	.byte W96
	.byte W96
	.byte VOICE, 81
	.byte PAN, c_v
	.byte W24
	.byte N12, Cn5, v052
	.byte W48
	.byte N12 @ Cn5, v052
	.byte W24
	.byte W96
track_69_lbl_225ab8:
	.byte W24
	.byte N30, Cn5, v072
	.byte N30, Fs5, v080
	.byte W72
	.byte PEND
	.byte W96
	.byte W96
	.byte W96
	.byte W24
	.byte N12, Cn5, v052
	.byte W48
	.byte N12 @ Cn5, v052
	.byte W24
	.byte W96
	.byte PATT
		.word track_69_lbl_225ab8
	.byte W96
	.byte W96
	.byte W96
track_69_lbl_225ad4:
	.byte W24
	.byte N12, Cs5, v052
	.byte W48
	.byte N12 @ Cs5, v052
	.byte W24
	.byte PEND
	.byte W96
track_69_lbl_225add:
	.byte W24
	.byte N30, Cs5, v072
	.byte N30, Gn5, v080
	.byte W72
	.byte PEND
	.byte W96
	.byte W96
	.byte W96
	.byte PATT
		.word track_69_lbl_225ad4
	.byte W96
	.byte PATT
		.word track_69_lbl_225add
	.byte W96
	.byte W96
	.byte W96
	.byte W96
	.byte W96
	.byte W96
	.byte W96
	.byte VOICE, 80
	.byte W24
	.byte N40, Fs4, v056
	.byte N40, Cn5, v076
	.byte W48
	.byte N36, Fs4, v056
	.byte N36, Cn5, v076
	.byte W24
	.byte W96
	.byte W96
	.byte W96
track_69_lbl_225b0f:
	.byte W24
	.byte N40, Fs4, v056
	.byte N40, Cn5, v076
	.byte W48
	.byte N36, Fs4, v056
	.byte N36, Cn5, v076
	.byte W24
	.byte PEND
	.byte W96
	.byte W96
	.byte W96
	.byte PATT
		.word track_69_lbl_225b0f
	.byte W96
	.byte W96
	.byte GOTO
		.word track_69_lbl_225aa8
	.byte FINE

track_69_4:
	.byte KEYSH, 0
	.byte PRIO, 30
	.byte W24
track_69_lbl_225b34:
	.byte VOICE, 71
	.byte VOL, 60
	.byte W24
	.byte N12, Cn5, v052
	.byte W48
	.byte N12 @ Cn5, v052
	.byte W24
	.byte W96
	.byte W96
	.byte W96
	.byte W96
	.byte W96
	.byte W24
	.byte N12 @ Cn5, v052
	.byte W48
	.byte N12 @ Cn5, v052
	.byte W24
	.byte W96
	.byte W96
	.byte W96
	.byte W96
	.byte W96
	.byte W24
	.byte Cs5 @ N12, v052
	.byte W48
	.byte N12 @ Cs5, v052
	.byte W24
	.byte W96
	.byte W96
	.byte W96
	.byte W96
	.byte W96
	.byte W24
	.byte N12 @ Cs5, v052
	.byte W48
	.byte N12 @ Cs5, v052
	.byte W24
	.byte W96
	.byte W96
	.byte W96
	.byte W96
	.byte W96
	.byte W96
	.byte W96
	.byte W96
	.byte W96
	.byte W96
	.byte W96
	.byte W96
	.byte W96
	.byte W96
	.byte W96
	.byte W96
	.byte W96
	.byte W96
	.byte W96
	.byte W96
	.byte W96
	.byte W96
	.byte GOTO
		.word track_69_lbl_225b34
	.byte FINE

track_69_5:
	.byte KEYSH, 0
	.byte PRIO, 29
	.byte W24
track_69_lbl_225b7e:
	.byte VOICE, 72
	.byte VOL, 60
	.byte W24
	.byte N12, Cn2, v088
	.byte N12, Fs2 @ v088
	.byte W48
	.byte Cn2 @ N12, v088
	.byte N12, Fs2 @ v088
	.byte W24
	.byte W96
	.byte W24
	.byte N12 @ Fs2, v088
	.byte W48
	.byte N12 @ Fs2, v088
	.byte W24
	.byte W96
	.byte W96
	.byte W96
	.byte W24
	.byte Cn2 @ N12, v088
	.byte N12, Fs2 @ v088
	.byte W48
	.byte Cn2 @ N12, v088
	.byte N12, Fs2 @ v088
	.byte W24
	.byte W96
	.byte W24
	.byte N12 @ Fs2, v088
	.byte W48
	.byte N12 @ Fs2, v088
	.byte W24
	.byte W96
	.byte W96
	.byte W96
track_69_lbl_225ba8:
	.byte W24
	.byte N12, Cs2, v088
	.byte N12, Gn2 @ v088
	.byte W48
	.byte Cs2 @ N12, v088
	.byte N12, Gn2 @ v088
	.byte W24
	.byte PEND
	.byte W96
track_69_lbl_225bb5:
	.byte W24
	.byte N12, Gn2, v088
	.byte W48
	.byte N12 @ Gn2, v088
	.byte W24
	.byte PEND
	.byte W96
	.byte W96
	.byte W96
	.byte PATT
		.word track_69_lbl_225ba8
	.byte W96
	.byte PATT
		.word track_69_lbl_225bb5
	.byte W96
	.byte W96
	.byte W96
	.byte W96
	.byte W96
	.byte W96
	.byte W96
	.byte W96
	.byte W96
	.byte W96
	.byte W96
	.byte W96
	.byte W96
	.byte W96
	.byte W96
	.byte W96
	.byte W96
	.byte W96
	.byte W96
	.byte W96
	.byte GOTO
		.word track_69_lbl_225b7e
	.byte FINE

track_69_6:
	.byte KEYSH, 0
	.byte PRIO, 30
	.byte W24
track_69_lbl_225bea:
	.byte W96
	.byte W96
	.byte W96
	.byte W96
	.byte W96
	.byte W96
	.byte W96
	.byte W96
	.byte W96
	.byte W96
	.byte W96
	.byte W96
	.byte W96
	.byte W96
	.byte W96
	.byte W96
	.byte W96
	.byte W96
	.byte W96
	.byte W96
	.byte W96
	.byte W96
	.byte W96
	.byte W96
	.byte W96
	.byte VOICE, 59
	.byte VOL, 21
	.byte PAN, c_v-10
	.byte N96, Cn3, v052
	.byte N96, Fs3 @ v052
	.byte W09
	.byte VOL, 23
	.byte W07
	.byte 26 @ VOL
	.byte W07
	.byte 28 @ VOL
	.byte W07
	.byte 31 @ VOL
	.byte W07
	.byte 34 @ VOL
	.byte W07
	.byte 36 @ VOL
	.byte W07
	.byte 39 @ VOL
	.byte W44
	.byte W01
track_69_lbl_225c1f:
	.byte N96, Cn3, v052
	.byte N96, Fs3 @ v052
	.byte W17
	.byte VOL, 36
	.byte W10
	.byte 34 @ VOL
	.byte W11
	.byte 31 @ VOL
	.byte W10
	.byte 28 @ VOL
	.byte W11
	.byte 26 @ VOL
	.byte W09
	.byte 23 @ VOL
	.byte W28
	.byte PEND
track_69_lbl_225c33:
	.byte VOL, 21
	.byte N96, Cs3, v052
	.byte N96, Gn3 @ v052
	.byte W09
	.byte VOL, 23
	.byte W07
	.byte 26 @ VOL
	.byte W07
	.byte 28 @ VOL
	.byte W07
	.byte 31 @ VOL
	.byte W07
	.byte 34 @ VOL
	.byte W07
	.byte 36 @ VOL
	.byte W07
	.byte 39 @ VOL
	.byte W44
	.byte W01
	.byte PEND
track_69_lbl_225c4c:
	.byte N96, Cs3, v052
	.byte N96, Gn3 @ v052
	.byte W18
	.byte VOL, 36
	.byte W11
	.byte 34 @ VOL
	.byte W11
	.byte 31 @ VOL
	.byte W10
	.byte 28 @ VOL
	.byte W11
	.byte 26 @ VOL
	.byte W32
	.byte W03
	.byte PEND
	.byte 21 @ VOL
	.byte N96, Cn3 @ v052
	.byte N96, Fs3 @ v052
	.byte W09
	.byte VOL, 23
	.byte W07
	.byte 26 @ VOL
	.byte W07
	.byte 28 @ VOL
	.byte W07
	.byte 31 @ VOL
	.byte W07
	.byte 34 @ VOL
	.byte W07
	.byte 36 @ VOL
	.byte W07
	.byte 39 @ VOL
	.byte W44
	.byte W01
	.byte PATT
		.word track_69_lbl_225c1f
	.byte PATT
		.word track_69_lbl_225c33
	.byte PATT
		.word track_69_lbl_225c4c
	.byte N96, Fs3, v044
	.byte N96, Cn4 @ v044
	.byte W09
	.byte VOL, 23
	.byte W07
	.byte 26 @ VOL
	.byte W07
	.byte 28 @ VOL
	.byte W07
	.byte 31 @ VOL
	.byte W06
	.byte 30 @ VOL
	.byte W60
	.byte N96, Fs3 @ v044
	.byte N96, Cn4 @ v044
	.byte W48
	.byte VOL, 28
	.byte W11
	.byte 26 @ VOL
	.byte W09
	.byte 23 @ VOL
	.byte W28
	.byte 21 @ VOL
	.byte N96, Gn3, v036
	.byte N96, Cs4 @ v036
	.byte W09
	.byte VOL, 23
	.byte W07
	.byte 26 @ VOL
	.byte W07
	.byte 28 @ VOL
	.byte W07
	.byte 30 @ VOL
	.byte W66
	.byte N96, Gn3 @ v036
	.byte N96, Cs4 @ v036
	.byte W48
	.byte W02
	.byte VOL, 28
	.byte W11
	.byte 26 @ VOL
	.byte W32
	.byte W03
	.byte 21 @ VOL
	.byte N96, Fs3, v044
	.byte N96, Cn4 @ v044
	.byte W09
	.byte VOL, 23
	.byte W07
	.byte 26 @ VOL
	.byte W07
	.byte 28 @ VOL
	.byte W07
	.byte 31 @ VOL
	.byte W07
	.byte 34 @ VOL
	.byte W07
	.byte 36 @ VOL
	.byte W07
	.byte 39 @ VOL
	.byte W44
	.byte W01
	.byte N96, Fs3, v052
	.byte N96, Cn4 @ v052
	.byte W17
	.byte VOL, 36
	.byte W10
	.byte 34 @ VOL
	.byte W11
	.byte 31 @ VOL
	.byte W10
	.byte 28 @ VOL
	.byte W11
	.byte 26 @ VOL
	.byte W09
	.byte 23 @ VOL
	.byte W28
	.byte 21 @ VOL
	.byte N96, As3, v048
	.byte N96, En4 @ v048
	.byte W09
	.byte VOL, 23
	.byte W07
	.byte 26 @ VOL
	.byte W07
	.byte 28 @ VOL
	.byte W07
	.byte 31 @ VOL
	.byte W07
	.byte 34 @ VOL
	.byte W07
	.byte 36 @ VOL
	.byte W07
	.byte 39 @ VOL
	.byte W44
	.byte W01
	.byte N96, Bn3, v044
	.byte N96, Fn4 @ v044
	.byte W18
	.byte VOL, 36
	.byte W11
	.byte 34 @ VOL
	.byte W11
	.byte 31 @ VOL
	.byte W10
	.byte 28 @ VOL
	.byte W11
	.byte 26 @ VOL
	.byte W32
	.byte W03
	.byte GOTO
		.word track_69_lbl_225bea
	.byte FINE

track_69_7:
	.byte KEYSH, 0
	.byte PRIO, 28
	.byte W24
track_69_lbl_225d1b:
	.byte VOICE, 78
	.byte VOL, 75
	.byte PAN, c_v-10
	.byte N24, Cn2, v127
	.byte W36
	.byte Cn2, v100 @ N24
	.byte W60
track_69_lbl_225d28:
	.byte W12
	.byte N24, Cn2, v127
	.byte W36
	.byte N12, Cn2, v100
	.byte W12
	.byte N24 @ Cn2, v100
	.byte W36
	.byte PEND
track_69_lbl_225d34:
	.byte N24, Cn2, v127
	.byte W36
	.byte Cn2, v100 @ N24
	.byte W60
	.byte PEND
	.byte PATT
		.word track_69_lbl_225d28
	.byte N24, Cn2, v127
	.byte W96
	.byte W12
	.byte N24 @ Cn2, v127
	.byte W36
	.byte N12 @ Cn2, v127
	.byte W12
	.byte Cn2, v100 @ N12
	.byte W36
	.byte PATT
		.word track_69_lbl_225d34
	.byte PATT
		.word track_69_lbl_225d28
	.byte PATT
		.word track_69_lbl_225d34
	.byte PATT
		.word track_69_lbl_225d28
	.byte N24, Cn2, v127
	.byte W96
track_69_lbl_225d65:
	.byte W12
	.byte N24, Cs2, v127
	.byte W36
	.byte N12 @ Cs2, v127
	.byte W12
	.byte Cs2, v100 @ N12
	.byte W36
	.byte PEND
track_69_lbl_225d70:
	.byte N24, Cs2, v127
	.byte W36
	.byte Cs2, v100 @ N24
	.byte W60
	.byte PEND
track_69_lbl_225d78:
	.byte W12
	.byte N24, Cs2, v127
	.byte W36
	.byte N12, Cs2, v100
	.byte W12
	.byte N24 @ Cs2, v100
	.byte W36
	.byte PEND
	.byte PATT
		.word track_69_lbl_225d70
	.byte PATT
		.word track_69_lbl_225d78
	.byte N24, Cs2, v127
	.byte W96
	.byte PATT
		.word track_69_lbl_225d65
	.byte PATT
		.word track_69_lbl_225d70
	.byte PATT
		.word track_69_lbl_225d78
	.byte PATT
		.word track_69_lbl_225d70
	.byte PATT
		.word track_69_lbl_225d78
	.byte N24, Cs2, v127
	.byte W96
	.byte PATT
		.word track_69_lbl_225d65
	.byte W12
	.byte N24, Cs2, v120
	.byte W36
	.byte N12 @ Cs2, v120
	.byte W12
	.byte Cs2, v080 @ N12
	.byte W36
track_69_lbl_225dbe:
	.byte N16, Cn2, v112
	.byte W36
	.byte N16 @ Cn2, v112
	.byte W24
	.byte N16 @ Cn2, v112
	.byte W36
	.byte PEND
	.byte PATT
		.word track_69_lbl_225dbe
track_69_lbl_225dcc:
	.byte N16, Cs2, v127
	.byte W36
	.byte N16 @ Cs2, v127
	.byte W24
	.byte N16 @ Cs2, v127
	.byte W36
	.byte PEND
	.byte PATT
		.word track_69_lbl_225dcc
track_69_lbl_225dda:
	.byte N16, Cn2, v127
	.byte W36
	.byte N16 @ Cn2, v127
	.byte W24
	.byte N16 @ Cn2, v127
	.byte W36
	.byte PEND
	.byte PATT
		.word track_69_lbl_225dda
	.byte PATT
		.word track_69_lbl_225dcc
	.byte PATT
		.word track_69_lbl_225dcc
	.byte PATT
		.word track_69_lbl_225dda
	.byte PATT
		.word track_69_lbl_225dda
	.byte PATT
		.word track_69_lbl_225dcc
	.byte PATT
		.word track_69_lbl_225dcc
	.byte PATT
		.word track_69_lbl_225dda
	.byte PATT
		.word track_69_lbl_225dda
	.byte PATT
		.word track_69_lbl_225dcc
	.byte PATT
		.word track_69_lbl_225dcc
	.byte GOTO
		.word track_69_lbl_225d1b
	.byte FINE

track_69_8:
	.byte KEYSH, 0
	.byte PRIO, 27
	.byte W24
track_69_lbl_225e25:
	.byte VOICE, 0
	.byte VOL, 44
	.byte PAN, c_v+10
	.byte N12, Cs2, v092
	.byte W96
track_69_lbl_225e2f:
	.byte W12
	.byte N16, Cs2, v052
	.byte W36
	.byte N12, Cs2, v036
	.byte W12
	.byte N12 @ Cs2, v036
	.byte W36
	.byte PEND
	.byte Cs2, v092 @ N12
	.byte W96
	.byte PATT
		.word track_69_lbl_225e2f
track_69_lbl_225e43:
	.byte N24, Cs2, v040
	.byte W36
	.byte N12 @ Cs2, v040
	.byte W36
	.byte Cs2, v032 @ N12
	.byte W24
	.byte PEND
track_69_lbl_225e4d:
	.byte W12
	.byte N16, Cs2, v040
	.byte W36
	.byte N12, Cs2, v036
	.byte W12
	.byte N36, Cs2, v080
	.byte W36
	.byte PEND
	.byte N12, Cs2, v092
	.byte W96
	.byte PATT
		.word track_69_lbl_225e2f
	.byte N12, Cs2, v092
	.byte W96
	.byte PATT
		.word track_69_lbl_225e2f
	.byte PATT
		.word track_69_lbl_225e43
	.byte PATT
		.word track_69_lbl_225e4d
	.byte N12, Cs2, v092
	.byte W96
	.byte PATT
		.word track_69_lbl_225e2f
	.byte N12, Cs2, v092
	.byte W96
	.byte PATT
		.word track_69_lbl_225e2f
	.byte PATT
		.word track_69_lbl_225e43
	.byte PATT
		.word track_69_lbl_225e4d
	.byte N12, Cs2, v092
	.byte W96
	.byte PATT
		.word track_69_lbl_225e2f
	.byte N12, Cs2, v092
	.byte W96
	.byte PATT
		.word track_69_lbl_225e2f
	.byte PATT
		.word track_69_lbl_225e43
	.byte PATT
		.word track_69_lbl_225e4d
	.byte W12
	.byte N16, Cs2, v016
	.byte W36
	.byte N12 @ Cs2, v016
	.byte W48
	.byte W96
	.byte W96
	.byte W96
track_69_lbl_225eb9:
	.byte W72
	.byte N08, Cs2, v040
	.byte W08
	.byte N08 @ Cs2, v040
	.byte W08
	.byte N24, Cs2, v060
	.byte W08
	.byte PEND
	.byte W96
	.byte W96
	.byte W96
	.byte PATT
		.word track_69_lbl_225eb9
	.byte W96
	.byte W96
	.byte W96
	.byte W48
	.byte N12, Cs2, v032
	.byte W12
	.byte N12 @ Cs2, v032
	.byte W12
	.byte N08, Cs2, v040
	.byte W08
	.byte N08 @ Cs2, v040
	.byte W08
	.byte N24, Cs2, v060
	.byte W08
	.byte W96
	.byte W96
	.byte W96
	.byte Cs2, v092 @ N24
	.byte W36
	.byte N24 @ Cs2, v092
	.byte W60
	.byte GOTO
		.word track_69_lbl_225e25
	.byte FINE

track_69_9:
	.byte KEYSH, 0
	.byte W24
track_69_lbl_225ef2:
	.byte VOICE, 77
	.byte VOL, 69
	.byte PAN, c_v
	.byte N06, Cn1, v127
	.byte W12
	.byte As0, v100 @ N06
	.byte W12
	.byte Cn1, v127 @ N06
	.byte W12
	.byte As0, v100 @ N06
	.byte W12
	.byte Cn1, v127 @ N06
	.byte W12
	.byte As0, v100 @ N06
	.byte W12
	.byte Cn1, v127 @ N06
	.byte W12
	.byte Gs0, v100 @ N06
	.byte W12
track_69_lbl_225f11:
	.byte N06, Cn1, v127
	.byte W12
	.byte As0, v100 @ N06
	.byte W12
	.byte Cn1, v127 @ N06
	.byte W12
	.byte As0, v100 @ N06
	.byte W12
	.byte Cn1, v127 @ N06
	.byte W12
	.byte As0, v100 @ N06
	.byte W12
	.byte Cn1, v127 @ N06
	.byte W12
	.byte Gs0, v100 @ N06
	.byte W12
	.byte PEND
	.byte PATT
		.word track_69_lbl_225f11
	.byte PATT
		.word track_69_lbl_225f11
	.byte PATT
		.word track_69_lbl_225f11
	.byte PATT
		.word track_69_lbl_225f11
	.byte PATT
		.word track_69_lbl_225f11
	.byte PATT
		.word track_69_lbl_225f11
	.byte PATT
		.word track_69_lbl_225f11
	.byte PATT
		.word track_69_lbl_225f11
	.byte PATT
		.word track_69_lbl_225f11
track_69_lbl_225f58:
	.byte N06, Cs1, v127
	.byte W12
	.byte Bn0, v100 @ N06
	.byte W12
	.byte Cs1, v127 @ N06
	.byte W12
	.byte Bn0, v100 @ N06
	.byte W12
	.byte Cs1, v127 @ N06
	.byte W12
	.byte Bn0, v100 @ N06
	.byte W12
	.byte Cs1, v127 @ N06
	.byte W12
	.byte An0, v100 @ N06
	.byte W12
	.byte PEND
	.byte PATT
		.word track_69_lbl_225f58
	.byte PATT
		.word track_69_lbl_225f58
	.byte PATT
		.word track_69_lbl_225f58
	.byte PATT
		.word track_69_lbl_225f58
	.byte PATT
		.word track_69_lbl_225f58
	.byte PATT
		.word track_69_lbl_225f58
	.byte PATT
		.word track_69_lbl_225f58
	.byte PATT
		.word track_69_lbl_225f58
	.byte PATT
		.word track_69_lbl_225f58
	.byte PATT
		.word track_69_lbl_225f58
	.byte PATT
		.word track_69_lbl_225f58
	.byte PATT
		.word track_69_lbl_225f58
	.byte N06, Cs1, v108
	.byte W12
	.byte Bn0, v080 @ N06
	.byte W12
	.byte Cs1, v108 @ N06
	.byte W12
	.byte Bn0, v080 @ N06
	.byte W12
	.byte Cs1, v108 @ N06
	.byte W12
	.byte Bn0, v080 @ N06
	.byte W12
	.byte Cs1, v108 @ N06
	.byte W12
	.byte An0, v080 @ N06
	.byte W12
track_69_lbl_225fc7:
	.byte N12, Cn2, v080
	.byte W24
	.byte N12 @ Cn2, v080
	.byte W24
	.byte N12 @ Cn2, v080
	.byte W24
	.byte N12 @ Cn2, v080
	.byte W24
	.byte PEND
	.byte PATT
		.word track_69_lbl_225fc7
track_69_lbl_225fd7:
	.byte N12, Cs2, v080
	.byte W24
	.byte N12 @ Cs2, v080
	.byte W24
	.byte N12 @ Cs2, v080
	.byte W24
	.byte N12 @ Cs2, v080
	.byte W24
	.byte PEND
	.byte PATT
		.word track_69_lbl_225fd7
	.byte PATT
		.word track_69_lbl_225fc7
	.byte PATT
		.word track_69_lbl_225fc7
	.byte PATT
		.word track_69_lbl_225fd7
	.byte PATT
		.word track_69_lbl_225fd7
	.byte PATT
		.word track_69_lbl_225fc7
	.byte PATT
		.word track_69_lbl_225fc7
	.byte PATT
		.word track_69_lbl_225fd7
	.byte PATT
		.word track_69_lbl_225fd7
	.byte PATT
		.word track_69_lbl_225fc7
	.byte PATT
		.word track_69_lbl_225fc7
	.byte PATT
		.word track_69_lbl_225fd7
	.byte PATT
		.word track_69_lbl_225fd7
	.byte GOTO
		.word track_69_lbl_225ef2
	.byte FINE

.align 2

track_69:
	.byte 10
	.byte 0
	.byte 130
	.byte 0
	.word voice_group20
	.word track_69_0
	.word track_69_1
	.word track_69_2
	.word track_69_3
	.word track_69_4
	.word track_69_5
	.word track_69_6
	.word track_69_7
	.word track_69_8
	.word track_69_9

.align 2
