.align 2

.global track_558

track_558_0:
	.byte KEYSH, 0
	.byte TEMPO, 75
	.byte VOICE, 7
	.byte VOL, 51
	.byte PAN, c_v-24
	.byte BENDR, 12
	.byte PRIO, 1
	.byte BEND, c_v-16
	.byte TIE, Fn3, v040
	.byte W03
	.byte VOL, 52
	.byte BEND, c_v-17
	.byte W03
	.byte VOL, 54
	.byte BEND, c_v-19
	.byte W03
	.byte VOL, 57
	.byte W03
	.byte 60 @ VOL
	.byte BEND, c_v-21
	.byte W03
	.byte VOL, 57
	.byte W03
	.byte 54 @ VOL
	.byte BEND, c_v-22
	.byte W03
	.byte VOL, 51
	.byte BEND, c_v-21
	.byte W03
	.byte VOL, 48
	.byte BEND, c_v-20
	.byte W03
	.byte VOL, 43
	.byte BEND, c_v-19
	.byte W01
	.byte VOL, 40
	.byte W02
	.byte BEND, c_v-17
	.byte W01
	.byte VOL, 34
	.byte W02
	.byte BEND, c_v-13
	.byte W01
	.byte VOL, 32
	.byte W02
	.byte BEND, c_v-11
	.byte W01
	.byte VOL, 30
	.byte W02
	.byte BEND, c_v-7
	.byte W01
	.byte VOL, 27
	.byte W02
	.byte BEND, c_v-3
	.byte W01
	.byte VOL, 23
	.byte W02
	.byte BEND, c_v-1
	.byte W01
	.byte VOL, 17
	.byte W02
	.byte BEND, c_v+1
	.byte W01
	.byte VOL, 14
	.byte W02
	.byte BEND, c_v+3
	.byte W01
	.byte VOL, 13
	.byte W02
	.byte BEND, c_v+5
	.byte W01
	.byte VOL, 11
	.byte W02
	.byte BEND, c_v+7
	.byte W01
	.byte VOL, 11
	.byte W02
	.byte BEND, c_v+3
	.byte W03
	.byte c_v+1 @ BEND
	.byte W01
	.byte VOL, 11
	.byte W02
	.byte BEND, c_v-1
	.byte W01
	.byte VOL, 16
	.byte W02
	.byte BEND, c_v-3
	.byte W01
	.byte VOL, 21
	.byte W03
	.byte 44 @ VOL
	.byte W02
	.byte 51 @ VOL
	.byte BEND, c_v-6
	.byte W03
	.byte VOL, 52
	.byte BEND, c_v-9
	.byte W03
	.byte c_v-11 @ BEND
	.byte W03
	.byte c_v-15 @ BEND
	.byte W03
	.byte VOL, 51
	.byte BEND, c_v-17
	.byte W03
	.byte VOL, 46
	.byte BEND, c_v-19
	.byte W03
	.byte VOL, 41
	.byte W03
	.byte 35 @ VOL
	.byte BEND, c_v-20
	.byte W03
	.byte VOL, 31
	.byte BEND, c_v-19
	.byte W03
	.byte VOL, 27
	.byte BEND, c_v-17
	.byte W03
	.byte VOL, 19
	.byte BEND, c_v-16
	.byte W03
	.byte VOL, 14
	.byte BEND, c_v-13
	.byte W03
	.byte c_v-11 @ BEND
	.byte W03
	.byte VOL, 26
	.byte BEND, c_v-9
	.byte W03
	.byte VOL, 34
	.byte BEND, c_v-7
	.byte W03
	.byte VOL, 40
	.byte BEND, c_v-5
	.byte W03
	.byte VOL, 41
	.byte BEND, c_v-1
	.byte W06
	.byte VOL, 38
	.byte BEND, c_v+1
	.byte W03
	.byte VOL, 34
	.byte BEND, c_v+3
	.byte W03
	.byte VOL, 21
	.byte BEND, c_v+1
	.byte W03
	.byte VOL, 13
	.byte BEND, c_v-3
	.byte W03
	.byte VOL, 11
	.byte BEND, c_v-7
	.byte W03
	.byte c_v-10 @ BEND
	.byte W03
	.byte VOL, 13
	.byte BEND, c_v-15
	.byte W03
	.byte VOL, 14
	.byte BEND, c_v-19
	.byte W03
	.byte VOL, 18
	.byte BEND, c_v-21
	.byte W03
	.byte VOL, 27
	.byte W03
	.byte 33 @ VOL
	.byte BEND, c_v-19
	.byte W03
	.byte VOL, 40
	.byte BEND, c_v-17
	.byte W06
	.byte VOL, 41
	.byte BEND, c_v-15
	.byte W06
	.byte VOL, 43
	.byte BEND, c_v-13
	.byte W03
	.byte VOL, 46
	.byte BEND, c_v-11
	.byte W03
	.byte VOL, 51
	.byte BEND, c_v-9
	.byte W03
	.byte VOL, 60
	.byte BEND, c_v-7
	.byte W03
	.byte VOL, 74
	.byte BEND, c_v-5
	.byte W03
	.byte VOL, 76
	.byte BEND, c_v-3
	.byte W03
	.byte VOL, 77
	.byte BEND, c_v-1
	.byte W03
	.byte c_v+2 @ BEND
	.byte W03
	.byte VOL, 79
	.byte BEND, c_v+5
	.byte W03
	.byte VOL, 77
	.byte BEND, c_v+7
	.byte W03
	.byte c_v+9 @ BEND
	.byte W01
	.byte VOL, 72
	.byte W02
	.byte BEND, c_v+11
	.byte W01
	.byte VOL, 40
	.byte W03
	.byte 18 @ VOL
	.byte W03
	.byte 14 @ VOL
	.byte W05
	.byte BEND, c_v+9
	.byte W01
	.byte VOL, 13
	.byte W02
	.byte BEND, c_v+6
	.byte W01
	.byte VOL, 11
	.byte W02
	.byte BEND, c_v+3
	.byte W03
	.byte c_v-1 @ BEND
	.byte W03
	.byte c_v-3 @ BEND
	.byte W03
	.byte c_v-7 @ BEND
	.byte W03
	.byte c_v-8 @ BEND
	.byte W03
	.byte c_v-9 @ BEND
	.byte W09
	.byte c_v-11 @ BEND
	.byte W01
	.byte VOL, 13
	.byte W06
	.byte 19 @ VOL
	.byte W03
	.byte 22 @ VOL
	.byte W02
	.byte BEND, c_v-10
	.byte W01
	.byte VOL, 25
	.byte W02
	.byte BEND, c_v-7
	.byte W01
	.byte VOL, 29
	.byte W02
	.byte BEND, c_v-1
	.byte W01
	.byte VOL, 44
	.byte W02
	.byte BEND, c_v+1
	.byte W01
	.byte VOL, 48
	.byte W02
	.byte BEND, c_v+2
	.byte W01
	.byte VOL, 50
	.byte W02
	.byte BEND, c_v+3
	.byte W01
	.byte VOL, 52
	.byte W03
	.byte 55 @ VOL
	.byte W02
	.byte BEND, c_v+1
	.byte W01
	.byte VOL, 57
	.byte W02
	.byte BEND, c_v-1
	.byte W01
	.byte VOL, 60
	.byte W02
	.byte BEND, c_v-3
	.byte W01
	.byte VOL, 62
	.byte W02
	.byte BEND, c_v-7
	.byte W01
	.byte VOL, 63
	.byte W02
	.byte BEND, c_v-9
	.byte W01
	.byte VOL, 65
	.byte W02
	.byte BEND, c_v-11
	.byte W01
	.byte VOL, 66
	.byte W02
	.byte BEND, c_v-14
	.byte W01
	.byte VOL, 68
	.byte W02
	.byte BEND, c_v-17
	.byte W01
	.byte VOL, 70
	.byte W02
	.byte BEND, c_v-19
	.byte W01
	.byte VOL, 70
	.byte W02
	.byte BEND, c_v-21
	.byte W01
	.byte VOL, 66
	.byte W02
	.byte BEND, c_v-23
	.byte W01
	.byte VOL, 65
	.byte W02
	.byte BEND, c_v-24
	.byte W01
	.byte VOL, 63
	.byte W02
	.byte BEND, c_v-25
	.byte W01
	.byte VOL, 60
	.byte W02
	.byte BEND, c_v-27
	.byte W01
	.byte VOL, 57
	.byte W02
	.byte BEND, c_v-29
	.byte W01
	.byte VOL, 49
	.byte W02
	.byte BEND, c_v-30
	.byte W01
	.byte VOL, 46
	.byte W02
	.byte BEND, c_v-31
	.byte W01
	.byte VOL, 44
	.byte W02
	.byte BEND, c_v-33
	.byte W01
	.byte VOL, 43
	.byte W03
	.byte 41 @ VOL
	.byte W02
	.byte BEND, c_v-35
	.byte W01
	.byte VOL, 39
	.byte W03
	.byte 37 @ VOL
	.byte W02
	.byte BEND, c_v-37
	.byte W01
	.byte VOL, 35
	.byte W03
	.byte 33 @ VOL
	.byte W03
	.byte 30 @ VOL
	.byte W02
	.byte BEND, c_v-35
	.byte W01
	.byte VOL, 27
	.byte W02
	.byte BEND, c_v-34
	.byte W01
	.byte VOL, 25
	.byte W02
	.byte BEND, c_v-32
	.byte W01
	.byte VOL, 24
	.byte W02
	.byte BEND, c_v-29
	.byte W01
	.byte VOL, 21
	.byte W02
	.byte BEND, c_v-27
	.byte W01
	.byte VOL, 20
	.byte W02
	.byte BEND, c_v-24
	.byte W01
	.byte VOL, 18
	.byte W02
	.byte BEND, c_v-20
	.byte W01
	.byte VOL, 16
	.byte W02
	.byte BEND, c_v-15
	.byte W01
	.byte VOL, 14
	.byte W02
	.byte BEND, c_v-11
	.byte W03
	.byte c_v-7 @ BEND
	.byte W01
	.byte VOL, 13
	.byte W02
	.byte BEND, c_v-3
	.byte W01
	.byte VOL, 12
	.byte W02
	.byte BEND, c_v+1
	.byte W01
	.byte VOL, 16
	.byte W02
	.byte BEND, c_v+5
	.byte W01
	.byte VOL, 19
	.byte W02
	.byte BEND, c_v+7
	.byte W01
	.byte VOL, 25
	.byte W02
	.byte BEND, c_v+9
	.byte W01
	.byte VOL, 27
	.byte W03
	.byte 30 @ VOL
	.byte W03
	.byte 32 @ VOL
	.byte W03
	.byte 34 @ VOL
	.byte W03
	.byte 37 @ VOL
	.byte W02
	.byte BEND, c_v+8
	.byte W01
	.byte VOL, 40
	.byte W02
	.byte BEND, c_v+5
	.byte W01
	.byte VOL, 43
	.byte W02
	.byte BEND, c_v+1
	.byte W01
	.byte VOL, 51
	.byte W02
	.byte BEND, c_v-2
	.byte W03
	.byte c_v-4 @ BEND
	.byte W01
	.byte VOL, 49
	.byte W03
	.byte 48 @ VOL
	.byte W03
	.byte 47 @ VOL
	.byte W02
	.byte BEND, c_v-3
	.byte W01
	.byte VOL, 44
	.byte W03
	.byte 43 @ VOL
	.byte W02
	.byte BEND, c_v-1
	.byte W01
	.byte VOL, 40
	.byte W02
	.byte BEND, c_v
	.byte W01
	.byte VOL, 22
	.byte W02
	.byte BEND, c_v+1
	.byte W01
	.byte VOL, 16
	.byte W02
	.byte BEND, c_v+3
	.byte W01
	.byte VOL, 11
	.byte W02
	.byte BEND, c_v+5
	.byte W01
	.byte VOL, 10
	.byte W03
	.byte 8 @ VOL
	.byte W02
	.byte BEND, c_v+6
	.byte W01
	.byte VOL, 7
	.byte W03
	.byte 6 @ VOL
	.byte W03
	.byte 5 @ VOL
	.byte W02
	.byte BEND, c_v+5
	.byte W01
	.byte VOL, 18
	.byte W02
	.byte BEND, c_v+4
	.byte W01
	.byte VOL, 22
	.byte W02
	.byte BEND, c_v+5
	.byte W01
	.byte VOL, 25
	.byte W02
	.byte BEND, c_v+9
	.byte W01
	.byte VOL, 28
	.byte W02
	.byte BEND, c_v+7
	.byte W01
	.byte VOL, 56
	.byte W02
	.byte BEND, c_v+6
	.byte W01
	.byte VOL, 65
	.byte W02
	.byte BEND, c_v+5
	.byte W01
	.byte VOL, 73
	.byte W02
	.byte BEND, c_v+3
	.byte W03
	.byte c_v+1 @ BEND
	.byte W03
	.byte c_v @ BEND
	.byte W03
	.byte c_v-2 @ BEND
	.byte W01
	.byte VOL, 71
	.byte W02
	.byte BEND, c_v-5
	.byte W01
	.byte VOL, 70
	.byte W02
	.byte BEND, c_v-8
	.byte W01
	.byte VOL, 68
	.byte W02
	.byte BEND, c_v-13
	.byte W01
	.byte VOL, 66
	.byte W02
	.byte BEND, c_v-17
	.byte W01
	.byte VOL, 65
	.byte W02
	.byte BEND, c_v-23
	.byte W01
	.byte VOL, 59
	.byte W02
	.byte BEND, c_v-27
	.byte W01
	.byte VOL, 51
	.byte W02
	.byte BEND, c_v-30
	.byte W01
	.byte VOL, 39
	.byte W02
	.byte BEND, c_v-31
	.byte W01
	.byte VOL, 37
	.byte W03
	.byte 33 @ VOL
	.byte W03
	.byte 32 @ VOL
	.byte W02
	.byte BEND, c_v-30
	.byte W01
	.byte VOL, 30
	.byte W02
	.byte BEND, c_v-29
	.byte W03
	.byte c_v-27 @ BEND
	.byte W01
	.byte VOL, 29
	.byte W05
	.byte BEND, c_v-25
	.byte W03
	.byte c_v-23 @ BEND
	.byte W01
	.byte VOL, 27
	.byte W03
	.byte 29 @ VOL
	.byte W02
	.byte BEND, c_v-21
	.byte W01
	.byte VOL, 30
	.byte W02
	.byte BEND, c_v-17
	.byte W03
	.byte c_v-15 @ BEND
	.byte W01
	.byte VOL, 32
	.byte W02
	.byte BEND, c_v-11
	.byte W01
	.byte VOL, 35
	.byte W02
	.byte BEND, c_v-7
	.byte W03
	.byte c_v-5 @ BEND
	.byte W03
	.byte c_v-2 @ BEND
	.byte W03
	.byte c_v+1 @ BEND
	.byte W01
	.byte VOL, 33
	.byte W02
	.byte BEND, c_v+3
	.byte W01
	.byte VOL, 32
	.byte W02
	.byte W01
	.byte 33 @ VOL
	.byte W02
	.byte BEND, c_v+2
	.byte W01
	.byte VOL, 37
	.byte W02
	.byte BEND, c_v-1
	.byte W01
	.byte VOL, 40
	.byte W02
	.byte BEND, c_v-3
	.byte W01
	.byte VOL, 41
	.byte W02
	.byte BEND, c_v-5
	.byte W01
	.byte VOL, 49
	.byte W02
	.byte BEND, c_v-7
	.byte W01
	.byte VOL, 52
	.byte W02
	.byte BEND, c_v-9
	.byte W01
	.byte VOL, 55
	.byte W02
	.byte BEND, c_v-11
	.byte W01
	.byte VOL, 59
	.byte W02
	.byte BEND, c_v-15
	.byte W01
	.byte VOL, 62
	.byte W02
	.byte BEND, c_v-18
	.byte W01
	.byte VOL, 63
	.byte W02
	.byte BEND, c_v-20
	.byte W03
	.byte c_v-21 @ BEND
	.byte W03
	.byte c_v-19 @ BEND
	.byte W03
	.byte c_v-17 @ BEND
	.byte W03
	.byte VOL, 63
	.byte BEND, c_v-15
	.byte W03
	.byte VOL, 62
	.byte BEND, c_v-13
	.byte W03
	.byte c_v-11 @ BEND
	.byte W03
	.byte VOL, 60
	.byte BEND, c_v-7
	.byte W03
	.byte c_v-3 @ BEND
	.byte W03
	.byte c_v-1 @ BEND
	.byte W03
	.byte VOL, 59
	.byte BEND, c_v+3
	.byte W03
	.byte c_v+7 @ BEND
	.byte W03
	.byte VOL, 57
	.byte BEND, c_v+10
	.byte W01
	.byte c_v+9 @ BEND
	.byte W05
	.byte VOL, 55
	.byte W03
	.byte 55 @ VOL
	.byte W03
	.byte 54 @ VOL
	.byte W03
	.byte 52 @ VOL
	.byte W03
	.byte 51 @ VOL
	.byte W03
	.byte 49 @ VOL
	.byte W03
	.byte 45 @ VOL
	.byte W03
	.byte 41 @ VOL
	.byte W01
	.byte BEND, c_v+8
	.byte W02
	.byte VOL, 38
	.byte W01
	.byte BEND, c_v+7
	.byte W02
	.byte VOL, 35
	.byte W03
	.byte 32 @ VOL
	.byte W03
	.byte 29 @ VOL
	.byte W01
	.byte BEND, c_v+5
	.byte W02
	.byte VOL, 27
	.byte W01
	.byte BEND, c_v+4
	.byte W02
	.byte VOL, 25
	.byte W01
	.byte BEND, c_v+3
	.byte W02
	.byte VOL, 24
	.byte W01
	.byte BEND, c_v+1
	.byte W02
	.byte VOL, 22
	.byte W01
	.byte BEND, c_v-1
	.byte W02
	.byte VOL, 20
	.byte W01
	.byte BEND, c_v-2
	.byte W02
	.byte VOL, 18
	.byte W01
	.byte BEND, c_v-3
	.byte W02
	.byte VOL, 16
	.byte W01
	.byte BEND, c_v-5
	.byte W02
	.byte VOL, 52
	.byte W01
	.byte BEND, c_v-7
	.byte W02
	.byte VOL, 55
	.byte W01
	.byte BEND, c_v-9
	.byte W02
	.byte VOL, 57
	.byte W01
	.byte BEND, c_v-11
	.byte W03
	.byte c_v-13 @ BEND
	.byte W02
	.byte VOL, 58
	.byte W01
	.byte BEND, c_v-15
	.byte W02
	.byte VOL, 59
	.byte W01
	.byte BEND, c_v-16
	.byte W03
	.byte c_v-17 @ BEND
	.byte W03
	.byte c_v-19 @ BEND
	.byte W02
	.byte VOL, 59
	.byte W03
	.byte 60 @ VOL
	.byte W01
	.byte BEND, c_v-21
	.byte W05
	.byte VOL, 62
	.byte W01
	.byte 61 @ VOL
	.byte W03
	.byte 59 @ VOL
	.byte BEND, c_v-20
	.byte W03
	.byte VOL, 59
	.byte BEND, c_v-19
	.byte W03
	.byte VOL, 57
	.byte BEND, c_v-17
	.byte W03
	.byte VOL, 55
	.byte BEND, c_v-15
	.byte W03
	.byte VOL, 24
	.byte BEND, c_v-13
	.byte W03
	.byte VOL, 21
	.byte BEND, c_v-11
	.byte W03
	.byte VOL, 19
	.byte BEND, c_v-9
	.byte W03
	.byte VOL, 18
	.byte BEND, c_v-5
	.byte W03
	.byte VOL, 16
	.byte BEND, c_v-3
	.byte W02
	.byte W01
	.byte c_v @ BEND
	.byte W03
	.byte c_v+3 @ BEND
	.byte W03
	.byte c_v+5 @ BEND
	.byte W03
	.byte c_v+8 @ BEND
	.byte W03
	.byte c_v+9 @ BEND
	.byte W03
	.byte VOL, 17
	.byte BEND, c_v+10
	.byte W03
	.byte c_v+11 @ BEND
	.byte W06
	.byte VOL, 18
	.byte BEND, c_v+9
	.byte W06
	.byte c_v+7 @ BEND
	.byte W03
	.byte c_v+3 @ BEND
	.byte W03
	.byte VOL, 24
	.byte BEND, c_v-1
	.byte W03
	.byte VOL, 27
	.byte BEND, c_v-5
	.byte W03
	.byte VOL, 29
	.byte BEND, c_v-9
	.byte W03
	.byte VOL, 30
	.byte BEND, c_v-11
	.byte W03
	.byte VOL, 33
	.byte W03
	.byte 35 @ VOL
	.byte W03
	.byte 38 @ VOL
	.byte W03
	.byte 42 @ VOL
	.byte BEND, c_v-12
	.byte W03
	.byte VOL, 44
	.byte W03
	.byte 46 @ VOL
	.byte W03
	.byte 49 @ VOL
	.byte BEND, c_v-11
	.byte W03
	.byte VOL, 51
	.byte W02
	.byte 52 @ VOL
	.byte W01
	.byte BEND, c_v-10
	.byte W03
	.byte c_v-9 @ BEND
	.byte W03
	.byte c_v-7 @ BEND
	.byte W02
	.byte VOL, 51
	.byte W01
	.byte BEND, c_v-3
	.byte W03
	.byte c_v-1 @ BEND
	.byte W03
	.byte c_v+1 @ BEND
	.byte W02
	.byte VOL, 50
	.byte W01
	.byte BEND, c_v+3
	.byte W02
	.byte VOL, 49
	.byte W01
	.byte BEND, c_v+5
	.byte W02
	.byte W01
	.byte c_v+6 @ BEND
	.byte W03
	.byte c_v+7 @ BEND
	.byte W02
	.byte VOL, 48
	.byte W03
	.byte 47 @ VOL
	.byte W01
	.byte BEND, c_v+5
	.byte W02
	.byte VOL, 46
	.byte W01
	.byte BEND, c_v+3
	.byte W02
	.byte VOL, 45
	.byte W03
	.byte 44 @ VOL
	.byte W03
	.byte 43 @ VOL
	.byte W03
	.byte 41 @ VOL
	.byte W03
	.byte 40 @ VOL
	.byte W03
	.byte 39 @ VOL
	.byte W01
	.byte BEND, c_v-1
	.byte W02
	.byte VOL, 37
	.byte W02
	.byte 7 @ VOL
	.byte W01
	.byte EOT @ Fn3, v040
	.byte VOL, 0
	.byte FINE

track_558_1:
	.byte KEYSH, 0
	.byte VOICE, 52
	.byte MOD, 30
	.byte VOL, 55
	.byte PAN, c_v-24
	.byte LFOS, 30
	.byte MODT, mod_tre
	.byte N56, Cn3, v048, 3
	.byte W96
	.byte W32
	.byte W01
	.byte Dn3, v072, 3 @ N56
	.byte W01
	.byte VOL, 78
	.byte W60
	.byte W02
	.byte W40
	.byte N56, En3, v052, 3
	.byte W56
	.byte W72
	.byte W01
	.byte Cn3, v052, 3 @ N56
	.byte W23
	.byte W60
	.byte Dn3, v044, 3 @ N56
	.byte W36
	.byte W68
	.byte W01
	.byte En3, v048, 3 @ N56
	.byte W24
	.byte W03
	.byte W56
	.byte W02
	.byte Cn3, v052, 3 @ N56
	.byte W36
	.byte W02
	.byte W56
	.byte W03
	.byte Dn3, v004, 3 @ N56
	.byte W36
	.byte W01
	.byte W72
	.byte W01
	.byte En3, v056, 3 @ N56
	.byte W02
	.byte VOL, 77
	.byte W03
	.byte 62 @ VOL
	.byte W03
	.byte 49 @ VOL
	.byte W03
	.byte 41 @ VOL
	.byte W03
	.byte 35 @ VOL
	.byte W03
	.byte 29 @ VOL
	.byte W03
	.byte 25 @ VOL
	.byte W03
	.byte 21 @ VOL
	.byte W03
	.byte 18 @ VOL
	.byte W03
	.byte 14 @ VOL
	.byte W03
	.byte 13 @ VOL
	.byte W03
	.byte 10 @ VOL
	.byte W03
	.byte 8 @ VOL
	.byte W03
	.byte 7 @ VOL
	.byte W03
	.byte 5 @ VOL
	.byte W03
	.byte 3 @ VOL
	.byte W03
	.byte 2 @ VOL
	.byte W03
	.byte 0 @ VOL
	.byte W06
	.byte FINE

track_558_2:
	.byte KEYSH, 0
	.byte VOICE, 51
	.byte MOD, 30
	.byte VOL, 55
	.byte PAN, c_v-24
	.byte LFOS, 30
	.byte MODT, mod_tre
	.byte W72
	.byte W01
	.byte N56, En3, v044, 3
	.byte W23
	.byte W32
	.byte W02
	.byte VOL, 78
	.byte W60
	.byte W02
	.byte W06
	.byte N56, Cn3, v044, 3
	.byte W90
	.byte W18
	.byte Dn3, v052, 3 @ N56
	.byte W78
	.byte W28
	.byte W01
	.byte Cn3, v004, 3 @ N56
	.byte W66
	.byte W01
	.byte W18
	.byte Dn3, v052, 3 @ N56
	.byte W78
	.byte W10
	.byte N32, En3, v004, 1
	.byte W84
	.byte W02
	.byte W10
	.byte N56, Dn3, v052, 3
	.byte W84
	.byte W02
	.byte W09
	.byte Cn3, v052, 3 @ N56
	.byte W84
	.byte W03
	.byte W09
	.byte VOL, 77
	.byte W01
	.byte N56, Dn3, v060, 3
	.byte W02
	.byte VOL, 65
	.byte W03
	.byte 55 @ VOL
	.byte W03
	.byte 46 @ VOL
	.byte W03
	.byte 40 @ VOL
	.byte W03
	.byte 33 @ VOL
	.byte W03
	.byte 29 @ VOL
	.byte W03
	.byte 24 @ VOL
	.byte W03
	.byte 21 @ VOL
	.byte W03
	.byte 18 @ VOL
	.byte W03
	.byte 14 @ VOL
	.byte W03
	.byte 12 @ VOL
	.byte W03
	.byte 10 @ VOL
	.byte W03
	.byte 8 @ VOL
	.byte W03
	.byte 7 @ VOL
	.byte W03
	.byte 5 @ VOL
	.byte W03
	.byte 3 @ VOL
	.byte W03
	.byte 2 @ VOL
	.byte W03
	.byte 1 @ VOL
	.byte W06
	.byte FINE

.align 2

track_558:
	.byte 3
	.byte 0
	.byte 228
	.byte 0
	.word voice_group17
	.word track_558_0
	.word track_558_1
	.word track_558_2

.align 2
